%TF.GenerationSoftware,KiCad,Pcbnew,(6.0.4)*%
%TF.CreationDate,2022-07-11T23:15:34+12:00*%
%TF.ProjectId,bldc_hardware_riscv,626c6463-5f68-4617-9264-776172655f72,rev?*%
%TF.SameCoordinates,Original*%
%TF.FileFunction,Soldermask,Top*%
%TF.FilePolarity,Negative*%
%FSLAX46Y46*%
G04 Gerber Fmt 4.6, Leading zero omitted, Abs format (unit mm)*
G04 Created by KiCad (PCBNEW (6.0.4)) date 2022-07-11 23:15:34*
%MOMM*%
%LPD*%
G01*
G04 APERTURE LIST*
G04 Aperture macros list*
%AMRoundRect*
0 Rectangle with rounded corners*
0 $1 Rounding radius*
0 $2 $3 $4 $5 $6 $7 $8 $9 X,Y pos of 4 corners*
0 Add a 4 corners polygon primitive as box body*
4,1,4,$2,$3,$4,$5,$6,$7,$8,$9,$2,$3,0*
0 Add four circle primitives for the rounded corners*
1,1,$1+$1,$2,$3*
1,1,$1+$1,$4,$5*
1,1,$1+$1,$6,$7*
1,1,$1+$1,$8,$9*
0 Add four rect primitives between the rounded corners*
20,1,$1+$1,$2,$3,$4,$5,0*
20,1,$1+$1,$4,$5,$6,$7,0*
20,1,$1+$1,$6,$7,$8,$9,0*
20,1,$1+$1,$8,$9,$2,$3,0*%
G04 Aperture macros list end*
%ADD10RoundRect,0.150000X0.825000X0.150000X-0.825000X0.150000X-0.825000X-0.150000X0.825000X-0.150000X0*%
%ADD11R,2.300000X2.300000*%
%ADD12RoundRect,0.101600X0.100000X0.100000X-0.100000X0.100000X-0.100000X-0.100000X0.100000X-0.100000X0*%
%ADD13R,1.100000X1.300000*%
%ADD14RoundRect,0.225000X-0.250000X0.225000X-0.250000X-0.225000X0.250000X-0.225000X0.250000X0.225000X0*%
%ADD15RoundRect,0.225000X-0.225000X-0.250000X0.225000X-0.250000X0.225000X0.250000X-0.225000X0.250000X0*%
%ADD16RoundRect,0.200000X0.275000X-0.200000X0.275000X0.200000X-0.275000X0.200000X-0.275000X-0.200000X0*%
%ADD17RoundRect,0.200000X0.200000X0.275000X-0.200000X0.275000X-0.200000X-0.275000X0.200000X-0.275000X0*%
%ADD18R,1.905000X2.000000*%
%ADD19O,1.905000X2.000000*%
%ADD20RoundRect,0.250000X0.250000X0.475000X-0.250000X0.475000X-0.250000X-0.475000X0.250000X-0.475000X0*%
%ADD21RoundRect,0.225000X0.225000X0.250000X-0.225000X0.250000X-0.225000X-0.250000X0.225000X-0.250000X0*%
%ADD22RoundRect,0.200000X-0.275000X0.200000X-0.275000X-0.200000X0.275000X-0.200000X0.275000X0.200000X0*%
%ADD23RoundRect,0.150000X-0.587500X-0.150000X0.587500X-0.150000X0.587500X0.150000X-0.587500X0.150000X0*%
%ADD24RoundRect,0.200000X-0.200000X-0.275000X0.200000X-0.275000X0.200000X0.275000X-0.200000X0.275000X0*%
%ADD25RoundRect,0.375000X-0.375000X-0.725000X0.375000X-0.725000X0.375000X0.725000X-0.375000X0.725000X0*%
%ADD26RoundRect,0.150000X-0.825000X-0.150000X0.825000X-0.150000X0.825000X0.150000X-0.825000X0.150000X0*%
%ADD27RoundRect,0.250000X-0.312500X-0.625000X0.312500X-0.625000X0.312500X0.625000X-0.312500X0.625000X0*%
%ADD28R,0.600000X0.450000*%
%ADD29RoundRect,0.218750X-0.218750X-0.256250X0.218750X-0.256250X0.218750X0.256250X-0.218750X0.256250X0*%
%ADD30RoundRect,0.225000X0.250000X-0.225000X0.250000X0.225000X-0.250000X0.225000X-0.250000X-0.225000X0*%
%ADD31RoundRect,0.150000X0.587500X0.150000X-0.587500X0.150000X-0.587500X-0.150000X0.587500X-0.150000X0*%
%ADD32R,1.200000X1.200000*%
%ADD33R,1.800000X2.500000*%
%ADD34RoundRect,0.150000X0.150000X-0.825000X0.150000X0.825000X-0.150000X0.825000X-0.150000X-0.825000X0*%
%ADD35R,1.500000X3.600000*%
%ADD36RoundRect,0.100000X-0.100000X0.637500X-0.100000X-0.637500X0.100000X-0.637500X0.100000X0.637500X0*%
%ADD37RoundRect,0.250000X0.425000X-0.450000X0.425000X0.450000X-0.425000X0.450000X-0.425000X-0.450000X0*%
%ADD38R,1.200000X0.900000*%
%ADD39RoundRect,0.075000X0.725000X0.075000X-0.725000X0.075000X-0.725000X-0.075000X0.725000X-0.075000X0*%
%ADD40RoundRect,0.075000X0.075000X0.725000X-0.075000X0.725000X-0.075000X-0.725000X0.075000X-0.725000X0*%
%ADD41R,1.600000X1.600000*%
%ADD42C,1.600000*%
%ADD43RoundRect,0.250000X0.350000X0.625000X-0.350000X0.625000X-0.350000X-0.625000X0.350000X-0.625000X0*%
%ADD44O,1.200000X1.750000*%
%ADD45RoundRect,0.250000X-0.350000X-0.625000X0.350000X-0.625000X0.350000X0.625000X-0.350000X0.625000X0*%
%ADD46R,2.400000X2.400000*%
%ADD47C,2.400000*%
%ADD48C,3.200000*%
%ADD49O,1.100000X2.200000*%
%ADD50O,1.100000X1.800000*%
%ADD51R,1.700000X1.700000*%
%ADD52O,1.700000X1.700000*%
G04 APERTURE END LIST*
%TO.C,AE1*%
G36*
X81050000Y-102850000D02*
G01*
X80350000Y-102850000D01*
X80350000Y-101050000D01*
X81050000Y-101050000D01*
X81050000Y-102850000D01*
G37*
G36*
X85950000Y-99350000D02*
G01*
X80350000Y-99350000D01*
X80350000Y-98650000D01*
X85950000Y-98650000D01*
X85950000Y-99350000D01*
G37*
G36*
X83150000Y-102850000D02*
G01*
X80350000Y-102850000D01*
X80350000Y-102250000D01*
X83150000Y-102250000D01*
X83150000Y-102850000D01*
G37*
G36*
X84047888Y-105450000D02*
G01*
X83550000Y-105450000D01*
X83550000Y-102782815D01*
X84050000Y-102782815D01*
X84047888Y-105450000D01*
G37*
G36*
X84047888Y-105449994D02*
G01*
X80350000Y-105449994D01*
X80350000Y-104750000D01*
X84047888Y-104750000D01*
X84047888Y-105449994D01*
G37*
G36*
X83150000Y-101650000D02*
G01*
X80350000Y-101650000D01*
X80350000Y-101050000D01*
X83150000Y-101050000D01*
X83150000Y-101650000D01*
G37*
G36*
X81050000Y-100450000D02*
G01*
X80350000Y-100450000D01*
X80350000Y-97050000D01*
X81050000Y-97050000D01*
X81050000Y-100450000D01*
G37*
G36*
X83150000Y-100450000D02*
G01*
X80350000Y-100450000D01*
X80350000Y-99850000D01*
X83150000Y-99850000D01*
X83150000Y-100450000D01*
G37*
G36*
X83150000Y-104050000D02*
G01*
X80350000Y-104050000D01*
X80350000Y-103450000D01*
X83150000Y-103450000D01*
X83150000Y-104050000D01*
G37*
G36*
X81050000Y-105450000D02*
G01*
X80350000Y-105450000D01*
X80350000Y-103450000D01*
X81050000Y-103450000D01*
X81050000Y-105450000D01*
G37*
G36*
X83150000Y-104050000D02*
G01*
X82450000Y-104050000D01*
X82450000Y-102750000D01*
X83150000Y-102750000D01*
X83150000Y-104050000D01*
G37*
G36*
X85950000Y-98050000D02*
G01*
X80350000Y-98050000D01*
X80350000Y-97050000D01*
X85950000Y-97050000D01*
X85950000Y-98050000D01*
G37*
G36*
X83150000Y-101650000D02*
G01*
X82450000Y-101650000D01*
X82450000Y-99850000D01*
X83150000Y-99850000D01*
X83150000Y-101650000D01*
G37*
%TD*%
D10*
%TO.C,U8*%
X92975000Y-104085000D03*
X92975000Y-102815000D03*
X92975000Y-101545000D03*
X92975000Y-100275000D03*
X92975000Y-99005000D03*
X88025000Y-99005000D03*
X88025000Y-100275000D03*
X88025000Y-101545000D03*
X88025000Y-102815000D03*
X88025000Y-104085000D03*
D11*
X90500000Y-101500000D03*
%TD*%
D10*
%TO.C,U103*%
X148975000Y-126905000D03*
X148975000Y-125635000D03*
X148975000Y-124365000D03*
X148975000Y-123095000D03*
X144025000Y-123095000D03*
X144025000Y-124365000D03*
X144025000Y-125635000D03*
X144025000Y-126905000D03*
D11*
X146500000Y-125000000D03*
%TD*%
D10*
%TO.C,U102*%
X125975000Y-126905000D03*
X125975000Y-125635000D03*
X125975000Y-124365000D03*
X125975000Y-123095000D03*
X121025000Y-123095000D03*
X121025000Y-124365000D03*
X121025000Y-125635000D03*
X121025000Y-126905000D03*
D11*
X123500000Y-125000000D03*
%TD*%
D10*
%TO.C,U101*%
X102975000Y-126905000D03*
X102975000Y-125635000D03*
X102975000Y-124365000D03*
X102975000Y-123095000D03*
X98025000Y-123095000D03*
X98025000Y-124365000D03*
X98025000Y-125635000D03*
X98025000Y-126905000D03*
D11*
X100500000Y-125000000D03*
%TD*%
D12*
%TO.C,AE1*%
X85907500Y-99022500D03*
X85907500Y-97539699D03*
%TD*%
D13*
%TO.C,Y2*%
X95175000Y-101050000D03*
X95175000Y-98950000D03*
X96825000Y-98950000D03*
X96825000Y-101050000D03*
%TD*%
D14*
%TO.C,C40*%
X85800000Y-100225000D03*
X85800000Y-101775000D03*
%TD*%
D15*
%TO.C,C39*%
X94950000Y-103000000D03*
X96500000Y-103000000D03*
%TD*%
D16*
%TO.C,R33*%
X127500000Y-106325000D03*
X127500000Y-104675000D03*
%TD*%
D17*
%TO.C,R24*%
X154325000Y-103000000D03*
X152675000Y-103000000D03*
%TD*%
D18*
%TO.C,Q2*%
X99500000Y-119000000D03*
D19*
X96960000Y-119000000D03*
X94420000Y-119000000D03*
%TD*%
D20*
%TO.C,C4*%
X112450000Y-99500000D03*
X110550000Y-99500000D03*
%TD*%
D21*
%TO.C,C7*%
X112275000Y-101300000D03*
X110725000Y-101300000D03*
%TD*%
D15*
%TO.C,C29*%
X152925000Y-96600000D03*
X154475000Y-96600000D03*
%TD*%
%TO.C,C34*%
X153725000Y-89500000D03*
X155275000Y-89500000D03*
%TD*%
D22*
%TO.C,R13*%
X97500000Y-87675000D03*
X97500000Y-89325000D03*
%TD*%
D15*
%TO.C,C6*%
X92000000Y-88000000D03*
X93550000Y-88000000D03*
%TD*%
D23*
%TO.C,U5*%
X87062500Y-122550000D03*
X87062500Y-124450000D03*
X88937500Y-123500000D03*
%TD*%
D17*
%TO.C,R11*%
X153825000Y-116000000D03*
X152175000Y-116000000D03*
%TD*%
%TO.C,R5*%
X102500000Y-114500000D03*
X100850000Y-114500000D03*
%TD*%
%TO.C,R14*%
X153825000Y-114500000D03*
X152175000Y-114500000D03*
%TD*%
D14*
%TO.C,C18*%
X98000000Y-84725000D03*
X98000000Y-86275000D03*
%TD*%
D24*
%TO.C,R34*%
X102175000Y-104500000D03*
X103825000Y-104500000D03*
%TD*%
D25*
%TO.C,L1*%
X84350000Y-85500000D03*
X90650000Y-85500000D03*
%TD*%
D16*
%TO.C,R16*%
X99000000Y-90325000D03*
X99000000Y-88675000D03*
%TD*%
D26*
%TO.C,U7*%
X103525000Y-98295000D03*
X103525000Y-99565000D03*
X103525000Y-100835000D03*
X103525000Y-102105000D03*
X108475000Y-102105000D03*
X108475000Y-100835000D03*
X108475000Y-99565000D03*
X108475000Y-98295000D03*
%TD*%
D27*
%TO.C,R10*%
X93037500Y-85500000D03*
X95962500Y-85500000D03*
%TD*%
D17*
%TO.C,R27*%
X115825000Y-123500000D03*
X114175000Y-123500000D03*
%TD*%
D24*
%TO.C,R22*%
X94175000Y-125500000D03*
X95825000Y-125500000D03*
%TD*%
D14*
%TO.C,C2*%
X114000000Y-88425000D03*
X114000000Y-89975000D03*
%TD*%
%TO.C,C20*%
X149400000Y-101525000D03*
X149400000Y-103075000D03*
%TD*%
D28*
%TO.C,D4*%
X126550000Y-116000000D03*
X124450000Y-116000000D03*
%TD*%
D16*
%TO.C,R30*%
X123500000Y-105825000D03*
X123500000Y-104175000D03*
%TD*%
D17*
%TO.C,R7*%
X118275000Y-116000000D03*
X116625000Y-116000000D03*
%TD*%
%TO.C,R37*%
X115725000Y-93100000D03*
X114075000Y-93100000D03*
%TD*%
D15*
%TO.C,C27*%
X151325000Y-99400000D03*
X152875000Y-99400000D03*
%TD*%
D21*
%TO.C,C11*%
X125275000Y-109000000D03*
X123725000Y-109000000D03*
%TD*%
D17*
%TO.C,R4*%
X110825000Y-114500000D03*
X109175000Y-114500000D03*
%TD*%
D16*
%TO.C,R35*%
X127500000Y-103325000D03*
X127500000Y-101675000D03*
%TD*%
D10*
%TO.C,U4*%
X89975000Y-93830000D03*
X89975000Y-92560000D03*
X89975000Y-91290000D03*
X89975000Y-90020000D03*
X85025000Y-90020000D03*
X85025000Y-91290000D03*
X85025000Y-92560000D03*
X85025000Y-93830000D03*
D11*
X87500000Y-91925000D03*
%TD*%
D18*
%TO.C,Q5*%
X155540000Y-119000000D03*
D19*
X153000000Y-119000000D03*
X150460000Y-119000000D03*
%TD*%
D28*
%TO.C,D5*%
X115000000Y-116000000D03*
X112900000Y-116000000D03*
%TD*%
D29*
%TO.C,D15*%
X139512500Y-106600000D03*
X141087500Y-106600000D03*
%TD*%
D28*
%TO.C,D10*%
X150550000Y-116000000D03*
X148450000Y-116000000D03*
%TD*%
D30*
%TO.C,C10*%
X112000000Y-90775000D03*
X112000000Y-89225000D03*
%TD*%
D16*
%TO.C,R29*%
X119500000Y-105325000D03*
X119500000Y-103675000D03*
%TD*%
D24*
%TO.C,R36*%
X105175000Y-104500000D03*
X106825000Y-104500000D03*
%TD*%
D13*
%TO.C,Y1*%
X153175000Y-91250000D03*
X153175000Y-93350000D03*
X154825000Y-93350000D03*
X154825000Y-91250000D03*
%TD*%
D31*
%TO.C,D12*%
X122437500Y-88450000D03*
X122437500Y-86550000D03*
X120562500Y-87500000D03*
%TD*%
D17*
%TO.C,R3*%
X102500000Y-116000000D03*
X100850000Y-116000000D03*
%TD*%
D32*
%TO.C,D3*%
X102000000Y-90900000D03*
X102000000Y-88100000D03*
%TD*%
D33*
%TO.C,D7*%
X82000000Y-91500000D03*
X82000000Y-87500000D03*
%TD*%
D30*
%TO.C,C38*%
X101300000Y-100875000D03*
X101300000Y-99325000D03*
%TD*%
D17*
%TO.C,R26*%
X138825000Y-123500000D03*
X137175000Y-123500000D03*
%TD*%
D21*
%TO.C,C25*%
X115775000Y-125000000D03*
X114225000Y-125000000D03*
%TD*%
D14*
%TO.C,C32*%
X134500000Y-99725000D03*
X134500000Y-101275000D03*
%TD*%
D34*
%TO.C,U2*%
X104095000Y-87475000D03*
X105365000Y-87475000D03*
X106635000Y-87475000D03*
X107905000Y-87475000D03*
X107905000Y-82525000D03*
X106635000Y-82525000D03*
X105365000Y-82525000D03*
X104095000Y-82525000D03*
%TD*%
D15*
%TO.C,C22*%
X121225000Y-128500000D03*
X122775000Y-128500000D03*
%TD*%
%TO.C,C21*%
X144225000Y-128500000D03*
X145775000Y-128500000D03*
%TD*%
D35*
%TO.C,L2*%
X104475000Y-91500000D03*
X107525000Y-91500000D03*
%TD*%
D17*
%TO.C,R12*%
X141825000Y-116000000D03*
X140175000Y-116000000D03*
%TD*%
%TO.C,R6*%
X129825000Y-116000000D03*
X128175000Y-116000000D03*
%TD*%
D15*
%TO.C,C23*%
X98225000Y-128500000D03*
X99775000Y-128500000D03*
%TD*%
D24*
%TO.C,R21*%
X94175000Y-123500000D03*
X95825000Y-123500000D03*
%TD*%
D36*
%TO.C,U3*%
X116925000Y-103637500D03*
X116275000Y-103637500D03*
X115625000Y-103637500D03*
X114975000Y-103637500D03*
X114325000Y-103637500D03*
X113675000Y-103637500D03*
X113025000Y-103637500D03*
X112375000Y-103637500D03*
X111725000Y-103637500D03*
X111075000Y-103637500D03*
X111075000Y-109362500D03*
X111725000Y-109362500D03*
X112375000Y-109362500D03*
X113025000Y-109362500D03*
X113675000Y-109362500D03*
X114325000Y-109362500D03*
X114975000Y-109362500D03*
X115625000Y-109362500D03*
X116275000Y-109362500D03*
X116925000Y-109362500D03*
%TD*%
D24*
%TO.C,R39*%
X142875000Y-106600000D03*
X144525000Y-106600000D03*
%TD*%
D17*
%TO.C,R1*%
X155325000Y-86500000D03*
X153675000Y-86500000D03*
%TD*%
D18*
%TO.C,Q6*%
X144540000Y-119000000D03*
D19*
X142000000Y-119000000D03*
X139460000Y-119000000D03*
%TD*%
D17*
%TO.C,R23*%
X154325000Y-101500000D03*
X152675000Y-101500000D03*
%TD*%
%TO.C,R9*%
X118275000Y-114500000D03*
X116625000Y-114500000D03*
%TD*%
%TO.C,R25*%
X118725000Y-92300000D03*
X117075000Y-92300000D03*
%TD*%
D21*
%TO.C,C19*%
X155275000Y-88000000D03*
X153725000Y-88000000D03*
%TD*%
D17*
%TO.C,R28*%
X92825000Y-123500000D03*
X91175000Y-123500000D03*
%TD*%
D18*
%TO.C,Q1*%
X110500000Y-119000000D03*
D19*
X107960000Y-119000000D03*
X105420000Y-119000000D03*
%TD*%
D28*
%TO.C,D1*%
X107550000Y-116000000D03*
X105450000Y-116000000D03*
%TD*%
D37*
%TO.C,C9*%
X110000000Y-90850000D03*
X110000000Y-88150000D03*
%TD*%
D38*
%TO.C,D9*%
X121500000Y-105150000D03*
X121500000Y-101850000D03*
%TD*%
D16*
%TO.C,R31*%
X119500000Y-102325000D03*
X119500000Y-100675000D03*
%TD*%
D30*
%TO.C,C36*%
X132200000Y-84675000D03*
X132200000Y-83125000D03*
%TD*%
D24*
%TO.C,R18*%
X140175000Y-125500000D03*
X141825000Y-125500000D03*
%TD*%
D30*
%TO.C,C37*%
X99800000Y-100875000D03*
X99800000Y-99325000D03*
%TD*%
D14*
%TO.C,C16*%
X96000000Y-87725000D03*
X96000000Y-89275000D03*
%TD*%
D21*
%TO.C,C3*%
X114550000Y-86900000D03*
X113000000Y-86900000D03*
%TD*%
%TO.C,C26*%
X92775000Y-125000000D03*
X91225000Y-125000000D03*
%TD*%
D39*
%TO.C,U1*%
X150675000Y-98000000D03*
X150675000Y-97500000D03*
X150675000Y-97000000D03*
X150675000Y-96500000D03*
X150675000Y-96000000D03*
X150675000Y-95500000D03*
X150675000Y-95000000D03*
X150675000Y-94500000D03*
X150675000Y-94000000D03*
X150675000Y-93500000D03*
X150675000Y-93000000D03*
X150675000Y-92500000D03*
X150675000Y-92000000D03*
X150675000Y-91500000D03*
X150675000Y-91000000D03*
X150675000Y-90500000D03*
X150675000Y-90000000D03*
X150675000Y-89500000D03*
X150675000Y-89000000D03*
X150675000Y-88500000D03*
X150675000Y-88000000D03*
X150675000Y-87500000D03*
X150675000Y-87000000D03*
X150675000Y-86500000D03*
X150675000Y-86000000D03*
D40*
X149000000Y-84325000D03*
X148500000Y-84325000D03*
X148000000Y-84325000D03*
X147500000Y-84325000D03*
X147000000Y-84325000D03*
X146500000Y-84325000D03*
X146000000Y-84325000D03*
X145500000Y-84325000D03*
X145000000Y-84325000D03*
X144500000Y-84325000D03*
X144000000Y-84325000D03*
X143500000Y-84325000D03*
X143000000Y-84325000D03*
X142500000Y-84325000D03*
X142000000Y-84325000D03*
X141500000Y-84325000D03*
X141000000Y-84325000D03*
X140500000Y-84325000D03*
X140000000Y-84325000D03*
X139500000Y-84325000D03*
X139000000Y-84325000D03*
X138500000Y-84325000D03*
X138000000Y-84325000D03*
X137500000Y-84325000D03*
X137000000Y-84325000D03*
D39*
X135325000Y-86000000D03*
X135325000Y-86500000D03*
X135325000Y-87000000D03*
X135325000Y-87500000D03*
X135325000Y-88000000D03*
X135325000Y-88500000D03*
X135325000Y-89000000D03*
X135325000Y-89500000D03*
X135325000Y-90000000D03*
X135325000Y-90500000D03*
X135325000Y-91000000D03*
X135325000Y-91500000D03*
X135325000Y-92000000D03*
X135325000Y-92500000D03*
X135325000Y-93000000D03*
X135325000Y-93500000D03*
X135325000Y-94000000D03*
X135325000Y-94500000D03*
X135325000Y-95000000D03*
X135325000Y-95500000D03*
X135325000Y-96000000D03*
X135325000Y-96500000D03*
X135325000Y-97000000D03*
X135325000Y-97500000D03*
X135325000Y-98000000D03*
D40*
X137000000Y-99675000D03*
X137500000Y-99675000D03*
X138000000Y-99675000D03*
X138500000Y-99675000D03*
X139000000Y-99675000D03*
X139500000Y-99675000D03*
X140000000Y-99675000D03*
X140500000Y-99675000D03*
X141000000Y-99675000D03*
X141500000Y-99675000D03*
X142000000Y-99675000D03*
X142500000Y-99675000D03*
X143000000Y-99675000D03*
X143500000Y-99675000D03*
X144000000Y-99675000D03*
X144500000Y-99675000D03*
X145000000Y-99675000D03*
X145500000Y-99675000D03*
X146000000Y-99675000D03*
X146500000Y-99675000D03*
X147000000Y-99675000D03*
X147500000Y-99675000D03*
X148000000Y-99675000D03*
X148500000Y-99675000D03*
X149000000Y-99675000D03*
%TD*%
D28*
%TO.C,D11*%
X138550000Y-116000000D03*
X136450000Y-116000000D03*
%TD*%
D38*
%TO.C,D6*%
X129500000Y-106650000D03*
X129500000Y-103350000D03*
%TD*%
D21*
%TO.C,C31*%
X135275000Y-83500000D03*
X133725000Y-83500000D03*
%TD*%
D29*
%TO.C,D14*%
X139512500Y-104900000D03*
X141087500Y-104900000D03*
%TD*%
D21*
%TO.C,C35*%
X155175000Y-95100000D03*
X153625000Y-95100000D03*
%TD*%
%TO.C,C1*%
X88775000Y-119500000D03*
X87225000Y-119500000D03*
%TD*%
D18*
%TO.C,Q4*%
X122000000Y-119000000D03*
D19*
X119460000Y-119000000D03*
X116920000Y-119000000D03*
%TD*%
D15*
%TO.C,C30*%
X148725000Y-82300000D03*
X150275000Y-82300000D03*
%TD*%
D31*
%TO.C,D13*%
X128337500Y-91950000D03*
X128337500Y-90050000D03*
X126462500Y-91000000D03*
%TD*%
D38*
%TO.C,D8*%
X125500000Y-105150000D03*
X125500000Y-101850000D03*
%TD*%
D24*
%TO.C,R20*%
X117175000Y-125300000D03*
X118825000Y-125300000D03*
%TD*%
D17*
%TO.C,R8*%
X129825000Y-114500000D03*
X128175000Y-114500000D03*
%TD*%
D21*
%TO.C,C24*%
X138775000Y-125000000D03*
X137225000Y-125000000D03*
%TD*%
D28*
%TO.C,D2*%
X99225000Y-116000000D03*
X97125000Y-116000000D03*
%TD*%
D21*
%TO.C,C15*%
X88775000Y-126000000D03*
X87225000Y-126000000D03*
%TD*%
D18*
%TO.C,Q3*%
X133000000Y-119000000D03*
D19*
X130460000Y-119000000D03*
X127920000Y-119000000D03*
%TD*%
D21*
%TO.C,C12*%
X88775000Y-121000000D03*
X87225000Y-121000000D03*
%TD*%
D24*
%TO.C,R19*%
X117175000Y-123500000D03*
X118825000Y-123500000D03*
%TD*%
D17*
%TO.C,R15*%
X141825000Y-114500000D03*
X140175000Y-114500000D03*
%TD*%
D14*
%TO.C,C33*%
X110000000Y-82725000D03*
X110000000Y-84275000D03*
%TD*%
D31*
%TO.C,U6*%
X118437500Y-88450000D03*
X118437500Y-86550000D03*
X116562500Y-87500000D03*
%TD*%
D15*
%TO.C,C28*%
X153725000Y-85000000D03*
X155275000Y-85000000D03*
%TD*%
D24*
%TO.C,R38*%
X142875000Y-104900000D03*
X144525000Y-104900000D03*
%TD*%
D21*
%TO.C,C13*%
X122275000Y-109000000D03*
X120725000Y-109000000D03*
%TD*%
D16*
%TO.C,R32*%
X123500000Y-102825000D03*
X123500000Y-101175000D03*
%TD*%
D17*
%TO.C,R2*%
X110825000Y-116000000D03*
X109175000Y-116000000D03*
%TD*%
D24*
%TO.C,R17*%
X140175000Y-124000000D03*
X141825000Y-124000000D03*
%TD*%
D14*
%TO.C,C8*%
X92600000Y-89450000D03*
X92600000Y-91000000D03*
%TD*%
D21*
%TO.C,C14*%
X121775000Y-107000000D03*
X120225000Y-107000000D03*
%TD*%
D41*
%TO.C,C17*%
X100000000Y-84500000D03*
D42*
X100000000Y-87000000D03*
%TD*%
D43*
%TO.C,J3*%
X115600000Y-95350000D03*
D44*
X113600000Y-95350000D03*
X111600000Y-95350000D03*
X109600000Y-95350000D03*
X107600000Y-95350000D03*
X105600000Y-95350000D03*
%TD*%
D45*
%TO.C,J2*%
X113500000Y-83550000D03*
D44*
X115500000Y-83550000D03*
X117500000Y-83550000D03*
X119500000Y-83550000D03*
X121500000Y-83550000D03*
X123500000Y-83550000D03*
%TD*%
D46*
%TO.C,C101*%
X102000000Y-110500000D03*
D47*
X97000000Y-110500000D03*
%TD*%
D46*
%TO.C,C102*%
X133000000Y-110500000D03*
D47*
X128000000Y-110500000D03*
%TD*%
D48*
%TO.C,X3*%
X107500000Y-133500000D03*
X104565000Y-130565000D03*
X110435000Y-130565000D03*
X110435000Y-136435000D03*
X104565000Y-136435000D03*
%TD*%
%TO.C,X4*%
X130500000Y-133500000D03*
X127565000Y-130565000D03*
X133435000Y-136435000D03*
X133435000Y-130565000D03*
X127565000Y-136435000D03*
%TD*%
D49*
%TO.C,J1*%
X158337500Y-101500000D03*
D50*
X156187500Y-98700000D03*
X156187500Y-104300000D03*
%TD*%
D48*
%TO.C,X1*%
X89935000Y-114435000D03*
X89935000Y-108565000D03*
X84065000Y-108565000D03*
X84065000Y-114435000D03*
X87000000Y-111500000D03*
%TD*%
D41*
%TO.C,C5*%
X94000000Y-95000000D03*
D42*
X96500000Y-95000000D03*
%TD*%
D46*
%TO.C,C103*%
X144376041Y-111000000D03*
D47*
X149376041Y-111000000D03*
%TD*%
D51*
%TO.C,J4*%
X143240000Y-102900000D03*
D52*
X140700000Y-102900000D03*
X138160000Y-102900000D03*
X135620000Y-102900000D03*
%TD*%
D48*
%TO.C,X5*%
X153500000Y-133500000D03*
X156435000Y-136435000D03*
X150565000Y-130565000D03*
X156435000Y-130565000D03*
X150565000Y-136435000D03*
%TD*%
%TO.C,X2*%
X87000000Y-134000000D03*
X84065000Y-131065000D03*
X89935000Y-131065000D03*
X84065000Y-136935000D03*
X89935000Y-136935000D03*
%TD*%
M02*
