%TF.GenerationSoftware,KiCad,Pcbnew,(6.0.4)*%
%TF.CreationDate,2022-07-11T23:15:34+12:00*%
%TF.ProjectId,bldc_hardware_riscv,626c6463-5f68-4617-9264-776172655f72,rev?*%
%TF.SameCoordinates,Original*%
%TF.FileFunction,Copper,L4,Bot*%
%TF.FilePolarity,Positive*%
%FSLAX46Y46*%
G04 Gerber Fmt 4.6, Leading zero omitted, Abs format (unit mm)*
G04 Created by KiCad (PCBNEW (6.0.4)) date 2022-07-11 23:15:34*
%MOMM*%
%LPD*%
G01*
G04 APERTURE LIST*
G04 Aperture macros list*
%AMRoundRect*
0 Rectangle with rounded corners*
0 $1 Rounding radius*
0 $2 $3 $4 $5 $6 $7 $8 $9 X,Y pos of 4 corners*
0 Add a 4 corners polygon primitive as box body*
4,1,4,$2,$3,$4,$5,$6,$7,$8,$9,$2,$3,0*
0 Add four circle primitives for the rounded corners*
1,1,$1+$1,$2,$3*
1,1,$1+$1,$4,$5*
1,1,$1+$1,$6,$7*
1,1,$1+$1,$8,$9*
0 Add four rect primitives between the rounded corners*
20,1,$1+$1,$2,$3,$4,$5,0*
20,1,$1+$1,$4,$5,$6,$7,0*
20,1,$1+$1,$6,$7,$8,$9,0*
20,1,$1+$1,$8,$9,$2,$3,0*%
G04 Aperture macros list end*
%TA.AperFunction,ComponentPad*%
%ADD10R,1.905000X2.000000*%
%TD*%
%TA.AperFunction,ComponentPad*%
%ADD11O,1.905000X2.000000*%
%TD*%
%TA.AperFunction,ComponentPad*%
%ADD12R,1.600000X1.600000*%
%TD*%
%TA.AperFunction,ComponentPad*%
%ADD13C,1.600000*%
%TD*%
%TA.AperFunction,ComponentPad*%
%ADD14RoundRect,0.250000X0.350000X0.625000X-0.350000X0.625000X-0.350000X-0.625000X0.350000X-0.625000X0*%
%TD*%
%TA.AperFunction,ComponentPad*%
%ADD15O,1.200000X1.750000*%
%TD*%
%TA.AperFunction,ComponentPad*%
%ADD16RoundRect,0.250000X-0.350000X-0.625000X0.350000X-0.625000X0.350000X0.625000X-0.350000X0.625000X0*%
%TD*%
%TA.AperFunction,ComponentPad*%
%ADD17R,2.400000X2.400000*%
%TD*%
%TA.AperFunction,ComponentPad*%
%ADD18C,2.400000*%
%TD*%
%TA.AperFunction,ComponentPad*%
%ADD19C,3.200000*%
%TD*%
%TA.AperFunction,SMDPad,CuDef*%
%ADD20RoundRect,0.250000X-0.362500X-1.425000X0.362500X-1.425000X0.362500X1.425000X-0.362500X1.425000X0*%
%TD*%
%TA.AperFunction,SMDPad,CuDef*%
%ADD21R,1.500000X0.450000*%
%TD*%
%TA.AperFunction,ComponentPad*%
%ADD22O,1.100000X2.200000*%
%TD*%
%TA.AperFunction,ComponentPad*%
%ADD23O,1.100000X1.800000*%
%TD*%
%TA.AperFunction,ComponentPad*%
%ADD24R,1.700000X1.700000*%
%TD*%
%TA.AperFunction,ComponentPad*%
%ADD25O,1.700000X1.700000*%
%TD*%
%TA.AperFunction,ViaPad*%
%ADD26C,0.500000*%
%TD*%
%TA.AperFunction,ViaPad*%
%ADD27C,0.700000*%
%TD*%
%TA.AperFunction,Conductor*%
%ADD28C,0.250000*%
%TD*%
%TA.AperFunction,Conductor*%
%ADD29C,1.000000*%
%TD*%
%TA.AperFunction,Conductor*%
%ADD30C,0.400000*%
%TD*%
G04 APERTURE END LIST*
D10*
%TO.P,Q2,1,G*%
%TO.N,Net-(D2-Pad2)*%
X99500000Y-119000000D03*
D11*
%TO.P,Q2,2,D*%
%TO.N,/Driver/VS1*%
X96960000Y-119000000D03*
%TO.P,Q2,3,S*%
%TO.N,GND*%
X94420000Y-119000000D03*
%TD*%
D10*
%TO.P,Q5,1,G*%
%TO.N,Net-(D10-Pad2)*%
X155540000Y-119000000D03*
D11*
%TO.P,Q5,2,D*%
%TO.N,/Driver/72V*%
X153000000Y-119000000D03*
%TO.P,Q5,3,S*%
%TO.N,/Driver/VS3*%
X150460000Y-119000000D03*
%TD*%
D10*
%TO.P,Q6,1,G*%
%TO.N,Net-(D11-Pad2)*%
X144540000Y-119000000D03*
D11*
%TO.P,Q6,2,D*%
%TO.N,/Driver/VS3*%
X142000000Y-119000000D03*
%TO.P,Q6,3,S*%
%TO.N,GND*%
X139460000Y-119000000D03*
%TD*%
D10*
%TO.P,Q1,1,G*%
%TO.N,Net-(D1-Pad2)*%
X110500000Y-119000000D03*
D11*
%TO.P,Q1,2,D*%
%TO.N,/Driver/72V*%
X107960000Y-119000000D03*
%TO.P,Q1,3,S*%
%TO.N,/Driver/VS1*%
X105420000Y-119000000D03*
%TD*%
D10*
%TO.P,Q4,1,G*%
%TO.N,Net-(D5-Pad2)*%
X122000000Y-119000000D03*
D11*
%TO.P,Q4,2,D*%
%TO.N,/Driver/VS2*%
X119460000Y-119000000D03*
%TO.P,Q4,3,S*%
%TO.N,GND*%
X116920000Y-119000000D03*
%TD*%
D10*
%TO.P,Q3,1,G*%
%TO.N,Net-(D4-Pad2)*%
X133000000Y-119000000D03*
D11*
%TO.P,Q3,2,D*%
%TO.N,/Driver/72V*%
X130460000Y-119000000D03*
%TO.P,Q3,3,S*%
%TO.N,/Driver/VS2*%
X127920000Y-119000000D03*
%TD*%
D12*
%TO.P,C17,1*%
%TO.N,/Driver/12V*%
X100000000Y-84500000D03*
D13*
%TO.P,C17,2*%
%TO.N,GND*%
X100000000Y-87000000D03*
%TD*%
D14*
%TO.P,J3,1,Pin_1*%
%TO.N,/ADC_EXT*%
X115600000Y-95350000D03*
D15*
%TO.P,J3,2,Pin_2*%
%TO.N,Net-(J3-Pad2)*%
X113600000Y-95350000D03*
%TO.P,J3,3,Pin_3*%
%TO.N,Net-(J3-Pad3)*%
X111600000Y-95350000D03*
%TO.P,J3,4,Pin_4*%
%TO.N,/CANH*%
X109600000Y-95350000D03*
%TO.P,J3,5,Pin_5*%
%TO.N,/CANL*%
X107600000Y-95350000D03*
%TO.P,J3,6,Pin_6*%
%TO.N,GND*%
X105600000Y-95350000D03*
%TD*%
D16*
%TO.P,J2,1,Pin_1*%
%TO.N,/HALL-VCC*%
X113500000Y-83550000D03*
D15*
%TO.P,J2,2,Pin_2*%
%TO.N,/MOTOR-TEMP*%
X115500000Y-83550000D03*
%TO.P,J2,3,Pin_3*%
%TO.N,/HALL1*%
X117500000Y-83550000D03*
%TO.P,J2,4,Pin_4*%
%TO.N,/HALL2*%
X119500000Y-83550000D03*
%TO.P,J2,5,Pin_5*%
%TO.N,/HALL3*%
X121500000Y-83550000D03*
%TO.P,J2,6,Pin_6*%
%TO.N,GND*%
X123500000Y-83550000D03*
%TD*%
D17*
%TO.P,C101,1*%
%TO.N,/Driver/72V*%
X102000000Y-110500000D03*
D18*
%TO.P,C101,2*%
%TO.N,GND*%
X97000000Y-110500000D03*
%TD*%
D17*
%TO.P,C102,1*%
%TO.N,/Driver/72V*%
X133000000Y-110500000D03*
D18*
%TO.P,C102,2*%
%TO.N,GND*%
X128000000Y-110500000D03*
%TD*%
D19*
%TO.P,X3,1*%
%TO.N,/Driver/PhaseA*%
X104565000Y-130565000D03*
X110435000Y-130565000D03*
X110435000Y-136435000D03*
X104565000Y-136435000D03*
%TD*%
%TO.P,X4,1*%
%TO.N,/Driver/PhaseB*%
X127565000Y-130565000D03*
X133435000Y-136435000D03*
X133435000Y-130565000D03*
X127565000Y-136435000D03*
%TD*%
D20*
%TO.P,R102,1*%
%TO.N,/Driver/VS2*%
X129537500Y-125500000D03*
%TO.P,R102,2*%
%TO.N,/Driver/PhaseB*%
X135462500Y-125500000D03*
%TD*%
D21*
%TO.P,J1,1,VBUS*%
%TO.N,unconnected-(J1-Pad1)*%
X156437500Y-100200000D03*
%TO.P,J1,2,D-*%
%TO.N,Net-(J1-Pad2)*%
X156437500Y-100850000D03*
%TO.P,J1,3,D+*%
%TO.N,Net-(J1-Pad3)*%
X156437500Y-101500000D03*
%TO.P,J1,4,ID*%
%TO.N,unconnected-(J1-Pad4)*%
X156437500Y-102150000D03*
%TO.P,J1,5,GND*%
%TO.N,GND*%
X156437500Y-102800000D03*
D22*
%TO.P,J1,6,Shield*%
%TO.N,unconnected-(J1-Pad6)*%
X158337500Y-101500000D03*
D23*
X156187500Y-98700000D03*
X156187500Y-104300000D03*
%TD*%
D20*
%TO.P,R103,1*%
%TO.N,/Driver/VS3*%
X152537500Y-125500000D03*
%TO.P,R103,2*%
%TO.N,/Driver/PhaseC*%
X158462500Y-125500000D03*
%TD*%
D19*
%TO.P,X1,1*%
%TO.N,/Driver/72V*%
X89935000Y-114435000D03*
X89935000Y-108565000D03*
X84065000Y-108565000D03*
X84065000Y-114435000D03*
%TD*%
D12*
%TO.P,C5,1*%
%TO.N,/Driver/72V*%
X94000000Y-95000000D03*
D13*
%TO.P,C5,2*%
%TO.N,GND*%
X96500000Y-95000000D03*
%TD*%
D17*
%TO.P,C103,1*%
%TO.N,/Driver/72V*%
X144376041Y-111000000D03*
D18*
%TO.P,C103,2*%
%TO.N,GND*%
X149376041Y-111000000D03*
%TD*%
D24*
%TO.P,J4,1,Pin_1*%
%TO.N,/SWIO*%
X143240000Y-102900000D03*
D25*
%TO.P,J4,2,Pin_2*%
%TO.N,/SWCK*%
X140700000Y-102900000D03*
%TO.P,J4,3,Pin_3*%
%TO.N,/3.3V*%
X138160000Y-102900000D03*
%TO.P,J4,4,Pin_4*%
%TO.N,GND*%
X135620000Y-102900000D03*
%TD*%
D19*
%TO.P,X5,1*%
%TO.N,/Driver/PhaseC*%
X156435000Y-136435000D03*
X150565000Y-130565000D03*
X156435000Y-130565000D03*
X150565000Y-136435000D03*
%TD*%
D20*
%TO.P,R101,1*%
%TO.N,/Driver/VS1*%
X106537500Y-125500000D03*
%TO.P,R101,2*%
%TO.N,/Driver/PhaseA*%
X112462500Y-125500000D03*
%TD*%
D19*
%TO.P,X2,1*%
%TO.N,GND*%
X84065000Y-131065000D03*
X89935000Y-131065000D03*
X84065000Y-136935000D03*
X89935000Y-136935000D03*
%TD*%
D26*
%TO.N,GND*%
X144700000Y-81100000D03*
X127200000Y-81100000D03*
X127200000Y-82100000D03*
X127200000Y-83100000D03*
X123500000Y-82100000D03*
X123500000Y-81100000D03*
%TO.N,/BLE_MODE*%
X100300000Y-96100000D03*
%TO.N,/BLE_RX*%
X101000000Y-94900000D03*
%TO.N,/BLE_TX*%
X101000000Y-94100000D03*
%TO.N,/BLE_MODE*%
X87100000Y-104100000D03*
%TO.N,/BLE_RX*%
X87100000Y-102800000D03*
%TO.N,/BLE_TX*%
X87100000Y-101600000D03*
%TO.N,/BLE_RX*%
X138600000Y-82700000D03*
%TO.N,/BLE_TX*%
X139500000Y-82500000D03*
%TO.N,/BLE_MODE*%
X143000000Y-82900000D03*
%TO.N,/3.3V*%
X99800000Y-101700000D03*
X95000000Y-103800000D03*
%TO.N,GND*%
X91900000Y-97700000D03*
X93500000Y-97700000D03*
X97800000Y-98000000D03*
X97800000Y-99300000D03*
X97800000Y-104900000D03*
X97800000Y-103000000D03*
X96500000Y-104900000D03*
X84900000Y-104900000D03*
X84900000Y-103300000D03*
X84900000Y-101800000D03*
X90500000Y-104100000D03*
X90500000Y-102800000D03*
X90500000Y-100200000D03*
X90500000Y-99000000D03*
D27*
%TO.N,/Driver/12V*%
X89700000Y-119500000D03*
D26*
%TO.N,Net-(J1-Pad3)*%
X155000000Y-101500000D03*
%TO.N,Net-(J1-Pad2)*%
X155000000Y-100500000D03*
%TO.N,/AIN_CS3*%
X158000000Y-109000000D03*
X146000000Y-86000000D03*
%TO.N,/AIN_CS2*%
X146500000Y-83000000D03*
X158000000Y-110500000D03*
%TO.N,/AIN_CS1*%
X147000000Y-86000000D03*
X157500000Y-111500000D03*
%TO.N,/AIN_VS1*%
X120500000Y-99500000D03*
X151702471Y-85996500D03*
%TO.N,/AIN_VS2*%
X124500000Y-99500000D03*
X150000000Y-84500000D03*
%TO.N,/AIN_VS3*%
X128500000Y-99500000D03*
X148000000Y-86000000D03*
%TO.N,/AIN_VIN*%
X110100000Y-102600000D03*
X144500000Y-86000000D03*
%TO.N,/ADC_EXT*%
X143500000Y-88100000D03*
X125300000Y-91900000D03*
%TO.N,GND*%
X101000000Y-123800000D03*
X152300000Y-98400000D03*
X107600000Y-104500000D03*
X100100000Y-123800000D03*
D27*
X106700000Y-84500000D03*
D26*
X123000000Y-126100000D03*
X115500000Y-90000000D03*
X147100000Y-123800000D03*
X123500000Y-100500000D03*
D27*
X104100000Y-84500000D03*
D26*
X101000000Y-126100000D03*
X86400000Y-126000000D03*
D27*
X107900000Y-84500000D03*
D26*
X124000000Y-126100000D03*
X147100000Y-126100000D03*
X156100000Y-81100000D03*
X151800000Y-89000000D03*
X133700000Y-82600000D03*
X156100000Y-91300000D03*
X102100000Y-99300000D03*
X146100000Y-126100000D03*
X120000000Y-90000000D03*
X127500000Y-101000000D03*
D27*
X83100000Y-90800000D03*
D26*
X112000000Y-88500000D03*
X121300000Y-90000000D03*
X119500000Y-100000000D03*
X129500000Y-91900000D03*
X156100000Y-85000000D03*
X148500000Y-102300000D03*
X117000000Y-89000000D03*
X154700000Y-98400000D03*
X139500000Y-105700000D03*
D27*
X110000000Y-87000000D03*
D26*
X156100000Y-89500000D03*
X139500000Y-124500000D03*
X110000000Y-85200000D03*
X152000000Y-93500000D03*
X124000000Y-123800000D03*
X156100000Y-82700000D03*
X146100000Y-123800000D03*
X123000000Y-123800000D03*
X155300000Y-96600000D03*
D27*
X105400000Y-84500000D03*
D26*
X93500000Y-124500000D03*
X137500000Y-83100000D03*
D27*
X108900000Y-87000000D03*
D26*
X112300000Y-102500000D03*
X150500000Y-81100000D03*
X131500000Y-83100000D03*
X86300000Y-121000000D03*
X112000000Y-87500000D03*
X156100000Y-96600000D03*
X109800000Y-98300000D03*
X117000000Y-90000000D03*
X152300000Y-94700000D03*
X87200000Y-121800000D03*
X153600000Y-81100000D03*
D27*
X84000000Y-91300000D03*
X93700000Y-89000000D03*
D26*
X154600000Y-104000000D03*
X112500000Y-104800000D03*
X135300000Y-101300000D03*
D27*
X83100000Y-91900000D03*
D26*
X118500000Y-90000000D03*
X100100000Y-126100000D03*
X116600000Y-124300000D03*
%TO.N,/3.3V*%
X134500000Y-98900000D03*
X133600000Y-84700000D03*
X127400000Y-89400000D03*
X102100000Y-100600000D03*
X150400000Y-99400000D03*
X152200000Y-96600000D03*
X152600000Y-87900000D03*
X110000000Y-91900000D03*
X148000000Y-82900000D03*
X136200000Y-83500000D03*
X149400000Y-100600000D03*
%TO.N,/Driver/VS1*%
X104500000Y-126500000D03*
X105700000Y-123600000D03*
%TO.N,/Driver/VS2*%
X127500000Y-126500000D03*
X128700000Y-123600000D03*
%TO.N,/Driver/VS3*%
X151700000Y-123600000D03*
X150500000Y-126500000D03*
%TO.N,/Driver/LO2*%
X110500000Y-105500000D03*
X119000000Y-114500000D03*
%TO.N,/Driver/LO3*%
X142500000Y-114500000D03*
X111000000Y-110500000D03*
D27*
%TO.N,/Driver/12V*%
X115100000Y-88400000D03*
X118000000Y-100500000D03*
X101800000Y-97000000D03*
X113500000Y-99000000D03*
%TO.N,/Driver/72V*%
X91400000Y-90000000D03*
X91400000Y-89000000D03*
X89400000Y-89000000D03*
X90400000Y-89000000D03*
D26*
%TO.N,/Driver/PhaseA*%
X111400000Y-127000000D03*
%TO.N,/Driver/PhaseB*%
X134300000Y-127000000D03*
%TO.N,/Driver/PhaseC*%
X157300000Y-127000000D03*
%TO.N,/MOTOR-TEMP*%
X142500000Y-90300000D03*
X120500000Y-88500000D03*
%TO.N,/HALL1*%
X131500000Y-88500000D03*
%TO.N,/HALL2*%
X130500000Y-88500000D03*
%TO.N,/HALL3*%
X129500000Y-88500000D03*
%TO.N,/UART_T*%
X119500000Y-92300000D03*
X141700000Y-91700000D03*
%TO.N,/UART_R*%
X142500000Y-91700000D03*
X116600000Y-93300000D03*
%TO.N,/LED1*%
X147000000Y-103200000D03*
X145400000Y-104900000D03*
%TO.N,/LED2*%
X145400000Y-106600000D03*
X147700000Y-102700000D03*
%TO.N,/CAN-R*%
X138900000Y-94900000D03*
X104900000Y-102100000D03*
%TO.N,/CAN-T*%
X140000000Y-94900000D03*
X104900000Y-98300000D03*
%TO.N,/SWIO*%
X133000000Y-100600000D03*
%TD*%
D28*
%TO.N,/BLE_RX*%
X137850000Y-81950000D02*
X138600000Y-82700000D01*
X131662856Y-81950000D02*
X137850000Y-81950000D01*
X123742612Y-89870242D02*
X131662856Y-81950000D01*
X123449999Y-92706893D02*
X123449999Y-90162857D01*
X116846198Y-99724511D02*
X123450000Y-93120709D01*
X123449999Y-90162857D02*
X123742612Y-89870242D01*
X101000000Y-97224614D02*
X103499897Y-99724511D01*
X101000000Y-94900000D02*
X101000000Y-97224614D01*
X103499897Y-99724511D02*
X116846198Y-99724511D01*
X123450000Y-93120709D02*
X123449999Y-92706893D01*
%TO.N,/BLE_TX*%
X101600000Y-94100000D02*
X101000000Y-94100000D01*
X122950480Y-92913802D02*
X118613802Y-97250480D01*
X122950480Y-89955948D02*
X122950480Y-92913802D01*
X131455948Y-81450480D02*
X122950480Y-89955948D01*
X118613802Y-97250480D02*
X104750480Y-97250480D01*
X104750480Y-97250480D02*
X101600000Y-94100000D01*
X138450480Y-81450480D02*
X131455948Y-81450480D01*
X139500000Y-82500000D02*
X138450480Y-81450480D01*
%TO.N,/BLE_MODE*%
X141050960Y-80950960D02*
X143000000Y-82900000D01*
X131249040Y-80950960D02*
X141050960Y-80950960D01*
X122450960Y-89749040D02*
X131249040Y-80950960D01*
X104957388Y-96750960D02*
X118406894Y-96750960D01*
X118406894Y-96750960D02*
X122450960Y-92706894D01*
X101606428Y-93400000D02*
X104957388Y-96750960D01*
X122450960Y-92706894D02*
X122450960Y-89749040D01*
X100700000Y-93400000D02*
X101606428Y-93400000D01*
X100300000Y-93800000D02*
X100700000Y-93400000D01*
X100300000Y-96100000D02*
X100300000Y-93800000D01*
%TO.N,Net-(J1-Pad3)*%
X155000000Y-101500000D02*
X156437500Y-101500000D01*
%TO.N,Net-(J1-Pad2)*%
X156437500Y-100850000D02*
X155350000Y-100850000D01*
X155350000Y-100850000D02*
X155000000Y-100500000D01*
D29*
%TO.N,unconnected-(J1-Pad6)*%
X156187500Y-98700000D02*
X157600000Y-98700000D01*
X158337500Y-101500000D02*
X158337500Y-103562500D01*
X158337500Y-103562500D02*
X157600000Y-104300000D01*
X157600000Y-104300000D02*
X156187500Y-104300000D01*
X157600000Y-98700000D02*
X158337500Y-99437500D01*
X158337500Y-99437500D02*
X158337500Y-101500000D01*
D28*
%TO.N,GND*%
X154600000Y-103300000D02*
X154600000Y-104000000D01*
X155100000Y-102800000D02*
X154600000Y-103300000D01*
X156437500Y-102800000D02*
X155100000Y-102800000D01*
D30*
%TO.N,/Driver/12V*%
X101800000Y-97000000D02*
X103800000Y-99000000D01*
X103800000Y-99000000D02*
X113500000Y-99000000D01*
%TD*%
%TA.AperFunction,Conductor*%
%TO.N,/Driver/PhaseB*%
G36*
X137006434Y-122000847D02*
G01*
X137116487Y-122015336D01*
X137141451Y-122022025D01*
X137237957Y-122061999D01*
X137260339Y-122074921D01*
X137343213Y-122138513D01*
X137361487Y-122156787D01*
X137425079Y-122239661D01*
X137438001Y-122262043D01*
X137477975Y-122358549D01*
X137484664Y-122383513D01*
X137499153Y-122493566D01*
X137500000Y-122506488D01*
X137500000Y-138493512D01*
X137499153Y-138506434D01*
X137484664Y-138616487D01*
X137477975Y-138641451D01*
X137438001Y-138737957D01*
X137425079Y-138760339D01*
X137361487Y-138843213D01*
X137343213Y-138861487D01*
X137260339Y-138925079D01*
X137237957Y-138938001D01*
X137141451Y-138977975D01*
X137116487Y-138984664D01*
X137006434Y-138999153D01*
X136993512Y-139000000D01*
X125506488Y-139000000D01*
X125493566Y-138999153D01*
X125383513Y-138984664D01*
X125358549Y-138977975D01*
X125262043Y-138938001D01*
X125239661Y-138925079D01*
X125156787Y-138861487D01*
X125138513Y-138843213D01*
X125074921Y-138760339D01*
X125061999Y-138737957D01*
X125022025Y-138641451D01*
X125015336Y-138616487D01*
X125000847Y-138506434D01*
X125000000Y-138493512D01*
X125000000Y-133632200D01*
X128398747Y-133632200D01*
X128436129Y-133916149D01*
X128437020Y-133919406D01*
X128437021Y-133919411D01*
X128442035Y-133937739D01*
X128511702Y-134192398D01*
X128624068Y-134455835D01*
X128771146Y-134701585D01*
X128773252Y-134704214D01*
X128773255Y-134704218D01*
X128860681Y-134813343D01*
X128950215Y-134925100D01*
X129157962Y-135122245D01*
X129160701Y-135124213D01*
X129160702Y-135124214D01*
X129177395Y-135136209D01*
X129390543Y-135289371D01*
X129643653Y-135423386D01*
X129646822Y-135424546D01*
X129646825Y-135424547D01*
X129670941Y-135433372D01*
X129912610Y-135521810D01*
X130052523Y-135552316D01*
X130189151Y-135582106D01*
X130189155Y-135582107D01*
X130192436Y-135582822D01*
X130417053Y-135600500D01*
X130571992Y-135600500D01*
X130785737Y-135585928D01*
X130913774Y-135559413D01*
X131062890Y-135528533D01*
X131062896Y-135528531D01*
X131066186Y-135527850D01*
X131069352Y-135526729D01*
X131069355Y-135526728D01*
X131169911Y-135491119D01*
X131336158Y-135432248D01*
X131339151Y-135430703D01*
X131339156Y-135430701D01*
X131587654Y-135302442D01*
X131587660Y-135302438D01*
X131590658Y-135300891D01*
X131604803Y-135290950D01*
X131822228Y-135138141D01*
X131822234Y-135138136D01*
X131824976Y-135136209D01*
X132034776Y-134941251D01*
X132036910Y-134938644D01*
X132214039Y-134722236D01*
X132214044Y-134722229D01*
X132216177Y-134719623D01*
X132365820Y-134475427D01*
X132367173Y-134472345D01*
X132479585Y-134216265D01*
X132479587Y-134216261D01*
X132480938Y-134213182D01*
X132559400Y-133937739D01*
X132599754Y-133654196D01*
X132601253Y-133367800D01*
X132563871Y-133083851D01*
X132558881Y-133065608D01*
X132489189Y-132810858D01*
X132489188Y-132810855D01*
X132488298Y-132807602D01*
X132375932Y-132544165D01*
X132228854Y-132298415D01*
X132212310Y-132277764D01*
X132051894Y-132077533D01*
X132049785Y-132074900D01*
X131842038Y-131877755D01*
X131825791Y-131866080D01*
X131798307Y-131846331D01*
X131609457Y-131710629D01*
X131356347Y-131576614D01*
X131353178Y-131575454D01*
X131353175Y-131575453D01*
X131274959Y-131546830D01*
X131087390Y-131478190D01*
X130947477Y-131447684D01*
X130810849Y-131417894D01*
X130810845Y-131417893D01*
X130807564Y-131417178D01*
X130582947Y-131399500D01*
X130428008Y-131399500D01*
X130214263Y-131414072D01*
X130086226Y-131440587D01*
X129937110Y-131471467D01*
X129937104Y-131471469D01*
X129933814Y-131472150D01*
X129930648Y-131473271D01*
X129930645Y-131473272D01*
X129913487Y-131479348D01*
X129663842Y-131567752D01*
X129660849Y-131569297D01*
X129660844Y-131569299D01*
X129412346Y-131697558D01*
X129412340Y-131697562D01*
X129409342Y-131699109D01*
X129406582Y-131701049D01*
X129406580Y-131701050D01*
X129177772Y-131861859D01*
X129177766Y-131861864D01*
X129175024Y-131863791D01*
X128965224Y-132058749D01*
X128963091Y-132061354D01*
X128963090Y-132061356D01*
X128785961Y-132277764D01*
X128785956Y-132277771D01*
X128783823Y-132280377D01*
X128634180Y-132524573D01*
X128632828Y-132527654D01*
X128632827Y-132527655D01*
X128626854Y-132541263D01*
X128519062Y-132786818D01*
X128440600Y-133062261D01*
X128400246Y-133345804D01*
X128398747Y-133632200D01*
X125000000Y-133632200D01*
X125000000Y-128506488D01*
X125000847Y-128493566D01*
X125015336Y-128383513D01*
X125022025Y-128358549D01*
X125061999Y-128262043D01*
X125074921Y-128239661D01*
X125138513Y-128156787D01*
X125156787Y-128138513D01*
X125239661Y-128074921D01*
X125262043Y-128061999D01*
X125358549Y-128022025D01*
X125383513Y-128015336D01*
X125493566Y-128000847D01*
X125506488Y-128000000D01*
X133500000Y-128000000D01*
X133500000Y-122506488D01*
X133500847Y-122493566D01*
X133515336Y-122383513D01*
X133522025Y-122358549D01*
X133561999Y-122262043D01*
X133574921Y-122239661D01*
X133638513Y-122156787D01*
X133656787Y-122138513D01*
X133739661Y-122074921D01*
X133762043Y-122061999D01*
X133858549Y-122022025D01*
X133883513Y-122015336D01*
X133993566Y-122000847D01*
X134006488Y-122000000D01*
X136993512Y-122000000D01*
X137006434Y-122000847D01*
G37*
%TD.AperFunction*%
%TD*%
%TA.AperFunction,Conductor*%
%TO.N,/Driver/VS2*%
G36*
X128506433Y-116500847D02*
G01*
X128549380Y-116506501D01*
X128616488Y-116515336D01*
X128641451Y-116522025D01*
X128737955Y-116561998D01*
X128760338Y-116574920D01*
X128843213Y-116638513D01*
X128861487Y-116656787D01*
X128925080Y-116739662D01*
X128938002Y-116762045D01*
X128977975Y-116858549D01*
X128984664Y-116883512D01*
X128999153Y-116993566D01*
X129000000Y-117006488D01*
X129000000Y-122000000D01*
X130993512Y-122000000D01*
X131006434Y-122000847D01*
X131116488Y-122015336D01*
X131141451Y-122022025D01*
X131237955Y-122061998D01*
X131260338Y-122074920D01*
X131343215Y-122138514D01*
X131361489Y-122156789D01*
X131425077Y-122239659D01*
X131437999Y-122262040D01*
X131477975Y-122358550D01*
X131484664Y-122383514D01*
X131499153Y-122493566D01*
X131500000Y-122506488D01*
X131499996Y-126893536D01*
X131499149Y-126906458D01*
X131484661Y-127016507D01*
X131477973Y-127041469D01*
X131438000Y-127137976D01*
X131425078Y-127160358D01*
X131361492Y-127243228D01*
X131343218Y-127261502D01*
X131260349Y-127325093D01*
X131237969Y-127338016D01*
X131141464Y-127377994D01*
X131116507Y-127384682D01*
X131058677Y-127392298D01*
X131006449Y-127399176D01*
X130993528Y-127400023D01*
X129332932Y-127400102D01*
X128506509Y-127400141D01*
X128493590Y-127399295D01*
X128472476Y-127396516D01*
X128383524Y-127384808D01*
X128358564Y-127378120D01*
X128262051Y-127338147D01*
X128239667Y-127325225D01*
X128156793Y-127261636D01*
X128138519Y-127243362D01*
X128074924Y-127160488D01*
X128062000Y-127138105D01*
X128022022Y-127041592D01*
X128015333Y-127016628D01*
X128000844Y-126906574D01*
X127999997Y-126893652D01*
X128000000Y-125710348D01*
X128000000Y-125500000D01*
X125000000Y-122500000D01*
X124101050Y-122500000D01*
X118507845Y-122499996D01*
X118494925Y-122499149D01*
X118452511Y-122493566D01*
X118384888Y-122484664D01*
X118359932Y-122477978D01*
X118311682Y-122457996D01*
X118263435Y-122438015D01*
X118241060Y-122425100D01*
X118158183Y-122361520D01*
X118139916Y-122343257D01*
X118076323Y-122260406D01*
X118063399Y-122238029D01*
X118023412Y-122141542D01*
X118016719Y-122116585D01*
X118003590Y-122017037D01*
X118002207Y-122006547D01*
X118001357Y-121993632D01*
X118001354Y-121980479D01*
X118001343Y-121933013D01*
X118000880Y-120059365D01*
X118019773Y-120001170D01*
X118028306Y-119990944D01*
X118035703Y-119983203D01*
X118053063Y-119965037D01*
X118072135Y-119937079D01*
X118185416Y-119771015D01*
X118185419Y-119771009D01*
X118187706Y-119767657D01*
X118288304Y-119550938D01*
X118352155Y-119320698D01*
X118373000Y-119125650D01*
X118373000Y-118891929D01*
X118358402Y-118714374D01*
X118300196Y-118482643D01*
X118204923Y-118263530D01*
X118075142Y-118062921D01*
X118026133Y-118009060D01*
X118000955Y-117953295D01*
X118000918Y-117952623D01*
X120547000Y-117952623D01*
X120547001Y-120047376D01*
X120553649Y-120108580D01*
X120603974Y-120242824D01*
X120689954Y-120357546D01*
X120804676Y-120443526D01*
X120811282Y-120446003D01*
X120811285Y-120446004D01*
X120840909Y-120457109D01*
X120938920Y-120493851D01*
X121000123Y-120500500D01*
X121999626Y-120500500D01*
X122999876Y-120500499D01*
X123002535Y-120500210D01*
X123002538Y-120500210D01*
X123054905Y-120494522D01*
X123054907Y-120494522D01*
X123061080Y-120493851D01*
X123159091Y-120457109D01*
X123188715Y-120446004D01*
X123188718Y-120446003D01*
X123195324Y-120443526D01*
X123310046Y-120357546D01*
X123396026Y-120242824D01*
X123446351Y-120108580D01*
X123453000Y-120047377D01*
X123452999Y-117952624D01*
X123446351Y-117891420D01*
X123396026Y-117757176D01*
X123310046Y-117642454D01*
X123195324Y-117556474D01*
X123188718Y-117553997D01*
X123188715Y-117553996D01*
X123135939Y-117534212D01*
X123061080Y-117506149D01*
X122999877Y-117499500D01*
X122000374Y-117499500D01*
X121000124Y-117499501D01*
X120997465Y-117499790D01*
X120997462Y-117499790D01*
X120945095Y-117505478D01*
X120945093Y-117505478D01*
X120938920Y-117506149D01*
X120879822Y-117528303D01*
X120811285Y-117553996D01*
X120811282Y-117553997D01*
X120804676Y-117556474D01*
X120689954Y-117642454D01*
X120603974Y-117757176D01*
X120553649Y-117891420D01*
X120547000Y-117952623D01*
X118000918Y-117952623D01*
X118000357Y-117942456D01*
X118000126Y-117006614D01*
X118000970Y-116993691D01*
X118015435Y-116883617D01*
X118022120Y-116858647D01*
X118062083Y-116762117D01*
X118075003Y-116739730D01*
X118138596Y-116656830D01*
X118156866Y-116638556D01*
X118198308Y-116606750D01*
X118239746Y-116574947D01*
X118262129Y-116562022D01*
X118358651Y-116522033D01*
X118383618Y-116515341D01*
X118493691Y-116500848D01*
X118506615Y-116500001D01*
X128493512Y-116500000D01*
X128506433Y-116500847D01*
G37*
%TD.AperFunction*%
%TD*%
%TA.AperFunction,Conductor*%
%TO.N,/Driver/VS3*%
G36*
X151006433Y-116500847D02*
G01*
X151049380Y-116506501D01*
X151116488Y-116515336D01*
X151141451Y-116522025D01*
X151237955Y-116561998D01*
X151260338Y-116574920D01*
X151343213Y-116638513D01*
X151361487Y-116656787D01*
X151425080Y-116739662D01*
X151438002Y-116762045D01*
X151477975Y-116858549D01*
X151484664Y-116883512D01*
X151499153Y-116993566D01*
X151500000Y-117006488D01*
X151500000Y-122000000D01*
X153493511Y-122000000D01*
X153506433Y-122000847D01*
X153616486Y-122015336D01*
X153641449Y-122022025D01*
X153737958Y-122062000D01*
X153760340Y-122074922D01*
X153843212Y-122138512D01*
X153861487Y-122156787D01*
X153925077Y-122239660D01*
X153937999Y-122262042D01*
X153977974Y-122358551D01*
X153984663Y-122383514D01*
X153999152Y-122493567D01*
X153999999Y-122506489D01*
X153999991Y-126893568D01*
X153999144Y-126906490D01*
X153984657Y-127016534D01*
X153977969Y-127041496D01*
X153937999Y-127137998D01*
X153925079Y-127160377D01*
X153861495Y-127243250D01*
X153843222Y-127261525D01*
X153760362Y-127325114D01*
X153737982Y-127338037D01*
X153641484Y-127378016D01*
X153616525Y-127384707D01*
X153589518Y-127388265D01*
X153506470Y-127399207D01*
X153493559Y-127400055D01*
X152973707Y-127400111D01*
X151506754Y-127400270D01*
X151493827Y-127399424D01*
X151383732Y-127384937D01*
X151358760Y-127378246D01*
X151358205Y-127378016D01*
X151262218Y-127338254D01*
X151239837Y-127325330D01*
X151156936Y-127261703D01*
X151138662Y-127243423D01*
X151138530Y-127243250D01*
X151075065Y-127160505D01*
X151062145Y-127138113D01*
X151022185Y-127041562D01*
X151015502Y-127016586D01*
X151001052Y-126906491D01*
X151000210Y-126893565D01*
X151000722Y-125710513D01*
X151000722Y-125710507D01*
X151000723Y-125707273D01*
X151000813Y-125500000D01*
X150854231Y-125353458D01*
X150854229Y-125353455D01*
X149461735Y-123961339D01*
X148000000Y-122500000D01*
X147077817Y-122500000D01*
X141007845Y-122499996D01*
X140994925Y-122499149D01*
X140952519Y-122493567D01*
X140884888Y-122484664D01*
X140859932Y-122477978D01*
X140811682Y-122457996D01*
X140763435Y-122438015D01*
X140741060Y-122425100D01*
X140658183Y-122361520D01*
X140639916Y-122343257D01*
X140576323Y-122260406D01*
X140563399Y-122238029D01*
X140523412Y-122141542D01*
X140516719Y-122116585D01*
X140503590Y-122017037D01*
X140502207Y-122006547D01*
X140501357Y-121993632D01*
X140501354Y-121980479D01*
X140501343Y-121933013D01*
X140500890Y-120101211D01*
X140519783Y-120043017D01*
X140528316Y-120032791D01*
X140540059Y-120020502D01*
X140593063Y-119965037D01*
X140612135Y-119937079D01*
X140725416Y-119771015D01*
X140725419Y-119771009D01*
X140727706Y-119767657D01*
X140828304Y-119550938D01*
X140892155Y-119320698D01*
X140913000Y-119125650D01*
X140913000Y-118891929D01*
X140898402Y-118714374D01*
X140840196Y-118482643D01*
X140744923Y-118263530D01*
X140615142Y-118062921D01*
X140577354Y-118021392D01*
X140526122Y-117965088D01*
X140520494Y-117952623D01*
X143087000Y-117952623D01*
X143087001Y-120047376D01*
X143087290Y-120050035D01*
X143087290Y-120050038D01*
X143092849Y-120101211D01*
X143093649Y-120108580D01*
X143143974Y-120242824D01*
X143229954Y-120357546D01*
X143344676Y-120443526D01*
X143351282Y-120446003D01*
X143351285Y-120446004D01*
X143380909Y-120457109D01*
X143478920Y-120493851D01*
X143540123Y-120500500D01*
X144539626Y-120500500D01*
X145539876Y-120500499D01*
X145542535Y-120500210D01*
X145542538Y-120500210D01*
X145594905Y-120494522D01*
X145594907Y-120494522D01*
X145601080Y-120493851D01*
X145699091Y-120457109D01*
X145728715Y-120446004D01*
X145728718Y-120446003D01*
X145735324Y-120443526D01*
X145850046Y-120357546D01*
X145936026Y-120242824D01*
X145986351Y-120108580D01*
X145993000Y-120047377D01*
X145992999Y-117952624D01*
X145988296Y-117909323D01*
X145987022Y-117897595D01*
X145987022Y-117897593D01*
X145986351Y-117891420D01*
X145936026Y-117757176D01*
X145850046Y-117642454D01*
X145735324Y-117556474D01*
X145728718Y-117553997D01*
X145728715Y-117553996D01*
X145675939Y-117534212D01*
X145601080Y-117506149D01*
X145539877Y-117499500D01*
X144540374Y-117499500D01*
X143540124Y-117499501D01*
X143537465Y-117499790D01*
X143537462Y-117499790D01*
X143485095Y-117505478D01*
X143485093Y-117505478D01*
X143478920Y-117506149D01*
X143419822Y-117528303D01*
X143351285Y-117553996D01*
X143351282Y-117553997D01*
X143344676Y-117556474D01*
X143229954Y-117642454D01*
X143143974Y-117757176D01*
X143093649Y-117891420D01*
X143087000Y-117952623D01*
X140520494Y-117952623D01*
X140500944Y-117909323D01*
X140500346Y-117898484D01*
X140500126Y-117006614D01*
X140500970Y-116993691D01*
X140515435Y-116883617D01*
X140522120Y-116858647D01*
X140562083Y-116762117D01*
X140575003Y-116739730D01*
X140638596Y-116656830D01*
X140656866Y-116638556D01*
X140698308Y-116606750D01*
X140739746Y-116574947D01*
X140762129Y-116562022D01*
X140858651Y-116522033D01*
X140883618Y-116515341D01*
X140993691Y-116500848D01*
X141006615Y-116500001D01*
X150993512Y-116500000D01*
X151006433Y-116500847D01*
G37*
%TD.AperFunction*%
%TD*%
%TA.AperFunction,Conductor*%
%TO.N,/Driver/72V*%
G36*
X92506434Y-88000847D02*
G01*
X92616487Y-88015336D01*
X92641451Y-88022025D01*
X92737957Y-88061999D01*
X92760339Y-88074921D01*
X92843213Y-88138513D01*
X92861487Y-88156787D01*
X92925079Y-88239661D01*
X92938001Y-88262043D01*
X92977975Y-88358549D01*
X92984664Y-88383512D01*
X92996840Y-88475994D01*
X92984423Y-88538415D01*
X92971493Y-88560812D01*
X92921344Y-88647671D01*
X92921342Y-88647676D01*
X92918750Y-88652165D01*
X92917148Y-88657096D01*
X92865105Y-88817265D01*
X92865104Y-88817270D01*
X92863503Y-88822197D01*
X92844815Y-89000000D01*
X92863503Y-89177803D01*
X92865104Y-89182730D01*
X92865105Y-89182735D01*
X92903245Y-89300115D01*
X92918750Y-89347835D01*
X92988289Y-89468281D01*
X93000000Y-89502781D01*
X93000000Y-89999505D01*
X98993503Y-89999505D01*
X99006425Y-90000352D01*
X99116479Y-90014841D01*
X99141444Y-90021530D01*
X99237952Y-90061506D01*
X99260333Y-90074428D01*
X99343207Y-90138020D01*
X99361482Y-90156295D01*
X99425073Y-90239170D01*
X99437995Y-90261553D01*
X99477969Y-90358064D01*
X99484657Y-90383027D01*
X99499144Y-90493078D01*
X99499991Y-90505999D01*
X99499855Y-98213232D01*
X99499825Y-99904413D01*
X99499807Y-100948152D01*
X99480899Y-101006342D01*
X99452682Y-101032471D01*
X99335022Y-101104856D01*
X99331073Y-101108723D01*
X99331072Y-101108724D01*
X99316840Y-101122661D01*
X99214724Y-101222661D01*
X99211726Y-101227313D01*
X99132338Y-101350500D01*
X99123515Y-101364190D01*
X99065927Y-101522409D01*
X99044825Y-101689455D01*
X99061255Y-101857025D01*
X99114402Y-102016791D01*
X99117267Y-102021522D01*
X99117269Y-102021526D01*
X99164795Y-102100000D01*
X99201624Y-102160812D01*
X99205472Y-102164797D01*
X99205473Y-102164798D01*
X99225431Y-102185465D01*
X99318586Y-102281929D01*
X99441990Y-102362683D01*
X99454990Y-102371190D01*
X99493329Y-102418874D01*
X99499780Y-102454027D01*
X99499709Y-106499505D01*
X99999621Y-106499602D01*
X100002855Y-106499603D01*
X100002861Y-106499603D01*
X114779599Y-106502468D01*
X126144123Y-106504672D01*
X144547114Y-106508240D01*
X144605300Y-106527159D01*
X144641255Y-106576666D01*
X144645621Y-106597577D01*
X144661255Y-106757025D01*
X144714402Y-106916791D01*
X144717267Y-106921522D01*
X144717269Y-106921526D01*
X144767104Y-107003813D01*
X144801624Y-107060812D01*
X144805472Y-107064797D01*
X144805473Y-107064798D01*
X144825431Y-107085465D01*
X144918586Y-107181929D01*
X145059475Y-107274125D01*
X145064662Y-107276054D01*
X145212096Y-107330884D01*
X145212098Y-107330884D01*
X145217289Y-107332815D01*
X145222781Y-107333548D01*
X145222782Y-107333548D01*
X145345156Y-107349876D01*
X145384183Y-107355083D01*
X145389689Y-107354582D01*
X145389691Y-107354582D01*
X145546353Y-107340325D01*
X145546357Y-107340324D01*
X145551864Y-107339823D01*
X145557125Y-107338114D01*
X145557128Y-107338113D01*
X145631930Y-107313808D01*
X145711997Y-107287793D01*
X145856623Y-107201578D01*
X145860632Y-107197760D01*
X145860635Y-107197758D01*
X145917588Y-107143522D01*
X145978554Y-107085465D01*
X145994934Y-107060812D01*
X146068668Y-106949833D01*
X146071731Y-106945223D01*
X146131521Y-106787823D01*
X146154955Y-106621088D01*
X146155163Y-106606189D01*
X146174881Y-106548268D01*
X146224878Y-106512998D01*
X146254170Y-106508571D01*
X150583186Y-106509411D01*
X154993341Y-106510266D01*
X155006261Y-106511115D01*
X155116297Y-106525621D01*
X155141256Y-106532313D01*
X155179761Y-106548268D01*
X155237745Y-106572295D01*
X155260117Y-106585215D01*
X155342978Y-106648808D01*
X155361243Y-106667076D01*
X155403682Y-106722389D01*
X155424821Y-106749942D01*
X155437739Y-106772319D01*
X155477707Y-106868813D01*
X155484396Y-106893773D01*
X155498886Y-107003813D01*
X155499733Y-107016733D01*
X155499820Y-108797961D01*
X155500000Y-112499505D01*
X157993499Y-112499505D01*
X158006422Y-112500352D01*
X158116479Y-112514842D01*
X158141442Y-112521531D01*
X158237952Y-112561507D01*
X158260334Y-112574430D01*
X158343205Y-112638021D01*
X158361480Y-112656296D01*
X158425070Y-112739171D01*
X158437992Y-112761553D01*
X158477967Y-112858066D01*
X158484655Y-112883029D01*
X158499142Y-112993079D01*
X158499989Y-113006000D01*
X158499972Y-113745348D01*
X158499808Y-120992826D01*
X158498960Y-121005751D01*
X158484463Y-121115825D01*
X158477770Y-121140795D01*
X158437771Y-121237328D01*
X158424844Y-121259711D01*
X158361223Y-121342592D01*
X158342946Y-121360862D01*
X158262547Y-121422523D01*
X158260032Y-121424452D01*
X158237643Y-121437370D01*
X158141097Y-121477325D01*
X158116128Y-121484007D01*
X158083044Y-121488350D01*
X158006039Y-121498458D01*
X157993114Y-121499300D01*
X155289838Y-121498203D01*
X152511528Y-121497076D01*
X152498659Y-121496229D01*
X152388961Y-121481789D01*
X152364081Y-121475136D01*
X152267844Y-121435373D01*
X152245520Y-121422523D01*
X152162804Y-121359281D01*
X152144554Y-121341110D01*
X152080949Y-121258663D01*
X152068008Y-121236405D01*
X152027828Y-121140342D01*
X152021065Y-121115489D01*
X152006281Y-121006830D01*
X152006148Y-121005852D01*
X152005247Y-120992997D01*
X151990812Y-117952623D01*
X154087000Y-117952623D01*
X154087001Y-120047376D01*
X154093649Y-120108580D01*
X154143974Y-120242824D01*
X154229954Y-120357546D01*
X154344676Y-120443526D01*
X154351282Y-120446003D01*
X154351285Y-120446004D01*
X154380909Y-120457109D01*
X154478920Y-120493851D01*
X154540123Y-120500500D01*
X155539626Y-120500500D01*
X156539876Y-120500499D01*
X156542535Y-120500210D01*
X156542538Y-120500210D01*
X156594905Y-120494522D01*
X156594907Y-120494522D01*
X156601080Y-120493851D01*
X156699091Y-120457109D01*
X156728715Y-120446004D01*
X156728718Y-120446003D01*
X156735324Y-120443526D01*
X156850046Y-120357546D01*
X156936026Y-120242824D01*
X156986351Y-120108580D01*
X156993000Y-120047377D01*
X156992999Y-117952624D01*
X156986351Y-117891420D01*
X156936026Y-117757176D01*
X156850046Y-117642454D01*
X156735324Y-117556474D01*
X156728718Y-117553997D01*
X156728715Y-117553996D01*
X156675939Y-117534212D01*
X156601080Y-117506149D01*
X156539877Y-117499500D01*
X155540374Y-117499500D01*
X154540124Y-117499501D01*
X154537465Y-117499790D01*
X154537462Y-117499790D01*
X154485095Y-117505478D01*
X154485093Y-117505478D01*
X154478920Y-117506149D01*
X154419822Y-117528303D01*
X154351285Y-117553996D01*
X154351282Y-117553997D01*
X154344676Y-117556474D01*
X154229954Y-117642454D01*
X154143974Y-117757176D01*
X154093649Y-117891420D01*
X154087000Y-117952623D01*
X151990812Y-117952623D01*
X151981527Y-115996874D01*
X151483811Y-115996961D01*
X151483808Y-115996961D01*
X144471979Y-115998192D01*
X137503153Y-115999416D01*
X137503146Y-115999416D01*
X137499912Y-115999417D01*
X137499910Y-115999417D01*
X137000000Y-115999505D01*
X137000000Y-120993017D01*
X136999153Y-121005939D01*
X136984664Y-121115992D01*
X136977975Y-121140956D01*
X136938001Y-121237462D01*
X136925079Y-121259844D01*
X136861487Y-121342718D01*
X136843213Y-121360992D01*
X136760339Y-121424584D01*
X136737957Y-121437506D01*
X136641451Y-121477480D01*
X136616487Y-121484169D01*
X136506434Y-121498658D01*
X136493512Y-121499505D01*
X130053065Y-121499505D01*
X130040143Y-121498658D01*
X129930090Y-121484169D01*
X129905126Y-121477480D01*
X129808620Y-121437506D01*
X129786238Y-121424584D01*
X129703364Y-121360992D01*
X129685090Y-121342718D01*
X129621498Y-121259844D01*
X129608576Y-121237462D01*
X129568602Y-121140956D01*
X129561913Y-121115992D01*
X129547424Y-121005939D01*
X129546577Y-120993017D01*
X129546577Y-117952623D01*
X131547000Y-117952623D01*
X131547001Y-120047376D01*
X131553649Y-120108580D01*
X131603974Y-120242824D01*
X131689954Y-120357546D01*
X131804676Y-120443526D01*
X131811282Y-120446003D01*
X131811285Y-120446004D01*
X131840909Y-120457109D01*
X131938920Y-120493851D01*
X132000123Y-120500500D01*
X132999626Y-120500500D01*
X133999876Y-120500499D01*
X134002535Y-120500210D01*
X134002538Y-120500210D01*
X134054905Y-120494522D01*
X134054907Y-120494522D01*
X134061080Y-120493851D01*
X134159091Y-120457109D01*
X134188715Y-120446004D01*
X134188718Y-120446003D01*
X134195324Y-120443526D01*
X134310046Y-120357546D01*
X134396026Y-120242824D01*
X134446351Y-120108580D01*
X134453000Y-120047377D01*
X134452999Y-117952624D01*
X134446351Y-117891420D01*
X134396026Y-117757176D01*
X134310046Y-117642454D01*
X134195324Y-117556474D01*
X134188718Y-117553997D01*
X134188715Y-117553996D01*
X134135939Y-117534212D01*
X134061080Y-117506149D01*
X133999877Y-117499500D01*
X133000374Y-117499500D01*
X132000124Y-117499501D01*
X131997465Y-117499790D01*
X131997462Y-117499790D01*
X131945095Y-117505478D01*
X131945093Y-117505478D01*
X131938920Y-117506149D01*
X131879822Y-117528303D01*
X131811285Y-117553996D01*
X131811282Y-117553997D01*
X131804676Y-117556474D01*
X131689954Y-117642454D01*
X131603974Y-117757176D01*
X131553649Y-117891420D01*
X131547000Y-117952623D01*
X129546577Y-117952623D01*
X129546577Y-115999505D01*
X114000000Y-115999505D01*
X114000006Y-116499511D01*
X114000006Y-116502752D01*
X114000060Y-120993019D01*
X113999213Y-121005942D01*
X113984725Y-121115993D01*
X113978037Y-121140955D01*
X113938063Y-121237465D01*
X113925141Y-121259847D01*
X113861552Y-121342721D01*
X113843282Y-121360992D01*
X113760403Y-121424589D01*
X113738027Y-121437508D01*
X113641515Y-121477485D01*
X113616553Y-121484174D01*
X113506499Y-121498665D01*
X113493576Y-121499512D01*
X109022139Y-121499571D01*
X107505738Y-121499591D01*
X107492833Y-121498746D01*
X107382887Y-121484289D01*
X107357948Y-121477614D01*
X107357637Y-121477485D01*
X107326403Y-121464563D01*
X107261519Y-121437718D01*
X107239153Y-121424821D01*
X107238672Y-121424452D01*
X107156324Y-121361354D01*
X107138055Y-121343115D01*
X107074449Y-121260387D01*
X107061516Y-121238042D01*
X107021463Y-121141681D01*
X107014746Y-121116752D01*
X107000107Y-121006830D01*
X106999241Y-120993922D01*
X106999240Y-120992983D01*
X106994282Y-117952623D01*
X109047000Y-117952623D01*
X109047001Y-120047376D01*
X109053649Y-120108580D01*
X109103974Y-120242824D01*
X109189954Y-120357546D01*
X109304676Y-120443526D01*
X109311282Y-120446003D01*
X109311285Y-120446004D01*
X109340909Y-120457109D01*
X109438920Y-120493851D01*
X109500123Y-120500500D01*
X110499626Y-120500500D01*
X111499876Y-120500499D01*
X111502535Y-120500210D01*
X111502538Y-120500210D01*
X111554905Y-120494522D01*
X111554907Y-120494522D01*
X111561080Y-120493851D01*
X111659091Y-120457109D01*
X111688715Y-120446004D01*
X111688718Y-120446003D01*
X111695324Y-120443526D01*
X111810046Y-120357546D01*
X111896026Y-120242824D01*
X111946351Y-120108580D01*
X111953000Y-120047377D01*
X111952999Y-117952624D01*
X111946351Y-117891420D01*
X111896026Y-117757176D01*
X111810046Y-117642454D01*
X111695324Y-117556474D01*
X111688718Y-117553997D01*
X111688715Y-117553996D01*
X111635939Y-117534212D01*
X111561080Y-117506149D01*
X111499877Y-117499500D01*
X110500374Y-117499500D01*
X109500124Y-117499501D01*
X109497465Y-117499790D01*
X109497462Y-117499790D01*
X109445095Y-117505478D01*
X109445093Y-117505478D01*
X109438920Y-117506149D01*
X109379822Y-117528303D01*
X109311285Y-117553996D01*
X109311282Y-117553997D01*
X109304676Y-117556474D01*
X109189954Y-117642454D01*
X109103974Y-117757176D01*
X109053649Y-117891420D01*
X109047000Y-117952623D01*
X106994282Y-117952623D01*
X106991911Y-116498779D01*
X106991097Y-115999598D01*
X106491917Y-115999594D01*
X106491915Y-115999594D01*
X101312968Y-115999556D01*
X100612660Y-115999551D01*
X94500004Y-115999505D01*
X94500072Y-116499576D01*
X94500072Y-116502816D01*
X94500085Y-116593047D01*
X94499240Y-116605971D01*
X94484764Y-116716036D01*
X94478078Y-116740999D01*
X94438111Y-116837520D01*
X94425193Y-116859900D01*
X94361608Y-116942783D01*
X94343335Y-116961060D01*
X94260461Y-117024663D01*
X94238081Y-117037587D01*
X94141570Y-117077571D01*
X94116607Y-117084262D01*
X94006550Y-117098759D01*
X93993627Y-117099607D01*
X87228894Y-117100007D01*
X82025302Y-117100315D01*
X82012406Y-117099471D01*
X81902453Y-117085019D01*
X81877520Y-117078347D01*
X81813518Y-117051872D01*
X81781095Y-117038460D01*
X81758731Y-117025567D01*
X81747457Y-117016930D01*
X81675896Y-116962107D01*
X81657629Y-116943874D01*
X81594013Y-116861147D01*
X81581082Y-116838811D01*
X81580544Y-116837515D01*
X81541021Y-116742456D01*
X81534303Y-116717530D01*
X81519652Y-116607620D01*
X81518784Y-116594713D01*
X81518623Y-116502816D01*
X81518617Y-116499511D01*
X81515087Y-114489455D01*
X118244825Y-114489455D01*
X118261255Y-114657025D01*
X118314402Y-114816791D01*
X118317267Y-114821522D01*
X118317269Y-114821526D01*
X118398755Y-114956075D01*
X118401624Y-114960812D01*
X118405472Y-114964797D01*
X118405473Y-114964798D01*
X118425431Y-114985465D01*
X118518586Y-115081929D01*
X118659475Y-115174125D01*
X118664662Y-115176054D01*
X118812096Y-115230884D01*
X118812098Y-115230884D01*
X118817289Y-115232815D01*
X118822781Y-115233548D01*
X118822782Y-115233548D01*
X118945156Y-115249876D01*
X118984183Y-115255083D01*
X118989689Y-115254582D01*
X118989691Y-115254582D01*
X119146353Y-115240325D01*
X119146357Y-115240324D01*
X119151864Y-115239823D01*
X119157125Y-115238114D01*
X119157128Y-115238113D01*
X119231930Y-115213808D01*
X119311997Y-115187793D01*
X119456623Y-115101578D01*
X119460632Y-115097760D01*
X119460635Y-115097758D01*
X119517588Y-115043522D01*
X119578554Y-114985465D01*
X119594934Y-114960812D01*
X119668668Y-114849833D01*
X119671731Y-114845223D01*
X119731521Y-114687823D01*
X119754955Y-114521088D01*
X119755249Y-114500000D01*
X119754684Y-114494958D01*
X119754067Y-114489455D01*
X141744825Y-114489455D01*
X141761255Y-114657025D01*
X141814402Y-114816791D01*
X141817267Y-114821522D01*
X141817269Y-114821526D01*
X141898755Y-114956075D01*
X141901624Y-114960812D01*
X141905472Y-114964797D01*
X141905473Y-114964798D01*
X141925431Y-114985465D01*
X142018586Y-115081929D01*
X142159475Y-115174125D01*
X142164662Y-115176054D01*
X142312096Y-115230884D01*
X142312098Y-115230884D01*
X142317289Y-115232815D01*
X142322781Y-115233548D01*
X142322782Y-115233548D01*
X142445156Y-115249876D01*
X142484183Y-115255083D01*
X142489689Y-115254582D01*
X142489691Y-115254582D01*
X142646353Y-115240325D01*
X142646357Y-115240324D01*
X142651864Y-115239823D01*
X142657125Y-115238114D01*
X142657128Y-115238113D01*
X142731930Y-115213808D01*
X142811997Y-115187793D01*
X142956623Y-115101578D01*
X142960632Y-115097760D01*
X142960635Y-115097758D01*
X143017588Y-115043522D01*
X143078554Y-114985465D01*
X143094934Y-114960812D01*
X143168668Y-114849833D01*
X143171731Y-114845223D01*
X143231521Y-114687823D01*
X143254955Y-114521088D01*
X143255249Y-114500000D01*
X143254684Y-114494958D01*
X143237098Y-114338181D01*
X143236481Y-114332676D01*
X143181108Y-114173668D01*
X143091884Y-114030879D01*
X143087989Y-114026956D01*
X143087986Y-114026953D01*
X142977144Y-113915335D01*
X142977142Y-113915334D01*
X142973242Y-113911406D01*
X142907380Y-113869609D01*
X142835749Y-113824150D01*
X142835745Y-113824148D01*
X142831079Y-113821187D01*
X142716728Y-113780468D01*
X142677672Y-113766561D01*
X142677670Y-113766561D01*
X142672462Y-113764706D01*
X142666973Y-113764051D01*
X142666971Y-113764051D01*
X142510769Y-113745424D01*
X142510766Y-113745424D01*
X142505273Y-113744769D01*
X142337821Y-113762369D01*
X142332582Y-113764153D01*
X142332580Y-113764153D01*
X142330956Y-113764706D01*
X142178431Y-113816630D01*
X142173721Y-113819528D01*
X142173716Y-113819530D01*
X142040215Y-113901661D01*
X142035022Y-113904856D01*
X141914724Y-114022661D01*
X141823515Y-114164190D01*
X141765927Y-114322409D01*
X141744825Y-114489455D01*
X119754067Y-114489455D01*
X119737098Y-114338181D01*
X119736481Y-114332676D01*
X119681108Y-114173668D01*
X119591884Y-114030879D01*
X119587989Y-114026956D01*
X119587986Y-114026953D01*
X119477144Y-113915335D01*
X119477142Y-113915334D01*
X119473242Y-113911406D01*
X119407380Y-113869609D01*
X119335749Y-113824150D01*
X119335745Y-113824148D01*
X119331079Y-113821187D01*
X119216728Y-113780468D01*
X119177672Y-113766561D01*
X119177670Y-113766561D01*
X119172462Y-113764706D01*
X119166973Y-113764051D01*
X119166971Y-113764051D01*
X119010769Y-113745424D01*
X119010766Y-113745424D01*
X119005273Y-113744769D01*
X118837821Y-113762369D01*
X118832582Y-113764153D01*
X118832580Y-113764153D01*
X118830956Y-113764706D01*
X118678431Y-113816630D01*
X118673721Y-113819528D01*
X118673716Y-113819530D01*
X118540215Y-113901661D01*
X118535022Y-113904856D01*
X118414724Y-114022661D01*
X118323515Y-114164190D01*
X118265927Y-114322409D01*
X118244825Y-114489455D01*
X81515087Y-114489455D01*
X81510068Y-111632200D01*
X84898747Y-111632200D01*
X84936129Y-111916149D01*
X84937020Y-111919406D01*
X84937021Y-111919411D01*
X85007411Y-112176713D01*
X85011702Y-112192398D01*
X85124068Y-112455835D01*
X85271146Y-112701585D01*
X85273252Y-112704214D01*
X85273255Y-112704218D01*
X85301258Y-112739171D01*
X85450215Y-112925100D01*
X85657962Y-113122245D01*
X85660701Y-113124213D01*
X85660702Y-113124214D01*
X85677395Y-113136209D01*
X85890543Y-113289371D01*
X86143653Y-113423386D01*
X86146822Y-113424546D01*
X86146825Y-113424547D01*
X86170941Y-113433372D01*
X86412610Y-113521810D01*
X86552523Y-113552316D01*
X86689151Y-113582106D01*
X86689155Y-113582107D01*
X86692436Y-113582822D01*
X86917053Y-113600500D01*
X87071992Y-113600500D01*
X87285737Y-113585928D01*
X87413774Y-113559413D01*
X87562890Y-113528533D01*
X87562896Y-113528531D01*
X87566186Y-113527850D01*
X87569352Y-113526729D01*
X87569355Y-113526728D01*
X87669911Y-113491119D01*
X87836158Y-113432248D01*
X87839151Y-113430703D01*
X87839156Y-113430701D01*
X88087654Y-113302442D01*
X88087660Y-113302438D01*
X88090658Y-113300891D01*
X88104803Y-113290950D01*
X88322228Y-113138141D01*
X88322234Y-113138136D01*
X88324976Y-113136209D01*
X88534776Y-112941251D01*
X88536910Y-112938644D01*
X88714039Y-112722236D01*
X88714044Y-112722229D01*
X88716177Y-112719623D01*
X88865820Y-112475427D01*
X88867173Y-112472345D01*
X88979585Y-112216265D01*
X88979587Y-112216261D01*
X88980938Y-112213182D01*
X89012729Y-112101578D01*
X89058474Y-111940991D01*
X89058475Y-111940986D01*
X89059400Y-111937739D01*
X89099754Y-111654196D01*
X89099940Y-111618756D01*
X89101235Y-111371160D01*
X89101253Y-111367800D01*
X89063871Y-111083851D01*
X89062736Y-111079699D01*
X88989189Y-110810858D01*
X88989188Y-110810855D01*
X88988298Y-110807602D01*
X88875932Y-110544165D01*
X88822784Y-110455361D01*
X95295316Y-110455361D01*
X95295492Y-110459026D01*
X95295492Y-110459028D01*
X95298621Y-110524173D01*
X95307443Y-110707820D01*
X95333745Y-110840049D01*
X95355956Y-110951709D01*
X95356752Y-110955713D01*
X95357992Y-110959168D01*
X95357993Y-110959170D01*
X95431603Y-111164190D01*
X95442160Y-111193595D01*
X95561792Y-111416240D01*
X95713018Y-111618756D01*
X95892517Y-111796696D01*
X95895476Y-111798866D01*
X95895480Y-111798869D01*
X96002332Y-111877215D01*
X96096346Y-111946149D01*
X96320026Y-112063833D01*
X96323497Y-112065045D01*
X96323499Y-112065046D01*
X96371845Y-112081929D01*
X96558644Y-112147162D01*
X96806958Y-112194306D01*
X96944408Y-112199706D01*
X97055843Y-112204085D01*
X97055846Y-112204085D01*
X97059513Y-112204229D01*
X97310760Y-112176713D01*
X97432970Y-112144538D01*
X97551635Y-112113297D01*
X97551640Y-112113295D01*
X97555181Y-112112363D01*
X97787405Y-112012591D01*
X97871079Y-111960812D01*
X97999205Y-111881526D01*
X97999210Y-111881522D01*
X98002331Y-111879591D01*
X98195238Y-111716283D01*
X98315020Y-111579699D01*
X98359462Y-111529023D01*
X98359466Y-111529018D01*
X98361888Y-111526256D01*
X98378777Y-111500000D01*
X98465955Y-111364466D01*
X98498619Y-111313684D01*
X98525243Y-111254582D01*
X98600918Y-111086588D01*
X98602428Y-111083236D01*
X98603921Y-111077944D01*
X98670035Y-110843517D01*
X98671034Y-110839976D01*
X98702931Y-110589247D01*
X98704112Y-110544165D01*
X98705203Y-110502492D01*
X98705203Y-110502487D01*
X98705268Y-110500000D01*
X98705084Y-110497527D01*
X98705084Y-110497517D01*
X98704485Y-110489455D01*
X110244825Y-110489455D01*
X110261255Y-110657025D01*
X110314402Y-110816791D01*
X110317267Y-110821522D01*
X110317269Y-110821526D01*
X110367736Y-110904856D01*
X110401624Y-110960812D01*
X110405472Y-110964797D01*
X110405473Y-110964798D01*
X110425431Y-110985465D01*
X110518586Y-111081929D01*
X110659475Y-111174125D01*
X110664662Y-111176054D01*
X110812096Y-111230884D01*
X110812098Y-111230884D01*
X110817289Y-111232815D01*
X110822781Y-111233548D01*
X110822782Y-111233548D01*
X110945156Y-111249876D01*
X110984183Y-111255083D01*
X110989689Y-111254582D01*
X110989691Y-111254582D01*
X111146353Y-111240325D01*
X111146357Y-111240324D01*
X111151864Y-111239823D01*
X111157125Y-111238114D01*
X111157128Y-111238113D01*
X111250360Y-111207820D01*
X111311997Y-111187793D01*
X111456623Y-111101578D01*
X111460632Y-111097760D01*
X111460635Y-111097758D01*
X111539494Y-111022661D01*
X111578554Y-110985465D01*
X111594934Y-110960812D01*
X111668668Y-110849833D01*
X111671731Y-110845223D01*
X111725317Y-110704155D01*
X111729556Y-110692997D01*
X111729557Y-110692994D01*
X111731521Y-110687823D01*
X111754955Y-110521088D01*
X111755097Y-110510903D01*
X111755206Y-110503117D01*
X111755206Y-110503110D01*
X111755249Y-110500000D01*
X111754684Y-110494958D01*
X111750242Y-110455361D01*
X126295316Y-110455361D01*
X126295492Y-110459026D01*
X126295492Y-110459028D01*
X126298621Y-110524173D01*
X126307443Y-110707820D01*
X126333745Y-110840049D01*
X126355956Y-110951709D01*
X126356752Y-110955713D01*
X126357992Y-110959168D01*
X126357993Y-110959170D01*
X126431603Y-111164190D01*
X126442160Y-111193595D01*
X126561792Y-111416240D01*
X126713018Y-111618756D01*
X126892517Y-111796696D01*
X126895476Y-111798866D01*
X126895480Y-111798869D01*
X127002332Y-111877215D01*
X127096346Y-111946149D01*
X127320026Y-112063833D01*
X127323497Y-112065045D01*
X127323499Y-112065046D01*
X127371845Y-112081929D01*
X127558644Y-112147162D01*
X127806958Y-112194306D01*
X127944408Y-112199706D01*
X128055843Y-112204085D01*
X128055846Y-112204085D01*
X128059513Y-112204229D01*
X128310760Y-112176713D01*
X128432970Y-112144538D01*
X128551635Y-112113297D01*
X128551640Y-112113295D01*
X128555181Y-112112363D01*
X128787405Y-112012591D01*
X128871079Y-111960812D01*
X128999205Y-111881526D01*
X128999210Y-111881522D01*
X129002331Y-111879591D01*
X129195238Y-111716283D01*
X129315020Y-111579699D01*
X129359462Y-111529023D01*
X129359466Y-111529018D01*
X129361888Y-111526256D01*
X129378777Y-111500000D01*
X129465955Y-111364466D01*
X129498619Y-111313684D01*
X129525243Y-111254582D01*
X129600918Y-111086588D01*
X129602428Y-111083236D01*
X129603921Y-111077944D01*
X129638492Y-110955361D01*
X147671357Y-110955361D01*
X147671533Y-110959026D01*
X147671533Y-110959028D01*
X147677529Y-111083851D01*
X147683484Y-111207820D01*
X147732793Y-111455713D01*
X147734033Y-111459168D01*
X147734034Y-111459170D01*
X147756265Y-111521088D01*
X147818201Y-111693595D01*
X147937833Y-111916240D01*
X147958547Y-111943979D01*
X148084983Y-112113297D01*
X148089059Y-112118756D01*
X148268558Y-112296696D01*
X148271517Y-112298866D01*
X148271521Y-112298869D01*
X148378373Y-112377215D01*
X148472387Y-112446149D01*
X148696067Y-112563833D01*
X148699538Y-112565045D01*
X148699540Y-112565046D01*
X148726412Y-112574430D01*
X148934685Y-112647162D01*
X149182999Y-112694306D01*
X149320449Y-112699706D01*
X149431884Y-112704085D01*
X149431887Y-112704085D01*
X149435554Y-112704229D01*
X149686801Y-112676713D01*
X149833765Y-112638021D01*
X149927676Y-112613297D01*
X149927681Y-112613295D01*
X149931222Y-112612363D01*
X150163446Y-112512591D01*
X150218857Y-112478302D01*
X150375246Y-112381526D01*
X150375251Y-112381522D01*
X150378372Y-112379591D01*
X150571279Y-112216283D01*
X150706476Y-112062121D01*
X150735503Y-112029023D01*
X150735507Y-112029018D01*
X150737929Y-112026256D01*
X150874660Y-111813684D01*
X150883479Y-111794108D01*
X150976959Y-111586588D01*
X150978469Y-111583236D01*
X150995997Y-111521088D01*
X151046076Y-111343517D01*
X151047075Y-111339976D01*
X151078972Y-111089247D01*
X151081309Y-111000000D01*
X151081125Y-110997527D01*
X151081125Y-110997517D01*
X151062850Y-110751599D01*
X151062849Y-110751593D01*
X151062578Y-110747945D01*
X151006797Y-110501428D01*
X150988883Y-110455361D01*
X150916521Y-110269282D01*
X150916519Y-110269277D01*
X150915191Y-110265863D01*
X150789772Y-110046426D01*
X150633296Y-109847938D01*
X150630623Y-109845424D01*
X150630618Y-109845418D01*
X150477150Y-109701050D01*
X150449201Y-109674758D01*
X150241530Y-109530691D01*
X150196610Y-109508539D01*
X150018148Y-109420531D01*
X150018144Y-109420529D01*
X150014846Y-109418903D01*
X150011344Y-109417782D01*
X150011339Y-109417780D01*
X149866147Y-109371304D01*
X149774128Y-109341849D01*
X149770513Y-109341260D01*
X149770512Y-109341260D01*
X149528282Y-109301810D01*
X149528281Y-109301810D01*
X149524665Y-109301221D01*
X149521002Y-109301173D01*
X149521001Y-109301173D01*
X149398301Y-109299567D01*
X149271937Y-109297913D01*
X149268309Y-109298407D01*
X149268305Y-109298407D01*
X149133222Y-109316791D01*
X149021496Y-109331996D01*
X148778844Y-109402723D01*
X148549311Y-109508539D01*
X148337940Y-109647120D01*
X148335207Y-109649559D01*
X148335206Y-109649560D01*
X148152111Y-109812978D01*
X148149374Y-109815421D01*
X148147027Y-109818243D01*
X148147026Y-109818244D01*
X148110752Y-109861859D01*
X147987756Y-110009746D01*
X147856636Y-110225825D01*
X147758895Y-110458911D01*
X147757990Y-110462473D01*
X147757990Y-110462474D01*
X147699445Y-110692997D01*
X147696680Y-110703883D01*
X147671357Y-110955361D01*
X129638492Y-110955361D01*
X129670035Y-110843517D01*
X129671034Y-110839976D01*
X129702931Y-110589247D01*
X129704112Y-110544165D01*
X129705203Y-110502492D01*
X129705203Y-110502487D01*
X129705268Y-110500000D01*
X129705084Y-110497527D01*
X129705084Y-110497517D01*
X129686809Y-110251599D01*
X129686808Y-110251593D01*
X129686537Y-110247945D01*
X129630756Y-110001428D01*
X129612904Y-109955521D01*
X129540480Y-109769282D01*
X129540478Y-109769277D01*
X129539150Y-109765863D01*
X129413731Y-109546426D01*
X129257255Y-109347938D01*
X129254582Y-109345424D01*
X129254577Y-109345418D01*
X129075832Y-109177272D01*
X129073160Y-109174758D01*
X128865489Y-109030691D01*
X128820569Y-109008539D01*
X128642107Y-108920531D01*
X128642103Y-108920529D01*
X128638805Y-108918903D01*
X128635303Y-108917782D01*
X128635298Y-108917780D01*
X128490106Y-108871304D01*
X128398087Y-108841849D01*
X128394472Y-108841260D01*
X128394471Y-108841260D01*
X128152241Y-108801810D01*
X128152240Y-108801810D01*
X128148624Y-108801221D01*
X128144961Y-108801173D01*
X128144960Y-108801173D01*
X128022260Y-108799567D01*
X127895896Y-108797913D01*
X127892268Y-108798407D01*
X127892264Y-108798407D01*
X127732698Y-108820123D01*
X127645455Y-108831996D01*
X127402803Y-108902723D01*
X127173270Y-109008539D01*
X126961899Y-109147120D01*
X126959166Y-109149559D01*
X126959165Y-109149560D01*
X126789243Y-109301221D01*
X126773333Y-109315421D01*
X126770986Y-109318243D01*
X126770985Y-109318244D01*
X126703405Y-109399500D01*
X126611715Y-109509746D01*
X126480595Y-109725825D01*
X126382854Y-109958911D01*
X126381949Y-109962473D01*
X126381949Y-109962474D01*
X126328313Y-110173668D01*
X126320639Y-110203883D01*
X126295316Y-110455361D01*
X111750242Y-110455361D01*
X111737098Y-110338181D01*
X111736481Y-110332676D01*
X111681108Y-110173668D01*
X111591884Y-110030879D01*
X111587989Y-110026956D01*
X111587986Y-110026953D01*
X111477144Y-109915335D01*
X111477142Y-109915334D01*
X111473242Y-109911406D01*
X111401819Y-109866080D01*
X111335749Y-109824150D01*
X111335745Y-109824148D01*
X111331079Y-109821187D01*
X111185313Y-109769282D01*
X111177672Y-109766561D01*
X111177670Y-109766561D01*
X111172462Y-109764706D01*
X111166973Y-109764051D01*
X111166971Y-109764051D01*
X111010769Y-109745424D01*
X111010766Y-109745424D01*
X111005273Y-109744769D01*
X110837821Y-109762369D01*
X110832582Y-109764153D01*
X110832580Y-109764153D01*
X110683674Y-109814845D01*
X110678431Y-109816630D01*
X110673721Y-109819528D01*
X110673716Y-109819530D01*
X110579074Y-109877755D01*
X110535022Y-109904856D01*
X110414724Y-110022661D01*
X110411726Y-110027313D01*
X110399409Y-110046426D01*
X110323515Y-110164190D01*
X110265927Y-110322409D01*
X110244825Y-110489455D01*
X98704485Y-110489455D01*
X98686809Y-110251599D01*
X98686808Y-110251593D01*
X98686537Y-110247945D01*
X98630756Y-110001428D01*
X98612904Y-109955521D01*
X98540480Y-109769282D01*
X98540478Y-109769277D01*
X98539150Y-109765863D01*
X98413731Y-109546426D01*
X98257255Y-109347938D01*
X98254582Y-109345424D01*
X98254577Y-109345418D01*
X98075832Y-109177272D01*
X98073160Y-109174758D01*
X97865489Y-109030691D01*
X97820569Y-109008539D01*
X97642107Y-108920531D01*
X97642103Y-108920529D01*
X97638805Y-108918903D01*
X97635303Y-108917782D01*
X97635298Y-108917780D01*
X97490106Y-108871304D01*
X97398087Y-108841849D01*
X97394472Y-108841260D01*
X97394471Y-108841260D01*
X97152241Y-108801810D01*
X97152240Y-108801810D01*
X97148624Y-108801221D01*
X97144961Y-108801173D01*
X97144960Y-108801173D01*
X97022260Y-108799567D01*
X96895896Y-108797913D01*
X96892268Y-108798407D01*
X96892264Y-108798407D01*
X96732698Y-108820123D01*
X96645455Y-108831996D01*
X96402803Y-108902723D01*
X96173270Y-109008539D01*
X95961899Y-109147120D01*
X95959166Y-109149559D01*
X95959165Y-109149560D01*
X95789243Y-109301221D01*
X95773333Y-109315421D01*
X95770986Y-109318243D01*
X95770985Y-109318244D01*
X95703405Y-109399500D01*
X95611715Y-109509746D01*
X95480595Y-109725825D01*
X95382854Y-109958911D01*
X95381949Y-109962473D01*
X95381949Y-109962474D01*
X95328313Y-110173668D01*
X95320639Y-110203883D01*
X95295316Y-110455361D01*
X88822784Y-110455361D01*
X88728854Y-110298415D01*
X88712310Y-110277764D01*
X88621320Y-110164190D01*
X88549785Y-110074900D01*
X88431313Y-109962474D01*
X88344483Y-109880075D01*
X88344481Y-109880073D01*
X88342038Y-109877755D01*
X88325791Y-109866080D01*
X88297036Y-109845418D01*
X88109457Y-109710629D01*
X87856347Y-109576614D01*
X87853178Y-109575454D01*
X87853175Y-109575453D01*
X87765960Y-109543537D01*
X87587390Y-109478190D01*
X87447477Y-109447684D01*
X87310849Y-109417894D01*
X87310845Y-109417893D01*
X87307564Y-109417178D01*
X87082947Y-109399500D01*
X86928008Y-109399500D01*
X86714263Y-109414072D01*
X86586226Y-109440587D01*
X86437110Y-109471467D01*
X86437104Y-109471469D01*
X86433814Y-109472150D01*
X86430648Y-109473271D01*
X86430645Y-109473272D01*
X86335632Y-109506918D01*
X86163842Y-109567752D01*
X86160849Y-109569297D01*
X86160844Y-109569299D01*
X85912346Y-109697558D01*
X85912340Y-109697562D01*
X85909342Y-109699109D01*
X85906582Y-109701049D01*
X85906580Y-109701050D01*
X85677772Y-109861859D01*
X85677766Y-109861864D01*
X85675024Y-109863791D01*
X85465224Y-110058749D01*
X85463091Y-110061354D01*
X85463090Y-110061356D01*
X85285961Y-110277764D01*
X85285956Y-110277771D01*
X85283823Y-110280377D01*
X85134180Y-110524573D01*
X85132828Y-110527654D01*
X85132827Y-110527655D01*
X85053864Y-110707538D01*
X85019062Y-110786818D01*
X85018138Y-110790062D01*
X84957626Y-111002492D01*
X84940600Y-111062261D01*
X84900246Y-111345804D01*
X84898747Y-111632200D01*
X81510068Y-111632200D01*
X81501794Y-106921526D01*
X81500940Y-106435065D01*
X81500891Y-106407369D01*
X81501717Y-106394437D01*
X81516045Y-106284237D01*
X81522705Y-106259236D01*
X81562596Y-106162570D01*
X81575506Y-106140148D01*
X81639083Y-106057117D01*
X81657362Y-106038806D01*
X81740280Y-105975084D01*
X81762679Y-105962135D01*
X81859274Y-105922074D01*
X81884264Y-105915370D01*
X81994437Y-105900849D01*
X82007373Y-105900000D01*
X92100000Y-105900000D01*
X92100000Y-104889455D01*
X95744825Y-104889455D01*
X95761255Y-105057025D01*
X95814402Y-105216791D01*
X95817267Y-105221522D01*
X95817269Y-105221526D01*
X95878366Y-105322409D01*
X95901624Y-105360812D01*
X95905472Y-105364797D01*
X95905473Y-105364798D01*
X95927226Y-105387324D01*
X96018586Y-105481929D01*
X96023221Y-105484962D01*
X96107057Y-105539823D01*
X96159475Y-105574125D01*
X96164662Y-105576054D01*
X96312096Y-105630884D01*
X96312098Y-105630884D01*
X96317289Y-105632815D01*
X96322781Y-105633548D01*
X96322782Y-105633548D01*
X96445156Y-105649876D01*
X96484183Y-105655083D01*
X96489689Y-105654582D01*
X96489691Y-105654582D01*
X96646353Y-105640325D01*
X96646357Y-105640324D01*
X96651864Y-105639823D01*
X96657125Y-105638114D01*
X96657128Y-105638113D01*
X96731930Y-105613808D01*
X96811997Y-105587793D01*
X96956623Y-105501578D01*
X96960632Y-105497760D01*
X96960635Y-105497758D01*
X97074546Y-105389282D01*
X97074547Y-105389281D01*
X97078554Y-105385465D01*
X97078935Y-105385866D01*
X97127619Y-105355441D01*
X97188656Y-105359706D01*
X97222788Y-105382728D01*
X97227226Y-105387324D01*
X97318586Y-105481929D01*
X97323221Y-105484962D01*
X97407057Y-105539823D01*
X97459475Y-105574125D01*
X97464662Y-105576054D01*
X97612096Y-105630884D01*
X97612098Y-105630884D01*
X97617289Y-105632815D01*
X97622781Y-105633548D01*
X97622782Y-105633548D01*
X97745156Y-105649876D01*
X97784183Y-105655083D01*
X97789689Y-105654582D01*
X97789691Y-105654582D01*
X97946353Y-105640325D01*
X97946357Y-105640324D01*
X97951864Y-105639823D01*
X97957125Y-105638114D01*
X97957128Y-105638113D01*
X98031930Y-105613808D01*
X98111997Y-105587793D01*
X98256623Y-105501578D01*
X98260632Y-105497760D01*
X98260635Y-105497758D01*
X98358896Y-105404185D01*
X98378554Y-105385465D01*
X98394934Y-105360812D01*
X98468668Y-105249833D01*
X98471731Y-105245223D01*
X98531521Y-105087823D01*
X98532350Y-105081929D01*
X98542986Y-105006248D01*
X98554955Y-104921088D01*
X98555097Y-104910903D01*
X98555206Y-104903117D01*
X98555206Y-104903110D01*
X98555249Y-104900000D01*
X98554684Y-104894958D01*
X98544032Y-104800000D01*
X98536481Y-104732676D01*
X98481108Y-104573668D01*
X98448253Y-104521088D01*
X98394815Y-104435569D01*
X98394813Y-104435567D01*
X98391884Y-104430879D01*
X98387989Y-104426956D01*
X98387986Y-104426953D01*
X98277144Y-104315335D01*
X98277142Y-104315334D01*
X98273242Y-104311406D01*
X98186054Y-104256075D01*
X98135749Y-104224150D01*
X98135745Y-104224148D01*
X98131079Y-104221187D01*
X97997630Y-104173668D01*
X97977672Y-104166561D01*
X97977670Y-104166561D01*
X97972462Y-104164706D01*
X97966973Y-104164051D01*
X97966971Y-104164051D01*
X97810769Y-104145424D01*
X97810766Y-104145424D01*
X97805273Y-104144769D01*
X97637821Y-104162369D01*
X97632582Y-104164153D01*
X97632580Y-104164153D01*
X97493776Y-104211406D01*
X97478431Y-104216630D01*
X97473721Y-104219528D01*
X97473716Y-104219530D01*
X97360332Y-104289285D01*
X97335022Y-104304856D01*
X97331072Y-104308724D01*
X97331067Y-104308728D01*
X97218550Y-104418914D01*
X97163746Y-104446120D01*
X97103417Y-104435916D01*
X97079036Y-104417941D01*
X96977144Y-104315335D01*
X96977142Y-104315334D01*
X96973242Y-104311406D01*
X96886054Y-104256075D01*
X96835749Y-104224150D01*
X96835745Y-104224148D01*
X96831079Y-104221187D01*
X96697630Y-104173668D01*
X96677672Y-104166561D01*
X96677670Y-104166561D01*
X96672462Y-104164706D01*
X96666973Y-104164051D01*
X96666971Y-104164051D01*
X96510769Y-104145424D01*
X96510766Y-104145424D01*
X96505273Y-104144769D01*
X96337821Y-104162369D01*
X96332582Y-104164153D01*
X96332580Y-104164153D01*
X96193776Y-104211406D01*
X96178431Y-104216630D01*
X96173721Y-104219528D01*
X96173716Y-104219530D01*
X96060332Y-104289285D01*
X96035022Y-104304856D01*
X96031073Y-104308723D01*
X96031072Y-104308724D01*
X96016840Y-104322661D01*
X95914724Y-104422661D01*
X95911726Y-104427313D01*
X95829856Y-104554351D01*
X95823515Y-104564190D01*
X95765927Y-104722409D01*
X95744825Y-104889455D01*
X92100000Y-104889455D01*
X92100000Y-103789455D01*
X94244825Y-103789455D01*
X94261255Y-103957025D01*
X94314402Y-104116791D01*
X94317267Y-104121522D01*
X94317269Y-104121526D01*
X94386030Y-104235063D01*
X94401624Y-104260812D01*
X94405472Y-104264797D01*
X94405473Y-104264798D01*
X94425431Y-104285465D01*
X94518586Y-104381929D01*
X94523221Y-104384962D01*
X94615309Y-104445223D01*
X94659475Y-104474125D01*
X94664662Y-104476054D01*
X94812096Y-104530884D01*
X94812098Y-104530884D01*
X94817289Y-104532815D01*
X94822781Y-104533548D01*
X94822782Y-104533548D01*
X94945157Y-104549876D01*
X94984183Y-104555083D01*
X94989689Y-104554582D01*
X94989691Y-104554582D01*
X95146353Y-104540325D01*
X95146357Y-104540324D01*
X95151864Y-104539823D01*
X95157125Y-104538114D01*
X95157128Y-104538113D01*
X95274427Y-104500000D01*
X95311997Y-104487793D01*
X95456623Y-104401578D01*
X95460632Y-104397760D01*
X95460635Y-104397758D01*
X95554125Y-104308728D01*
X95578554Y-104285465D01*
X95594934Y-104260812D01*
X95668668Y-104149833D01*
X95671731Y-104145223D01*
X95706717Y-104053121D01*
X95729556Y-103992997D01*
X95729557Y-103992994D01*
X95731521Y-103987823D01*
X95733447Y-103974125D01*
X95749109Y-103862683D01*
X95754955Y-103821088D01*
X95755249Y-103800000D01*
X95754684Y-103794958D01*
X95742345Y-103684959D01*
X95736481Y-103632676D01*
X95681108Y-103473668D01*
X95657042Y-103435154D01*
X95594815Y-103335569D01*
X95594813Y-103335567D01*
X95591884Y-103330879D01*
X95587989Y-103326956D01*
X95587986Y-103326953D01*
X95477144Y-103215335D01*
X95477142Y-103215334D01*
X95473242Y-103211406D01*
X95368954Y-103145223D01*
X95335749Y-103124150D01*
X95335745Y-103124148D01*
X95331079Y-103121187D01*
X95216728Y-103080468D01*
X95177672Y-103066561D01*
X95177670Y-103066561D01*
X95172462Y-103064706D01*
X95166973Y-103064051D01*
X95166971Y-103064051D01*
X95010769Y-103045424D01*
X95010766Y-103045424D01*
X95005273Y-103044769D01*
X94837821Y-103062369D01*
X94832582Y-103064153D01*
X94832580Y-103064153D01*
X94683674Y-103114845D01*
X94678431Y-103116630D01*
X94673721Y-103119528D01*
X94673716Y-103119530D01*
X94560056Y-103189455D01*
X94535022Y-103204856D01*
X94414724Y-103322661D01*
X94411726Y-103327313D01*
X94328745Y-103456075D01*
X94323515Y-103464190D01*
X94265927Y-103622409D01*
X94244825Y-103789455D01*
X92100000Y-103789455D01*
X92100000Y-102989455D01*
X97044825Y-102989455D01*
X97061255Y-103157025D01*
X97114402Y-103316791D01*
X97117267Y-103321522D01*
X97117269Y-103321526D01*
X97194874Y-103449666D01*
X97201624Y-103460812D01*
X97205472Y-103464797D01*
X97205473Y-103464798D01*
X97225431Y-103485465D01*
X97318586Y-103581929D01*
X97323221Y-103584962D01*
X97415309Y-103645223D01*
X97459475Y-103674125D01*
X97464662Y-103676054D01*
X97612096Y-103730884D01*
X97612098Y-103730884D01*
X97617289Y-103732815D01*
X97622781Y-103733548D01*
X97622782Y-103733548D01*
X97706882Y-103744769D01*
X97784183Y-103755083D01*
X97789689Y-103754582D01*
X97789691Y-103754582D01*
X97946353Y-103740325D01*
X97946357Y-103740324D01*
X97951864Y-103739823D01*
X97957125Y-103738114D01*
X97957128Y-103738113D01*
X98062849Y-103703762D01*
X98111997Y-103687793D01*
X98256623Y-103601578D01*
X98260632Y-103597760D01*
X98260635Y-103597758D01*
X98363867Y-103499451D01*
X98378554Y-103485465D01*
X98394934Y-103460812D01*
X98468668Y-103349833D01*
X98471731Y-103345223D01*
X98511768Y-103239823D01*
X98529556Y-103192997D01*
X98529557Y-103192994D01*
X98531521Y-103187823D01*
X98532350Y-103181929D01*
X98546404Y-103081929D01*
X98554955Y-103021088D01*
X98555249Y-103000000D01*
X98554684Y-102994958D01*
X98542409Y-102885529D01*
X98536481Y-102832676D01*
X98481108Y-102673668D01*
X98438110Y-102604856D01*
X98394815Y-102535569D01*
X98394813Y-102535567D01*
X98391884Y-102530879D01*
X98387989Y-102526956D01*
X98387986Y-102526953D01*
X98277144Y-102415335D01*
X98277142Y-102415334D01*
X98273242Y-102411406D01*
X98196467Y-102362683D01*
X98135749Y-102324150D01*
X98135745Y-102324148D01*
X98131079Y-102321187D01*
X97997630Y-102273668D01*
X97977672Y-102266561D01*
X97977670Y-102266561D01*
X97972462Y-102264706D01*
X97966973Y-102264051D01*
X97966971Y-102264051D01*
X97810769Y-102245424D01*
X97810766Y-102245424D01*
X97805273Y-102244769D01*
X97637821Y-102262369D01*
X97632582Y-102264153D01*
X97632580Y-102264153D01*
X97483674Y-102314845D01*
X97478431Y-102316630D01*
X97473721Y-102319528D01*
X97473716Y-102319530D01*
X97389745Y-102371190D01*
X97335022Y-102404856D01*
X97331073Y-102408723D01*
X97331072Y-102408724D01*
X97311422Y-102427967D01*
X97214724Y-102522661D01*
X97211726Y-102527313D01*
X97128133Y-102657025D01*
X97123515Y-102664190D01*
X97065927Y-102822409D01*
X97044825Y-102989455D01*
X92100000Y-102989455D01*
X92100000Y-99289455D01*
X97044825Y-99289455D01*
X97061255Y-99457025D01*
X97114402Y-99616791D01*
X97117267Y-99621522D01*
X97117269Y-99621526D01*
X97157420Y-99687823D01*
X97201624Y-99760812D01*
X97205472Y-99764797D01*
X97205473Y-99764798D01*
X97223379Y-99783340D01*
X97318586Y-99881929D01*
X97459475Y-99974125D01*
X97464662Y-99976054D01*
X97612096Y-100030884D01*
X97612098Y-100030884D01*
X97617289Y-100032815D01*
X97622781Y-100033548D01*
X97622782Y-100033548D01*
X97745156Y-100049876D01*
X97784183Y-100055083D01*
X97789689Y-100054582D01*
X97789691Y-100054582D01*
X97946353Y-100040325D01*
X97946357Y-100040324D01*
X97951864Y-100039823D01*
X97957125Y-100038114D01*
X97957128Y-100038113D01*
X98059482Y-100004856D01*
X98111997Y-99987793D01*
X98256623Y-99901578D01*
X98260632Y-99897760D01*
X98260635Y-99897758D01*
X98347496Y-99815041D01*
X98378554Y-99785465D01*
X98394934Y-99760812D01*
X98468668Y-99649833D01*
X98471731Y-99645223D01*
X98505234Y-99557025D01*
X98529556Y-99492997D01*
X98529557Y-99492994D01*
X98531521Y-99487823D01*
X98532350Y-99481929D01*
X98554521Y-99324173D01*
X98554955Y-99321088D01*
X98555249Y-99300000D01*
X98554684Y-99294958D01*
X98544038Y-99200049D01*
X98536481Y-99132676D01*
X98481108Y-98973668D01*
X98454371Y-98930879D01*
X98394815Y-98835569D01*
X98394813Y-98835567D01*
X98391884Y-98830879D01*
X98387989Y-98826956D01*
X98387986Y-98826953D01*
X98284168Y-98722409D01*
X98280345Y-98718558D01*
X98252757Y-98663946D01*
X98262540Y-98603547D01*
X98282320Y-98577107D01*
X98366089Y-98497335D01*
X98378554Y-98485465D01*
X98394934Y-98460812D01*
X98432111Y-98404856D01*
X98471731Y-98345223D01*
X98504336Y-98259388D01*
X98529556Y-98192997D01*
X98529557Y-98192994D01*
X98531521Y-98187823D01*
X98535099Y-98162369D01*
X98554521Y-98024173D01*
X98554955Y-98021088D01*
X98555249Y-98000000D01*
X98554684Y-97994958D01*
X98543247Y-97892997D01*
X98536481Y-97832676D01*
X98481108Y-97673668D01*
X98391884Y-97530879D01*
X98387989Y-97526956D01*
X98387986Y-97526953D01*
X98277144Y-97415335D01*
X98277142Y-97415334D01*
X98273242Y-97411406D01*
X98198841Y-97364190D01*
X98135749Y-97324150D01*
X98135745Y-97324148D01*
X98131079Y-97321187D01*
X97998914Y-97274125D01*
X97977672Y-97266561D01*
X97977670Y-97266561D01*
X97972462Y-97264706D01*
X97966973Y-97264051D01*
X97966971Y-97264051D01*
X97810769Y-97245424D01*
X97810766Y-97245424D01*
X97805273Y-97244769D01*
X97637821Y-97262369D01*
X97632582Y-97264153D01*
X97632580Y-97264153D01*
X97497727Y-97310061D01*
X97478431Y-97316630D01*
X97473721Y-97319528D01*
X97473716Y-97319530D01*
X97373139Y-97381406D01*
X97335022Y-97404856D01*
X97331073Y-97408723D01*
X97331072Y-97408724D01*
X97271843Y-97466726D01*
X97214724Y-97522661D01*
X97211726Y-97527313D01*
X97128664Y-97656201D01*
X97123515Y-97664190D01*
X97065927Y-97822409D01*
X97044825Y-97989455D01*
X97061255Y-98157025D01*
X97114402Y-98316791D01*
X97117267Y-98321522D01*
X97117269Y-98321526D01*
X97197711Y-98454351D01*
X97201624Y-98460812D01*
X97205472Y-98464797D01*
X97205473Y-98464798D01*
X97318586Y-98581929D01*
X97316748Y-98583704D01*
X97344056Y-98626753D01*
X97340201Y-98687817D01*
X97317429Y-98722084D01*
X97214724Y-98822661D01*
X97211726Y-98827313D01*
X97150279Y-98922661D01*
X97123515Y-98964190D01*
X97065927Y-99122409D01*
X97044825Y-99289455D01*
X92100000Y-99289455D01*
X92100000Y-98496111D01*
X92118907Y-98437920D01*
X92168408Y-98401956D01*
X92206737Y-98389502D01*
X92206736Y-98389502D01*
X92211997Y-98387793D01*
X92356623Y-98301578D01*
X92360632Y-98297760D01*
X92360635Y-98297758D01*
X92445827Y-98216630D01*
X92478554Y-98185465D01*
X92494934Y-98160812D01*
X92568668Y-98049833D01*
X92571731Y-98045223D01*
X92607419Y-97951271D01*
X92645758Y-97903588D01*
X92704803Y-97887545D01*
X92762000Y-97909272D01*
X92793906Y-97955178D01*
X92814402Y-98016791D01*
X92817267Y-98021522D01*
X92817269Y-98021526D01*
X92878366Y-98122409D01*
X92901624Y-98160812D01*
X92905472Y-98164797D01*
X92905473Y-98164798D01*
X92922413Y-98182340D01*
X93018586Y-98281929D01*
X93023221Y-98284962D01*
X93115309Y-98345223D01*
X93159475Y-98374125D01*
X93164662Y-98376054D01*
X93312096Y-98430884D01*
X93312098Y-98430884D01*
X93317289Y-98432815D01*
X93322781Y-98433548D01*
X93322782Y-98433548D01*
X93445156Y-98449876D01*
X93484183Y-98455083D01*
X93489689Y-98454582D01*
X93489691Y-98454582D01*
X93646353Y-98440325D01*
X93646357Y-98440324D01*
X93651864Y-98439823D01*
X93657125Y-98438114D01*
X93657128Y-98438113D01*
X93774427Y-98400000D01*
X93811997Y-98387793D01*
X93956623Y-98301578D01*
X93960632Y-98297760D01*
X93960635Y-98297758D01*
X94045827Y-98216630D01*
X94078554Y-98185465D01*
X94094934Y-98160812D01*
X94168668Y-98049833D01*
X94171731Y-98045223D01*
X94215166Y-97930879D01*
X94229556Y-97892997D01*
X94229557Y-97892994D01*
X94231521Y-97887823D01*
X94233186Y-97875980D01*
X94244377Y-97796349D01*
X94254955Y-97721088D01*
X94255249Y-97700000D01*
X94252296Y-97673668D01*
X94237098Y-97538181D01*
X94236481Y-97532676D01*
X94181108Y-97373668D01*
X94118670Y-97273745D01*
X94094815Y-97235569D01*
X94094813Y-97235567D01*
X94091884Y-97230879D01*
X94087989Y-97226956D01*
X94087986Y-97226953D01*
X93977144Y-97115335D01*
X93977142Y-97115334D01*
X93973242Y-97111406D01*
X93893518Y-97060812D01*
X93835749Y-97024150D01*
X93835745Y-97024148D01*
X93831079Y-97021187D01*
X93716728Y-96980468D01*
X93677672Y-96966561D01*
X93677670Y-96966561D01*
X93672462Y-96964706D01*
X93666973Y-96964051D01*
X93666971Y-96964051D01*
X93510769Y-96945424D01*
X93510766Y-96945424D01*
X93505273Y-96944769D01*
X93337821Y-96962369D01*
X93332582Y-96964153D01*
X93332580Y-96964153D01*
X93330956Y-96964706D01*
X93178431Y-97016630D01*
X93173721Y-97019528D01*
X93173716Y-97019530D01*
X93040215Y-97101661D01*
X93035022Y-97104856D01*
X92914724Y-97222661D01*
X92911726Y-97227313D01*
X92843411Y-97333318D01*
X92823515Y-97364190D01*
X92818890Y-97376897D01*
X92793036Y-97447928D01*
X92755366Y-97496142D01*
X92696551Y-97513007D01*
X92639056Y-97492080D01*
X92606514Y-97446624D01*
X92582929Y-97378897D01*
X92582928Y-97378895D01*
X92581108Y-97373668D01*
X92518670Y-97273745D01*
X92494815Y-97235569D01*
X92494813Y-97235567D01*
X92491884Y-97230879D01*
X92487989Y-97226956D01*
X92487986Y-97226953D01*
X92377144Y-97115335D01*
X92377142Y-97115334D01*
X92373242Y-97111406D01*
X92293518Y-97060812D01*
X92235749Y-97024150D01*
X92235745Y-97024148D01*
X92231079Y-97021187D01*
X92225870Y-97019332D01*
X92225866Y-97019330D01*
X92165791Y-96997939D01*
X92117314Y-96960607D01*
X92100000Y-96904675D01*
X92100000Y-96200000D01*
X91685470Y-95854558D01*
X91675081Y-95844529D01*
X91592588Y-95752358D01*
X91576704Y-95728327D01*
X91527344Y-95622942D01*
X91519050Y-95595354D01*
X91501053Y-95472973D01*
X91500000Y-95458569D01*
X91500000Y-95000000D01*
X95194532Y-95000000D01*
X95214365Y-95226692D01*
X95215484Y-95230867D01*
X95215484Y-95230869D01*
X95237975Y-95314806D01*
X95273261Y-95446496D01*
X95369432Y-95652734D01*
X95371913Y-95656277D01*
X95371914Y-95656279D01*
X95447474Y-95764190D01*
X95499953Y-95839139D01*
X95660861Y-96000047D01*
X95664399Y-96002524D01*
X95664401Y-96002526D01*
X95839971Y-96125460D01*
X95847266Y-96130568D01*
X96053504Y-96226739D01*
X96142563Y-96250602D01*
X96269131Y-96284516D01*
X96269133Y-96284516D01*
X96273308Y-96285635D01*
X96500000Y-96305468D01*
X96726692Y-96285635D01*
X96730867Y-96284516D01*
X96730869Y-96284516D01*
X96857437Y-96250602D01*
X96946496Y-96226739D01*
X97152734Y-96130568D01*
X97160029Y-96125460D01*
X97335599Y-96002526D01*
X97335601Y-96002524D01*
X97339139Y-96000047D01*
X97500047Y-95839139D01*
X97552527Y-95764190D01*
X97628086Y-95656279D01*
X97628087Y-95656277D01*
X97630568Y-95652734D01*
X97726739Y-95446496D01*
X97762025Y-95314806D01*
X97784516Y-95230869D01*
X97784516Y-95230867D01*
X97785635Y-95226692D01*
X97805468Y-95000000D01*
X97785635Y-94773308D01*
X97759330Y-94675134D01*
X97727857Y-94557677D01*
X97726739Y-94553504D01*
X97630568Y-94347266D01*
X97605459Y-94311406D01*
X97502526Y-94164401D01*
X97502524Y-94164399D01*
X97500047Y-94160861D01*
X97339139Y-93999953D01*
X97318297Y-93985359D01*
X97156279Y-93871914D01*
X97156277Y-93871913D01*
X97152734Y-93869432D01*
X96946496Y-93773261D01*
X96857437Y-93749398D01*
X96730869Y-93715484D01*
X96730867Y-93715484D01*
X96726692Y-93714365D01*
X96500000Y-93694532D01*
X96273308Y-93714365D01*
X96269133Y-93715484D01*
X96269131Y-93715484D01*
X96142563Y-93749398D01*
X96053504Y-93773261D01*
X95847266Y-93869432D01*
X95843723Y-93871913D01*
X95843721Y-93871914D01*
X95681704Y-93985359D01*
X95660861Y-93999953D01*
X95499953Y-94160861D01*
X95497476Y-94164399D01*
X95497474Y-94164401D01*
X95394541Y-94311406D01*
X95369432Y-94347266D01*
X95273261Y-94553504D01*
X95272143Y-94557677D01*
X95240671Y-94675134D01*
X95214365Y-94773308D01*
X95194532Y-95000000D01*
X91500000Y-95000000D01*
X91500000Y-91000000D01*
X89006488Y-91000000D01*
X88993566Y-90999153D01*
X88883513Y-90984664D01*
X88858549Y-90977975D01*
X88762043Y-90938001D01*
X88739661Y-90925079D01*
X88656787Y-90861487D01*
X88638513Y-90843213D01*
X88574921Y-90760339D01*
X88561999Y-90737957D01*
X88522025Y-90641451D01*
X88515336Y-90616487D01*
X88500847Y-90506434D01*
X88500000Y-90493512D01*
X88500000Y-88506488D01*
X88500847Y-88493566D01*
X88515336Y-88383513D01*
X88522025Y-88358549D01*
X88561999Y-88262043D01*
X88574921Y-88239661D01*
X88638513Y-88156787D01*
X88656787Y-88138513D01*
X88739661Y-88074921D01*
X88762043Y-88061999D01*
X88858549Y-88022025D01*
X88883513Y-88015336D01*
X88993566Y-88000847D01*
X89006488Y-88000000D01*
X92493512Y-88000000D01*
X92506434Y-88000847D01*
G37*
%TD.AperFunction*%
%TD*%
%TA.AperFunction,Conductor*%
%TO.N,/Driver/VS1*%
G36*
X106006433Y-116500847D02*
G01*
X106049380Y-116506501D01*
X106116488Y-116515336D01*
X106141451Y-116522025D01*
X106237955Y-116561998D01*
X106260338Y-116574920D01*
X106343213Y-116638513D01*
X106361487Y-116656787D01*
X106425080Y-116739662D01*
X106438002Y-116762045D01*
X106477975Y-116858549D01*
X106484664Y-116883512D01*
X106499153Y-116993566D01*
X106500000Y-117006488D01*
X106500000Y-122000000D01*
X107993512Y-122000000D01*
X108006434Y-122000847D01*
X108116487Y-122015336D01*
X108141451Y-122022025D01*
X108237957Y-122061999D01*
X108260339Y-122074921D01*
X108343213Y-122138513D01*
X108361487Y-122156787D01*
X108425079Y-122239661D01*
X108438001Y-122262043D01*
X108477975Y-122358549D01*
X108484664Y-122383513D01*
X108499153Y-122493566D01*
X108500000Y-122506488D01*
X108500000Y-126993512D01*
X108499153Y-127006434D01*
X108484664Y-127116487D01*
X108477975Y-127141451D01*
X108438001Y-127237957D01*
X108425079Y-127260339D01*
X108361487Y-127343213D01*
X108343213Y-127361487D01*
X108260339Y-127425079D01*
X108237957Y-127438001D01*
X108141451Y-127477975D01*
X108116487Y-127484664D01*
X108006434Y-127499153D01*
X107993512Y-127500000D01*
X105506656Y-127500000D01*
X105493732Y-127499153D01*
X105440001Y-127492078D01*
X105383650Y-127484658D01*
X105358684Y-127477967D01*
X105262159Y-127437976D01*
X105239775Y-127425049D01*
X105156891Y-127361432D01*
X105138621Y-127343156D01*
X105075026Y-127260244D01*
X105062110Y-127237861D01*
X105022152Y-127141326D01*
X105015468Y-127116356D01*
X105003714Y-127026870D01*
X105001008Y-127006270D01*
X105000165Y-126993346D01*
X105000745Y-125210497D01*
X105000745Y-125210496D01*
X105000746Y-125207250D01*
X105000746Y-125207247D01*
X105000813Y-125000000D01*
X104854244Y-124853479D01*
X104854242Y-124853476D01*
X102646437Y-122646389D01*
X102646435Y-122646388D01*
X102500000Y-122500000D01*
X101600742Y-122500000D01*
X96007845Y-122499996D01*
X95994925Y-122499149D01*
X95952511Y-122493566D01*
X95884888Y-122484664D01*
X95859932Y-122477978D01*
X95811682Y-122457996D01*
X95763435Y-122438015D01*
X95741060Y-122425100D01*
X95658183Y-122361520D01*
X95639916Y-122343257D01*
X95577580Y-122262043D01*
X95576323Y-122260406D01*
X95563399Y-122238029D01*
X95523412Y-122141542D01*
X95516719Y-122116585D01*
X95503590Y-122017037D01*
X95502207Y-122006547D01*
X95501357Y-121993632D01*
X95501354Y-121980479D01*
X95501343Y-121933013D01*
X95500880Y-120059365D01*
X95519773Y-120001170D01*
X95528306Y-119990944D01*
X95535703Y-119983203D01*
X95553063Y-119965037D01*
X95572135Y-119937079D01*
X95685416Y-119771015D01*
X95685419Y-119771009D01*
X95687706Y-119767657D01*
X95788304Y-119550938D01*
X95852155Y-119320698D01*
X95873000Y-119125650D01*
X95873000Y-118891929D01*
X95858402Y-118714374D01*
X95800196Y-118482643D01*
X95704923Y-118263530D01*
X95575142Y-118062921D01*
X95526133Y-118009060D01*
X95500955Y-117953295D01*
X95500918Y-117952623D01*
X98047000Y-117952623D01*
X98047001Y-120047376D01*
X98053649Y-120108580D01*
X98103974Y-120242824D01*
X98189954Y-120357546D01*
X98304676Y-120443526D01*
X98311282Y-120446003D01*
X98311285Y-120446004D01*
X98340909Y-120457109D01*
X98438920Y-120493851D01*
X98500123Y-120500500D01*
X99499626Y-120500500D01*
X100499876Y-120500499D01*
X100502535Y-120500210D01*
X100502538Y-120500210D01*
X100554905Y-120494522D01*
X100554907Y-120494522D01*
X100561080Y-120493851D01*
X100659091Y-120457109D01*
X100688715Y-120446004D01*
X100688718Y-120446003D01*
X100695324Y-120443526D01*
X100810046Y-120357546D01*
X100896026Y-120242824D01*
X100946351Y-120108580D01*
X100953000Y-120047377D01*
X100952999Y-117952624D01*
X100946351Y-117891420D01*
X100896026Y-117757176D01*
X100810046Y-117642454D01*
X100695324Y-117556474D01*
X100688718Y-117553997D01*
X100688715Y-117553996D01*
X100635939Y-117534212D01*
X100561080Y-117506149D01*
X100499877Y-117499500D01*
X99500374Y-117499500D01*
X98500124Y-117499501D01*
X98497465Y-117499790D01*
X98497462Y-117499790D01*
X98445095Y-117505478D01*
X98445093Y-117505478D01*
X98438920Y-117506149D01*
X98379822Y-117528303D01*
X98311285Y-117553996D01*
X98311282Y-117553997D01*
X98304676Y-117556474D01*
X98189954Y-117642454D01*
X98103974Y-117757176D01*
X98053649Y-117891420D01*
X98047000Y-117952623D01*
X95500918Y-117952623D01*
X95500357Y-117942456D01*
X95500126Y-117006614D01*
X95500970Y-116993691D01*
X95515435Y-116883617D01*
X95522120Y-116858647D01*
X95562083Y-116762117D01*
X95575003Y-116739730D01*
X95638596Y-116656830D01*
X95656866Y-116638556D01*
X95698307Y-116606750D01*
X95739746Y-116574947D01*
X95762129Y-116562022D01*
X95858651Y-116522033D01*
X95883618Y-116515341D01*
X95993691Y-116500848D01*
X96006615Y-116500001D01*
X105993512Y-116500000D01*
X106006433Y-116500847D01*
G37*
%TD.AperFunction*%
%TD*%
%TA.AperFunction,Conductor*%
%TO.N,/Driver/PhaseC*%
G36*
X159006434Y-122000847D02*
G01*
X159116487Y-122015336D01*
X159141451Y-122022025D01*
X159237957Y-122061999D01*
X159260339Y-122074921D01*
X159343213Y-122138513D01*
X159361487Y-122156787D01*
X159425079Y-122239661D01*
X159438001Y-122262043D01*
X159477975Y-122358549D01*
X159484664Y-122383513D01*
X159498653Y-122489768D01*
X159499500Y-122502690D01*
X159499500Y-138497310D01*
X159498653Y-138510232D01*
X159484664Y-138616487D01*
X159477975Y-138641451D01*
X159438001Y-138737957D01*
X159425079Y-138760339D01*
X159361487Y-138843213D01*
X159343213Y-138861487D01*
X159260339Y-138925079D01*
X159237957Y-138938001D01*
X159141451Y-138977975D01*
X159116487Y-138984664D01*
X159006434Y-138999153D01*
X158993512Y-139000000D01*
X148506488Y-139000000D01*
X148493566Y-138999153D01*
X148383513Y-138984664D01*
X148358549Y-138977975D01*
X148262043Y-138938001D01*
X148239661Y-138925079D01*
X148156787Y-138861487D01*
X148138513Y-138843213D01*
X148074921Y-138760339D01*
X148061999Y-138737957D01*
X148022025Y-138641451D01*
X148015336Y-138616487D01*
X148000847Y-138506434D01*
X148000000Y-138493512D01*
X148000000Y-133632200D01*
X151398747Y-133632200D01*
X151436129Y-133916149D01*
X151437020Y-133919406D01*
X151437021Y-133919411D01*
X151442035Y-133937739D01*
X151511702Y-134192398D01*
X151624068Y-134455835D01*
X151771146Y-134701585D01*
X151773252Y-134704214D01*
X151773255Y-134704218D01*
X151860681Y-134813343D01*
X151950215Y-134925100D01*
X152157962Y-135122245D01*
X152160701Y-135124213D01*
X152160702Y-135124214D01*
X152177395Y-135136209D01*
X152390543Y-135289371D01*
X152643653Y-135423386D01*
X152646822Y-135424546D01*
X152646825Y-135424547D01*
X152670941Y-135433372D01*
X152912610Y-135521810D01*
X153052523Y-135552316D01*
X153189151Y-135582106D01*
X153189155Y-135582107D01*
X153192436Y-135582822D01*
X153417053Y-135600500D01*
X153571992Y-135600500D01*
X153785737Y-135585928D01*
X153913774Y-135559413D01*
X154062890Y-135528533D01*
X154062896Y-135528531D01*
X154066186Y-135527850D01*
X154069352Y-135526729D01*
X154069355Y-135526728D01*
X154169911Y-135491119D01*
X154336158Y-135432248D01*
X154339151Y-135430703D01*
X154339156Y-135430701D01*
X154587654Y-135302442D01*
X154587660Y-135302438D01*
X154590658Y-135300891D01*
X154604803Y-135290950D01*
X154822228Y-135138141D01*
X154822234Y-135138136D01*
X154824976Y-135136209D01*
X155034776Y-134941251D01*
X155036910Y-134938644D01*
X155214039Y-134722236D01*
X155214044Y-134722229D01*
X155216177Y-134719623D01*
X155365820Y-134475427D01*
X155367173Y-134472345D01*
X155479585Y-134216265D01*
X155479587Y-134216261D01*
X155480938Y-134213182D01*
X155559400Y-133937739D01*
X155599754Y-133654196D01*
X155601253Y-133367800D01*
X155563871Y-133083851D01*
X155558881Y-133065608D01*
X155489189Y-132810858D01*
X155489188Y-132810855D01*
X155488298Y-132807602D01*
X155375932Y-132544165D01*
X155228854Y-132298415D01*
X155212310Y-132277764D01*
X155051894Y-132077533D01*
X155049785Y-132074900D01*
X154842038Y-131877755D01*
X154825791Y-131866080D01*
X154798307Y-131846331D01*
X154609457Y-131710629D01*
X154356347Y-131576614D01*
X154353178Y-131575454D01*
X154353175Y-131575453D01*
X154274959Y-131546830D01*
X154087390Y-131478190D01*
X153947477Y-131447684D01*
X153810849Y-131417894D01*
X153810845Y-131417893D01*
X153807564Y-131417178D01*
X153582947Y-131399500D01*
X153428008Y-131399500D01*
X153214263Y-131414072D01*
X153086226Y-131440587D01*
X152937110Y-131471467D01*
X152937104Y-131471469D01*
X152933814Y-131472150D01*
X152930648Y-131473271D01*
X152930645Y-131473272D01*
X152913487Y-131479348D01*
X152663842Y-131567752D01*
X152660849Y-131569297D01*
X152660844Y-131569299D01*
X152412346Y-131697558D01*
X152412340Y-131697562D01*
X152409342Y-131699109D01*
X152406582Y-131701049D01*
X152406580Y-131701050D01*
X152177772Y-131861859D01*
X152177766Y-131861864D01*
X152175024Y-131863791D01*
X151965224Y-132058749D01*
X151963091Y-132061354D01*
X151963090Y-132061356D01*
X151785961Y-132277764D01*
X151785956Y-132277771D01*
X151783823Y-132280377D01*
X151634180Y-132524573D01*
X151632828Y-132527654D01*
X151632827Y-132527655D01*
X151626854Y-132541263D01*
X151519062Y-132786818D01*
X151440600Y-133062261D01*
X151400246Y-133345804D01*
X151398747Y-133632200D01*
X148000000Y-133632200D01*
X148000000Y-128506488D01*
X148000847Y-128493566D01*
X148015336Y-128383513D01*
X148022025Y-128358549D01*
X148061999Y-128262043D01*
X148074921Y-128239661D01*
X148138513Y-128156787D01*
X148156787Y-128138513D01*
X148239661Y-128074921D01*
X148262043Y-128061999D01*
X148358549Y-128022025D01*
X148383513Y-128015336D01*
X148493566Y-128000847D01*
X148506488Y-128000000D01*
X156000000Y-128000000D01*
X156000000Y-122506488D01*
X156000847Y-122493566D01*
X156015336Y-122383513D01*
X156022025Y-122358549D01*
X156061999Y-122262043D01*
X156074921Y-122239661D01*
X156138513Y-122156787D01*
X156156787Y-122138513D01*
X156239661Y-122074921D01*
X156262043Y-122061999D01*
X156358549Y-122022025D01*
X156383513Y-122015336D01*
X156493566Y-122000847D01*
X156506488Y-122000000D01*
X158993512Y-122000000D01*
X159006434Y-122000847D01*
G37*
%TD.AperFunction*%
%TD*%
%TA.AperFunction,Conductor*%
%TO.N,/3.3V*%
G36*
X141232593Y-82018907D02*
G01*
X141244406Y-82028996D01*
X142239134Y-83023724D01*
X142263069Y-83062479D01*
X142296268Y-83162279D01*
X142314402Y-83216791D01*
X142317267Y-83221522D01*
X142317269Y-83221526D01*
X142397711Y-83354351D01*
X142401624Y-83360812D01*
X142405472Y-83364797D01*
X142405473Y-83364798D01*
X142425431Y-83385465D01*
X142518586Y-83481929D01*
X142659475Y-83574125D01*
X142664662Y-83576054D01*
X142812096Y-83630884D01*
X142812098Y-83630884D01*
X142817289Y-83632815D01*
X142822781Y-83633548D01*
X142822782Y-83633548D01*
X142945156Y-83649876D01*
X142984183Y-83655083D01*
X142989689Y-83654582D01*
X142989691Y-83654582D01*
X143146353Y-83640325D01*
X143146357Y-83640324D01*
X143151864Y-83639823D01*
X143157125Y-83638114D01*
X143157128Y-83638113D01*
X143231930Y-83613808D01*
X143311997Y-83587793D01*
X143456623Y-83501578D01*
X143460632Y-83497760D01*
X143460635Y-83497758D01*
X143545658Y-83416791D01*
X143578554Y-83385465D01*
X143594934Y-83360812D01*
X143654542Y-83271094D01*
X143671731Y-83245223D01*
X143731521Y-83087823D01*
X143735318Y-83060812D01*
X143745346Y-82989455D01*
X145744825Y-82989455D01*
X145761255Y-83157025D01*
X145814402Y-83316791D01*
X145817267Y-83321522D01*
X145817269Y-83321526D01*
X145897711Y-83454351D01*
X145901624Y-83460812D01*
X145905472Y-83464797D01*
X145905473Y-83464798D01*
X145940991Y-83501578D01*
X146018586Y-83581929D01*
X146023221Y-83584962D01*
X146107057Y-83639823D01*
X146159475Y-83674125D01*
X146164662Y-83676054D01*
X146312096Y-83730884D01*
X146312098Y-83730884D01*
X146317289Y-83732815D01*
X146322781Y-83733548D01*
X146322782Y-83733548D01*
X146406882Y-83744769D01*
X146484183Y-83755083D01*
X146489689Y-83754582D01*
X146489691Y-83754582D01*
X146646353Y-83740325D01*
X146646357Y-83740324D01*
X146651864Y-83739823D01*
X146657125Y-83738114D01*
X146657128Y-83738113D01*
X146731931Y-83713808D01*
X146811997Y-83687793D01*
X146956623Y-83601578D01*
X146960632Y-83597760D01*
X146960635Y-83597758D01*
X147017588Y-83543522D01*
X147078554Y-83485465D01*
X147094934Y-83460812D01*
X147168668Y-83349833D01*
X147171731Y-83345223D01*
X147211578Y-83240325D01*
X147229556Y-83192997D01*
X147229557Y-83192994D01*
X147231521Y-83187823D01*
X147232350Y-83181929D01*
X147246555Y-83080852D01*
X147254955Y-83021088D01*
X147255249Y-83000000D01*
X147254684Y-82994958D01*
X147246398Y-82921088D01*
X147236481Y-82832676D01*
X147181108Y-82673668D01*
X147157042Y-82635154D01*
X147094815Y-82535569D01*
X147094813Y-82535567D01*
X147091884Y-82530879D01*
X147087989Y-82526956D01*
X147087986Y-82526953D01*
X146977144Y-82415335D01*
X146977142Y-82415334D01*
X146973242Y-82411406D01*
X146879439Y-82351877D01*
X146835749Y-82324150D01*
X146835745Y-82324148D01*
X146831079Y-82321187D01*
X146716728Y-82280468D01*
X146677672Y-82266561D01*
X146677670Y-82266561D01*
X146672462Y-82264706D01*
X146666973Y-82264051D01*
X146666971Y-82264051D01*
X146510769Y-82245424D01*
X146510766Y-82245424D01*
X146505273Y-82244769D01*
X146337821Y-82262369D01*
X146332582Y-82264153D01*
X146332580Y-82264153D01*
X146330956Y-82264706D01*
X146178431Y-82316630D01*
X146173721Y-82319528D01*
X146173716Y-82319530D01*
X146040215Y-82401661D01*
X146035022Y-82404856D01*
X145914724Y-82522661D01*
X145911726Y-82527313D01*
X145850279Y-82622661D01*
X145823515Y-82664190D01*
X145765927Y-82822409D01*
X145744825Y-82989455D01*
X143745346Y-82989455D01*
X143754521Y-82924173D01*
X143754955Y-82921088D01*
X143755249Y-82900000D01*
X143736481Y-82732676D01*
X143681108Y-82573668D01*
X143650180Y-82524173D01*
X143594815Y-82435569D01*
X143594813Y-82435567D01*
X143591884Y-82430879D01*
X143587989Y-82426956D01*
X143587986Y-82426953D01*
X143477144Y-82315335D01*
X143477142Y-82315334D01*
X143473242Y-82311406D01*
X143369151Y-82245348D01*
X143335749Y-82224150D01*
X143335745Y-82224148D01*
X143331079Y-82221187D01*
X143249854Y-82192264D01*
X143201378Y-82154932D01*
X143184103Y-82096236D01*
X143204627Y-82038596D01*
X143255112Y-82004028D01*
X143283064Y-82000000D01*
X154901000Y-82000000D01*
X154959191Y-82018907D01*
X154995155Y-82068407D01*
X155000000Y-82099000D01*
X155000000Y-95848031D01*
X154981093Y-95906222D01*
X154952875Y-95932352D01*
X154835022Y-96004856D01*
X154714724Y-96122661D01*
X154623515Y-96264190D01*
X154565927Y-96422409D01*
X154544825Y-96589455D01*
X154561255Y-96757025D01*
X154614402Y-96916791D01*
X154617267Y-96921522D01*
X154617269Y-96921526D01*
X154698755Y-97056075D01*
X154701624Y-97060812D01*
X154818586Y-97181929D01*
X154955211Y-97271335D01*
X154993548Y-97319017D01*
X155000000Y-97354172D01*
X155000000Y-97570346D01*
X154981093Y-97628537D01*
X154931593Y-97664501D01*
X154878393Y-97666730D01*
X154877669Y-97666560D01*
X154872462Y-97664706D01*
X154866977Y-97664052D01*
X154866973Y-97664051D01*
X154710769Y-97645424D01*
X154710766Y-97645424D01*
X154705273Y-97644769D01*
X154537821Y-97662369D01*
X154532582Y-97664153D01*
X154532580Y-97664153D01*
X154383674Y-97714845D01*
X154378431Y-97716630D01*
X154373721Y-97719528D01*
X154373716Y-97719530D01*
X154240215Y-97801661D01*
X154235022Y-97804856D01*
X154114724Y-97922661D01*
X154023515Y-98064190D01*
X153965927Y-98222409D01*
X153944825Y-98389455D01*
X153961255Y-98557025D01*
X154014402Y-98716791D01*
X154017267Y-98721522D01*
X154017269Y-98721526D01*
X154098755Y-98856075D01*
X154101624Y-98860812D01*
X154105472Y-98864797D01*
X154105473Y-98864798D01*
X154125431Y-98885465D01*
X154218586Y-98981929D01*
X154359475Y-99074125D01*
X154364662Y-99076054D01*
X154512096Y-99130884D01*
X154512098Y-99130884D01*
X154517289Y-99132815D01*
X154522781Y-99133548D01*
X154522782Y-99133548D01*
X154645157Y-99149876D01*
X154684183Y-99155083D01*
X154689689Y-99154582D01*
X154689691Y-99154582D01*
X154756424Y-99148509D01*
X154851864Y-99139823D01*
X154857122Y-99138115D01*
X154857125Y-99138114D01*
X154870407Y-99133798D01*
X154931593Y-99133798D01*
X154981093Y-99169762D01*
X155000000Y-99227953D01*
X155000000Y-99656183D01*
X154981093Y-99714374D01*
X154931593Y-99750338D01*
X154911348Y-99754641D01*
X154837821Y-99762369D01*
X154832582Y-99764153D01*
X154832580Y-99764153D01*
X154830956Y-99764706D01*
X154678431Y-99816630D01*
X154673721Y-99819528D01*
X154673716Y-99819530D01*
X154546265Y-99897939D01*
X154535022Y-99904856D01*
X154414724Y-100022661D01*
X154411726Y-100027313D01*
X154347513Y-100126953D01*
X154323515Y-100164190D01*
X154265927Y-100322409D01*
X154244825Y-100489455D01*
X154261255Y-100657025D01*
X154314402Y-100816791D01*
X154317267Y-100821522D01*
X154317269Y-100821526D01*
X154395235Y-100950262D01*
X154409207Y-101009831D01*
X154393770Y-101055175D01*
X154377223Y-101080852D01*
X154340277Y-101138181D01*
X154323515Y-101164190D01*
X154311372Y-101197553D01*
X154297792Y-101234861D01*
X154260122Y-101283075D01*
X154204763Y-101300000D01*
X136143765Y-101300000D01*
X136085574Y-101281093D01*
X136049610Y-101231593D01*
X136045382Y-101212035D01*
X136040599Y-101169389D01*
X136036481Y-101132676D01*
X135981108Y-100973668D01*
X135957042Y-100935154D01*
X135894815Y-100835569D01*
X135894813Y-100835567D01*
X135891884Y-100830879D01*
X135887989Y-100826956D01*
X135887986Y-100826953D01*
X135777144Y-100715335D01*
X135777142Y-100715334D01*
X135773242Y-100711406D01*
X135678867Y-100651514D01*
X135635749Y-100624150D01*
X135635745Y-100624148D01*
X135631079Y-100621187D01*
X135516728Y-100580468D01*
X135477672Y-100566561D01*
X135477670Y-100566561D01*
X135472462Y-100564706D01*
X135466973Y-100564051D01*
X135466971Y-100564051D01*
X135310769Y-100545424D01*
X135310766Y-100545424D01*
X135305273Y-100544769D01*
X135137821Y-100562369D01*
X135132582Y-100564153D01*
X135132580Y-100564153D01*
X135027281Y-100600000D01*
X134978431Y-100616630D01*
X134973721Y-100619528D01*
X134973716Y-100619530D01*
X134840215Y-100701661D01*
X134835022Y-100704856D01*
X134714724Y-100822661D01*
X134711726Y-100827313D01*
X134639073Y-100940049D01*
X134623515Y-100964190D01*
X134565927Y-101122409D01*
X134565233Y-101127903D01*
X134554432Y-101213407D01*
X134528382Y-101268770D01*
X134474765Y-101298246D01*
X134456213Y-101300000D01*
X133600787Y-101300000D01*
X133542596Y-101281093D01*
X133506632Y-101231593D01*
X133506632Y-101170407D01*
X133532515Y-101129307D01*
X133578554Y-101085465D01*
X133594934Y-101060812D01*
X133668668Y-100949833D01*
X133671731Y-100945223D01*
X133715166Y-100830879D01*
X133729556Y-100792997D01*
X133729557Y-100792994D01*
X133731521Y-100787823D01*
X133754955Y-100621088D01*
X133755249Y-100600000D01*
X133736481Y-100432676D01*
X133681108Y-100273668D01*
X133650385Y-100224500D01*
X133594815Y-100135569D01*
X133594813Y-100135567D01*
X133591884Y-100130879D01*
X133587989Y-100126956D01*
X133587986Y-100126953D01*
X133477144Y-100015335D01*
X133477142Y-100015334D01*
X133473242Y-100011406D01*
X133407380Y-99969609D01*
X133335749Y-99924150D01*
X133335745Y-99924148D01*
X133331079Y-99921187D01*
X133325872Y-99919333D01*
X133325866Y-99919330D01*
X133265791Y-99897939D01*
X133217314Y-99860607D01*
X133200000Y-99804675D01*
X133200000Y-98389455D01*
X151544825Y-98389455D01*
X151561255Y-98557025D01*
X151614402Y-98716791D01*
X151617267Y-98721522D01*
X151617269Y-98721526D01*
X151698755Y-98856075D01*
X151701624Y-98860812D01*
X151705472Y-98864797D01*
X151705473Y-98864798D01*
X151725431Y-98885465D01*
X151818586Y-98981929D01*
X151959475Y-99074125D01*
X151964662Y-99076054D01*
X152112096Y-99130884D01*
X152112098Y-99130884D01*
X152117289Y-99132815D01*
X152122781Y-99133548D01*
X152122782Y-99133548D01*
X152245157Y-99149876D01*
X152284183Y-99155083D01*
X152289689Y-99154582D01*
X152289691Y-99154582D01*
X152446353Y-99140325D01*
X152446357Y-99140324D01*
X152451864Y-99139823D01*
X152457125Y-99138114D01*
X152457128Y-99138113D01*
X152531931Y-99113808D01*
X152611997Y-99087793D01*
X152756623Y-99001578D01*
X152760632Y-98997760D01*
X152760635Y-98997758D01*
X152817589Y-98943521D01*
X152878554Y-98885465D01*
X152894934Y-98860812D01*
X152968668Y-98749833D01*
X152971731Y-98745223D01*
X153031521Y-98587823D01*
X153054955Y-98421088D01*
X153055249Y-98400000D01*
X153054684Y-98394958D01*
X153037098Y-98238181D01*
X153036481Y-98232676D01*
X152981108Y-98073668D01*
X152891884Y-97930879D01*
X152887989Y-97926956D01*
X152887986Y-97926953D01*
X152777144Y-97815335D01*
X152777142Y-97815334D01*
X152773242Y-97811406D01*
X152707380Y-97769609D01*
X152635749Y-97724150D01*
X152635745Y-97724148D01*
X152631079Y-97721187D01*
X152516728Y-97680468D01*
X152477672Y-97666561D01*
X152477670Y-97666561D01*
X152472462Y-97664706D01*
X152466973Y-97664051D01*
X152466971Y-97664051D01*
X152310769Y-97645424D01*
X152310766Y-97645424D01*
X152305273Y-97644769D01*
X152137821Y-97662369D01*
X152132582Y-97664153D01*
X152132580Y-97664153D01*
X151983674Y-97714845D01*
X151978431Y-97716630D01*
X151973721Y-97719528D01*
X151973716Y-97719530D01*
X151840215Y-97801661D01*
X151835022Y-97804856D01*
X151714724Y-97922661D01*
X151623515Y-98064190D01*
X151565927Y-98222409D01*
X151544825Y-98389455D01*
X133200000Y-98389455D01*
X133200000Y-94889455D01*
X138144825Y-94889455D01*
X138161255Y-95057025D01*
X138214402Y-95216791D01*
X138217267Y-95221522D01*
X138217269Y-95221526D01*
X138298755Y-95356075D01*
X138301624Y-95360812D01*
X138305472Y-95364797D01*
X138305473Y-95364798D01*
X138325431Y-95385465D01*
X138418586Y-95481929D01*
X138559475Y-95574125D01*
X138564662Y-95576054D01*
X138712096Y-95630884D01*
X138712098Y-95630884D01*
X138717289Y-95632815D01*
X138722781Y-95633548D01*
X138722782Y-95633548D01*
X138845156Y-95649876D01*
X138884183Y-95655083D01*
X138889689Y-95654582D01*
X138889691Y-95654582D01*
X139046353Y-95640325D01*
X139046357Y-95640324D01*
X139051864Y-95639823D01*
X139057125Y-95638114D01*
X139057128Y-95638113D01*
X139131930Y-95613808D01*
X139211997Y-95587793D01*
X139356623Y-95501578D01*
X139379755Y-95479549D01*
X139434932Y-95453112D01*
X139495112Y-95464156D01*
X139511132Y-95474961D01*
X139514738Y-95477944D01*
X139518586Y-95481929D01*
X139523220Y-95484962D01*
X139523222Y-95484963D01*
X139654843Y-95571094D01*
X139659475Y-95574125D01*
X139664662Y-95576054D01*
X139812096Y-95630884D01*
X139812098Y-95630884D01*
X139817289Y-95632815D01*
X139822781Y-95633548D01*
X139822782Y-95633548D01*
X139945156Y-95649876D01*
X139984183Y-95655083D01*
X139989689Y-95654582D01*
X139989691Y-95654582D01*
X140146353Y-95640325D01*
X140146357Y-95640324D01*
X140151864Y-95639823D01*
X140157125Y-95638114D01*
X140157128Y-95638113D01*
X140231930Y-95613808D01*
X140311997Y-95587793D01*
X140456623Y-95501578D01*
X140460632Y-95497760D01*
X140460635Y-95497758D01*
X140530859Y-95430884D01*
X140578554Y-95385465D01*
X140594934Y-95360812D01*
X140668668Y-95249833D01*
X140671731Y-95245223D01*
X140731521Y-95087823D01*
X140736861Y-95049833D01*
X140754521Y-94924173D01*
X140754955Y-94921088D01*
X140755249Y-94900000D01*
X140754684Y-94894958D01*
X140737098Y-94738181D01*
X140736481Y-94732676D01*
X140681108Y-94573668D01*
X140649078Y-94522409D01*
X140594815Y-94435569D01*
X140594813Y-94435567D01*
X140591884Y-94430879D01*
X140587989Y-94426956D01*
X140587986Y-94426953D01*
X140477144Y-94315335D01*
X140477142Y-94315334D01*
X140473242Y-94311406D01*
X140353742Y-94235569D01*
X140335749Y-94224150D01*
X140335745Y-94224148D01*
X140331079Y-94221187D01*
X140198914Y-94174125D01*
X140177672Y-94166561D01*
X140177670Y-94166561D01*
X140172462Y-94164706D01*
X140166973Y-94164051D01*
X140166971Y-94164051D01*
X140010769Y-94145424D01*
X140010766Y-94145424D01*
X140005273Y-94144769D01*
X139837821Y-94162369D01*
X139832582Y-94164153D01*
X139832580Y-94164153D01*
X139704354Y-94207805D01*
X139678431Y-94216630D01*
X139673721Y-94219528D01*
X139673716Y-94219530D01*
X139548460Y-94296589D01*
X139535022Y-94304856D01*
X139531072Y-94308724D01*
X139531066Y-94308729D01*
X139519944Y-94319620D01*
X139465140Y-94346824D01*
X139404811Y-94336619D01*
X139380433Y-94318647D01*
X139377139Y-94315330D01*
X139377137Y-94315329D01*
X139373242Y-94311406D01*
X139253742Y-94235569D01*
X139235749Y-94224150D01*
X139235745Y-94224148D01*
X139231079Y-94221187D01*
X139098914Y-94174125D01*
X139077672Y-94166561D01*
X139077670Y-94166561D01*
X139072462Y-94164706D01*
X139066973Y-94164051D01*
X139066971Y-94164051D01*
X138910769Y-94145424D01*
X138910766Y-94145424D01*
X138905273Y-94144769D01*
X138737821Y-94162369D01*
X138732582Y-94164153D01*
X138732580Y-94164153D01*
X138604354Y-94207805D01*
X138578431Y-94216630D01*
X138573721Y-94219528D01*
X138573716Y-94219530D01*
X138448460Y-94296589D01*
X138435022Y-94304856D01*
X138431073Y-94308723D01*
X138431072Y-94308724D01*
X138402587Y-94336619D01*
X138314724Y-94422661D01*
X138311726Y-94427313D01*
X138240277Y-94538181D01*
X138223515Y-94564190D01*
X138165927Y-94722409D01*
X138144825Y-94889455D01*
X133200000Y-94889455D01*
X133200000Y-93489455D01*
X151244825Y-93489455D01*
X151261255Y-93657025D01*
X151314402Y-93816791D01*
X151317267Y-93821522D01*
X151317269Y-93821526D01*
X151398755Y-93956075D01*
X151401624Y-93960812D01*
X151518586Y-94081929D01*
X151523221Y-94084962D01*
X151638074Y-94160121D01*
X151676413Y-94207805D01*
X151679401Y-94268917D01*
X151667081Y-94296589D01*
X151634707Y-94346824D01*
X151623515Y-94364190D01*
X151565927Y-94522409D01*
X151544825Y-94689455D01*
X151561255Y-94857025D01*
X151614402Y-95016791D01*
X151617267Y-95021522D01*
X151617269Y-95021526D01*
X151698755Y-95156075D01*
X151701624Y-95160812D01*
X151705472Y-95164797D01*
X151705473Y-95164798D01*
X151725431Y-95185465D01*
X151818586Y-95281929D01*
X151959475Y-95374125D01*
X151964662Y-95376054D01*
X152112096Y-95430884D01*
X152112098Y-95430884D01*
X152117289Y-95432815D01*
X152122781Y-95433548D01*
X152122782Y-95433548D01*
X152245156Y-95449876D01*
X152284183Y-95455083D01*
X152289689Y-95454582D01*
X152289691Y-95454582D01*
X152446353Y-95440325D01*
X152446357Y-95440324D01*
X152451864Y-95439823D01*
X152457125Y-95438114D01*
X152457128Y-95438113D01*
X152538055Y-95411818D01*
X152611997Y-95387793D01*
X152756623Y-95301578D01*
X152760632Y-95297760D01*
X152760635Y-95297758D01*
X152845658Y-95216791D01*
X152878554Y-95185465D01*
X152894934Y-95160812D01*
X152968668Y-95049833D01*
X152971731Y-95045223D01*
X153020068Y-94917974D01*
X153029556Y-94892997D01*
X153029557Y-94892994D01*
X153031521Y-94887823D01*
X153054955Y-94721088D01*
X153055249Y-94700000D01*
X153054684Y-94694958D01*
X153040599Y-94569389D01*
X153036481Y-94532676D01*
X152981108Y-94373668D01*
X152938110Y-94304856D01*
X152894815Y-94235569D01*
X152894813Y-94235567D01*
X152891884Y-94230879D01*
X152887989Y-94226956D01*
X152887986Y-94226953D01*
X152777144Y-94115335D01*
X152777142Y-94115334D01*
X152773242Y-94111406D01*
X152662796Y-94041315D01*
X152623795Y-93994170D01*
X152619953Y-93933106D01*
X152633384Y-93902940D01*
X152668668Y-93849833D01*
X152671731Y-93845223D01*
X152731521Y-93687823D01*
X152754955Y-93521088D01*
X152755249Y-93500000D01*
X152754684Y-93494958D01*
X152737098Y-93338181D01*
X152736481Y-93332676D01*
X152681108Y-93173668D01*
X152591884Y-93030879D01*
X152587989Y-93026956D01*
X152587986Y-93026953D01*
X152477144Y-92915335D01*
X152477142Y-92915334D01*
X152473242Y-92911406D01*
X152407380Y-92869609D01*
X152335749Y-92824150D01*
X152335745Y-92824148D01*
X152331079Y-92821187D01*
X152216728Y-92780468D01*
X152177672Y-92766561D01*
X152177670Y-92766561D01*
X152172462Y-92764706D01*
X152166973Y-92764051D01*
X152166971Y-92764051D01*
X152010769Y-92745424D01*
X152010766Y-92745424D01*
X152005273Y-92744769D01*
X151837821Y-92762369D01*
X151832582Y-92764153D01*
X151832580Y-92764153D01*
X151830956Y-92764706D01*
X151678431Y-92816630D01*
X151673721Y-92819528D01*
X151673716Y-92819530D01*
X151540215Y-92901661D01*
X151535022Y-92904856D01*
X151414724Y-93022661D01*
X151323515Y-93164190D01*
X151265927Y-93322409D01*
X151244825Y-93489455D01*
X133200000Y-93489455D01*
X133200000Y-91689455D01*
X140944825Y-91689455D01*
X140961255Y-91857025D01*
X141014402Y-92016791D01*
X141017267Y-92021522D01*
X141017269Y-92021526D01*
X141098755Y-92156075D01*
X141101624Y-92160812D01*
X141105472Y-92164797D01*
X141105473Y-92164798D01*
X141125431Y-92185465D01*
X141218586Y-92281929D01*
X141359475Y-92374125D01*
X141364662Y-92376054D01*
X141512096Y-92430884D01*
X141512098Y-92430884D01*
X141517289Y-92432815D01*
X141522781Y-92433548D01*
X141522782Y-92433548D01*
X141645156Y-92449876D01*
X141684183Y-92455083D01*
X141689689Y-92454582D01*
X141689691Y-92454582D01*
X141846353Y-92440325D01*
X141846357Y-92440324D01*
X141851864Y-92439823D01*
X141857125Y-92438114D01*
X141857128Y-92438113D01*
X141929433Y-92414619D01*
X142011997Y-92387793D01*
X142046965Y-92366948D01*
X142106630Y-92353392D01*
X142151863Y-92369143D01*
X142159475Y-92374125D01*
X142164662Y-92376054D01*
X142312096Y-92430884D01*
X142312098Y-92430884D01*
X142317289Y-92432815D01*
X142322781Y-92433548D01*
X142322782Y-92433548D01*
X142445156Y-92449876D01*
X142484183Y-92455083D01*
X142489689Y-92454582D01*
X142489691Y-92454582D01*
X142646353Y-92440325D01*
X142646357Y-92440324D01*
X142651864Y-92439823D01*
X142657125Y-92438114D01*
X142657128Y-92438113D01*
X142731930Y-92413808D01*
X142811997Y-92387793D01*
X142956623Y-92301578D01*
X142960632Y-92297760D01*
X142960635Y-92297758D01*
X143017589Y-92243521D01*
X143078554Y-92185465D01*
X143094934Y-92160812D01*
X143168668Y-92049833D01*
X143171731Y-92045223D01*
X143231521Y-91887823D01*
X143254955Y-91721088D01*
X143255249Y-91700000D01*
X143254684Y-91694958D01*
X143237098Y-91538181D01*
X143236481Y-91532676D01*
X143181108Y-91373668D01*
X143091884Y-91230879D01*
X143087989Y-91226956D01*
X143087986Y-91226953D01*
X142977144Y-91115335D01*
X142977142Y-91115334D01*
X142973242Y-91111406D01*
X142968569Y-91108441D01*
X142968566Y-91108438D01*
X142930576Y-91084329D01*
X142891574Y-91037185D01*
X142887732Y-90976120D01*
X142920517Y-90924460D01*
X142932928Y-90915704D01*
X142951864Y-90904415D01*
X142956623Y-90901578D01*
X142960632Y-90897760D01*
X142960635Y-90897758D01*
X143068356Y-90795176D01*
X143078554Y-90785465D01*
X143094934Y-90760812D01*
X143168668Y-90649833D01*
X143171731Y-90645223D01*
X143231521Y-90487823D01*
X143254955Y-90321088D01*
X143255249Y-90300000D01*
X143254684Y-90294958D01*
X143237098Y-90138181D01*
X143236481Y-90132676D01*
X143181108Y-89973668D01*
X143091884Y-89830879D01*
X143087989Y-89826956D01*
X143087986Y-89826953D01*
X142977144Y-89715335D01*
X142977142Y-89715334D01*
X142973242Y-89711406D01*
X142907380Y-89669609D01*
X142835749Y-89624150D01*
X142835745Y-89624148D01*
X142831079Y-89621187D01*
X142709639Y-89577944D01*
X142677672Y-89566561D01*
X142677670Y-89566561D01*
X142672462Y-89564706D01*
X142666973Y-89564051D01*
X142666971Y-89564051D01*
X142510769Y-89545424D01*
X142510766Y-89545424D01*
X142505273Y-89544769D01*
X142337821Y-89562369D01*
X142332582Y-89564153D01*
X142332580Y-89564153D01*
X142214318Y-89604413D01*
X142178431Y-89616630D01*
X142173721Y-89619528D01*
X142173716Y-89619530D01*
X142089901Y-89671094D01*
X142035022Y-89704856D01*
X141914724Y-89822661D01*
X141823515Y-89964190D01*
X141765927Y-90122409D01*
X141744825Y-90289455D01*
X141761255Y-90457025D01*
X141814402Y-90616791D01*
X141817267Y-90621522D01*
X141817269Y-90621526D01*
X141898755Y-90756075D01*
X141901624Y-90760812D01*
X141934811Y-90795178D01*
X141961632Y-90850169D01*
X141951007Y-90910425D01*
X141906994Y-90952928D01*
X141851872Y-90962250D01*
X141710778Y-90945424D01*
X141710765Y-90945424D01*
X141705273Y-90944769D01*
X141537821Y-90962369D01*
X141532582Y-90964153D01*
X141532580Y-90964153D01*
X141428206Y-90999685D01*
X141378431Y-91016630D01*
X141373721Y-91019528D01*
X141373716Y-91019530D01*
X141268388Y-91084329D01*
X141235022Y-91104856D01*
X141114724Y-91222661D01*
X141023515Y-91364190D01*
X140965927Y-91522409D01*
X140944825Y-91689455D01*
X133200000Y-91689455D01*
X133200000Y-88989455D01*
X151044825Y-88989455D01*
X151061255Y-89157025D01*
X151114402Y-89316791D01*
X151117267Y-89321522D01*
X151117269Y-89321526D01*
X151198755Y-89456075D01*
X151201624Y-89460812D01*
X151205472Y-89464797D01*
X151205473Y-89464798D01*
X151225431Y-89485465D01*
X151318586Y-89581929D01*
X151459475Y-89674125D01*
X151464662Y-89676054D01*
X151612096Y-89730884D01*
X151612098Y-89730884D01*
X151617289Y-89732815D01*
X151622781Y-89733548D01*
X151622782Y-89733548D01*
X151745157Y-89749876D01*
X151784183Y-89755083D01*
X151789689Y-89754582D01*
X151789691Y-89754582D01*
X151946353Y-89740325D01*
X151946357Y-89740324D01*
X151951864Y-89739823D01*
X151957125Y-89738114D01*
X151957128Y-89738113D01*
X152039323Y-89711406D01*
X152111997Y-89687793D01*
X152256623Y-89601578D01*
X152260632Y-89597760D01*
X152260635Y-89597758D01*
X152317589Y-89543521D01*
X152378554Y-89485465D01*
X152394934Y-89460812D01*
X152468668Y-89349833D01*
X152471731Y-89345223D01*
X152531521Y-89187823D01*
X152554955Y-89021088D01*
X152555249Y-89000000D01*
X152554684Y-88994958D01*
X152538912Y-88854351D01*
X152536481Y-88832676D01*
X152481108Y-88673668D01*
X152425993Y-88585465D01*
X152394815Y-88535569D01*
X152394813Y-88535567D01*
X152391884Y-88530879D01*
X152387989Y-88526956D01*
X152387986Y-88526953D01*
X152277144Y-88415335D01*
X152277142Y-88415334D01*
X152273242Y-88411406D01*
X152207380Y-88369609D01*
X152135749Y-88324150D01*
X152135745Y-88324148D01*
X152131079Y-88321187D01*
X152016728Y-88280468D01*
X151977672Y-88266561D01*
X151977670Y-88266561D01*
X151972462Y-88264706D01*
X151966973Y-88264051D01*
X151966971Y-88264051D01*
X151810769Y-88245424D01*
X151810766Y-88245424D01*
X151805273Y-88244769D01*
X151637821Y-88262369D01*
X151632582Y-88264153D01*
X151632580Y-88264153D01*
X151547852Y-88292997D01*
X151478431Y-88316630D01*
X151473721Y-88319528D01*
X151473716Y-88319530D01*
X151340215Y-88401661D01*
X151335022Y-88404856D01*
X151331073Y-88408723D01*
X151331072Y-88408724D01*
X151324321Y-88415335D01*
X151214724Y-88522661D01*
X151211726Y-88527313D01*
X151177223Y-88580852D01*
X151123515Y-88664190D01*
X151065927Y-88822409D01*
X151044825Y-88989455D01*
X133200000Y-88989455D01*
X133200000Y-88089455D01*
X142744825Y-88089455D01*
X142761255Y-88257025D01*
X142814402Y-88416791D01*
X142817267Y-88421522D01*
X142817269Y-88421526D01*
X142878519Y-88522661D01*
X142901624Y-88560812D01*
X142905472Y-88564797D01*
X142905473Y-88564798D01*
X142925431Y-88585465D01*
X143018586Y-88681929D01*
X143159475Y-88774125D01*
X143164662Y-88776054D01*
X143312096Y-88830884D01*
X143312098Y-88830884D01*
X143317289Y-88832815D01*
X143322781Y-88833548D01*
X143322782Y-88833548D01*
X143445156Y-88849876D01*
X143484183Y-88855083D01*
X143489689Y-88854582D01*
X143489691Y-88854582D01*
X143646353Y-88840325D01*
X143646357Y-88840324D01*
X143651864Y-88839823D01*
X143657125Y-88838114D01*
X143657128Y-88838113D01*
X143731930Y-88813808D01*
X143811997Y-88787793D01*
X143956623Y-88701578D01*
X143960632Y-88697760D01*
X143960635Y-88697758D01*
X144017589Y-88643521D01*
X144078554Y-88585465D01*
X144094934Y-88560812D01*
X144168668Y-88449833D01*
X144171731Y-88445223D01*
X144217722Y-88324150D01*
X144229556Y-88292997D01*
X144229557Y-88292994D01*
X144231521Y-88287823D01*
X144234510Y-88266561D01*
X144254521Y-88124173D01*
X144254955Y-88121088D01*
X144255249Y-88100000D01*
X144254684Y-88094958D01*
X144237098Y-87938181D01*
X144236481Y-87932676D01*
X144181108Y-87773668D01*
X144091884Y-87630879D01*
X144087989Y-87626956D01*
X144087986Y-87626953D01*
X143977144Y-87515335D01*
X143977142Y-87515334D01*
X143973242Y-87511406D01*
X143907380Y-87469609D01*
X143835749Y-87424150D01*
X143835745Y-87424148D01*
X143831079Y-87421187D01*
X143716728Y-87380468D01*
X143677672Y-87366561D01*
X143677670Y-87366561D01*
X143672462Y-87364706D01*
X143666973Y-87364051D01*
X143666971Y-87364051D01*
X143510769Y-87345424D01*
X143510766Y-87345424D01*
X143505273Y-87344769D01*
X143337821Y-87362369D01*
X143332582Y-87364153D01*
X143332580Y-87364153D01*
X143330956Y-87364706D01*
X143178431Y-87416630D01*
X143173721Y-87419528D01*
X143173716Y-87419530D01*
X143040215Y-87501661D01*
X143035022Y-87504856D01*
X142914724Y-87622661D01*
X142823515Y-87764190D01*
X142765927Y-87922409D01*
X142744825Y-88089455D01*
X133200000Y-88089455D01*
X133200000Y-85989455D01*
X143744825Y-85989455D01*
X143761255Y-86157025D01*
X143814402Y-86316791D01*
X143817267Y-86321522D01*
X143817269Y-86321526D01*
X143898755Y-86456075D01*
X143901624Y-86460812D01*
X143905472Y-86464797D01*
X143905473Y-86464798D01*
X143922051Y-86481965D01*
X144018586Y-86581929D01*
X144159475Y-86674125D01*
X144164662Y-86676054D01*
X144312096Y-86730884D01*
X144312098Y-86730884D01*
X144317289Y-86732815D01*
X144322781Y-86733548D01*
X144322782Y-86733548D01*
X144445156Y-86749876D01*
X144484183Y-86755083D01*
X144489689Y-86754582D01*
X144489691Y-86754582D01*
X144646353Y-86740325D01*
X144646357Y-86740324D01*
X144651864Y-86739823D01*
X144657125Y-86738114D01*
X144657128Y-86738113D01*
X144731930Y-86713808D01*
X144811997Y-86687793D01*
X144956623Y-86601578D01*
X144960632Y-86597760D01*
X144960635Y-86597758D01*
X145017589Y-86543521D01*
X145078554Y-86485465D01*
X145094934Y-86460812D01*
X145169047Y-86349262D01*
X145216997Y-86311257D01*
X145278129Y-86308695D01*
X145329092Y-86342554D01*
X145336187Y-86352763D01*
X145398755Y-86456075D01*
X145401624Y-86460812D01*
X145405472Y-86464797D01*
X145405473Y-86464798D01*
X145422051Y-86481965D01*
X145518586Y-86581929D01*
X145659475Y-86674125D01*
X145664662Y-86676054D01*
X145812096Y-86730884D01*
X145812098Y-86730884D01*
X145817289Y-86732815D01*
X145822781Y-86733548D01*
X145822782Y-86733548D01*
X145945156Y-86749876D01*
X145984183Y-86755083D01*
X145989689Y-86754582D01*
X145989691Y-86754582D01*
X146146353Y-86740325D01*
X146146357Y-86740324D01*
X146151864Y-86739823D01*
X146157125Y-86738114D01*
X146157128Y-86738113D01*
X146231930Y-86713808D01*
X146311997Y-86687793D01*
X146451624Y-86604558D01*
X146511289Y-86591002D01*
X146556524Y-86606755D01*
X146659475Y-86674125D01*
X146664662Y-86676054D01*
X146812096Y-86730884D01*
X146812098Y-86730884D01*
X146817289Y-86732815D01*
X146822781Y-86733548D01*
X146822782Y-86733548D01*
X146945156Y-86749876D01*
X146984183Y-86755083D01*
X146989689Y-86754582D01*
X146989691Y-86754582D01*
X147146353Y-86740325D01*
X147146357Y-86740324D01*
X147151864Y-86739823D01*
X147157125Y-86738114D01*
X147157128Y-86738113D01*
X147231930Y-86713808D01*
X147311997Y-86687793D01*
X147451624Y-86604558D01*
X147511289Y-86591002D01*
X147556524Y-86606755D01*
X147659475Y-86674125D01*
X147664662Y-86676054D01*
X147812096Y-86730884D01*
X147812098Y-86730884D01*
X147817289Y-86732815D01*
X147822781Y-86733548D01*
X147822782Y-86733548D01*
X147945156Y-86749876D01*
X147984183Y-86755083D01*
X147989689Y-86754582D01*
X147989691Y-86754582D01*
X148146353Y-86740325D01*
X148146357Y-86740324D01*
X148151864Y-86739823D01*
X148157125Y-86738114D01*
X148157128Y-86738113D01*
X148231930Y-86713808D01*
X148311997Y-86687793D01*
X148456623Y-86601578D01*
X148460632Y-86597760D01*
X148460635Y-86597758D01*
X148517589Y-86543521D01*
X148578554Y-86485465D01*
X148594934Y-86460812D01*
X148668668Y-86349833D01*
X148671731Y-86345223D01*
X148731521Y-86187823D01*
X148736342Y-86153525D01*
X148754521Y-86024173D01*
X148754955Y-86021088D01*
X148755249Y-86000000D01*
X148754857Y-85996500D01*
X148753674Y-85985955D01*
X150947296Y-85985955D01*
X150963726Y-86153525D01*
X151016873Y-86313291D01*
X151019738Y-86318022D01*
X151019740Y-86318026D01*
X151040778Y-86352763D01*
X151104095Y-86457312D01*
X151107943Y-86461297D01*
X151107944Y-86461298D01*
X151126827Y-86480852D01*
X151221057Y-86578429D01*
X151361946Y-86670625D01*
X151367133Y-86672554D01*
X151514567Y-86727384D01*
X151514569Y-86727384D01*
X151519760Y-86729315D01*
X151525252Y-86730048D01*
X151525253Y-86730048D01*
X151647627Y-86746376D01*
X151686654Y-86751583D01*
X151692160Y-86751082D01*
X151692162Y-86751082D01*
X151848824Y-86736825D01*
X151848828Y-86736824D01*
X151854335Y-86736323D01*
X151859596Y-86734614D01*
X151859599Y-86734613D01*
X151934402Y-86710308D01*
X152014468Y-86684293D01*
X152159094Y-86598078D01*
X152163103Y-86594260D01*
X152163106Y-86594258D01*
X152273338Y-86489285D01*
X152281025Y-86481965D01*
X152297405Y-86457312D01*
X152371139Y-86346333D01*
X152374202Y-86341723D01*
X152433992Y-86184323D01*
X152437091Y-86162279D01*
X152452794Y-86050546D01*
X152457426Y-86017588D01*
X152457628Y-86003117D01*
X152457677Y-85999617D01*
X152457677Y-85999610D01*
X152457720Y-85996500D01*
X152457155Y-85991458D01*
X152439569Y-85834681D01*
X152438952Y-85829176D01*
X152383579Y-85670168D01*
X152294355Y-85527379D01*
X152290460Y-85523456D01*
X152290457Y-85523453D01*
X152179615Y-85411835D01*
X152179613Y-85411834D01*
X152175713Y-85407906D01*
X152109851Y-85366109D01*
X152038220Y-85320650D01*
X152038216Y-85320648D01*
X152033550Y-85317687D01*
X151889972Y-85266561D01*
X151880143Y-85263061D01*
X151880141Y-85263061D01*
X151874933Y-85261206D01*
X151869444Y-85260551D01*
X151869442Y-85260551D01*
X151713240Y-85241924D01*
X151713237Y-85241924D01*
X151707744Y-85241269D01*
X151540292Y-85258869D01*
X151535053Y-85260653D01*
X151535051Y-85260653D01*
X151386145Y-85311345D01*
X151380902Y-85313130D01*
X151376192Y-85316028D01*
X151376187Y-85316030D01*
X151249073Y-85394232D01*
X151237493Y-85401356D01*
X151233544Y-85405223D01*
X151233543Y-85405224D01*
X151161600Y-85475676D01*
X151117195Y-85519161D01*
X151025986Y-85660690D01*
X150968398Y-85818909D01*
X150947296Y-85985955D01*
X148753674Y-85985955D01*
X148737098Y-85838181D01*
X148736481Y-85832676D01*
X148681108Y-85673668D01*
X148591884Y-85530879D01*
X148587989Y-85526956D01*
X148587986Y-85526953D01*
X148477144Y-85415335D01*
X148477142Y-85415334D01*
X148473242Y-85411406D01*
X148407380Y-85369609D01*
X148335749Y-85324150D01*
X148335745Y-85324148D01*
X148331079Y-85321187D01*
X148216728Y-85280468D01*
X148177672Y-85266561D01*
X148177670Y-85266561D01*
X148172462Y-85264706D01*
X148166973Y-85264051D01*
X148166971Y-85264051D01*
X148010769Y-85245424D01*
X148010766Y-85245424D01*
X148005273Y-85244769D01*
X147837821Y-85262369D01*
X147832582Y-85264153D01*
X147832580Y-85264153D01*
X147688712Y-85313130D01*
X147678431Y-85316630D01*
X147673718Y-85319530D01*
X147673717Y-85319530D01*
X147671024Y-85321187D01*
X147551101Y-85394964D01*
X147491632Y-85409351D01*
X147446180Y-85394232D01*
X147335749Y-85324150D01*
X147335745Y-85324148D01*
X147331079Y-85321187D01*
X147216728Y-85280468D01*
X147177672Y-85266561D01*
X147177670Y-85266561D01*
X147172462Y-85264706D01*
X147166973Y-85264051D01*
X147166971Y-85264051D01*
X147010769Y-85245424D01*
X147010766Y-85245424D01*
X147005273Y-85244769D01*
X146837821Y-85262369D01*
X146832582Y-85264153D01*
X146832580Y-85264153D01*
X146688712Y-85313130D01*
X146678431Y-85316630D01*
X146673718Y-85319530D01*
X146673717Y-85319530D01*
X146671024Y-85321187D01*
X146551101Y-85394964D01*
X146491632Y-85409351D01*
X146446180Y-85394232D01*
X146335749Y-85324150D01*
X146335745Y-85324148D01*
X146331079Y-85321187D01*
X146216728Y-85280468D01*
X146177672Y-85266561D01*
X146177670Y-85266561D01*
X146172462Y-85264706D01*
X146166973Y-85264051D01*
X146166971Y-85264051D01*
X146010769Y-85245424D01*
X146010766Y-85245424D01*
X146005273Y-85244769D01*
X145837821Y-85262369D01*
X145832582Y-85264153D01*
X145832580Y-85264153D01*
X145688712Y-85313130D01*
X145678431Y-85316630D01*
X145673721Y-85319528D01*
X145673716Y-85319530D01*
X145552291Y-85394232D01*
X145535022Y-85404856D01*
X145414724Y-85522661D01*
X145411726Y-85527313D01*
X145332712Y-85649919D01*
X145285297Y-85688590D01*
X145224207Y-85692006D01*
X145172777Y-85658861D01*
X145165539Y-85648752D01*
X145094815Y-85535569D01*
X145094813Y-85535567D01*
X145091884Y-85530879D01*
X145087989Y-85526956D01*
X145087986Y-85526953D01*
X144977144Y-85415335D01*
X144977142Y-85415334D01*
X144973242Y-85411406D01*
X144907380Y-85369609D01*
X144835749Y-85324150D01*
X144835745Y-85324148D01*
X144831079Y-85321187D01*
X144716728Y-85280468D01*
X144677672Y-85266561D01*
X144677670Y-85266561D01*
X144672462Y-85264706D01*
X144666973Y-85264051D01*
X144666971Y-85264051D01*
X144510769Y-85245424D01*
X144510766Y-85245424D01*
X144505273Y-85244769D01*
X144337821Y-85262369D01*
X144332582Y-85264153D01*
X144332580Y-85264153D01*
X144188712Y-85313130D01*
X144178431Y-85316630D01*
X144173721Y-85319528D01*
X144173716Y-85319530D01*
X144052291Y-85394232D01*
X144035022Y-85404856D01*
X143914724Y-85522661D01*
X143823515Y-85664190D01*
X143765927Y-85822409D01*
X143744825Y-85989455D01*
X133200000Y-85989455D01*
X133200000Y-84489455D01*
X149244825Y-84489455D01*
X149261255Y-84657025D01*
X149314402Y-84816791D01*
X149317267Y-84821522D01*
X149317269Y-84821526D01*
X149398755Y-84956075D01*
X149401624Y-84960812D01*
X149405472Y-84964797D01*
X149405473Y-84964798D01*
X149425431Y-84985465D01*
X149518586Y-85081929D01*
X149659475Y-85174125D01*
X149664662Y-85176054D01*
X149812096Y-85230884D01*
X149812098Y-85230884D01*
X149817289Y-85232815D01*
X149822781Y-85233548D01*
X149822782Y-85233548D01*
X149880650Y-85241269D01*
X149984183Y-85255083D01*
X149989689Y-85254582D01*
X149989691Y-85254582D01*
X150146353Y-85240325D01*
X150146357Y-85240324D01*
X150151864Y-85239823D01*
X150157125Y-85238114D01*
X150157128Y-85238113D01*
X150231931Y-85213808D01*
X150311997Y-85187793D01*
X150456623Y-85101578D01*
X150460632Y-85097760D01*
X150460635Y-85097758D01*
X150517589Y-85043521D01*
X150578554Y-84985465D01*
X150594934Y-84960812D01*
X150668668Y-84849833D01*
X150671731Y-84845223D01*
X150731521Y-84687823D01*
X150754955Y-84521088D01*
X150755249Y-84500000D01*
X150754684Y-84494958D01*
X150737098Y-84338181D01*
X150736481Y-84332676D01*
X150681108Y-84173668D01*
X150591884Y-84030879D01*
X150587989Y-84026956D01*
X150587986Y-84026953D01*
X150477144Y-83915335D01*
X150477142Y-83915334D01*
X150473242Y-83911406D01*
X150384491Y-83855083D01*
X150335749Y-83824150D01*
X150335745Y-83824148D01*
X150331079Y-83821187D01*
X150190402Y-83771094D01*
X150177672Y-83766561D01*
X150177670Y-83766561D01*
X150172462Y-83764706D01*
X150166973Y-83764051D01*
X150166971Y-83764051D01*
X150010769Y-83745424D01*
X150010766Y-83745424D01*
X150005273Y-83744769D01*
X149837821Y-83762369D01*
X149832582Y-83764153D01*
X149832580Y-83764153D01*
X149683674Y-83814845D01*
X149678431Y-83816630D01*
X149673721Y-83819528D01*
X149673716Y-83819530D01*
X149540215Y-83901661D01*
X149535022Y-83904856D01*
X149414724Y-84022661D01*
X149323515Y-84164190D01*
X149265927Y-84322409D01*
X149244825Y-84489455D01*
X133200000Y-84489455D01*
X133200000Y-83352864D01*
X133218907Y-83294673D01*
X133268407Y-83258709D01*
X133329593Y-83258709D01*
X133353205Y-83270022D01*
X133359475Y-83274125D01*
X133364662Y-83276054D01*
X133512096Y-83330884D01*
X133512098Y-83330884D01*
X133517289Y-83332815D01*
X133522781Y-83333548D01*
X133522782Y-83333548D01*
X133588317Y-83342292D01*
X133684183Y-83355083D01*
X133689689Y-83354582D01*
X133689691Y-83354582D01*
X133846353Y-83340325D01*
X133846357Y-83340324D01*
X133851864Y-83339823D01*
X133857125Y-83338114D01*
X133857128Y-83338113D01*
X133938914Y-83311539D01*
X134011997Y-83287793D01*
X134156623Y-83201578D01*
X134160632Y-83197760D01*
X134160635Y-83197758D01*
X134217588Y-83143522D01*
X134278554Y-83085465D01*
X134294934Y-83060812D01*
X134368668Y-82949833D01*
X134371731Y-82945223D01*
X134409717Y-82845223D01*
X134429556Y-82792997D01*
X134429557Y-82792994D01*
X134431521Y-82787823D01*
X134443149Y-82705093D01*
X134449385Y-82660721D01*
X134476207Y-82605728D01*
X134530231Y-82577004D01*
X134547421Y-82575500D01*
X136763539Y-82575500D01*
X136821730Y-82594407D01*
X136857694Y-82643907D01*
X136857694Y-82705093D01*
X136846758Y-82728124D01*
X136823515Y-82764190D01*
X136765927Y-82922409D01*
X136744825Y-83089455D01*
X136761255Y-83257025D01*
X136814402Y-83416791D01*
X136817267Y-83421522D01*
X136817269Y-83421526D01*
X136898755Y-83556075D01*
X136901624Y-83560812D01*
X136905472Y-83564797D01*
X136905473Y-83564798D01*
X136940991Y-83601578D01*
X137018586Y-83681929D01*
X137023221Y-83684962D01*
X137115500Y-83745348D01*
X137159475Y-83774125D01*
X137164662Y-83776054D01*
X137312096Y-83830884D01*
X137312098Y-83830884D01*
X137317289Y-83832815D01*
X137322781Y-83833548D01*
X137322782Y-83833548D01*
X137445156Y-83849876D01*
X137484183Y-83855083D01*
X137489689Y-83854582D01*
X137489691Y-83854582D01*
X137646353Y-83840325D01*
X137646357Y-83840324D01*
X137651864Y-83839823D01*
X137657125Y-83838114D01*
X137657128Y-83838113D01*
X137731930Y-83813808D01*
X137811997Y-83787793D01*
X137956623Y-83701578D01*
X137960632Y-83697760D01*
X137960635Y-83697758D01*
X138030859Y-83630884D01*
X138078554Y-83585465D01*
X138092285Y-83564798D01*
X138168668Y-83449834D01*
X138168670Y-83449830D01*
X138171731Y-83445223D01*
X138173697Y-83440048D01*
X138175726Y-83436099D01*
X138219141Y-83392985D01*
X138279605Y-83383623D01*
X138298287Y-83388559D01*
X138412096Y-83430884D01*
X138412098Y-83430884D01*
X138417289Y-83432815D01*
X138422781Y-83433548D01*
X138422782Y-83433548D01*
X138510284Y-83445223D01*
X138584183Y-83455083D01*
X138589689Y-83454582D01*
X138589691Y-83454582D01*
X138746353Y-83440325D01*
X138746357Y-83440324D01*
X138751864Y-83439823D01*
X138757125Y-83438114D01*
X138757128Y-83438113D01*
X138838914Y-83411539D01*
X138911997Y-83387793D01*
X139056623Y-83301578D01*
X139060632Y-83297760D01*
X139060635Y-83297758D01*
X139106831Y-83253766D01*
X139136962Y-83225073D01*
X139192140Y-83198636D01*
X139239739Y-83203975D01*
X139317289Y-83232815D01*
X139322781Y-83233548D01*
X139322782Y-83233548D01*
X139410284Y-83245223D01*
X139484183Y-83255083D01*
X139489689Y-83254582D01*
X139489691Y-83254582D01*
X139646353Y-83240325D01*
X139646357Y-83240324D01*
X139651864Y-83239823D01*
X139657125Y-83238114D01*
X139657128Y-83238113D01*
X139738914Y-83211539D01*
X139811997Y-83187793D01*
X139956623Y-83101578D01*
X139960632Y-83097760D01*
X139960635Y-83097758D01*
X140044416Y-83017974D01*
X140078554Y-82985465D01*
X140108729Y-82940049D01*
X140168668Y-82849833D01*
X140171731Y-82845223D01*
X140231521Y-82687823D01*
X140233511Y-82673668D01*
X140247096Y-82577004D01*
X140254955Y-82521088D01*
X140255249Y-82500000D01*
X140236481Y-82332676D01*
X140181108Y-82173668D01*
X140167232Y-82151461D01*
X140152430Y-82092095D01*
X140175350Y-82035364D01*
X140227238Y-82002941D01*
X140251189Y-82000000D01*
X141174402Y-82000000D01*
X141232593Y-82018907D01*
G37*
%TD.AperFunction*%
%TD*%
%TA.AperFunction,Conductor*%
%TO.N,/Driver/PhaseA*%
G36*
X114006434Y-122000847D02*
G01*
X114116487Y-122015336D01*
X114141451Y-122022025D01*
X114237957Y-122061999D01*
X114260339Y-122074921D01*
X114343213Y-122138513D01*
X114361487Y-122156787D01*
X114425079Y-122239661D01*
X114438001Y-122262043D01*
X114477975Y-122358549D01*
X114484664Y-122383513D01*
X114499153Y-122493566D01*
X114500000Y-122506488D01*
X114500000Y-138493512D01*
X114499153Y-138506434D01*
X114484664Y-138616487D01*
X114477975Y-138641451D01*
X114438001Y-138737957D01*
X114425079Y-138760339D01*
X114361487Y-138843213D01*
X114343213Y-138861487D01*
X114260339Y-138925079D01*
X114237957Y-138938001D01*
X114141451Y-138977975D01*
X114116487Y-138984664D01*
X114006434Y-138999153D01*
X113993512Y-139000000D01*
X102506488Y-139000000D01*
X102493566Y-138999153D01*
X102383513Y-138984664D01*
X102358549Y-138977975D01*
X102262043Y-138938001D01*
X102239661Y-138925079D01*
X102156787Y-138861487D01*
X102138513Y-138843213D01*
X102074921Y-138760339D01*
X102061999Y-138737957D01*
X102022025Y-138641451D01*
X102015336Y-138616487D01*
X102000847Y-138506434D01*
X102000000Y-138493512D01*
X102000000Y-133632200D01*
X105398747Y-133632200D01*
X105436129Y-133916149D01*
X105437020Y-133919406D01*
X105437021Y-133919411D01*
X105442035Y-133937739D01*
X105511702Y-134192398D01*
X105624068Y-134455835D01*
X105771146Y-134701585D01*
X105773252Y-134704214D01*
X105773255Y-134704218D01*
X105860681Y-134813343D01*
X105950215Y-134925100D01*
X106157962Y-135122245D01*
X106160701Y-135124213D01*
X106160702Y-135124214D01*
X106177395Y-135136209D01*
X106390543Y-135289371D01*
X106643653Y-135423386D01*
X106646822Y-135424546D01*
X106646825Y-135424547D01*
X106670941Y-135433372D01*
X106912610Y-135521810D01*
X107052523Y-135552316D01*
X107189151Y-135582106D01*
X107189155Y-135582107D01*
X107192436Y-135582822D01*
X107417053Y-135600500D01*
X107571992Y-135600500D01*
X107785737Y-135585928D01*
X107913774Y-135559413D01*
X108062890Y-135528533D01*
X108062896Y-135528531D01*
X108066186Y-135527850D01*
X108069352Y-135526729D01*
X108069355Y-135526728D01*
X108169911Y-135491119D01*
X108336158Y-135432248D01*
X108339151Y-135430703D01*
X108339156Y-135430701D01*
X108587654Y-135302442D01*
X108587660Y-135302438D01*
X108590658Y-135300891D01*
X108604803Y-135290950D01*
X108822228Y-135138141D01*
X108822234Y-135138136D01*
X108824976Y-135136209D01*
X109034776Y-134941251D01*
X109036910Y-134938644D01*
X109214039Y-134722236D01*
X109214044Y-134722229D01*
X109216177Y-134719623D01*
X109365820Y-134475427D01*
X109367173Y-134472345D01*
X109479585Y-134216265D01*
X109479587Y-134216261D01*
X109480938Y-134213182D01*
X109559400Y-133937739D01*
X109599754Y-133654196D01*
X109601253Y-133367800D01*
X109563871Y-133083851D01*
X109558881Y-133065608D01*
X109489189Y-132810858D01*
X109489188Y-132810855D01*
X109488298Y-132807602D01*
X109375932Y-132544165D01*
X109228854Y-132298415D01*
X109212310Y-132277764D01*
X109051894Y-132077533D01*
X109049785Y-132074900D01*
X108842038Y-131877755D01*
X108825791Y-131866080D01*
X108798307Y-131846331D01*
X108609457Y-131710629D01*
X108356347Y-131576614D01*
X108353178Y-131575454D01*
X108353175Y-131575453D01*
X108274959Y-131546830D01*
X108087390Y-131478190D01*
X107947477Y-131447684D01*
X107810849Y-131417894D01*
X107810845Y-131417893D01*
X107807564Y-131417178D01*
X107582947Y-131399500D01*
X107428008Y-131399500D01*
X107214263Y-131414072D01*
X107086226Y-131440587D01*
X106937110Y-131471467D01*
X106937104Y-131471469D01*
X106933814Y-131472150D01*
X106930648Y-131473271D01*
X106930645Y-131473272D01*
X106913487Y-131479348D01*
X106663842Y-131567752D01*
X106660849Y-131569297D01*
X106660844Y-131569299D01*
X106412346Y-131697558D01*
X106412340Y-131697562D01*
X106409342Y-131699109D01*
X106406582Y-131701049D01*
X106406580Y-131701050D01*
X106177772Y-131861859D01*
X106177766Y-131861864D01*
X106175024Y-131863791D01*
X105965224Y-132058749D01*
X105963091Y-132061354D01*
X105963090Y-132061356D01*
X105785961Y-132277764D01*
X105785956Y-132277771D01*
X105783823Y-132280377D01*
X105634180Y-132524573D01*
X105632828Y-132527654D01*
X105632827Y-132527655D01*
X105626854Y-132541263D01*
X105519062Y-132786818D01*
X105440600Y-133062261D01*
X105400246Y-133345804D01*
X105398747Y-133632200D01*
X102000000Y-133632200D01*
X102000000Y-128506488D01*
X102000847Y-128493566D01*
X102015336Y-128383513D01*
X102022025Y-128358549D01*
X102061999Y-128262043D01*
X102074921Y-128239661D01*
X102138513Y-128156787D01*
X102156787Y-128138513D01*
X102239661Y-128074921D01*
X102262043Y-128061999D01*
X102358549Y-128022025D01*
X102383513Y-128015336D01*
X102493566Y-128000847D01*
X102506488Y-128000000D01*
X110500000Y-128000000D01*
X110500000Y-122506488D01*
X110500847Y-122493566D01*
X110515336Y-122383513D01*
X110522025Y-122358549D01*
X110561999Y-122262043D01*
X110574921Y-122239661D01*
X110638513Y-122156787D01*
X110656787Y-122138513D01*
X110739661Y-122074921D01*
X110762043Y-122061999D01*
X110858549Y-122022025D01*
X110883513Y-122015336D01*
X110993566Y-122000847D01*
X111006488Y-122000000D01*
X113993512Y-122000000D01*
X114006434Y-122000847D01*
G37*
%TD.AperFunction*%
%TD*%
M02*
