%TF.GenerationSoftware,KiCad,Pcbnew,(6.0.4)*%
%TF.CreationDate,2022-07-11T23:15:34+12:00*%
%TF.ProjectId,bldc_hardware_riscv,626c6463-5f68-4617-9264-776172655f72,rev?*%
%TF.SameCoordinates,Original*%
%TF.FileFunction,Soldermask,Bot*%
%TF.FilePolarity,Negative*%
%FSLAX46Y46*%
G04 Gerber Fmt 4.6, Leading zero omitted, Abs format (unit mm)*
G04 Created by KiCad (PCBNEW (6.0.4)) date 2022-07-11 23:15:34*
%MOMM*%
%LPD*%
G01*
G04 APERTURE LIST*
G04 Aperture macros list*
%AMRoundRect*
0 Rectangle with rounded corners*
0 $1 Rounding radius*
0 $2 $3 $4 $5 $6 $7 $8 $9 X,Y pos of 4 corners*
0 Add a 4 corners polygon primitive as box body*
4,1,4,$2,$3,$4,$5,$6,$7,$8,$9,$2,$3,0*
0 Add four circle primitives for the rounded corners*
1,1,$1+$1,$2,$3*
1,1,$1+$1,$4,$5*
1,1,$1+$1,$6,$7*
1,1,$1+$1,$8,$9*
0 Add four rect primitives between the rounded corners*
20,1,$1+$1,$2,$3,$4,$5,0*
20,1,$1+$1,$4,$5,$6,$7,0*
20,1,$1+$1,$6,$7,$8,$9,0*
20,1,$1+$1,$8,$9,$2,$3,0*%
G04 Aperture macros list end*
%ADD10R,1.905000X2.000000*%
%ADD11O,1.905000X2.000000*%
%ADD12R,1.600000X1.600000*%
%ADD13C,1.600000*%
%ADD14RoundRect,0.250000X0.350000X0.625000X-0.350000X0.625000X-0.350000X-0.625000X0.350000X-0.625000X0*%
%ADD15O,1.200000X1.750000*%
%ADD16RoundRect,0.250000X-0.350000X-0.625000X0.350000X-0.625000X0.350000X0.625000X-0.350000X0.625000X0*%
%ADD17R,2.400000X2.400000*%
%ADD18C,2.400000*%
%ADD19C,3.200000*%
%ADD20RoundRect,0.250000X-0.362500X-1.425000X0.362500X-1.425000X0.362500X1.425000X-0.362500X1.425000X0*%
%ADD21R,1.500000X0.450000*%
%ADD22O,1.100000X2.200000*%
%ADD23O,1.100000X1.800000*%
%ADD24R,1.700000X1.700000*%
%ADD25O,1.700000X1.700000*%
G04 APERTURE END LIST*
D10*
%TO.C,Q2*%
X99500000Y-119000000D03*
D11*
X96960000Y-119000000D03*
X94420000Y-119000000D03*
%TD*%
D10*
%TO.C,Q5*%
X155540000Y-119000000D03*
D11*
X153000000Y-119000000D03*
X150460000Y-119000000D03*
%TD*%
D10*
%TO.C,Q6*%
X144540000Y-119000000D03*
D11*
X142000000Y-119000000D03*
X139460000Y-119000000D03*
%TD*%
D10*
%TO.C,Q1*%
X110500000Y-119000000D03*
D11*
X107960000Y-119000000D03*
X105420000Y-119000000D03*
%TD*%
D10*
%TO.C,Q4*%
X122000000Y-119000000D03*
D11*
X119460000Y-119000000D03*
X116920000Y-119000000D03*
%TD*%
D10*
%TO.C,Q3*%
X133000000Y-119000000D03*
D11*
X130460000Y-119000000D03*
X127920000Y-119000000D03*
%TD*%
D12*
%TO.C,C17*%
X100000000Y-84500000D03*
D13*
X100000000Y-87000000D03*
%TD*%
D14*
%TO.C,J3*%
X115600000Y-95350000D03*
D15*
X113600000Y-95350000D03*
X111600000Y-95350000D03*
X109600000Y-95350000D03*
X107600000Y-95350000D03*
X105600000Y-95350000D03*
%TD*%
D16*
%TO.C,J2*%
X113500000Y-83550000D03*
D15*
X115500000Y-83550000D03*
X117500000Y-83550000D03*
X119500000Y-83550000D03*
X121500000Y-83550000D03*
X123500000Y-83550000D03*
%TD*%
D17*
%TO.C,C101*%
X102000000Y-110500000D03*
D18*
X97000000Y-110500000D03*
%TD*%
D17*
%TO.C,C102*%
X133000000Y-110500000D03*
D18*
X128000000Y-110500000D03*
%TD*%
D19*
%TO.C,X3*%
X107500000Y-133500000D03*
X104565000Y-130565000D03*
X110435000Y-130565000D03*
X110435000Y-136435000D03*
X104565000Y-136435000D03*
%TD*%
%TO.C,X4*%
X130500000Y-133500000D03*
X127565000Y-130565000D03*
X133435000Y-136435000D03*
X133435000Y-130565000D03*
X127565000Y-136435000D03*
%TD*%
D20*
%TO.C,R102*%
X129537500Y-125500000D03*
X135462500Y-125500000D03*
%TD*%
D21*
%TO.C,J1*%
X156437500Y-100200000D03*
X156437500Y-100850000D03*
X156437500Y-101500000D03*
X156437500Y-102150000D03*
X156437500Y-102800000D03*
D22*
X158337500Y-101500000D03*
D23*
X156187500Y-98700000D03*
X156187500Y-104300000D03*
%TD*%
D20*
%TO.C,R103*%
X152537500Y-125500000D03*
X158462500Y-125500000D03*
%TD*%
D19*
%TO.C,X1*%
X89935000Y-114435000D03*
X89935000Y-108565000D03*
X84065000Y-108565000D03*
X84065000Y-114435000D03*
X87000000Y-111500000D03*
%TD*%
D12*
%TO.C,C5*%
X94000000Y-95000000D03*
D13*
X96500000Y-95000000D03*
%TD*%
D17*
%TO.C,C103*%
X144376041Y-111000000D03*
D18*
X149376041Y-111000000D03*
%TD*%
D24*
%TO.C,J4*%
X143240000Y-102900000D03*
D25*
X140700000Y-102900000D03*
X138160000Y-102900000D03*
X135620000Y-102900000D03*
%TD*%
D19*
%TO.C,X5*%
X153500000Y-133500000D03*
X156435000Y-136435000D03*
X150565000Y-130565000D03*
X156435000Y-130565000D03*
X150565000Y-136435000D03*
%TD*%
D20*
%TO.C,R101*%
X106537500Y-125500000D03*
X112462500Y-125500000D03*
%TD*%
D19*
%TO.C,X2*%
X87000000Y-134000000D03*
X84065000Y-131065000D03*
X89935000Y-131065000D03*
X84065000Y-136935000D03*
X89935000Y-136935000D03*
%TD*%
M02*
