%TF.GenerationSoftware,KiCad,Pcbnew,(6.99.0-2501-g45393f228a)*%
%TF.CreationDate,2022-07-20T10:28:40+12:00*%
%TF.ProjectId,bldc_hardware_riscv,626c6463-5f68-4617-9264-776172655f72,rev?*%
%TF.SameCoordinates,Original*%
%TF.FileFunction,Copper,L4,Bot*%
%TF.FilePolarity,Positive*%
%FSLAX46Y46*%
G04 Gerber Fmt 4.6, Leading zero omitted, Abs format (unit mm)*
G04 Created by KiCad (PCBNEW (6.99.0-2501-g45393f228a)) date 2022-07-20 10:28:40*
%MOMM*%
%LPD*%
G01*
G04 APERTURE LIST*
G04 Aperture macros list*
%AMRoundRect*
0 Rectangle with rounded corners*
0 $1 Rounding radius*
0 $2 $3 $4 $5 $6 $7 $8 $9 X,Y pos of 4 corners*
0 Add a 4 corners polygon primitive as box body*
4,1,4,$2,$3,$4,$5,$6,$7,$8,$9,$2,$3,0*
0 Add four circle primitives for the rounded corners*
1,1,$1+$1,$2,$3*
1,1,$1+$1,$4,$5*
1,1,$1+$1,$6,$7*
1,1,$1+$1,$8,$9*
0 Add four rect primitives between the rounded corners*
20,1,$1+$1,$2,$3,$4,$5,0*
20,1,$1+$1,$4,$5,$6,$7,0*
20,1,$1+$1,$6,$7,$8,$9,0*
20,1,$1+$1,$8,$9,$2,$3,0*%
G04 Aperture macros list end*
%TA.AperFunction,ComponentPad*%
%ADD10R,1.905000X2.000000*%
%TD*%
%TA.AperFunction,ComponentPad*%
%ADD11O,1.905000X2.000000*%
%TD*%
%TA.AperFunction,ComponentPad*%
%ADD12R,1.600000X1.600000*%
%TD*%
%TA.AperFunction,ComponentPad*%
%ADD13C,1.600000*%
%TD*%
%TA.AperFunction,ComponentPad*%
%ADD14RoundRect,0.250000X0.350000X0.625000X-0.350000X0.625000X-0.350000X-0.625000X0.350000X-0.625000X0*%
%TD*%
%TA.AperFunction,ComponentPad*%
%ADD15O,1.200000X1.750000*%
%TD*%
%TA.AperFunction,ComponentPad*%
%ADD16RoundRect,0.250000X-0.350000X-0.625000X0.350000X-0.625000X0.350000X0.625000X-0.350000X0.625000X0*%
%TD*%
%TA.AperFunction,ComponentPad*%
%ADD17R,2.400000X2.400000*%
%TD*%
%TA.AperFunction,ComponentPad*%
%ADD18C,2.400000*%
%TD*%
%TA.AperFunction,ComponentPad*%
%ADD19C,3.200000*%
%TD*%
%TA.AperFunction,SMDPad,CuDef*%
%ADD20RoundRect,0.250000X-0.362500X-1.425000X0.362500X-1.425000X0.362500X1.425000X-0.362500X1.425000X0*%
%TD*%
%TA.AperFunction,SMDPad,CuDef*%
%ADD21R,0.900000X1.700000*%
%TD*%
%TA.AperFunction,SMDPad,CuDef*%
%ADD22R,1.500000X0.450000*%
%TD*%
%TA.AperFunction,ComponentPad*%
%ADD23O,1.100000X2.200000*%
%TD*%
%TA.AperFunction,ComponentPad*%
%ADD24O,1.100000X1.800000*%
%TD*%
%TA.AperFunction,ComponentPad*%
%ADD25R,1.700000X1.700000*%
%TD*%
%TA.AperFunction,ComponentPad*%
%ADD26O,1.700000X1.700000*%
%TD*%
%TA.AperFunction,ViaPad*%
%ADD27C,0.500000*%
%TD*%
%TA.AperFunction,ViaPad*%
%ADD28C,0.700000*%
%TD*%
%TA.AperFunction,Conductor*%
%ADD29C,0.250000*%
%TD*%
%TA.AperFunction,Conductor*%
%ADD30C,1.000000*%
%TD*%
%TA.AperFunction,Conductor*%
%ADD31C,0.400000*%
%TD*%
G04 APERTURE END LIST*
D10*
%TO.P,Q2,1,G*%
%TO.N,Net-(D2-Pad2)*%
X99499999Y-118999999D03*
D11*
%TO.P,Q2,2,D*%
%TO.N,/Driver/VS1*%
X96959999Y-118999999D03*
%TO.P,Q2,3,S*%
%TO.N,GND*%
X94419999Y-118999999D03*
%TD*%
D10*
%TO.P,Q5,1,G*%
%TO.N,Net-(D10-Pad2)*%
X155539999Y-118999999D03*
D11*
%TO.P,Q5,2,D*%
%TO.N,/Driver/72V*%
X152999999Y-118999999D03*
%TO.P,Q5,3,S*%
%TO.N,/Driver/VS3*%
X150459999Y-118999999D03*
%TD*%
D10*
%TO.P,Q6,1,G*%
%TO.N,Net-(D11-Pad2)*%
X144539999Y-118999999D03*
D11*
%TO.P,Q6,2,D*%
%TO.N,/Driver/VS3*%
X141999999Y-118999999D03*
%TO.P,Q6,3,S*%
%TO.N,GND*%
X139459999Y-118999999D03*
%TD*%
D10*
%TO.P,Q1,1,G*%
%TO.N,Net-(D1-Pad2)*%
X110499999Y-118999999D03*
D11*
%TO.P,Q1,2,D*%
%TO.N,/Driver/72V*%
X107959999Y-118999999D03*
%TO.P,Q1,3,S*%
%TO.N,/Driver/VS1*%
X105419999Y-118999999D03*
%TD*%
D10*
%TO.P,Q4,1,G*%
%TO.N,Net-(D5-Pad2)*%
X121999999Y-118999999D03*
D11*
%TO.P,Q4,2,D*%
%TO.N,/Driver/VS2*%
X119459999Y-118999999D03*
%TO.P,Q4,3,S*%
%TO.N,GND*%
X116919999Y-118999999D03*
%TD*%
D10*
%TO.P,Q3,1,G*%
%TO.N,Net-(D4-Pad2)*%
X132999999Y-118999999D03*
D11*
%TO.P,Q3,2,D*%
%TO.N,/Driver/72V*%
X130459999Y-118999999D03*
%TO.P,Q3,3,S*%
%TO.N,/Driver/VS2*%
X127919999Y-118999999D03*
%TD*%
D12*
%TO.P,C17,1*%
%TO.N,/Driver/12V*%
X99999999Y-84499999D03*
D13*
%TO.P,C17,2*%
%TO.N,GND*%
X100000000Y-87000000D03*
%TD*%
D14*
%TO.P,J3,1,Pin_1*%
%TO.N,/ADC_EXT*%
X115600000Y-95350000D03*
D15*
%TO.P,J3,2,Pin_2*%
%TO.N,Net-(J3-Pad2)*%
X113599999Y-95349999D03*
%TO.P,J3,3,Pin_3*%
%TO.N,Net-(J3-Pad3)*%
X111599999Y-95349999D03*
%TO.P,J3,4,Pin_4*%
%TO.N,/CANH*%
X109599999Y-95349999D03*
%TO.P,J3,5,Pin_5*%
%TO.N,/CANL*%
X107599999Y-95349999D03*
%TO.P,J3,6,Pin_6*%
%TO.N,GND*%
X105599999Y-95349999D03*
%TD*%
D16*
%TO.P,J2,1,Pin_1*%
%TO.N,/HALL-VCC*%
X113500000Y-83550000D03*
D15*
%TO.P,J2,2,Pin_2*%
%TO.N,/MOTOR-TEMP*%
X115499999Y-83549999D03*
%TO.P,J2,3,Pin_3*%
%TO.N,/HALL1*%
X117499999Y-83549999D03*
%TO.P,J2,4,Pin_4*%
%TO.N,/HALL2*%
X119499999Y-83549999D03*
%TO.P,J2,5,Pin_5*%
%TO.N,/HALL3*%
X121499999Y-83549999D03*
%TO.P,J2,6,Pin_6*%
%TO.N,GND*%
X123499999Y-83549999D03*
%TD*%
D17*
%TO.P,C101,1*%
%TO.N,/Driver/72V*%
X101999999Y-110499999D03*
D18*
%TO.P,C101,2*%
%TO.N,GND*%
X97000000Y-110500000D03*
%TD*%
D17*
%TO.P,C102,1*%
%TO.N,/Driver/72V*%
X132999999Y-110499999D03*
D18*
%TO.P,C102,2*%
%TO.N,GND*%
X128000000Y-110500000D03*
%TD*%
D19*
%TO.P,X3,1*%
%TO.N,/Driver/PhaseA*%
X104565000Y-130565000D03*
X110435000Y-130565000D03*
X110435000Y-136435000D03*
X104565000Y-136435000D03*
%TD*%
%TO.P,X4,1*%
%TO.N,/Driver/PhaseB*%
X127565000Y-130565000D03*
X133435000Y-136435000D03*
X133435000Y-130565000D03*
X127565000Y-136435000D03*
%TD*%
D20*
%TO.P,R102,1*%
%TO.N,/Driver/VS2*%
X129537500Y-125500000D03*
%TO.P,R102,2*%
%TO.N,/Driver/PhaseB*%
X135462500Y-125500000D03*
%TD*%
D21*
%TO.P,SW1,1,1*%
%TO.N,/BOOT0*%
X128499999Y-96299999D03*
%TO.P,SW1,2,2*%
%TO.N,/3.3V*%
X131899999Y-96299999D03*
%TD*%
D22*
%TO.P,J1,1,VBUS*%
%TO.N,unconnected-(J1-Pad1)*%
X156437499Y-100199999D03*
%TO.P,J1,2,D-*%
%TO.N,Net-(J1-Pad2)*%
X156437499Y-100849999D03*
%TO.P,J1,3,D+*%
%TO.N,Net-(J1-Pad3)*%
X156437499Y-101499999D03*
%TO.P,J1,4,ID*%
%TO.N,unconnected-(J1-Pad4)*%
X156437499Y-102149999D03*
%TO.P,J1,5,GND*%
%TO.N,GND*%
X156437499Y-102799999D03*
D23*
%TO.P,J1,6,Shield*%
%TO.N,unconnected-(J1-Pad6)*%
X158337499Y-101499999D03*
D24*
X156187499Y-98699999D03*
X156187499Y-104299999D03*
%TD*%
D20*
%TO.P,R103,1*%
%TO.N,/Driver/VS3*%
X152537500Y-125500000D03*
%TO.P,R103,2*%
%TO.N,/Driver/PhaseC*%
X158462500Y-125500000D03*
%TD*%
D19*
%TO.P,X1,1*%
%TO.N,/Driver/72V*%
X84065000Y-114435000D03*
X84065000Y-108565000D03*
X89935000Y-108565000D03*
X89935000Y-114435000D03*
%TD*%
D12*
%TO.P,C5,1*%
%TO.N,/Driver/72V*%
X93999999Y-94999999D03*
D13*
%TO.P,C5,2*%
%TO.N,GND*%
X96500000Y-95000000D03*
%TD*%
D17*
%TO.P,C103,1*%
%TO.N,/Driver/72V*%
X144376040Y-110999999D03*
D18*
%TO.P,C103,2*%
%TO.N,GND*%
X149376041Y-111000000D03*
%TD*%
D25*
%TO.P,J4,1,Pin_1*%
%TO.N,/SWIO*%
X143239999Y-102899999D03*
D26*
%TO.P,J4,2,Pin_2*%
%TO.N,/SWCK*%
X140699999Y-102899999D03*
%TO.P,J4,3,Pin_3*%
%TO.N,/3.3V*%
X138159999Y-102899999D03*
%TO.P,J4,4,Pin_4*%
%TO.N,GND*%
X135619999Y-102899999D03*
%TD*%
D19*
%TO.P,X5,1*%
%TO.N,/Driver/PhaseC*%
X156435000Y-136435000D03*
X150565000Y-130565000D03*
X156435000Y-130565000D03*
X150565000Y-136435000D03*
%TD*%
D20*
%TO.P,R101,1*%
%TO.N,/Driver/VS1*%
X106537500Y-125500000D03*
%TO.P,R101,2*%
%TO.N,/Driver/PhaseA*%
X112462500Y-125500000D03*
%TD*%
D19*
%TO.P,X2,1*%
%TO.N,GND*%
X84065000Y-131065000D03*
X89935000Y-131065000D03*
X84065000Y-136935000D03*
X89935000Y-136935000D03*
%TD*%
D27*
%TO.N,Net-(J1-Pad3)*%
X155000000Y-101500000D03*
%TO.N,Net-(J1-Pad2)*%
X155000000Y-100500000D03*
%TO.N,/BOOT0*%
X145400000Y-96000000D03*
X130500000Y-98400000D03*
%TO.N,/BLE_MODE*%
X142700000Y-82700000D03*
X100300000Y-96100000D03*
X87100000Y-104100000D03*
%TO.N,/BLE_TX*%
X139500000Y-82500000D03*
X87100000Y-101600000D03*
X101000000Y-94100000D03*
%TO.N,/AIN_CS3*%
X158000000Y-109000000D03*
X146000000Y-86000000D03*
%TO.N,/AIN_CS2*%
X146500000Y-83000000D03*
X158000000Y-110500000D03*
%TO.N,/AIN_CS1*%
X147000000Y-86000000D03*
X157500000Y-111500000D03*
%TO.N,/AIN_VS1*%
X120500000Y-99500000D03*
X151702471Y-85996500D03*
%TO.N,/AIN_VS2*%
X124500000Y-99500000D03*
X150000000Y-84500000D03*
%TO.N,/AIN_VS3*%
X128500000Y-99500000D03*
X148000000Y-86000000D03*
%TO.N,/AIN_VIN*%
X110100000Y-102600000D03*
X144500000Y-86000000D03*
%TO.N,/ADC_EXT*%
X143500000Y-88100000D03*
X125300000Y-91900000D03*
%TO.N,GND*%
X101000000Y-123800000D03*
X91900000Y-97700000D03*
X152300000Y-98400000D03*
X127200000Y-83100000D03*
X107600000Y-105300000D03*
X100100000Y-123800000D03*
X96500000Y-104900000D03*
D28*
X106700000Y-84500000D03*
D27*
X84900000Y-101800000D03*
X123000000Y-126100000D03*
X115500000Y-90000000D03*
X147100000Y-123800000D03*
X123500000Y-100500000D03*
X90500000Y-100200000D03*
D28*
X104100000Y-84500000D03*
D27*
X101000000Y-126100000D03*
X97800000Y-103000000D03*
X86400000Y-126000000D03*
D28*
X107900000Y-84500000D03*
D27*
X124000000Y-126100000D03*
X147100000Y-126100000D03*
X156100000Y-81100000D03*
X151800000Y-89000000D03*
X90500000Y-104100000D03*
X93500000Y-97700000D03*
X133700000Y-82600000D03*
X156100000Y-91300000D03*
X102100000Y-99300000D03*
X146100000Y-126100000D03*
X120000000Y-90000000D03*
X127500000Y-101000000D03*
D28*
X83100000Y-90800000D03*
D27*
X112000000Y-88500000D03*
X121300000Y-90000000D03*
X123500000Y-82100000D03*
X119500000Y-100000000D03*
X129500000Y-91900000D03*
X97800000Y-104900000D03*
X156100000Y-85000000D03*
X148500000Y-102300000D03*
X117000000Y-89000000D03*
X154700000Y-98400000D03*
X139500000Y-105700000D03*
D28*
X110000000Y-87000000D03*
D27*
X156100000Y-89500000D03*
X139500000Y-124500000D03*
X84900000Y-104900000D03*
X110000000Y-85200000D03*
X152000000Y-93500000D03*
X124000000Y-123800000D03*
X156100000Y-82700000D03*
X97800000Y-99300000D03*
X146100000Y-123800000D03*
X123000000Y-123800000D03*
X155300000Y-96600000D03*
X127200000Y-82100000D03*
D28*
X105400000Y-84500000D03*
D27*
X93500000Y-124500000D03*
X90500000Y-102800000D03*
X137500000Y-83100000D03*
X127200000Y-81100000D03*
D28*
X108900000Y-87000000D03*
D27*
X112300000Y-102500000D03*
X150500000Y-81100000D03*
X145100000Y-81100000D03*
X131500000Y-83100000D03*
X86300000Y-121000000D03*
X97800000Y-98000000D03*
X112000000Y-87500000D03*
X156100000Y-96600000D03*
X109800000Y-98300000D03*
X117000000Y-90000000D03*
X152300000Y-94700000D03*
X87200000Y-121800000D03*
X153600000Y-81100000D03*
D28*
X84000000Y-91300000D03*
X93700000Y-89000000D03*
D27*
X154600000Y-104000000D03*
X112500000Y-104800000D03*
X90500000Y-99000000D03*
X135300000Y-101300000D03*
D28*
X83100000Y-91900000D03*
D27*
X123500000Y-81100000D03*
X118500000Y-90000000D03*
X100100000Y-126100000D03*
X84900000Y-103300000D03*
X116600000Y-124300000D03*
%TO.N,/3.3V*%
X134500000Y-98900000D03*
X95000000Y-103800000D03*
X133600000Y-84700000D03*
X99800000Y-101700000D03*
X127400000Y-89400000D03*
X102100000Y-100600000D03*
X150400000Y-99400000D03*
X152200000Y-96600000D03*
X152600000Y-87900000D03*
X110000000Y-91900000D03*
X148000000Y-82900000D03*
X136200000Y-83500000D03*
X149400000Y-100600000D03*
%TO.N,/Driver/VS1*%
X104500000Y-126500000D03*
X105700000Y-123600000D03*
%TO.N,/Driver/VS2*%
X127500000Y-126500000D03*
X128700000Y-123600000D03*
%TO.N,/Driver/VS3*%
X151700000Y-123600000D03*
X150500000Y-126500000D03*
%TO.N,/Driver/LO2*%
X110500000Y-105500000D03*
X119000000Y-114500000D03*
%TO.N,/Driver/LO3*%
X142500000Y-114500000D03*
X111000000Y-110500000D03*
D28*
%TO.N,/Driver/12V*%
X115100000Y-88400000D03*
X118000000Y-100500000D03*
X101800000Y-97000000D03*
X113500000Y-99000000D03*
X89700000Y-119500000D03*
%TO.N,/Driver/72V*%
X91400000Y-90000000D03*
X91400000Y-89000000D03*
X89400000Y-89000000D03*
X90400000Y-89000000D03*
D27*
%TO.N,/Driver/PhaseA*%
X111400000Y-127000000D03*
%TO.N,/Driver/PhaseB*%
X134300000Y-127000000D03*
%TO.N,/Driver/PhaseC*%
X157300000Y-127000000D03*
%TO.N,/MOTOR-TEMP*%
X142500000Y-90300000D03*
X120500000Y-88500000D03*
%TO.N,/HALL1*%
X131500000Y-88500000D03*
%TO.N,/HALL2*%
X130500000Y-88500000D03*
%TO.N,/HALL3*%
X129500000Y-88500000D03*
%TO.N,/UART_T*%
X119500000Y-92300000D03*
X141700000Y-91700000D03*
%TO.N,/UART_R*%
X142500000Y-91700000D03*
X116600000Y-93300000D03*
%TO.N,/LED1*%
X147000000Y-103200000D03*
X145400000Y-104900000D03*
%TO.N,/LED2*%
X145400000Y-106600000D03*
X147700000Y-102700000D03*
%TO.N,/CAN-R*%
X138900000Y-94900000D03*
X104900000Y-102100000D03*
%TO.N,/CAN-T*%
X140000000Y-94900000D03*
X104900000Y-98300000D03*
%TO.N,/SWIO*%
X133000000Y-100600000D03*
%TO.N,/BLE_RX*%
X138600000Y-82700000D03*
X101000000Y-94900000D03*
X87100000Y-102800000D03*
%TD*%
D29*
%TO.N,Net-(J1-Pad3)*%
X155000000Y-101500000D02*
X156437500Y-101500000D01*
%TO.N,Net-(J1-Pad2)*%
X156437500Y-100850000D02*
X155350000Y-100850000D01*
X155350000Y-100850000D02*
X155000000Y-100500000D01*
%TO.N,/BOOT0*%
X129600000Y-98400000D02*
X130500000Y-98400000D01*
X128500000Y-96300000D02*
X128500000Y-97300000D01*
X128500000Y-97300000D02*
X129600000Y-98400000D01*
%TO.N,/BLE_MODE*%
X101606428Y-93400000D02*
X100700000Y-93400000D01*
X100700000Y-93400000D02*
X100300000Y-93800000D01*
X104957388Y-96750960D02*
X101606428Y-93400000D01*
X131249040Y-80950960D02*
X122450960Y-89749040D01*
X142700000Y-82700000D02*
X140950960Y-80950960D01*
X122450960Y-89749040D02*
X122450960Y-92706894D01*
X122450960Y-92706894D02*
X118406894Y-96750960D01*
X100300000Y-93800000D02*
X100300000Y-96100000D01*
X140950960Y-80950960D02*
X131249040Y-80950960D01*
X118406894Y-96750960D02*
X104957388Y-96750960D01*
%TO.N,/BLE_TX*%
X101600000Y-94100000D02*
X101000000Y-94100000D01*
X122950480Y-89955948D02*
X122950480Y-92913802D01*
X138450480Y-81450480D02*
X131455948Y-81450480D01*
X118613802Y-97250480D02*
X104750480Y-97250480D01*
X104750480Y-97250480D02*
X101600000Y-94100000D01*
X122950480Y-92913802D02*
X118613802Y-97250480D01*
X139500000Y-82500000D02*
X138450480Y-81450480D01*
X131455948Y-81450480D02*
X122950480Y-89955948D01*
D30*
%TO.N,unconnected-(J1-Pad6)*%
X156187500Y-98700000D02*
X157600000Y-98700000D01*
X158337500Y-101500000D02*
X158337500Y-103562500D01*
X158337500Y-103562500D02*
X157600000Y-104300000D01*
X157600000Y-104300000D02*
X156187500Y-104300000D01*
X157600000Y-98700000D02*
X158337500Y-99437500D01*
X158337500Y-99437500D02*
X158337500Y-101500000D01*
D29*
%TO.N,GND*%
X154600000Y-103300000D02*
X154600000Y-104000000D01*
X155100000Y-102800000D02*
X154600000Y-103300000D01*
X156437500Y-102800000D02*
X155100000Y-102800000D01*
%TO.N,/3.3V*%
X134300000Y-96300000D02*
X131900000Y-96300000D01*
X134500000Y-96500000D02*
X134300000Y-96300000D01*
X134500000Y-98900000D02*
X134500000Y-96500000D01*
D31*
%TO.N,/Driver/12V*%
X101800000Y-97000000D02*
X103800000Y-99000000D01*
X103800000Y-99000000D02*
X113500000Y-99000000D01*
D29*
%TO.N,/BLE_RX*%
X123450000Y-93120709D02*
X123449999Y-90162857D01*
X103499897Y-99724511D02*
X116846198Y-99724511D01*
X101000000Y-97224614D02*
X103499897Y-99724511D01*
X123449999Y-90162857D02*
X131662856Y-81950000D01*
X131662856Y-81950000D02*
X137850000Y-81950000D01*
X137850000Y-81950000D02*
X138600000Y-82700000D01*
X101000000Y-94900000D02*
X101000000Y-97224614D01*
X116846198Y-99724511D02*
X123450000Y-93120709D01*
%TD*%
%TA.AperFunction,Conductor*%
%TO.N,/Driver/PhaseA*%
G36*
X114006434Y-122000847D02*
G01*
X114116487Y-122015336D01*
X114141451Y-122022025D01*
X114237957Y-122061999D01*
X114260339Y-122074921D01*
X114343213Y-122138513D01*
X114361487Y-122156787D01*
X114425079Y-122239661D01*
X114438001Y-122262043D01*
X114477975Y-122358549D01*
X114484664Y-122383513D01*
X114499153Y-122493566D01*
X114500000Y-122506488D01*
X114500000Y-138493512D01*
X114499153Y-138506434D01*
X114484664Y-138616487D01*
X114477975Y-138641451D01*
X114438001Y-138737957D01*
X114425079Y-138760339D01*
X114361487Y-138843213D01*
X114343213Y-138861487D01*
X114260339Y-138925079D01*
X114237957Y-138938001D01*
X114141451Y-138977975D01*
X114116487Y-138984664D01*
X114006434Y-138999153D01*
X113993512Y-139000000D01*
X102506488Y-139000000D01*
X102493566Y-138999153D01*
X102383513Y-138984664D01*
X102358549Y-138977975D01*
X102262043Y-138938001D01*
X102239661Y-138925079D01*
X102156787Y-138861487D01*
X102138513Y-138843213D01*
X102074921Y-138760339D01*
X102061999Y-138737957D01*
X102022025Y-138641451D01*
X102015336Y-138616487D01*
X102000847Y-138506434D01*
X102000000Y-138493512D01*
X102000000Y-133567765D01*
X105645788Y-133567765D01*
X105675414Y-133837018D01*
X105743928Y-134099088D01*
X105745344Y-134102420D01*
X105745345Y-134102423D01*
X105799089Y-134228892D01*
X105849870Y-134348390D01*
X105990982Y-134579610D01*
X106164255Y-134787820D01*
X106166949Y-134790234D01*
X106166953Y-134790238D01*
X106266334Y-134879283D01*
X106365998Y-134968582D01*
X106591910Y-135118044D01*
X106720328Y-135178244D01*
X106833901Y-135231485D01*
X106833904Y-135231486D01*
X106837176Y-135233020D01*
X107096569Y-135311060D01*
X107230565Y-135330780D01*
X107360979Y-135349973D01*
X107360981Y-135349973D01*
X107364561Y-135350500D01*
X107567631Y-135350500D01*
X107770156Y-135335677D01*
X107773673Y-135334894D01*
X107773677Y-135334893D01*
X108031030Y-135277565D01*
X108031033Y-135277564D01*
X108034553Y-135276780D01*
X108287558Y-135180014D01*
X108523777Y-135047441D01*
X108738177Y-134881888D01*
X108740689Y-134879283D01*
X108923675Y-134689486D01*
X108923678Y-134689482D01*
X108926186Y-134686881D01*
X109083799Y-134466579D01*
X109207656Y-134225675D01*
X109295118Y-133969305D01*
X109344319Y-133702933D01*
X109354212Y-133432235D01*
X109324586Y-133162982D01*
X109256072Y-132900912D01*
X109202279Y-132774325D01*
X109151547Y-132654944D01*
X109151546Y-132654942D01*
X109150130Y-132651610D01*
X109009018Y-132420390D01*
X108835745Y-132212180D01*
X108833051Y-132209766D01*
X108833047Y-132209762D01*
X108725355Y-132113271D01*
X108634002Y-132031418D01*
X108408090Y-131881956D01*
X108243246Y-131804680D01*
X108166099Y-131768515D01*
X108166096Y-131768514D01*
X108162824Y-131766980D01*
X107903431Y-131688940D01*
X107769435Y-131669220D01*
X107639021Y-131650027D01*
X107639019Y-131650027D01*
X107635439Y-131649500D01*
X107432369Y-131649500D01*
X107229844Y-131664323D01*
X107226327Y-131665106D01*
X107226323Y-131665107D01*
X106968970Y-131722435D01*
X106968967Y-131722436D01*
X106965447Y-131723220D01*
X106712442Y-131819986D01*
X106476223Y-131952559D01*
X106261823Y-132118112D01*
X106259315Y-132120714D01*
X106259311Y-132120717D01*
X106076325Y-132310514D01*
X106076322Y-132310518D01*
X106073814Y-132313119D01*
X105916201Y-132533421D01*
X105792344Y-132774325D01*
X105704882Y-133030695D01*
X105655681Y-133297067D01*
X105645788Y-133567765D01*
X102000000Y-133567765D01*
X102000000Y-128506488D01*
X102000847Y-128493566D01*
X102015336Y-128383513D01*
X102022025Y-128358549D01*
X102061999Y-128262043D01*
X102074921Y-128239661D01*
X102138513Y-128156787D01*
X102156787Y-128138513D01*
X102239661Y-128074921D01*
X102262043Y-128061999D01*
X102358549Y-128022025D01*
X102383513Y-128015336D01*
X102493566Y-128000847D01*
X102506488Y-128000000D01*
X110500000Y-128000000D01*
X110500000Y-122506488D01*
X110500847Y-122493566D01*
X110515336Y-122383513D01*
X110522025Y-122358549D01*
X110561999Y-122262043D01*
X110574921Y-122239661D01*
X110638513Y-122156787D01*
X110656787Y-122138513D01*
X110739661Y-122074921D01*
X110762043Y-122061999D01*
X110858549Y-122022025D01*
X110883513Y-122015336D01*
X110993566Y-122000847D01*
X111006488Y-122000000D01*
X113993512Y-122000000D01*
X114006434Y-122000847D01*
G37*
%TD.AperFunction*%
%TD*%
%TA.AperFunction,Conductor*%
%TO.N,/3.3V*%
G36*
X141132593Y-82018907D02*
G01*
X141144403Y-82028993D01*
X141521973Y-82406564D01*
X141874102Y-82758693D01*
X141885221Y-82771951D01*
X141897037Y-82788843D01*
X141899458Y-82791425D01*
X141928764Y-82822684D01*
X141948624Y-82854039D01*
X141956232Y-82873308D01*
X141960347Y-82883731D01*
X141994463Y-82970189D01*
X142010786Y-83005529D01*
X142012928Y-83010166D01*
X142016498Y-83018985D01*
X142017707Y-83022441D01*
X142017709Y-83022445D01*
X142019544Y-83027690D01*
X142022501Y-83032396D01*
X142022502Y-83032398D01*
X142068454Y-83105529D01*
X142109523Y-83170890D01*
X142229110Y-83290477D01*
X142233818Y-83293435D01*
X142233819Y-83293436D01*
X142332194Y-83355249D01*
X142372310Y-83380456D01*
X142531941Y-83436313D01*
X142700000Y-83455249D01*
X142705529Y-83454626D01*
X142862530Y-83436936D01*
X142868059Y-83436313D01*
X143027690Y-83380456D01*
X143067807Y-83355249D01*
X143166181Y-83293436D01*
X143166182Y-83293435D01*
X143170890Y-83290477D01*
X143290477Y-83170890D01*
X143331546Y-83105529D01*
X143377498Y-83032398D01*
X143377499Y-83032396D01*
X143380456Y-83027690D01*
X143390145Y-83000000D01*
X145744751Y-83000000D01*
X145763687Y-83168059D01*
X145819544Y-83327690D01*
X145822501Y-83332396D01*
X145822502Y-83332398D01*
X145899695Y-83455249D01*
X145909523Y-83470890D01*
X146029110Y-83590477D01*
X146172310Y-83680456D01*
X146331941Y-83736313D01*
X146500000Y-83755249D01*
X146505529Y-83754626D01*
X146662530Y-83736936D01*
X146668059Y-83736313D01*
X146827690Y-83680456D01*
X146970890Y-83590477D01*
X147090477Y-83470890D01*
X147100305Y-83455249D01*
X147177498Y-83332398D01*
X147177499Y-83332396D01*
X147180456Y-83327690D01*
X147236313Y-83168059D01*
X147255249Y-83000000D01*
X147236313Y-82831941D01*
X147180456Y-82672310D01*
X147153312Y-82629110D01*
X147093436Y-82533819D01*
X147093435Y-82533818D01*
X147090477Y-82529110D01*
X146970890Y-82409523D01*
X146966181Y-82406564D01*
X146832398Y-82322502D01*
X146832396Y-82322501D01*
X146827690Y-82319544D01*
X146668059Y-82263687D01*
X146500000Y-82244751D01*
X146331941Y-82263687D01*
X146172310Y-82319544D01*
X146167604Y-82322501D01*
X146167602Y-82322502D01*
X146033819Y-82406564D01*
X146029110Y-82409523D01*
X145909523Y-82529110D01*
X145906565Y-82533818D01*
X145906564Y-82533819D01*
X145846689Y-82629110D01*
X145819544Y-82672310D01*
X145763687Y-82831941D01*
X145744751Y-83000000D01*
X143390145Y-83000000D01*
X143436313Y-82868059D01*
X143455249Y-82700000D01*
X143436313Y-82531941D01*
X143380456Y-82372310D01*
X143358565Y-82337470D01*
X143293436Y-82233819D01*
X143293435Y-82233818D01*
X143290477Y-82229110D01*
X143230371Y-82169004D01*
X143202594Y-82114487D01*
X143212165Y-82054055D01*
X143255430Y-82010790D01*
X143300375Y-82000000D01*
X154901000Y-82000000D01*
X154959191Y-82018907D01*
X154995155Y-82068407D01*
X155000000Y-82099000D01*
X155000000Y-95847430D01*
X154981093Y-95905621D01*
X154953672Y-95931255D01*
X154829110Y-96009523D01*
X154709523Y-96129110D01*
X154706565Y-96133818D01*
X154706564Y-96133819D01*
X154685050Y-96168059D01*
X154619544Y-96272310D01*
X154563687Y-96431941D01*
X154563064Y-96437470D01*
X154554219Y-96515970D01*
X154544751Y-96600000D01*
X154563687Y-96768059D01*
X154619544Y-96927690D01*
X154709523Y-97070890D01*
X154829110Y-97190477D01*
X154833818Y-97193435D01*
X154833819Y-97193436D01*
X154953671Y-97268744D01*
X154992883Y-97315713D01*
X155000000Y-97352570D01*
X155000000Y-97570328D01*
X154981093Y-97628519D01*
X154931593Y-97664483D01*
X154879381Y-97663900D01*
X154878728Y-97666761D01*
X154873309Y-97665524D01*
X154868059Y-97663687D01*
X154862532Y-97663064D01*
X154862531Y-97663064D01*
X154705529Y-97645374D01*
X154700000Y-97644751D01*
X154531941Y-97663687D01*
X154372310Y-97719544D01*
X154229110Y-97809523D01*
X154109523Y-97929110D01*
X154019544Y-98072310D01*
X153963687Y-98231941D01*
X153944751Y-98400000D01*
X153963687Y-98568059D01*
X154019544Y-98727690D01*
X154109523Y-98870890D01*
X154229110Y-98990477D01*
X154372310Y-99080456D01*
X154531941Y-99136313D01*
X154700000Y-99155249D01*
X154705529Y-99154626D01*
X154862531Y-99136936D01*
X154862532Y-99136936D01*
X154868059Y-99136313D01*
X154873309Y-99134476D01*
X154878728Y-99133239D01*
X154879353Y-99135977D01*
X154929483Y-99134858D01*
X154979773Y-99169707D01*
X155000000Y-99229672D01*
X155000000Y-99656280D01*
X154981093Y-99714471D01*
X154931593Y-99750435D01*
X154912094Y-99754656D01*
X154831941Y-99763687D01*
X154672310Y-99819544D01*
X154667604Y-99822501D01*
X154667602Y-99822502D01*
X154602057Y-99863687D01*
X154529110Y-99909523D01*
X154409523Y-100029110D01*
X154406565Y-100033818D01*
X154406564Y-100033819D01*
X154343730Y-100133819D01*
X154319544Y-100172310D01*
X154263687Y-100331941D01*
X154244751Y-100500000D01*
X154263687Y-100668059D01*
X154319544Y-100827690D01*
X154322499Y-100832393D01*
X154322503Y-100832401D01*
X154394718Y-100947328D01*
X154409669Y-101006659D01*
X154394718Y-101052672D01*
X154322503Y-101167599D01*
X154322499Y-101167607D01*
X154319544Y-101172310D01*
X154317708Y-101177558D01*
X154298064Y-101233697D01*
X154260998Y-101282378D01*
X154204619Y-101300000D01*
X136143720Y-101300000D01*
X136085529Y-101281093D01*
X136049565Y-101231593D01*
X136045344Y-101212094D01*
X136036313Y-101131941D01*
X135980456Y-100972310D01*
X135955378Y-100932398D01*
X135893436Y-100833819D01*
X135893435Y-100833818D01*
X135890477Y-100829110D01*
X135770890Y-100709523D01*
X135766181Y-100706564D01*
X135632398Y-100622502D01*
X135632396Y-100622501D01*
X135627690Y-100619544D01*
X135468059Y-100563687D01*
X135300000Y-100544751D01*
X135131941Y-100563687D01*
X134972310Y-100619544D01*
X134967604Y-100622501D01*
X134967602Y-100622502D01*
X134833819Y-100706564D01*
X134829110Y-100709523D01*
X134709523Y-100829110D01*
X134706565Y-100833818D01*
X134706564Y-100833819D01*
X134644623Y-100932398D01*
X134619544Y-100972310D01*
X134563687Y-101131941D01*
X134554657Y-101212087D01*
X134529354Y-101267792D01*
X134476138Y-101297988D01*
X134456280Y-101300000D01*
X133600375Y-101300000D01*
X133542184Y-101281093D01*
X133506220Y-101231593D01*
X133506220Y-101170407D01*
X133530371Y-101130996D01*
X133590477Y-101070890D01*
X133630836Y-101006659D01*
X133677498Y-100932398D01*
X133677499Y-100932396D01*
X133680456Y-100927690D01*
X133736313Y-100768059D01*
X133755249Y-100600000D01*
X133736313Y-100431941D01*
X133680456Y-100272310D01*
X133598832Y-100142406D01*
X133593436Y-100133819D01*
X133593435Y-100133818D01*
X133590477Y-100129110D01*
X133470890Y-100009523D01*
X133327690Y-99919544D01*
X133266303Y-99898064D01*
X133217622Y-99860998D01*
X133200000Y-99804619D01*
X133200000Y-98400000D01*
X151544751Y-98400000D01*
X151563687Y-98568059D01*
X151619544Y-98727690D01*
X151709523Y-98870890D01*
X151829110Y-98990477D01*
X151972310Y-99080456D01*
X152131941Y-99136313D01*
X152300000Y-99155249D01*
X152305529Y-99154626D01*
X152462530Y-99136936D01*
X152468059Y-99136313D01*
X152627690Y-99080456D01*
X152770890Y-98990477D01*
X152890477Y-98870890D01*
X152980456Y-98727690D01*
X153036313Y-98568059D01*
X153055249Y-98400000D01*
X153036313Y-98231941D01*
X152980456Y-98072310D01*
X152890477Y-97929110D01*
X152770890Y-97809523D01*
X152627690Y-97719544D01*
X152468059Y-97663687D01*
X152300000Y-97644751D01*
X152131941Y-97663687D01*
X151972310Y-97719544D01*
X151829110Y-97809523D01*
X151709523Y-97929110D01*
X151619544Y-98072310D01*
X151563687Y-98231941D01*
X151544751Y-98400000D01*
X133200000Y-98400000D01*
X133200000Y-96000000D01*
X144644751Y-96000000D01*
X144645374Y-96005529D01*
X144658856Y-96125179D01*
X144663687Y-96168059D01*
X144719544Y-96327690D01*
X144722501Y-96332396D01*
X144722502Y-96332398D01*
X144788524Y-96437470D01*
X144809523Y-96470890D01*
X144929110Y-96590477D01*
X144933818Y-96593435D01*
X144933819Y-96593436D01*
X144944266Y-96600000D01*
X145072310Y-96680456D01*
X145231941Y-96736313D01*
X145400000Y-96755249D01*
X145405529Y-96754626D01*
X145562530Y-96736936D01*
X145568059Y-96736313D01*
X145727690Y-96680456D01*
X145855735Y-96600000D01*
X145866181Y-96593436D01*
X145866182Y-96593435D01*
X145870890Y-96590477D01*
X145990477Y-96470890D01*
X146011476Y-96437470D01*
X146077498Y-96332398D01*
X146077499Y-96332396D01*
X146080456Y-96327690D01*
X146136313Y-96168059D01*
X146141145Y-96125179D01*
X146154626Y-96005529D01*
X146155249Y-96000000D01*
X146136313Y-95831941D01*
X146080456Y-95672310D01*
X146069345Y-95654626D01*
X145993436Y-95533819D01*
X145993435Y-95533818D01*
X145990477Y-95529110D01*
X145870890Y-95409523D01*
X145866181Y-95406564D01*
X145732398Y-95322502D01*
X145732396Y-95322501D01*
X145727690Y-95319544D01*
X145568059Y-95263687D01*
X145400000Y-95244751D01*
X145231941Y-95263687D01*
X145072310Y-95319544D01*
X145067604Y-95322501D01*
X145067602Y-95322502D01*
X144933819Y-95406564D01*
X144929110Y-95409523D01*
X144809523Y-95529110D01*
X144806565Y-95533818D01*
X144806564Y-95533819D01*
X144730656Y-95654626D01*
X144719544Y-95672310D01*
X144663687Y-95831941D01*
X144644751Y-96000000D01*
X133200000Y-96000000D01*
X133200000Y-94900000D01*
X138144751Y-94900000D01*
X138163687Y-95068059D01*
X138219544Y-95227690D01*
X138222501Y-95232396D01*
X138222502Y-95232398D01*
X138306564Y-95366181D01*
X138309523Y-95370890D01*
X138429110Y-95490477D01*
X138433818Y-95493435D01*
X138433819Y-95493436D01*
X138490594Y-95529110D01*
X138572310Y-95580456D01*
X138731941Y-95636313D01*
X138900000Y-95655249D01*
X138905529Y-95654626D01*
X139062530Y-95636936D01*
X139068059Y-95636313D01*
X139227690Y-95580456D01*
X139309407Y-95529110D01*
X139366181Y-95493436D01*
X139366182Y-95493435D01*
X139370890Y-95490477D01*
X139379996Y-95481371D01*
X139434513Y-95453594D01*
X139494945Y-95463165D01*
X139520004Y-95481371D01*
X139529110Y-95490477D01*
X139533818Y-95493435D01*
X139533819Y-95493436D01*
X139590594Y-95529110D01*
X139672310Y-95580456D01*
X139831941Y-95636313D01*
X140000000Y-95655249D01*
X140005529Y-95654626D01*
X140162530Y-95636936D01*
X140168059Y-95636313D01*
X140327690Y-95580456D01*
X140409407Y-95529110D01*
X140466181Y-95493436D01*
X140466182Y-95493435D01*
X140470890Y-95490477D01*
X140590477Y-95370890D01*
X140593436Y-95366181D01*
X140677498Y-95232398D01*
X140677499Y-95232396D01*
X140680456Y-95227690D01*
X140736313Y-95068059D01*
X140755249Y-94900000D01*
X140736313Y-94731941D01*
X140680456Y-94572310D01*
X140658565Y-94537470D01*
X140593436Y-94433819D01*
X140593435Y-94433818D01*
X140590477Y-94429110D01*
X140470890Y-94309523D01*
X140402159Y-94266336D01*
X140332398Y-94222502D01*
X140332396Y-94222501D01*
X140327690Y-94219544D01*
X140168059Y-94163687D01*
X140000000Y-94144751D01*
X139831941Y-94163687D01*
X139672310Y-94219544D01*
X139667604Y-94222501D01*
X139667602Y-94222502D01*
X139597841Y-94266336D01*
X139529110Y-94309523D01*
X139520004Y-94318629D01*
X139465487Y-94346406D01*
X139405055Y-94336835D01*
X139379996Y-94318629D01*
X139370890Y-94309523D01*
X139302159Y-94266336D01*
X139232398Y-94222502D01*
X139232396Y-94222501D01*
X139227690Y-94219544D01*
X139068059Y-94163687D01*
X138900000Y-94144751D01*
X138731941Y-94163687D01*
X138572310Y-94219544D01*
X138567604Y-94222501D01*
X138567602Y-94222502D01*
X138497841Y-94266336D01*
X138429110Y-94309523D01*
X138309523Y-94429110D01*
X138306565Y-94433818D01*
X138306564Y-94433819D01*
X138241436Y-94537470D01*
X138219544Y-94572310D01*
X138163687Y-94731941D01*
X138144751Y-94900000D01*
X133200000Y-94900000D01*
X133200000Y-93500000D01*
X151244751Y-93500000D01*
X151263687Y-93668059D01*
X151319544Y-93827690D01*
X151409523Y-93970890D01*
X151529110Y-94090477D01*
X151533818Y-94093435D01*
X151533819Y-94093436D01*
X151637081Y-94158320D01*
X151676293Y-94205289D01*
X151680409Y-94266336D01*
X151668236Y-94294817D01*
X151622502Y-94367602D01*
X151619544Y-94372310D01*
X151563687Y-94531941D01*
X151544751Y-94700000D01*
X151563687Y-94868059D01*
X151619544Y-95027690D01*
X151622501Y-95032396D01*
X151622502Y-95032398D01*
X151648208Y-95073308D01*
X151709523Y-95170890D01*
X151829110Y-95290477D01*
X151833818Y-95293435D01*
X151833819Y-95293436D01*
X151957086Y-95370890D01*
X151972310Y-95380456D01*
X152131941Y-95436313D01*
X152300000Y-95455249D01*
X152305529Y-95454626D01*
X152462530Y-95436936D01*
X152468059Y-95436313D01*
X152627690Y-95380456D01*
X152642915Y-95370890D01*
X152766181Y-95293436D01*
X152766182Y-95293435D01*
X152770890Y-95290477D01*
X152890477Y-95170890D01*
X152951792Y-95073308D01*
X152977498Y-95032398D01*
X152977499Y-95032396D01*
X152980456Y-95027690D01*
X153036313Y-94868059D01*
X153055249Y-94700000D01*
X153036313Y-94531941D01*
X152980456Y-94372310D01*
X152964180Y-94346406D01*
X152893436Y-94233819D01*
X152893435Y-94233818D01*
X152890477Y-94229110D01*
X152770890Y-94109523D01*
X152662919Y-94041680D01*
X152623707Y-93994711D01*
X152619591Y-93933664D01*
X152631764Y-93905183D01*
X152677498Y-93832398D01*
X152677499Y-93832396D01*
X152680456Y-93827690D01*
X152736313Y-93668059D01*
X152755249Y-93500000D01*
X152736313Y-93331941D01*
X152680456Y-93172310D01*
X152590477Y-93029110D01*
X152470890Y-92909523D01*
X152327690Y-92819544D01*
X152168059Y-92763687D01*
X152000000Y-92744751D01*
X151831941Y-92763687D01*
X151672310Y-92819544D01*
X151529110Y-92909523D01*
X151409523Y-93029110D01*
X151319544Y-93172310D01*
X151263687Y-93331941D01*
X151244751Y-93500000D01*
X133200000Y-93500000D01*
X133200000Y-91700000D01*
X140944751Y-91700000D01*
X140963687Y-91868059D01*
X141019544Y-92027690D01*
X141109523Y-92170890D01*
X141229110Y-92290477D01*
X141233818Y-92293435D01*
X141233819Y-92293436D01*
X141367601Y-92377497D01*
X141372310Y-92380456D01*
X141531941Y-92436313D01*
X141700000Y-92455249D01*
X141705529Y-92454626D01*
X141862530Y-92436936D01*
X141868059Y-92436313D01*
X142027690Y-92380456D01*
X142047327Y-92368117D01*
X142106657Y-92353165D01*
X142152673Y-92368117D01*
X142172310Y-92380456D01*
X142331941Y-92436313D01*
X142500000Y-92455249D01*
X142505529Y-92454626D01*
X142662530Y-92436936D01*
X142668059Y-92436313D01*
X142827690Y-92380456D01*
X142832400Y-92377497D01*
X142966181Y-92293436D01*
X142966182Y-92293435D01*
X142970890Y-92290477D01*
X143090477Y-92170890D01*
X143180456Y-92027690D01*
X143236313Y-91868059D01*
X143255249Y-91700000D01*
X143236313Y-91531941D01*
X143180456Y-91372310D01*
X143090477Y-91229110D01*
X142970890Y-91109523D01*
X142966184Y-91106566D01*
X142966179Y-91106562D01*
X142929993Y-91083825D01*
X142890781Y-91036857D01*
X142886666Y-90975810D01*
X142919219Y-90924003D01*
X142929993Y-90916175D01*
X142966179Y-90893438D01*
X142966184Y-90893434D01*
X142970890Y-90890477D01*
X143090477Y-90770890D01*
X143180456Y-90627690D01*
X143236313Y-90468059D01*
X143255249Y-90300000D01*
X143236313Y-90131941D01*
X143180456Y-89972310D01*
X143090477Y-89829110D01*
X142970890Y-89709523D01*
X142966181Y-89706564D01*
X142832398Y-89622502D01*
X142832396Y-89622501D01*
X142827690Y-89619544D01*
X142668059Y-89563687D01*
X142500000Y-89544751D01*
X142331941Y-89563687D01*
X142172310Y-89619544D01*
X142167604Y-89622501D01*
X142167602Y-89622502D01*
X142033819Y-89706564D01*
X142029110Y-89709523D01*
X141909523Y-89829110D01*
X141819544Y-89972310D01*
X141763687Y-90131941D01*
X141744751Y-90300000D01*
X141763687Y-90468059D01*
X141819544Y-90627690D01*
X141909523Y-90770890D01*
X141932008Y-90793375D01*
X141959785Y-90847892D01*
X141950214Y-90908324D01*
X141906949Y-90951589D01*
X141850920Y-90961756D01*
X141700000Y-90944751D01*
X141531941Y-90963687D01*
X141372310Y-91019544D01*
X141367604Y-91022501D01*
X141367602Y-91022502D01*
X141299999Y-91064980D01*
X141229110Y-91109523D01*
X141109523Y-91229110D01*
X141019544Y-91372310D01*
X140963687Y-91531941D01*
X140944751Y-91700000D01*
X133200000Y-91700000D01*
X133200000Y-89000000D01*
X151044751Y-89000000D01*
X151063687Y-89168059D01*
X151119544Y-89327690D01*
X151209523Y-89470890D01*
X151329110Y-89590477D01*
X151333818Y-89593435D01*
X151333819Y-89593436D01*
X151375370Y-89619544D01*
X151472310Y-89680456D01*
X151631941Y-89736313D01*
X151800000Y-89755249D01*
X151805529Y-89754626D01*
X151962530Y-89736936D01*
X151968059Y-89736313D01*
X152127690Y-89680456D01*
X152224631Y-89619544D01*
X152266181Y-89593436D01*
X152266182Y-89593435D01*
X152270890Y-89590477D01*
X152390477Y-89470890D01*
X152480456Y-89327690D01*
X152536313Y-89168059D01*
X152555249Y-89000000D01*
X152536313Y-88831941D01*
X152480456Y-88672310D01*
X152413771Y-88566181D01*
X152393436Y-88533819D01*
X152393435Y-88533818D01*
X152390477Y-88529110D01*
X152270890Y-88409523D01*
X152127690Y-88319544D01*
X151968059Y-88263687D01*
X151800000Y-88244751D01*
X151631941Y-88263687D01*
X151472310Y-88319544D01*
X151329110Y-88409523D01*
X151209523Y-88529110D01*
X151206565Y-88533818D01*
X151206564Y-88533819D01*
X151186230Y-88566181D01*
X151119544Y-88672310D01*
X151063687Y-88831941D01*
X151044751Y-89000000D01*
X133200000Y-89000000D01*
X133200000Y-88100000D01*
X142744751Y-88100000D01*
X142763687Y-88268059D01*
X142819544Y-88427690D01*
X142822501Y-88432396D01*
X142822502Y-88432398D01*
X142906564Y-88566181D01*
X142909523Y-88570890D01*
X143029110Y-88690477D01*
X143172310Y-88780456D01*
X143331941Y-88836313D01*
X143500000Y-88855249D01*
X143505529Y-88854626D01*
X143662530Y-88836936D01*
X143668059Y-88836313D01*
X143827690Y-88780456D01*
X143970890Y-88690477D01*
X144090477Y-88570890D01*
X144093436Y-88566181D01*
X144177498Y-88432398D01*
X144177499Y-88432396D01*
X144180456Y-88427690D01*
X144236313Y-88268059D01*
X144255249Y-88100000D01*
X144236313Y-87931941D01*
X144180456Y-87772310D01*
X144090477Y-87629110D01*
X143970890Y-87509523D01*
X143827690Y-87419544D01*
X143668059Y-87363687D01*
X143500000Y-87344751D01*
X143331941Y-87363687D01*
X143172310Y-87419544D01*
X143029110Y-87509523D01*
X142909523Y-87629110D01*
X142819544Y-87772310D01*
X142763687Y-87931941D01*
X142744751Y-88100000D01*
X133200000Y-88100000D01*
X133200000Y-86000000D01*
X143744751Y-86000000D01*
X143763687Y-86168059D01*
X143819544Y-86327690D01*
X143822501Y-86332396D01*
X143822502Y-86332398D01*
X143904365Y-86462681D01*
X143909523Y-86470890D01*
X144029110Y-86590477D01*
X144033818Y-86593435D01*
X144033819Y-86593436D01*
X144167601Y-86677497D01*
X144172310Y-86680456D01*
X144331941Y-86736313D01*
X144500000Y-86755249D01*
X144505529Y-86754626D01*
X144662530Y-86736936D01*
X144668059Y-86736313D01*
X144827690Y-86680456D01*
X144832400Y-86677497D01*
X144966181Y-86593436D01*
X144966182Y-86593435D01*
X144970890Y-86590477D01*
X145090477Y-86470890D01*
X145105760Y-86446568D01*
X145166175Y-86350419D01*
X145213143Y-86311207D01*
X145274190Y-86307092D01*
X145325997Y-86339645D01*
X145333825Y-86350419D01*
X145394240Y-86446568D01*
X145409523Y-86470890D01*
X145529110Y-86590477D01*
X145533818Y-86593435D01*
X145533819Y-86593436D01*
X145667601Y-86677497D01*
X145672310Y-86680456D01*
X145831941Y-86736313D01*
X146000000Y-86755249D01*
X146005529Y-86754626D01*
X146162530Y-86736936D01*
X146168059Y-86736313D01*
X146327690Y-86680456D01*
X146332393Y-86677501D01*
X146332401Y-86677497D01*
X146447328Y-86605282D01*
X146506659Y-86590331D01*
X146552672Y-86605282D01*
X146667599Y-86677497D01*
X146667607Y-86677501D01*
X146672310Y-86680456D01*
X146831941Y-86736313D01*
X147000000Y-86755249D01*
X147005529Y-86754626D01*
X147162530Y-86736936D01*
X147168059Y-86736313D01*
X147327690Y-86680456D01*
X147332393Y-86677501D01*
X147332401Y-86677497D01*
X147447328Y-86605282D01*
X147506659Y-86590331D01*
X147552672Y-86605282D01*
X147667599Y-86677497D01*
X147667607Y-86677501D01*
X147672310Y-86680456D01*
X147831941Y-86736313D01*
X148000000Y-86755249D01*
X148005529Y-86754626D01*
X148162530Y-86736936D01*
X148168059Y-86736313D01*
X148327690Y-86680456D01*
X148332400Y-86677497D01*
X148466181Y-86593436D01*
X148466182Y-86593435D01*
X148470890Y-86590477D01*
X148590477Y-86470890D01*
X148595635Y-86462681D01*
X148677498Y-86332398D01*
X148677499Y-86332396D01*
X148680456Y-86327690D01*
X148736313Y-86168059D01*
X148755249Y-86000000D01*
X148754855Y-85996500D01*
X150947222Y-85996500D01*
X150966158Y-86164559D01*
X151022015Y-86324190D01*
X151111994Y-86467390D01*
X151231581Y-86586977D01*
X151374781Y-86676956D01*
X151534412Y-86732813D01*
X151702471Y-86751749D01*
X151708000Y-86751126D01*
X151865001Y-86733436D01*
X151870530Y-86732813D01*
X152030161Y-86676956D01*
X152173361Y-86586977D01*
X152292948Y-86467390D01*
X152382927Y-86324190D01*
X152438784Y-86164559D01*
X152457720Y-85996500D01*
X152438784Y-85828441D01*
X152382927Y-85668810D01*
X152377615Y-85660355D01*
X152295907Y-85530319D01*
X152295906Y-85530318D01*
X152292948Y-85525610D01*
X152173361Y-85406023D01*
X152168652Y-85403064D01*
X152034869Y-85319002D01*
X152034867Y-85319001D01*
X152030161Y-85316044D01*
X151870530Y-85260187D01*
X151702471Y-85241251D01*
X151534412Y-85260187D01*
X151374781Y-85316044D01*
X151370075Y-85319001D01*
X151370073Y-85319002D01*
X151236290Y-85403064D01*
X151231581Y-85406023D01*
X151111994Y-85525610D01*
X151109036Y-85530318D01*
X151109035Y-85530319D01*
X151027328Y-85660355D01*
X151022015Y-85668810D01*
X150966158Y-85828441D01*
X150947222Y-85996500D01*
X148754855Y-85996500D01*
X148736313Y-85831941D01*
X148680456Y-85672310D01*
X148666175Y-85649581D01*
X148593436Y-85533819D01*
X148593435Y-85533818D01*
X148590477Y-85529110D01*
X148470890Y-85409523D01*
X148447328Y-85394718D01*
X148332398Y-85322502D01*
X148332396Y-85322501D01*
X148327690Y-85319544D01*
X148168059Y-85263687D01*
X148000000Y-85244751D01*
X147831941Y-85263687D01*
X147672310Y-85319544D01*
X147667607Y-85322499D01*
X147667599Y-85322503D01*
X147552672Y-85394718D01*
X147493341Y-85409669D01*
X147447328Y-85394718D01*
X147332401Y-85322503D01*
X147332393Y-85322499D01*
X147327690Y-85319544D01*
X147168059Y-85263687D01*
X147000000Y-85244751D01*
X146831941Y-85263687D01*
X146672310Y-85319544D01*
X146667607Y-85322499D01*
X146667599Y-85322503D01*
X146552672Y-85394718D01*
X146493341Y-85409669D01*
X146447328Y-85394718D01*
X146332401Y-85322503D01*
X146332393Y-85322499D01*
X146327690Y-85319544D01*
X146168059Y-85263687D01*
X146000000Y-85244751D01*
X145831941Y-85263687D01*
X145672310Y-85319544D01*
X145667604Y-85322501D01*
X145667602Y-85322502D01*
X145552672Y-85394718D01*
X145529110Y-85409523D01*
X145409523Y-85529110D01*
X145406563Y-85533821D01*
X145333825Y-85649581D01*
X145286857Y-85688793D01*
X145225810Y-85692908D01*
X145174003Y-85660355D01*
X145166175Y-85649581D01*
X145093437Y-85533821D01*
X145090477Y-85529110D01*
X144970890Y-85409523D01*
X144947328Y-85394718D01*
X144832398Y-85322502D01*
X144832396Y-85322501D01*
X144827690Y-85319544D01*
X144668059Y-85263687D01*
X144500000Y-85244751D01*
X144331941Y-85263687D01*
X144172310Y-85319544D01*
X144167604Y-85322501D01*
X144167602Y-85322502D01*
X144052672Y-85394718D01*
X144029110Y-85409523D01*
X143909523Y-85529110D01*
X143906565Y-85533818D01*
X143906564Y-85533819D01*
X143833826Y-85649581D01*
X143819544Y-85672310D01*
X143763687Y-85831941D01*
X143744751Y-86000000D01*
X133200000Y-86000000D01*
X133200000Y-84500000D01*
X149244751Y-84500000D01*
X149263687Y-84668059D01*
X149319544Y-84827690D01*
X149409523Y-84970890D01*
X149529110Y-85090477D01*
X149672310Y-85180456D01*
X149831941Y-85236313D01*
X150000000Y-85255249D01*
X150005529Y-85254626D01*
X150162530Y-85236936D01*
X150168059Y-85236313D01*
X150327690Y-85180456D01*
X150470890Y-85090477D01*
X150590477Y-84970890D01*
X150680456Y-84827690D01*
X150736313Y-84668059D01*
X150755249Y-84500000D01*
X150736313Y-84331941D01*
X150680456Y-84172310D01*
X150590477Y-84029110D01*
X150470890Y-83909523D01*
X150384514Y-83855249D01*
X150332398Y-83822502D01*
X150332396Y-83822501D01*
X150327690Y-83819544D01*
X150168059Y-83763687D01*
X150000000Y-83744751D01*
X149831941Y-83763687D01*
X149672310Y-83819544D01*
X149667604Y-83822501D01*
X149667602Y-83822502D01*
X149615486Y-83855249D01*
X149529110Y-83909523D01*
X149409523Y-84029110D01*
X149319544Y-84172310D01*
X149263687Y-84331941D01*
X149244751Y-84500000D01*
X133200000Y-84500000D01*
X133200000Y-83351314D01*
X133218907Y-83293123D01*
X133268407Y-83257159D01*
X133329593Y-83257159D01*
X133351670Y-83267488D01*
X133367597Y-83277495D01*
X133367600Y-83277496D01*
X133372310Y-83280456D01*
X133531941Y-83336313D01*
X133700000Y-83355249D01*
X133705529Y-83354626D01*
X133734924Y-83351314D01*
X133868059Y-83336313D01*
X134027690Y-83280456D01*
X134032403Y-83277495D01*
X134166181Y-83193436D01*
X134166182Y-83193435D01*
X134170890Y-83190477D01*
X134290477Y-83070890D01*
X134331546Y-83005529D01*
X134377498Y-82932398D01*
X134377499Y-82932396D01*
X134380456Y-82927690D01*
X134436313Y-82768059D01*
X134446989Y-82673308D01*
X134448104Y-82663415D01*
X134473408Y-82607707D01*
X134526623Y-82577512D01*
X134546481Y-82575500D01*
X136764081Y-82575500D01*
X136822272Y-82594407D01*
X136858236Y-82643907D01*
X136858236Y-82705093D01*
X136847906Y-82727172D01*
X136819544Y-82772310D01*
X136763687Y-82931941D01*
X136763064Y-82937470D01*
X136756641Y-82994471D01*
X136744751Y-83100000D01*
X136763687Y-83268059D01*
X136819544Y-83427690D01*
X136822501Y-83432396D01*
X136822502Y-83432398D01*
X136906564Y-83566181D01*
X136909523Y-83570890D01*
X137029110Y-83690477D01*
X137033818Y-83693435D01*
X137033819Y-83693436D01*
X137132194Y-83755249D01*
X137172310Y-83780456D01*
X137331941Y-83836313D01*
X137500000Y-83855249D01*
X137505529Y-83854626D01*
X137662530Y-83836936D01*
X137668059Y-83836313D01*
X137827690Y-83780456D01*
X137867807Y-83755249D01*
X137966181Y-83693436D01*
X137966182Y-83693435D01*
X137970890Y-83690477D01*
X138090477Y-83570890D01*
X138150842Y-83474821D01*
X138179337Y-83429471D01*
X138226306Y-83390259D01*
X138287353Y-83386143D01*
X138295860Y-83388697D01*
X138379609Y-83418001D01*
X138431941Y-83436313D01*
X138600000Y-83455249D01*
X138605529Y-83454626D01*
X138762530Y-83436936D01*
X138768059Y-83436313D01*
X138927690Y-83380456D01*
X138967807Y-83355249D01*
X139066181Y-83293436D01*
X139066182Y-83293435D01*
X139070890Y-83290477D01*
X139134696Y-83226671D01*
X139189213Y-83198894D01*
X139237398Y-83203231D01*
X139326690Y-83234476D01*
X139326693Y-83234477D01*
X139331941Y-83236313D01*
X139337468Y-83236936D01*
X139337469Y-83236936D01*
X139494471Y-83254626D01*
X139500000Y-83255249D01*
X139505529Y-83254626D01*
X139662530Y-83236936D01*
X139668059Y-83236313D01*
X139827690Y-83180456D01*
X139842915Y-83170890D01*
X139966181Y-83093436D01*
X139966182Y-83093435D01*
X139970890Y-83090477D01*
X140090477Y-82970890D01*
X140114663Y-82932398D01*
X140177498Y-82832398D01*
X140177499Y-82832396D01*
X140180456Y-82827690D01*
X140236313Y-82668059D01*
X140255249Y-82500000D01*
X140236313Y-82331941D01*
X140180456Y-82172310D01*
X140177495Y-82167597D01*
X140167488Y-82151670D01*
X140152538Y-82092339D01*
X140175318Y-82035552D01*
X140227125Y-82003000D01*
X140251314Y-82000000D01*
X141074402Y-82000000D01*
X141132593Y-82018907D01*
G37*
%TD.AperFunction*%
%TD*%
%TA.AperFunction,Conductor*%
%TO.N,/Driver/PhaseC*%
G36*
X159006434Y-122000847D02*
G01*
X159116487Y-122015336D01*
X159141451Y-122022025D01*
X159237957Y-122061999D01*
X159260339Y-122074921D01*
X159343213Y-122138513D01*
X159361487Y-122156787D01*
X159425079Y-122239661D01*
X159438001Y-122262043D01*
X159477975Y-122358549D01*
X159484664Y-122383513D01*
X159499153Y-122493566D01*
X159500000Y-122506488D01*
X159500000Y-138493512D01*
X159499153Y-138506434D01*
X159484664Y-138616487D01*
X159477975Y-138641451D01*
X159438001Y-138737957D01*
X159425079Y-138760339D01*
X159361487Y-138843213D01*
X159343213Y-138861487D01*
X159260339Y-138925079D01*
X159237957Y-138938001D01*
X159141451Y-138977975D01*
X159116487Y-138984664D01*
X159006434Y-138999153D01*
X158993512Y-139000000D01*
X148506488Y-139000000D01*
X148493566Y-138999153D01*
X148383513Y-138984664D01*
X148358549Y-138977975D01*
X148262043Y-138938001D01*
X148239661Y-138925079D01*
X148156787Y-138861487D01*
X148138513Y-138843213D01*
X148074921Y-138760339D01*
X148061999Y-138737957D01*
X148022025Y-138641451D01*
X148015336Y-138616487D01*
X148000847Y-138506434D01*
X148000000Y-138493512D01*
X148000000Y-133567765D01*
X151645788Y-133567765D01*
X151675414Y-133837018D01*
X151743928Y-134099088D01*
X151745344Y-134102420D01*
X151745345Y-134102423D01*
X151799089Y-134228892D01*
X151849870Y-134348390D01*
X151990982Y-134579610D01*
X152164255Y-134787820D01*
X152166949Y-134790234D01*
X152166953Y-134790238D01*
X152266334Y-134879283D01*
X152365998Y-134968582D01*
X152591910Y-135118044D01*
X152720328Y-135178244D01*
X152833901Y-135231485D01*
X152833904Y-135231486D01*
X152837176Y-135233020D01*
X153096569Y-135311060D01*
X153230565Y-135330780D01*
X153360979Y-135349973D01*
X153360981Y-135349973D01*
X153364561Y-135350500D01*
X153567631Y-135350500D01*
X153770156Y-135335677D01*
X153773673Y-135334894D01*
X153773677Y-135334893D01*
X154031030Y-135277565D01*
X154031033Y-135277564D01*
X154034553Y-135276780D01*
X154287558Y-135180014D01*
X154523777Y-135047441D01*
X154738177Y-134881888D01*
X154740689Y-134879283D01*
X154923675Y-134689486D01*
X154923678Y-134689482D01*
X154926186Y-134686881D01*
X155083799Y-134466579D01*
X155207656Y-134225675D01*
X155295118Y-133969305D01*
X155344319Y-133702933D01*
X155354212Y-133432235D01*
X155324586Y-133162982D01*
X155256072Y-132900912D01*
X155202279Y-132774325D01*
X155151547Y-132654944D01*
X155151546Y-132654942D01*
X155150130Y-132651610D01*
X155009018Y-132420390D01*
X154835745Y-132212180D01*
X154833051Y-132209766D01*
X154833047Y-132209762D01*
X154725355Y-132113271D01*
X154634002Y-132031418D01*
X154408090Y-131881956D01*
X154243246Y-131804680D01*
X154166099Y-131768515D01*
X154166096Y-131768514D01*
X154162824Y-131766980D01*
X153903431Y-131688940D01*
X153769435Y-131669220D01*
X153639021Y-131650027D01*
X153639019Y-131650027D01*
X153635439Y-131649500D01*
X153432369Y-131649500D01*
X153229844Y-131664323D01*
X153226327Y-131665106D01*
X153226323Y-131665107D01*
X152968970Y-131722435D01*
X152968967Y-131722436D01*
X152965447Y-131723220D01*
X152712442Y-131819986D01*
X152476223Y-131952559D01*
X152261823Y-132118112D01*
X152259315Y-132120714D01*
X152259311Y-132120717D01*
X152076325Y-132310514D01*
X152076322Y-132310518D01*
X152073814Y-132313119D01*
X151916201Y-132533421D01*
X151792344Y-132774325D01*
X151704882Y-133030695D01*
X151655681Y-133297067D01*
X151645788Y-133567765D01*
X148000000Y-133567765D01*
X148000000Y-128506488D01*
X148000847Y-128493566D01*
X148015336Y-128383513D01*
X148022025Y-128358549D01*
X148061999Y-128262043D01*
X148074921Y-128239661D01*
X148138513Y-128156787D01*
X148156787Y-128138513D01*
X148239661Y-128074921D01*
X148262043Y-128061999D01*
X148358549Y-128022025D01*
X148383513Y-128015336D01*
X148493566Y-128000847D01*
X148506488Y-128000000D01*
X156000000Y-128000000D01*
X156000000Y-122506488D01*
X156000847Y-122493566D01*
X156015336Y-122383513D01*
X156022025Y-122358549D01*
X156061999Y-122262043D01*
X156074921Y-122239661D01*
X156138513Y-122156787D01*
X156156787Y-122138513D01*
X156239661Y-122074921D01*
X156262043Y-122061999D01*
X156358549Y-122022025D01*
X156383513Y-122015336D01*
X156493566Y-122000847D01*
X156506488Y-122000000D01*
X158993512Y-122000000D01*
X159006434Y-122000847D01*
G37*
%TD.AperFunction*%
%TD*%
%TA.AperFunction,Conductor*%
%TO.N,/Driver/VS1*%
G36*
X106006433Y-116500847D02*
G01*
X106049380Y-116506501D01*
X106116488Y-116515336D01*
X106141451Y-116522025D01*
X106237955Y-116561998D01*
X106260338Y-116574920D01*
X106343213Y-116638513D01*
X106361487Y-116656787D01*
X106425080Y-116739662D01*
X106438002Y-116762045D01*
X106477975Y-116858549D01*
X106484664Y-116883512D01*
X106499153Y-116993566D01*
X106500000Y-117006488D01*
X106500000Y-122000000D01*
X107993512Y-122000000D01*
X108006434Y-122000847D01*
X108116487Y-122015336D01*
X108141451Y-122022025D01*
X108237957Y-122061999D01*
X108260339Y-122074921D01*
X108343213Y-122138513D01*
X108361487Y-122156787D01*
X108425079Y-122239661D01*
X108438001Y-122262043D01*
X108477975Y-122358549D01*
X108484664Y-122383513D01*
X108499153Y-122493566D01*
X108500000Y-122506488D01*
X108500000Y-126993512D01*
X108499153Y-127006434D01*
X108484664Y-127116487D01*
X108477975Y-127141451D01*
X108438001Y-127237957D01*
X108425079Y-127260339D01*
X108361487Y-127343213D01*
X108343213Y-127361487D01*
X108260339Y-127425079D01*
X108237957Y-127438001D01*
X108141451Y-127477975D01*
X108116488Y-127484664D01*
X108080137Y-127489450D01*
X108048209Y-127493653D01*
X108035289Y-127494500D01*
X105464888Y-127494500D01*
X105451964Y-127493653D01*
X105415674Y-127488875D01*
X105383650Y-127484658D01*
X105358684Y-127477967D01*
X105262159Y-127437976D01*
X105239775Y-127425049D01*
X105156891Y-127361432D01*
X105138621Y-127343156D01*
X105075026Y-127260244D01*
X105062110Y-127237861D01*
X105022152Y-127141326D01*
X105015468Y-127116356D01*
X105003714Y-127026870D01*
X105001008Y-127006270D01*
X105000165Y-126993346D01*
X105000745Y-125210497D01*
X105000745Y-125210496D01*
X105000746Y-125207250D01*
X105000746Y-125207247D01*
X105000813Y-125000000D01*
X104854244Y-124853479D01*
X104854242Y-124853476D01*
X102646437Y-122646389D01*
X102646435Y-122646388D01*
X102500000Y-122500000D01*
X101600742Y-122500000D01*
X96007845Y-122499996D01*
X95994925Y-122499149D01*
X95952511Y-122493566D01*
X95884888Y-122484664D01*
X95859932Y-122477978D01*
X95811682Y-122457996D01*
X95763435Y-122438015D01*
X95741060Y-122425100D01*
X95658183Y-122361520D01*
X95639916Y-122343257D01*
X95577580Y-122262043D01*
X95576323Y-122260406D01*
X95563399Y-122238029D01*
X95523412Y-122141542D01*
X95516719Y-122116585D01*
X95503590Y-122017037D01*
X95502207Y-122006547D01*
X95501357Y-121993632D01*
X95501354Y-121980479D01*
X95501343Y-121933013D01*
X95500955Y-120361792D01*
X95500880Y-120057348D01*
X95519773Y-119999153D01*
X95527043Y-119990274D01*
X95567776Y-119946026D01*
X95567784Y-119946016D01*
X95570551Y-119943010D01*
X95702255Y-119741422D01*
X95798983Y-119520905D01*
X95858095Y-119287476D01*
X95873000Y-119107600D01*
X95873000Y-118892400D01*
X95858095Y-118712524D01*
X95798983Y-118479095D01*
X95702255Y-118258578D01*
X95570551Y-118056990D01*
X95567784Y-118053984D01*
X95567776Y-118053974D01*
X95526520Y-118009159D01*
X95501018Y-117953541D01*
X95500936Y-117952127D01*
X98047000Y-117952127D01*
X98047001Y-120047872D01*
X98053409Y-120107483D01*
X98103704Y-120242331D01*
X98189954Y-120357546D01*
X98305169Y-120443796D01*
X98440017Y-120494091D01*
X98446170Y-120494753D01*
X98446172Y-120494753D01*
X98463966Y-120496666D01*
X98499627Y-120500500D01*
X99499811Y-120500500D01*
X100500372Y-120500499D01*
X100559983Y-120494091D01*
X100694831Y-120443796D01*
X100810046Y-120357546D01*
X100896296Y-120242331D01*
X100946591Y-120107483D01*
X100947254Y-120101322D01*
X100952717Y-120050501D01*
X100953000Y-120047873D01*
X100952999Y-117952128D01*
X100946591Y-117892517D01*
X100896296Y-117757669D01*
X100810046Y-117642454D01*
X100694831Y-117556204D01*
X100559983Y-117505909D01*
X100553830Y-117505247D01*
X100553828Y-117505247D01*
X100536034Y-117503334D01*
X100500373Y-117499500D01*
X99500190Y-117499500D01*
X98499628Y-117499501D01*
X98440017Y-117505909D01*
X98305169Y-117556204D01*
X98189954Y-117642454D01*
X98103704Y-117757669D01*
X98053409Y-117892517D01*
X98052747Y-117898670D01*
X98052747Y-117898672D01*
X98050834Y-117916466D01*
X98047000Y-117952127D01*
X95500936Y-117952127D01*
X95500357Y-117942146D01*
X95500126Y-117006614D01*
X95500970Y-116993691D01*
X95515435Y-116883617D01*
X95522120Y-116858647D01*
X95562083Y-116762117D01*
X95575003Y-116739730D01*
X95638596Y-116656830D01*
X95656866Y-116638556D01*
X95698307Y-116606750D01*
X95739746Y-116574947D01*
X95762129Y-116562022D01*
X95858651Y-116522033D01*
X95883618Y-116515341D01*
X95993691Y-116500848D01*
X96006615Y-116500001D01*
X105993512Y-116500000D01*
X106006433Y-116500847D01*
G37*
%TD.AperFunction*%
%TD*%
%TA.AperFunction,Conductor*%
%TO.N,/Driver/72V*%
G36*
X92506434Y-88000847D02*
G01*
X92616487Y-88015336D01*
X92641451Y-88022025D01*
X92737957Y-88061999D01*
X92760339Y-88074921D01*
X92843213Y-88138513D01*
X92861487Y-88156787D01*
X92925079Y-88239661D01*
X92938001Y-88262043D01*
X92977975Y-88358549D01*
X92984664Y-88383512D01*
X92996840Y-88475994D01*
X92984423Y-88538415D01*
X92961683Y-88577803D01*
X92921344Y-88647671D01*
X92921342Y-88647676D01*
X92918750Y-88652165D01*
X92903245Y-88699885D01*
X92865105Y-88817265D01*
X92865104Y-88817270D01*
X92863503Y-88822197D01*
X92844815Y-89000000D01*
X92863503Y-89177803D01*
X92865104Y-89182730D01*
X92865105Y-89182735D01*
X92903245Y-89300115D01*
X92918750Y-89347835D01*
X92988289Y-89468281D01*
X93000000Y-89502781D01*
X93000000Y-89999505D01*
X98993503Y-89999505D01*
X99006425Y-90000352D01*
X99116479Y-90014841D01*
X99141444Y-90021530D01*
X99237952Y-90061506D01*
X99260333Y-90074428D01*
X99343207Y-90138020D01*
X99361482Y-90156295D01*
X99425073Y-90239170D01*
X99437995Y-90261553D01*
X99477969Y-90358064D01*
X99484657Y-90383027D01*
X99499144Y-90493078D01*
X99499991Y-90505999D01*
X99499855Y-98213232D01*
X99499824Y-99977498D01*
X99499807Y-100947553D01*
X99480899Y-101005743D01*
X99453478Y-101031377D01*
X99432194Y-101044751D01*
X99329110Y-101109523D01*
X99209523Y-101229110D01*
X99206565Y-101233818D01*
X99206564Y-101233819D01*
X99131701Y-101352963D01*
X99119544Y-101372310D01*
X99063687Y-101531941D01*
X99044751Y-101700000D01*
X99063687Y-101868059D01*
X99119544Y-102027690D01*
X99122501Y-102032396D01*
X99122502Y-102032398D01*
X99206564Y-102166181D01*
X99209523Y-102170890D01*
X99329110Y-102290477D01*
X99333821Y-102293437D01*
X99453453Y-102368608D01*
X99492665Y-102415576D01*
X99499780Y-102452431D01*
X99499709Y-106499505D01*
X99999621Y-106499602D01*
X100002855Y-106499603D01*
X100002861Y-106499603D01*
X116882824Y-106502876D01*
X126144123Y-106504672D01*
X144546393Y-106508240D01*
X144604580Y-106527159D01*
X144640535Y-106576666D01*
X144644237Y-106600058D01*
X144644751Y-106600000D01*
X144663687Y-106768059D01*
X144719544Y-106927690D01*
X144722501Y-106932396D01*
X144722502Y-106932398D01*
X144775494Y-107016733D01*
X144809523Y-107070890D01*
X144929110Y-107190477D01*
X145072310Y-107280456D01*
X145231941Y-107336313D01*
X145400000Y-107355249D01*
X145405529Y-107354626D01*
X145562530Y-107336936D01*
X145568059Y-107336313D01*
X145727690Y-107280456D01*
X145870890Y-107190477D01*
X145990477Y-107070890D01*
X146024506Y-107016733D01*
X146077498Y-106932398D01*
X146077499Y-106932396D01*
X146080456Y-106927690D01*
X146136313Y-106768059D01*
X146155249Y-106600000D01*
X146157021Y-106600200D01*
X146173533Y-106549380D01*
X146223033Y-106513416D01*
X146253644Y-106508571D01*
X149483268Y-106509197D01*
X154993341Y-106510266D01*
X155006261Y-106511115D01*
X155116297Y-106525621D01*
X155141256Y-106532313D01*
X155182444Y-106549380D01*
X155237745Y-106572295D01*
X155260117Y-106585215D01*
X155342978Y-106648808D01*
X155361243Y-106667076D01*
X155403682Y-106722389D01*
X155424821Y-106749942D01*
X155437739Y-106772319D01*
X155477707Y-106868813D01*
X155484396Y-106893773D01*
X155498886Y-107003813D01*
X155499733Y-107016733D01*
X155499820Y-108799500D01*
X155500000Y-112499505D01*
X157993499Y-112499505D01*
X158006422Y-112500352D01*
X158116479Y-112514842D01*
X158141442Y-112521531D01*
X158237952Y-112561507D01*
X158260334Y-112574430D01*
X158343205Y-112638021D01*
X158361480Y-112656296D01*
X158425070Y-112739171D01*
X158437992Y-112761553D01*
X158477967Y-112858066D01*
X158484655Y-112883029D01*
X158499142Y-112993079D01*
X158499989Y-113006000D01*
X158499981Y-113349973D01*
X158499808Y-120992826D01*
X158498960Y-121005751D01*
X158484463Y-121115825D01*
X158477770Y-121140795D01*
X158437771Y-121237328D01*
X158424844Y-121259711D01*
X158361223Y-121342592D01*
X158342946Y-121360862D01*
X158262547Y-121422523D01*
X158260032Y-121424452D01*
X158237643Y-121437370D01*
X158141097Y-121477325D01*
X158116128Y-121484007D01*
X158045760Y-121493244D01*
X158042607Y-121493658D01*
X158029722Y-121494500D01*
X156506488Y-121494500D01*
X156505664Y-121494527D01*
X156505662Y-121494527D01*
X156474250Y-121495555D01*
X156473425Y-121495582D01*
X156460503Y-121496429D01*
X156459733Y-121496505D01*
X156459719Y-121496506D01*
X156442626Y-121498190D01*
X156432881Y-121498667D01*
X155407444Y-121498251D01*
X152511528Y-121497076D01*
X152498659Y-121496229D01*
X152388961Y-121481789D01*
X152364081Y-121475136D01*
X152267844Y-121435373D01*
X152245520Y-121422523D01*
X152162804Y-121359281D01*
X152144554Y-121341110D01*
X152080949Y-121258663D01*
X152068008Y-121236405D01*
X152027828Y-121140342D01*
X152021065Y-121115489D01*
X152010897Y-121040757D01*
X152006148Y-121005852D01*
X152005247Y-120992997D01*
X151990810Y-117952127D01*
X154087000Y-117952127D01*
X154087001Y-120047872D01*
X154093409Y-120107483D01*
X154143704Y-120242331D01*
X154229954Y-120357546D01*
X154345169Y-120443796D01*
X154480017Y-120494091D01*
X154486170Y-120494753D01*
X154486172Y-120494753D01*
X154503966Y-120496666D01*
X154539627Y-120500500D01*
X155539811Y-120500500D01*
X156540372Y-120500499D01*
X156599983Y-120494091D01*
X156734831Y-120443796D01*
X156850046Y-120357546D01*
X156936296Y-120242331D01*
X156986591Y-120107483D01*
X156987254Y-120101322D01*
X156992717Y-120050501D01*
X156993000Y-120047873D01*
X156992999Y-117952128D01*
X156986591Y-117892517D01*
X156936296Y-117757669D01*
X156850046Y-117642454D01*
X156734831Y-117556204D01*
X156599983Y-117505909D01*
X156593830Y-117505247D01*
X156593828Y-117505247D01*
X156576034Y-117503334D01*
X156540373Y-117499500D01*
X155540190Y-117499500D01*
X154539628Y-117499501D01*
X154480017Y-117505909D01*
X154345169Y-117556204D01*
X154229954Y-117642454D01*
X154143704Y-117757669D01*
X154093409Y-117892517D01*
X154092747Y-117898670D01*
X154092747Y-117898672D01*
X154090834Y-117916466D01*
X154087000Y-117952127D01*
X151990810Y-117952127D01*
X151981527Y-115996874D01*
X151483811Y-115996961D01*
X151483808Y-115996961D01*
X144471979Y-115998192D01*
X137503153Y-115999416D01*
X137503146Y-115999416D01*
X137499912Y-115999417D01*
X137499910Y-115999417D01*
X137000000Y-115999505D01*
X137000000Y-120993017D01*
X136999153Y-121005939D01*
X136984664Y-121115992D01*
X136977975Y-121140956D01*
X136938001Y-121237462D01*
X136925079Y-121259844D01*
X136861487Y-121342718D01*
X136843213Y-121360992D01*
X136760339Y-121424584D01*
X136737957Y-121437506D01*
X136641451Y-121477480D01*
X136616487Y-121484169D01*
X136506434Y-121498658D01*
X136493512Y-121499505D01*
X130053065Y-121499505D01*
X130040143Y-121498658D01*
X129930090Y-121484169D01*
X129905126Y-121477480D01*
X129808620Y-121437506D01*
X129786238Y-121424584D01*
X129703364Y-121360992D01*
X129685090Y-121342718D01*
X129621498Y-121259844D01*
X129608576Y-121237462D01*
X129568602Y-121140956D01*
X129561913Y-121115992D01*
X129547424Y-121005939D01*
X129546577Y-120993017D01*
X129546577Y-117952127D01*
X131547000Y-117952127D01*
X131547001Y-120047872D01*
X131553409Y-120107483D01*
X131603704Y-120242331D01*
X131689954Y-120357546D01*
X131805169Y-120443796D01*
X131940017Y-120494091D01*
X131946170Y-120494753D01*
X131946172Y-120494753D01*
X131963966Y-120496666D01*
X131999627Y-120500500D01*
X132999811Y-120500500D01*
X134000372Y-120500499D01*
X134059983Y-120494091D01*
X134194831Y-120443796D01*
X134310046Y-120357546D01*
X134396296Y-120242331D01*
X134446591Y-120107483D01*
X134447254Y-120101322D01*
X134452717Y-120050501D01*
X134453000Y-120047873D01*
X134452999Y-117952128D01*
X134446591Y-117892517D01*
X134396296Y-117757669D01*
X134310046Y-117642454D01*
X134194831Y-117556204D01*
X134059983Y-117505909D01*
X134053830Y-117505247D01*
X134053828Y-117505247D01*
X134036034Y-117503334D01*
X134000373Y-117499500D01*
X133000190Y-117499500D01*
X131999628Y-117499501D01*
X131940017Y-117505909D01*
X131805169Y-117556204D01*
X131689954Y-117642454D01*
X131603704Y-117757669D01*
X131553409Y-117892517D01*
X131552747Y-117898670D01*
X131552747Y-117898672D01*
X131550834Y-117916466D01*
X131547000Y-117952127D01*
X129546577Y-117952127D01*
X129546577Y-115999505D01*
X114000000Y-115999505D01*
X114000006Y-116499511D01*
X114000006Y-116502752D01*
X114000060Y-120993019D01*
X113999213Y-121005942D01*
X113984725Y-121115993D01*
X113978037Y-121140955D01*
X113938063Y-121237465D01*
X113925141Y-121259847D01*
X113861552Y-121342721D01*
X113843282Y-121360992D01*
X113760403Y-121424589D01*
X113738027Y-121437508D01*
X113641515Y-121477485D01*
X113616553Y-121484174D01*
X113544565Y-121493653D01*
X113531641Y-121494500D01*
X111006488Y-121494500D01*
X111005664Y-121494527D01*
X111005662Y-121494527D01*
X110974250Y-121495555D01*
X110973425Y-121495582D01*
X110960503Y-121496429D01*
X110959719Y-121496506D01*
X110959685Y-121496509D01*
X110933705Y-121499069D01*
X110924000Y-121499546D01*
X110858783Y-121499547D01*
X108076380Y-121499583D01*
X108066674Y-121499106D01*
X108040281Y-121496506D01*
X108040267Y-121496505D01*
X108039497Y-121496429D01*
X108026575Y-121495582D01*
X108025750Y-121495555D01*
X107994338Y-121494527D01*
X107994336Y-121494527D01*
X107993512Y-121494500D01*
X107467023Y-121494500D01*
X107454116Y-121493655D01*
X107454101Y-121493653D01*
X107382887Y-121484289D01*
X107357948Y-121477614D01*
X107357637Y-121477485D01*
X107326403Y-121464563D01*
X107261519Y-121437718D01*
X107239153Y-121424821D01*
X107238672Y-121424452D01*
X107156324Y-121361354D01*
X107138055Y-121343115D01*
X107074449Y-121260387D01*
X107061515Y-121238042D01*
X107021462Y-121141680D01*
X107014746Y-121116751D01*
X107006366Y-121053826D01*
X107005500Y-121040757D01*
X107005500Y-117952127D01*
X109047000Y-117952127D01*
X109047001Y-120047872D01*
X109053409Y-120107483D01*
X109103704Y-120242331D01*
X109189954Y-120357546D01*
X109305169Y-120443796D01*
X109440017Y-120494091D01*
X109446170Y-120494753D01*
X109446172Y-120494753D01*
X109463966Y-120496666D01*
X109499627Y-120500500D01*
X110499811Y-120500500D01*
X111500372Y-120500499D01*
X111559983Y-120494091D01*
X111694831Y-120443796D01*
X111810046Y-120357546D01*
X111896296Y-120242331D01*
X111946591Y-120107483D01*
X111947254Y-120101322D01*
X111952717Y-120050501D01*
X111953000Y-120047873D01*
X111952999Y-117952128D01*
X111946591Y-117892517D01*
X111896296Y-117757669D01*
X111810046Y-117642454D01*
X111694831Y-117556204D01*
X111559983Y-117505909D01*
X111553830Y-117505247D01*
X111553828Y-117505247D01*
X111536034Y-117503334D01*
X111500373Y-117499500D01*
X110500190Y-117499500D01*
X109499628Y-117499501D01*
X109440017Y-117505909D01*
X109305169Y-117556204D01*
X109189954Y-117642454D01*
X109103704Y-117757669D01*
X109053409Y-117892517D01*
X109052747Y-117898670D01*
X109052747Y-117898672D01*
X109050834Y-117916466D01*
X109047000Y-117952127D01*
X107005500Y-117952127D01*
X107005500Y-117006488D01*
X107004418Y-116973425D01*
X107004286Y-116971415D01*
X107003626Y-116961335D01*
X107003624Y-116961307D01*
X107003571Y-116960503D01*
X107000328Y-116927584D01*
X107000223Y-116926784D01*
X107000219Y-116926752D01*
X106993350Y-116874580D01*
X106992503Y-116861819D01*
X106992483Y-116849559D01*
X106991911Y-116498779D01*
X106991097Y-115999598D01*
X106491917Y-115999594D01*
X106491915Y-115999594D01*
X106076451Y-115999591D01*
X106066749Y-115999114D01*
X106040311Y-115996510D01*
X106040312Y-115996510D01*
X106039499Y-115996430D01*
X106038708Y-115996378D01*
X106038694Y-115996377D01*
X106027406Y-115995637D01*
X106027389Y-115995636D01*
X106026578Y-115995583D01*
X105993512Y-115994500D01*
X101006116Y-115994500D01*
X96006615Y-115994501D01*
X95973557Y-115995583D01*
X95966316Y-115996058D01*
X95961453Y-115996376D01*
X95961437Y-115996377D01*
X95960633Y-115996430D01*
X95959845Y-115996508D01*
X95959816Y-115996510D01*
X95938788Y-115998582D01*
X95934148Y-115999039D01*
X95924451Y-115999516D01*
X94500004Y-115999505D01*
X94500072Y-116499576D01*
X94500072Y-116502816D01*
X94500085Y-116593047D01*
X94499240Y-116605971D01*
X94484764Y-116716036D01*
X94478078Y-116740999D01*
X94438111Y-116837520D01*
X94425193Y-116859900D01*
X94361608Y-116942783D01*
X94343335Y-116961060D01*
X94260461Y-117024663D01*
X94238081Y-117037587D01*
X94141570Y-117077571D01*
X94116607Y-117084262D01*
X94006550Y-117098759D01*
X93993627Y-117099607D01*
X87228894Y-117100007D01*
X82025302Y-117100315D01*
X82012406Y-117099471D01*
X81902453Y-117085019D01*
X81877520Y-117078347D01*
X81813518Y-117051872D01*
X81781095Y-117038460D01*
X81758731Y-117025567D01*
X81689595Y-116972602D01*
X81675896Y-116962107D01*
X81657629Y-116943874D01*
X81594013Y-116861147D01*
X81581082Y-116838811D01*
X81580544Y-116837515D01*
X81541021Y-116742456D01*
X81534303Y-116717530D01*
X81519652Y-116607620D01*
X81518784Y-116594713D01*
X81518623Y-116502816D01*
X81518617Y-116499511D01*
X81515105Y-114500000D01*
X118244751Y-114500000D01*
X118263687Y-114668059D01*
X118319544Y-114827690D01*
X118409523Y-114970890D01*
X118529110Y-115090477D01*
X118672310Y-115180456D01*
X118831941Y-115236313D01*
X119000000Y-115255249D01*
X119005529Y-115254626D01*
X119162530Y-115236936D01*
X119168059Y-115236313D01*
X119327690Y-115180456D01*
X119470890Y-115090477D01*
X119590477Y-114970890D01*
X119680456Y-114827690D01*
X119736313Y-114668059D01*
X119755249Y-114500000D01*
X141744751Y-114500000D01*
X141763687Y-114668059D01*
X141819544Y-114827690D01*
X141909523Y-114970890D01*
X142029110Y-115090477D01*
X142172310Y-115180456D01*
X142331941Y-115236313D01*
X142500000Y-115255249D01*
X142505529Y-115254626D01*
X142662530Y-115236936D01*
X142668059Y-115236313D01*
X142827690Y-115180456D01*
X142970890Y-115090477D01*
X143090477Y-114970890D01*
X143180456Y-114827690D01*
X143236313Y-114668059D01*
X143255249Y-114500000D01*
X143236313Y-114331941D01*
X143180456Y-114172310D01*
X143090477Y-114029110D01*
X142970890Y-113909523D01*
X142827690Y-113819544D01*
X142668059Y-113763687D01*
X142500000Y-113744751D01*
X142331941Y-113763687D01*
X142172310Y-113819544D01*
X142029110Y-113909523D01*
X141909523Y-114029110D01*
X141819544Y-114172310D01*
X141763687Y-114331941D01*
X141744751Y-114500000D01*
X119755249Y-114500000D01*
X119736313Y-114331941D01*
X119680456Y-114172310D01*
X119590477Y-114029110D01*
X119470890Y-113909523D01*
X119327690Y-113819544D01*
X119168059Y-113763687D01*
X119000000Y-113744751D01*
X118831941Y-113763687D01*
X118672310Y-113819544D01*
X118529110Y-113909523D01*
X118409523Y-114029110D01*
X118319544Y-114172310D01*
X118263687Y-114331941D01*
X118244751Y-114500000D01*
X81515105Y-114500000D01*
X81509955Y-111567765D01*
X85145788Y-111567765D01*
X85175414Y-111837018D01*
X85176328Y-111840513D01*
X85240450Y-112085783D01*
X85243928Y-112099088D01*
X85245344Y-112102420D01*
X85245345Y-112102423D01*
X85344315Y-112335319D01*
X85349870Y-112348390D01*
X85490982Y-112579610D01*
X85664255Y-112787820D01*
X85666949Y-112790234D01*
X85666953Y-112790238D01*
X85742654Y-112858066D01*
X85865998Y-112968582D01*
X86091910Y-113118044D01*
X86220328Y-113178244D01*
X86333901Y-113231485D01*
X86333904Y-113231486D01*
X86337176Y-113233020D01*
X86596569Y-113311060D01*
X86730565Y-113330780D01*
X86860979Y-113349973D01*
X86860981Y-113349973D01*
X86864561Y-113350500D01*
X87067631Y-113350500D01*
X87270156Y-113335677D01*
X87273673Y-113334894D01*
X87273677Y-113334893D01*
X87531030Y-113277565D01*
X87531033Y-113277564D01*
X87534553Y-113276780D01*
X87787558Y-113180014D01*
X88023777Y-113047441D01*
X88238177Y-112881888D01*
X88240689Y-112879283D01*
X88423675Y-112689486D01*
X88423678Y-112689482D01*
X88426186Y-112686881D01*
X88583799Y-112466579D01*
X88707656Y-112225675D01*
X88792011Y-111978413D01*
X88793949Y-111972733D01*
X88793951Y-111972727D01*
X88795118Y-111969305D01*
X88844319Y-111702933D01*
X88851639Y-111502637D01*
X88854080Y-111435851D01*
X88854080Y-111435849D01*
X88854212Y-111432235D01*
X88824586Y-111162982D01*
X88756072Y-110900912D01*
X88721495Y-110819544D01*
X88651547Y-110654944D01*
X88651546Y-110654942D01*
X88650130Y-110651610D01*
X88557603Y-110500000D01*
X95294732Y-110500000D01*
X95313778Y-110754157D01*
X95314603Y-110757771D01*
X95369047Y-110996304D01*
X95370492Y-111002637D01*
X95426087Y-111144290D01*
X95439121Y-111177498D01*
X95463607Y-111239888D01*
X95465455Y-111243089D01*
X95465457Y-111243093D01*
X95576745Y-111435851D01*
X95591041Y-111460612D01*
X95749950Y-111659877D01*
X95936783Y-111833232D01*
X96147366Y-111976805D01*
X96376996Y-112087389D01*
X96380531Y-112088479D01*
X96380530Y-112088479D01*
X96617001Y-112161421D01*
X96617004Y-112161422D01*
X96620542Y-112162513D01*
X96624211Y-112163066D01*
X96868900Y-112199948D01*
X96868906Y-112199948D01*
X96872565Y-112200500D01*
X97127435Y-112200500D01*
X97131094Y-112199948D01*
X97131100Y-112199948D01*
X97375789Y-112163066D01*
X97379458Y-112162513D01*
X97382996Y-112161422D01*
X97382999Y-112161421D01*
X97619470Y-112088479D01*
X97619469Y-112088479D01*
X97623004Y-112087389D01*
X97852634Y-111976805D01*
X98063217Y-111833232D01*
X98250050Y-111659877D01*
X98408959Y-111460612D01*
X98423255Y-111435851D01*
X98534543Y-111243093D01*
X98534545Y-111243089D01*
X98536393Y-111239888D01*
X98560880Y-111177498D01*
X98573913Y-111144290D01*
X98629508Y-111002637D01*
X98630954Y-110996304D01*
X98685397Y-110757771D01*
X98686222Y-110754157D01*
X98705268Y-110500000D01*
X110244751Y-110500000D01*
X110263687Y-110668059D01*
X110319544Y-110827690D01*
X110322501Y-110832396D01*
X110322502Y-110832398D01*
X110367754Y-110904415D01*
X110409523Y-110970890D01*
X110529110Y-111090477D01*
X110533818Y-111093435D01*
X110533819Y-111093436D01*
X110659346Y-111172310D01*
X110672310Y-111180456D01*
X110831941Y-111236313D01*
X110837470Y-111236936D01*
X110892114Y-111243093D01*
X111000000Y-111255249D01*
X111005529Y-111254626D01*
X111009692Y-111254157D01*
X111107886Y-111243093D01*
X111162530Y-111236936D01*
X111168059Y-111236313D01*
X111327690Y-111180456D01*
X111340655Y-111172310D01*
X111466181Y-111093436D01*
X111466182Y-111093435D01*
X111470890Y-111090477D01*
X111590477Y-110970890D01*
X111632246Y-110904415D01*
X111677498Y-110832398D01*
X111677499Y-110832396D01*
X111680456Y-110827690D01*
X111736313Y-110668059D01*
X111755249Y-110500000D01*
X126294732Y-110500000D01*
X126313778Y-110754157D01*
X126314603Y-110757771D01*
X126369047Y-110996304D01*
X126370492Y-111002637D01*
X126426087Y-111144290D01*
X126439121Y-111177498D01*
X126463607Y-111239888D01*
X126465455Y-111243089D01*
X126465457Y-111243093D01*
X126576745Y-111435851D01*
X126591041Y-111460612D01*
X126749950Y-111659877D01*
X126936783Y-111833232D01*
X127147366Y-111976805D01*
X127376996Y-112087389D01*
X127380531Y-112088479D01*
X127380530Y-112088479D01*
X127617001Y-112161421D01*
X127617004Y-112161422D01*
X127620542Y-112162513D01*
X127624211Y-112163066D01*
X127868900Y-112199948D01*
X127868906Y-112199948D01*
X127872565Y-112200500D01*
X128127435Y-112200500D01*
X128131094Y-112199948D01*
X128131100Y-112199948D01*
X128375789Y-112163066D01*
X128379458Y-112162513D01*
X128382996Y-112161422D01*
X128382999Y-112161421D01*
X128619470Y-112088479D01*
X128619469Y-112088479D01*
X128623004Y-112087389D01*
X128852634Y-111976805D01*
X129063217Y-111833232D01*
X129250050Y-111659877D01*
X129408959Y-111460612D01*
X129423255Y-111435851D01*
X129534543Y-111243093D01*
X129534545Y-111243089D01*
X129536393Y-111239888D01*
X129560880Y-111177498D01*
X129573913Y-111144290D01*
X129629508Y-111002637D01*
X129630110Y-111000000D01*
X147670773Y-111000000D01*
X147689819Y-111254157D01*
X147690644Y-111257771D01*
X147737602Y-111463506D01*
X147746533Y-111502637D01*
X147839648Y-111739888D01*
X147841496Y-111743089D01*
X147841498Y-111743093D01*
X147897743Y-111840513D01*
X147967082Y-111960612D01*
X148125991Y-112159877D01*
X148312824Y-112333232D01*
X148523407Y-112476805D01*
X148753037Y-112587389D01*
X148756572Y-112588479D01*
X148756571Y-112588479D01*
X148993042Y-112661421D01*
X148993045Y-112661422D01*
X148996583Y-112662513D01*
X149000252Y-112663066D01*
X149244941Y-112699948D01*
X149244947Y-112699948D01*
X149248606Y-112700500D01*
X149503476Y-112700500D01*
X149507135Y-112699948D01*
X149507141Y-112699948D01*
X149751830Y-112663066D01*
X149755499Y-112662513D01*
X149759037Y-112661422D01*
X149759040Y-112661421D01*
X149995511Y-112588479D01*
X149995510Y-112588479D01*
X149999045Y-112587389D01*
X150228675Y-112476805D01*
X150439258Y-112333232D01*
X150626091Y-112159877D01*
X150785000Y-111960612D01*
X150854339Y-111840513D01*
X150910584Y-111743093D01*
X150910586Y-111743089D01*
X150912434Y-111739888D01*
X151005549Y-111502637D01*
X151014481Y-111463506D01*
X151061438Y-111257771D01*
X151062263Y-111254157D01*
X151081309Y-111000000D01*
X151062263Y-110745843D01*
X151007413Y-110505529D01*
X151006372Y-110500968D01*
X151006371Y-110500966D01*
X151005549Y-110497363D01*
X150912434Y-110260112D01*
X150906332Y-110249542D01*
X150786850Y-110042592D01*
X150786849Y-110042590D01*
X150785000Y-110039388D01*
X150626091Y-109840123D01*
X150439258Y-109666768D01*
X150228675Y-109523195D01*
X149999045Y-109412611D01*
X149773424Y-109343016D01*
X149759040Y-109338579D01*
X149759037Y-109338578D01*
X149755499Y-109337487D01*
X149739547Y-109335083D01*
X149507141Y-109300052D01*
X149507135Y-109300052D01*
X149503476Y-109299500D01*
X149248606Y-109299500D01*
X149244947Y-109300052D01*
X149244941Y-109300052D01*
X149012535Y-109335083D01*
X148996583Y-109337487D01*
X148993045Y-109338578D01*
X148993042Y-109338579D01*
X148978658Y-109343016D01*
X148753037Y-109412611D01*
X148523407Y-109523195D01*
X148312824Y-109666768D01*
X148125991Y-109840123D01*
X147967082Y-110039388D01*
X147965233Y-110042590D01*
X147965232Y-110042592D01*
X147845751Y-110249542D01*
X147839648Y-110260112D01*
X147746533Y-110497363D01*
X147745711Y-110500966D01*
X147745710Y-110500968D01*
X147744669Y-110505529D01*
X147689819Y-110745843D01*
X147670773Y-111000000D01*
X129630110Y-111000000D01*
X129630954Y-110996304D01*
X129685397Y-110757771D01*
X129686222Y-110754157D01*
X129705268Y-110500000D01*
X129686222Y-110245843D01*
X129639100Y-110039388D01*
X129630331Y-110000968D01*
X129630330Y-110000966D01*
X129629508Y-109997363D01*
X129566807Y-109837605D01*
X129537747Y-109763561D01*
X129537745Y-109763557D01*
X129536393Y-109760112D01*
X129527525Y-109744751D01*
X129410809Y-109542592D01*
X129410808Y-109542590D01*
X129408959Y-109539388D01*
X129250050Y-109340123D01*
X129063217Y-109166768D01*
X128852634Y-109023195D01*
X128623004Y-108912611D01*
X128555218Y-108891702D01*
X128382999Y-108838579D01*
X128382996Y-108838578D01*
X128379458Y-108837487D01*
X128363506Y-108835083D01*
X128131100Y-108800052D01*
X128131094Y-108800052D01*
X128127435Y-108799500D01*
X127872565Y-108799500D01*
X127868906Y-108800052D01*
X127868900Y-108800052D01*
X127636494Y-108835083D01*
X127620542Y-108837487D01*
X127617004Y-108838578D01*
X127617001Y-108838579D01*
X127444782Y-108891702D01*
X127376996Y-108912611D01*
X127147366Y-109023195D01*
X126936783Y-109166768D01*
X126749950Y-109340123D01*
X126591041Y-109539388D01*
X126589192Y-109542590D01*
X126589191Y-109542592D01*
X126472476Y-109744751D01*
X126463607Y-109760112D01*
X126462255Y-109763557D01*
X126462253Y-109763561D01*
X126433193Y-109837605D01*
X126370492Y-109997363D01*
X126369670Y-110000966D01*
X126369669Y-110000968D01*
X126360900Y-110039388D01*
X126313778Y-110245843D01*
X126294732Y-110500000D01*
X111755249Y-110500000D01*
X111736313Y-110331941D01*
X111680456Y-110172310D01*
X111645011Y-110115899D01*
X111593436Y-110033819D01*
X111593435Y-110033818D01*
X111590477Y-110029110D01*
X111470890Y-109909523D01*
X111466181Y-109906564D01*
X111332398Y-109822502D01*
X111332396Y-109822501D01*
X111327690Y-109819544D01*
X111168059Y-109763687D01*
X111136331Y-109760112D01*
X111005529Y-109745374D01*
X111000000Y-109744751D01*
X110994471Y-109745374D01*
X110863670Y-109760112D01*
X110831941Y-109763687D01*
X110672310Y-109819544D01*
X110667604Y-109822501D01*
X110667602Y-109822502D01*
X110533819Y-109906564D01*
X110529110Y-109909523D01*
X110409523Y-110029110D01*
X110406565Y-110033818D01*
X110406564Y-110033819D01*
X110354990Y-110115899D01*
X110319544Y-110172310D01*
X110263687Y-110331941D01*
X110244751Y-110500000D01*
X98705268Y-110500000D01*
X98686222Y-110245843D01*
X98639100Y-110039388D01*
X98630331Y-110000968D01*
X98630330Y-110000966D01*
X98629508Y-109997363D01*
X98566807Y-109837605D01*
X98537747Y-109763561D01*
X98537745Y-109763557D01*
X98536393Y-109760112D01*
X98527525Y-109744751D01*
X98410809Y-109542592D01*
X98410808Y-109542590D01*
X98408959Y-109539388D01*
X98250050Y-109340123D01*
X98063217Y-109166768D01*
X97852634Y-109023195D01*
X97623004Y-108912611D01*
X97555218Y-108891702D01*
X97382999Y-108838579D01*
X97382996Y-108838578D01*
X97379458Y-108837487D01*
X97363506Y-108835083D01*
X97131100Y-108800052D01*
X97131094Y-108800052D01*
X97127435Y-108799500D01*
X96872565Y-108799500D01*
X96868906Y-108800052D01*
X96868900Y-108800052D01*
X96636494Y-108835083D01*
X96620542Y-108837487D01*
X96617004Y-108838578D01*
X96617001Y-108838579D01*
X96444782Y-108891702D01*
X96376996Y-108912611D01*
X96147366Y-109023195D01*
X95936783Y-109166768D01*
X95749950Y-109340123D01*
X95591041Y-109539388D01*
X95589192Y-109542590D01*
X95589191Y-109542592D01*
X95472476Y-109744751D01*
X95463607Y-109760112D01*
X95462255Y-109763557D01*
X95462253Y-109763561D01*
X95433193Y-109837605D01*
X95370492Y-109997363D01*
X95369670Y-110000966D01*
X95369669Y-110000968D01*
X95360900Y-110039388D01*
X95313778Y-110245843D01*
X95294732Y-110500000D01*
X88557603Y-110500000D01*
X88509018Y-110420390D01*
X88335745Y-110212180D01*
X88333051Y-110209766D01*
X88333047Y-110209762D01*
X88225355Y-110113271D01*
X88134002Y-110031418D01*
X87908090Y-109881956D01*
X87743246Y-109804680D01*
X87666099Y-109768515D01*
X87666096Y-109768514D01*
X87662824Y-109766980D01*
X87657985Y-109765524D01*
X87586072Y-109743889D01*
X87403431Y-109688940D01*
X87252774Y-109666768D01*
X87139021Y-109650027D01*
X87139019Y-109650027D01*
X87135439Y-109649500D01*
X86932369Y-109649500D01*
X86729844Y-109664323D01*
X86726327Y-109665106D01*
X86726323Y-109665107D01*
X86468970Y-109722435D01*
X86468967Y-109722436D01*
X86465447Y-109723220D01*
X86212442Y-109819986D01*
X85976223Y-109952559D01*
X85761823Y-110118112D01*
X85759315Y-110120714D01*
X85759311Y-110120717D01*
X85576325Y-110310514D01*
X85576322Y-110310518D01*
X85573814Y-110313119D01*
X85416201Y-110533421D01*
X85292344Y-110774325D01*
X85272532Y-110832398D01*
X85213279Y-111006083D01*
X85204882Y-111030695D01*
X85155681Y-111297067D01*
X85150873Y-111428636D01*
X85148265Y-111500000D01*
X85145788Y-111567765D01*
X81509955Y-111567765D01*
X81501052Y-106499179D01*
X81500940Y-106435065D01*
X81500891Y-106407369D01*
X81501717Y-106394437D01*
X81516045Y-106284237D01*
X81522705Y-106259236D01*
X81562596Y-106162570D01*
X81575506Y-106140148D01*
X81639083Y-106057117D01*
X81657362Y-106038806D01*
X81740280Y-105975084D01*
X81762679Y-105962135D01*
X81859274Y-105922074D01*
X81884264Y-105915370D01*
X81994437Y-105900849D01*
X82007373Y-105900000D01*
X92100000Y-105900000D01*
X92100000Y-104900000D01*
X95744751Y-104900000D01*
X95763687Y-105068059D01*
X95819544Y-105227690D01*
X95822501Y-105232396D01*
X95822502Y-105232398D01*
X95898655Y-105353594D01*
X95909523Y-105370890D01*
X96029110Y-105490477D01*
X96033818Y-105493435D01*
X96033819Y-105493436D01*
X96132194Y-105555249D01*
X96172310Y-105580456D01*
X96331941Y-105636313D01*
X96500000Y-105655249D01*
X96505529Y-105654626D01*
X96662530Y-105636936D01*
X96668059Y-105636313D01*
X96827690Y-105580456D01*
X96867807Y-105555249D01*
X96966181Y-105493436D01*
X96966182Y-105493435D01*
X96970890Y-105490477D01*
X97079996Y-105381371D01*
X97134513Y-105353594D01*
X97194945Y-105363165D01*
X97220004Y-105381371D01*
X97329110Y-105490477D01*
X97333818Y-105493435D01*
X97333819Y-105493436D01*
X97432194Y-105555249D01*
X97472310Y-105580456D01*
X97631941Y-105636313D01*
X97800000Y-105655249D01*
X97805529Y-105654626D01*
X97962530Y-105636936D01*
X97968059Y-105636313D01*
X98127690Y-105580456D01*
X98167807Y-105555249D01*
X98266181Y-105493436D01*
X98266182Y-105493435D01*
X98270890Y-105490477D01*
X98390477Y-105370890D01*
X98401345Y-105353594D01*
X98477498Y-105232398D01*
X98477499Y-105232396D01*
X98480456Y-105227690D01*
X98536313Y-105068059D01*
X98555249Y-104900000D01*
X98536313Y-104731941D01*
X98480456Y-104572310D01*
X98469345Y-104554626D01*
X98393436Y-104433819D01*
X98393435Y-104433818D01*
X98390477Y-104429110D01*
X98270890Y-104309523D01*
X98222207Y-104278933D01*
X98132398Y-104222502D01*
X98132396Y-104222501D01*
X98127690Y-104219544D01*
X97968059Y-104163687D01*
X97800000Y-104144751D01*
X97631941Y-104163687D01*
X97472310Y-104219544D01*
X97467604Y-104222501D01*
X97467602Y-104222502D01*
X97377793Y-104278933D01*
X97329110Y-104309523D01*
X97220004Y-104418629D01*
X97165487Y-104446406D01*
X97105055Y-104436835D01*
X97079996Y-104418629D01*
X96970890Y-104309523D01*
X96922207Y-104278933D01*
X96832398Y-104222502D01*
X96832396Y-104222501D01*
X96827690Y-104219544D01*
X96668059Y-104163687D01*
X96500000Y-104144751D01*
X96331941Y-104163687D01*
X96172310Y-104219544D01*
X96167604Y-104222501D01*
X96167602Y-104222502D01*
X96077793Y-104278933D01*
X96029110Y-104309523D01*
X95909523Y-104429110D01*
X95906565Y-104433818D01*
X95906564Y-104433819D01*
X95830656Y-104554626D01*
X95819544Y-104572310D01*
X95763687Y-104731941D01*
X95744751Y-104900000D01*
X92100000Y-104900000D01*
X92100000Y-103800000D01*
X94244751Y-103800000D01*
X94263687Y-103968059D01*
X94319544Y-104127690D01*
X94322501Y-104132396D01*
X94322502Y-104132398D01*
X94387011Y-104235063D01*
X94409523Y-104270890D01*
X94529110Y-104390477D01*
X94533818Y-104393435D01*
X94533819Y-104393436D01*
X94659346Y-104472310D01*
X94672310Y-104480456D01*
X94831941Y-104536313D01*
X95000000Y-104555249D01*
X95005529Y-104554626D01*
X95162530Y-104536936D01*
X95168059Y-104536313D01*
X95327690Y-104480456D01*
X95340655Y-104472310D01*
X95466181Y-104393436D01*
X95466182Y-104393435D01*
X95470890Y-104390477D01*
X95590477Y-104270890D01*
X95612989Y-104235063D01*
X95677498Y-104132398D01*
X95677499Y-104132396D01*
X95680456Y-104127690D01*
X95736313Y-103968059D01*
X95755249Y-103800000D01*
X95736313Y-103631941D01*
X95680456Y-103472310D01*
X95676608Y-103466185D01*
X95593436Y-103333819D01*
X95593435Y-103333818D01*
X95590477Y-103329110D01*
X95470890Y-103209523D01*
X95466181Y-103206564D01*
X95332398Y-103122502D01*
X95332396Y-103122501D01*
X95327690Y-103119544D01*
X95168059Y-103063687D01*
X95000000Y-103044751D01*
X94831941Y-103063687D01*
X94672310Y-103119544D01*
X94667604Y-103122501D01*
X94667602Y-103122502D01*
X94533819Y-103206564D01*
X94529110Y-103209523D01*
X94409523Y-103329110D01*
X94406565Y-103333818D01*
X94406564Y-103333819D01*
X94323393Y-103466185D01*
X94319544Y-103472310D01*
X94263687Y-103631941D01*
X94244751Y-103800000D01*
X92100000Y-103800000D01*
X92100000Y-103000000D01*
X97044751Y-103000000D01*
X97063687Y-103168059D01*
X97119544Y-103327690D01*
X97122501Y-103332396D01*
X97122502Y-103332398D01*
X97152699Y-103380456D01*
X97209523Y-103470890D01*
X97329110Y-103590477D01*
X97333818Y-103593435D01*
X97333819Y-103593436D01*
X97457086Y-103670890D01*
X97472310Y-103680456D01*
X97631941Y-103736313D01*
X97800000Y-103755249D01*
X97805529Y-103754626D01*
X97962530Y-103736936D01*
X97968059Y-103736313D01*
X98127690Y-103680456D01*
X98142915Y-103670890D01*
X98266181Y-103593436D01*
X98266182Y-103593435D01*
X98270890Y-103590477D01*
X98390477Y-103470890D01*
X98447301Y-103380456D01*
X98477498Y-103332398D01*
X98477499Y-103332396D01*
X98480456Y-103327690D01*
X98536313Y-103168059D01*
X98555249Y-103000000D01*
X98536313Y-102831941D01*
X98480456Y-102672310D01*
X98475607Y-102664592D01*
X98393436Y-102533819D01*
X98393435Y-102533818D01*
X98390477Y-102529110D01*
X98270890Y-102409523D01*
X98240579Y-102390477D01*
X98132398Y-102322502D01*
X98132396Y-102322501D01*
X98127690Y-102319544D01*
X97968059Y-102263687D01*
X97800000Y-102244751D01*
X97631941Y-102263687D01*
X97472310Y-102319544D01*
X97467604Y-102322501D01*
X97467602Y-102322502D01*
X97359421Y-102390477D01*
X97329110Y-102409523D01*
X97209523Y-102529110D01*
X97206565Y-102533818D01*
X97206564Y-102533819D01*
X97124394Y-102664592D01*
X97119544Y-102672310D01*
X97063687Y-102831941D01*
X97044751Y-103000000D01*
X92100000Y-103000000D01*
X92100000Y-99300000D01*
X97044751Y-99300000D01*
X97063687Y-99468059D01*
X97119544Y-99627690D01*
X97122501Y-99632396D01*
X97122502Y-99632398D01*
X97147581Y-99672310D01*
X97209523Y-99770890D01*
X97329110Y-99890477D01*
X97333818Y-99893435D01*
X97333819Y-99893436D01*
X97457086Y-99970890D01*
X97472310Y-99980456D01*
X97631941Y-100036313D01*
X97800000Y-100055249D01*
X97805529Y-100054626D01*
X97962530Y-100036936D01*
X97968059Y-100036313D01*
X98127690Y-99980456D01*
X98142915Y-99970890D01*
X98266181Y-99893436D01*
X98266182Y-99893435D01*
X98270890Y-99890477D01*
X98390477Y-99770890D01*
X98452419Y-99672310D01*
X98477498Y-99632398D01*
X98477499Y-99632396D01*
X98480456Y-99627690D01*
X98536313Y-99468059D01*
X98555249Y-99300000D01*
X98536313Y-99131941D01*
X98480456Y-98972310D01*
X98446766Y-98918692D01*
X98393436Y-98833819D01*
X98393435Y-98833818D01*
X98390477Y-98829110D01*
X98281371Y-98720004D01*
X98253594Y-98665487D01*
X98263165Y-98605055D01*
X98281371Y-98579996D01*
X98390477Y-98470890D01*
X98400305Y-98455249D01*
X98477498Y-98332398D01*
X98477499Y-98332396D01*
X98480456Y-98327690D01*
X98536313Y-98168059D01*
X98555249Y-98000000D01*
X98536313Y-97831941D01*
X98480456Y-97672310D01*
X98463140Y-97644751D01*
X98393436Y-97533819D01*
X98393435Y-97533818D01*
X98390477Y-97529110D01*
X98270890Y-97409523D01*
X98243529Y-97392331D01*
X98132398Y-97322502D01*
X98132396Y-97322501D01*
X98127690Y-97319544D01*
X97968059Y-97263687D01*
X97800000Y-97244751D01*
X97631941Y-97263687D01*
X97472310Y-97319544D01*
X97467604Y-97322501D01*
X97467602Y-97322502D01*
X97356471Y-97392331D01*
X97329110Y-97409523D01*
X97209523Y-97529110D01*
X97206565Y-97533818D01*
X97206564Y-97533819D01*
X97136861Y-97644751D01*
X97119544Y-97672310D01*
X97063687Y-97831941D01*
X97044751Y-98000000D01*
X97063687Y-98168059D01*
X97119544Y-98327690D01*
X97122501Y-98332396D01*
X97122502Y-98332398D01*
X97199695Y-98455249D01*
X97209523Y-98470890D01*
X97318629Y-98579996D01*
X97346406Y-98634513D01*
X97336835Y-98694945D01*
X97318629Y-98720004D01*
X97209523Y-98829110D01*
X97206565Y-98833818D01*
X97206564Y-98833819D01*
X97153235Y-98918692D01*
X97119544Y-98972310D01*
X97063687Y-99131941D01*
X97044751Y-99300000D01*
X92100000Y-99300000D01*
X92100000Y-98495381D01*
X92118907Y-98437190D01*
X92166303Y-98401936D01*
X92171836Y-98400000D01*
X92227690Y-98380456D01*
X92304174Y-98332398D01*
X92366181Y-98293436D01*
X92366182Y-98293435D01*
X92370890Y-98290477D01*
X92490477Y-98170890D01*
X92503917Y-98149500D01*
X92577498Y-98032398D01*
X92577499Y-98032396D01*
X92580456Y-98027690D01*
X92582293Y-98022441D01*
X92582296Y-98022434D01*
X92606556Y-97953103D01*
X92643621Y-97904422D01*
X92702221Y-97886825D01*
X92759973Y-97907033D01*
X92793444Y-97953103D01*
X92817704Y-98022434D01*
X92817707Y-98022441D01*
X92819544Y-98027690D01*
X92822501Y-98032396D01*
X92822502Y-98032398D01*
X92896083Y-98149500D01*
X92909523Y-98170890D01*
X93029110Y-98290477D01*
X93033818Y-98293435D01*
X93033819Y-98293436D01*
X93095827Y-98332398D01*
X93172310Y-98380456D01*
X93331941Y-98436313D01*
X93500000Y-98455249D01*
X93505529Y-98454626D01*
X93662530Y-98436936D01*
X93668059Y-98436313D01*
X93827690Y-98380456D01*
X93904174Y-98332398D01*
X93966181Y-98293436D01*
X93966182Y-98293435D01*
X93970890Y-98290477D01*
X94090477Y-98170890D01*
X94103917Y-98149500D01*
X94177498Y-98032398D01*
X94177499Y-98032396D01*
X94180456Y-98027690D01*
X94236313Y-97868059D01*
X94255249Y-97700000D01*
X94244386Y-97603590D01*
X94236936Y-97537470D01*
X94236313Y-97531941D01*
X94180456Y-97372310D01*
X94168053Y-97352570D01*
X94093436Y-97233819D01*
X94093435Y-97233818D01*
X94090477Y-97229110D01*
X93970890Y-97109523D01*
X93966181Y-97106564D01*
X93832398Y-97022502D01*
X93832396Y-97022501D01*
X93827690Y-97019544D01*
X93668059Y-96963687D01*
X93500000Y-96944751D01*
X93331941Y-96963687D01*
X93172310Y-97019544D01*
X93167604Y-97022501D01*
X93167602Y-97022502D01*
X93033819Y-97106564D01*
X93029110Y-97109523D01*
X92909523Y-97229110D01*
X92906565Y-97233818D01*
X92906564Y-97233819D01*
X92831948Y-97352570D01*
X92819544Y-97372310D01*
X92817708Y-97377558D01*
X92817704Y-97377566D01*
X92793444Y-97446897D01*
X92756379Y-97495578D01*
X92697779Y-97513175D01*
X92640027Y-97492967D01*
X92606556Y-97446897D01*
X92582296Y-97377566D01*
X92582292Y-97377558D01*
X92580456Y-97372310D01*
X92568053Y-97352570D01*
X92493436Y-97233819D01*
X92493435Y-97233818D01*
X92490477Y-97229110D01*
X92370890Y-97109523D01*
X92366181Y-97106564D01*
X92232398Y-97022502D01*
X92232396Y-97022501D01*
X92227690Y-97019544D01*
X92166303Y-96998064D01*
X92117622Y-96960998D01*
X92100000Y-96904619D01*
X92100000Y-96200000D01*
X91685470Y-95854558D01*
X91675081Y-95844529D01*
X91592588Y-95752358D01*
X91576704Y-95728327D01*
X91527344Y-95622942D01*
X91519050Y-95595354D01*
X91501053Y-95472973D01*
X91500000Y-95458569D01*
X91500000Y-95000000D01*
X95194532Y-95000000D01*
X95214365Y-95226692D01*
X95273261Y-95446496D01*
X95369432Y-95652734D01*
X95371913Y-95656277D01*
X95371914Y-95656279D01*
X95375326Y-95661151D01*
X95499953Y-95839139D01*
X95660861Y-96000047D01*
X95664399Y-96002524D01*
X95664401Y-96002526D01*
X95803610Y-96100000D01*
X95847266Y-96130568D01*
X96053504Y-96226739D01*
X96142563Y-96250602D01*
X96269131Y-96284516D01*
X96269133Y-96284516D01*
X96273308Y-96285635D01*
X96500000Y-96305468D01*
X96726692Y-96285635D01*
X96730867Y-96284516D01*
X96730869Y-96284516D01*
X96857437Y-96250602D01*
X96946496Y-96226739D01*
X97152734Y-96130568D01*
X97196390Y-96100000D01*
X97335599Y-96002526D01*
X97335601Y-96002524D01*
X97339139Y-96000047D01*
X97500047Y-95839139D01*
X97624675Y-95661151D01*
X97628086Y-95656279D01*
X97628087Y-95656277D01*
X97630568Y-95652734D01*
X97726739Y-95446496D01*
X97785635Y-95226692D01*
X97805468Y-95000000D01*
X97785635Y-94773308D01*
X97783019Y-94763543D01*
X97727857Y-94557677D01*
X97726739Y-94553504D01*
X97630568Y-94347266D01*
X97605955Y-94312114D01*
X97502526Y-94164401D01*
X97502524Y-94164399D01*
X97500047Y-94160861D01*
X97339139Y-93999953D01*
X97317786Y-93985001D01*
X97156279Y-93871914D01*
X97156277Y-93871913D01*
X97152734Y-93869432D01*
X96946496Y-93773261D01*
X96857437Y-93749398D01*
X96730869Y-93715484D01*
X96730867Y-93715484D01*
X96726692Y-93714365D01*
X96500000Y-93694532D01*
X96273308Y-93714365D01*
X96269133Y-93715484D01*
X96269131Y-93715484D01*
X96142563Y-93749398D01*
X96053504Y-93773261D01*
X95847266Y-93869432D01*
X95843723Y-93871913D01*
X95843721Y-93871914D01*
X95682215Y-93985001D01*
X95660861Y-93999953D01*
X95499953Y-94160861D01*
X95497476Y-94164399D01*
X95497474Y-94164401D01*
X95394045Y-94312114D01*
X95369432Y-94347266D01*
X95273261Y-94553504D01*
X95272143Y-94557677D01*
X95216982Y-94763543D01*
X95214365Y-94773308D01*
X95194532Y-95000000D01*
X91500000Y-95000000D01*
X91500000Y-91000000D01*
X89006488Y-91000000D01*
X88993566Y-90999153D01*
X88883513Y-90984664D01*
X88858549Y-90977975D01*
X88762043Y-90938001D01*
X88739661Y-90925079D01*
X88656787Y-90861487D01*
X88638513Y-90843213D01*
X88574921Y-90760339D01*
X88561999Y-90737957D01*
X88522025Y-90641451D01*
X88515336Y-90616487D01*
X88500847Y-90506434D01*
X88500000Y-90493512D01*
X88500000Y-88506488D01*
X88500847Y-88493566D01*
X88515336Y-88383513D01*
X88522025Y-88358549D01*
X88561999Y-88262043D01*
X88574921Y-88239661D01*
X88638513Y-88156787D01*
X88656787Y-88138513D01*
X88739661Y-88074921D01*
X88762043Y-88061999D01*
X88858549Y-88022025D01*
X88883513Y-88015336D01*
X88993566Y-88000847D01*
X89006488Y-88000000D01*
X92493512Y-88000000D01*
X92506434Y-88000847D01*
G37*
%TD.AperFunction*%
%TD*%
%TA.AperFunction,Conductor*%
%TO.N,/Driver/VS3*%
G36*
X151025755Y-116503391D02*
G01*
X151116488Y-116515336D01*
X151141451Y-116522025D01*
X151237955Y-116561998D01*
X151260338Y-116574920D01*
X151343213Y-116638513D01*
X151361487Y-116656787D01*
X151425080Y-116739662D01*
X151438002Y-116762045D01*
X151472694Y-116845801D01*
X151480229Y-116883216D01*
X151485316Y-117954527D01*
X151485556Y-118005001D01*
X151499742Y-120993017D01*
X151499753Y-120995397D01*
X151499783Y-120996198D01*
X151499931Y-121000160D01*
X151500000Y-121003857D01*
X151500000Y-122000000D01*
X152454121Y-122000000D01*
X152463835Y-122000478D01*
X152465460Y-122000638D01*
X152478329Y-122001485D01*
X152493240Y-122001978D01*
X152510530Y-122002550D01*
X152510543Y-122002550D01*
X152511323Y-122002576D01*
X153516224Y-122002984D01*
X153529085Y-122003829D01*
X153598942Y-122013026D01*
X153616487Y-122015336D01*
X153641449Y-122022025D01*
X153737958Y-122062000D01*
X153760340Y-122074922D01*
X153843212Y-122138512D01*
X153861487Y-122156787D01*
X153925077Y-122239660D01*
X153937999Y-122262042D01*
X153977974Y-122358551D01*
X153984663Y-122383514D01*
X153999152Y-122493567D01*
X153999999Y-122506489D01*
X153999991Y-126893568D01*
X153999144Y-126906490D01*
X153984657Y-127016534D01*
X153977969Y-127041496D01*
X153937999Y-127137998D01*
X153925079Y-127160377D01*
X153861495Y-127243250D01*
X153843222Y-127261525D01*
X153760362Y-127325114D01*
X153737982Y-127338037D01*
X153641484Y-127378016D01*
X153616525Y-127384707D01*
X153589518Y-127388265D01*
X153506470Y-127399207D01*
X153493559Y-127400055D01*
X152973707Y-127400111D01*
X151506754Y-127400270D01*
X151493827Y-127399424D01*
X151383732Y-127384937D01*
X151358760Y-127378246D01*
X151358205Y-127378016D01*
X151262218Y-127338254D01*
X151239837Y-127325330D01*
X151156936Y-127261703D01*
X151138662Y-127243423D01*
X151138530Y-127243250D01*
X151075065Y-127160505D01*
X151062145Y-127138113D01*
X151022185Y-127041562D01*
X151015502Y-127016586D01*
X151001052Y-126906491D01*
X151000210Y-126893565D01*
X151000722Y-125710513D01*
X151000722Y-125710507D01*
X151000723Y-125707273D01*
X151000813Y-125500000D01*
X150854231Y-125353458D01*
X150854229Y-125353455D01*
X149461735Y-123961339D01*
X148000000Y-122500000D01*
X147077817Y-122500000D01*
X141007845Y-122499996D01*
X140994925Y-122499149D01*
X140952519Y-122493567D01*
X140884888Y-122484664D01*
X140859932Y-122477978D01*
X140811682Y-122457996D01*
X140763435Y-122438015D01*
X140741060Y-122425100D01*
X140658183Y-122361520D01*
X140639916Y-122343257D01*
X140576323Y-122260406D01*
X140563399Y-122238029D01*
X140523412Y-122141542D01*
X140516719Y-122116585D01*
X140503590Y-122017037D01*
X140502207Y-122006547D01*
X140501357Y-121993632D01*
X140501354Y-121980479D01*
X140501343Y-121933013D01*
X140500890Y-120100787D01*
X140519783Y-120042593D01*
X140527053Y-120033713D01*
X140607781Y-119946019D01*
X140610551Y-119943010D01*
X140742255Y-119741422D01*
X140838983Y-119520905D01*
X140898095Y-119287476D01*
X140913000Y-119107600D01*
X140913000Y-118892400D01*
X140898095Y-118712524D01*
X140838983Y-118479095D01*
X140742255Y-118258578D01*
X140610551Y-118056990D01*
X140526508Y-117965695D01*
X140520287Y-117952127D01*
X143087000Y-117952127D01*
X143087001Y-120047872D01*
X143093409Y-120107483D01*
X143143704Y-120242331D01*
X143229954Y-120357546D01*
X143345169Y-120443796D01*
X143480017Y-120494091D01*
X143486170Y-120494753D01*
X143486172Y-120494753D01*
X143503966Y-120496666D01*
X143539627Y-120500500D01*
X144539811Y-120500500D01*
X145540372Y-120500499D01*
X145599983Y-120494091D01*
X145734831Y-120443796D01*
X145850046Y-120357546D01*
X145936296Y-120242331D01*
X145986591Y-120107483D01*
X145987254Y-120101322D01*
X145992717Y-120050501D01*
X145993000Y-120047873D01*
X145992999Y-117952128D01*
X145986591Y-117892517D01*
X145936296Y-117757669D01*
X145850046Y-117642454D01*
X145734831Y-117556204D01*
X145599983Y-117505909D01*
X145593830Y-117505247D01*
X145593828Y-117505247D01*
X145576034Y-117503334D01*
X145540373Y-117499500D01*
X144540190Y-117499500D01*
X143539628Y-117499501D01*
X143480017Y-117505909D01*
X143345169Y-117556204D01*
X143229954Y-117642454D01*
X143143704Y-117757669D01*
X143093409Y-117892517D01*
X143092747Y-117898670D01*
X143092747Y-117898672D01*
X143091521Y-117910079D01*
X143087000Y-117952127D01*
X140520287Y-117952127D01*
X140501007Y-117910079D01*
X140500346Y-117898688D01*
X140500126Y-117006614D01*
X140500970Y-116993691D01*
X140515435Y-116883617D01*
X140522120Y-116858647D01*
X140562083Y-116762117D01*
X140575003Y-116739730D01*
X140638596Y-116656830D01*
X140656866Y-116638556D01*
X140698308Y-116606750D01*
X140739746Y-116574947D01*
X140762129Y-116562022D01*
X140858652Y-116522033D01*
X140883620Y-116515341D01*
X140960989Y-116505154D01*
X140973896Y-116504307D01*
X151012816Y-116502544D01*
X151025755Y-116503391D01*
G37*
%TD.AperFunction*%
%TD*%
%TA.AperFunction,Conductor*%
%TO.N,/Driver/VS2*%
G36*
X128544450Y-116505852D02*
G01*
X128580209Y-116510560D01*
X128616488Y-116515336D01*
X128641451Y-116522025D01*
X128737955Y-116561998D01*
X128760338Y-116574920D01*
X128843213Y-116638513D01*
X128861487Y-116656787D01*
X128925080Y-116739662D01*
X128938002Y-116762045D01*
X128977975Y-116858549D01*
X128984664Y-116883512D01*
X128999153Y-116993566D01*
X129000000Y-117006488D01*
X129000000Y-122000000D01*
X129970992Y-122000000D01*
X129980698Y-122000477D01*
X130007080Y-122003076D01*
X130007884Y-122003129D01*
X130007912Y-122003131D01*
X130017992Y-122003791D01*
X130020002Y-122003923D01*
X130020827Y-122003950D01*
X130052239Y-122004978D01*
X130052241Y-122004978D01*
X130053065Y-122005005D01*
X131031529Y-122005005D01*
X131044450Y-122005852D01*
X131080209Y-122010560D01*
X131116488Y-122015336D01*
X131141451Y-122022025D01*
X131237955Y-122061998D01*
X131260338Y-122074920D01*
X131343215Y-122138514D01*
X131361489Y-122156789D01*
X131425077Y-122239659D01*
X131437999Y-122262040D01*
X131477975Y-122358550D01*
X131484664Y-122383514D01*
X131499153Y-122493566D01*
X131500000Y-122506488D01*
X131499996Y-126893536D01*
X131499149Y-126906458D01*
X131484661Y-127016507D01*
X131477973Y-127041469D01*
X131438000Y-127137976D01*
X131425078Y-127160358D01*
X131361492Y-127243228D01*
X131343218Y-127261502D01*
X131260349Y-127325093D01*
X131237969Y-127338016D01*
X131141464Y-127377994D01*
X131116507Y-127384682D01*
X131058677Y-127392298D01*
X131006449Y-127399176D01*
X130993528Y-127400023D01*
X129332932Y-127400102D01*
X128506509Y-127400141D01*
X128493590Y-127399295D01*
X128472476Y-127396516D01*
X128383524Y-127384808D01*
X128358564Y-127378120D01*
X128262051Y-127338147D01*
X128239667Y-127325225D01*
X128156793Y-127261636D01*
X128138519Y-127243362D01*
X128074924Y-127160488D01*
X128062000Y-127138105D01*
X128022022Y-127041592D01*
X128015333Y-127016628D01*
X128000844Y-126906574D01*
X127999997Y-126893652D01*
X128000000Y-125710348D01*
X128000000Y-125500000D01*
X125000000Y-122500000D01*
X124101050Y-122500000D01*
X118507845Y-122499996D01*
X118494925Y-122499149D01*
X118452511Y-122493566D01*
X118384888Y-122484664D01*
X118359932Y-122477978D01*
X118311682Y-122457996D01*
X118263435Y-122438015D01*
X118241060Y-122425100D01*
X118158183Y-122361520D01*
X118139916Y-122343257D01*
X118076323Y-122260406D01*
X118063399Y-122238029D01*
X118023412Y-122141542D01*
X118016719Y-122116585D01*
X118003590Y-122017037D01*
X118002207Y-122006547D01*
X118001357Y-121993632D01*
X118001354Y-121980479D01*
X118001343Y-121933013D01*
X118000955Y-120361792D01*
X118000880Y-120057348D01*
X118019773Y-119999153D01*
X118027043Y-119990274D01*
X118067776Y-119946026D01*
X118067784Y-119946016D01*
X118070551Y-119943010D01*
X118202255Y-119741422D01*
X118298983Y-119520905D01*
X118358095Y-119287476D01*
X118373000Y-119107600D01*
X118373000Y-118892400D01*
X118358095Y-118712524D01*
X118298983Y-118479095D01*
X118202255Y-118258578D01*
X118070551Y-118056990D01*
X118067784Y-118053984D01*
X118067776Y-118053974D01*
X118026520Y-118009159D01*
X118001018Y-117953541D01*
X118000936Y-117952127D01*
X120547000Y-117952127D01*
X120547001Y-120047872D01*
X120553409Y-120107483D01*
X120603704Y-120242331D01*
X120689954Y-120357546D01*
X120805169Y-120443796D01*
X120940017Y-120494091D01*
X120946170Y-120494753D01*
X120946172Y-120494753D01*
X120963966Y-120496666D01*
X120999627Y-120500500D01*
X121999811Y-120500500D01*
X123000372Y-120500499D01*
X123059983Y-120494091D01*
X123194831Y-120443796D01*
X123310046Y-120357546D01*
X123396296Y-120242331D01*
X123446591Y-120107483D01*
X123447254Y-120101322D01*
X123452717Y-120050501D01*
X123453000Y-120047873D01*
X123452999Y-117952128D01*
X123446591Y-117892517D01*
X123396296Y-117757669D01*
X123310046Y-117642454D01*
X123194831Y-117556204D01*
X123059983Y-117505909D01*
X123053830Y-117505247D01*
X123053828Y-117505247D01*
X123036034Y-117503334D01*
X123000373Y-117499500D01*
X122000190Y-117499500D01*
X120999628Y-117499501D01*
X120940017Y-117505909D01*
X120805169Y-117556204D01*
X120689954Y-117642454D01*
X120603704Y-117757669D01*
X120553409Y-117892517D01*
X120552747Y-117898670D01*
X120552747Y-117898672D01*
X120550834Y-117916466D01*
X120547000Y-117952127D01*
X118000936Y-117952127D01*
X118000357Y-117942146D01*
X118000126Y-117006614D01*
X118000970Y-116993691D01*
X118015435Y-116883617D01*
X118022120Y-116858647D01*
X118062083Y-116762117D01*
X118075003Y-116739730D01*
X118138596Y-116656830D01*
X118156866Y-116638556D01*
X118198308Y-116606750D01*
X118239746Y-116574947D01*
X118262129Y-116562022D01*
X118358651Y-116522033D01*
X118383618Y-116515341D01*
X118455687Y-116505852D01*
X118468611Y-116505005D01*
X128531529Y-116505005D01*
X128544450Y-116505852D01*
G37*
%TD.AperFunction*%
%TD*%
%TA.AperFunction,Conductor*%
%TO.N,/Driver/PhaseB*%
G36*
X137006434Y-122000847D02*
G01*
X137116487Y-122015336D01*
X137141451Y-122022025D01*
X137237957Y-122061999D01*
X137260339Y-122074921D01*
X137343213Y-122138513D01*
X137361487Y-122156787D01*
X137425079Y-122239661D01*
X137438001Y-122262043D01*
X137477975Y-122358549D01*
X137484664Y-122383513D01*
X137499153Y-122493566D01*
X137500000Y-122506488D01*
X137500000Y-138493512D01*
X137499153Y-138506434D01*
X137484664Y-138616487D01*
X137477975Y-138641451D01*
X137438001Y-138737957D01*
X137425079Y-138760339D01*
X137361487Y-138843213D01*
X137343213Y-138861487D01*
X137260339Y-138925079D01*
X137237957Y-138938001D01*
X137141451Y-138977975D01*
X137116487Y-138984664D01*
X137006434Y-138999153D01*
X136993512Y-139000000D01*
X125506488Y-139000000D01*
X125493566Y-138999153D01*
X125383513Y-138984664D01*
X125358549Y-138977975D01*
X125262043Y-138938001D01*
X125239661Y-138925079D01*
X125156787Y-138861487D01*
X125138513Y-138843213D01*
X125074921Y-138760339D01*
X125061999Y-138737957D01*
X125022025Y-138641451D01*
X125015336Y-138616487D01*
X125000847Y-138506434D01*
X125000000Y-138493512D01*
X125000000Y-133567765D01*
X128645788Y-133567765D01*
X128675414Y-133837018D01*
X128743928Y-134099088D01*
X128745344Y-134102420D01*
X128745345Y-134102423D01*
X128799089Y-134228892D01*
X128849870Y-134348390D01*
X128990982Y-134579610D01*
X129164255Y-134787820D01*
X129166949Y-134790234D01*
X129166953Y-134790238D01*
X129266334Y-134879283D01*
X129365998Y-134968582D01*
X129591910Y-135118044D01*
X129720328Y-135178244D01*
X129833901Y-135231485D01*
X129833904Y-135231486D01*
X129837176Y-135233020D01*
X130096569Y-135311060D01*
X130230565Y-135330780D01*
X130360979Y-135349973D01*
X130360981Y-135349973D01*
X130364561Y-135350500D01*
X130567631Y-135350500D01*
X130770156Y-135335677D01*
X130773673Y-135334894D01*
X130773677Y-135334893D01*
X131031030Y-135277565D01*
X131031033Y-135277564D01*
X131034553Y-135276780D01*
X131287558Y-135180014D01*
X131523777Y-135047441D01*
X131738177Y-134881888D01*
X131740689Y-134879283D01*
X131923675Y-134689486D01*
X131923678Y-134689482D01*
X131926186Y-134686881D01*
X132083799Y-134466579D01*
X132207656Y-134225675D01*
X132295118Y-133969305D01*
X132344319Y-133702933D01*
X132354212Y-133432235D01*
X132324586Y-133162982D01*
X132256072Y-132900912D01*
X132202279Y-132774325D01*
X132151547Y-132654944D01*
X132151546Y-132654942D01*
X132150130Y-132651610D01*
X132009018Y-132420390D01*
X131835745Y-132212180D01*
X131833051Y-132209766D01*
X131833047Y-132209762D01*
X131725355Y-132113271D01*
X131634002Y-132031418D01*
X131408090Y-131881956D01*
X131243246Y-131804680D01*
X131166099Y-131768515D01*
X131166096Y-131768514D01*
X131162824Y-131766980D01*
X130903431Y-131688940D01*
X130769435Y-131669220D01*
X130639021Y-131650027D01*
X130639019Y-131650027D01*
X130635439Y-131649500D01*
X130432369Y-131649500D01*
X130229844Y-131664323D01*
X130226327Y-131665106D01*
X130226323Y-131665107D01*
X129968970Y-131722435D01*
X129968967Y-131722436D01*
X129965447Y-131723220D01*
X129712442Y-131819986D01*
X129476223Y-131952559D01*
X129261823Y-132118112D01*
X129259315Y-132120714D01*
X129259311Y-132120717D01*
X129076325Y-132310514D01*
X129076322Y-132310518D01*
X129073814Y-132313119D01*
X128916201Y-132533421D01*
X128792344Y-132774325D01*
X128704882Y-133030695D01*
X128655681Y-133297067D01*
X128645788Y-133567765D01*
X125000000Y-133567765D01*
X125000000Y-128506488D01*
X125000847Y-128493566D01*
X125015336Y-128383513D01*
X125022025Y-128358549D01*
X125061999Y-128262043D01*
X125074921Y-128239661D01*
X125138513Y-128156787D01*
X125156787Y-128138513D01*
X125239661Y-128074921D01*
X125262043Y-128061999D01*
X125358549Y-128022025D01*
X125383513Y-128015336D01*
X125493566Y-128000847D01*
X125506488Y-128000000D01*
X133500000Y-128000000D01*
X133500000Y-122506488D01*
X133500847Y-122493566D01*
X133515336Y-122383513D01*
X133522025Y-122358549D01*
X133561999Y-122262043D01*
X133574921Y-122239661D01*
X133638513Y-122156787D01*
X133656787Y-122138513D01*
X133739661Y-122074921D01*
X133762043Y-122061999D01*
X133858549Y-122022025D01*
X133883513Y-122015336D01*
X133955549Y-122005852D01*
X133968471Y-122005005D01*
X136493512Y-122005005D01*
X136494336Y-122004978D01*
X136494338Y-122004978D01*
X136525750Y-122003950D01*
X136526575Y-122003923D01*
X136528585Y-122003791D01*
X136538665Y-122003131D01*
X136538693Y-122003129D01*
X136539497Y-122003076D01*
X136565879Y-122000477D01*
X136575585Y-122000000D01*
X136993512Y-122000000D01*
X137006434Y-122000847D01*
G37*
%TD.AperFunction*%
%TD*%
%TA.AperFunction,Conductor*%
%TO.N,Net-(J1-Pad3)*%
G36*
X155106546Y-101273751D02*
G01*
X155191801Y-101310762D01*
X155261216Y-101340881D01*
X155261486Y-101340968D01*
X155261492Y-101340970D01*
X155286889Y-101349130D01*
X155322999Y-101360732D01*
X155396232Y-101371657D01*
X155396556Y-101371667D01*
X155396562Y-101371668D01*
X155428382Y-101372693D01*
X155500000Y-101375000D01*
X155500000Y-101625000D01*
X155468254Y-101626022D01*
X155468252Y-101626022D01*
X155438739Y-101626973D01*
X155396562Y-101628331D01*
X155396556Y-101628332D01*
X155396232Y-101628342D01*
X155322999Y-101639267D01*
X155286854Y-101650880D01*
X155261492Y-101659028D01*
X155261486Y-101659030D01*
X155261216Y-101659117D01*
X155191801Y-101689237D01*
X155106546Y-101726249D01*
X155097593Y-101726400D01*
X155091094Y-101720034D01*
X155000891Y-101504517D01*
X155000891Y-101495483D01*
X155091094Y-101279966D01*
X155097450Y-101273657D01*
X155106546Y-101273751D01*
G37*
%TD.AperFunction*%
%TD*%
%TA.AperFunction,Conductor*%
%TO.N,Net-(J1-Pad3)*%
G36*
X155692975Y-101276640D02*
G01*
X156054846Y-101385057D01*
X156401090Y-101488792D01*
X156408031Y-101494449D01*
X156408940Y-101503358D01*
X156403283Y-101510299D01*
X156401090Y-101511208D01*
X155692977Y-101723359D01*
X155684069Y-101722450D01*
X155682846Y-101721690D01*
X155642500Y-101692999D01*
X155631578Y-101686688D01*
X155597769Y-101667154D01*
X155597763Y-101667151D01*
X155597500Y-101666999D01*
X155552500Y-101646999D01*
X155552179Y-101646899D01*
X155507849Y-101633107D01*
X155507841Y-101633105D01*
X155507500Y-101632999D01*
X155507141Y-101632935D01*
X155507136Y-101632934D01*
X155487334Y-101629414D01*
X155468252Y-101626022D01*
X155468250Y-101626022D01*
X155462500Y-101625000D01*
X155462500Y-101375000D01*
X155494161Y-101369371D01*
X155507136Y-101367064D01*
X155507140Y-101367063D01*
X155507500Y-101366999D01*
X155507841Y-101366893D01*
X155507849Y-101366891D01*
X155552179Y-101353099D01*
X155552181Y-101353098D01*
X155552500Y-101352999D01*
X155597500Y-101332999D01*
X155597763Y-101332847D01*
X155597769Y-101332844D01*
X155642274Y-101307130D01*
X155642280Y-101307126D01*
X155642500Y-101306999D01*
X155682839Y-101278314D01*
X155691568Y-101276312D01*
X155692975Y-101276640D01*
G37*
%TD.AperFunction*%
%TD*%
%TA.AperFunction,Conductor*%
%TO.N,Net-(J1-Pad2)*%
G36*
X155692975Y-100626640D02*
G01*
X155994789Y-100717064D01*
X156401090Y-100838792D01*
X156408031Y-100844449D01*
X156408940Y-100853358D01*
X156403283Y-100860299D01*
X156401090Y-100861208D01*
X155692977Y-101073359D01*
X155684069Y-101072450D01*
X155682846Y-101071690D01*
X155642500Y-101042999D01*
X155631578Y-101036688D01*
X155597769Y-101017154D01*
X155597763Y-101017151D01*
X155597500Y-101016999D01*
X155552500Y-100996999D01*
X155552179Y-100996899D01*
X155507849Y-100983107D01*
X155507841Y-100983105D01*
X155507500Y-100982999D01*
X155507141Y-100982935D01*
X155507136Y-100982934D01*
X155489830Y-100979858D01*
X155472151Y-100976716D01*
X155464607Y-100971895D01*
X155462500Y-100965197D01*
X155462500Y-100734803D01*
X155465927Y-100726530D01*
X155472152Y-100723284D01*
X155507136Y-100717064D01*
X155507140Y-100717063D01*
X155507500Y-100716999D01*
X155507841Y-100716893D01*
X155507849Y-100716891D01*
X155552179Y-100703099D01*
X155552181Y-100703098D01*
X155552500Y-100702999D01*
X155597500Y-100682999D01*
X155597763Y-100682847D01*
X155597769Y-100682844D01*
X155642274Y-100657130D01*
X155642280Y-100657126D01*
X155642500Y-100656999D01*
X155682839Y-100628314D01*
X155691568Y-100626312D01*
X155692975Y-100626640D01*
G37*
%TD.AperFunction*%
%TD*%
%TA.AperFunction,Conductor*%
%TO.N,Net-(J1-Pad2)*%
G36*
X155227153Y-100409610D02*
G01*
X155233475Y-100415952D01*
X155234062Y-100417795D01*
X155252347Y-100497438D01*
X155252643Y-100499933D01*
X155253546Y-100585819D01*
X155256037Y-100657866D01*
X155282424Y-100706897D01*
X155284822Y-100707495D01*
X155346157Y-100722789D01*
X155353355Y-100728115D01*
X155355026Y-100734141D01*
X155355026Y-100961677D01*
X155351599Y-100969950D01*
X155343326Y-100973377D01*
X155341815Y-100973279D01*
X155234575Y-100959308D01*
X155230604Y-100958042D01*
X155155225Y-100918068D01*
X155152734Y-100916295D01*
X155091496Y-100859278D01*
X155091448Y-100859233D01*
X155017513Y-100794006D01*
X154913400Y-100736022D01*
X154907840Y-100729002D01*
X154908267Y-100721363D01*
X154997148Y-100504518D01*
X155003513Y-100498139D01*
X155218198Y-100409597D01*
X155227153Y-100409610D01*
G37*
%TD.AperFunction*%
%TD*%
%TA.AperFunction,Conductor*%
%TO.N,/BOOT0*%
G36*
X130408906Y-98179966D02*
G01*
X130499109Y-98395483D01*
X130499109Y-98404517D01*
X130408906Y-98620034D01*
X130402550Y-98626343D01*
X130393454Y-98626249D01*
X130308197Y-98589237D01*
X130238782Y-98559117D01*
X130238512Y-98559030D01*
X130238506Y-98559028D01*
X130213133Y-98550876D01*
X130177000Y-98539267D01*
X130103767Y-98528342D01*
X130103443Y-98528332D01*
X130103437Y-98528331D01*
X130054128Y-98526743D01*
X130011322Y-98525365D01*
X130003165Y-98521674D01*
X130000000Y-98513671D01*
X130000000Y-98286329D01*
X130003427Y-98278056D01*
X130011322Y-98274635D01*
X130045120Y-98273546D01*
X130103437Y-98271668D01*
X130103443Y-98271667D01*
X130103767Y-98271657D01*
X130177000Y-98260732D01*
X130213098Y-98249133D01*
X130238506Y-98240970D01*
X130238512Y-98240968D01*
X130238782Y-98240881D01*
X130308197Y-98210762D01*
X130393454Y-98173751D01*
X130402407Y-98173600D01*
X130408906Y-98179966D01*
G37*
%TD.AperFunction*%
%TD*%
%TA.AperFunction,Conductor*%
%TO.N,/BOOT0*%
G36*
X128511656Y-96322628D02*
G01*
X128945236Y-97141007D01*
X128946334Y-97143080D01*
X128947179Y-97151994D01*
X128945000Y-97156027D01*
X128920103Y-97186034D01*
X128919929Y-97186299D01*
X128919924Y-97186305D01*
X128890338Y-97231226D01*
X128890330Y-97231239D01*
X128890207Y-97231426D01*
X128890100Y-97231623D01*
X128890094Y-97231632D01*
X128867064Y-97273807D01*
X128860311Y-97286174D01*
X128830415Y-97350280D01*
X128808589Y-97403915D01*
X128801411Y-97421553D01*
X128798847Y-97425416D01*
X128633759Y-97590504D01*
X128625486Y-97593931D01*
X128617213Y-97590504D01*
X128615799Y-97588793D01*
X128537461Y-97473150D01*
X128537335Y-97472964D01*
X128450927Y-97364134D01*
X128364519Y-97274030D01*
X128364258Y-97273814D01*
X128364250Y-97273807D01*
X128278441Y-97202924D01*
X128278112Y-97202652D01*
X128199871Y-97154976D01*
X128194589Y-97147745D01*
X128194956Y-97141009D01*
X128490314Y-96324127D01*
X128496350Y-96317512D01*
X128505295Y-96317102D01*
X128511656Y-96322628D01*
G37*
%TD.AperFunction*%
%TD*%
%TA.AperFunction,Conductor*%
%TO.N,/BLE_MODE*%
G36*
X142443099Y-82265807D02*
G01*
X142503144Y-82322103D01*
X142510573Y-82329068D01*
X142570082Y-82373127D01*
X142627805Y-82402777D01*
X142628064Y-82402879D01*
X142628070Y-82402882D01*
X142698186Y-82430563D01*
X142784644Y-82464679D01*
X142791081Y-82470903D01*
X142791175Y-82479999D01*
X142754406Y-82569701D01*
X142702564Y-82696176D01*
X142696176Y-82702564D01*
X142631547Y-82729056D01*
X142479999Y-82791175D01*
X142471045Y-82791142D01*
X142464679Y-82784644D01*
X142430563Y-82698186D01*
X142402882Y-82628070D01*
X142402879Y-82628064D01*
X142402777Y-82627805D01*
X142373127Y-82570082D01*
X142329068Y-82510573D01*
X142300404Y-82480000D01*
X142265807Y-82443099D01*
X142262648Y-82434720D01*
X142266069Y-82426824D01*
X142426824Y-82266069D01*
X142435097Y-82262642D01*
X142443099Y-82265807D01*
G37*
%TD.AperFunction*%
%TD*%
%TA.AperFunction,Conductor*%
%TO.N,/BLE_MODE*%
G36*
X100421944Y-95603427D02*
G01*
X100425365Y-95611322D01*
X100428342Y-95703767D01*
X100439267Y-95777000D01*
X100459117Y-95838782D01*
X100489237Y-95908197D01*
X100526249Y-95993454D01*
X100526400Y-96002407D01*
X100520034Y-96008906D01*
X100304517Y-96099109D01*
X100295483Y-96099109D01*
X100079966Y-96008906D01*
X100073657Y-96002550D01*
X100073751Y-95993454D01*
X100110762Y-95908197D01*
X100140881Y-95838782D01*
X100160732Y-95777000D01*
X100171657Y-95703767D01*
X100174635Y-95611322D01*
X100178327Y-95603165D01*
X100186329Y-95600000D01*
X100413671Y-95600000D01*
X100421944Y-95603427D01*
G37*
%TD.AperFunction*%
%TD*%
%TA.AperFunction,Conductor*%
%TO.N,/BLE_TX*%
G36*
X101106546Y-93873751D02*
G01*
X101191801Y-93910762D01*
X101261216Y-93940881D01*
X101261486Y-93940968D01*
X101261492Y-93940970D01*
X101286889Y-93949130D01*
X101322999Y-93960732D01*
X101396232Y-93971657D01*
X101396556Y-93971667D01*
X101396562Y-93971668D01*
X101454535Y-93973535D01*
X101488678Y-93974635D01*
X101496835Y-93978327D01*
X101500000Y-93986329D01*
X101500000Y-94213671D01*
X101496573Y-94221944D01*
X101488678Y-94225365D01*
X101445629Y-94226751D01*
X101396562Y-94228331D01*
X101396556Y-94228332D01*
X101396232Y-94228342D01*
X101322999Y-94239267D01*
X101286854Y-94250880D01*
X101261492Y-94259028D01*
X101261486Y-94259030D01*
X101261216Y-94259117D01*
X101191801Y-94289237D01*
X101106546Y-94326249D01*
X101097593Y-94326400D01*
X101091094Y-94320034D01*
X101000891Y-94104517D01*
X101000891Y-94095483D01*
X101091094Y-93879966D01*
X101097450Y-93873657D01*
X101106546Y-93873751D01*
G37*
%TD.AperFunction*%
%TD*%
%TA.AperFunction,Conductor*%
%TO.N,/BLE_TX*%
G36*
X139243099Y-82065807D02*
G01*
X139303144Y-82122103D01*
X139310573Y-82129068D01*
X139370082Y-82173127D01*
X139427805Y-82202777D01*
X139428064Y-82202879D01*
X139428070Y-82202882D01*
X139498186Y-82230563D01*
X139584644Y-82264679D01*
X139591081Y-82270903D01*
X139591175Y-82279999D01*
X139554406Y-82369701D01*
X139502564Y-82496176D01*
X139496176Y-82502564D01*
X139431547Y-82529056D01*
X139279999Y-82591175D01*
X139271045Y-82591142D01*
X139264679Y-82584644D01*
X139230563Y-82498186D01*
X139202882Y-82428070D01*
X139202879Y-82428064D01*
X139202777Y-82427805D01*
X139173127Y-82370082D01*
X139129068Y-82310573D01*
X139100404Y-82280000D01*
X139065807Y-82243099D01*
X139062648Y-82234720D01*
X139066069Y-82226824D01*
X139226824Y-82066069D01*
X139235097Y-82062642D01*
X139243099Y-82065807D01*
G37*
%TD.AperFunction*%
%TD*%
%TA.AperFunction,Conductor*%
%TO.N,GND*%
G36*
X154721944Y-103503427D02*
G01*
X154725365Y-103511322D01*
X154728342Y-103603767D01*
X154739267Y-103677000D01*
X154759117Y-103738782D01*
X154789237Y-103808197D01*
X154826249Y-103893454D01*
X154826400Y-103902407D01*
X154820034Y-103908906D01*
X154604517Y-103999109D01*
X154595483Y-103999109D01*
X154379966Y-103908906D01*
X154373657Y-103902550D01*
X154373751Y-103893454D01*
X154410762Y-103808197D01*
X154440881Y-103738782D01*
X154460732Y-103677000D01*
X154471657Y-103603767D01*
X154474635Y-103511322D01*
X154478327Y-103503165D01*
X154486329Y-103500000D01*
X154713671Y-103500000D01*
X154721944Y-103503427D01*
G37*
%TD.AperFunction*%
%TD*%
%TA.AperFunction,Conductor*%
%TO.N,GND*%
G36*
X155692975Y-102576640D02*
G01*
X155994789Y-102667064D01*
X156401090Y-102788792D01*
X156408031Y-102794449D01*
X156408940Y-102803358D01*
X156403283Y-102810299D01*
X156401090Y-102811208D01*
X155692977Y-103023359D01*
X155684069Y-103022450D01*
X155682846Y-103021690D01*
X155642500Y-102992999D01*
X155631578Y-102986688D01*
X155597769Y-102967154D01*
X155597763Y-102967151D01*
X155597500Y-102966999D01*
X155552500Y-102946999D01*
X155552179Y-102946899D01*
X155507849Y-102933107D01*
X155507841Y-102933105D01*
X155507500Y-102932999D01*
X155507141Y-102932935D01*
X155507136Y-102932934D01*
X155489830Y-102929858D01*
X155472151Y-102926716D01*
X155464607Y-102921895D01*
X155462500Y-102915197D01*
X155462500Y-102684803D01*
X155465927Y-102676530D01*
X155472152Y-102673284D01*
X155507136Y-102667064D01*
X155507140Y-102667063D01*
X155507500Y-102666999D01*
X155507841Y-102666893D01*
X155507849Y-102666891D01*
X155552179Y-102653099D01*
X155552181Y-102653098D01*
X155552500Y-102652999D01*
X155597500Y-102632999D01*
X155597763Y-102632847D01*
X155597769Y-102632844D01*
X155642274Y-102607130D01*
X155642280Y-102607126D01*
X155642500Y-102606999D01*
X155682839Y-102578314D01*
X155691568Y-102576312D01*
X155692975Y-102576640D01*
G37*
%TD.AperFunction*%
%TD*%
%TA.AperFunction,Conductor*%
%TO.N,/3.3V*%
G36*
X132358247Y-95859008D02*
G01*
X132440000Y-95948305D01*
X132530000Y-96029957D01*
X132620000Y-96094957D01*
X132620333Y-96095136D01*
X132620338Y-96095139D01*
X132669711Y-96121661D01*
X132710000Y-96143304D01*
X132710423Y-96143453D01*
X132792186Y-96172248D01*
X132798852Y-96178229D01*
X132800000Y-96183284D01*
X132800000Y-96416716D01*
X132796573Y-96424989D01*
X132792187Y-96427751D01*
X132710000Y-96456694D01*
X132674931Y-96475533D01*
X132620338Y-96504859D01*
X132620333Y-96504862D01*
X132620000Y-96505041D01*
X132530000Y-96570041D01*
X132440000Y-96651694D01*
X132439816Y-96651895D01*
X132358247Y-96740992D01*
X132350133Y-96744780D01*
X132341354Y-96741374D01*
X131907300Y-96308281D01*
X131903864Y-96300013D01*
X131907300Y-96291718D01*
X132015975Y-96183284D01*
X132341354Y-95858626D01*
X132349630Y-95855209D01*
X132358247Y-95859008D01*
G37*
%TD.AperFunction*%
%TD*%
%TA.AperFunction,Conductor*%
%TO.N,/Driver/12V*%
G36*
X102121523Y-96870520D02*
G01*
X102127825Y-96876838D01*
X102178817Y-96999863D01*
X102222444Y-97094279D01*
X102269644Y-97170544D01*
X102269907Y-97170859D01*
X102335686Y-97249723D01*
X102335695Y-97249733D01*
X102335826Y-97249890D01*
X102405291Y-97321492D01*
X102428371Y-97345282D01*
X102431672Y-97353606D01*
X102428246Y-97361702D01*
X102161702Y-97628246D01*
X102153429Y-97631673D01*
X102145282Y-97628371D01*
X102145153Y-97628246D01*
X102049890Y-97535826D01*
X102049733Y-97535695D01*
X102049723Y-97535686D01*
X101970859Y-97469907D01*
X101970544Y-97469644D01*
X101894279Y-97422444D01*
X101893961Y-97422297D01*
X101799948Y-97378856D01*
X101799938Y-97378852D01*
X101799863Y-97378817D01*
X101676838Y-97327825D01*
X101670508Y-97321492D01*
X101670497Y-97312568D01*
X101797437Y-97003809D01*
X101803809Y-96997437D01*
X102112568Y-96870497D01*
X102121523Y-96870520D01*
G37*
%TD.AperFunction*%
%TD*%
%TA.AperFunction,Conductor*%
%TO.N,/Driver/12V*%
G36*
X113364236Y-98681106D02*
G01*
X113370554Y-98687408D01*
X113412742Y-98788503D01*
X113499120Y-98995494D01*
X113499120Y-99004505D01*
X113370554Y-99312592D01*
X113364205Y-99318907D01*
X113355282Y-99318896D01*
X113307975Y-99299314D01*
X113232343Y-99268007D01*
X113232327Y-99268001D01*
X113232231Y-99267961D01*
X113232136Y-99267926D01*
X113232118Y-99267919D01*
X113134962Y-99232173D01*
X113134959Y-99232172D01*
X113134619Y-99232047D01*
X113047316Y-99211496D01*
X112944412Y-99202187D01*
X112811522Y-99200174D01*
X112803303Y-99196623D01*
X112800000Y-99188476D01*
X112800000Y-98811524D01*
X112803427Y-98803251D01*
X112811522Y-98799825D01*
X112944412Y-98797812D01*
X113047316Y-98788503D01*
X113134619Y-98767952D01*
X113134959Y-98767827D01*
X113134962Y-98767826D01*
X113232118Y-98732080D01*
X113232136Y-98732073D01*
X113232231Y-98732038D01*
X113232327Y-98731998D01*
X113232343Y-98731992D01*
X113319959Y-98695725D01*
X113355281Y-98681104D01*
X113364236Y-98681106D01*
G37*
%TD.AperFunction*%
%TD*%
%TA.AperFunction,Conductor*%
%TO.N,/BLE_RX*%
G36*
X138343099Y-82265807D02*
G01*
X138403144Y-82322103D01*
X138410573Y-82329068D01*
X138470082Y-82373127D01*
X138527805Y-82402777D01*
X138528064Y-82402879D01*
X138528070Y-82402882D01*
X138598186Y-82430563D01*
X138684644Y-82464679D01*
X138691081Y-82470903D01*
X138691175Y-82479999D01*
X138654406Y-82569701D01*
X138602564Y-82696176D01*
X138596176Y-82702564D01*
X138531547Y-82729056D01*
X138379999Y-82791175D01*
X138371045Y-82791142D01*
X138364679Y-82784644D01*
X138330563Y-82698186D01*
X138302882Y-82628070D01*
X138302879Y-82628064D01*
X138302777Y-82627805D01*
X138273127Y-82570082D01*
X138229068Y-82510573D01*
X138200404Y-82480000D01*
X138165807Y-82443099D01*
X138162648Y-82434720D01*
X138166069Y-82426824D01*
X138326824Y-82266069D01*
X138335097Y-82262642D01*
X138343099Y-82265807D01*
G37*
%TD.AperFunction*%
%TD*%
%TA.AperFunction,Conductor*%
%TO.N,/BLE_RX*%
G36*
X101220034Y-94991094D02*
G01*
X101226343Y-94997450D01*
X101226249Y-95006546D01*
X101189237Y-95091801D01*
X101159117Y-95161216D01*
X101139267Y-95222999D01*
X101128342Y-95296232D01*
X101128332Y-95296556D01*
X101128331Y-95296562D01*
X101125365Y-95388677D01*
X101121674Y-95396835D01*
X101113671Y-95400000D01*
X100886329Y-95400000D01*
X100878056Y-95396573D01*
X100874635Y-95388677D01*
X100871668Y-95296562D01*
X100871667Y-95296556D01*
X100871657Y-95296232D01*
X100860732Y-95222999D01*
X100840881Y-95161216D01*
X100810762Y-95091801D01*
X100773751Y-95006546D01*
X100773600Y-94997593D01*
X100779966Y-94991094D01*
X100995483Y-94900891D01*
X101004517Y-94900891D01*
X101220034Y-94991094D01*
G37*
%TD.AperFunction*%
%TD*%
M02*
