%TF.GenerationSoftware,KiCad,Pcbnew,(6.99.0-2501-g45393f228a)*%
%TF.CreationDate,2022-07-20T10:28:40+12:00*%
%TF.ProjectId,bldc_hardware_riscv,626c6463-5f68-4617-9264-776172655f72,rev?*%
%TF.SameCoordinates,Original*%
%TF.FileFunction,Legend,Bot*%
%TF.FilePolarity,Positive*%
%FSLAX46Y46*%
G04 Gerber Fmt 4.6, Leading zero omitted, Abs format (unit mm)*
G04 Created by KiCad (PCBNEW (6.99.0-2501-g45393f228a)) date 2022-07-20 10:28:40*
%MOMM*%
%LPD*%
G01*
G04 APERTURE LIST*
%ADD10C,0.150000*%
%ADD11C,0.120000*%
%ADD12C,0.250000*%
G04 APERTURE END LIST*
D10*
X117793904Y-86142857D02*
X116993904Y-86142857D01*
X117374857Y-86142857D02*
X117374857Y-86485714D01*
X117793904Y-86485714D02*
X116993904Y-86485714D01*
X117565333Y-86742856D02*
X117565333Y-87028571D01*
X117793904Y-86685713D02*
X116993904Y-86885713D01*
X116993904Y-86885713D02*
X117793904Y-87085713D01*
X117793904Y-87571428D02*
X117793904Y-87285714D01*
X117793904Y-87285714D02*
X116993904Y-87285714D01*
X117793904Y-88057142D02*
X117793904Y-87771428D01*
X117793904Y-87771428D02*
X116993904Y-87771428D01*
X117793904Y-88571427D02*
X117793904Y-88228570D01*
X117793904Y-88399999D02*
X116993904Y-88399999D01*
X116993904Y-88399999D02*
X117108190Y-88342856D01*
X117108190Y-88342856D02*
X117184380Y-88285713D01*
X117184380Y-88285713D02*
X117222476Y-88228570D01*
D11*
X155733333Y-87097142D02*
X155200000Y-87097142D01*
X154546666Y-86601904D02*
X154146666Y-86601904D01*
X154346666Y-87401904D02*
X154346666Y-86601904D01*
X153913333Y-87401904D02*
X153913333Y-86601904D01*
X153580000Y-87401904D02*
X153580000Y-86601904D01*
X153580000Y-86601904D02*
X153346667Y-87173333D01*
X153346667Y-87173333D02*
X153113333Y-86601904D01*
X153113333Y-86601904D02*
X153113333Y-87401904D01*
X152413333Y-87401904D02*
X152813333Y-87401904D01*
X152613333Y-87401904D02*
X152613333Y-86601904D01*
X152613333Y-86601904D02*
X152680000Y-86716190D01*
X152680000Y-86716190D02*
X152746667Y-86792380D01*
X152746667Y-86792380D02*
X152813333Y-86830476D01*
X151760000Y-86601904D02*
X151326666Y-86601904D01*
X151326666Y-86601904D02*
X151560000Y-86906666D01*
X151560000Y-86906666D02*
X151460000Y-86906666D01*
X151460000Y-86906666D02*
X151393333Y-86944761D01*
X151393333Y-86944761D02*
X151360000Y-86982857D01*
X151360000Y-86982857D02*
X151326666Y-87059047D01*
X151326666Y-87059047D02*
X151326666Y-87249523D01*
X151326666Y-87249523D02*
X151360000Y-87325714D01*
X151360000Y-87325714D02*
X151393333Y-87363809D01*
X151393333Y-87363809D02*
X151460000Y-87401904D01*
X151460000Y-87401904D02*
X151660000Y-87401904D01*
X151660000Y-87401904D02*
X151726666Y-87363809D01*
X151726666Y-87363809D02*
X151760000Y-87325714D01*
X151026666Y-87097142D02*
X150493333Y-87097142D01*
X149759999Y-87325714D02*
X149793332Y-87363809D01*
X149793332Y-87363809D02*
X149893332Y-87401904D01*
X149893332Y-87401904D02*
X149959999Y-87401904D01*
X149959999Y-87401904D02*
X150059999Y-87363809D01*
X150059999Y-87363809D02*
X150126666Y-87287619D01*
X150126666Y-87287619D02*
X150159999Y-87211428D01*
X150159999Y-87211428D02*
X150193332Y-87059047D01*
X150193332Y-87059047D02*
X150193332Y-86944761D01*
X150193332Y-86944761D02*
X150159999Y-86792380D01*
X150159999Y-86792380D02*
X150126666Y-86716190D01*
X150126666Y-86716190D02*
X150059999Y-86640000D01*
X150059999Y-86640000D02*
X149959999Y-86601904D01*
X149959999Y-86601904D02*
X149893332Y-86601904D01*
X149893332Y-86601904D02*
X149793332Y-86640000D01*
X149793332Y-86640000D02*
X149759999Y-86678095D01*
X149459999Y-87401904D02*
X149459999Y-86601904D01*
X149459999Y-86982857D02*
X149059999Y-86982857D01*
X149059999Y-87401904D02*
X149059999Y-86601904D01*
X148339999Y-87363809D02*
X148239999Y-87401904D01*
X148239999Y-87401904D02*
X148073333Y-87401904D01*
X148073333Y-87401904D02*
X148006666Y-87363809D01*
X148006666Y-87363809D02*
X147973333Y-87325714D01*
X147973333Y-87325714D02*
X147939999Y-87249523D01*
X147939999Y-87249523D02*
X147939999Y-87173333D01*
X147939999Y-87173333D02*
X147973333Y-87097142D01*
X147973333Y-87097142D02*
X148006666Y-87059047D01*
X148006666Y-87059047D02*
X148073333Y-87020952D01*
X148073333Y-87020952D02*
X148206666Y-86982857D01*
X148206666Y-86982857D02*
X148273333Y-86944761D01*
X148273333Y-86944761D02*
X148306666Y-86906666D01*
X148306666Y-86906666D02*
X148339999Y-86830476D01*
X148339999Y-86830476D02*
X148339999Y-86754285D01*
X148339999Y-86754285D02*
X148306666Y-86678095D01*
X148306666Y-86678095D02*
X148273333Y-86640000D01*
X148273333Y-86640000D02*
X148206666Y-86601904D01*
X148206666Y-86601904D02*
X148039999Y-86601904D01*
X148039999Y-86601904D02*
X147939999Y-86640000D01*
X147739999Y-86601904D02*
X147506666Y-87401904D01*
X147506666Y-87401904D02*
X147273332Y-86601904D01*
X147039999Y-87401904D02*
X147039999Y-86601904D01*
X147039999Y-86601904D02*
X146773332Y-86601904D01*
X146773332Y-86601904D02*
X146706666Y-86640000D01*
X146706666Y-86640000D02*
X146673332Y-86678095D01*
X146673332Y-86678095D02*
X146639999Y-86754285D01*
X146639999Y-86754285D02*
X146639999Y-86868571D01*
X146639999Y-86868571D02*
X146673332Y-86944761D01*
X146673332Y-86944761D02*
X146706666Y-86982857D01*
X146706666Y-86982857D02*
X146773332Y-87020952D01*
X146773332Y-87020952D02*
X147039999Y-87020952D01*
X146406666Y-86601904D02*
X146239999Y-87401904D01*
X146239999Y-87401904D02*
X146106666Y-86830476D01*
X146106666Y-86830476D02*
X145973332Y-87401904D01*
X145973332Y-87401904D02*
X145806666Y-86601904D01*
X145539999Y-87401904D02*
X145539999Y-86601904D01*
X145539999Y-86601904D02*
X145306666Y-87173333D01*
X145306666Y-87173333D02*
X145073332Y-86601904D01*
X145073332Y-86601904D02*
X145073332Y-87401904D01*
X144186666Y-86601904D02*
X144053332Y-86601904D01*
X144053332Y-86601904D02*
X143986666Y-86640000D01*
X143986666Y-86640000D02*
X143919999Y-86716190D01*
X143919999Y-86716190D02*
X143886666Y-86868571D01*
X143886666Y-86868571D02*
X143886666Y-87135238D01*
X143886666Y-87135238D02*
X143919999Y-87287619D01*
X143919999Y-87287619D02*
X143986666Y-87363809D01*
X143986666Y-87363809D02*
X144053332Y-87401904D01*
X144053332Y-87401904D02*
X144186666Y-87401904D01*
X144186666Y-87401904D02*
X144253332Y-87363809D01*
X144253332Y-87363809D02*
X144319999Y-87287619D01*
X144319999Y-87287619D02*
X144353332Y-87135238D01*
X144353332Y-87135238D02*
X144353332Y-86868571D01*
X144353332Y-86868571D02*
X144319999Y-86716190D01*
X144319999Y-86716190D02*
X144253332Y-86640000D01*
X144253332Y-86640000D02*
X144186666Y-86601904D01*
X143286666Y-86868571D02*
X143286666Y-87401904D01*
X143586666Y-86868571D02*
X143586666Y-87287619D01*
X143586666Y-87287619D02*
X143553333Y-87363809D01*
X143553333Y-87363809D02*
X143486666Y-87401904D01*
X143486666Y-87401904D02*
X143386666Y-87401904D01*
X143386666Y-87401904D02*
X143319999Y-87363809D01*
X143319999Y-87363809D02*
X143286666Y-87325714D01*
X143053333Y-86868571D02*
X142786666Y-86868571D01*
X142953333Y-86601904D02*
X142953333Y-87287619D01*
X142953333Y-87287619D02*
X142920000Y-87363809D01*
X142920000Y-87363809D02*
X142853333Y-87401904D01*
X142853333Y-87401904D02*
X142786666Y-87401904D01*
X142553333Y-86868571D02*
X142553333Y-87668571D01*
X142553333Y-86906666D02*
X142486666Y-86868571D01*
X142486666Y-86868571D02*
X142353333Y-86868571D01*
X142353333Y-86868571D02*
X142286666Y-86906666D01*
X142286666Y-86906666D02*
X142253333Y-86944761D01*
X142253333Y-86944761D02*
X142220000Y-87020952D01*
X142220000Y-87020952D02*
X142220000Y-87249523D01*
X142220000Y-87249523D02*
X142253333Y-87325714D01*
X142253333Y-87325714D02*
X142286666Y-87363809D01*
X142286666Y-87363809D02*
X142353333Y-87401904D01*
X142353333Y-87401904D02*
X142486666Y-87401904D01*
X142486666Y-87401904D02*
X142553333Y-87363809D01*
X141620000Y-86868571D02*
X141620000Y-87401904D01*
X141920000Y-86868571D02*
X141920000Y-87287619D01*
X141920000Y-87287619D02*
X141886667Y-87363809D01*
X141886667Y-87363809D02*
X141820000Y-87401904D01*
X141820000Y-87401904D02*
X141720000Y-87401904D01*
X141720000Y-87401904D02*
X141653333Y-87363809D01*
X141653333Y-87363809D02*
X141620000Y-87325714D01*
X141386667Y-86868571D02*
X141120000Y-86868571D01*
X141286667Y-86601904D02*
X141286667Y-87287619D01*
X141286667Y-87287619D02*
X141253334Y-87363809D01*
X141253334Y-87363809D02*
X141186667Y-87401904D01*
X141186667Y-87401904D02*
X141120000Y-87401904D01*
X155733333Y-88393142D02*
X155200000Y-88393142D01*
X154479999Y-88469333D02*
X154146666Y-88469333D01*
X154546666Y-88697904D02*
X154313333Y-87897904D01*
X154313333Y-87897904D02*
X154079999Y-88697904D01*
X153846666Y-88697904D02*
X153846666Y-87897904D01*
X153846666Y-87897904D02*
X153679999Y-87897904D01*
X153679999Y-87897904D02*
X153579999Y-87936000D01*
X153579999Y-87936000D02*
X153513333Y-88012190D01*
X153513333Y-88012190D02*
X153479999Y-88088380D01*
X153479999Y-88088380D02*
X153446666Y-88240761D01*
X153446666Y-88240761D02*
X153446666Y-88355047D01*
X153446666Y-88355047D02*
X153479999Y-88507428D01*
X153479999Y-88507428D02*
X153513333Y-88583619D01*
X153513333Y-88583619D02*
X153579999Y-88659809D01*
X153579999Y-88659809D02*
X153679999Y-88697904D01*
X153679999Y-88697904D02*
X153846666Y-88697904D01*
X152746666Y-88621714D02*
X152779999Y-88659809D01*
X152779999Y-88659809D02*
X152879999Y-88697904D01*
X152879999Y-88697904D02*
X152946666Y-88697904D01*
X152946666Y-88697904D02*
X153046666Y-88659809D01*
X153046666Y-88659809D02*
X153113333Y-88583619D01*
X153113333Y-88583619D02*
X153146666Y-88507428D01*
X153146666Y-88507428D02*
X153179999Y-88355047D01*
X153179999Y-88355047D02*
X153179999Y-88240761D01*
X153179999Y-88240761D02*
X153146666Y-88088380D01*
X153146666Y-88088380D02*
X153113333Y-88012190D01*
X153113333Y-88012190D02*
X153046666Y-87936000D01*
X153046666Y-87936000D02*
X152946666Y-87897904D01*
X152946666Y-87897904D02*
X152879999Y-87897904D01*
X152879999Y-87897904D02*
X152779999Y-87936000D01*
X152779999Y-87936000D02*
X152746666Y-87974095D01*
X152079999Y-88697904D02*
X152479999Y-88697904D01*
X152279999Y-88697904D02*
X152279999Y-87897904D01*
X152279999Y-87897904D02*
X152346666Y-88012190D01*
X152346666Y-88012190D02*
X152413333Y-88088380D01*
X152413333Y-88088380D02*
X152479999Y-88126476D01*
X151746666Y-88659809D02*
X151746666Y-88697904D01*
X151746666Y-88697904D02*
X151779999Y-88774095D01*
X151779999Y-88774095D02*
X151813332Y-88812190D01*
X151059999Y-88469333D02*
X150726666Y-88469333D01*
X151126666Y-88697904D02*
X150893333Y-87897904D01*
X150893333Y-87897904D02*
X150659999Y-88697904D01*
X150426666Y-88697904D02*
X150426666Y-87897904D01*
X150426666Y-87897904D02*
X150259999Y-87897904D01*
X150259999Y-87897904D02*
X150159999Y-87936000D01*
X150159999Y-87936000D02*
X150093333Y-88012190D01*
X150093333Y-88012190D02*
X150059999Y-88088380D01*
X150059999Y-88088380D02*
X150026666Y-88240761D01*
X150026666Y-88240761D02*
X150026666Y-88355047D01*
X150026666Y-88355047D02*
X150059999Y-88507428D01*
X150059999Y-88507428D02*
X150093333Y-88583619D01*
X150093333Y-88583619D02*
X150159999Y-88659809D01*
X150159999Y-88659809D02*
X150259999Y-88697904D01*
X150259999Y-88697904D02*
X150426666Y-88697904D01*
X149326666Y-88621714D02*
X149359999Y-88659809D01*
X149359999Y-88659809D02*
X149459999Y-88697904D01*
X149459999Y-88697904D02*
X149526666Y-88697904D01*
X149526666Y-88697904D02*
X149626666Y-88659809D01*
X149626666Y-88659809D02*
X149693333Y-88583619D01*
X149693333Y-88583619D02*
X149726666Y-88507428D01*
X149726666Y-88507428D02*
X149759999Y-88355047D01*
X149759999Y-88355047D02*
X149759999Y-88240761D01*
X149759999Y-88240761D02*
X149726666Y-88088380D01*
X149726666Y-88088380D02*
X149693333Y-88012190D01*
X149693333Y-88012190D02*
X149626666Y-87936000D01*
X149626666Y-87936000D02*
X149526666Y-87897904D01*
X149526666Y-87897904D02*
X149459999Y-87897904D01*
X149459999Y-87897904D02*
X149359999Y-87936000D01*
X149359999Y-87936000D02*
X149326666Y-87974095D01*
X149059999Y-87974095D02*
X149026666Y-87936000D01*
X149026666Y-87936000D02*
X148959999Y-87897904D01*
X148959999Y-87897904D02*
X148793333Y-87897904D01*
X148793333Y-87897904D02*
X148726666Y-87936000D01*
X148726666Y-87936000D02*
X148693333Y-87974095D01*
X148693333Y-87974095D02*
X148659999Y-88050285D01*
X148659999Y-88050285D02*
X148659999Y-88126476D01*
X148659999Y-88126476D02*
X148693333Y-88240761D01*
X148693333Y-88240761D02*
X149093333Y-88697904D01*
X149093333Y-88697904D02*
X148659999Y-88697904D01*
X147939999Y-88697904D02*
X147939999Y-87897904D01*
X147939999Y-87897904D02*
X147673332Y-87897904D01*
X147673332Y-87897904D02*
X147606666Y-87936000D01*
X147606666Y-87936000D02*
X147573332Y-87974095D01*
X147573332Y-87974095D02*
X147539999Y-88050285D01*
X147539999Y-88050285D02*
X147539999Y-88164571D01*
X147539999Y-88164571D02*
X147573332Y-88240761D01*
X147573332Y-88240761D02*
X147606666Y-88278857D01*
X147606666Y-88278857D02*
X147673332Y-88316952D01*
X147673332Y-88316952D02*
X147939999Y-88316952D01*
X146939999Y-88697904D02*
X146939999Y-88278857D01*
X146939999Y-88278857D02*
X146973332Y-88202666D01*
X146973332Y-88202666D02*
X147039999Y-88164571D01*
X147039999Y-88164571D02*
X147173332Y-88164571D01*
X147173332Y-88164571D02*
X147239999Y-88202666D01*
X146939999Y-88659809D02*
X147006666Y-88697904D01*
X147006666Y-88697904D02*
X147173332Y-88697904D01*
X147173332Y-88697904D02*
X147239999Y-88659809D01*
X147239999Y-88659809D02*
X147273332Y-88583619D01*
X147273332Y-88583619D02*
X147273332Y-88507428D01*
X147273332Y-88507428D02*
X147239999Y-88431238D01*
X147239999Y-88431238D02*
X147173332Y-88393142D01*
X147173332Y-88393142D02*
X147006666Y-88393142D01*
X147006666Y-88393142D02*
X146939999Y-88355047D01*
X146606666Y-88697904D02*
X146606666Y-88164571D01*
X146606666Y-88316952D02*
X146573333Y-88240761D01*
X146573333Y-88240761D02*
X146539999Y-88202666D01*
X146539999Y-88202666D02*
X146473333Y-88164571D01*
X146473333Y-88164571D02*
X146406666Y-88164571D01*
X145873333Y-88697904D02*
X145873333Y-88278857D01*
X145873333Y-88278857D02*
X145906666Y-88202666D01*
X145906666Y-88202666D02*
X145973333Y-88164571D01*
X145973333Y-88164571D02*
X146106666Y-88164571D01*
X146106666Y-88164571D02*
X146173333Y-88202666D01*
X145873333Y-88659809D02*
X145940000Y-88697904D01*
X145940000Y-88697904D02*
X146106666Y-88697904D01*
X146106666Y-88697904D02*
X146173333Y-88659809D01*
X146173333Y-88659809D02*
X146206666Y-88583619D01*
X146206666Y-88583619D02*
X146206666Y-88507428D01*
X146206666Y-88507428D02*
X146173333Y-88431238D01*
X146173333Y-88431238D02*
X146106666Y-88393142D01*
X146106666Y-88393142D02*
X145940000Y-88393142D01*
X145940000Y-88393142D02*
X145873333Y-88355047D01*
X145440000Y-88697904D02*
X145506667Y-88659809D01*
X145506667Y-88659809D02*
X145540000Y-88583619D01*
X145540000Y-88583619D02*
X145540000Y-87897904D01*
X144906666Y-88659809D02*
X144973333Y-88697904D01*
X144973333Y-88697904D02*
X145106666Y-88697904D01*
X145106666Y-88697904D02*
X145173333Y-88659809D01*
X145173333Y-88659809D02*
X145206666Y-88583619D01*
X145206666Y-88583619D02*
X145206666Y-88278857D01*
X145206666Y-88278857D02*
X145173333Y-88202666D01*
X145173333Y-88202666D02*
X145106666Y-88164571D01*
X145106666Y-88164571D02*
X144973333Y-88164571D01*
X144973333Y-88164571D02*
X144906666Y-88202666D01*
X144906666Y-88202666D02*
X144873333Y-88278857D01*
X144873333Y-88278857D02*
X144873333Y-88355047D01*
X144873333Y-88355047D02*
X145206666Y-88431238D01*
X144473333Y-88697904D02*
X144540000Y-88659809D01*
X144540000Y-88659809D02*
X144573333Y-88583619D01*
X144573333Y-88583619D02*
X144573333Y-87897904D01*
X144106666Y-88697904D02*
X144173333Y-88659809D01*
X144173333Y-88659809D02*
X144206666Y-88583619D01*
X144206666Y-88583619D02*
X144206666Y-87897904D01*
X143419999Y-88697904D02*
X143419999Y-87897904D01*
X143419999Y-87897904D02*
X143186666Y-88469333D01*
X143186666Y-88469333D02*
X142953332Y-87897904D01*
X142953332Y-87897904D02*
X142953332Y-88697904D01*
X142519999Y-88697904D02*
X142586666Y-88659809D01*
X142586666Y-88659809D02*
X142619999Y-88621714D01*
X142619999Y-88621714D02*
X142653332Y-88545523D01*
X142653332Y-88545523D02*
X142653332Y-88316952D01*
X142653332Y-88316952D02*
X142619999Y-88240761D01*
X142619999Y-88240761D02*
X142586666Y-88202666D01*
X142586666Y-88202666D02*
X142519999Y-88164571D01*
X142519999Y-88164571D02*
X142419999Y-88164571D01*
X142419999Y-88164571D02*
X142353332Y-88202666D01*
X142353332Y-88202666D02*
X142319999Y-88240761D01*
X142319999Y-88240761D02*
X142286666Y-88316952D01*
X142286666Y-88316952D02*
X142286666Y-88545523D01*
X142286666Y-88545523D02*
X142319999Y-88621714D01*
X142319999Y-88621714D02*
X142353332Y-88659809D01*
X142353332Y-88659809D02*
X142419999Y-88697904D01*
X142419999Y-88697904D02*
X142519999Y-88697904D01*
X141686666Y-88697904D02*
X141686666Y-87897904D01*
X141686666Y-88659809D02*
X141753333Y-88697904D01*
X141753333Y-88697904D02*
X141886666Y-88697904D01*
X141886666Y-88697904D02*
X141953333Y-88659809D01*
X141953333Y-88659809D02*
X141986666Y-88621714D01*
X141986666Y-88621714D02*
X142019999Y-88545523D01*
X142019999Y-88545523D02*
X142019999Y-88316952D01*
X142019999Y-88316952D02*
X141986666Y-88240761D01*
X141986666Y-88240761D02*
X141953333Y-88202666D01*
X141953333Y-88202666D02*
X141886666Y-88164571D01*
X141886666Y-88164571D02*
X141753333Y-88164571D01*
X141753333Y-88164571D02*
X141686666Y-88202666D01*
X141086666Y-88659809D02*
X141153333Y-88697904D01*
X141153333Y-88697904D02*
X141286666Y-88697904D01*
X141286666Y-88697904D02*
X141353333Y-88659809D01*
X141353333Y-88659809D02*
X141386666Y-88583619D01*
X141386666Y-88583619D02*
X141386666Y-88278857D01*
X141386666Y-88278857D02*
X141353333Y-88202666D01*
X141353333Y-88202666D02*
X141286666Y-88164571D01*
X141286666Y-88164571D02*
X141153333Y-88164571D01*
X141153333Y-88164571D02*
X141086666Y-88202666D01*
X141086666Y-88202666D02*
X141053333Y-88278857D01*
X141053333Y-88278857D02*
X141053333Y-88355047D01*
X141053333Y-88355047D02*
X141386666Y-88431238D01*
X140366666Y-88659809D02*
X140266666Y-88697904D01*
X140266666Y-88697904D02*
X140100000Y-88697904D01*
X140100000Y-88697904D02*
X140033333Y-88659809D01*
X140033333Y-88659809D02*
X140000000Y-88621714D01*
X140000000Y-88621714D02*
X139966666Y-88545523D01*
X139966666Y-88545523D02*
X139966666Y-88469333D01*
X139966666Y-88469333D02*
X140000000Y-88393142D01*
X140000000Y-88393142D02*
X140033333Y-88355047D01*
X140033333Y-88355047D02*
X140100000Y-88316952D01*
X140100000Y-88316952D02*
X140233333Y-88278857D01*
X140233333Y-88278857D02*
X140300000Y-88240761D01*
X140300000Y-88240761D02*
X140333333Y-88202666D01*
X140333333Y-88202666D02*
X140366666Y-88126476D01*
X140366666Y-88126476D02*
X140366666Y-88050285D01*
X140366666Y-88050285D02*
X140333333Y-87974095D01*
X140333333Y-87974095D02*
X140300000Y-87936000D01*
X140300000Y-87936000D02*
X140233333Y-87897904D01*
X140233333Y-87897904D02*
X140066666Y-87897904D01*
X140066666Y-87897904D02*
X139966666Y-87936000D01*
X139366666Y-88697904D02*
X139366666Y-88278857D01*
X139366666Y-88278857D02*
X139399999Y-88202666D01*
X139399999Y-88202666D02*
X139466666Y-88164571D01*
X139466666Y-88164571D02*
X139599999Y-88164571D01*
X139599999Y-88164571D02*
X139666666Y-88202666D01*
X139366666Y-88659809D02*
X139433333Y-88697904D01*
X139433333Y-88697904D02*
X139599999Y-88697904D01*
X139599999Y-88697904D02*
X139666666Y-88659809D01*
X139666666Y-88659809D02*
X139699999Y-88583619D01*
X139699999Y-88583619D02*
X139699999Y-88507428D01*
X139699999Y-88507428D02*
X139666666Y-88431238D01*
X139666666Y-88431238D02*
X139599999Y-88393142D01*
X139599999Y-88393142D02*
X139433333Y-88393142D01*
X139433333Y-88393142D02*
X139366666Y-88355047D01*
X139033333Y-88697904D02*
X139033333Y-88164571D01*
X139033333Y-88240761D02*
X139000000Y-88202666D01*
X139000000Y-88202666D02*
X138933333Y-88164571D01*
X138933333Y-88164571D02*
X138833333Y-88164571D01*
X138833333Y-88164571D02*
X138766666Y-88202666D01*
X138766666Y-88202666D02*
X138733333Y-88278857D01*
X138733333Y-88278857D02*
X138733333Y-88697904D01*
X138733333Y-88278857D02*
X138700000Y-88202666D01*
X138700000Y-88202666D02*
X138633333Y-88164571D01*
X138633333Y-88164571D02*
X138533333Y-88164571D01*
X138533333Y-88164571D02*
X138466666Y-88202666D01*
X138466666Y-88202666D02*
X138433333Y-88278857D01*
X138433333Y-88278857D02*
X138433333Y-88697904D01*
X138100000Y-88164571D02*
X138100000Y-88964571D01*
X138100000Y-88202666D02*
X138033333Y-88164571D01*
X138033333Y-88164571D02*
X137900000Y-88164571D01*
X137900000Y-88164571D02*
X137833333Y-88202666D01*
X137833333Y-88202666D02*
X137800000Y-88240761D01*
X137800000Y-88240761D02*
X137766667Y-88316952D01*
X137766667Y-88316952D02*
X137766667Y-88545523D01*
X137766667Y-88545523D02*
X137800000Y-88621714D01*
X137800000Y-88621714D02*
X137833333Y-88659809D01*
X137833333Y-88659809D02*
X137900000Y-88697904D01*
X137900000Y-88697904D02*
X138033333Y-88697904D01*
X138033333Y-88697904D02*
X138100000Y-88659809D01*
X137366667Y-88697904D02*
X137433334Y-88659809D01*
X137433334Y-88659809D02*
X137466667Y-88583619D01*
X137466667Y-88583619D02*
X137466667Y-87897904D01*
X137100000Y-88697904D02*
X137100000Y-88164571D01*
X137100000Y-87897904D02*
X137133333Y-87936000D01*
X137133333Y-87936000D02*
X137100000Y-87974095D01*
X137100000Y-87974095D02*
X137066667Y-87936000D01*
X137066667Y-87936000D02*
X137100000Y-87897904D01*
X137100000Y-87897904D02*
X137100000Y-87974095D01*
X136766667Y-88164571D02*
X136766667Y-88697904D01*
X136766667Y-88240761D02*
X136733334Y-88202666D01*
X136733334Y-88202666D02*
X136666667Y-88164571D01*
X136666667Y-88164571D02*
X136566667Y-88164571D01*
X136566667Y-88164571D02*
X136500000Y-88202666D01*
X136500000Y-88202666D02*
X136466667Y-88278857D01*
X136466667Y-88278857D02*
X136466667Y-88697904D01*
X135833334Y-88164571D02*
X135833334Y-88812190D01*
X135833334Y-88812190D02*
X135866667Y-88888380D01*
X135866667Y-88888380D02*
X135900001Y-88926476D01*
X135900001Y-88926476D02*
X135966667Y-88964571D01*
X135966667Y-88964571D02*
X136066667Y-88964571D01*
X136066667Y-88964571D02*
X136133334Y-88926476D01*
X135833334Y-88659809D02*
X135900001Y-88697904D01*
X135900001Y-88697904D02*
X136033334Y-88697904D01*
X136033334Y-88697904D02*
X136100001Y-88659809D01*
X136100001Y-88659809D02*
X136133334Y-88621714D01*
X136133334Y-88621714D02*
X136166667Y-88545523D01*
X136166667Y-88545523D02*
X136166667Y-88316952D01*
X136166667Y-88316952D02*
X136133334Y-88240761D01*
X136133334Y-88240761D02*
X136100001Y-88202666D01*
X136100001Y-88202666D02*
X136033334Y-88164571D01*
X136033334Y-88164571D02*
X135900001Y-88164571D01*
X135900001Y-88164571D02*
X135833334Y-88202666D01*
X135180001Y-88164571D02*
X134913334Y-88164571D01*
X135080001Y-88697904D02*
X135080001Y-88012190D01*
X135080001Y-88012190D02*
X135046668Y-87936000D01*
X135046668Y-87936000D02*
X134980001Y-87897904D01*
X134980001Y-87897904D02*
X134913334Y-87897904D01*
X134580001Y-88697904D02*
X134646668Y-88659809D01*
X134646668Y-88659809D02*
X134680001Y-88621714D01*
X134680001Y-88621714D02*
X134713334Y-88545523D01*
X134713334Y-88545523D02*
X134713334Y-88316952D01*
X134713334Y-88316952D02*
X134680001Y-88240761D01*
X134680001Y-88240761D02*
X134646668Y-88202666D01*
X134646668Y-88202666D02*
X134580001Y-88164571D01*
X134580001Y-88164571D02*
X134480001Y-88164571D01*
X134480001Y-88164571D02*
X134413334Y-88202666D01*
X134413334Y-88202666D02*
X134380001Y-88240761D01*
X134380001Y-88240761D02*
X134346668Y-88316952D01*
X134346668Y-88316952D02*
X134346668Y-88545523D01*
X134346668Y-88545523D02*
X134380001Y-88621714D01*
X134380001Y-88621714D02*
X134413334Y-88659809D01*
X134413334Y-88659809D02*
X134480001Y-88697904D01*
X134480001Y-88697904D02*
X134580001Y-88697904D01*
X134046668Y-88697904D02*
X134046668Y-88164571D01*
X134046668Y-88316952D02*
X134013335Y-88240761D01*
X134013335Y-88240761D02*
X133980001Y-88202666D01*
X133980001Y-88202666D02*
X133913335Y-88164571D01*
X133913335Y-88164571D02*
X133846668Y-88164571D01*
X133293335Y-87897904D02*
X133060002Y-88697904D01*
X133060002Y-88697904D02*
X132826668Y-87897904D01*
X132026668Y-88697904D02*
X132060002Y-88697904D01*
X132060002Y-88697904D02*
X132126668Y-88659809D01*
X132126668Y-88659809D02*
X132226668Y-88545523D01*
X132226668Y-88545523D02*
X132393335Y-88316952D01*
X132393335Y-88316952D02*
X132460002Y-88202666D01*
X132460002Y-88202666D02*
X132493335Y-88088380D01*
X132493335Y-88088380D02*
X132493335Y-88012190D01*
X132493335Y-88012190D02*
X132460002Y-87936000D01*
X132460002Y-87936000D02*
X132393335Y-87897904D01*
X132393335Y-87897904D02*
X132360002Y-87897904D01*
X132360002Y-87897904D02*
X132293335Y-87936000D01*
X132293335Y-87936000D02*
X132260002Y-88012190D01*
X132260002Y-88012190D02*
X132260002Y-88050285D01*
X132260002Y-88050285D02*
X132293335Y-88126476D01*
X132293335Y-88126476D02*
X132326668Y-88164571D01*
X132326668Y-88164571D02*
X132526668Y-88316952D01*
X132526668Y-88316952D02*
X132560002Y-88355047D01*
X132560002Y-88355047D02*
X132593335Y-88431238D01*
X132593335Y-88431238D02*
X132593335Y-88545523D01*
X132593335Y-88545523D02*
X132560002Y-88621714D01*
X132560002Y-88621714D02*
X132526668Y-88659809D01*
X132526668Y-88659809D02*
X132460002Y-88697904D01*
X132460002Y-88697904D02*
X132360002Y-88697904D01*
X132360002Y-88697904D02*
X132293335Y-88659809D01*
X132293335Y-88659809D02*
X132260002Y-88621714D01*
X132260002Y-88621714D02*
X132160002Y-88469333D01*
X132160002Y-88469333D02*
X132126668Y-88355047D01*
X132126668Y-88355047D02*
X132126668Y-88278857D01*
X131726668Y-88697904D02*
X131726668Y-87897904D01*
X155733333Y-89689142D02*
X155200000Y-89689142D01*
X154546666Y-89193904D02*
X154146666Y-89193904D01*
X154346666Y-89993904D02*
X154346666Y-89193904D01*
X153913333Y-89993904D02*
X153913333Y-89193904D01*
X153580000Y-89993904D02*
X153580000Y-89193904D01*
X153580000Y-89193904D02*
X153346667Y-89765333D01*
X153346667Y-89765333D02*
X153113333Y-89193904D01*
X153113333Y-89193904D02*
X153113333Y-89993904D01*
X152413333Y-89993904D02*
X152813333Y-89993904D01*
X152613333Y-89993904D02*
X152613333Y-89193904D01*
X152613333Y-89193904D02*
X152680000Y-89308190D01*
X152680000Y-89308190D02*
X152746667Y-89384380D01*
X152746667Y-89384380D02*
X152813333Y-89422476D01*
X151693333Y-89993904D02*
X151693333Y-89193904D01*
X151693333Y-89193904D02*
X151460000Y-89765333D01*
X151460000Y-89765333D02*
X151226666Y-89193904D01*
X151226666Y-89193904D02*
X151226666Y-89993904D01*
X150593333Y-89993904D02*
X150593333Y-89574857D01*
X150593333Y-89574857D02*
X150626666Y-89498666D01*
X150626666Y-89498666D02*
X150693333Y-89460571D01*
X150693333Y-89460571D02*
X150826666Y-89460571D01*
X150826666Y-89460571D02*
X150893333Y-89498666D01*
X150593333Y-89955809D02*
X150660000Y-89993904D01*
X150660000Y-89993904D02*
X150826666Y-89993904D01*
X150826666Y-89993904D02*
X150893333Y-89955809D01*
X150893333Y-89955809D02*
X150926666Y-89879619D01*
X150926666Y-89879619D02*
X150926666Y-89803428D01*
X150926666Y-89803428D02*
X150893333Y-89727238D01*
X150893333Y-89727238D02*
X150826666Y-89689142D01*
X150826666Y-89689142D02*
X150660000Y-89689142D01*
X150660000Y-89689142D02*
X150593333Y-89651047D01*
X150293333Y-89955809D02*
X150226667Y-89993904D01*
X150226667Y-89993904D02*
X150093333Y-89993904D01*
X150093333Y-89993904D02*
X150026667Y-89955809D01*
X150026667Y-89955809D02*
X149993333Y-89879619D01*
X149993333Y-89879619D02*
X149993333Y-89841523D01*
X149993333Y-89841523D02*
X150026667Y-89765333D01*
X150026667Y-89765333D02*
X150093333Y-89727238D01*
X150093333Y-89727238D02*
X150193333Y-89727238D01*
X150193333Y-89727238D02*
X150260000Y-89689142D01*
X150260000Y-89689142D02*
X150293333Y-89612952D01*
X150293333Y-89612952D02*
X150293333Y-89574857D01*
X150293333Y-89574857D02*
X150260000Y-89498666D01*
X150260000Y-89498666D02*
X150193333Y-89460571D01*
X150193333Y-89460571D02*
X150093333Y-89460571D01*
X150093333Y-89460571D02*
X150026667Y-89498666D01*
X149793333Y-89460571D02*
X149526666Y-89460571D01*
X149693333Y-89193904D02*
X149693333Y-89879619D01*
X149693333Y-89879619D02*
X149660000Y-89955809D01*
X149660000Y-89955809D02*
X149593333Y-89993904D01*
X149593333Y-89993904D02*
X149526666Y-89993904D01*
X149026666Y-89955809D02*
X149093333Y-89993904D01*
X149093333Y-89993904D02*
X149226666Y-89993904D01*
X149226666Y-89993904D02*
X149293333Y-89955809D01*
X149293333Y-89955809D02*
X149326666Y-89879619D01*
X149326666Y-89879619D02*
X149326666Y-89574857D01*
X149326666Y-89574857D02*
X149293333Y-89498666D01*
X149293333Y-89498666D02*
X149226666Y-89460571D01*
X149226666Y-89460571D02*
X149093333Y-89460571D01*
X149093333Y-89460571D02*
X149026666Y-89498666D01*
X149026666Y-89498666D02*
X148993333Y-89574857D01*
X148993333Y-89574857D02*
X148993333Y-89651047D01*
X148993333Y-89651047D02*
X149326666Y-89727238D01*
X148693333Y-89993904D02*
X148693333Y-89460571D01*
X148693333Y-89612952D02*
X148660000Y-89536761D01*
X148660000Y-89536761D02*
X148626666Y-89498666D01*
X148626666Y-89498666D02*
X148560000Y-89460571D01*
X148560000Y-89460571D02*
X148493333Y-89460571D01*
X148226667Y-89955809D02*
X148226667Y-89993904D01*
X148226667Y-89993904D02*
X148260000Y-90070095D01*
X148260000Y-90070095D02*
X148293333Y-90108190D01*
X147606667Y-89193904D02*
X147206667Y-89193904D01*
X147406667Y-89993904D02*
X147406667Y-89193904D01*
X146973334Y-89993904D02*
X146973334Y-89193904D01*
X146640001Y-89993904D02*
X146640001Y-89193904D01*
X146640001Y-89193904D02*
X146406668Y-89765333D01*
X146406668Y-89765333D02*
X146173334Y-89193904D01*
X146173334Y-89193904D02*
X146173334Y-89993904D01*
X145873334Y-89270095D02*
X145840001Y-89232000D01*
X145840001Y-89232000D02*
X145773334Y-89193904D01*
X145773334Y-89193904D02*
X145606668Y-89193904D01*
X145606668Y-89193904D02*
X145540001Y-89232000D01*
X145540001Y-89232000D02*
X145506668Y-89270095D01*
X145506668Y-89270095D02*
X145473334Y-89346285D01*
X145473334Y-89346285D02*
X145473334Y-89422476D01*
X145473334Y-89422476D02*
X145506668Y-89536761D01*
X145506668Y-89536761D02*
X145906668Y-89993904D01*
X145906668Y-89993904D02*
X145473334Y-89993904D01*
X144786667Y-89955809D02*
X144686667Y-89993904D01*
X144686667Y-89993904D02*
X144520001Y-89993904D01*
X144520001Y-89993904D02*
X144453334Y-89955809D01*
X144453334Y-89955809D02*
X144420001Y-89917714D01*
X144420001Y-89917714D02*
X144386667Y-89841523D01*
X144386667Y-89841523D02*
X144386667Y-89765333D01*
X144386667Y-89765333D02*
X144420001Y-89689142D01*
X144420001Y-89689142D02*
X144453334Y-89651047D01*
X144453334Y-89651047D02*
X144520001Y-89612952D01*
X144520001Y-89612952D02*
X144653334Y-89574857D01*
X144653334Y-89574857D02*
X144720001Y-89536761D01*
X144720001Y-89536761D02*
X144753334Y-89498666D01*
X144753334Y-89498666D02*
X144786667Y-89422476D01*
X144786667Y-89422476D02*
X144786667Y-89346285D01*
X144786667Y-89346285D02*
X144753334Y-89270095D01*
X144753334Y-89270095D02*
X144720001Y-89232000D01*
X144720001Y-89232000D02*
X144653334Y-89193904D01*
X144653334Y-89193904D02*
X144486667Y-89193904D01*
X144486667Y-89193904D02*
X144386667Y-89232000D01*
X143986667Y-89993904D02*
X144053334Y-89955809D01*
X144053334Y-89955809D02*
X144086667Y-89879619D01*
X144086667Y-89879619D02*
X144086667Y-89193904D01*
X143420000Y-89993904D02*
X143420000Y-89574857D01*
X143420000Y-89574857D02*
X143453333Y-89498666D01*
X143453333Y-89498666D02*
X143520000Y-89460571D01*
X143520000Y-89460571D02*
X143653333Y-89460571D01*
X143653333Y-89460571D02*
X143720000Y-89498666D01*
X143420000Y-89955809D02*
X143486667Y-89993904D01*
X143486667Y-89993904D02*
X143653333Y-89993904D01*
X143653333Y-89993904D02*
X143720000Y-89955809D01*
X143720000Y-89955809D02*
X143753333Y-89879619D01*
X143753333Y-89879619D02*
X143753333Y-89803428D01*
X143753333Y-89803428D02*
X143720000Y-89727238D01*
X143720000Y-89727238D02*
X143653333Y-89689142D01*
X143653333Y-89689142D02*
X143486667Y-89689142D01*
X143486667Y-89689142D02*
X143420000Y-89651047D01*
X143153334Y-89460571D02*
X142986667Y-89993904D01*
X142986667Y-89993904D02*
X142820000Y-89460571D01*
X142286667Y-89955809D02*
X142353334Y-89993904D01*
X142353334Y-89993904D02*
X142486667Y-89993904D01*
X142486667Y-89993904D02*
X142553334Y-89955809D01*
X142553334Y-89955809D02*
X142586667Y-89879619D01*
X142586667Y-89879619D02*
X142586667Y-89574857D01*
X142586667Y-89574857D02*
X142553334Y-89498666D01*
X142553334Y-89498666D02*
X142486667Y-89460571D01*
X142486667Y-89460571D02*
X142353334Y-89460571D01*
X142353334Y-89460571D02*
X142286667Y-89498666D01*
X142286667Y-89498666D02*
X142253334Y-89574857D01*
X142253334Y-89574857D02*
X142253334Y-89651047D01*
X142253334Y-89651047D02*
X142586667Y-89727238D01*
X155733333Y-90985142D02*
X155200000Y-90985142D01*
X154546666Y-90489904D02*
X154146666Y-90489904D01*
X154346666Y-91289904D02*
X154346666Y-90489904D01*
X153913333Y-91289904D02*
X153913333Y-90489904D01*
X153580000Y-91289904D02*
X153580000Y-90489904D01*
X153580000Y-90489904D02*
X153346667Y-91061333D01*
X153346667Y-91061333D02*
X153113333Y-90489904D01*
X153113333Y-90489904D02*
X153113333Y-91289904D01*
X152813333Y-90566095D02*
X152780000Y-90528000D01*
X152780000Y-90528000D02*
X152713333Y-90489904D01*
X152713333Y-90489904D02*
X152546667Y-90489904D01*
X152546667Y-90489904D02*
X152480000Y-90528000D01*
X152480000Y-90528000D02*
X152446667Y-90566095D01*
X152446667Y-90566095D02*
X152413333Y-90642285D01*
X152413333Y-90642285D02*
X152413333Y-90718476D01*
X152413333Y-90718476D02*
X152446667Y-90832761D01*
X152446667Y-90832761D02*
X152846667Y-91289904D01*
X152846667Y-91289904D02*
X152413333Y-91289904D01*
X151293333Y-91213714D02*
X151326666Y-91251809D01*
X151326666Y-91251809D02*
X151426666Y-91289904D01*
X151426666Y-91289904D02*
X151493333Y-91289904D01*
X151493333Y-91289904D02*
X151593333Y-91251809D01*
X151593333Y-91251809D02*
X151660000Y-91175619D01*
X151660000Y-91175619D02*
X151693333Y-91099428D01*
X151693333Y-91099428D02*
X151726666Y-90947047D01*
X151726666Y-90947047D02*
X151726666Y-90832761D01*
X151726666Y-90832761D02*
X151693333Y-90680380D01*
X151693333Y-90680380D02*
X151660000Y-90604190D01*
X151660000Y-90604190D02*
X151593333Y-90528000D01*
X151593333Y-90528000D02*
X151493333Y-90489904D01*
X151493333Y-90489904D02*
X151426666Y-90489904D01*
X151426666Y-90489904D02*
X151326666Y-90528000D01*
X151326666Y-90528000D02*
X151293333Y-90566095D01*
X150593333Y-91213714D02*
X150626666Y-91251809D01*
X150626666Y-91251809D02*
X150726666Y-91289904D01*
X150726666Y-91289904D02*
X150793333Y-91289904D01*
X150793333Y-91289904D02*
X150893333Y-91251809D01*
X150893333Y-91251809D02*
X150960000Y-91175619D01*
X150960000Y-91175619D02*
X150993333Y-91099428D01*
X150993333Y-91099428D02*
X151026666Y-90947047D01*
X151026666Y-90947047D02*
X151026666Y-90832761D01*
X151026666Y-90832761D02*
X150993333Y-90680380D01*
X150993333Y-90680380D02*
X150960000Y-90604190D01*
X150960000Y-90604190D02*
X150893333Y-90528000D01*
X150893333Y-90528000D02*
X150793333Y-90489904D01*
X150793333Y-90489904D02*
X150726666Y-90489904D01*
X150726666Y-90489904D02*
X150626666Y-90528000D01*
X150626666Y-90528000D02*
X150593333Y-90566095D01*
X150326666Y-90566095D02*
X150293333Y-90528000D01*
X150293333Y-90528000D02*
X150226666Y-90489904D01*
X150226666Y-90489904D02*
X150060000Y-90489904D01*
X150060000Y-90489904D02*
X149993333Y-90528000D01*
X149993333Y-90528000D02*
X149960000Y-90566095D01*
X149960000Y-90566095D02*
X149926666Y-90642285D01*
X149926666Y-90642285D02*
X149926666Y-90718476D01*
X149926666Y-90718476D02*
X149960000Y-90832761D01*
X149960000Y-90832761D02*
X150360000Y-91289904D01*
X150360000Y-91289904D02*
X149926666Y-91289904D01*
X149306666Y-90756571D02*
X149039999Y-90756571D01*
X149206666Y-90489904D02*
X149206666Y-91175619D01*
X149206666Y-91175619D02*
X149173333Y-91251809D01*
X149173333Y-91251809D02*
X149106666Y-91289904D01*
X149106666Y-91289904D02*
X149039999Y-91289904D01*
X148806666Y-91289904D02*
X148806666Y-90756571D01*
X148806666Y-90908952D02*
X148773333Y-90832761D01*
X148773333Y-90832761D02*
X148739999Y-90794666D01*
X148739999Y-90794666D02*
X148673333Y-90756571D01*
X148673333Y-90756571D02*
X148606666Y-90756571D01*
X148373333Y-91289904D02*
X148373333Y-90756571D01*
X148373333Y-90489904D02*
X148406666Y-90528000D01*
X148406666Y-90528000D02*
X148373333Y-90566095D01*
X148373333Y-90566095D02*
X148340000Y-90528000D01*
X148340000Y-90528000D02*
X148373333Y-90489904D01*
X148373333Y-90489904D02*
X148373333Y-90566095D01*
X147740000Y-90756571D02*
X147740000Y-91404190D01*
X147740000Y-91404190D02*
X147773333Y-91480380D01*
X147773333Y-91480380D02*
X147806667Y-91518476D01*
X147806667Y-91518476D02*
X147873333Y-91556571D01*
X147873333Y-91556571D02*
X147973333Y-91556571D01*
X147973333Y-91556571D02*
X148040000Y-91518476D01*
X147740000Y-91251809D02*
X147806667Y-91289904D01*
X147806667Y-91289904D02*
X147940000Y-91289904D01*
X147940000Y-91289904D02*
X148006667Y-91251809D01*
X148006667Y-91251809D02*
X148040000Y-91213714D01*
X148040000Y-91213714D02*
X148073333Y-91137523D01*
X148073333Y-91137523D02*
X148073333Y-90908952D01*
X148073333Y-90908952D02*
X148040000Y-90832761D01*
X148040000Y-90832761D02*
X148006667Y-90794666D01*
X148006667Y-90794666D02*
X147940000Y-90756571D01*
X147940000Y-90756571D02*
X147806667Y-90756571D01*
X147806667Y-90756571D02*
X147740000Y-90794666D01*
X147106667Y-90756571D02*
X147106667Y-91404190D01*
X147106667Y-91404190D02*
X147140000Y-91480380D01*
X147140000Y-91480380D02*
X147173334Y-91518476D01*
X147173334Y-91518476D02*
X147240000Y-91556571D01*
X147240000Y-91556571D02*
X147340000Y-91556571D01*
X147340000Y-91556571D02*
X147406667Y-91518476D01*
X147106667Y-91251809D02*
X147173334Y-91289904D01*
X147173334Y-91289904D02*
X147306667Y-91289904D01*
X147306667Y-91289904D02*
X147373334Y-91251809D01*
X147373334Y-91251809D02*
X147406667Y-91213714D01*
X147406667Y-91213714D02*
X147440000Y-91137523D01*
X147440000Y-91137523D02*
X147440000Y-90908952D01*
X147440000Y-90908952D02*
X147406667Y-90832761D01*
X147406667Y-90832761D02*
X147373334Y-90794666D01*
X147373334Y-90794666D02*
X147306667Y-90756571D01*
X147306667Y-90756571D02*
X147173334Y-90756571D01*
X147173334Y-90756571D02*
X147106667Y-90794666D01*
X146506667Y-91251809D02*
X146573334Y-91289904D01*
X146573334Y-91289904D02*
X146706667Y-91289904D01*
X146706667Y-91289904D02*
X146773334Y-91251809D01*
X146773334Y-91251809D02*
X146806667Y-91175619D01*
X146806667Y-91175619D02*
X146806667Y-90870857D01*
X146806667Y-90870857D02*
X146773334Y-90794666D01*
X146773334Y-90794666D02*
X146706667Y-90756571D01*
X146706667Y-90756571D02*
X146573334Y-90756571D01*
X146573334Y-90756571D02*
X146506667Y-90794666D01*
X146506667Y-90794666D02*
X146473334Y-90870857D01*
X146473334Y-90870857D02*
X146473334Y-90947047D01*
X146473334Y-90947047D02*
X146806667Y-91023238D01*
X146173334Y-91289904D02*
X146173334Y-90756571D01*
X146173334Y-90908952D02*
X146140001Y-90832761D01*
X146140001Y-90832761D02*
X146106667Y-90794666D01*
X146106667Y-90794666D02*
X146040001Y-90756571D01*
X146040001Y-90756571D02*
X145973334Y-90756571D01*
X145773334Y-91251809D02*
X145706668Y-91289904D01*
X145706668Y-91289904D02*
X145573334Y-91289904D01*
X145573334Y-91289904D02*
X145506668Y-91251809D01*
X145506668Y-91251809D02*
X145473334Y-91175619D01*
X145473334Y-91175619D02*
X145473334Y-91137523D01*
X145473334Y-91137523D02*
X145506668Y-91061333D01*
X145506668Y-91061333D02*
X145573334Y-91023238D01*
X145573334Y-91023238D02*
X145673334Y-91023238D01*
X145673334Y-91023238D02*
X145740001Y-90985142D01*
X145740001Y-90985142D02*
X145773334Y-90908952D01*
X145773334Y-90908952D02*
X145773334Y-90870857D01*
X145773334Y-90870857D02*
X145740001Y-90794666D01*
X145740001Y-90794666D02*
X145673334Y-90756571D01*
X145673334Y-90756571D02*
X145573334Y-90756571D01*
X145573334Y-90756571D02*
X145506668Y-90794666D01*
X144786667Y-91061333D02*
X144453334Y-91061333D01*
X144853334Y-91289904D02*
X144620001Y-90489904D01*
X144620001Y-90489904D02*
X144386667Y-91289904D01*
X144153334Y-91289904D02*
X144153334Y-90489904D01*
X144153334Y-90489904D02*
X143986667Y-90489904D01*
X143986667Y-90489904D02*
X143886667Y-90528000D01*
X143886667Y-90528000D02*
X143820001Y-90604190D01*
X143820001Y-90604190D02*
X143786667Y-90680380D01*
X143786667Y-90680380D02*
X143753334Y-90832761D01*
X143753334Y-90832761D02*
X143753334Y-90947047D01*
X143753334Y-90947047D02*
X143786667Y-91099428D01*
X143786667Y-91099428D02*
X143820001Y-91175619D01*
X143820001Y-91175619D02*
X143886667Y-91251809D01*
X143886667Y-91251809D02*
X143986667Y-91289904D01*
X143986667Y-91289904D02*
X144153334Y-91289904D01*
X143053334Y-91213714D02*
X143086667Y-91251809D01*
X143086667Y-91251809D02*
X143186667Y-91289904D01*
X143186667Y-91289904D02*
X143253334Y-91289904D01*
X143253334Y-91289904D02*
X143353334Y-91251809D01*
X143353334Y-91251809D02*
X143420001Y-91175619D01*
X143420001Y-91175619D02*
X143453334Y-91099428D01*
X143453334Y-91099428D02*
X143486667Y-90947047D01*
X143486667Y-90947047D02*
X143486667Y-90832761D01*
X143486667Y-90832761D02*
X143453334Y-90680380D01*
X143453334Y-90680380D02*
X143420001Y-90604190D01*
X143420001Y-90604190D02*
X143353334Y-90528000D01*
X143353334Y-90528000D02*
X143253334Y-90489904D01*
X143253334Y-90489904D02*
X143186667Y-90489904D01*
X143186667Y-90489904D02*
X143086667Y-90528000D01*
X143086667Y-90528000D02*
X143053334Y-90566095D01*
X142386667Y-91289904D02*
X142786667Y-91289904D01*
X142586667Y-91289904D02*
X142586667Y-90489904D01*
X142586667Y-90489904D02*
X142653334Y-90604190D01*
X142653334Y-90604190D02*
X142720001Y-90680380D01*
X142720001Y-90680380D02*
X142786667Y-90718476D01*
X141666667Y-91289904D02*
X141666667Y-90489904D01*
X141666667Y-90489904D02*
X141500000Y-90489904D01*
X141500000Y-90489904D02*
X141400000Y-90528000D01*
X141400000Y-90528000D02*
X141333334Y-90604190D01*
X141333334Y-90604190D02*
X141300000Y-90680380D01*
X141300000Y-90680380D02*
X141266667Y-90832761D01*
X141266667Y-90832761D02*
X141266667Y-90947047D01*
X141266667Y-90947047D02*
X141300000Y-91099428D01*
X141300000Y-91099428D02*
X141333334Y-91175619D01*
X141333334Y-91175619D02*
X141400000Y-91251809D01*
X141400000Y-91251809D02*
X141500000Y-91289904D01*
X141500000Y-91289904D02*
X141666667Y-91289904D01*
X140966667Y-91289904D02*
X140966667Y-90489904D01*
X140966667Y-90489904D02*
X140733334Y-91061333D01*
X140733334Y-91061333D02*
X140500000Y-90489904D01*
X140500000Y-90489904D02*
X140500000Y-91289904D01*
X140200000Y-91061333D02*
X139866667Y-91061333D01*
X140266667Y-91289904D02*
X140033334Y-90489904D01*
X140033334Y-90489904D02*
X139800000Y-91289904D01*
X155733333Y-92281142D02*
X155200000Y-92281142D01*
X154546666Y-91785904D02*
X154146666Y-91785904D01*
X154346666Y-92585904D02*
X154346666Y-91785904D01*
X153913333Y-92585904D02*
X153913333Y-91785904D01*
X153580000Y-92585904D02*
X153580000Y-91785904D01*
X153580000Y-91785904D02*
X153346667Y-92357333D01*
X153346667Y-92357333D02*
X153113333Y-91785904D01*
X153113333Y-91785904D02*
X153113333Y-92585904D01*
X152813333Y-91862095D02*
X152780000Y-91824000D01*
X152780000Y-91824000D02*
X152713333Y-91785904D01*
X152713333Y-91785904D02*
X152546667Y-91785904D01*
X152546667Y-91785904D02*
X152480000Y-91824000D01*
X152480000Y-91824000D02*
X152446667Y-91862095D01*
X152446667Y-91862095D02*
X152413333Y-91938285D01*
X152413333Y-91938285D02*
X152413333Y-92014476D01*
X152413333Y-92014476D02*
X152446667Y-92128761D01*
X152446667Y-92128761D02*
X152846667Y-92585904D01*
X152846667Y-92585904D02*
X152413333Y-92585904D01*
X151693333Y-92585904D02*
X151693333Y-92052571D01*
X151693333Y-91785904D02*
X151726666Y-91824000D01*
X151726666Y-91824000D02*
X151693333Y-91862095D01*
X151693333Y-91862095D02*
X151660000Y-91824000D01*
X151660000Y-91824000D02*
X151693333Y-91785904D01*
X151693333Y-91785904D02*
X151693333Y-91862095D01*
X151360000Y-92052571D02*
X151360000Y-92585904D01*
X151360000Y-92128761D02*
X151326667Y-92090666D01*
X151326667Y-92090666D02*
X151260000Y-92052571D01*
X151260000Y-92052571D02*
X151160000Y-92052571D01*
X151160000Y-92052571D02*
X151093333Y-92090666D01*
X151093333Y-92090666D02*
X151060000Y-92166857D01*
X151060000Y-92166857D02*
X151060000Y-92585904D01*
X150826667Y-92052571D02*
X150560000Y-92052571D01*
X150726667Y-91785904D02*
X150726667Y-92471619D01*
X150726667Y-92471619D02*
X150693334Y-92547809D01*
X150693334Y-92547809D02*
X150626667Y-92585904D01*
X150626667Y-92585904D02*
X150560000Y-92585904D01*
X150060000Y-92547809D02*
X150126667Y-92585904D01*
X150126667Y-92585904D02*
X150260000Y-92585904D01*
X150260000Y-92585904D02*
X150326667Y-92547809D01*
X150326667Y-92547809D02*
X150360000Y-92471619D01*
X150360000Y-92471619D02*
X150360000Y-92166857D01*
X150360000Y-92166857D02*
X150326667Y-92090666D01*
X150326667Y-92090666D02*
X150260000Y-92052571D01*
X150260000Y-92052571D02*
X150126667Y-92052571D01*
X150126667Y-92052571D02*
X150060000Y-92090666D01*
X150060000Y-92090666D02*
X150026667Y-92166857D01*
X150026667Y-92166857D02*
X150026667Y-92243047D01*
X150026667Y-92243047D02*
X150360000Y-92319238D01*
X149726667Y-92585904D02*
X149726667Y-92052571D01*
X149726667Y-92204952D02*
X149693334Y-92128761D01*
X149693334Y-92128761D02*
X149660000Y-92090666D01*
X149660000Y-92090666D02*
X149593334Y-92052571D01*
X149593334Y-92052571D02*
X149526667Y-92052571D01*
X149293334Y-92585904D02*
X149293334Y-92052571D01*
X149293334Y-92204952D02*
X149260001Y-92128761D01*
X149260001Y-92128761D02*
X149226667Y-92090666D01*
X149226667Y-92090666D02*
X149160001Y-92052571D01*
X149160001Y-92052571D02*
X149093334Y-92052571D01*
X148560001Y-92052571D02*
X148560001Y-92585904D01*
X148860001Y-92052571D02*
X148860001Y-92471619D01*
X148860001Y-92471619D02*
X148826668Y-92547809D01*
X148826668Y-92547809D02*
X148760001Y-92585904D01*
X148760001Y-92585904D02*
X148660001Y-92585904D01*
X148660001Y-92585904D02*
X148593334Y-92547809D01*
X148593334Y-92547809D02*
X148560001Y-92509714D01*
X148226668Y-92052571D02*
X148226668Y-92852571D01*
X148226668Y-92090666D02*
X148160001Y-92052571D01*
X148160001Y-92052571D02*
X148026668Y-92052571D01*
X148026668Y-92052571D02*
X147960001Y-92090666D01*
X147960001Y-92090666D02*
X147926668Y-92128761D01*
X147926668Y-92128761D02*
X147893335Y-92204952D01*
X147893335Y-92204952D02*
X147893335Y-92433523D01*
X147893335Y-92433523D02*
X147926668Y-92509714D01*
X147926668Y-92509714D02*
X147960001Y-92547809D01*
X147960001Y-92547809D02*
X148026668Y-92585904D01*
X148026668Y-92585904D02*
X148160001Y-92585904D01*
X148160001Y-92585904D02*
X148226668Y-92547809D01*
X147693335Y-92052571D02*
X147426668Y-92052571D01*
X147593335Y-91785904D02*
X147593335Y-92471619D01*
X147593335Y-92471619D02*
X147560002Y-92547809D01*
X147560002Y-92547809D02*
X147493335Y-92585904D01*
X147493335Y-92585904D02*
X147426668Y-92585904D01*
X146806668Y-92547809D02*
X146740002Y-92585904D01*
X146740002Y-92585904D02*
X146606668Y-92585904D01*
X146606668Y-92585904D02*
X146540002Y-92547809D01*
X146540002Y-92547809D02*
X146506668Y-92471619D01*
X146506668Y-92471619D02*
X146506668Y-92433523D01*
X146506668Y-92433523D02*
X146540002Y-92357333D01*
X146540002Y-92357333D02*
X146606668Y-92319238D01*
X146606668Y-92319238D02*
X146706668Y-92319238D01*
X146706668Y-92319238D02*
X146773335Y-92281142D01*
X146773335Y-92281142D02*
X146806668Y-92204952D01*
X146806668Y-92204952D02*
X146806668Y-92166857D01*
X146806668Y-92166857D02*
X146773335Y-92090666D01*
X146773335Y-92090666D02*
X146706668Y-92052571D01*
X146706668Y-92052571D02*
X146606668Y-92052571D01*
X146606668Y-92052571D02*
X146540002Y-92090666D01*
X146273335Y-92052571D02*
X146106668Y-92585904D01*
X145940001Y-92052571D02*
X146106668Y-92585904D01*
X146106668Y-92585904D02*
X146173335Y-92776380D01*
X146173335Y-92776380D02*
X146206668Y-92814476D01*
X146206668Y-92814476D02*
X146273335Y-92852571D01*
X145673335Y-92052571D02*
X145673335Y-92585904D01*
X145673335Y-92128761D02*
X145640002Y-92090666D01*
X145640002Y-92090666D02*
X145573335Y-92052571D01*
X145573335Y-92052571D02*
X145473335Y-92052571D01*
X145473335Y-92052571D02*
X145406668Y-92090666D01*
X145406668Y-92090666D02*
X145373335Y-92166857D01*
X145373335Y-92166857D02*
X145373335Y-92585904D01*
X144740002Y-92547809D02*
X144806669Y-92585904D01*
X144806669Y-92585904D02*
X144940002Y-92585904D01*
X144940002Y-92585904D02*
X145006669Y-92547809D01*
X145006669Y-92547809D02*
X145040002Y-92509714D01*
X145040002Y-92509714D02*
X145073335Y-92433523D01*
X145073335Y-92433523D02*
X145073335Y-92204952D01*
X145073335Y-92204952D02*
X145040002Y-92128761D01*
X145040002Y-92128761D02*
X145006669Y-92090666D01*
X145006669Y-92090666D02*
X144940002Y-92052571D01*
X144940002Y-92052571D02*
X144806669Y-92052571D01*
X144806669Y-92052571D02*
X144740002Y-92090666D01*
X144440002Y-92585904D02*
X144440002Y-91785904D01*
X144140002Y-92585904D02*
X144140002Y-92166857D01*
X144140002Y-92166857D02*
X144173335Y-92090666D01*
X144173335Y-92090666D02*
X144240002Y-92052571D01*
X144240002Y-92052571D02*
X144340002Y-92052571D01*
X144340002Y-92052571D02*
X144406669Y-92090666D01*
X144406669Y-92090666D02*
X144440002Y-92128761D01*
X143806669Y-92585904D02*
X143806669Y-92052571D01*
X143806669Y-92204952D02*
X143773336Y-92128761D01*
X143773336Y-92128761D02*
X143740002Y-92090666D01*
X143740002Y-92090666D02*
X143673336Y-92052571D01*
X143673336Y-92052571D02*
X143606669Y-92052571D01*
X143273336Y-92585904D02*
X143340003Y-92547809D01*
X143340003Y-92547809D02*
X143373336Y-92509714D01*
X143373336Y-92509714D02*
X143406669Y-92433523D01*
X143406669Y-92433523D02*
X143406669Y-92204952D01*
X143406669Y-92204952D02*
X143373336Y-92128761D01*
X143373336Y-92128761D02*
X143340003Y-92090666D01*
X143340003Y-92090666D02*
X143273336Y-92052571D01*
X143273336Y-92052571D02*
X143173336Y-92052571D01*
X143173336Y-92052571D02*
X143106669Y-92090666D01*
X143106669Y-92090666D02*
X143073336Y-92128761D01*
X143073336Y-92128761D02*
X143040003Y-92204952D01*
X143040003Y-92204952D02*
X143040003Y-92433523D01*
X143040003Y-92433523D02*
X143073336Y-92509714D01*
X143073336Y-92509714D02*
X143106669Y-92547809D01*
X143106669Y-92547809D02*
X143173336Y-92585904D01*
X143173336Y-92585904D02*
X143273336Y-92585904D01*
X142740003Y-92052571D02*
X142740003Y-92585904D01*
X142740003Y-92128761D02*
X142706670Y-92090666D01*
X142706670Y-92090666D02*
X142640003Y-92052571D01*
X142640003Y-92052571D02*
X142540003Y-92052571D01*
X142540003Y-92052571D02*
X142473336Y-92090666D01*
X142473336Y-92090666D02*
X142440003Y-92166857D01*
X142440003Y-92166857D02*
X142440003Y-92585904D01*
X142106670Y-92585904D02*
X142106670Y-92052571D01*
X142106670Y-91785904D02*
X142140003Y-91824000D01*
X142140003Y-91824000D02*
X142106670Y-91862095D01*
X142106670Y-91862095D02*
X142073337Y-91824000D01*
X142073337Y-91824000D02*
X142106670Y-91785904D01*
X142106670Y-91785904D02*
X142106670Y-91862095D01*
X141840004Y-92052571D02*
X141473337Y-92052571D01*
X141473337Y-92052571D02*
X141840004Y-92585904D01*
X141840004Y-92585904D02*
X141473337Y-92585904D01*
X140940003Y-92547809D02*
X141006670Y-92585904D01*
X141006670Y-92585904D02*
X141140003Y-92585904D01*
X141140003Y-92585904D02*
X141206670Y-92547809D01*
X141206670Y-92547809D02*
X141240003Y-92471619D01*
X141240003Y-92471619D02*
X141240003Y-92166857D01*
X141240003Y-92166857D02*
X141206670Y-92090666D01*
X141206670Y-92090666D02*
X141140003Y-92052571D01*
X141140003Y-92052571D02*
X141006670Y-92052571D01*
X141006670Y-92052571D02*
X140940003Y-92090666D01*
X140940003Y-92090666D02*
X140906670Y-92166857D01*
X140906670Y-92166857D02*
X140906670Y-92243047D01*
X140906670Y-92243047D02*
X141240003Y-92319238D01*
X140640003Y-92547809D02*
X140573337Y-92585904D01*
X140573337Y-92585904D02*
X140440003Y-92585904D01*
X140440003Y-92585904D02*
X140373337Y-92547809D01*
X140373337Y-92547809D02*
X140340003Y-92471619D01*
X140340003Y-92471619D02*
X140340003Y-92433523D01*
X140340003Y-92433523D02*
X140373337Y-92357333D01*
X140373337Y-92357333D02*
X140440003Y-92319238D01*
X140440003Y-92319238D02*
X140540003Y-92319238D01*
X140540003Y-92319238D02*
X140606670Y-92281142D01*
X140606670Y-92281142D02*
X140640003Y-92204952D01*
X140640003Y-92204952D02*
X140640003Y-92166857D01*
X140640003Y-92166857D02*
X140606670Y-92090666D01*
X140606670Y-92090666D02*
X140540003Y-92052571D01*
X140540003Y-92052571D02*
X140440003Y-92052571D01*
X140440003Y-92052571D02*
X140373337Y-92090666D01*
X139653336Y-92547809D02*
X139553336Y-92585904D01*
X139553336Y-92585904D02*
X139386670Y-92585904D01*
X139386670Y-92585904D02*
X139320003Y-92547809D01*
X139320003Y-92547809D02*
X139286670Y-92509714D01*
X139286670Y-92509714D02*
X139253336Y-92433523D01*
X139253336Y-92433523D02*
X139253336Y-92357333D01*
X139253336Y-92357333D02*
X139286670Y-92281142D01*
X139286670Y-92281142D02*
X139320003Y-92243047D01*
X139320003Y-92243047D02*
X139386670Y-92204952D01*
X139386670Y-92204952D02*
X139520003Y-92166857D01*
X139520003Y-92166857D02*
X139586670Y-92128761D01*
X139586670Y-92128761D02*
X139620003Y-92090666D01*
X139620003Y-92090666D02*
X139653336Y-92014476D01*
X139653336Y-92014476D02*
X139653336Y-91938285D01*
X139653336Y-91938285D02*
X139620003Y-91862095D01*
X139620003Y-91862095D02*
X139586670Y-91824000D01*
X139586670Y-91824000D02*
X139520003Y-91785904D01*
X139520003Y-91785904D02*
X139353336Y-91785904D01*
X139353336Y-91785904D02*
X139253336Y-91824000D01*
X139053336Y-91785904D02*
X138820003Y-92585904D01*
X138820003Y-92585904D02*
X138586669Y-91785904D01*
X138353336Y-92585904D02*
X138353336Y-91785904D01*
X138353336Y-91785904D02*
X138086669Y-91785904D01*
X138086669Y-91785904D02*
X138020003Y-91824000D01*
X138020003Y-91824000D02*
X137986669Y-91862095D01*
X137986669Y-91862095D02*
X137953336Y-91938285D01*
X137953336Y-91938285D02*
X137953336Y-92052571D01*
X137953336Y-92052571D02*
X137986669Y-92128761D01*
X137986669Y-92128761D02*
X138020003Y-92166857D01*
X138020003Y-92166857D02*
X138086669Y-92204952D01*
X138086669Y-92204952D02*
X138353336Y-92204952D01*
X137720003Y-91785904D02*
X137553336Y-92585904D01*
X137553336Y-92585904D02*
X137420003Y-92014476D01*
X137420003Y-92014476D02*
X137286669Y-92585904D01*
X137286669Y-92585904D02*
X137120003Y-91785904D01*
X136853336Y-92585904D02*
X136853336Y-91785904D01*
X136853336Y-91785904D02*
X136620003Y-92357333D01*
X136620003Y-92357333D02*
X136386669Y-91785904D01*
X136386669Y-91785904D02*
X136386669Y-92585904D01*
X135633336Y-92052571D02*
X135633336Y-92852571D01*
X135633336Y-92090666D02*
X135566669Y-92052571D01*
X135566669Y-92052571D02*
X135433336Y-92052571D01*
X135433336Y-92052571D02*
X135366669Y-92090666D01*
X135366669Y-92090666D02*
X135333336Y-92128761D01*
X135333336Y-92128761D02*
X135300003Y-92204952D01*
X135300003Y-92204952D02*
X135300003Y-92433523D01*
X135300003Y-92433523D02*
X135333336Y-92509714D01*
X135333336Y-92509714D02*
X135366669Y-92547809D01*
X135366669Y-92547809D02*
X135433336Y-92585904D01*
X135433336Y-92585904D02*
X135566669Y-92585904D01*
X135566669Y-92585904D02*
X135633336Y-92547809D01*
X135000003Y-92585904D02*
X135000003Y-91785904D01*
X134700003Y-92585904D02*
X134700003Y-92166857D01*
X134700003Y-92166857D02*
X134733336Y-92090666D01*
X134733336Y-92090666D02*
X134800003Y-92052571D01*
X134800003Y-92052571D02*
X134900003Y-92052571D01*
X134900003Y-92052571D02*
X134966670Y-92090666D01*
X134966670Y-92090666D02*
X135000003Y-92128761D01*
X134066670Y-92585904D02*
X134066670Y-92166857D01*
X134066670Y-92166857D02*
X134100003Y-92090666D01*
X134100003Y-92090666D02*
X134166670Y-92052571D01*
X134166670Y-92052571D02*
X134300003Y-92052571D01*
X134300003Y-92052571D02*
X134366670Y-92090666D01*
X134066670Y-92547809D02*
X134133337Y-92585904D01*
X134133337Y-92585904D02*
X134300003Y-92585904D01*
X134300003Y-92585904D02*
X134366670Y-92547809D01*
X134366670Y-92547809D02*
X134400003Y-92471619D01*
X134400003Y-92471619D02*
X134400003Y-92395428D01*
X134400003Y-92395428D02*
X134366670Y-92319238D01*
X134366670Y-92319238D02*
X134300003Y-92281142D01*
X134300003Y-92281142D02*
X134133337Y-92281142D01*
X134133337Y-92281142D02*
X134066670Y-92243047D01*
X133766670Y-92547809D02*
X133700004Y-92585904D01*
X133700004Y-92585904D02*
X133566670Y-92585904D01*
X133566670Y-92585904D02*
X133500004Y-92547809D01*
X133500004Y-92547809D02*
X133466670Y-92471619D01*
X133466670Y-92471619D02*
X133466670Y-92433523D01*
X133466670Y-92433523D02*
X133500004Y-92357333D01*
X133500004Y-92357333D02*
X133566670Y-92319238D01*
X133566670Y-92319238D02*
X133666670Y-92319238D01*
X133666670Y-92319238D02*
X133733337Y-92281142D01*
X133733337Y-92281142D02*
X133766670Y-92204952D01*
X133766670Y-92204952D02*
X133766670Y-92166857D01*
X133766670Y-92166857D02*
X133733337Y-92090666D01*
X133733337Y-92090666D02*
X133666670Y-92052571D01*
X133666670Y-92052571D02*
X133566670Y-92052571D01*
X133566670Y-92052571D02*
X133500004Y-92090666D01*
X132900003Y-92547809D02*
X132966670Y-92585904D01*
X132966670Y-92585904D02*
X133100003Y-92585904D01*
X133100003Y-92585904D02*
X133166670Y-92547809D01*
X133166670Y-92547809D02*
X133200003Y-92471619D01*
X133200003Y-92471619D02*
X133200003Y-92166857D01*
X133200003Y-92166857D02*
X133166670Y-92090666D01*
X133166670Y-92090666D02*
X133100003Y-92052571D01*
X133100003Y-92052571D02*
X132966670Y-92052571D01*
X132966670Y-92052571D02*
X132900003Y-92090666D01*
X132900003Y-92090666D02*
X132866670Y-92166857D01*
X132866670Y-92166857D02*
X132866670Y-92243047D01*
X132866670Y-92243047D02*
X133200003Y-92319238D01*
D10*
X112993904Y-86428571D02*
X112993904Y-86142857D01*
X112993904Y-86142857D02*
X113374857Y-86114285D01*
X113374857Y-86114285D02*
X113336761Y-86142857D01*
X113336761Y-86142857D02*
X113298666Y-86200000D01*
X113298666Y-86200000D02*
X113298666Y-86342857D01*
X113298666Y-86342857D02*
X113336761Y-86400000D01*
X113336761Y-86400000D02*
X113374857Y-86428571D01*
X113374857Y-86428571D02*
X113451047Y-86457142D01*
X113451047Y-86457142D02*
X113641523Y-86457142D01*
X113641523Y-86457142D02*
X113717714Y-86428571D01*
X113717714Y-86428571D02*
X113755809Y-86400000D01*
X113755809Y-86400000D02*
X113793904Y-86342857D01*
X113793904Y-86342857D02*
X113793904Y-86200000D01*
X113793904Y-86200000D02*
X113755809Y-86142857D01*
X113755809Y-86142857D02*
X113717714Y-86114285D01*
X112993904Y-86628571D02*
X113793904Y-86828571D01*
X113793904Y-86828571D02*
X112993904Y-87028571D01*
X123032000Y-86457142D02*
X122993904Y-86400000D01*
X122993904Y-86400000D02*
X122993904Y-86314285D01*
X122993904Y-86314285D02*
X123032000Y-86228571D01*
X123032000Y-86228571D02*
X123108190Y-86171428D01*
X123108190Y-86171428D02*
X123184380Y-86142857D01*
X123184380Y-86142857D02*
X123336761Y-86114285D01*
X123336761Y-86114285D02*
X123451047Y-86114285D01*
X123451047Y-86114285D02*
X123603428Y-86142857D01*
X123603428Y-86142857D02*
X123679619Y-86171428D01*
X123679619Y-86171428D02*
X123755809Y-86228571D01*
X123755809Y-86228571D02*
X123793904Y-86314285D01*
X123793904Y-86314285D02*
X123793904Y-86371428D01*
X123793904Y-86371428D02*
X123755809Y-86457142D01*
X123755809Y-86457142D02*
X123717714Y-86485714D01*
X123717714Y-86485714D02*
X123451047Y-86485714D01*
X123451047Y-86485714D02*
X123451047Y-86371428D01*
X123793904Y-86742857D02*
X122993904Y-86742857D01*
X122993904Y-86742857D02*
X123793904Y-87085714D01*
X123793904Y-87085714D02*
X122993904Y-87085714D01*
X123793904Y-87371428D02*
X122993904Y-87371428D01*
X122993904Y-87371428D02*
X122993904Y-87514285D01*
X122993904Y-87514285D02*
X123032000Y-87599999D01*
X123032000Y-87599999D02*
X123108190Y-87657142D01*
X123108190Y-87657142D02*
X123184380Y-87685713D01*
X123184380Y-87685713D02*
X123336761Y-87714285D01*
X123336761Y-87714285D02*
X123451047Y-87714285D01*
X123451047Y-87714285D02*
X123603428Y-87685713D01*
X123603428Y-87685713D02*
X123679619Y-87657142D01*
X123679619Y-87657142D02*
X123755809Y-87599999D01*
X123755809Y-87599999D02*
X123793904Y-87514285D01*
X123793904Y-87514285D02*
X123793904Y-87371428D01*
D12*
X89885713Y-126622500D02*
X90028571Y-126551071D01*
X90028571Y-126551071D02*
X90242856Y-126551071D01*
X90242856Y-126551071D02*
X90457142Y-126622500D01*
X90457142Y-126622500D02*
X90599999Y-126765357D01*
X90599999Y-126765357D02*
X90671428Y-126908214D01*
X90671428Y-126908214D02*
X90742856Y-127193928D01*
X90742856Y-127193928D02*
X90742856Y-127408214D01*
X90742856Y-127408214D02*
X90671428Y-127693928D01*
X90671428Y-127693928D02*
X90599999Y-127836785D01*
X90599999Y-127836785D02*
X90457142Y-127979642D01*
X90457142Y-127979642D02*
X90242856Y-128051071D01*
X90242856Y-128051071D02*
X90099999Y-128051071D01*
X90099999Y-128051071D02*
X89885713Y-127979642D01*
X89885713Y-127979642D02*
X89814285Y-127908214D01*
X89814285Y-127908214D02*
X89814285Y-127408214D01*
X89814285Y-127408214D02*
X90099999Y-127408214D01*
X89171428Y-128051071D02*
X89171428Y-127051071D01*
X89171428Y-127336785D02*
X89099999Y-127193928D01*
X89099999Y-127193928D02*
X89028571Y-127122500D01*
X89028571Y-127122500D02*
X88885713Y-127051071D01*
X88885713Y-127051071D02*
X88742856Y-127051071D01*
X88028571Y-128051071D02*
X88171428Y-127979642D01*
X88171428Y-127979642D02*
X88242857Y-127908214D01*
X88242857Y-127908214D02*
X88314285Y-127765357D01*
X88314285Y-127765357D02*
X88314285Y-127336785D01*
X88314285Y-127336785D02*
X88242857Y-127193928D01*
X88242857Y-127193928D02*
X88171428Y-127122500D01*
X88171428Y-127122500D02*
X88028571Y-127051071D01*
X88028571Y-127051071D02*
X87814285Y-127051071D01*
X87814285Y-127051071D02*
X87671428Y-127122500D01*
X87671428Y-127122500D02*
X87600000Y-127193928D01*
X87600000Y-127193928D02*
X87528571Y-127336785D01*
X87528571Y-127336785D02*
X87528571Y-127765357D01*
X87528571Y-127765357D02*
X87600000Y-127908214D01*
X87600000Y-127908214D02*
X87671428Y-127979642D01*
X87671428Y-127979642D02*
X87814285Y-128051071D01*
X87814285Y-128051071D02*
X88028571Y-128051071D01*
X86242857Y-127051071D02*
X86242857Y-128051071D01*
X86885714Y-127051071D02*
X86885714Y-127836785D01*
X86885714Y-127836785D02*
X86814285Y-127979642D01*
X86814285Y-127979642D02*
X86671428Y-128051071D01*
X86671428Y-128051071D02*
X86457142Y-128051071D01*
X86457142Y-128051071D02*
X86314285Y-127979642D01*
X86314285Y-127979642D02*
X86242857Y-127908214D01*
X85528571Y-127051071D02*
X85528571Y-128051071D01*
X85528571Y-127193928D02*
X85457142Y-127122500D01*
X85457142Y-127122500D02*
X85314285Y-127051071D01*
X85314285Y-127051071D02*
X85099999Y-127051071D01*
X85099999Y-127051071D02*
X84957142Y-127122500D01*
X84957142Y-127122500D02*
X84885714Y-127265357D01*
X84885714Y-127265357D02*
X84885714Y-128051071D01*
X83528571Y-128051071D02*
X83528571Y-126551071D01*
X83528571Y-127979642D02*
X83671428Y-128051071D01*
X83671428Y-128051071D02*
X83957142Y-128051071D01*
X83957142Y-128051071D02*
X84099999Y-127979642D01*
X84099999Y-127979642D02*
X84171428Y-127908214D01*
X84171428Y-127908214D02*
X84242856Y-127765357D01*
X84242856Y-127765357D02*
X84242856Y-127336785D01*
X84242856Y-127336785D02*
X84171428Y-127193928D01*
X84171428Y-127193928D02*
X84099999Y-127122500D01*
X84099999Y-127122500D02*
X83957142Y-127051071D01*
X83957142Y-127051071D02*
X83671428Y-127051071D01*
X83671428Y-127051071D02*
X83528571Y-127122500D01*
D10*
X114993904Y-86057142D02*
X114993904Y-86400000D01*
X115793904Y-86228571D02*
X114993904Y-86228571D01*
X115755809Y-86828571D02*
X115793904Y-86771428D01*
X115793904Y-86771428D02*
X115793904Y-86657143D01*
X115793904Y-86657143D02*
X115755809Y-86600000D01*
X115755809Y-86600000D02*
X115679619Y-86571428D01*
X115679619Y-86571428D02*
X115374857Y-86571428D01*
X115374857Y-86571428D02*
X115298666Y-86600000D01*
X115298666Y-86600000D02*
X115260571Y-86657143D01*
X115260571Y-86657143D02*
X115260571Y-86771428D01*
X115260571Y-86771428D02*
X115298666Y-86828571D01*
X115298666Y-86828571D02*
X115374857Y-86857143D01*
X115374857Y-86857143D02*
X115451047Y-86857143D01*
X115451047Y-86857143D02*
X115527238Y-86571428D01*
X115793904Y-87114286D02*
X115260571Y-87114286D01*
X115336761Y-87114286D02*
X115298666Y-87142857D01*
X115298666Y-87142857D02*
X115260571Y-87200000D01*
X115260571Y-87200000D02*
X115260571Y-87285714D01*
X115260571Y-87285714D02*
X115298666Y-87342857D01*
X115298666Y-87342857D02*
X115374857Y-87371429D01*
X115374857Y-87371429D02*
X115793904Y-87371429D01*
X115374857Y-87371429D02*
X115298666Y-87400000D01*
X115298666Y-87400000D02*
X115260571Y-87457143D01*
X115260571Y-87457143D02*
X115260571Y-87542857D01*
X115260571Y-87542857D02*
X115298666Y-87600000D01*
X115298666Y-87600000D02*
X115374857Y-87628571D01*
X115374857Y-87628571D02*
X115793904Y-87628571D01*
X115260571Y-87914286D02*
X116060571Y-87914286D01*
X115298666Y-87914286D02*
X115260571Y-87971429D01*
X115260571Y-87971429D02*
X115260571Y-88085714D01*
X115260571Y-88085714D02*
X115298666Y-88142857D01*
X115298666Y-88142857D02*
X115336761Y-88171429D01*
X115336761Y-88171429D02*
X115412952Y-88200000D01*
X115412952Y-88200000D02*
X115641523Y-88200000D01*
X115641523Y-88200000D02*
X115717714Y-88171429D01*
X115717714Y-88171429D02*
X115755809Y-88142857D01*
X115755809Y-88142857D02*
X115793904Y-88085714D01*
X115793904Y-88085714D02*
X115793904Y-87971429D01*
X115793904Y-87971429D02*
X115755809Y-87914286D01*
X105032000Y-99457142D02*
X104993904Y-99400000D01*
X104993904Y-99400000D02*
X104993904Y-99314285D01*
X104993904Y-99314285D02*
X105032000Y-99228571D01*
X105032000Y-99228571D02*
X105108190Y-99171428D01*
X105108190Y-99171428D02*
X105184380Y-99142857D01*
X105184380Y-99142857D02*
X105336761Y-99114285D01*
X105336761Y-99114285D02*
X105451047Y-99114285D01*
X105451047Y-99114285D02*
X105603428Y-99142857D01*
X105603428Y-99142857D02*
X105679619Y-99171428D01*
X105679619Y-99171428D02*
X105755809Y-99228571D01*
X105755809Y-99228571D02*
X105793904Y-99314285D01*
X105793904Y-99314285D02*
X105793904Y-99371428D01*
X105793904Y-99371428D02*
X105755809Y-99457142D01*
X105755809Y-99457142D02*
X105717714Y-99485714D01*
X105717714Y-99485714D02*
X105451047Y-99485714D01*
X105451047Y-99485714D02*
X105451047Y-99371428D01*
X105793904Y-99742857D02*
X104993904Y-99742857D01*
X104993904Y-99742857D02*
X105793904Y-100085714D01*
X105793904Y-100085714D02*
X104993904Y-100085714D01*
X105793904Y-100371428D02*
X104993904Y-100371428D01*
X104993904Y-100371428D02*
X104993904Y-100514285D01*
X104993904Y-100514285D02*
X105032000Y-100599999D01*
X105032000Y-100599999D02*
X105108190Y-100657142D01*
X105108190Y-100657142D02*
X105184380Y-100685713D01*
X105184380Y-100685713D02*
X105336761Y-100714285D01*
X105336761Y-100714285D02*
X105451047Y-100714285D01*
X105451047Y-100714285D02*
X105603428Y-100685713D01*
X105603428Y-100685713D02*
X105679619Y-100657142D01*
X105679619Y-100657142D02*
X105755809Y-100599999D01*
X105755809Y-100599999D02*
X105793904Y-100514285D01*
X105793904Y-100514285D02*
X105793904Y-100371428D01*
X135532000Y-99628571D02*
X135493904Y-99571429D01*
X135493904Y-99571429D02*
X135493904Y-99485714D01*
X135493904Y-99485714D02*
X135532000Y-99400000D01*
X135532000Y-99400000D02*
X135608190Y-99342857D01*
X135608190Y-99342857D02*
X135684380Y-99314286D01*
X135684380Y-99314286D02*
X135836761Y-99285714D01*
X135836761Y-99285714D02*
X135951047Y-99285714D01*
X135951047Y-99285714D02*
X136103428Y-99314286D01*
X136103428Y-99314286D02*
X136179619Y-99342857D01*
X136179619Y-99342857D02*
X136255809Y-99400000D01*
X136255809Y-99400000D02*
X136293904Y-99485714D01*
X136293904Y-99485714D02*
X136293904Y-99542857D01*
X136293904Y-99542857D02*
X136255809Y-99628571D01*
X136255809Y-99628571D02*
X136217714Y-99657143D01*
X136217714Y-99657143D02*
X135951047Y-99657143D01*
X135951047Y-99657143D02*
X135951047Y-99542857D01*
X136293904Y-99914286D02*
X135493904Y-99914286D01*
X135493904Y-99914286D02*
X136293904Y-100257143D01*
X136293904Y-100257143D02*
X135493904Y-100257143D01*
X136293904Y-100542857D02*
X135493904Y-100542857D01*
X135493904Y-100542857D02*
X135493904Y-100685714D01*
X135493904Y-100685714D02*
X135532000Y-100771428D01*
X135532000Y-100771428D02*
X135608190Y-100828571D01*
X135608190Y-100828571D02*
X135684380Y-100857142D01*
X135684380Y-100857142D02*
X135836761Y-100885714D01*
X135836761Y-100885714D02*
X135951047Y-100885714D01*
X135951047Y-100885714D02*
X136103428Y-100857142D01*
X136103428Y-100857142D02*
X136179619Y-100828571D01*
X136179619Y-100828571D02*
X136255809Y-100771428D01*
X136255809Y-100771428D02*
X136293904Y-100685714D01*
X136293904Y-100685714D02*
X136293904Y-100542857D01*
X109717714Y-99485714D02*
X109755809Y-99457142D01*
X109755809Y-99457142D02*
X109793904Y-99371428D01*
X109793904Y-99371428D02*
X109793904Y-99314285D01*
X109793904Y-99314285D02*
X109755809Y-99228571D01*
X109755809Y-99228571D02*
X109679619Y-99171428D01*
X109679619Y-99171428D02*
X109603428Y-99142857D01*
X109603428Y-99142857D02*
X109451047Y-99114285D01*
X109451047Y-99114285D02*
X109336761Y-99114285D01*
X109336761Y-99114285D02*
X109184380Y-99142857D01*
X109184380Y-99142857D02*
X109108190Y-99171428D01*
X109108190Y-99171428D02*
X109032000Y-99228571D01*
X109032000Y-99228571D02*
X108993904Y-99314285D01*
X108993904Y-99314285D02*
X108993904Y-99371428D01*
X108993904Y-99371428D02*
X109032000Y-99457142D01*
X109032000Y-99457142D02*
X109070095Y-99485714D01*
X109565333Y-99714285D02*
X109565333Y-100000000D01*
X109793904Y-99657142D02*
X108993904Y-99857142D01*
X108993904Y-99857142D02*
X109793904Y-100057142D01*
X109793904Y-100257143D02*
X108993904Y-100257143D01*
X108993904Y-100257143D02*
X109793904Y-100600000D01*
X109793904Y-100600000D02*
X108993904Y-100600000D01*
X109793904Y-100885714D02*
X108993904Y-100885714D01*
X109374857Y-100885714D02*
X109374857Y-101228571D01*
X109793904Y-101228571D02*
X108993904Y-101228571D01*
D11*
X81569357Y-138514287D02*
X80840785Y-138514287D01*
X80840785Y-138514287D02*
X80755071Y-138561906D01*
X80755071Y-138561906D02*
X80712214Y-138609525D01*
X80712214Y-138609525D02*
X80669357Y-138704763D01*
X80669357Y-138704763D02*
X80669357Y-138847620D01*
X80669357Y-138847620D02*
X80712214Y-138942858D01*
X81012214Y-138514287D02*
X80969357Y-138609525D01*
X80969357Y-138609525D02*
X80969357Y-138800001D01*
X80969357Y-138800001D02*
X81012214Y-138895239D01*
X81012214Y-138895239D02*
X81055071Y-138942858D01*
X81055071Y-138942858D02*
X81140785Y-138990477D01*
X81140785Y-138990477D02*
X81397928Y-138990477D01*
X81397928Y-138990477D02*
X81483642Y-138942858D01*
X81483642Y-138942858D02*
X81526500Y-138895239D01*
X81526500Y-138895239D02*
X81569357Y-138800001D01*
X81569357Y-138800001D02*
X81569357Y-138609525D01*
X81569357Y-138609525D02*
X81526500Y-138514287D01*
X80969357Y-138038096D02*
X81569357Y-138038096D01*
X81869357Y-138038096D02*
X81826500Y-138085715D01*
X81826500Y-138085715D02*
X81783642Y-138038096D01*
X81783642Y-138038096D02*
X81826500Y-137990477D01*
X81826500Y-137990477D02*
X81869357Y-138038096D01*
X81869357Y-138038096D02*
X81783642Y-138038096D01*
X81569357Y-137704763D02*
X81569357Y-137323811D01*
X81869357Y-137561906D02*
X81097928Y-137561906D01*
X81097928Y-137561906D02*
X81012214Y-137514287D01*
X81012214Y-137514287D02*
X80969357Y-137419049D01*
X80969357Y-137419049D02*
X80969357Y-137323811D01*
X80969357Y-136990477D02*
X81869357Y-136990477D01*
X80969357Y-136561906D02*
X81440785Y-136561906D01*
X81440785Y-136561906D02*
X81526500Y-136609525D01*
X81526500Y-136609525D02*
X81569357Y-136704763D01*
X81569357Y-136704763D02*
X81569357Y-136847620D01*
X81569357Y-136847620D02*
X81526500Y-136942858D01*
X81526500Y-136942858D02*
X81483642Y-136990477D01*
X81569357Y-135657144D02*
X80969357Y-135657144D01*
X81569357Y-136085715D02*
X81097928Y-136085715D01*
X81097928Y-136085715D02*
X81012214Y-136038096D01*
X81012214Y-136038096D02*
X80969357Y-135942858D01*
X80969357Y-135942858D02*
X80969357Y-135800001D01*
X80969357Y-135800001D02*
X81012214Y-135704763D01*
X81012214Y-135704763D02*
X81055071Y-135657144D01*
X80969357Y-135180953D02*
X81869357Y-135180953D01*
X81526500Y-135180953D02*
X81569357Y-135085715D01*
X81569357Y-135085715D02*
X81569357Y-134895239D01*
X81569357Y-134895239D02*
X81526500Y-134800001D01*
X81526500Y-134800001D02*
X81483642Y-134752382D01*
X81483642Y-134752382D02*
X81397928Y-134704763D01*
X81397928Y-134704763D02*
X81140785Y-134704763D01*
X81140785Y-134704763D02*
X81055071Y-134752382D01*
X81055071Y-134752382D02*
X81012214Y-134800001D01*
X81012214Y-134800001D02*
X80969357Y-134895239D01*
X80969357Y-134895239D02*
X80969357Y-135085715D01*
X80969357Y-135085715D02*
X81012214Y-135180953D01*
X81055071Y-134276191D02*
X81012214Y-134228572D01*
X81012214Y-134228572D02*
X80969357Y-134276191D01*
X80969357Y-134276191D02*
X81012214Y-134323810D01*
X81012214Y-134323810D02*
X81055071Y-134276191D01*
X81055071Y-134276191D02*
X80969357Y-134276191D01*
X81012214Y-133371430D02*
X80969357Y-133466668D01*
X80969357Y-133466668D02*
X80969357Y-133657144D01*
X80969357Y-133657144D02*
X81012214Y-133752382D01*
X81012214Y-133752382D02*
X81055071Y-133800001D01*
X81055071Y-133800001D02*
X81140785Y-133847620D01*
X81140785Y-133847620D02*
X81397928Y-133847620D01*
X81397928Y-133847620D02*
X81483642Y-133800001D01*
X81483642Y-133800001D02*
X81526500Y-133752382D01*
X81526500Y-133752382D02*
X81569357Y-133657144D01*
X81569357Y-133657144D02*
X81569357Y-133466668D01*
X81569357Y-133466668D02*
X81526500Y-133371430D01*
X80969357Y-132800001D02*
X81012214Y-132895239D01*
X81012214Y-132895239D02*
X81055071Y-132942858D01*
X81055071Y-132942858D02*
X81140785Y-132990477D01*
X81140785Y-132990477D02*
X81397928Y-132990477D01*
X81397928Y-132990477D02*
X81483642Y-132942858D01*
X81483642Y-132942858D02*
X81526500Y-132895239D01*
X81526500Y-132895239D02*
X81569357Y-132800001D01*
X81569357Y-132800001D02*
X81569357Y-132657144D01*
X81569357Y-132657144D02*
X81526500Y-132561906D01*
X81526500Y-132561906D02*
X81483642Y-132514287D01*
X81483642Y-132514287D02*
X81397928Y-132466668D01*
X81397928Y-132466668D02*
X81140785Y-132466668D01*
X81140785Y-132466668D02*
X81055071Y-132514287D01*
X81055071Y-132514287D02*
X81012214Y-132561906D01*
X81012214Y-132561906D02*
X80969357Y-132657144D01*
X80969357Y-132657144D02*
X80969357Y-132800001D01*
X80969357Y-132038096D02*
X81569357Y-132038096D01*
X81483642Y-132038096D02*
X81526500Y-131990477D01*
X81526500Y-131990477D02*
X81569357Y-131895239D01*
X81569357Y-131895239D02*
X81569357Y-131752382D01*
X81569357Y-131752382D02*
X81526500Y-131657144D01*
X81526500Y-131657144D02*
X81440785Y-131609525D01*
X81440785Y-131609525D02*
X80969357Y-131609525D01*
X81440785Y-131609525D02*
X81526500Y-131561906D01*
X81526500Y-131561906D02*
X81569357Y-131466668D01*
X81569357Y-131466668D02*
X81569357Y-131323811D01*
X81569357Y-131323811D02*
X81526500Y-131228572D01*
X81526500Y-131228572D02*
X81440785Y-131180953D01*
X81440785Y-131180953D02*
X80969357Y-131180953D01*
X81912214Y-129990478D02*
X80755071Y-130847620D01*
X80969357Y-129752382D02*
X81569357Y-129228573D01*
X81569357Y-129752382D02*
X80969357Y-129228573D01*
X81569357Y-128419049D02*
X80969357Y-128419049D01*
X81569357Y-128847620D02*
X81097928Y-128847620D01*
X81097928Y-128847620D02*
X81012214Y-128800001D01*
X81012214Y-128800001D02*
X80969357Y-128704763D01*
X80969357Y-128704763D02*
X80969357Y-128561906D01*
X80969357Y-128561906D02*
X81012214Y-128466668D01*
X81012214Y-128466668D02*
X81055071Y-128419049D01*
X81869357Y-128038096D02*
X81869357Y-127371430D01*
X81869357Y-127371430D02*
X80969357Y-127800001D01*
X81569357Y-127085715D02*
X80969357Y-126895239D01*
X80969357Y-126895239D02*
X81397928Y-126704763D01*
X81397928Y-126704763D02*
X80969357Y-126514287D01*
X80969357Y-126514287D02*
X81569357Y-126323811D01*
X80969357Y-125800001D02*
X81012214Y-125895239D01*
X81012214Y-125895239D02*
X81055071Y-125942858D01*
X81055071Y-125942858D02*
X81140785Y-125990477D01*
X81140785Y-125990477D02*
X81397928Y-125990477D01*
X81397928Y-125990477D02*
X81483642Y-125942858D01*
X81483642Y-125942858D02*
X81526500Y-125895239D01*
X81526500Y-125895239D02*
X81569357Y-125800001D01*
X81569357Y-125800001D02*
X81569357Y-125657144D01*
X81569357Y-125657144D02*
X81526500Y-125561906D01*
X81526500Y-125561906D02*
X81483642Y-125514287D01*
X81483642Y-125514287D02*
X81397928Y-125466668D01*
X81397928Y-125466668D02*
X81140785Y-125466668D01*
X81140785Y-125466668D02*
X81055071Y-125514287D01*
X81055071Y-125514287D02*
X81012214Y-125561906D01*
X81012214Y-125561906D02*
X80969357Y-125657144D01*
X80969357Y-125657144D02*
X80969357Y-125800001D01*
X81569357Y-125038096D02*
X80969357Y-125038096D01*
X81483642Y-125038096D02*
X81526500Y-124990477D01*
X81526500Y-124990477D02*
X81569357Y-124895239D01*
X81569357Y-124895239D02*
X81569357Y-124752382D01*
X81569357Y-124752382D02*
X81526500Y-124657144D01*
X81526500Y-124657144D02*
X81440785Y-124609525D01*
X81440785Y-124609525D02*
X80969357Y-124609525D01*
X81569357Y-123704763D02*
X80840785Y-123704763D01*
X80840785Y-123704763D02*
X80755071Y-123752382D01*
X80755071Y-123752382D02*
X80712214Y-123800001D01*
X80712214Y-123800001D02*
X80669357Y-123895239D01*
X80669357Y-123895239D02*
X80669357Y-124038096D01*
X80669357Y-124038096D02*
X80712214Y-124133334D01*
X81012214Y-123704763D02*
X80969357Y-123800001D01*
X80969357Y-123800001D02*
X80969357Y-123990477D01*
X80969357Y-123990477D02*
X81012214Y-124085715D01*
X81012214Y-124085715D02*
X81055071Y-124133334D01*
X81055071Y-124133334D02*
X81140785Y-124180953D01*
X81140785Y-124180953D02*
X81397928Y-124180953D01*
X81397928Y-124180953D02*
X81483642Y-124133334D01*
X81483642Y-124133334D02*
X81526500Y-124085715D01*
X81526500Y-124085715D02*
X81569357Y-123990477D01*
X81569357Y-123990477D02*
X81569357Y-123800001D01*
X81569357Y-123800001D02*
X81526500Y-123704763D01*
X81912214Y-122514287D02*
X80755071Y-123371429D01*
X80969357Y-122180953D02*
X81869357Y-122180953D01*
X81526500Y-122180953D02*
X81569357Y-122085715D01*
X81569357Y-122085715D02*
X81569357Y-121895239D01*
X81569357Y-121895239D02*
X81526500Y-121800001D01*
X81526500Y-121800001D02*
X81483642Y-121752382D01*
X81483642Y-121752382D02*
X81397928Y-121704763D01*
X81397928Y-121704763D02*
X81140785Y-121704763D01*
X81140785Y-121704763D02*
X81055071Y-121752382D01*
X81055071Y-121752382D02*
X81012214Y-121800001D01*
X81012214Y-121800001D02*
X80969357Y-121895239D01*
X80969357Y-121895239D02*
X80969357Y-122085715D01*
X80969357Y-122085715D02*
X81012214Y-122180953D01*
X80969357Y-121133334D02*
X81012214Y-121228572D01*
X81012214Y-121228572D02*
X81097928Y-121276191D01*
X81097928Y-121276191D02*
X81869357Y-121276191D01*
X80969357Y-120323810D02*
X81869357Y-120323810D01*
X81012214Y-120323810D02*
X80969357Y-120419048D01*
X80969357Y-120419048D02*
X80969357Y-120609524D01*
X80969357Y-120609524D02*
X81012214Y-120704762D01*
X81012214Y-120704762D02*
X81055071Y-120752381D01*
X81055071Y-120752381D02*
X81140785Y-120800000D01*
X81140785Y-120800000D02*
X81397928Y-120800000D01*
X81397928Y-120800000D02*
X81483642Y-120752381D01*
X81483642Y-120752381D02*
X81526500Y-120704762D01*
X81526500Y-120704762D02*
X81569357Y-120609524D01*
X81569357Y-120609524D02*
X81569357Y-120419048D01*
X81569357Y-120419048D02*
X81526500Y-120323810D01*
X81012214Y-119419048D02*
X80969357Y-119514286D01*
X80969357Y-119514286D02*
X80969357Y-119704762D01*
X80969357Y-119704762D02*
X81012214Y-119800000D01*
X81012214Y-119800000D02*
X81055071Y-119847619D01*
X81055071Y-119847619D02*
X81140785Y-119895238D01*
X81140785Y-119895238D02*
X81397928Y-119895238D01*
X81397928Y-119895238D02*
X81483642Y-119847619D01*
X81483642Y-119847619D02*
X81526500Y-119800000D01*
X81526500Y-119800000D02*
X81569357Y-119704762D01*
X81569357Y-119704762D02*
X81569357Y-119514286D01*
X81569357Y-119514286D02*
X81526500Y-119419048D01*
X80883642Y-119228572D02*
X80883642Y-118466667D01*
X80969357Y-118228571D02*
X81869357Y-118228571D01*
X80969357Y-117800000D02*
X81440785Y-117800000D01*
X81440785Y-117800000D02*
X81526500Y-117847619D01*
X81526500Y-117847619D02*
X81569357Y-117942857D01*
X81569357Y-117942857D02*
X81569357Y-118085714D01*
X81569357Y-118085714D02*
X81526500Y-118180952D01*
X81526500Y-118180952D02*
X81483642Y-118228571D01*
X80969357Y-116895238D02*
X81440785Y-116895238D01*
X81440785Y-116895238D02*
X81526500Y-116942857D01*
X81526500Y-116942857D02*
X81569357Y-117038095D01*
X81569357Y-117038095D02*
X81569357Y-117228571D01*
X81569357Y-117228571D02*
X81526500Y-117323809D01*
X81012214Y-116895238D02*
X80969357Y-116990476D01*
X80969357Y-116990476D02*
X80969357Y-117228571D01*
X80969357Y-117228571D02*
X81012214Y-117323809D01*
X81012214Y-117323809D02*
X81097928Y-117371428D01*
X81097928Y-117371428D02*
X81183642Y-117371428D01*
X81183642Y-117371428D02*
X81269357Y-117323809D01*
X81269357Y-117323809D02*
X81312214Y-117228571D01*
X81312214Y-117228571D02*
X81312214Y-116990476D01*
X81312214Y-116990476D02*
X81355071Y-116895238D01*
X80969357Y-116419047D02*
X81569357Y-116419047D01*
X81397928Y-116419047D02*
X81483642Y-116371428D01*
X81483642Y-116371428D02*
X81526500Y-116323809D01*
X81526500Y-116323809D02*
X81569357Y-116228571D01*
X81569357Y-116228571D02*
X81569357Y-116133333D01*
X80969357Y-115371428D02*
X81869357Y-115371428D01*
X81012214Y-115371428D02*
X80969357Y-115466666D01*
X80969357Y-115466666D02*
X80969357Y-115657142D01*
X80969357Y-115657142D02*
X81012214Y-115752380D01*
X81012214Y-115752380D02*
X81055071Y-115799999D01*
X81055071Y-115799999D02*
X81140785Y-115847618D01*
X81140785Y-115847618D02*
X81397928Y-115847618D01*
X81397928Y-115847618D02*
X81483642Y-115799999D01*
X81483642Y-115799999D02*
X81526500Y-115752380D01*
X81526500Y-115752380D02*
X81569357Y-115657142D01*
X81569357Y-115657142D02*
X81569357Y-115466666D01*
X81569357Y-115466666D02*
X81526500Y-115371428D01*
X81569357Y-114990475D02*
X80969357Y-114799999D01*
X80969357Y-114799999D02*
X81397928Y-114609523D01*
X81397928Y-114609523D02*
X80969357Y-114419047D01*
X80969357Y-114419047D02*
X81569357Y-114228571D01*
X80969357Y-113419047D02*
X81440785Y-113419047D01*
X81440785Y-113419047D02*
X81526500Y-113466666D01*
X81526500Y-113466666D02*
X81569357Y-113561904D01*
X81569357Y-113561904D02*
X81569357Y-113752380D01*
X81569357Y-113752380D02*
X81526500Y-113847618D01*
X81012214Y-113419047D02*
X80969357Y-113514285D01*
X80969357Y-113514285D02*
X80969357Y-113752380D01*
X80969357Y-113752380D02*
X81012214Y-113847618D01*
X81012214Y-113847618D02*
X81097928Y-113895237D01*
X81097928Y-113895237D02*
X81183642Y-113895237D01*
X81183642Y-113895237D02*
X81269357Y-113847618D01*
X81269357Y-113847618D02*
X81312214Y-113752380D01*
X81312214Y-113752380D02*
X81312214Y-113514285D01*
X81312214Y-113514285D02*
X81355071Y-113419047D01*
X80969357Y-112942856D02*
X81569357Y-112942856D01*
X81397928Y-112942856D02*
X81483642Y-112895237D01*
X81483642Y-112895237D02*
X81526500Y-112847618D01*
X81526500Y-112847618D02*
X81569357Y-112752380D01*
X81569357Y-112752380D02*
X81569357Y-112657142D01*
X81012214Y-111942856D02*
X80969357Y-112038094D01*
X80969357Y-112038094D02*
X80969357Y-112228570D01*
X80969357Y-112228570D02*
X81012214Y-112323808D01*
X81012214Y-112323808D02*
X81097928Y-112371427D01*
X81097928Y-112371427D02*
X81440785Y-112371427D01*
X81440785Y-112371427D02*
X81526500Y-112323808D01*
X81526500Y-112323808D02*
X81569357Y-112228570D01*
X81569357Y-112228570D02*
X81569357Y-112038094D01*
X81569357Y-112038094D02*
X81526500Y-111942856D01*
X81526500Y-111942856D02*
X81440785Y-111895237D01*
X81440785Y-111895237D02*
X81355071Y-111895237D01*
X81355071Y-111895237D02*
X81269357Y-112371427D01*
X80883642Y-111704761D02*
X80883642Y-110942856D01*
X80969357Y-110704760D02*
X81569357Y-110704760D01*
X81397928Y-110704760D02*
X81483642Y-110657141D01*
X81483642Y-110657141D02*
X81526500Y-110609522D01*
X81526500Y-110609522D02*
X81569357Y-110514284D01*
X81569357Y-110514284D02*
X81569357Y-110419046D01*
X80969357Y-110085712D02*
X81569357Y-110085712D01*
X81869357Y-110085712D02*
X81826500Y-110133331D01*
X81826500Y-110133331D02*
X81783642Y-110085712D01*
X81783642Y-110085712D02*
X81826500Y-110038093D01*
X81826500Y-110038093D02*
X81869357Y-110085712D01*
X81869357Y-110085712D02*
X81783642Y-110085712D01*
X81012214Y-109657141D02*
X80969357Y-109561903D01*
X80969357Y-109561903D02*
X80969357Y-109371427D01*
X80969357Y-109371427D02*
X81012214Y-109276189D01*
X81012214Y-109276189D02*
X81097928Y-109228570D01*
X81097928Y-109228570D02*
X81140785Y-109228570D01*
X81140785Y-109228570D02*
X81226500Y-109276189D01*
X81226500Y-109276189D02*
X81269357Y-109371427D01*
X81269357Y-109371427D02*
X81269357Y-109514284D01*
X81269357Y-109514284D02*
X81312214Y-109609522D01*
X81312214Y-109609522D02*
X81397928Y-109657141D01*
X81397928Y-109657141D02*
X81440785Y-109657141D01*
X81440785Y-109657141D02*
X81526500Y-109609522D01*
X81526500Y-109609522D02*
X81569357Y-109514284D01*
X81569357Y-109514284D02*
X81569357Y-109371427D01*
X81569357Y-109371427D02*
X81526500Y-109276189D01*
X81012214Y-108371427D02*
X80969357Y-108466665D01*
X80969357Y-108466665D02*
X80969357Y-108657141D01*
X80969357Y-108657141D02*
X81012214Y-108752379D01*
X81012214Y-108752379D02*
X81055071Y-108799998D01*
X81055071Y-108799998D02*
X81140785Y-108847617D01*
X81140785Y-108847617D02*
X81397928Y-108847617D01*
X81397928Y-108847617D02*
X81483642Y-108799998D01*
X81483642Y-108799998D02*
X81526500Y-108752379D01*
X81526500Y-108752379D02*
X81569357Y-108657141D01*
X81569357Y-108657141D02*
X81569357Y-108466665D01*
X81569357Y-108466665D02*
X81526500Y-108371427D01*
X81569357Y-108038093D02*
X80969357Y-107799998D01*
X80969357Y-107799998D02*
X81569357Y-107561903D01*
D10*
X110993904Y-99057142D02*
X110993904Y-99400000D01*
X111793904Y-99228571D02*
X110993904Y-99228571D01*
X110993904Y-99542857D02*
X111793904Y-99942857D01*
X110993904Y-99942857D02*
X111793904Y-99542857D01*
X143495809Y-98942857D02*
X143533904Y-99028572D01*
X143533904Y-99028572D02*
X143533904Y-99171429D01*
X143533904Y-99171429D02*
X143495809Y-99228572D01*
X143495809Y-99228572D02*
X143457714Y-99257143D01*
X143457714Y-99257143D02*
X143381523Y-99285714D01*
X143381523Y-99285714D02*
X143305333Y-99285714D01*
X143305333Y-99285714D02*
X143229142Y-99257143D01*
X143229142Y-99257143D02*
X143191047Y-99228572D01*
X143191047Y-99228572D02*
X143152952Y-99171429D01*
X143152952Y-99171429D02*
X143114857Y-99057143D01*
X143114857Y-99057143D02*
X143076761Y-99000000D01*
X143076761Y-99000000D02*
X143038666Y-98971429D01*
X143038666Y-98971429D02*
X142962476Y-98942857D01*
X142962476Y-98942857D02*
X142886285Y-98942857D01*
X142886285Y-98942857D02*
X142810095Y-98971429D01*
X142810095Y-98971429D02*
X142772000Y-99000000D01*
X142772000Y-99000000D02*
X142733904Y-99057143D01*
X142733904Y-99057143D02*
X142733904Y-99200000D01*
X142733904Y-99200000D02*
X142772000Y-99285714D01*
X142733904Y-99485715D02*
X143533904Y-99628572D01*
X143533904Y-99628572D02*
X142962476Y-99742858D01*
X142962476Y-99742858D02*
X143533904Y-99857143D01*
X143533904Y-99857143D02*
X142733904Y-100000001D01*
X143533904Y-100228572D02*
X142733904Y-100228572D01*
X142733904Y-100628571D02*
X142733904Y-100742857D01*
X142733904Y-100742857D02*
X142772000Y-100800000D01*
X142772000Y-100800000D02*
X142848190Y-100857143D01*
X142848190Y-100857143D02*
X143000571Y-100885714D01*
X143000571Y-100885714D02*
X143267238Y-100885714D01*
X143267238Y-100885714D02*
X143419619Y-100857143D01*
X143419619Y-100857143D02*
X143495809Y-100800000D01*
X143495809Y-100800000D02*
X143533904Y-100742857D01*
X143533904Y-100742857D02*
X143533904Y-100628571D01*
X143533904Y-100628571D02*
X143495809Y-100571429D01*
X143495809Y-100571429D02*
X143419619Y-100514286D01*
X143419619Y-100514286D02*
X143267238Y-100485714D01*
X143267238Y-100485714D02*
X143000571Y-100485714D01*
X143000571Y-100485714D02*
X142848190Y-100514286D01*
X142848190Y-100514286D02*
X142772000Y-100571429D01*
X142772000Y-100571429D02*
X142733904Y-100628571D01*
D12*
X91721427Y-117051071D02*
X90721427Y-117051071D01*
X90721427Y-117051071D02*
X91364284Y-118551071D01*
X89435713Y-117051071D02*
X90149999Y-117051071D01*
X90149999Y-117051071D02*
X90221427Y-117765357D01*
X90221427Y-117765357D02*
X90149999Y-117693928D01*
X90149999Y-117693928D02*
X90007142Y-117622500D01*
X90007142Y-117622500D02*
X89649999Y-117622500D01*
X89649999Y-117622500D02*
X89507142Y-117693928D01*
X89507142Y-117693928D02*
X89435713Y-117765357D01*
X89435713Y-117765357D02*
X89364284Y-117908214D01*
X89364284Y-117908214D02*
X89364284Y-118265357D01*
X89364284Y-118265357D02*
X89435713Y-118408214D01*
X89435713Y-118408214D02*
X89507142Y-118479642D01*
X89507142Y-118479642D02*
X89649999Y-118551071D01*
X89649999Y-118551071D02*
X90007142Y-118551071D01*
X90007142Y-118551071D02*
X90149999Y-118479642D01*
X90149999Y-118479642D02*
X90221427Y-118408214D01*
X88935713Y-117051071D02*
X88435713Y-118551071D01*
X88435713Y-118551071D02*
X87935713Y-117051071D01*
X86535714Y-118551071D02*
X86535714Y-117051071D01*
X86535714Y-117051071D02*
X86035714Y-118122500D01*
X86035714Y-118122500D02*
X85535714Y-117051071D01*
X85535714Y-117051071D02*
X85535714Y-118551071D01*
X84892856Y-118122500D02*
X84178571Y-118122500D01*
X85035713Y-118551071D02*
X84535713Y-117051071D01*
X84535713Y-117051071D02*
X84035713Y-118551071D01*
X83678571Y-117051071D02*
X82678571Y-118551071D01*
X82678571Y-117051071D02*
X83678571Y-118551071D01*
D10*
X121793904Y-86142857D02*
X120993904Y-86142857D01*
X121374857Y-86142857D02*
X121374857Y-86485714D01*
X121793904Y-86485714D02*
X120993904Y-86485714D01*
X121565333Y-86742856D02*
X121565333Y-87028571D01*
X121793904Y-86685713D02*
X120993904Y-86885713D01*
X120993904Y-86885713D02*
X121793904Y-87085713D01*
X121793904Y-87571428D02*
X121793904Y-87285714D01*
X121793904Y-87285714D02*
X120993904Y-87285714D01*
X121793904Y-88057142D02*
X121793904Y-87771428D01*
X121793904Y-87771428D02*
X120993904Y-87771428D01*
X120993904Y-88199999D02*
X120993904Y-88571427D01*
X120993904Y-88571427D02*
X121298666Y-88371427D01*
X121298666Y-88371427D02*
X121298666Y-88457142D01*
X121298666Y-88457142D02*
X121336761Y-88514285D01*
X121336761Y-88514285D02*
X121374857Y-88542856D01*
X121374857Y-88542856D02*
X121451047Y-88571427D01*
X121451047Y-88571427D02*
X121641523Y-88571427D01*
X121641523Y-88571427D02*
X121717714Y-88542856D01*
X121717714Y-88542856D02*
X121755809Y-88514285D01*
X121755809Y-88514285D02*
X121793904Y-88457142D01*
X121793904Y-88457142D02*
X121793904Y-88285713D01*
X121793904Y-88285713D02*
X121755809Y-88228570D01*
X121755809Y-88228570D02*
X121717714Y-88199999D01*
X119793904Y-86142857D02*
X118993904Y-86142857D01*
X119374857Y-86142857D02*
X119374857Y-86485714D01*
X119793904Y-86485714D02*
X118993904Y-86485714D01*
X119565333Y-86742856D02*
X119565333Y-87028571D01*
X119793904Y-86685713D02*
X118993904Y-86885713D01*
X118993904Y-86885713D02*
X119793904Y-87085713D01*
X119793904Y-87571428D02*
X119793904Y-87285714D01*
X119793904Y-87285714D02*
X118993904Y-87285714D01*
X119793904Y-88057142D02*
X119793904Y-87771428D01*
X119793904Y-87771428D02*
X118993904Y-87771428D01*
X119070095Y-88228570D02*
X119032000Y-88257142D01*
X119032000Y-88257142D02*
X118993904Y-88314285D01*
X118993904Y-88314285D02*
X118993904Y-88457142D01*
X118993904Y-88457142D02*
X119032000Y-88514285D01*
X119032000Y-88514285D02*
X119070095Y-88542856D01*
X119070095Y-88542856D02*
X119146285Y-88571427D01*
X119146285Y-88571427D02*
X119222476Y-88571427D01*
X119222476Y-88571427D02*
X119336761Y-88542856D01*
X119336761Y-88542856D02*
X119793904Y-88199999D01*
X119793904Y-88199999D02*
X119793904Y-88571427D01*
X107717714Y-99485714D02*
X107755809Y-99457142D01*
X107755809Y-99457142D02*
X107793904Y-99371428D01*
X107793904Y-99371428D02*
X107793904Y-99314285D01*
X107793904Y-99314285D02*
X107755809Y-99228571D01*
X107755809Y-99228571D02*
X107679619Y-99171428D01*
X107679619Y-99171428D02*
X107603428Y-99142857D01*
X107603428Y-99142857D02*
X107451047Y-99114285D01*
X107451047Y-99114285D02*
X107336761Y-99114285D01*
X107336761Y-99114285D02*
X107184380Y-99142857D01*
X107184380Y-99142857D02*
X107108190Y-99171428D01*
X107108190Y-99171428D02*
X107032000Y-99228571D01*
X107032000Y-99228571D02*
X106993904Y-99314285D01*
X106993904Y-99314285D02*
X106993904Y-99371428D01*
X106993904Y-99371428D02*
X107032000Y-99457142D01*
X107032000Y-99457142D02*
X107070095Y-99485714D01*
X107565333Y-99714285D02*
X107565333Y-100000000D01*
X107793904Y-99657142D02*
X106993904Y-99857142D01*
X106993904Y-99857142D02*
X107793904Y-100057142D01*
X107793904Y-100257143D02*
X106993904Y-100257143D01*
X106993904Y-100257143D02*
X107793904Y-100600000D01*
X107793904Y-100600000D02*
X106993904Y-100600000D01*
X107793904Y-101171428D02*
X107793904Y-100885714D01*
X107793904Y-100885714D02*
X106993904Y-100885714D01*
X113793904Y-99485714D02*
X113412952Y-99285714D01*
X113793904Y-99142857D02*
X112993904Y-99142857D01*
X112993904Y-99142857D02*
X112993904Y-99371428D01*
X112993904Y-99371428D02*
X113032000Y-99428571D01*
X113032000Y-99428571D02*
X113070095Y-99457142D01*
X113070095Y-99457142D02*
X113146285Y-99485714D01*
X113146285Y-99485714D02*
X113260571Y-99485714D01*
X113260571Y-99485714D02*
X113336761Y-99457142D01*
X113336761Y-99457142D02*
X113374857Y-99428571D01*
X113374857Y-99428571D02*
X113412952Y-99371428D01*
X113412952Y-99371428D02*
X113412952Y-99142857D01*
X112993904Y-99685714D02*
X113793904Y-100085714D01*
X112993904Y-100085714D02*
X113793904Y-99685714D01*
X141255809Y-98657142D02*
X141293904Y-98742857D01*
X141293904Y-98742857D02*
X141293904Y-98885714D01*
X141293904Y-98885714D02*
X141255809Y-98942857D01*
X141255809Y-98942857D02*
X141217714Y-98971428D01*
X141217714Y-98971428D02*
X141141523Y-98999999D01*
X141141523Y-98999999D02*
X141065333Y-98999999D01*
X141065333Y-98999999D02*
X140989142Y-98971428D01*
X140989142Y-98971428D02*
X140951047Y-98942857D01*
X140951047Y-98942857D02*
X140912952Y-98885714D01*
X140912952Y-98885714D02*
X140874857Y-98771428D01*
X140874857Y-98771428D02*
X140836761Y-98714285D01*
X140836761Y-98714285D02*
X140798666Y-98685714D01*
X140798666Y-98685714D02*
X140722476Y-98657142D01*
X140722476Y-98657142D02*
X140646285Y-98657142D01*
X140646285Y-98657142D02*
X140570095Y-98685714D01*
X140570095Y-98685714D02*
X140532000Y-98714285D01*
X140532000Y-98714285D02*
X140493904Y-98771428D01*
X140493904Y-98771428D02*
X140493904Y-98914285D01*
X140493904Y-98914285D02*
X140532000Y-98999999D01*
X140493904Y-99200000D02*
X141293904Y-99342857D01*
X141293904Y-99342857D02*
X140722476Y-99457143D01*
X140722476Y-99457143D02*
X141293904Y-99571428D01*
X141293904Y-99571428D02*
X140493904Y-99714286D01*
X141217714Y-100285714D02*
X141255809Y-100257142D01*
X141255809Y-100257142D02*
X141293904Y-100171428D01*
X141293904Y-100171428D02*
X141293904Y-100114285D01*
X141293904Y-100114285D02*
X141255809Y-100028571D01*
X141255809Y-100028571D02*
X141179619Y-99971428D01*
X141179619Y-99971428D02*
X141103428Y-99942857D01*
X141103428Y-99942857D02*
X140951047Y-99914285D01*
X140951047Y-99914285D02*
X140836761Y-99914285D01*
X140836761Y-99914285D02*
X140684380Y-99942857D01*
X140684380Y-99942857D02*
X140608190Y-99971428D01*
X140608190Y-99971428D02*
X140532000Y-100028571D01*
X140532000Y-100028571D02*
X140493904Y-100114285D01*
X140493904Y-100114285D02*
X140493904Y-100171428D01*
X140493904Y-100171428D02*
X140532000Y-100257142D01*
X140532000Y-100257142D02*
X140570095Y-100285714D01*
X141293904Y-100542857D02*
X140493904Y-100542857D01*
X141293904Y-100885714D02*
X140836761Y-100628571D01*
X140493904Y-100885714D02*
X140951047Y-100542857D01*
D12*
X124559999Y-133651071D02*
X124559999Y-132151071D01*
X124559999Y-132151071D02*
X124102856Y-132151071D01*
X124102856Y-132151071D02*
X123988571Y-132222500D01*
X123988571Y-132222500D02*
X123931428Y-132293928D01*
X123931428Y-132293928D02*
X123874285Y-132436785D01*
X123874285Y-132436785D02*
X123874285Y-132651071D01*
X123874285Y-132651071D02*
X123931428Y-132793928D01*
X123931428Y-132793928D02*
X123988571Y-132865357D01*
X123988571Y-132865357D02*
X124102856Y-132936785D01*
X124102856Y-132936785D02*
X124559999Y-132936785D01*
X123359999Y-133651071D02*
X123359999Y-132151071D01*
X122845714Y-133651071D02*
X122845714Y-132865357D01*
X122845714Y-132865357D02*
X122902856Y-132722500D01*
X122902856Y-132722500D02*
X123017142Y-132651071D01*
X123017142Y-132651071D02*
X123188571Y-132651071D01*
X123188571Y-132651071D02*
X123302856Y-132722500D01*
X123302856Y-132722500D02*
X123359999Y-132793928D01*
X121760000Y-133651071D02*
X121760000Y-132865357D01*
X121760000Y-132865357D02*
X121817142Y-132722500D01*
X121817142Y-132722500D02*
X121931428Y-132651071D01*
X121931428Y-132651071D02*
X122160000Y-132651071D01*
X122160000Y-132651071D02*
X122274285Y-132722500D01*
X121760000Y-133579642D02*
X121874285Y-133651071D01*
X121874285Y-133651071D02*
X122160000Y-133651071D01*
X122160000Y-133651071D02*
X122274285Y-133579642D01*
X122274285Y-133579642D02*
X122331428Y-133436785D01*
X122331428Y-133436785D02*
X122331428Y-133293928D01*
X122331428Y-133293928D02*
X122274285Y-133151071D01*
X122274285Y-133151071D02*
X122160000Y-133079642D01*
X122160000Y-133079642D02*
X121874285Y-133079642D01*
X121874285Y-133079642D02*
X121760000Y-133008214D01*
X121245714Y-133579642D02*
X121131428Y-133651071D01*
X121131428Y-133651071D02*
X120902857Y-133651071D01*
X120902857Y-133651071D02*
X120788571Y-133579642D01*
X120788571Y-133579642D02*
X120731428Y-133436785D01*
X120731428Y-133436785D02*
X120731428Y-133365357D01*
X120731428Y-133365357D02*
X120788571Y-133222500D01*
X120788571Y-133222500D02*
X120902857Y-133151071D01*
X120902857Y-133151071D02*
X121074286Y-133151071D01*
X121074286Y-133151071D02*
X121188571Y-133079642D01*
X121188571Y-133079642D02*
X121245714Y-132936785D01*
X121245714Y-132936785D02*
X121245714Y-132865357D01*
X121245714Y-132865357D02*
X121188571Y-132722500D01*
X121188571Y-132722500D02*
X121074286Y-132651071D01*
X121074286Y-132651071D02*
X120902857Y-132651071D01*
X120902857Y-132651071D02*
X120788571Y-132722500D01*
X119759999Y-133579642D02*
X119874285Y-133651071D01*
X119874285Y-133651071D02*
X120102857Y-133651071D01*
X120102857Y-133651071D02*
X120217142Y-133579642D01*
X120217142Y-133579642D02*
X120274285Y-133436785D01*
X120274285Y-133436785D02*
X120274285Y-132865357D01*
X120274285Y-132865357D02*
X120217142Y-132722500D01*
X120217142Y-132722500D02*
X120102857Y-132651071D01*
X120102857Y-132651071D02*
X119874285Y-132651071D01*
X119874285Y-132651071D02*
X119759999Y-132722500D01*
X119759999Y-132722500D02*
X119702857Y-132865357D01*
X119702857Y-132865357D02*
X119702857Y-133008214D01*
X119702857Y-133008214D02*
X120274285Y-133151071D01*
X118068571Y-132865357D02*
X117897143Y-132936785D01*
X117897143Y-132936785D02*
X117840000Y-133008214D01*
X117840000Y-133008214D02*
X117782857Y-133151071D01*
X117782857Y-133151071D02*
X117782857Y-133365357D01*
X117782857Y-133365357D02*
X117840000Y-133508214D01*
X117840000Y-133508214D02*
X117897143Y-133579642D01*
X117897143Y-133579642D02*
X118011428Y-133651071D01*
X118011428Y-133651071D02*
X118468571Y-133651071D01*
X118468571Y-133651071D02*
X118468571Y-132151071D01*
X118468571Y-132151071D02*
X118068571Y-132151071D01*
X118068571Y-132151071D02*
X117954286Y-132222500D01*
X117954286Y-132222500D02*
X117897143Y-132293928D01*
X117897143Y-132293928D02*
X117840000Y-132436785D01*
X117840000Y-132436785D02*
X117840000Y-132579642D01*
X117840000Y-132579642D02*
X117897143Y-132722500D01*
X117897143Y-132722500D02*
X117954286Y-132793928D01*
X117954286Y-132793928D02*
X118068571Y-132865357D01*
X118068571Y-132865357D02*
X118468571Y-132865357D01*
D10*
X115565333Y-99114285D02*
X115565333Y-99400000D01*
X115793904Y-99057142D02*
X114993904Y-99257142D01*
X114993904Y-99257142D02*
X115793904Y-99457142D01*
X115793904Y-99657143D02*
X114993904Y-99657143D01*
X114993904Y-99657143D02*
X114993904Y-99800000D01*
X114993904Y-99800000D02*
X115032000Y-99885714D01*
X115032000Y-99885714D02*
X115108190Y-99942857D01*
X115108190Y-99942857D02*
X115184380Y-99971428D01*
X115184380Y-99971428D02*
X115336761Y-100000000D01*
X115336761Y-100000000D02*
X115451047Y-100000000D01*
X115451047Y-100000000D02*
X115603428Y-99971428D01*
X115603428Y-99971428D02*
X115679619Y-99942857D01*
X115679619Y-99942857D02*
X115755809Y-99885714D01*
X115755809Y-99885714D02*
X115793904Y-99800000D01*
X115793904Y-99800000D02*
X115793904Y-99657143D01*
X115717714Y-100600000D02*
X115755809Y-100571428D01*
X115755809Y-100571428D02*
X115793904Y-100485714D01*
X115793904Y-100485714D02*
X115793904Y-100428571D01*
X115793904Y-100428571D02*
X115755809Y-100342857D01*
X115755809Y-100342857D02*
X115679619Y-100285714D01*
X115679619Y-100285714D02*
X115603428Y-100257143D01*
X115603428Y-100257143D02*
X115451047Y-100228571D01*
X115451047Y-100228571D02*
X115336761Y-100228571D01*
X115336761Y-100228571D02*
X115184380Y-100257143D01*
X115184380Y-100257143D02*
X115108190Y-100285714D01*
X115108190Y-100285714D02*
X115032000Y-100342857D01*
X115032000Y-100342857D02*
X114993904Y-100428571D01*
X114993904Y-100428571D02*
X114993904Y-100485714D01*
X114993904Y-100485714D02*
X115032000Y-100571428D01*
X115032000Y-100571428D02*
X115070095Y-100600000D01*
D12*
X101474284Y-133751071D02*
X101474284Y-132251071D01*
X101474284Y-132251071D02*
X101017141Y-132251071D01*
X101017141Y-132251071D02*
X100902856Y-132322500D01*
X100902856Y-132322500D02*
X100845713Y-132393928D01*
X100845713Y-132393928D02*
X100788570Y-132536785D01*
X100788570Y-132536785D02*
X100788570Y-132751071D01*
X100788570Y-132751071D02*
X100845713Y-132893928D01*
X100845713Y-132893928D02*
X100902856Y-132965357D01*
X100902856Y-132965357D02*
X101017141Y-133036785D01*
X101017141Y-133036785D02*
X101474284Y-133036785D01*
X100274284Y-133751071D02*
X100274284Y-132251071D01*
X99759999Y-133751071D02*
X99759999Y-132965357D01*
X99759999Y-132965357D02*
X99817141Y-132822500D01*
X99817141Y-132822500D02*
X99931427Y-132751071D01*
X99931427Y-132751071D02*
X100102856Y-132751071D01*
X100102856Y-132751071D02*
X100217141Y-132822500D01*
X100217141Y-132822500D02*
X100274284Y-132893928D01*
X98674285Y-133751071D02*
X98674285Y-132965357D01*
X98674285Y-132965357D02*
X98731427Y-132822500D01*
X98731427Y-132822500D02*
X98845713Y-132751071D01*
X98845713Y-132751071D02*
X99074285Y-132751071D01*
X99074285Y-132751071D02*
X99188570Y-132822500D01*
X98674285Y-133679642D02*
X98788570Y-133751071D01*
X98788570Y-133751071D02*
X99074285Y-133751071D01*
X99074285Y-133751071D02*
X99188570Y-133679642D01*
X99188570Y-133679642D02*
X99245713Y-133536785D01*
X99245713Y-133536785D02*
X99245713Y-133393928D01*
X99245713Y-133393928D02*
X99188570Y-133251071D01*
X99188570Y-133251071D02*
X99074285Y-133179642D01*
X99074285Y-133179642D02*
X98788570Y-133179642D01*
X98788570Y-133179642D02*
X98674285Y-133108214D01*
X98159999Y-133679642D02*
X98045713Y-133751071D01*
X98045713Y-133751071D02*
X97817142Y-133751071D01*
X97817142Y-133751071D02*
X97702856Y-133679642D01*
X97702856Y-133679642D02*
X97645713Y-133536785D01*
X97645713Y-133536785D02*
X97645713Y-133465357D01*
X97645713Y-133465357D02*
X97702856Y-133322500D01*
X97702856Y-133322500D02*
X97817142Y-133251071D01*
X97817142Y-133251071D02*
X97988571Y-133251071D01*
X97988571Y-133251071D02*
X98102856Y-133179642D01*
X98102856Y-133179642D02*
X98159999Y-133036785D01*
X98159999Y-133036785D02*
X98159999Y-132965357D01*
X98159999Y-132965357D02*
X98102856Y-132822500D01*
X98102856Y-132822500D02*
X97988571Y-132751071D01*
X97988571Y-132751071D02*
X97817142Y-132751071D01*
X97817142Y-132751071D02*
X97702856Y-132822500D01*
X96674284Y-133679642D02*
X96788570Y-133751071D01*
X96788570Y-133751071D02*
X97017142Y-133751071D01*
X97017142Y-133751071D02*
X97131427Y-133679642D01*
X97131427Y-133679642D02*
X97188570Y-133536785D01*
X97188570Y-133536785D02*
X97188570Y-132965357D01*
X97188570Y-132965357D02*
X97131427Y-132822500D01*
X97131427Y-132822500D02*
X97017142Y-132751071D01*
X97017142Y-132751071D02*
X96788570Y-132751071D01*
X96788570Y-132751071D02*
X96674284Y-132822500D01*
X96674284Y-132822500D02*
X96617142Y-132965357D01*
X96617142Y-132965357D02*
X96617142Y-133108214D01*
X96617142Y-133108214D02*
X97188570Y-133251071D01*
X95439999Y-133322500D02*
X94868571Y-133322500D01*
X95554285Y-133751071D02*
X95154285Y-132251071D01*
X95154285Y-132251071D02*
X94754285Y-133751071D01*
D10*
X137993904Y-99142856D02*
X137993904Y-99514284D01*
X137993904Y-99514284D02*
X138298666Y-99314284D01*
X138298666Y-99314284D02*
X138298666Y-99399999D01*
X138298666Y-99399999D02*
X138336761Y-99457142D01*
X138336761Y-99457142D02*
X138374857Y-99485713D01*
X138374857Y-99485713D02*
X138451047Y-99514284D01*
X138451047Y-99514284D02*
X138641523Y-99514284D01*
X138641523Y-99514284D02*
X138717714Y-99485713D01*
X138717714Y-99485713D02*
X138755809Y-99457142D01*
X138755809Y-99457142D02*
X138793904Y-99399999D01*
X138793904Y-99399999D02*
X138793904Y-99228570D01*
X138793904Y-99228570D02*
X138755809Y-99171427D01*
X138755809Y-99171427D02*
X138717714Y-99142856D01*
X138717714Y-99771428D02*
X138755809Y-99799999D01*
X138755809Y-99799999D02*
X138793904Y-99771428D01*
X138793904Y-99771428D02*
X138755809Y-99742856D01*
X138755809Y-99742856D02*
X138717714Y-99771428D01*
X138717714Y-99771428D02*
X138793904Y-99771428D01*
X137993904Y-99999999D02*
X137993904Y-100371427D01*
X137993904Y-100371427D02*
X138298666Y-100171427D01*
X138298666Y-100171427D02*
X138298666Y-100257142D01*
X138298666Y-100257142D02*
X138336761Y-100314285D01*
X138336761Y-100314285D02*
X138374857Y-100342856D01*
X138374857Y-100342856D02*
X138451047Y-100371427D01*
X138451047Y-100371427D02*
X138641523Y-100371427D01*
X138641523Y-100371427D02*
X138717714Y-100342856D01*
X138717714Y-100342856D02*
X138755809Y-100314285D01*
X138755809Y-100314285D02*
X138793904Y-100257142D01*
X138793904Y-100257142D02*
X138793904Y-100085713D01*
X138793904Y-100085713D02*
X138755809Y-100028570D01*
X138755809Y-100028570D02*
X138717714Y-99999999D01*
X137993904Y-100542856D02*
X138793904Y-100742856D01*
X138793904Y-100742856D02*
X137993904Y-100942856D01*
D12*
X147659999Y-133651071D02*
X147659999Y-132151071D01*
X147659999Y-132151071D02*
X147202856Y-132151071D01*
X147202856Y-132151071D02*
X147088571Y-132222500D01*
X147088571Y-132222500D02*
X147031428Y-132293928D01*
X147031428Y-132293928D02*
X146974285Y-132436785D01*
X146974285Y-132436785D02*
X146974285Y-132651071D01*
X146974285Y-132651071D02*
X147031428Y-132793928D01*
X147031428Y-132793928D02*
X147088571Y-132865357D01*
X147088571Y-132865357D02*
X147202856Y-132936785D01*
X147202856Y-132936785D02*
X147659999Y-132936785D01*
X146459999Y-133651071D02*
X146459999Y-132151071D01*
X145945714Y-133651071D02*
X145945714Y-132865357D01*
X145945714Y-132865357D02*
X146002856Y-132722500D01*
X146002856Y-132722500D02*
X146117142Y-132651071D01*
X146117142Y-132651071D02*
X146288571Y-132651071D01*
X146288571Y-132651071D02*
X146402856Y-132722500D01*
X146402856Y-132722500D02*
X146459999Y-132793928D01*
X144860000Y-133651071D02*
X144860000Y-132865357D01*
X144860000Y-132865357D02*
X144917142Y-132722500D01*
X144917142Y-132722500D02*
X145031428Y-132651071D01*
X145031428Y-132651071D02*
X145260000Y-132651071D01*
X145260000Y-132651071D02*
X145374285Y-132722500D01*
X144860000Y-133579642D02*
X144974285Y-133651071D01*
X144974285Y-133651071D02*
X145260000Y-133651071D01*
X145260000Y-133651071D02*
X145374285Y-133579642D01*
X145374285Y-133579642D02*
X145431428Y-133436785D01*
X145431428Y-133436785D02*
X145431428Y-133293928D01*
X145431428Y-133293928D02*
X145374285Y-133151071D01*
X145374285Y-133151071D02*
X145260000Y-133079642D01*
X145260000Y-133079642D02*
X144974285Y-133079642D01*
X144974285Y-133079642D02*
X144860000Y-133008214D01*
X144345714Y-133579642D02*
X144231428Y-133651071D01*
X144231428Y-133651071D02*
X144002857Y-133651071D01*
X144002857Y-133651071D02*
X143888571Y-133579642D01*
X143888571Y-133579642D02*
X143831428Y-133436785D01*
X143831428Y-133436785D02*
X143831428Y-133365357D01*
X143831428Y-133365357D02*
X143888571Y-133222500D01*
X143888571Y-133222500D02*
X144002857Y-133151071D01*
X144002857Y-133151071D02*
X144174286Y-133151071D01*
X144174286Y-133151071D02*
X144288571Y-133079642D01*
X144288571Y-133079642D02*
X144345714Y-132936785D01*
X144345714Y-132936785D02*
X144345714Y-132865357D01*
X144345714Y-132865357D02*
X144288571Y-132722500D01*
X144288571Y-132722500D02*
X144174286Y-132651071D01*
X144174286Y-132651071D02*
X144002857Y-132651071D01*
X144002857Y-132651071D02*
X143888571Y-132722500D01*
X142859999Y-133579642D02*
X142974285Y-133651071D01*
X142974285Y-133651071D02*
X143202857Y-133651071D01*
X143202857Y-133651071D02*
X143317142Y-133579642D01*
X143317142Y-133579642D02*
X143374285Y-133436785D01*
X143374285Y-133436785D02*
X143374285Y-132865357D01*
X143374285Y-132865357D02*
X143317142Y-132722500D01*
X143317142Y-132722500D02*
X143202857Y-132651071D01*
X143202857Y-132651071D02*
X142974285Y-132651071D01*
X142974285Y-132651071D02*
X142859999Y-132722500D01*
X142859999Y-132722500D02*
X142802857Y-132865357D01*
X142802857Y-132865357D02*
X142802857Y-133008214D01*
X142802857Y-133008214D02*
X143374285Y-133151071D01*
X140882857Y-133508214D02*
X140940000Y-133579642D01*
X140940000Y-133579642D02*
X141111428Y-133651071D01*
X141111428Y-133651071D02*
X141225714Y-133651071D01*
X141225714Y-133651071D02*
X141397143Y-133579642D01*
X141397143Y-133579642D02*
X141511428Y-133436785D01*
X141511428Y-133436785D02*
X141568571Y-133293928D01*
X141568571Y-133293928D02*
X141625714Y-133008214D01*
X141625714Y-133008214D02*
X141625714Y-132793928D01*
X141625714Y-132793928D02*
X141568571Y-132508214D01*
X141568571Y-132508214D02*
X141511428Y-132365357D01*
X141511428Y-132365357D02*
X141397143Y-132222500D01*
X141397143Y-132222500D02*
X141225714Y-132151071D01*
X141225714Y-132151071D02*
X141111428Y-132151071D01*
X141111428Y-132151071D02*
X140940000Y-132222500D01*
X140940000Y-132222500D02*
X140882857Y-132293928D01*
D10*
%TO.C,C17*%
X95872142Y-85107142D02*
X95919761Y-85059523D01*
X95919761Y-85059523D02*
X95967380Y-84916666D01*
X95967380Y-84916666D02*
X95967380Y-84821428D01*
X95967380Y-84821428D02*
X95919761Y-84678571D01*
X95919761Y-84678571D02*
X95824523Y-84583333D01*
X95824523Y-84583333D02*
X95729285Y-84535714D01*
X95729285Y-84535714D02*
X95538809Y-84488095D01*
X95538809Y-84488095D02*
X95395952Y-84488095D01*
X95395952Y-84488095D02*
X95205476Y-84535714D01*
X95205476Y-84535714D02*
X95110238Y-84583333D01*
X95110238Y-84583333D02*
X95015000Y-84678571D01*
X95015000Y-84678571D02*
X94967380Y-84821428D01*
X94967380Y-84821428D02*
X94967380Y-84916666D01*
X94967380Y-84916666D02*
X95015000Y-85059523D01*
X95015000Y-85059523D02*
X95062619Y-85107142D01*
X95967380Y-86059523D02*
X95967380Y-85488095D01*
X95967380Y-85773809D02*
X94967380Y-85773809D01*
X94967380Y-85773809D02*
X95110238Y-85678571D01*
X95110238Y-85678571D02*
X95205476Y-85583333D01*
X95205476Y-85583333D02*
X95253095Y-85488095D01*
X94967380Y-86392857D02*
X94967380Y-87059523D01*
X94967380Y-87059523D02*
X95967380Y-86630952D01*
%TO.C,J3*%
X110933333Y-91817380D02*
X110933333Y-92531666D01*
X110933333Y-92531666D02*
X110980952Y-92674523D01*
X110980952Y-92674523D02*
X111076190Y-92769761D01*
X111076190Y-92769761D02*
X111219047Y-92817380D01*
X111219047Y-92817380D02*
X111314285Y-92817380D01*
X110552380Y-91817380D02*
X109933333Y-91817380D01*
X109933333Y-91817380D02*
X110266666Y-92198333D01*
X110266666Y-92198333D02*
X110123809Y-92198333D01*
X110123809Y-92198333D02*
X110028571Y-92245952D01*
X110028571Y-92245952D02*
X109980952Y-92293571D01*
X109980952Y-92293571D02*
X109933333Y-92388809D01*
X109933333Y-92388809D02*
X109933333Y-92626904D01*
X109933333Y-92626904D02*
X109980952Y-92722142D01*
X109980952Y-92722142D02*
X110028571Y-92769761D01*
X110028571Y-92769761D02*
X110123809Y-92817380D01*
X110123809Y-92817380D02*
X110409523Y-92817380D01*
X110409523Y-92817380D02*
X110504761Y-92769761D01*
X110504761Y-92769761D02*
X110552380Y-92722142D01*
%TO.C,J2*%
X109833333Y-82917380D02*
X109833333Y-83631666D01*
X109833333Y-83631666D02*
X109880952Y-83774523D01*
X109880952Y-83774523D02*
X109976190Y-83869761D01*
X109976190Y-83869761D02*
X110119047Y-83917380D01*
X110119047Y-83917380D02*
X110214285Y-83917380D01*
X109404761Y-83012619D02*
X109357142Y-82965000D01*
X109357142Y-82965000D02*
X109261904Y-82917380D01*
X109261904Y-82917380D02*
X109023809Y-82917380D01*
X109023809Y-82917380D02*
X108928571Y-82965000D01*
X108928571Y-82965000D02*
X108880952Y-83012619D01*
X108880952Y-83012619D02*
X108833333Y-83107857D01*
X108833333Y-83107857D02*
X108833333Y-83203095D01*
X108833333Y-83203095D02*
X108880952Y-83345952D01*
X108880952Y-83345952D02*
X109452380Y-83917380D01*
X109452380Y-83917380D02*
X108833333Y-83917380D01*
%TO.C,C101*%
X100619047Y-103272142D02*
X100666666Y-103319761D01*
X100666666Y-103319761D02*
X100809523Y-103367380D01*
X100809523Y-103367380D02*
X100904761Y-103367380D01*
X100904761Y-103367380D02*
X101047618Y-103319761D01*
X101047618Y-103319761D02*
X101142856Y-103224523D01*
X101142856Y-103224523D02*
X101190475Y-103129285D01*
X101190475Y-103129285D02*
X101238094Y-102938809D01*
X101238094Y-102938809D02*
X101238094Y-102795952D01*
X101238094Y-102795952D02*
X101190475Y-102605476D01*
X101190475Y-102605476D02*
X101142856Y-102510238D01*
X101142856Y-102510238D02*
X101047618Y-102415000D01*
X101047618Y-102415000D02*
X100904761Y-102367380D01*
X100904761Y-102367380D02*
X100809523Y-102367380D01*
X100809523Y-102367380D02*
X100666666Y-102415000D01*
X100666666Y-102415000D02*
X100619047Y-102462619D01*
X99666666Y-103367380D02*
X100238094Y-103367380D01*
X99952380Y-103367380D02*
X99952380Y-102367380D01*
X99952380Y-102367380D02*
X100047618Y-102510238D01*
X100047618Y-102510238D02*
X100142856Y-102605476D01*
X100142856Y-102605476D02*
X100238094Y-102653095D01*
X99047618Y-102367380D02*
X98952380Y-102367380D01*
X98952380Y-102367380D02*
X98857142Y-102415000D01*
X98857142Y-102415000D02*
X98809523Y-102462619D01*
X98809523Y-102462619D02*
X98761904Y-102557857D01*
X98761904Y-102557857D02*
X98714285Y-102748333D01*
X98714285Y-102748333D02*
X98714285Y-102986428D01*
X98714285Y-102986428D02*
X98761904Y-103176904D01*
X98761904Y-103176904D02*
X98809523Y-103272142D01*
X98809523Y-103272142D02*
X98857142Y-103319761D01*
X98857142Y-103319761D02*
X98952380Y-103367380D01*
X98952380Y-103367380D02*
X99047618Y-103367380D01*
X99047618Y-103367380D02*
X99142856Y-103319761D01*
X99142856Y-103319761D02*
X99190475Y-103272142D01*
X99190475Y-103272142D02*
X99238094Y-103176904D01*
X99238094Y-103176904D02*
X99285713Y-102986428D01*
X99285713Y-102986428D02*
X99285713Y-102748333D01*
X99285713Y-102748333D02*
X99238094Y-102557857D01*
X99238094Y-102557857D02*
X99190475Y-102462619D01*
X99190475Y-102462619D02*
X99142856Y-102415000D01*
X99142856Y-102415000D02*
X99047618Y-102367380D01*
X97761904Y-103367380D02*
X98333332Y-103367380D01*
X98047618Y-103367380D02*
X98047618Y-102367380D01*
X98047618Y-102367380D02*
X98142856Y-102510238D01*
X98142856Y-102510238D02*
X98238094Y-102605476D01*
X98238094Y-102605476D02*
X98333332Y-102653095D01*
%TO.C,C102*%
X131619047Y-103272142D02*
X131666666Y-103319761D01*
X131666666Y-103319761D02*
X131809523Y-103367380D01*
X131809523Y-103367380D02*
X131904761Y-103367380D01*
X131904761Y-103367380D02*
X132047618Y-103319761D01*
X132047618Y-103319761D02*
X132142856Y-103224523D01*
X132142856Y-103224523D02*
X132190475Y-103129285D01*
X132190475Y-103129285D02*
X132238094Y-102938809D01*
X132238094Y-102938809D02*
X132238094Y-102795952D01*
X132238094Y-102795952D02*
X132190475Y-102605476D01*
X132190475Y-102605476D02*
X132142856Y-102510238D01*
X132142856Y-102510238D02*
X132047618Y-102415000D01*
X132047618Y-102415000D02*
X131904761Y-102367380D01*
X131904761Y-102367380D02*
X131809523Y-102367380D01*
X131809523Y-102367380D02*
X131666666Y-102415000D01*
X131666666Y-102415000D02*
X131619047Y-102462619D01*
X130666666Y-103367380D02*
X131238094Y-103367380D01*
X130952380Y-103367380D02*
X130952380Y-102367380D01*
X130952380Y-102367380D02*
X131047618Y-102510238D01*
X131047618Y-102510238D02*
X131142856Y-102605476D01*
X131142856Y-102605476D02*
X131238094Y-102653095D01*
X130047618Y-102367380D02*
X129952380Y-102367380D01*
X129952380Y-102367380D02*
X129857142Y-102415000D01*
X129857142Y-102415000D02*
X129809523Y-102462619D01*
X129809523Y-102462619D02*
X129761904Y-102557857D01*
X129761904Y-102557857D02*
X129714285Y-102748333D01*
X129714285Y-102748333D02*
X129714285Y-102986428D01*
X129714285Y-102986428D02*
X129761904Y-103176904D01*
X129761904Y-103176904D02*
X129809523Y-103272142D01*
X129809523Y-103272142D02*
X129857142Y-103319761D01*
X129857142Y-103319761D02*
X129952380Y-103367380D01*
X129952380Y-103367380D02*
X130047618Y-103367380D01*
X130047618Y-103367380D02*
X130142856Y-103319761D01*
X130142856Y-103319761D02*
X130190475Y-103272142D01*
X130190475Y-103272142D02*
X130238094Y-103176904D01*
X130238094Y-103176904D02*
X130285713Y-102986428D01*
X130285713Y-102986428D02*
X130285713Y-102748333D01*
X130285713Y-102748333D02*
X130238094Y-102557857D01*
X130238094Y-102557857D02*
X130190475Y-102462619D01*
X130190475Y-102462619D02*
X130142856Y-102415000D01*
X130142856Y-102415000D02*
X130047618Y-102367380D01*
X129333332Y-102462619D02*
X129285713Y-102415000D01*
X129285713Y-102415000D02*
X129190475Y-102367380D01*
X129190475Y-102367380D02*
X128952380Y-102367380D01*
X128952380Y-102367380D02*
X128857142Y-102415000D01*
X128857142Y-102415000D02*
X128809523Y-102462619D01*
X128809523Y-102462619D02*
X128761904Y-102557857D01*
X128761904Y-102557857D02*
X128761904Y-102653095D01*
X128761904Y-102653095D02*
X128809523Y-102795952D01*
X128809523Y-102795952D02*
X129380951Y-103367380D01*
X129380951Y-103367380D02*
X128761904Y-103367380D01*
%TO.C,X3*%
X101809523Y-137867380D02*
X101142857Y-138867380D01*
X101142857Y-137867380D02*
X101809523Y-138867380D01*
X100857142Y-137867380D02*
X100238095Y-137867380D01*
X100238095Y-137867380D02*
X100571428Y-138248333D01*
X100571428Y-138248333D02*
X100428571Y-138248333D01*
X100428571Y-138248333D02*
X100333333Y-138295952D01*
X100333333Y-138295952D02*
X100285714Y-138343571D01*
X100285714Y-138343571D02*
X100238095Y-138438809D01*
X100238095Y-138438809D02*
X100238095Y-138676904D01*
X100238095Y-138676904D02*
X100285714Y-138772142D01*
X100285714Y-138772142D02*
X100333333Y-138819761D01*
X100333333Y-138819761D02*
X100428571Y-138867380D01*
X100428571Y-138867380D02*
X100714285Y-138867380D01*
X100714285Y-138867380D02*
X100809523Y-138819761D01*
X100809523Y-138819761D02*
X100857142Y-138772142D01*
%TO.C,X4*%
X124809523Y-137867380D02*
X124142857Y-138867380D01*
X124142857Y-137867380D02*
X124809523Y-138867380D01*
X123333333Y-138200714D02*
X123333333Y-138867380D01*
X123571428Y-137819761D02*
X123809523Y-138534047D01*
X123809523Y-138534047D02*
X123190476Y-138534047D01*
%TO.C,R102*%
X133619047Y-123367380D02*
X133952380Y-122891190D01*
X134190475Y-123367380D02*
X134190475Y-122367380D01*
X134190475Y-122367380D02*
X133809523Y-122367380D01*
X133809523Y-122367380D02*
X133714285Y-122415000D01*
X133714285Y-122415000D02*
X133666666Y-122462619D01*
X133666666Y-122462619D02*
X133619047Y-122557857D01*
X133619047Y-122557857D02*
X133619047Y-122700714D01*
X133619047Y-122700714D02*
X133666666Y-122795952D01*
X133666666Y-122795952D02*
X133714285Y-122843571D01*
X133714285Y-122843571D02*
X133809523Y-122891190D01*
X133809523Y-122891190D02*
X134190475Y-122891190D01*
X132666666Y-123367380D02*
X133238094Y-123367380D01*
X132952380Y-123367380D02*
X132952380Y-122367380D01*
X132952380Y-122367380D02*
X133047618Y-122510238D01*
X133047618Y-122510238D02*
X133142856Y-122605476D01*
X133142856Y-122605476D02*
X133238094Y-122653095D01*
X132047618Y-122367380D02*
X131952380Y-122367380D01*
X131952380Y-122367380D02*
X131857142Y-122415000D01*
X131857142Y-122415000D02*
X131809523Y-122462619D01*
X131809523Y-122462619D02*
X131761904Y-122557857D01*
X131761904Y-122557857D02*
X131714285Y-122748333D01*
X131714285Y-122748333D02*
X131714285Y-122986428D01*
X131714285Y-122986428D02*
X131761904Y-123176904D01*
X131761904Y-123176904D02*
X131809523Y-123272142D01*
X131809523Y-123272142D02*
X131857142Y-123319761D01*
X131857142Y-123319761D02*
X131952380Y-123367380D01*
X131952380Y-123367380D02*
X132047618Y-123367380D01*
X132047618Y-123367380D02*
X132142856Y-123319761D01*
X132142856Y-123319761D02*
X132190475Y-123272142D01*
X132190475Y-123272142D02*
X132238094Y-123176904D01*
X132238094Y-123176904D02*
X132285713Y-122986428D01*
X132285713Y-122986428D02*
X132285713Y-122748333D01*
X132285713Y-122748333D02*
X132238094Y-122557857D01*
X132238094Y-122557857D02*
X132190475Y-122462619D01*
X132190475Y-122462619D02*
X132142856Y-122415000D01*
X132142856Y-122415000D02*
X132047618Y-122367380D01*
X131333332Y-122462619D02*
X131285713Y-122415000D01*
X131285713Y-122415000D02*
X131190475Y-122367380D01*
X131190475Y-122367380D02*
X130952380Y-122367380D01*
X130952380Y-122367380D02*
X130857142Y-122415000D01*
X130857142Y-122415000D02*
X130809523Y-122462619D01*
X130809523Y-122462619D02*
X130761904Y-122557857D01*
X130761904Y-122557857D02*
X130761904Y-122653095D01*
X130761904Y-122653095D02*
X130809523Y-122795952D01*
X130809523Y-122795952D02*
X131380951Y-123367380D01*
X131380951Y-123367380D02*
X130761904Y-123367380D01*
%TO.C,SW1*%
X135433332Y-96619761D02*
X135290475Y-96667380D01*
X135290475Y-96667380D02*
X135052380Y-96667380D01*
X135052380Y-96667380D02*
X134957142Y-96619761D01*
X134957142Y-96619761D02*
X134909523Y-96572142D01*
X134909523Y-96572142D02*
X134861904Y-96476904D01*
X134861904Y-96476904D02*
X134861904Y-96381666D01*
X134861904Y-96381666D02*
X134909523Y-96286428D01*
X134909523Y-96286428D02*
X134957142Y-96238809D01*
X134957142Y-96238809D02*
X135052380Y-96191190D01*
X135052380Y-96191190D02*
X135242856Y-96143571D01*
X135242856Y-96143571D02*
X135338094Y-96095952D01*
X135338094Y-96095952D02*
X135385713Y-96048333D01*
X135385713Y-96048333D02*
X135433332Y-95953095D01*
X135433332Y-95953095D02*
X135433332Y-95857857D01*
X135433332Y-95857857D02*
X135385713Y-95762619D01*
X135385713Y-95762619D02*
X135338094Y-95715000D01*
X135338094Y-95715000D02*
X135242856Y-95667380D01*
X135242856Y-95667380D02*
X135004761Y-95667380D01*
X135004761Y-95667380D02*
X134861904Y-95715000D01*
X134528570Y-95667380D02*
X134290475Y-96667380D01*
X134290475Y-96667380D02*
X134099999Y-95953095D01*
X134099999Y-95953095D02*
X133909523Y-96667380D01*
X133909523Y-96667380D02*
X133671428Y-95667380D01*
X132766666Y-96667380D02*
X133338094Y-96667380D01*
X133052380Y-96667380D02*
X133052380Y-95667380D01*
X133052380Y-95667380D02*
X133147618Y-95810238D01*
X133147618Y-95810238D02*
X133242856Y-95905476D01*
X133242856Y-95905476D02*
X133338094Y-95953095D01*
%TO.C,J1*%
X153779880Y-101166666D02*
X154494166Y-101166666D01*
X154494166Y-101166666D02*
X154637023Y-101119047D01*
X154637023Y-101119047D02*
X154732261Y-101023809D01*
X154732261Y-101023809D02*
X154779880Y-100880952D01*
X154779880Y-100880952D02*
X154779880Y-100785714D01*
X154779880Y-102166666D02*
X154779880Y-101595238D01*
X154779880Y-101880952D02*
X153779880Y-101880952D01*
X153779880Y-101880952D02*
X153922738Y-101785714D01*
X153922738Y-101785714D02*
X154017976Y-101690476D01*
X154017976Y-101690476D02*
X154065595Y-101595238D01*
%TO.C,R103*%
X156619047Y-123367380D02*
X156952380Y-122891190D01*
X157190475Y-123367380D02*
X157190475Y-122367380D01*
X157190475Y-122367380D02*
X156809523Y-122367380D01*
X156809523Y-122367380D02*
X156714285Y-122415000D01*
X156714285Y-122415000D02*
X156666666Y-122462619D01*
X156666666Y-122462619D02*
X156619047Y-122557857D01*
X156619047Y-122557857D02*
X156619047Y-122700714D01*
X156619047Y-122700714D02*
X156666666Y-122795952D01*
X156666666Y-122795952D02*
X156714285Y-122843571D01*
X156714285Y-122843571D02*
X156809523Y-122891190D01*
X156809523Y-122891190D02*
X157190475Y-122891190D01*
X155666666Y-123367380D02*
X156238094Y-123367380D01*
X155952380Y-123367380D02*
X155952380Y-122367380D01*
X155952380Y-122367380D02*
X156047618Y-122510238D01*
X156047618Y-122510238D02*
X156142856Y-122605476D01*
X156142856Y-122605476D02*
X156238094Y-122653095D01*
X155047618Y-122367380D02*
X154952380Y-122367380D01*
X154952380Y-122367380D02*
X154857142Y-122415000D01*
X154857142Y-122415000D02*
X154809523Y-122462619D01*
X154809523Y-122462619D02*
X154761904Y-122557857D01*
X154761904Y-122557857D02*
X154714285Y-122748333D01*
X154714285Y-122748333D02*
X154714285Y-122986428D01*
X154714285Y-122986428D02*
X154761904Y-123176904D01*
X154761904Y-123176904D02*
X154809523Y-123272142D01*
X154809523Y-123272142D02*
X154857142Y-123319761D01*
X154857142Y-123319761D02*
X154952380Y-123367380D01*
X154952380Y-123367380D02*
X155047618Y-123367380D01*
X155047618Y-123367380D02*
X155142856Y-123319761D01*
X155142856Y-123319761D02*
X155190475Y-123272142D01*
X155190475Y-123272142D02*
X155238094Y-123176904D01*
X155238094Y-123176904D02*
X155285713Y-122986428D01*
X155285713Y-122986428D02*
X155285713Y-122748333D01*
X155285713Y-122748333D02*
X155238094Y-122557857D01*
X155238094Y-122557857D02*
X155190475Y-122462619D01*
X155190475Y-122462619D02*
X155142856Y-122415000D01*
X155142856Y-122415000D02*
X155047618Y-122367380D01*
X154380951Y-122367380D02*
X153761904Y-122367380D01*
X153761904Y-122367380D02*
X154095237Y-122748333D01*
X154095237Y-122748333D02*
X153952380Y-122748333D01*
X153952380Y-122748333D02*
X153857142Y-122795952D01*
X153857142Y-122795952D02*
X153809523Y-122843571D01*
X153809523Y-122843571D02*
X153761904Y-122938809D01*
X153761904Y-122938809D02*
X153761904Y-123176904D01*
X153761904Y-123176904D02*
X153809523Y-123272142D01*
X153809523Y-123272142D02*
X153857142Y-123319761D01*
X153857142Y-123319761D02*
X153952380Y-123367380D01*
X153952380Y-123367380D02*
X154238094Y-123367380D01*
X154238094Y-123367380D02*
X154333332Y-123319761D01*
X154333332Y-123319761D02*
X154380951Y-123272142D01*
%TO.C,X1*%
X91809523Y-105367380D02*
X91142857Y-106367380D01*
X91142857Y-105367380D02*
X91809523Y-106367380D01*
X90238095Y-106367380D02*
X90809523Y-106367380D01*
X90523809Y-106367380D02*
X90523809Y-105367380D01*
X90523809Y-105367380D02*
X90619047Y-105510238D01*
X90619047Y-105510238D02*
X90714285Y-105605476D01*
X90714285Y-105605476D02*
X90809523Y-105653095D01*
%TO.C,C5*%
X95416666Y-99672142D02*
X95464285Y-99719761D01*
X95464285Y-99719761D02*
X95607142Y-99767380D01*
X95607142Y-99767380D02*
X95702380Y-99767380D01*
X95702380Y-99767380D02*
X95845237Y-99719761D01*
X95845237Y-99719761D02*
X95940475Y-99624523D01*
X95940475Y-99624523D02*
X95988094Y-99529285D01*
X95988094Y-99529285D02*
X96035713Y-99338809D01*
X96035713Y-99338809D02*
X96035713Y-99195952D01*
X96035713Y-99195952D02*
X95988094Y-99005476D01*
X95988094Y-99005476D02*
X95940475Y-98910238D01*
X95940475Y-98910238D02*
X95845237Y-98815000D01*
X95845237Y-98815000D02*
X95702380Y-98767380D01*
X95702380Y-98767380D02*
X95607142Y-98767380D01*
X95607142Y-98767380D02*
X95464285Y-98815000D01*
X95464285Y-98815000D02*
X95416666Y-98862619D01*
X94511904Y-98767380D02*
X94988094Y-98767380D01*
X94988094Y-98767380D02*
X95035713Y-99243571D01*
X95035713Y-99243571D02*
X94988094Y-99195952D01*
X94988094Y-99195952D02*
X94892856Y-99148333D01*
X94892856Y-99148333D02*
X94654761Y-99148333D01*
X94654761Y-99148333D02*
X94559523Y-99195952D01*
X94559523Y-99195952D02*
X94511904Y-99243571D01*
X94511904Y-99243571D02*
X94464285Y-99338809D01*
X94464285Y-99338809D02*
X94464285Y-99576904D01*
X94464285Y-99576904D02*
X94511904Y-99672142D01*
X94511904Y-99672142D02*
X94559523Y-99719761D01*
X94559523Y-99719761D02*
X94654761Y-99767380D01*
X94654761Y-99767380D02*
X94892856Y-99767380D01*
X94892856Y-99767380D02*
X94988094Y-99719761D01*
X94988094Y-99719761D02*
X95035713Y-99672142D01*
%TO.C,C103*%
X156495088Y-111672142D02*
X156542707Y-111719761D01*
X156542707Y-111719761D02*
X156685564Y-111767380D01*
X156685564Y-111767380D02*
X156780802Y-111767380D01*
X156780802Y-111767380D02*
X156923659Y-111719761D01*
X156923659Y-111719761D02*
X157018897Y-111624523D01*
X157018897Y-111624523D02*
X157066516Y-111529285D01*
X157066516Y-111529285D02*
X157114135Y-111338809D01*
X157114135Y-111338809D02*
X157114135Y-111195952D01*
X157114135Y-111195952D02*
X157066516Y-111005476D01*
X157066516Y-111005476D02*
X157018897Y-110910238D01*
X157018897Y-110910238D02*
X156923659Y-110815000D01*
X156923659Y-110815000D02*
X156780802Y-110767380D01*
X156780802Y-110767380D02*
X156685564Y-110767380D01*
X156685564Y-110767380D02*
X156542707Y-110815000D01*
X156542707Y-110815000D02*
X156495088Y-110862619D01*
X155542707Y-111767380D02*
X156114135Y-111767380D01*
X155828421Y-111767380D02*
X155828421Y-110767380D01*
X155828421Y-110767380D02*
X155923659Y-110910238D01*
X155923659Y-110910238D02*
X156018897Y-111005476D01*
X156018897Y-111005476D02*
X156114135Y-111053095D01*
X154923659Y-110767380D02*
X154828421Y-110767380D01*
X154828421Y-110767380D02*
X154733183Y-110815000D01*
X154733183Y-110815000D02*
X154685564Y-110862619D01*
X154685564Y-110862619D02*
X154637945Y-110957857D01*
X154637945Y-110957857D02*
X154590326Y-111148333D01*
X154590326Y-111148333D02*
X154590326Y-111386428D01*
X154590326Y-111386428D02*
X154637945Y-111576904D01*
X154637945Y-111576904D02*
X154685564Y-111672142D01*
X154685564Y-111672142D02*
X154733183Y-111719761D01*
X154733183Y-111719761D02*
X154828421Y-111767380D01*
X154828421Y-111767380D02*
X154923659Y-111767380D01*
X154923659Y-111767380D02*
X155018897Y-111719761D01*
X155018897Y-111719761D02*
X155066516Y-111672142D01*
X155066516Y-111672142D02*
X155114135Y-111576904D01*
X155114135Y-111576904D02*
X155161754Y-111386428D01*
X155161754Y-111386428D02*
X155161754Y-111148333D01*
X155161754Y-111148333D02*
X155114135Y-110957857D01*
X155114135Y-110957857D02*
X155066516Y-110862619D01*
X155066516Y-110862619D02*
X155018897Y-110815000D01*
X155018897Y-110815000D02*
X154923659Y-110767380D01*
X154256992Y-110767380D02*
X153637945Y-110767380D01*
X153637945Y-110767380D02*
X153971278Y-111148333D01*
X153971278Y-111148333D02*
X153828421Y-111148333D01*
X153828421Y-111148333D02*
X153733183Y-111195952D01*
X153733183Y-111195952D02*
X153685564Y-111243571D01*
X153685564Y-111243571D02*
X153637945Y-111338809D01*
X153637945Y-111338809D02*
X153637945Y-111576904D01*
X153637945Y-111576904D02*
X153685564Y-111672142D01*
X153685564Y-111672142D02*
X153733183Y-111719761D01*
X153733183Y-111719761D02*
X153828421Y-111767380D01*
X153828421Y-111767380D02*
X154114135Y-111767380D01*
X154114135Y-111767380D02*
X154209373Y-111719761D01*
X154209373Y-111719761D02*
X154256992Y-111672142D01*
%TO.C,J4*%
X144937380Y-102566666D02*
X145651666Y-102566666D01*
X145651666Y-102566666D02*
X145794523Y-102519047D01*
X145794523Y-102519047D02*
X145889761Y-102423809D01*
X145889761Y-102423809D02*
X145937380Y-102280952D01*
X145937380Y-102280952D02*
X145937380Y-102185714D01*
X145270714Y-103471428D02*
X145937380Y-103471428D01*
X144889761Y-103233333D02*
X145604047Y-102995238D01*
X145604047Y-102995238D02*
X145604047Y-103614285D01*
%TO.C,X5*%
X147809523Y-137767380D02*
X147142857Y-138767380D01*
X147142857Y-137767380D02*
X147809523Y-138767380D01*
X146285714Y-137767380D02*
X146761904Y-137767380D01*
X146761904Y-137767380D02*
X146809523Y-138243571D01*
X146809523Y-138243571D02*
X146761904Y-138195952D01*
X146761904Y-138195952D02*
X146666666Y-138148333D01*
X146666666Y-138148333D02*
X146428571Y-138148333D01*
X146428571Y-138148333D02*
X146333333Y-138195952D01*
X146333333Y-138195952D02*
X146285714Y-138243571D01*
X146285714Y-138243571D02*
X146238095Y-138338809D01*
X146238095Y-138338809D02*
X146238095Y-138576904D01*
X146238095Y-138576904D02*
X146285714Y-138672142D01*
X146285714Y-138672142D02*
X146333333Y-138719761D01*
X146333333Y-138719761D02*
X146428571Y-138767380D01*
X146428571Y-138767380D02*
X146666666Y-138767380D01*
X146666666Y-138767380D02*
X146761904Y-138719761D01*
X146761904Y-138719761D02*
X146809523Y-138672142D01*
%TO.C,R101*%
X110619047Y-123367380D02*
X110952380Y-122891190D01*
X111190475Y-123367380D02*
X111190475Y-122367380D01*
X111190475Y-122367380D02*
X110809523Y-122367380D01*
X110809523Y-122367380D02*
X110714285Y-122415000D01*
X110714285Y-122415000D02*
X110666666Y-122462619D01*
X110666666Y-122462619D02*
X110619047Y-122557857D01*
X110619047Y-122557857D02*
X110619047Y-122700714D01*
X110619047Y-122700714D02*
X110666666Y-122795952D01*
X110666666Y-122795952D02*
X110714285Y-122843571D01*
X110714285Y-122843571D02*
X110809523Y-122891190D01*
X110809523Y-122891190D02*
X111190475Y-122891190D01*
X109666666Y-123367380D02*
X110238094Y-123367380D01*
X109952380Y-123367380D02*
X109952380Y-122367380D01*
X109952380Y-122367380D02*
X110047618Y-122510238D01*
X110047618Y-122510238D02*
X110142856Y-122605476D01*
X110142856Y-122605476D02*
X110238094Y-122653095D01*
X109047618Y-122367380D02*
X108952380Y-122367380D01*
X108952380Y-122367380D02*
X108857142Y-122415000D01*
X108857142Y-122415000D02*
X108809523Y-122462619D01*
X108809523Y-122462619D02*
X108761904Y-122557857D01*
X108761904Y-122557857D02*
X108714285Y-122748333D01*
X108714285Y-122748333D02*
X108714285Y-122986428D01*
X108714285Y-122986428D02*
X108761904Y-123176904D01*
X108761904Y-123176904D02*
X108809523Y-123272142D01*
X108809523Y-123272142D02*
X108857142Y-123319761D01*
X108857142Y-123319761D02*
X108952380Y-123367380D01*
X108952380Y-123367380D02*
X109047618Y-123367380D01*
X109047618Y-123367380D02*
X109142856Y-123319761D01*
X109142856Y-123319761D02*
X109190475Y-123272142D01*
X109190475Y-123272142D02*
X109238094Y-123176904D01*
X109238094Y-123176904D02*
X109285713Y-122986428D01*
X109285713Y-122986428D02*
X109285713Y-122748333D01*
X109285713Y-122748333D02*
X109238094Y-122557857D01*
X109238094Y-122557857D02*
X109190475Y-122462619D01*
X109190475Y-122462619D02*
X109142856Y-122415000D01*
X109142856Y-122415000D02*
X109047618Y-122367380D01*
X107761904Y-123367380D02*
X108333332Y-123367380D01*
X108047618Y-123367380D02*
X108047618Y-122367380D01*
X108047618Y-122367380D02*
X108142856Y-122510238D01*
X108142856Y-122510238D02*
X108238094Y-122605476D01*
X108238094Y-122605476D02*
X108333332Y-122653095D01*
%TO.C,X2*%
X93309523Y-137867380D02*
X92642857Y-138867380D01*
X92642857Y-137867380D02*
X93309523Y-138867380D01*
X92309523Y-137962619D02*
X92261904Y-137915000D01*
X92261904Y-137915000D02*
X92166666Y-137867380D01*
X92166666Y-137867380D02*
X91928571Y-137867380D01*
X91928571Y-137867380D02*
X91833333Y-137915000D01*
X91833333Y-137915000D02*
X91785714Y-137962619D01*
X91785714Y-137962619D02*
X91738095Y-138057857D01*
X91738095Y-138057857D02*
X91738095Y-138153095D01*
X91738095Y-138153095D02*
X91785714Y-138295952D01*
X91785714Y-138295952D02*
X92357142Y-138867380D01*
X92357142Y-138867380D02*
X91738095Y-138867380D01*
D11*
%TO.C,C17*%
X99198000Y-88911000D02*
X100802000Y-88911000D01*
X101040000Y-87471000D02*
X102742000Y-87471000D01*
X98166000Y-88431000D02*
X101834000Y-88431000D01*
X101040000Y-86350000D02*
X103175000Y-86350000D01*
X98738000Y-88751000D02*
X101262000Y-88751000D01*
X101040000Y-86551000D02*
X103131000Y-86551000D01*
X101040000Y-87951000D02*
X102380000Y-87951000D01*
X96879000Y-86591000D02*
X98960000Y-86591000D01*
X101040000Y-86270000D02*
X103189000Y-86270000D01*
X101040000Y-86190000D02*
X103201000Y-86190000D01*
X97188000Y-87351000D02*
X98960000Y-87351000D01*
X98941000Y-88831000D02*
X101059000Y-88831000D01*
X97336000Y-87591000D02*
X98960000Y-87591000D01*
X97776000Y-88111000D02*
X102224000Y-88111000D01*
X96772000Y-85870000D02*
X103228000Y-85870000D01*
X96785000Y-86070000D02*
X98960000Y-86070000D01*
X97210000Y-87391000D02*
X98960000Y-87391000D01*
X101040000Y-86791000D02*
X103061000Y-86791000D01*
X101040000Y-86751000D02*
X103074000Y-86751000D01*
X96770000Y-85830000D02*
X103230000Y-85830000D01*
X97956000Y-88271000D02*
X102044000Y-88271000D01*
X96850000Y-86471000D02*
X98960000Y-86471000D01*
X101040000Y-87991000D02*
X102343000Y-87991000D01*
X96833000Y-86390000D02*
X98960000Y-86390000D01*
X101040000Y-86030000D02*
X103218000Y-86030000D01*
X96998000Y-86951000D02*
X98960000Y-86951000D01*
X97066000Y-87111000D02*
X98960000Y-87111000D01*
X96841000Y-86430000D02*
X98960000Y-86430000D01*
X101040000Y-87631000D02*
X102636000Y-87631000D01*
X97863000Y-88191000D02*
X102137000Y-88191000D01*
X97104000Y-87191000D02*
X98960000Y-87191000D01*
X97422000Y-87711000D02*
X98960000Y-87711000D01*
X101040000Y-87511000D02*
X102716000Y-87511000D01*
X101040000Y-86110000D02*
X103211000Y-86110000D01*
X101040000Y-86951000D02*
X103002000Y-86951000D01*
X96811000Y-86270000D02*
X98960000Y-86270000D01*
X101040000Y-86911000D02*
X103018000Y-86911000D01*
X101040000Y-87911000D02*
X102416000Y-87911000D01*
X97364000Y-87631000D02*
X98960000Y-87631000D01*
X97284000Y-87511000D02*
X98960000Y-87511000D01*
X101040000Y-85990000D02*
X103222000Y-85990000D01*
X101040000Y-87271000D02*
X102856000Y-87271000D01*
X96794000Y-86150000D02*
X98960000Y-86150000D01*
X101040000Y-86150000D02*
X103206000Y-86150000D01*
X101040000Y-87191000D02*
X102896000Y-87191000D01*
X97620000Y-87951000D02*
X98960000Y-87951000D01*
X99367000Y-88951000D02*
X100633000Y-88951000D01*
X98568000Y-88671000D02*
X101432000Y-88671000D01*
X97048000Y-87071000D02*
X98960000Y-87071000D01*
X101040000Y-87351000D02*
X102812000Y-87351000D01*
X97452000Y-87751000D02*
X98960000Y-87751000D01*
X99060000Y-88871000D02*
X100940000Y-88871000D01*
X97144000Y-87271000D02*
X98960000Y-87271000D01*
X98110000Y-88391000D02*
X101890000Y-88391000D01*
X96776000Y-85950000D02*
X103224000Y-85950000D01*
X97484000Y-87791000D02*
X98960000Y-87791000D01*
X101040000Y-87111000D02*
X102934000Y-87111000D01*
X101040000Y-86591000D02*
X103121000Y-86591000D01*
X96789000Y-86110000D02*
X98960000Y-86110000D01*
X101040000Y-87551000D02*
X102690000Y-87551000D01*
X101040000Y-87151000D02*
X102916000Y-87151000D01*
X98650000Y-88711000D02*
X101350000Y-88711000D01*
X97657000Y-87991000D02*
X98960000Y-87991000D01*
X96818000Y-86310000D02*
X98960000Y-86310000D01*
X96825000Y-86350000D02*
X98960000Y-86350000D01*
X97084000Y-87151000D02*
X98960000Y-87151000D01*
X101040000Y-86671000D02*
X103098000Y-86671000D01*
X97234000Y-87431000D02*
X98960000Y-87431000D01*
X97258000Y-87471000D02*
X98960000Y-87471000D01*
X101040000Y-86991000D02*
X102986000Y-86991000D01*
X96869000Y-86551000D02*
X98960000Y-86551000D01*
X101040000Y-87751000D02*
X102548000Y-87751000D01*
X101040000Y-86631000D02*
X103110000Y-86631000D01*
X101040000Y-86310000D02*
X103182000Y-86310000D01*
X101040000Y-86511000D02*
X103141000Y-86511000D01*
X101040000Y-87591000D02*
X102664000Y-87591000D01*
X101040000Y-87031000D02*
X102970000Y-87031000D01*
X98224000Y-88471000D02*
X101776000Y-88471000D01*
X101040000Y-86430000D02*
X103159000Y-86430000D01*
X101040000Y-86471000D02*
X103150000Y-86471000D01*
X97550000Y-87871000D02*
X98960000Y-87871000D01*
X98005000Y-88311000D02*
X101995000Y-88311000D01*
X96967000Y-86871000D02*
X98960000Y-86871000D01*
X101040000Y-87311000D02*
X102834000Y-87311000D01*
X96799000Y-86190000D02*
X98960000Y-86190000D01*
X101040000Y-87871000D02*
X102450000Y-87871000D01*
X96859000Y-86511000D02*
X98960000Y-86511000D01*
X101040000Y-86711000D02*
X103086000Y-86711000D01*
X101040000Y-86831000D02*
X103047000Y-86831000D01*
X96926000Y-86751000D02*
X98960000Y-86751000D01*
X101040000Y-86230000D02*
X103195000Y-86230000D01*
X96890000Y-86631000D02*
X98960000Y-86631000D01*
X96778000Y-85990000D02*
X98960000Y-85990000D01*
X101040000Y-87831000D02*
X102484000Y-87831000D01*
X101040000Y-87711000D02*
X102578000Y-87711000D01*
X96782000Y-86030000D02*
X98960000Y-86030000D01*
X97393000Y-87671000D02*
X98960000Y-87671000D01*
X97310000Y-87551000D02*
X98960000Y-87551000D01*
X96770000Y-85790000D02*
X103230000Y-85790000D01*
X97695000Y-88031000D02*
X98960000Y-88031000D01*
X96770000Y-85750000D02*
X103230000Y-85750000D01*
X98161000Y-82249759D02*
X98161000Y-82879759D01*
X101040000Y-87391000D02*
X102790000Y-87391000D01*
X101040000Y-87231000D02*
X102876000Y-87231000D01*
X98286000Y-88511000D02*
X101714000Y-88511000D01*
X96982000Y-86911000D02*
X98960000Y-86911000D01*
X96939000Y-86791000D02*
X98960000Y-86791000D01*
X101040000Y-87071000D02*
X102952000Y-87071000D01*
X97584000Y-87911000D02*
X98960000Y-87911000D01*
X96805000Y-86230000D02*
X98960000Y-86230000D01*
X101040000Y-86390000D02*
X103167000Y-86390000D01*
X101040000Y-88031000D02*
X102305000Y-88031000D01*
X101040000Y-87671000D02*
X102607000Y-87671000D01*
X101040000Y-86070000D02*
X103215000Y-86070000D01*
X98835000Y-88791000D02*
X101165000Y-88791000D01*
X98350000Y-88551000D02*
X101650000Y-88551000D01*
X101040000Y-87791000D02*
X102516000Y-87791000D01*
X96914000Y-86711000D02*
X98960000Y-86711000D01*
X97818000Y-88151000D02*
X102182000Y-88151000D01*
X96902000Y-86671000D02*
X98960000Y-86671000D01*
X97014000Y-86991000D02*
X98960000Y-86991000D01*
X97124000Y-87231000D02*
X98960000Y-87231000D01*
X96953000Y-86831000D02*
X98960000Y-86831000D01*
X98419000Y-88591000D02*
X101581000Y-88591000D01*
X97735000Y-88071000D02*
X102265000Y-88071000D01*
X98056000Y-88351000D02*
X101944000Y-88351000D01*
X96773000Y-85910000D02*
X103227000Y-85910000D01*
X97516000Y-87831000D02*
X98960000Y-87831000D01*
X97846000Y-82564759D02*
X98476000Y-82564759D01*
X98491000Y-88631000D02*
X101509000Y-88631000D01*
X101040000Y-87431000D02*
X102766000Y-87431000D01*
X99598000Y-88991000D02*
X100402000Y-88991000D01*
X97166000Y-87311000D02*
X98960000Y-87311000D01*
X97030000Y-87031000D02*
X98960000Y-87031000D01*
X101040000Y-86871000D02*
X103033000Y-86871000D01*
X97908000Y-88231000D02*
X102092000Y-88231000D01*
X103270000Y-85750000D02*
G75*
G03*
X103270000Y-85750000I-3270000J0D01*
G01*
%TO.C,J3*%
X112700000Y-97650000D02*
X112700000Y-97150000D01*
X106500000Y-97150000D02*
X106500000Y-97650000D01*
X114500000Y-97150000D02*
X114500000Y-97650000D01*
X117960000Y-93240000D02*
X117960000Y-94490000D01*
X108600000Y-97650000D02*
X108600000Y-97150000D01*
X110600000Y-97650000D02*
X110600000Y-97150000D01*
X106700000Y-97150000D02*
X106500000Y-97150000D01*
X106100000Y-94150000D02*
X106100000Y-93540000D01*
X115100000Y-94150000D02*
X117050000Y-94150000D01*
X104150000Y-94150000D02*
X106100000Y-94150000D01*
X117050000Y-97650000D02*
X104150000Y-97650000D01*
X103540000Y-98260000D02*
X103540000Y-93540000D01*
X103540000Y-96150000D02*
X104150000Y-96150000D01*
X115900000Y-93340000D02*
X116200000Y-93340000D01*
X114700000Y-97650000D02*
X114700000Y-97150000D01*
X112500000Y-97150000D02*
X112500000Y-97650000D01*
X114700000Y-97150000D02*
X114500000Y-97150000D01*
X117050000Y-94150000D02*
X117050000Y-97650000D01*
X110500000Y-97150000D02*
X110500000Y-97650000D01*
X104150000Y-97650000D02*
X104150000Y-94150000D01*
X103540000Y-93540000D02*
X117660000Y-93540000D01*
X115900000Y-93540000D02*
X115900000Y-93340000D01*
X115900000Y-93440000D02*
X116200000Y-93440000D01*
X106600000Y-97650000D02*
X106600000Y-97150000D01*
X110700000Y-97650000D02*
X110700000Y-97150000D01*
X117660000Y-98260000D02*
X103540000Y-98260000D01*
X116710000Y-93240000D02*
X117960000Y-93240000D01*
X116200000Y-93340000D02*
X116200000Y-93540000D01*
X112600000Y-97650000D02*
X112600000Y-97150000D01*
X112700000Y-97150000D02*
X112500000Y-97150000D01*
X106700000Y-97650000D02*
X106700000Y-97150000D01*
X114600000Y-97650000D02*
X114600000Y-97150000D01*
X117660000Y-94850000D02*
X117050000Y-94850000D01*
X108700000Y-97650000D02*
X108700000Y-97150000D01*
X103540000Y-94850000D02*
X104150000Y-94850000D01*
X115100000Y-93540000D02*
X115100000Y-94150000D01*
X117660000Y-96150000D02*
X117050000Y-96150000D01*
X110700000Y-97150000D02*
X110500000Y-97150000D01*
X117660000Y-93540000D02*
X117660000Y-98260000D01*
X108700000Y-97150000D02*
X108500000Y-97150000D01*
X108500000Y-97150000D02*
X108500000Y-97650000D01*
%TO.C,J2*%
X114600000Y-81750000D02*
X114600000Y-81250000D01*
X118500000Y-81250000D02*
X118500000Y-81750000D01*
X111440000Y-80640000D02*
X125560000Y-80640000D01*
X125560000Y-85360000D02*
X111440000Y-85360000D01*
X116500000Y-81250000D02*
X116500000Y-81750000D01*
X125560000Y-84050000D02*
X124950000Y-84050000D01*
X125560000Y-82750000D02*
X124950000Y-82750000D01*
X111440000Y-82750000D02*
X112050000Y-82750000D01*
X124950000Y-81250000D02*
X124950000Y-84750000D01*
X118600000Y-81750000D02*
X118600000Y-81250000D01*
X111440000Y-85360000D02*
X111440000Y-80640000D01*
X120600000Y-81750000D02*
X120600000Y-81250000D01*
X112900000Y-85560000D02*
X112900000Y-85360000D01*
X112050000Y-84750000D02*
X112050000Y-81250000D01*
X122600000Y-81750000D02*
X122600000Y-81250000D01*
X112050000Y-81250000D02*
X124950000Y-81250000D01*
X112390000Y-85660000D02*
X111140000Y-85660000D01*
X114000000Y-84750000D02*
X112050000Y-84750000D01*
X113200000Y-85360000D02*
X113200000Y-85560000D01*
X125560000Y-80640000D02*
X125560000Y-85360000D01*
X114400000Y-81250000D02*
X114400000Y-81750000D01*
X116400000Y-81250000D02*
X116400000Y-81750000D01*
X114400000Y-81750000D02*
X114600000Y-81750000D01*
X120500000Y-81250000D02*
X120500000Y-81750000D01*
X113200000Y-85460000D02*
X112900000Y-85460000D01*
X120400000Y-81750000D02*
X120600000Y-81750000D01*
X116400000Y-81750000D02*
X116600000Y-81750000D01*
X120400000Y-81250000D02*
X120400000Y-81750000D01*
X122400000Y-81250000D02*
X122400000Y-81750000D01*
X111440000Y-84050000D02*
X112050000Y-84050000D01*
X116600000Y-81750000D02*
X116600000Y-81250000D01*
X124950000Y-84750000D02*
X123000000Y-84750000D01*
X114500000Y-81250000D02*
X114500000Y-81750000D01*
X122500000Y-81250000D02*
X122500000Y-81750000D01*
X114000000Y-85360000D02*
X114000000Y-84750000D01*
X118400000Y-81750000D02*
X118600000Y-81750000D01*
X113200000Y-85560000D02*
X112900000Y-85560000D01*
X122400000Y-81750000D02*
X122600000Y-81750000D01*
X123000000Y-84750000D02*
X123000000Y-85360000D01*
X111140000Y-85660000D02*
X111140000Y-84410000D01*
X118400000Y-81250000D02*
X118400000Y-81750000D01*
%TO.C,C101*%
X93619000Y-108090000D02*
X93619000Y-112910000D01*
X97059000Y-111940000D02*
X97059000Y-116345000D01*
X96539000Y-104899000D02*
X96539000Y-109060000D01*
X98019000Y-111940000D02*
X98019000Y-116656000D01*
X98179000Y-104308000D02*
X98179000Y-109060000D01*
X98139000Y-104316000D02*
X98139000Y-109060000D01*
X95499000Y-105582000D02*
X95499000Y-115418000D01*
X97699000Y-104429000D02*
X97699000Y-109060000D01*
X96859000Y-111940000D02*
X96859000Y-116258000D01*
X96819000Y-104761000D02*
X96819000Y-109060000D01*
X95979000Y-111940000D02*
X95979000Y-115770000D01*
X98059000Y-111940000D02*
X98059000Y-116666000D01*
X96179000Y-105103000D02*
X96179000Y-109060000D01*
X94659000Y-106398000D02*
X94659000Y-114602000D01*
X96059000Y-105178000D02*
X96059000Y-109060000D01*
X95699000Y-111940000D02*
X95699000Y-115573000D01*
X95819000Y-105340000D02*
X95819000Y-109060000D01*
X98259000Y-104291000D02*
X98259000Y-109060000D01*
X99420000Y-104170000D02*
X99420000Y-116830000D01*
X95619000Y-105488000D02*
X95619000Y-109060000D01*
X98299000Y-111940000D02*
X98299000Y-116716000D01*
X97019000Y-104672000D02*
X97019000Y-109060000D01*
X97259000Y-104576000D02*
X97259000Y-109060000D01*
X96259000Y-105055000D02*
X96259000Y-109060000D01*
X97339000Y-111940000D02*
X97339000Y-116453000D01*
X94619000Y-106445000D02*
X94619000Y-114555000D01*
X93939000Y-107431000D02*
X93939000Y-113569000D01*
X94299000Y-106860000D02*
X94299000Y-114140000D01*
X95939000Y-111940000D02*
X95939000Y-115743000D01*
X96819000Y-111940000D02*
X96819000Y-116239000D01*
X98019000Y-104344000D02*
X98019000Y-109060000D01*
X99220000Y-104176000D02*
X99220000Y-116824000D01*
X99340000Y-104172000D02*
X99340000Y-116828000D01*
X97339000Y-104547000D02*
X97339000Y-109060000D01*
X98099000Y-111940000D02*
X98099000Y-116675000D01*
X95859000Y-105312000D02*
X95859000Y-109060000D01*
X97659000Y-104441000D02*
X97659000Y-109060000D01*
X98099000Y-104325000D02*
X98099000Y-109060000D01*
X96379000Y-104986000D02*
X96379000Y-109060000D01*
X97419000Y-104519000D02*
X97419000Y-109060000D01*
X95659000Y-105457000D02*
X95659000Y-109060000D01*
X98219000Y-111940000D02*
X98219000Y-116701000D01*
X94099000Y-107161000D02*
X94099000Y-113839000D01*
X93899000Y-107504000D02*
X93899000Y-113496000D01*
X98339000Y-111940000D02*
X98339000Y-116724000D01*
X96219000Y-105079000D02*
X96219000Y-109060000D01*
X96659000Y-111940000D02*
X96659000Y-116162000D01*
X96459000Y-104942000D02*
X96459000Y-109060000D01*
X105692082Y-106300000D02*
X105692082Y-107550000D01*
X96299000Y-111940000D02*
X96299000Y-115968000D01*
X96939000Y-111940000D02*
X96939000Y-116293000D01*
X93699000Y-107906000D02*
X93699000Y-113094000D01*
X99260000Y-104174000D02*
X99260000Y-116826000D01*
X98739000Y-104215000D02*
X98739000Y-116785000D01*
X97299000Y-111940000D02*
X97299000Y-116439000D01*
X93139000Y-110183000D02*
X93139000Y-110817000D01*
X96459000Y-111940000D02*
X96459000Y-116058000D01*
X95099000Y-105933000D02*
X95099000Y-115067000D01*
X96739000Y-104798000D02*
X96739000Y-109060000D01*
X93179000Y-109743000D02*
X93179000Y-111257000D01*
X95379000Y-105681000D02*
X95379000Y-115319000D01*
X97739000Y-111940000D02*
X97739000Y-116583000D01*
X96499000Y-111940000D02*
X96499000Y-116080000D01*
X93659000Y-107996000D02*
X93659000Y-113004000D01*
X95419000Y-105648000D02*
X95419000Y-115352000D01*
X96899000Y-111940000D02*
X96899000Y-116276000D01*
X95659000Y-111940000D02*
X95659000Y-115543000D01*
X94019000Y-107292000D02*
X94019000Y-113708000D01*
X97379000Y-111940000D02*
X97379000Y-116467000D01*
X93859000Y-107579000D02*
X93859000Y-113421000D01*
X95819000Y-111940000D02*
X95819000Y-115660000D01*
X95899000Y-105284000D02*
X95899000Y-109060000D01*
X97179000Y-104607000D02*
X97179000Y-109060000D01*
X94579000Y-106493000D02*
X94579000Y-114507000D01*
X97859000Y-111940000D02*
X97859000Y-116616000D01*
X94819000Y-106218000D02*
X94819000Y-114782000D01*
X97859000Y-104384000D02*
X97859000Y-109060000D01*
X99140000Y-104180000D02*
X99140000Y-116820000D01*
X95939000Y-105257000D02*
X95939000Y-109060000D01*
X95899000Y-111940000D02*
X95899000Y-115716000D01*
X99100000Y-104182000D02*
X99100000Y-116818000D01*
X97699000Y-111940000D02*
X97699000Y-116571000D01*
X96299000Y-105032000D02*
X96299000Y-109060000D01*
X97219000Y-104592000D02*
X97219000Y-109060000D01*
X106317082Y-106925000D02*
X105067082Y-106925000D01*
X98059000Y-104334000D02*
X98059000Y-109060000D01*
X95019000Y-106011000D02*
X95019000Y-114989000D01*
X97299000Y-104561000D02*
X97299000Y-109060000D01*
X98499000Y-104248000D02*
X98499000Y-116752000D01*
X93299000Y-109078000D02*
X93299000Y-111922000D01*
X93579000Y-108188000D02*
X93579000Y-112812000D01*
X98339000Y-104276000D02*
X98339000Y-109060000D01*
X94499000Y-106593000D02*
X94499000Y-114407000D01*
X98419000Y-104262000D02*
X98419000Y-109060000D01*
X96779000Y-111940000D02*
X96779000Y-116221000D01*
X97659000Y-111940000D02*
X97659000Y-116559000D01*
X93979000Y-107360000D02*
X93979000Y-113640000D01*
X96539000Y-111940000D02*
X96539000Y-116101000D01*
X94739000Y-106306000D02*
X94739000Y-114694000D01*
X97499000Y-104492000D02*
X97499000Y-109060000D01*
X95139000Y-105895000D02*
X95139000Y-115105000D01*
X98820000Y-104206000D02*
X98820000Y-116794000D01*
X97259000Y-111940000D02*
X97259000Y-116424000D01*
X93219000Y-109472000D02*
X93219000Y-111528000D01*
X96899000Y-104724000D02*
X96899000Y-109060000D01*
X96419000Y-104964000D02*
X96419000Y-109060000D01*
X96739000Y-111940000D02*
X96739000Y-116202000D01*
X98459000Y-104255000D02*
X98459000Y-116745000D01*
X93819000Y-107656000D02*
X93819000Y-113344000D01*
X94699000Y-106352000D02*
X94699000Y-114648000D01*
X97379000Y-104533000D02*
X97379000Y-109060000D01*
X98900000Y-104198000D02*
X98900000Y-116802000D01*
X97779000Y-111940000D02*
X97779000Y-116594000D01*
X97819000Y-104395000D02*
X97819000Y-109060000D01*
X94859000Y-106175000D02*
X94859000Y-114825000D01*
X97099000Y-104639000D02*
X97099000Y-109060000D01*
X96619000Y-111940000D02*
X96619000Y-116142000D01*
X94779000Y-106262000D02*
X94779000Y-114738000D01*
X96019000Y-105204000D02*
X96019000Y-109060000D01*
X97979000Y-104354000D02*
X97979000Y-109060000D01*
X94419000Y-106696000D02*
X94419000Y-114304000D01*
X97939000Y-111940000D02*
X97939000Y-116637000D01*
X97539000Y-104479000D02*
X97539000Y-109060000D01*
X98139000Y-111940000D02*
X98139000Y-116684000D01*
X93339000Y-108917000D02*
X93339000Y-112083000D01*
X97539000Y-111940000D02*
X97539000Y-116521000D01*
X95739000Y-105398000D02*
X95739000Y-109060000D01*
X97979000Y-111940000D02*
X97979000Y-116646000D01*
X98379000Y-111940000D02*
X98379000Y-116731000D01*
X94539000Y-106543000D02*
X94539000Y-114457000D01*
X97579000Y-111940000D02*
X97579000Y-116534000D01*
X96339000Y-105009000D02*
X96339000Y-109060000D01*
X93259000Y-109259000D02*
X93259000Y-111741000D01*
X99460000Y-104170000D02*
X99460000Y-116830000D01*
X97499000Y-111940000D02*
X97499000Y-116508000D01*
X93499000Y-108400000D02*
X93499000Y-112600000D01*
X96099000Y-105153000D02*
X96099000Y-109060000D01*
X99020000Y-104188000D02*
X99020000Y-116812000D01*
X94219000Y-106976000D02*
X94219000Y-114024000D01*
X99380000Y-104171000D02*
X99380000Y-116829000D01*
X96979000Y-104689000D02*
X96979000Y-109060000D01*
X97019000Y-111940000D02*
X97019000Y-116328000D01*
X96579000Y-104878000D02*
X96579000Y-109060000D01*
X95539000Y-105550000D02*
X95539000Y-115450000D01*
X95259000Y-105786000D02*
X95259000Y-115214000D01*
X94899000Y-106133000D02*
X94899000Y-114867000D01*
X95219000Y-105822000D02*
X95219000Y-115178000D01*
X94979000Y-106051000D02*
X94979000Y-114949000D01*
X98619000Y-104231000D02*
X98619000Y-116769000D01*
X96339000Y-111940000D02*
X96339000Y-115991000D01*
X94459000Y-106644000D02*
X94459000Y-114356000D01*
X96619000Y-104858000D02*
X96619000Y-109060000D01*
X98379000Y-104269000D02*
X98379000Y-109060000D01*
X99500000Y-104170000D02*
X99500000Y-116830000D01*
X98419000Y-111940000D02*
X98419000Y-116738000D01*
X96179000Y-111940000D02*
X96179000Y-115897000D01*
X97099000Y-111940000D02*
X97099000Y-116361000D01*
X93459000Y-108516000D02*
X93459000Y-112484000D01*
X96139000Y-111940000D02*
X96139000Y-115872000D01*
X96939000Y-104707000D02*
X96939000Y-109060000D01*
X97819000Y-111940000D02*
X97819000Y-116605000D01*
X93379000Y-108772000D02*
X93379000Y-112228000D01*
X96379000Y-111940000D02*
X96379000Y-116014000D01*
X93419000Y-108639000D02*
X93419000Y-112361000D01*
X97139000Y-104623000D02*
X97139000Y-109060000D01*
X98179000Y-111940000D02*
X98179000Y-116692000D01*
X98860000Y-104202000D02*
X98860000Y-116798000D01*
X96979000Y-111940000D02*
X96979000Y-116311000D01*
X95619000Y-111940000D02*
X95619000Y-115512000D01*
X97779000Y-104406000D02*
X97779000Y-109060000D01*
X98299000Y-104284000D02*
X98299000Y-109060000D01*
X95779000Y-111940000D02*
X95779000Y-115631000D01*
X93539000Y-108291000D02*
X93539000Y-112709000D01*
X98779000Y-104210000D02*
X98779000Y-116790000D01*
X97739000Y-104417000D02*
X97739000Y-109060000D01*
X96499000Y-104920000D02*
X96499000Y-109060000D01*
X95059000Y-105972000D02*
X95059000Y-115028000D01*
X94939000Y-106092000D02*
X94939000Y-114908000D01*
X95779000Y-105369000D02*
X95779000Y-109060000D01*
X96419000Y-111940000D02*
X96419000Y-116036000D01*
X96099000Y-111940000D02*
X96099000Y-115847000D01*
X97899000Y-111940000D02*
X97899000Y-116626000D01*
X93779000Y-107736000D02*
X93779000Y-113264000D01*
X96059000Y-111940000D02*
X96059000Y-115822000D01*
X96019000Y-111940000D02*
X96019000Y-115796000D01*
X97419000Y-111940000D02*
X97419000Y-116481000D01*
X94059000Y-107225000D02*
X94059000Y-113775000D01*
X98259000Y-111940000D02*
X98259000Y-116709000D01*
X98980000Y-104191000D02*
X98980000Y-116809000D01*
X99300000Y-104173000D02*
X99300000Y-116827000D01*
X97219000Y-111940000D02*
X97219000Y-116408000D01*
X97619000Y-111940000D02*
X97619000Y-116547000D01*
X94139000Y-107098000D02*
X94139000Y-113902000D01*
X96579000Y-111940000D02*
X96579000Y-116122000D01*
X96259000Y-111940000D02*
X96259000Y-115945000D01*
X97139000Y-111940000D02*
X97139000Y-116377000D01*
X97459000Y-111940000D02*
X97459000Y-116495000D01*
X98940000Y-104194000D02*
X98940000Y-116806000D01*
X95459000Y-105615000D02*
X95459000Y-115385000D01*
X95739000Y-111940000D02*
X95739000Y-115602000D01*
X95179000Y-105858000D02*
X95179000Y-115142000D01*
X97939000Y-104363000D02*
X97939000Y-109060000D01*
X95579000Y-111940000D02*
X95579000Y-115482000D01*
X95859000Y-111940000D02*
X95859000Y-115688000D01*
X94259000Y-106917000D02*
X94259000Y-114083000D01*
X98579000Y-104236000D02*
X98579000Y-116764000D01*
X96779000Y-104779000D02*
X96779000Y-109060000D01*
X97179000Y-111940000D02*
X97179000Y-116393000D01*
X99180000Y-104178000D02*
X99180000Y-116822000D01*
X93739000Y-107819000D02*
X93739000Y-113181000D01*
X97619000Y-104453000D02*
X97619000Y-109060000D01*
X97459000Y-104505000D02*
X97459000Y-109060000D01*
X95339000Y-105715000D02*
X95339000Y-115285000D01*
X95979000Y-105230000D02*
X95979000Y-109060000D01*
X97059000Y-104655000D02*
X97059000Y-109060000D01*
X94379000Y-106750000D02*
X94379000Y-114250000D01*
X95699000Y-105427000D02*
X95699000Y-109060000D01*
X94179000Y-107036000D02*
X94179000Y-113964000D01*
X99060000Y-104185000D02*
X99060000Y-116815000D01*
X96699000Y-111940000D02*
X96699000Y-116182000D01*
X95299000Y-105750000D02*
X95299000Y-115250000D01*
X98219000Y-104299000D02*
X98219000Y-109060000D01*
X96139000Y-105128000D02*
X96139000Y-109060000D01*
X94339000Y-106804000D02*
X94339000Y-114196000D01*
X98539000Y-104242000D02*
X98539000Y-116758000D01*
X96699000Y-104818000D02*
X96699000Y-109060000D01*
X96859000Y-104742000D02*
X96859000Y-109060000D01*
X98699000Y-104220000D02*
X98699000Y-116780000D01*
X96219000Y-111940000D02*
X96219000Y-115921000D01*
X98659000Y-104225000D02*
X98659000Y-116775000D01*
X96659000Y-104838000D02*
X96659000Y-109060000D01*
X95579000Y-105518000D02*
X95579000Y-109060000D01*
X97899000Y-104374000D02*
X97899000Y-109060000D01*
X97579000Y-104466000D02*
X97579000Y-109060000D01*
X105870000Y-110500000D02*
G75*
G03*
X105870000Y-110500000I-6370000J0D01*
G01*
%TO.C,C102*%
X130260000Y-104174000D02*
X130260000Y-116826000D01*
X126299000Y-105750000D02*
X126299000Y-115250000D01*
X128419000Y-111940000D02*
X128419000Y-116481000D01*
X128259000Y-104576000D02*
X128259000Y-109060000D01*
X127499000Y-111940000D02*
X127499000Y-116080000D01*
X128099000Y-104639000D02*
X128099000Y-109060000D01*
X126739000Y-105398000D02*
X126739000Y-109060000D01*
X124979000Y-107360000D02*
X124979000Y-113640000D01*
X129739000Y-104215000D02*
X129739000Y-116785000D01*
X127859000Y-104742000D02*
X127859000Y-109060000D01*
X125379000Y-106750000D02*
X125379000Y-114250000D01*
X125059000Y-107225000D02*
X125059000Y-113775000D01*
X128979000Y-111940000D02*
X128979000Y-116646000D01*
X128659000Y-104441000D02*
X128659000Y-109060000D01*
X125939000Y-106092000D02*
X125939000Y-114908000D01*
X130140000Y-104180000D02*
X130140000Y-116820000D01*
X129419000Y-111940000D02*
X129419000Y-116738000D01*
X129259000Y-111940000D02*
X129259000Y-116709000D01*
X128539000Y-111940000D02*
X128539000Y-116521000D01*
X129099000Y-111940000D02*
X129099000Y-116675000D01*
X128899000Y-104374000D02*
X128899000Y-109060000D01*
X127619000Y-111940000D02*
X127619000Y-116142000D01*
X128899000Y-111940000D02*
X128899000Y-116626000D01*
X129139000Y-104316000D02*
X129139000Y-109060000D01*
X127579000Y-111940000D02*
X127579000Y-116122000D01*
X127619000Y-104858000D02*
X127619000Y-109060000D01*
X126539000Y-105550000D02*
X126539000Y-115450000D01*
X126819000Y-111940000D02*
X126819000Y-115660000D01*
X128379000Y-111940000D02*
X128379000Y-116467000D01*
X127259000Y-105055000D02*
X127259000Y-109060000D01*
X128739000Y-111940000D02*
X128739000Y-116583000D01*
X129219000Y-104299000D02*
X129219000Y-109060000D01*
X125819000Y-106218000D02*
X125819000Y-114782000D01*
X129779000Y-104210000D02*
X129779000Y-116790000D01*
X127899000Y-104724000D02*
X127899000Y-109060000D01*
X128939000Y-111940000D02*
X128939000Y-116637000D01*
X126659000Y-105457000D02*
X126659000Y-109060000D01*
X127179000Y-111940000D02*
X127179000Y-115897000D01*
X129820000Y-104206000D02*
X129820000Y-116794000D01*
X127219000Y-111940000D02*
X127219000Y-115921000D01*
X129860000Y-104202000D02*
X129860000Y-116798000D01*
X127419000Y-104964000D02*
X127419000Y-109060000D01*
X125299000Y-106860000D02*
X125299000Y-114140000D01*
X128459000Y-104505000D02*
X128459000Y-109060000D01*
X125859000Y-106175000D02*
X125859000Y-114825000D01*
X127379000Y-104986000D02*
X127379000Y-109060000D01*
X126779000Y-111940000D02*
X126779000Y-115631000D01*
X130460000Y-104170000D02*
X130460000Y-116830000D01*
X125139000Y-107098000D02*
X125139000Y-113902000D01*
X126939000Y-111940000D02*
X126939000Y-115743000D01*
X130500000Y-104170000D02*
X130500000Y-116830000D01*
X129900000Y-104198000D02*
X129900000Y-116802000D01*
X129339000Y-104276000D02*
X129339000Y-109060000D01*
X126619000Y-105488000D02*
X126619000Y-109060000D01*
X124939000Y-107431000D02*
X124939000Y-113569000D01*
X129539000Y-104242000D02*
X129539000Y-116758000D01*
X127139000Y-105128000D02*
X127139000Y-109060000D01*
X128819000Y-111940000D02*
X128819000Y-116605000D01*
X125659000Y-106398000D02*
X125659000Y-114602000D01*
X129299000Y-111940000D02*
X129299000Y-116716000D01*
X128419000Y-104519000D02*
X128419000Y-109060000D01*
X128579000Y-104466000D02*
X128579000Y-109060000D01*
X128819000Y-104395000D02*
X128819000Y-109060000D01*
X129179000Y-111940000D02*
X129179000Y-116692000D01*
X126859000Y-111940000D02*
X126859000Y-115688000D01*
X125099000Y-107161000D02*
X125099000Y-113839000D01*
X125539000Y-106543000D02*
X125539000Y-114457000D01*
X127659000Y-104838000D02*
X127659000Y-109060000D01*
X128699000Y-104429000D02*
X128699000Y-109060000D01*
X127819000Y-111940000D02*
X127819000Y-116239000D01*
X124899000Y-107504000D02*
X124899000Y-113496000D01*
X130100000Y-104182000D02*
X130100000Y-116818000D01*
X127939000Y-111940000D02*
X127939000Y-116293000D01*
X129419000Y-104262000D02*
X129419000Y-109060000D01*
X126699000Y-111940000D02*
X126699000Y-115573000D01*
X130380000Y-104171000D02*
X130380000Y-116829000D01*
X127779000Y-111940000D02*
X127779000Y-116221000D01*
X128259000Y-111940000D02*
X128259000Y-116424000D01*
X126259000Y-105786000D02*
X126259000Y-115214000D01*
X129019000Y-104344000D02*
X129019000Y-109060000D01*
X126019000Y-106011000D02*
X126019000Y-114989000D01*
X130300000Y-104173000D02*
X130300000Y-116827000D01*
X130020000Y-104188000D02*
X130020000Y-116812000D01*
X128059000Y-104655000D02*
X128059000Y-109060000D01*
X130340000Y-104172000D02*
X130340000Y-116828000D01*
X126059000Y-105972000D02*
X126059000Y-115028000D01*
X126699000Y-105427000D02*
X126699000Y-109060000D01*
X129940000Y-104194000D02*
X129940000Y-116806000D01*
X128979000Y-104354000D02*
X128979000Y-109060000D01*
X127219000Y-105079000D02*
X127219000Y-109060000D01*
X126659000Y-111940000D02*
X126659000Y-115543000D01*
X128219000Y-104592000D02*
X128219000Y-109060000D01*
X128139000Y-104623000D02*
X128139000Y-109060000D01*
X129379000Y-104269000D02*
X129379000Y-109060000D01*
X127379000Y-111940000D02*
X127379000Y-116014000D01*
X124819000Y-107656000D02*
X124819000Y-113344000D01*
X127579000Y-104878000D02*
X127579000Y-109060000D01*
X125619000Y-106445000D02*
X125619000Y-114555000D01*
X129139000Y-111940000D02*
X129139000Y-116684000D01*
X129059000Y-104334000D02*
X129059000Y-109060000D01*
X125219000Y-106976000D02*
X125219000Y-114024000D01*
X129579000Y-104236000D02*
X129579000Y-116764000D01*
X129459000Y-104255000D02*
X129459000Y-116745000D01*
X125699000Y-106352000D02*
X125699000Y-114648000D01*
X124499000Y-108400000D02*
X124499000Y-112600000D01*
X127739000Y-111940000D02*
X127739000Y-116202000D01*
X128539000Y-104479000D02*
X128539000Y-109060000D01*
X126379000Y-105681000D02*
X126379000Y-115319000D01*
X127059000Y-105178000D02*
X127059000Y-109060000D01*
X127819000Y-104761000D02*
X127819000Y-109060000D01*
X127459000Y-111940000D02*
X127459000Y-116058000D01*
X127659000Y-111940000D02*
X127659000Y-116162000D01*
X129659000Y-104225000D02*
X129659000Y-116775000D01*
X126339000Y-105715000D02*
X126339000Y-115285000D01*
X124219000Y-109472000D02*
X124219000Y-111528000D01*
X126099000Y-105933000D02*
X126099000Y-115067000D01*
X127979000Y-104689000D02*
X127979000Y-109060000D01*
X127699000Y-104818000D02*
X127699000Y-109060000D01*
X129619000Y-104231000D02*
X129619000Y-116769000D01*
X124779000Y-107736000D02*
X124779000Y-113264000D01*
X128299000Y-104561000D02*
X128299000Y-109060000D01*
X136692082Y-106300000D02*
X136692082Y-107550000D01*
X126779000Y-105369000D02*
X126779000Y-109060000D01*
X126979000Y-105230000D02*
X126979000Y-109060000D01*
X129379000Y-111940000D02*
X129379000Y-116731000D01*
X128339000Y-111940000D02*
X128339000Y-116453000D01*
X128179000Y-111940000D02*
X128179000Y-116393000D01*
X128179000Y-104607000D02*
X128179000Y-109060000D01*
X128379000Y-104533000D02*
X128379000Y-109060000D01*
X128579000Y-111940000D02*
X128579000Y-116534000D01*
X129339000Y-111940000D02*
X129339000Y-116724000D01*
X127499000Y-104920000D02*
X127499000Y-109060000D01*
X127299000Y-105032000D02*
X127299000Y-109060000D01*
X129179000Y-104308000D02*
X129179000Y-109060000D01*
X127699000Y-111940000D02*
X127699000Y-116182000D01*
X128859000Y-111940000D02*
X128859000Y-116616000D01*
X124859000Y-107579000D02*
X124859000Y-113421000D01*
X124459000Y-108516000D02*
X124459000Y-112484000D01*
X125419000Y-106696000D02*
X125419000Y-114304000D01*
X128139000Y-111940000D02*
X128139000Y-116377000D01*
X128219000Y-111940000D02*
X128219000Y-116408000D01*
X129980000Y-104191000D02*
X129980000Y-116809000D01*
X125979000Y-106051000D02*
X125979000Y-114949000D01*
X126579000Y-111940000D02*
X126579000Y-115482000D01*
X126219000Y-105822000D02*
X126219000Y-115178000D01*
X127339000Y-105009000D02*
X127339000Y-109060000D01*
X129499000Y-104248000D02*
X129499000Y-116752000D01*
X126619000Y-111940000D02*
X126619000Y-115512000D01*
X126939000Y-105257000D02*
X126939000Y-109060000D01*
X124379000Y-108772000D02*
X124379000Y-112228000D01*
X128099000Y-111940000D02*
X128099000Y-116361000D01*
X127539000Y-111940000D02*
X127539000Y-116101000D01*
X125339000Y-106804000D02*
X125339000Y-114196000D01*
X124699000Y-107906000D02*
X124699000Y-113094000D01*
X124179000Y-109743000D02*
X124179000Y-111257000D01*
X130180000Y-104178000D02*
X130180000Y-116822000D01*
X128459000Y-111940000D02*
X128459000Y-116495000D01*
X128339000Y-104547000D02*
X128339000Y-109060000D01*
X128499000Y-104492000D02*
X128499000Y-109060000D01*
X126979000Y-111940000D02*
X126979000Y-115770000D01*
X128699000Y-111940000D02*
X128699000Y-116571000D01*
X127779000Y-104779000D02*
X127779000Y-109060000D01*
X124579000Y-108188000D02*
X124579000Y-112812000D01*
X127739000Y-104798000D02*
X127739000Y-109060000D01*
X126739000Y-111940000D02*
X126739000Y-115602000D01*
X125899000Y-106133000D02*
X125899000Y-114867000D01*
X126819000Y-105340000D02*
X126819000Y-109060000D01*
X128299000Y-111940000D02*
X128299000Y-116439000D01*
X127299000Y-111940000D02*
X127299000Y-115968000D01*
X127859000Y-111940000D02*
X127859000Y-116258000D01*
X124259000Y-109259000D02*
X124259000Y-111741000D01*
X126499000Y-105582000D02*
X126499000Y-115418000D01*
X129699000Y-104220000D02*
X129699000Y-116780000D01*
X128619000Y-111940000D02*
X128619000Y-116547000D01*
X128859000Y-104384000D02*
X128859000Y-109060000D01*
X125459000Y-106644000D02*
X125459000Y-114356000D01*
X127339000Y-111940000D02*
X127339000Y-115991000D01*
X124539000Y-108291000D02*
X124539000Y-112709000D01*
X127939000Y-104707000D02*
X127939000Y-109060000D01*
X128019000Y-111940000D02*
X128019000Y-116328000D01*
X127979000Y-111940000D02*
X127979000Y-116311000D01*
X124739000Y-107819000D02*
X124739000Y-113181000D01*
X124619000Y-108090000D02*
X124619000Y-112910000D01*
X124339000Y-108917000D02*
X124339000Y-112083000D01*
X124139000Y-110183000D02*
X124139000Y-110817000D01*
X127139000Y-111940000D02*
X127139000Y-115872000D01*
X126859000Y-105312000D02*
X126859000Y-109060000D01*
X127099000Y-111940000D02*
X127099000Y-115847000D01*
X128779000Y-104406000D02*
X128779000Y-109060000D01*
X125019000Y-107292000D02*
X125019000Y-113708000D01*
X129059000Y-111940000D02*
X129059000Y-116666000D01*
X127419000Y-111940000D02*
X127419000Y-116036000D01*
X124299000Y-109078000D02*
X124299000Y-111922000D01*
X127059000Y-111940000D02*
X127059000Y-115822000D01*
X125259000Y-106917000D02*
X125259000Y-114083000D01*
X127899000Y-111940000D02*
X127899000Y-116276000D01*
X128659000Y-111940000D02*
X128659000Y-116559000D01*
X130060000Y-104185000D02*
X130060000Y-116815000D01*
X128939000Y-104363000D02*
X128939000Y-109060000D01*
X130420000Y-104170000D02*
X130420000Y-116830000D01*
X128619000Y-104453000D02*
X128619000Y-109060000D01*
X127539000Y-104899000D02*
X127539000Y-109060000D01*
X127459000Y-104942000D02*
X127459000Y-109060000D01*
X126579000Y-105518000D02*
X126579000Y-109060000D01*
X124659000Y-107996000D02*
X124659000Y-113004000D01*
X129259000Y-104291000D02*
X129259000Y-109060000D01*
X128779000Y-111940000D02*
X128779000Y-116594000D01*
X127019000Y-105204000D02*
X127019000Y-109060000D01*
X127019000Y-111940000D02*
X127019000Y-115796000D01*
X126179000Y-105858000D02*
X126179000Y-115142000D01*
X124419000Y-108639000D02*
X124419000Y-112361000D01*
X126899000Y-111940000D02*
X126899000Y-115716000D01*
X125579000Y-106493000D02*
X125579000Y-114507000D01*
X128739000Y-104417000D02*
X128739000Y-109060000D01*
X128499000Y-111940000D02*
X128499000Y-116508000D01*
X126139000Y-105895000D02*
X126139000Y-115105000D01*
X137317082Y-106925000D02*
X136067082Y-106925000D01*
X129019000Y-111940000D02*
X129019000Y-116656000D01*
X125179000Y-107036000D02*
X125179000Y-113964000D01*
X128059000Y-111940000D02*
X128059000Y-116345000D01*
X125779000Y-106262000D02*
X125779000Y-114738000D01*
X130220000Y-104176000D02*
X130220000Y-116824000D01*
X126459000Y-105615000D02*
X126459000Y-115385000D01*
X125739000Y-106306000D02*
X125739000Y-114694000D01*
X129219000Y-111940000D02*
X129219000Y-116701000D01*
X126419000Y-105648000D02*
X126419000Y-115352000D01*
X129099000Y-104325000D02*
X129099000Y-109060000D01*
X127179000Y-105103000D02*
X127179000Y-109060000D01*
X127259000Y-111940000D02*
X127259000Y-115945000D01*
X129299000Y-104284000D02*
X129299000Y-109060000D01*
X126899000Y-105284000D02*
X126899000Y-109060000D01*
X125499000Y-106593000D02*
X125499000Y-114407000D01*
X128019000Y-104672000D02*
X128019000Y-109060000D01*
X127099000Y-105153000D02*
X127099000Y-109060000D01*
X136870000Y-110500000D02*
G75*
G03*
X136870000Y-110500000I-6370000J0D01*
G01*
%TO.C,X3*%
X103800000Y-132300000D02*
X103800000Y-134700000D01*
X108700000Y-129800000D02*
X106300000Y-129800000D01*
X111200000Y-134700000D02*
X111200000Y-132300000D01*
X106300000Y-137200000D02*
X108700000Y-137200000D01*
%TO.C,X4*%
X131700000Y-129800000D02*
X129300000Y-129800000D01*
X126800000Y-132300000D02*
X126800000Y-134700000D01*
X134200000Y-134700000D02*
X134200000Y-132300000D01*
X129300000Y-137200000D02*
X131700000Y-137200000D01*
%TO.C,R102*%
X130322936Y-127210000D02*
X134677064Y-127210000D01*
X130322936Y-123790000D02*
X134677064Y-123790000D01*
%TO.C,SW1*%
X128550000Y-97700000D02*
X131850000Y-97700000D01*
X128550000Y-95200000D02*
X128550000Y-94900000D01*
X131850000Y-94900000D02*
X131850000Y-95200000D01*
X128550000Y-97400000D02*
X128550000Y-97700000D01*
X131850000Y-97700000D02*
X131850000Y-97400000D01*
X128550000Y-94900000D02*
X131850000Y-94900000D01*
%TO.C,J1*%
X155437500Y-99800000D02*
X155437500Y-100400000D01*
X155437500Y-99500000D02*
X155437500Y-97350000D01*
X158987500Y-105650000D02*
X158987500Y-102750000D01*
X158987500Y-97350000D02*
X158987500Y-100250000D01*
X155437500Y-105650000D02*
X158987500Y-105650000D01*
X155437500Y-97350000D02*
X158987500Y-97350000D01*
X155437500Y-103500000D02*
X155437500Y-105650000D01*
X156187500Y-99800000D02*
X155437500Y-99800000D01*
%TO.C,R103*%
X153322936Y-127210000D02*
X157677064Y-127210000D01*
X153322936Y-123790000D02*
X157677064Y-123790000D01*
%TO.C,X1*%
X90700000Y-112700000D02*
X90700000Y-110300000D01*
X85800000Y-115200000D02*
X88200000Y-115200000D01*
X83300000Y-110300000D02*
X83300000Y-112700000D01*
X88200000Y-107800000D02*
X85800000Y-107800000D01*
%TO.C,C5*%
X95490000Y-93960000D02*
X95490000Y-91778000D01*
X91749759Y-96839000D02*
X92379759Y-96839000D01*
X95810000Y-93960000D02*
X95810000Y-91818000D01*
X95410000Y-98227000D02*
X95410000Y-91773000D01*
X95610000Y-98211000D02*
X95610000Y-96040000D01*
X95250000Y-98230000D02*
X95250000Y-91770000D01*
X97291000Y-93960000D02*
X97291000Y-92484000D01*
X97211000Y-93960000D02*
X97211000Y-92422000D01*
X97331000Y-93960000D02*
X97331000Y-92516000D01*
X98491000Y-95402000D02*
X98491000Y-94598000D01*
X96451000Y-93960000D02*
X96451000Y-91998000D01*
X96411000Y-93960000D02*
X96411000Y-91982000D01*
X96251000Y-93960000D02*
X96251000Y-91926000D01*
X96371000Y-98033000D02*
X96371000Y-96040000D01*
X96891000Y-97790000D02*
X96891000Y-96040000D01*
X97771000Y-97044000D02*
X97771000Y-92956000D01*
X95690000Y-93960000D02*
X95690000Y-91799000D01*
X97211000Y-97578000D02*
X97211000Y-96040000D01*
X97811000Y-96995000D02*
X97811000Y-93005000D01*
X95690000Y-98201000D02*
X95690000Y-96040000D01*
X96531000Y-97970000D02*
X96531000Y-96040000D01*
X95530000Y-98218000D02*
X95530000Y-96040000D01*
X98291000Y-96165000D02*
X98291000Y-93835000D01*
X96691000Y-93960000D02*
X96691000Y-92104000D01*
X96811000Y-97834000D02*
X96811000Y-96040000D01*
X96491000Y-97986000D02*
X96491000Y-96040000D01*
X96051000Y-93960000D02*
X96051000Y-91869000D01*
X95890000Y-93960000D02*
X95890000Y-91833000D01*
X96171000Y-93960000D02*
X96171000Y-91902000D01*
X97051000Y-93960000D02*
X97051000Y-92310000D01*
X95850000Y-93960000D02*
X95850000Y-91825000D01*
X96091000Y-93960000D02*
X96091000Y-91879000D01*
X97291000Y-97516000D02*
X97291000Y-96040000D01*
X96291000Y-93960000D02*
X96291000Y-91939000D01*
X95850000Y-98175000D02*
X95850000Y-96040000D01*
X95650000Y-98206000D02*
X95650000Y-96040000D01*
X96931000Y-93960000D02*
X96931000Y-92234000D01*
X96011000Y-98141000D02*
X96011000Y-96040000D01*
X96571000Y-93960000D02*
X96571000Y-92048000D01*
X97251000Y-97548000D02*
X97251000Y-96040000D01*
X96731000Y-97876000D02*
X96731000Y-96040000D01*
X97051000Y-97690000D02*
X97051000Y-96040000D01*
X95890000Y-98167000D02*
X95890000Y-96040000D01*
X98171000Y-96432000D02*
X98171000Y-93568000D01*
X95570000Y-98215000D02*
X95570000Y-96040000D01*
X95290000Y-98230000D02*
X95290000Y-91770000D01*
X96051000Y-98131000D02*
X96051000Y-96040000D01*
X96171000Y-98098000D02*
X96171000Y-96040000D01*
X98251000Y-96262000D02*
X98251000Y-93738000D01*
X96131000Y-93960000D02*
X96131000Y-91890000D01*
X98091000Y-96581000D02*
X98091000Y-93419000D01*
X97251000Y-93960000D02*
X97251000Y-92452000D01*
X95971000Y-98150000D02*
X95971000Y-96040000D01*
X96891000Y-93960000D02*
X96891000Y-92210000D01*
X97451000Y-93960000D02*
X97451000Y-92620000D01*
X95930000Y-98159000D02*
X95930000Y-96040000D01*
X95971000Y-93960000D02*
X95971000Y-91850000D01*
X97011000Y-97716000D02*
X97011000Y-96040000D01*
X97531000Y-93960000D02*
X97531000Y-92695000D01*
X95490000Y-98222000D02*
X95490000Y-96040000D01*
X98451000Y-95633000D02*
X98451000Y-94367000D01*
X97731000Y-97092000D02*
X97731000Y-92908000D01*
X97851000Y-96944000D02*
X97851000Y-93056000D01*
X96771000Y-93960000D02*
X96771000Y-92144000D01*
X97891000Y-96890000D02*
X97891000Y-93110000D01*
X96651000Y-97916000D02*
X96651000Y-96040000D01*
X97371000Y-97450000D02*
X97371000Y-96040000D01*
X97651000Y-97182000D02*
X97651000Y-92818000D01*
X96211000Y-93960000D02*
X96211000Y-91914000D01*
X96611000Y-97934000D02*
X96611000Y-96040000D01*
X95450000Y-98224000D02*
X95450000Y-91776000D01*
X98211000Y-96350000D02*
X98211000Y-93650000D01*
X96571000Y-97952000D02*
X96571000Y-96040000D01*
X96131000Y-98110000D02*
X96131000Y-96040000D01*
X97611000Y-97224000D02*
X97611000Y-92776000D01*
X97571000Y-97265000D02*
X97571000Y-92735000D01*
X92064759Y-97154000D02*
X92064759Y-96524000D01*
X97091000Y-93960000D02*
X97091000Y-92336000D01*
X97691000Y-97137000D02*
X97691000Y-92863000D01*
X97971000Y-96776000D02*
X97971000Y-93224000D01*
X96851000Y-97812000D02*
X96851000Y-96040000D01*
X97331000Y-97484000D02*
X97331000Y-96040000D01*
X95810000Y-98182000D02*
X95810000Y-96040000D01*
X96651000Y-93960000D02*
X96651000Y-92084000D01*
X95730000Y-98195000D02*
X95730000Y-96040000D01*
X97371000Y-93960000D02*
X97371000Y-92550000D01*
X95370000Y-98228000D02*
X95370000Y-91772000D01*
X96771000Y-97856000D02*
X96771000Y-96040000D01*
X98131000Y-96509000D02*
X98131000Y-93491000D01*
X96091000Y-98121000D02*
X96091000Y-96040000D01*
X96931000Y-97766000D02*
X96931000Y-96040000D01*
X97931000Y-96834000D02*
X97931000Y-93166000D01*
X95770000Y-93960000D02*
X95770000Y-91811000D01*
X95330000Y-98230000D02*
X95330000Y-91770000D01*
X97531000Y-97305000D02*
X97531000Y-96040000D01*
X96971000Y-97742000D02*
X96971000Y-96040000D01*
X97411000Y-97416000D02*
X97411000Y-96040000D01*
X96451000Y-98002000D02*
X96451000Y-96040000D01*
X98371000Y-95940000D02*
X98371000Y-94060000D01*
X97451000Y-97380000D02*
X97451000Y-96040000D01*
X98331000Y-96059000D02*
X98331000Y-93941000D01*
X96371000Y-93960000D02*
X96371000Y-91967000D01*
X95770000Y-98189000D02*
X95770000Y-96040000D01*
X98411000Y-95802000D02*
X98411000Y-94198000D01*
X95930000Y-93960000D02*
X95930000Y-91841000D01*
X98011000Y-96714000D02*
X98011000Y-93286000D01*
X97491000Y-93960000D02*
X97491000Y-92657000D01*
X95530000Y-93960000D02*
X95530000Y-91782000D01*
X95610000Y-93960000D02*
X95610000Y-91789000D01*
X96531000Y-93960000D02*
X96531000Y-92030000D01*
X97131000Y-97636000D02*
X97131000Y-96040000D01*
X96851000Y-93960000D02*
X96851000Y-92188000D01*
X97491000Y-97343000D02*
X97491000Y-96040000D01*
X97011000Y-93960000D02*
X97011000Y-92284000D01*
X95650000Y-93960000D02*
X95650000Y-91794000D01*
X96211000Y-98086000D02*
X96211000Y-96040000D01*
X97091000Y-97664000D02*
X97091000Y-96040000D01*
X96491000Y-93960000D02*
X96491000Y-92014000D01*
X96691000Y-97896000D02*
X96691000Y-96040000D01*
X97171000Y-97607000D02*
X97171000Y-96040000D01*
X96411000Y-98018000D02*
X96411000Y-96040000D01*
X96331000Y-98047000D02*
X96331000Y-96040000D01*
X96251000Y-98074000D02*
X96251000Y-96040000D01*
X95730000Y-93960000D02*
X95730000Y-91805000D01*
X98051000Y-96650000D02*
X98051000Y-93350000D01*
X96811000Y-93960000D02*
X96811000Y-92166000D01*
X96971000Y-93960000D02*
X96971000Y-92258000D01*
X95570000Y-93960000D02*
X95570000Y-91785000D01*
X96291000Y-98061000D02*
X96291000Y-96040000D01*
X97171000Y-93960000D02*
X97171000Y-92393000D01*
X97411000Y-93960000D02*
X97411000Y-92584000D01*
X97131000Y-93960000D02*
X97131000Y-92364000D01*
X96331000Y-93960000D02*
X96331000Y-91953000D01*
X96611000Y-93960000D02*
X96611000Y-92066000D01*
X96731000Y-93960000D02*
X96731000Y-92124000D01*
X96011000Y-93960000D02*
X96011000Y-91859000D01*
X98520000Y-95000000D02*
G75*
G03*
X98520000Y-95000000I-3270000J0D01*
G01*
%TO.C,C103*%
X150157041Y-109560000D02*
X150157041Y-105579000D01*
X148917041Y-116995000D02*
X148917041Y-112440000D01*
X149037041Y-109560000D02*
X149037041Y-105047000D01*
X147797041Y-117264000D02*
X147797041Y-104736000D01*
X150357041Y-116296000D02*
X150357041Y-112440000D01*
X148277041Y-117175000D02*
X148277041Y-112440000D01*
X149197041Y-116893000D02*
X149197041Y-112440000D01*
X148837041Y-109560000D02*
X148837041Y-104979000D01*
X151597041Y-115238000D02*
X151597041Y-106762000D01*
X147637041Y-117285000D02*
X147637041Y-104715000D01*
X148917041Y-109560000D02*
X148917041Y-105005000D01*
X148357041Y-109560000D02*
X148357041Y-104844000D01*
X150717041Y-109560000D02*
X150717041Y-105957000D01*
X150397041Y-116270000D02*
X150397041Y-112440000D01*
X146956041Y-117330000D02*
X146956041Y-104670000D01*
X148357041Y-117156000D02*
X148357041Y-112440000D01*
X152197041Y-114464000D02*
X152197041Y-107536000D01*
X148957041Y-109560000D02*
X148957041Y-105019000D01*
X152317041Y-114275000D02*
X152317041Y-107725000D01*
X151877041Y-114907000D02*
X151877041Y-107093000D01*
X149237041Y-109560000D02*
X149237041Y-105123000D01*
X149477041Y-116776000D02*
X149477041Y-112440000D01*
X147236041Y-117320000D02*
X147236041Y-104680000D01*
X150677041Y-109560000D02*
X150677041Y-105927000D01*
X150357041Y-109560000D02*
X150357041Y-105704000D01*
X148557041Y-117105000D02*
X148557041Y-112440000D01*
X149797041Y-109560000D02*
X149797041Y-105378000D01*
X150077041Y-116468000D02*
X150077041Y-112440000D01*
X148477041Y-109560000D02*
X148477041Y-104874000D01*
X152637041Y-113681000D02*
X152637041Y-108319000D01*
X152077041Y-114640000D02*
X152077041Y-107360000D01*
X148557041Y-109560000D02*
X148557041Y-104895000D01*
X151557041Y-115282000D02*
X151557041Y-106718000D01*
X152557041Y-113844000D02*
X152557041Y-108156000D01*
X147076041Y-117327000D02*
X147076041Y-104673000D01*
X150917041Y-115885000D02*
X150917041Y-106115000D01*
X148157041Y-117201000D02*
X148157041Y-112440000D01*
X140058959Y-114575000D02*
X141308959Y-114575000D01*
X152717041Y-113504000D02*
X152717041Y-108496000D01*
X153077041Y-112422000D02*
X153077041Y-109578000D01*
X153197041Y-111757000D02*
X153197041Y-110243000D01*
X149357041Y-116828000D02*
X149357041Y-112440000D01*
X149637041Y-109560000D02*
X149637041Y-105298000D01*
X149877041Y-116580000D02*
X149877041Y-112440000D01*
X147436041Y-117306000D02*
X147436041Y-104694000D01*
X151837041Y-114957000D02*
X151837041Y-107043000D01*
X149317041Y-109560000D02*
X149317041Y-105155000D01*
X148437041Y-117137000D02*
X148437041Y-112440000D01*
X149517041Y-116758000D02*
X149517041Y-112440000D01*
X149157041Y-116908000D02*
X149157041Y-112440000D01*
X147316041Y-117315000D02*
X147316041Y-104685000D01*
X149277041Y-116861000D02*
X149277041Y-112440000D01*
X147516041Y-117298000D02*
X147516041Y-104702000D01*
X148677041Y-109560000D02*
X148677041Y-104929000D01*
X148397041Y-117146000D02*
X148397041Y-112440000D01*
X140683959Y-115200000D02*
X140683959Y-113950000D01*
X150157041Y-116421000D02*
X150157041Y-112440000D01*
X150637041Y-116102000D02*
X150637041Y-112440000D01*
X148077041Y-117216000D02*
X148077041Y-112440000D01*
X147997041Y-117231000D02*
X147997041Y-112440000D01*
X148517041Y-109560000D02*
X148517041Y-104884000D01*
X148037041Y-117224000D02*
X148037041Y-112440000D01*
X150397041Y-109560000D02*
X150397041Y-105730000D01*
X152437041Y-114069000D02*
X152437041Y-107931000D01*
X149397041Y-116811000D02*
X149397041Y-112440000D01*
X149877041Y-109560000D02*
X149877041Y-105420000D01*
X149397041Y-109560000D02*
X149397041Y-105189000D01*
X148797041Y-117034000D02*
X148797041Y-112440000D01*
X149837041Y-109560000D02*
X149837041Y-105399000D01*
X147957041Y-109560000D02*
X147957041Y-104762000D01*
X148717041Y-109560000D02*
X148717041Y-104941000D01*
X149717041Y-116662000D02*
X149717041Y-112440000D01*
X149997041Y-109560000D02*
X149997041Y-105486000D01*
X149837041Y-116601000D02*
X149837041Y-112440000D01*
X150557041Y-116160000D02*
X150557041Y-112440000D01*
X151997041Y-114750000D02*
X151997041Y-107250000D01*
X148117041Y-109560000D02*
X148117041Y-104791000D01*
X150517041Y-116188000D02*
X150517041Y-112440000D01*
X152157041Y-114524000D02*
X152157041Y-107476000D01*
X151197041Y-115642000D02*
X151197041Y-106358000D01*
X151517041Y-115325000D02*
X151517041Y-106675000D01*
X148757041Y-109560000D02*
X148757041Y-104953000D01*
X152037041Y-114696000D02*
X152037041Y-107304000D01*
X148197041Y-109560000D02*
X148197041Y-104808000D01*
X152397041Y-114140000D02*
X152397041Y-107860000D01*
X147677041Y-117280000D02*
X147677041Y-104720000D01*
X147276041Y-117318000D02*
X147276041Y-104682000D01*
X149757041Y-109560000D02*
X149757041Y-105358000D01*
X147196041Y-117322000D02*
X147196041Y-104678000D01*
X149917041Y-116558000D02*
X149917041Y-112440000D01*
X148837041Y-117021000D02*
X148837041Y-112440000D01*
X148877041Y-117008000D02*
X148877041Y-112440000D01*
X152997041Y-112728000D02*
X152997041Y-109272000D01*
X152517041Y-113921000D02*
X152517041Y-108079000D01*
X152957041Y-112861000D02*
X152957041Y-109139000D01*
X149117041Y-116924000D02*
X149117041Y-112440000D01*
X151317041Y-115528000D02*
X151317041Y-106472000D01*
X150997041Y-115819000D02*
X150997041Y-106181000D01*
X149237041Y-116877000D02*
X149237041Y-112440000D01*
X149357041Y-109560000D02*
X149357041Y-105172000D01*
X148317041Y-109560000D02*
X148317041Y-104834000D01*
X148957041Y-116981000D02*
X148957041Y-112440000D01*
X147837041Y-117258000D02*
X147837041Y-104742000D01*
X150637041Y-109560000D02*
X150637041Y-105898000D01*
X148997041Y-109560000D02*
X148997041Y-105033000D01*
X152477041Y-113996000D02*
X152477041Y-108004000D01*
X152117041Y-114583000D02*
X152117041Y-107417000D01*
X149957041Y-116536000D02*
X149957041Y-112440000D01*
X148677041Y-117071000D02*
X148677041Y-112440000D01*
X150477041Y-109560000D02*
X150477041Y-105784000D01*
X150197041Y-109560000D02*
X150197041Y-105603000D01*
X150037041Y-109560000D02*
X150037041Y-105509000D01*
X152837041Y-113209000D02*
X152837041Y-108791000D01*
X150597041Y-109560000D02*
X150597041Y-105869000D01*
X150237041Y-109560000D02*
X150237041Y-105628000D01*
X149477041Y-109560000D02*
X149477041Y-105224000D01*
X151157041Y-115678000D02*
X151157041Y-106322000D01*
X149557041Y-116739000D02*
X149557041Y-112440000D01*
X150437041Y-116243000D02*
X150437041Y-112440000D01*
X147556041Y-117294000D02*
X147556041Y-104706000D01*
X147156041Y-117324000D02*
X147156041Y-104676000D01*
X152277041Y-114339000D02*
X152277041Y-107661000D01*
X148117041Y-117209000D02*
X148117041Y-112440000D01*
X151957041Y-114804000D02*
X151957041Y-107196000D01*
X151437041Y-115408000D02*
X151437041Y-106592000D01*
X150597041Y-116131000D02*
X150597041Y-112440000D01*
X149117041Y-109560000D02*
X149117041Y-105076000D01*
X148717041Y-117059000D02*
X148717041Y-112440000D01*
X147717041Y-117275000D02*
X147717041Y-104725000D01*
X147877041Y-117252000D02*
X147877041Y-104748000D01*
X150877041Y-115918000D02*
X150877041Y-106082000D01*
X149077041Y-116939000D02*
X149077041Y-112440000D01*
X150437041Y-109560000D02*
X150437041Y-105757000D01*
X146916041Y-117330000D02*
X146916041Y-104670000D01*
X151797041Y-115007000D02*
X151797041Y-106993000D01*
X146996041Y-117329000D02*
X146996041Y-104671000D01*
X148237041Y-117184000D02*
X148237041Y-112440000D01*
X149637041Y-116702000D02*
X149637041Y-112440000D01*
X148637041Y-117083000D02*
X148637041Y-112440000D01*
X147476041Y-117302000D02*
X147476041Y-104698000D01*
X148997041Y-116967000D02*
X148997041Y-112440000D01*
X151237041Y-115605000D02*
X151237041Y-106395000D01*
X149597041Y-109560000D02*
X149597041Y-105279000D01*
X147396041Y-117309000D02*
X147396041Y-104691000D01*
X151477041Y-115367000D02*
X151477041Y-106633000D01*
X153117041Y-112241000D02*
X153117041Y-109759000D01*
X150517041Y-109560000D02*
X150517041Y-105812000D01*
X147757041Y-117269000D02*
X147757041Y-104731000D01*
X148437041Y-109560000D02*
X148437041Y-104863000D01*
X149517041Y-109560000D02*
X149517041Y-105242000D01*
X149957041Y-109560000D02*
X149957041Y-105464000D01*
X149037041Y-116953000D02*
X149037041Y-112440000D01*
X147356041Y-117312000D02*
X147356041Y-104688000D01*
X147997041Y-109560000D02*
X147997041Y-104769000D01*
X151677041Y-115148000D02*
X151677041Y-106852000D01*
X150117041Y-109560000D02*
X150117041Y-105555000D01*
X151917041Y-114856000D02*
X151917041Y-107144000D01*
X148077041Y-109560000D02*
X148077041Y-104784000D01*
X148517041Y-117116000D02*
X148517041Y-112440000D01*
X147597041Y-117290000D02*
X147597041Y-104710000D01*
X151757041Y-115055000D02*
X151757041Y-106945000D01*
X149677041Y-109560000D02*
X149677041Y-105318000D01*
X152757041Y-113410000D02*
X152757041Y-108590000D01*
X153157041Y-112028000D02*
X153157041Y-109972000D01*
X153037041Y-112583000D02*
X153037041Y-109417000D01*
X149677041Y-116682000D02*
X149677041Y-112440000D01*
X150317041Y-109560000D02*
X150317041Y-105678000D01*
X149757041Y-116642000D02*
X149757041Y-112440000D01*
X149197041Y-109560000D02*
X149197041Y-105107000D01*
X152357041Y-114208000D02*
X152357041Y-107792000D01*
X151117041Y-115714000D02*
X151117041Y-106286000D01*
X148877041Y-109560000D02*
X148877041Y-104992000D01*
X147917041Y-117245000D02*
X147917041Y-104755000D01*
X149557041Y-109560000D02*
X149557041Y-105261000D01*
X149997041Y-116514000D02*
X149997041Y-112440000D01*
X148477041Y-117126000D02*
X148477041Y-112440000D01*
X148237041Y-109560000D02*
X148237041Y-104816000D01*
X148317041Y-117166000D02*
X148317041Y-112440000D01*
X150957041Y-115852000D02*
X150957041Y-106148000D01*
X150557041Y-109560000D02*
X150557041Y-105840000D01*
X150317041Y-116322000D02*
X150317041Y-112440000D01*
X149437041Y-109560000D02*
X149437041Y-105207000D01*
X150677041Y-116073000D02*
X150677041Y-112440000D01*
X151357041Y-115489000D02*
X151357041Y-106511000D01*
X152597041Y-113764000D02*
X152597041Y-108236000D01*
X150757041Y-109560000D02*
X150757041Y-105988000D01*
X151637041Y-115194000D02*
X151637041Y-106806000D01*
X150757041Y-116012000D02*
X150757041Y-112440000D01*
X149797041Y-116622000D02*
X149797041Y-112440000D01*
X151397041Y-115449000D02*
X151397041Y-106551000D01*
X150197041Y-116397000D02*
X150197041Y-112440000D01*
X153237041Y-111317000D02*
X153237041Y-110683000D01*
X150277041Y-116347000D02*
X150277041Y-112440000D01*
X148597041Y-109560000D02*
X148597041Y-104906000D01*
X152677041Y-113594000D02*
X152677041Y-108406000D01*
X148597041Y-117094000D02*
X148597041Y-112440000D01*
X147036041Y-117328000D02*
X147036041Y-104672000D01*
X151037041Y-115785000D02*
X151037041Y-106215000D01*
X150797041Y-115982000D02*
X150797041Y-112440000D01*
X150077041Y-109560000D02*
X150077041Y-105532000D01*
X150797041Y-109560000D02*
X150797041Y-106018000D01*
X149157041Y-109560000D02*
X149157041Y-105092000D01*
X147116041Y-117326000D02*
X147116041Y-104674000D01*
X150277041Y-109560000D02*
X150277041Y-105653000D01*
X152877041Y-113100000D02*
X152877041Y-108900000D01*
X148797041Y-109560000D02*
X148797041Y-104966000D01*
X148037041Y-109560000D02*
X148037041Y-104776000D01*
X150117041Y-116445000D02*
X150117041Y-112440000D01*
X148197041Y-117192000D02*
X148197041Y-112440000D01*
X149597041Y-116721000D02*
X149597041Y-112440000D01*
X151717041Y-115102000D02*
X151717041Y-106898000D01*
X149717041Y-109560000D02*
X149717041Y-105338000D01*
X146876041Y-117330000D02*
X146876041Y-104670000D01*
X150037041Y-116491000D02*
X150037041Y-112440000D01*
X149437041Y-116793000D02*
X149437041Y-112440000D01*
X149277041Y-109560000D02*
X149277041Y-105139000D01*
X150717041Y-116043000D02*
X150717041Y-112440000D01*
X151077041Y-115750000D02*
X151077041Y-106250000D01*
X148637041Y-109560000D02*
X148637041Y-104917000D01*
X148157041Y-109560000D02*
X148157041Y-104799000D01*
X149917041Y-109560000D02*
X149917041Y-105442000D01*
X152797041Y-113312000D02*
X152797041Y-108688000D01*
X152917041Y-112984000D02*
X152917041Y-109016000D01*
X148757041Y-117047000D02*
X148757041Y-112440000D01*
X152237041Y-114402000D02*
X152237041Y-107598000D01*
X149317041Y-116845000D02*
X149317041Y-112440000D01*
X151277041Y-115567000D02*
X151277041Y-106433000D01*
X149077041Y-109560000D02*
X149077041Y-105061000D01*
X148397041Y-109560000D02*
X148397041Y-104854000D01*
X147957041Y-117238000D02*
X147957041Y-112440000D01*
X150477041Y-116216000D02*
X150477041Y-112440000D01*
X148277041Y-109560000D02*
X148277041Y-104825000D01*
X150237041Y-116372000D02*
X150237041Y-112440000D01*
X150837041Y-115950000D02*
X150837041Y-106050000D01*
X153246041Y-111000000D02*
G75*
G03*
X153246041Y-111000000I-6370000J0D01*
G01*
%TO.C,J4*%
X134290000Y-104230000D02*
X134290000Y-101570000D01*
X141970000Y-104230000D02*
X141970000Y-101570000D01*
X144570000Y-104230000D02*
X144570000Y-102900000D01*
X141970000Y-101570000D02*
X134290000Y-101570000D01*
X143240000Y-104230000D02*
X144570000Y-104230000D01*
X141970000Y-104230000D02*
X134290000Y-104230000D01*
%TO.C,X5*%
X149800000Y-132300000D02*
X149800000Y-134700000D01*
X157200000Y-134700000D02*
X157200000Y-132300000D01*
X152300000Y-137200000D02*
X154700000Y-137200000D01*
X154700000Y-129800000D02*
X152300000Y-129800000D01*
%TO.C,R101*%
X107322936Y-123790000D02*
X111677064Y-123790000D01*
X107322936Y-127210000D02*
X111677064Y-127210000D01*
%TO.C,X2*%
X83300000Y-132800000D02*
X83300000Y-135200000D01*
X90700000Y-135200000D02*
X90700000Y-132800000D01*
X85800000Y-137700000D02*
X88200000Y-137700000D01*
X88200000Y-130300000D02*
X85800000Y-130300000D01*
%TD*%
M02*
