%TF.GenerationSoftware,KiCad,Pcbnew,(6.99.0-2501-g45393f228a)*%
%TF.CreationDate,2022-08-09T23:28:24+12:00*%
%TF.ProjectId,bldc_hardware_riscv,626c6463-5f68-4617-9264-776172655f72,rev?*%
%TF.SameCoordinates,Original*%
%TF.FileFunction,Copper,L2,Inr*%
%TF.FilePolarity,Positive*%
%FSLAX46Y46*%
G04 Gerber Fmt 4.6, Leading zero omitted, Abs format (unit mm)*
G04 Created by KiCad (PCBNEW (6.99.0-2501-g45393f228a)) date 2022-08-09 23:28:24*
%MOMM*%
%LPD*%
G01*
G04 APERTURE LIST*
G04 Aperture macros list*
%AMRoundRect*
0 Rectangle with rounded corners*
0 $1 Rounding radius*
0 $2 $3 $4 $5 $6 $7 $8 $9 X,Y pos of 4 corners*
0 Add a 4 corners polygon primitive as box body*
4,1,4,$2,$3,$4,$5,$6,$7,$8,$9,$2,$3,0*
0 Add four circle primitives for the rounded corners*
1,1,$1+$1,$2,$3*
1,1,$1+$1,$4,$5*
1,1,$1+$1,$6,$7*
1,1,$1+$1,$8,$9*
0 Add four rect primitives between the rounded corners*
20,1,$1+$1,$2,$3,$4,$5,0*
20,1,$1+$1,$4,$5,$6,$7,0*
20,1,$1+$1,$6,$7,$8,$9,0*
20,1,$1+$1,$8,$9,$2,$3,0*%
G04 Aperture macros list end*
%TA.AperFunction,ComponentPad*%
%ADD10R,1.905000X2.000000*%
%TD*%
%TA.AperFunction,ComponentPad*%
%ADD11O,1.905000X2.000000*%
%TD*%
%TA.AperFunction,ComponentPad*%
%ADD12R,1.600000X1.600000*%
%TD*%
%TA.AperFunction,ComponentPad*%
%ADD13C,1.600000*%
%TD*%
%TA.AperFunction,ComponentPad*%
%ADD14RoundRect,0.250000X0.350000X0.625000X-0.350000X0.625000X-0.350000X-0.625000X0.350000X-0.625000X0*%
%TD*%
%TA.AperFunction,ComponentPad*%
%ADD15O,1.200000X1.750000*%
%TD*%
%TA.AperFunction,ComponentPad*%
%ADD16RoundRect,0.250000X-0.350000X-0.625000X0.350000X-0.625000X0.350000X0.625000X-0.350000X0.625000X0*%
%TD*%
%TA.AperFunction,ComponentPad*%
%ADD17R,2.400000X2.400000*%
%TD*%
%TA.AperFunction,ComponentPad*%
%ADD18C,2.400000*%
%TD*%
%TA.AperFunction,ComponentPad*%
%ADD19C,3.200000*%
%TD*%
%TA.AperFunction,ComponentPad*%
%ADD20O,1.100000X1.800000*%
%TD*%
%TA.AperFunction,ComponentPad*%
%ADD21O,1.100000X2.200000*%
%TD*%
%TA.AperFunction,ComponentPad*%
%ADD22R,1.700000X1.700000*%
%TD*%
%TA.AperFunction,ComponentPad*%
%ADD23O,1.700000X1.700000*%
%TD*%
%TA.AperFunction,ViaPad*%
%ADD24C,0.500000*%
%TD*%
%TA.AperFunction,ViaPad*%
%ADD25C,0.700000*%
%TD*%
%TA.AperFunction,Conductor*%
%ADD26C,0.250000*%
%TD*%
%TA.AperFunction,Conductor*%
%ADD27C,0.400000*%
%TD*%
%TA.AperFunction,Conductor*%
%ADD28C,0.450000*%
%TD*%
G04 APERTURE END LIST*
D10*
%TO.N,Net-(D2-A)*%
%TO.C,Q2*%
X99599999Y-118999999D03*
D11*
%TO.N,/Driver/VS1*%
X97059999Y-118999999D03*
%TO.N,GND*%
X94519999Y-118999999D03*
%TD*%
D10*
%TO.N,Net-(D10-A)*%
%TO.C,Q5*%
X155599999Y-118999999D03*
D11*
%TO.N,/Driver/99V*%
X153059999Y-118999999D03*
%TO.N,/Driver/VS3*%
X150519999Y-118999999D03*
%TD*%
D10*
%TO.N,Net-(D11-A)*%
%TO.C,Q6*%
X144599999Y-118999999D03*
D11*
%TO.N,/Driver/VS3*%
X142059999Y-118999999D03*
%TO.N,GND*%
X139519999Y-118999999D03*
%TD*%
D10*
%TO.N,Net-(D1-A)*%
%TO.C,Q1*%
X110599999Y-118999999D03*
D11*
%TO.N,/Driver/99V*%
X108059999Y-118999999D03*
%TO.N,/Driver/VS1*%
X105519999Y-118999999D03*
%TD*%
D10*
%TO.N,Net-(D5-A)*%
%TO.C,Q4*%
X122099999Y-118999999D03*
D11*
%TO.N,/Driver/VS2*%
X119559999Y-118999999D03*
%TO.N,GND*%
X117019999Y-118999999D03*
%TD*%
D10*
%TO.N,Net-(D4-A)*%
%TO.C,Q3*%
X133099999Y-118999999D03*
D11*
%TO.N,/Driver/99V*%
X130559999Y-118999999D03*
%TO.N,/Driver/VS2*%
X128019999Y-118999999D03*
%TD*%
D12*
%TO.N,/Driver/12V*%
%TO.C,C17*%
X99999999Y-84499999D03*
D13*
%TO.N,GND*%
X100000000Y-87000000D03*
%TD*%
D14*
%TO.N,/ADC_EXT*%
%TO.C,J3*%
X115600000Y-95350000D03*
D15*
%TO.N,Net-(J3-Pin_2)*%
X113599999Y-95349999D03*
%TO.N,Net-(J3-Pin_3)*%
X111599999Y-95349999D03*
%TO.N,/CANH*%
X109599999Y-95349999D03*
%TO.N,/CANL*%
X107599999Y-95349999D03*
%TO.N,GND*%
X105599999Y-95349999D03*
%TD*%
D16*
%TO.N,/HALL-VCC*%
%TO.C,J2*%
X113500000Y-83550000D03*
D15*
%TO.N,/MOTOR-TEMP*%
X115499999Y-83549999D03*
%TO.N,/HALL1*%
X117499999Y-83549999D03*
%TO.N,/HALL2*%
X119499999Y-83549999D03*
%TO.N,/HALL3*%
X121499999Y-83549999D03*
%TO.N,GND*%
X123499999Y-83549999D03*
%TD*%
D17*
%TO.N,/Driver/99V*%
%TO.C,C101*%
X105999999Y-110499999D03*
D18*
%TO.N,GND*%
X101000000Y-110500000D03*
%TD*%
D17*
%TO.N,/Driver/99V*%
%TO.C,C102*%
X132999999Y-110499999D03*
D18*
%TO.N,GND*%
X128000000Y-110500000D03*
%TD*%
D19*
%TO.N,/Driver/PhaseA*%
%TO.C,X3*%
X99500000Y-137000000D03*
X99500000Y-131000000D03*
X94500000Y-137000000D03*
X94500000Y-131000000D03*
%TD*%
%TO.N,/Driver/PhaseB*%
%TO.C,X4*%
X122000000Y-137000000D03*
X122000000Y-131000000D03*
X117000000Y-137000000D03*
X117000000Y-131000000D03*
%TD*%
D20*
%TO.N,unconnected-(J1-Shield)*%
%TO.C,J1*%
X156187499Y-98699999D03*
D21*
X158337499Y-101499999D03*
D20*
X156187499Y-104299999D03*
%TD*%
D19*
%TO.N,/Driver/99V*%
%TO.C,X1*%
X89200000Y-114500000D03*
X89200000Y-108500000D03*
X84200000Y-114500000D03*
X84200000Y-108500000D03*
%TD*%
D12*
%TO.N,/Driver/75V*%
%TO.C,C5*%
X93999999Y-94999999D03*
D13*
%TO.N,GND*%
X96500000Y-95000000D03*
%TD*%
D17*
%TO.N,/Driver/99V*%
%TO.C,C103*%
X149423958Y-110499999D03*
D18*
%TO.N,GND*%
X144423959Y-110500000D03*
%TD*%
D22*
%TO.N,GND*%
%TO.C,J4*%
X134999999Y-102599999D03*
D23*
%TO.N,/3.3V*%
X137539999Y-102599999D03*
%TO.N,/SWCK*%
X140079999Y-102599999D03*
%TO.N,/SWIO*%
X142619999Y-102599999D03*
%TD*%
D19*
%TO.N,/Driver/PhaseC*%
%TO.C,X5*%
X144500000Y-137000000D03*
X144500000Y-131000000D03*
X139500000Y-137000000D03*
X139500000Y-131000000D03*
%TD*%
D22*
%TO.N,GND*%
%TO.C,J5*%
X158199999Y-87399999D03*
D23*
%TO.N,/DEBUG_TX*%
X158199999Y-84859999D03*
%TO.N,/DEBUG_RX*%
X158199999Y-82319999D03*
%TD*%
D19*
%TO.N,GND*%
%TO.C,X2*%
X89200000Y-126700000D03*
X89200000Y-120700000D03*
X84200000Y-126700000D03*
X84200000Y-120700000D03*
%TD*%
D24*
%TO.N,/3.3V*%
X133500000Y-90100000D03*
%TO.N,Net-(D2-A)*%
X97700000Y-116000000D03*
%TO.N,Net-(D5-A)*%
X113500000Y-116000000D03*
%TO.N,/BOOT0*%
X145400000Y-96000000D03*
X130500000Y-98400000D03*
%TO.N,Net-(D11-A)*%
X137100000Y-116000000D03*
%TO.N,Net-(J1-D-)*%
X155000000Y-100500000D03*
%TO.N,/BLE_MODE*%
X142700000Y-82700000D03*
X100300000Y-96100000D03*
X87100000Y-103500000D03*
%TO.N,/BLE_TX*%
X87100000Y-101500000D03*
X140800000Y-82600000D03*
X101000000Y-94100000D03*
%TO.N,Net-(J1-D+)*%
X155000000Y-101500000D03*
%TO.N,/AIN_CS3*%
X158500000Y-133100000D03*
X146000000Y-86000000D03*
%TO.N,/AIN_CS2*%
X146500000Y-83000000D03*
X141900000Y-126900000D03*
%TO.N,/AIN_CS1*%
X147000000Y-86000000D03*
X118800000Y-126100000D03*
%TO.N,/AIN_VS1*%
X120500000Y-99500000D03*
X151702471Y-85996500D03*
%TO.N,/AIN_VS2*%
X124500000Y-99500000D03*
X150000000Y-84500000D03*
%TO.N,/AIN_VS3*%
X128500000Y-99500000D03*
X148000000Y-86000000D03*
%TO.N,/AIN_VIN*%
X110100000Y-102600000D03*
X144500000Y-86000000D03*
%TO.N,/ADC_EXT*%
X143500000Y-88100000D03*
X124800000Y-91900000D03*
%TO.N,/DEBUG_TX*%
X138600000Y-82600000D03*
%TO.N,/DEBUG_RX*%
X137800000Y-82600000D03*
%TO.N,GND*%
X91800000Y-97700000D03*
X96400000Y-106300000D03*
X152300000Y-98400000D03*
X126600000Y-84200000D03*
X107600000Y-105300000D03*
X96500000Y-104900000D03*
D25*
X106700000Y-84500000D03*
D24*
X84900000Y-101800000D03*
X132400000Y-132200000D03*
X115500000Y-90000000D03*
X123500000Y-100500000D03*
X90500000Y-100200000D03*
D25*
X104100000Y-84500000D03*
D24*
X97800000Y-103000000D03*
X92400000Y-125600000D03*
D25*
X103200000Y-81000000D03*
X107900000Y-84500000D03*
D24*
X129400000Y-92500000D03*
X132400000Y-132900000D03*
X156100000Y-81100000D03*
X91900000Y-104900000D03*
X136900000Y-82600000D03*
D25*
X107300000Y-81000000D03*
D24*
X151800000Y-89000000D03*
X90500000Y-104100000D03*
X93000000Y-97700000D03*
X89000000Y-104900000D03*
X133700000Y-82600000D03*
X156100000Y-91300000D03*
X101800000Y-99500000D03*
X154914500Y-133037763D03*
X120000000Y-90000000D03*
X127500000Y-101000000D03*
D25*
X83100000Y-90800000D03*
D24*
X112000000Y-88500000D03*
X121300000Y-90000000D03*
X123500000Y-82100000D03*
X119500000Y-100000000D03*
X97800000Y-104900000D03*
X156100000Y-85000000D03*
X148500000Y-102300000D03*
X117000000Y-89000000D03*
X154700000Y-98400000D03*
X139500000Y-105700000D03*
D25*
X110000000Y-87000000D03*
D24*
X156100000Y-89500000D03*
D25*
X104700000Y-81000000D03*
D24*
X94400000Y-104900000D03*
X84900000Y-104900000D03*
X110000000Y-85200000D03*
X152000000Y-93500000D03*
X156100000Y-82700000D03*
X92400000Y-127600000D03*
X97800000Y-99300000D03*
X154914500Y-132337763D03*
X155300000Y-96600000D03*
X125100000Y-84200000D03*
D25*
X105400000Y-84500000D03*
D24*
X94000000Y-124300000D03*
X90500000Y-102800000D03*
X130000000Y-81000000D03*
X87100000Y-104900000D03*
D25*
X108900000Y-87000000D03*
D24*
X112300000Y-102500000D03*
X109900000Y-132200000D03*
X130900000Y-84200000D03*
X109900000Y-132900000D03*
X97800000Y-98000000D03*
X112000000Y-87500000D03*
X156100000Y-96600000D03*
X107000000Y-100400000D03*
X117000000Y-90000000D03*
X152300000Y-94700000D03*
X96900000Y-127600000D03*
X153600000Y-81100000D03*
D25*
X84000000Y-91300000D03*
X93700000Y-89000000D03*
D24*
X154800000Y-104000000D03*
X112500000Y-104800000D03*
X90500000Y-99000000D03*
D25*
X106000000Y-81000000D03*
D24*
X135100000Y-101100000D03*
X90500000Y-97700000D03*
D25*
X83100000Y-92600000D03*
D24*
X123500000Y-81100000D03*
X118500000Y-90000000D03*
X84900000Y-103300000D03*
%TO.N,/3.3V*%
X95000000Y-103800000D03*
X133600000Y-84700000D03*
X99800000Y-102500000D03*
X127400000Y-89400000D03*
X101800000Y-101000000D03*
X150400000Y-99400000D03*
X152200000Y-96600000D03*
X152600000Y-87900000D03*
X110000000Y-91900000D03*
X147700000Y-83000000D03*
X136200000Y-83500000D03*
X134700000Y-98500000D03*
X149400000Y-100600000D03*
%TO.N,/AIN_V12V*%
X99600000Y-81300000D03*
X144800000Y-88100000D03*
%TO.N,/Driver/LO2*%
X110500000Y-105500000D03*
X119000000Y-114500000D03*
%TO.N,/Driver/LO3*%
X142500000Y-114500000D03*
X111000000Y-110500000D03*
D25*
%TO.N,/Driver/12V*%
X115100000Y-88400000D03*
X118000000Y-100500000D03*
X101800000Y-97000000D03*
X113500000Y-99000000D03*
X92500000Y-122100000D03*
D24*
%TO.N,/Driver/5V*%
X133800000Y-134700000D03*
X156300000Y-134700000D03*
X111300000Y-134700000D03*
X95300000Y-125700000D03*
%TO.N,/MOTOR-TEMP*%
X139700000Y-90300000D03*
X120500000Y-88500000D03*
%TO.N,/HALL1*%
X131500000Y-88500000D03*
%TO.N,/HALL2*%
X130500000Y-88500000D03*
%TO.N,/HALL3*%
X129500000Y-88500000D03*
%TO.N,/UART_T*%
X119500000Y-92300000D03*
X141700000Y-91700000D03*
%TO.N,/UART_R*%
X142500000Y-91700000D03*
X116600000Y-93300000D03*
%TO.N,/LED1*%
X147000000Y-103200000D03*
X145400000Y-104900000D03*
%TO.N,/LED2*%
X145400000Y-106600000D03*
X147700000Y-102700000D03*
%TO.N,/CAN-R*%
X138900000Y-94900000D03*
X104900000Y-103000000D03*
%TO.N,/CAN-T*%
X140000000Y-94900000D03*
X104900000Y-98100000D03*
%TO.N,/SWIO*%
X133000000Y-100400000D03*
%TO.N,/BLE_RX*%
X139800000Y-82300000D03*
X101000000Y-94900000D03*
X87100000Y-102500000D03*
D25*
%TO.N,/Driver/75V*%
X91400000Y-90000000D03*
X91400000Y-89000000D03*
D24*
X92600000Y-106800000D03*
X92600000Y-106200000D03*
D25*
X89400000Y-89000000D03*
X90400000Y-89000000D03*
%TD*%
D26*
%TO.N,/ADC_EXT*%
X124800000Y-91900000D02*
X127500000Y-91900000D01*
X123500000Y-91900000D02*
X124800000Y-91900000D01*
X143500000Y-88800000D02*
X143500000Y-88200000D01*
X140500000Y-91800000D02*
X143500000Y-88800000D01*
X127500000Y-91900000D02*
X127600000Y-91800000D01*
X127600000Y-91800000D02*
X140500000Y-91800000D01*
%TO.N,/AIN_V12V*%
X125700000Y-91300000D02*
X125900000Y-91300000D01*
X125900000Y-91300000D02*
X140000000Y-91300000D01*
X123600000Y-89200000D02*
X125700000Y-91300000D01*
X117200000Y-87500000D02*
X118900000Y-89200000D01*
X115200000Y-87500000D02*
X117200000Y-87500000D01*
X109600000Y-81900000D02*
X115200000Y-87500000D01*
X118900000Y-89200000D02*
X123600000Y-89200000D01*
X100200000Y-81900000D02*
X109600000Y-81900000D01*
X99600000Y-81300000D02*
X100200000Y-81900000D01*
%TO.N,/MOTOR-TEMP*%
X123700000Y-88500000D02*
X126000000Y-90800000D01*
X120500000Y-88500000D02*
X123700000Y-88500000D01*
X126000000Y-90800000D02*
X138000000Y-90800000D01*
X138000000Y-90800000D02*
X138500000Y-90300000D01*
X138500000Y-90300000D02*
X139700000Y-90300000D01*
%TO.N,/AIN_V12V*%
X144050000Y-87350000D02*
X144800000Y-88100000D01*
X142850000Y-87350000D02*
X144050000Y-87350000D01*
X142100000Y-88100000D02*
X142850000Y-87350000D01*
X142100000Y-89200000D02*
X142100000Y-88100000D01*
X140000000Y-91300000D02*
X142100000Y-89200000D01*
%TO.N,Net-(D2-A)*%
X99600000Y-117900000D02*
X99600000Y-119000000D01*
X97700000Y-116000000D02*
X99600000Y-117900000D01*
%TO.N,Net-(D5-A)*%
X114700000Y-117200000D02*
X113500000Y-116000000D01*
X122100000Y-119000000D02*
X120300000Y-117200000D01*
X120300000Y-117200000D02*
X114700000Y-117200000D01*
%TO.N,/BOOT0*%
X145400000Y-96000000D02*
X143700000Y-96000000D01*
X142200000Y-97500000D02*
X131400000Y-97500000D01*
X131400000Y-97500000D02*
X130500000Y-98400000D01*
X143700000Y-96000000D02*
X142200000Y-97500000D01*
%TO.N,Net-(D11-A)*%
X138100000Y-117000000D02*
X142600000Y-117000000D01*
X137100000Y-116000000D02*
X138100000Y-117000000D01*
X142600000Y-117000000D02*
X144600000Y-119000000D01*
%TO.N,/BLE_MODE*%
X96785536Y-97300000D02*
X99100000Y-97300000D01*
X87100000Y-103500000D02*
X87700000Y-103500000D01*
X87700000Y-103500000D02*
X89250960Y-101949040D01*
X92136496Y-101949040D02*
X96785536Y-97300000D01*
X89250960Y-101949040D02*
X92136496Y-101949040D01*
X99100000Y-97300000D02*
X100300000Y-96100000D01*
%TO.N,/BLE_TX*%
X88150000Y-100950000D02*
X91679290Y-100950000D01*
X97829290Y-96300000D02*
X100029290Y-94100000D01*
X87100000Y-101500000D02*
X87600000Y-101500000D01*
X100029290Y-94100000D02*
X101000000Y-94100000D01*
X87600000Y-101500000D02*
X88150000Y-100950000D01*
X96329290Y-96300000D02*
X97829290Y-96300000D01*
X91679290Y-100950000D02*
X96329290Y-96300000D01*
%TO.N,/AIN_CS3*%
X155000000Y-88400000D02*
X155000000Y-85200000D01*
X145500000Y-83500000D02*
X146000000Y-84000000D01*
X145500000Y-82500000D02*
X145500000Y-83500000D01*
X146000000Y-84000000D02*
X146000000Y-86000000D01*
X155000000Y-85200000D02*
X151600000Y-81800000D01*
X160000000Y-110300000D02*
X154000000Y-104300000D01*
X154000000Y-89400000D02*
X155000000Y-88400000D01*
X146200000Y-81800000D02*
X145500000Y-82500000D01*
X151600000Y-81800000D02*
X146200000Y-81800000D01*
X158500000Y-133100000D02*
X160000000Y-131600000D01*
X160000000Y-131600000D02*
X160000000Y-110300000D01*
X154000000Y-104300000D02*
X154000000Y-89400000D01*
%TO.N,/AIN_CS2*%
X154500480Y-85406908D02*
X154500480Y-88193092D01*
X153500000Y-89193572D02*
X153500000Y-104400000D01*
X151196786Y-82303214D02*
X151396786Y-82303214D01*
X147200000Y-82300000D02*
X151193572Y-82300000D01*
X151396786Y-82303214D02*
X154500480Y-85406908D01*
X146500000Y-83000000D02*
X147200000Y-82300000D01*
X159510499Y-110510499D02*
X153500000Y-104500000D01*
X159510499Y-123789501D02*
X159510499Y-110510499D01*
X141900000Y-126900000D02*
X156400000Y-126900000D01*
X151193572Y-82300000D02*
X151196786Y-82303214D01*
X153500000Y-104500000D02*
X153500000Y-104400000D01*
X154500480Y-88193092D02*
X153500000Y-89193572D01*
X156400000Y-126900000D02*
X159510499Y-123789501D01*
%TO.N,/AIN_CS1*%
X154000960Y-85613816D02*
X154000960Y-87986184D01*
X151687144Y-83300000D02*
X154000960Y-85613816D01*
X154000960Y-87986184D02*
X153000000Y-88987144D01*
X156400000Y-126200000D02*
X159020998Y-123579002D01*
X118800000Y-126100000D02*
X119700000Y-127000000D01*
X153000000Y-88987144D02*
X153000000Y-104700000D01*
X119700000Y-127000000D02*
X140400000Y-127000000D01*
X140400000Y-127000000D02*
X141200000Y-126200000D01*
X159020998Y-123579002D02*
X159020999Y-110720999D01*
X141200000Y-126200000D02*
X156400000Y-126200000D01*
X147000000Y-86000000D02*
X147000000Y-85100000D01*
X148800000Y-83300000D02*
X151687144Y-83300000D01*
X159020999Y-110720999D02*
X153000000Y-104700000D01*
X147000000Y-85100000D02*
X148800000Y-83300000D01*
%TO.N,/AIN_VS1*%
X130293091Y-96500481D02*
X129193092Y-97600480D01*
X141686663Y-96500481D02*
X130293091Y-96500481D01*
X129193092Y-97600480D02*
X123199520Y-97600480D01*
X121300000Y-99500000D02*
X120500000Y-99500000D01*
X123199520Y-97600480D02*
X121300000Y-99500000D01*
X151702471Y-85996500D02*
X151702471Y-86484673D01*
X151702471Y-86484673D02*
X141686663Y-96500481D01*
%TO.N,/AIN_VS2*%
X125900000Y-98100000D02*
X124500000Y-99500000D01*
X152400000Y-85600000D02*
X152400000Y-86493572D01*
X129400000Y-98100000D02*
X125900000Y-98100000D01*
X130500000Y-97000000D02*
X129400000Y-98100000D01*
X152400000Y-86493572D02*
X141893572Y-97000000D01*
X151300000Y-84500000D02*
X152400000Y-85600000D01*
X141893572Y-97000000D02*
X130500000Y-97000000D01*
X150000000Y-84500000D02*
X151300000Y-84500000D01*
%TO.N,/AIN_VS3*%
X148000000Y-85500000D02*
X148000000Y-86000000D01*
X151306428Y-83800000D02*
X149700000Y-83800000D01*
X153200000Y-85693572D02*
X151306428Y-83800000D01*
X146200000Y-93393759D02*
X153200000Y-86393759D01*
X128500000Y-99500000D02*
X128524511Y-99524511D01*
X145800000Y-96800000D02*
X146200000Y-96400000D01*
X146200000Y-96400000D02*
X146200000Y-93393759D01*
X144000000Y-96800000D02*
X145800000Y-96800000D01*
X141275489Y-99524511D02*
X144000000Y-96800000D01*
X153200000Y-86393759D02*
X153200000Y-85693572D01*
X128524511Y-99524511D02*
X141275489Y-99524511D01*
X149700000Y-83800000D02*
X148000000Y-85500000D01*
%TO.N,/AIN_VIN*%
X128986184Y-97100960D02*
X122263322Y-97100960D01*
X145500000Y-91980716D02*
X141479755Y-96000961D01*
X144500000Y-86800000D02*
X145500000Y-87800000D01*
X130086184Y-96000961D02*
X128986184Y-97100960D01*
X145500000Y-87800000D02*
X145500000Y-91980716D01*
X110100000Y-100200000D02*
X110100000Y-102600000D01*
X112100000Y-98200000D02*
X110100000Y-100200000D01*
X141479755Y-96000961D02*
X130086184Y-96000961D01*
X121164282Y-98200000D02*
X112100000Y-98200000D01*
X144500000Y-86000000D02*
X144500000Y-86800000D01*
X122263322Y-97100960D02*
X121164282Y-98200000D01*
%TO.N,/ADC_EXT*%
X123200000Y-91600000D02*
X123500000Y-91900000D01*
X115600000Y-92700000D02*
X116700000Y-91600000D01*
X115600000Y-95350000D02*
X115600000Y-92700000D01*
X116700000Y-91600000D02*
X123200000Y-91600000D01*
%TO.N,/DEBUG_TX*%
X138600000Y-82090000D02*
X138600000Y-82600000D01*
X157240000Y-83900000D02*
X158200000Y-84860000D01*
X151890000Y-81190000D02*
X139500000Y-81190000D01*
X139500000Y-81190000D02*
X138600000Y-82090000D01*
X154600000Y-83900000D02*
X154200000Y-83500000D01*
X154200000Y-83500000D02*
X151890000Y-81190000D01*
X157240000Y-83900000D02*
X154600000Y-83900000D01*
%TO.N,/DEBUG_RX*%
X153400000Y-82000000D02*
X152100000Y-80700000D01*
X156500000Y-82000000D02*
X153400000Y-82000000D01*
X152100000Y-80700000D02*
X139200000Y-80700000D01*
X156820000Y-82320000D02*
X156500000Y-82000000D01*
X139200000Y-80700000D02*
X137800000Y-82100000D01*
X137800000Y-82100000D02*
X137800000Y-82600000D01*
X158200000Y-82320000D02*
X156820000Y-82320000D01*
D27*
%TO.N,/3.3V*%
X110000000Y-91900000D02*
X110000000Y-92700000D01*
D26*
X99800000Y-103100000D02*
X99800000Y-102500000D01*
D27*
X104100000Y-94500000D02*
X104100000Y-95267532D01*
D26*
X99100000Y-103800000D02*
X95000000Y-103800000D01*
D27*
X103200000Y-96167532D02*
X103200000Y-100200000D01*
D26*
X131099520Y-90200480D02*
X133600000Y-87700000D01*
X133600000Y-87700000D02*
X133600000Y-84700000D01*
X128200480Y-90200480D02*
X131099520Y-90200480D01*
D27*
X103200000Y-100200000D02*
X102400000Y-101000000D01*
X104900000Y-93700000D02*
X104100000Y-94500000D01*
D26*
X99800000Y-103100000D02*
X99100000Y-103800000D01*
D27*
X104100000Y-95267532D02*
X103200000Y-96167532D01*
D26*
X127400000Y-89400000D02*
X128200480Y-90200480D01*
D27*
X110000000Y-92700000D02*
X109000000Y-93700000D01*
X102400000Y-101000000D02*
X101800000Y-101000000D01*
X109000000Y-93700000D02*
X104900000Y-93700000D01*
D26*
%TO.N,/Driver/LO2*%
X110000000Y-110500000D02*
X114000000Y-114500000D01*
X110500000Y-105500000D02*
X110000000Y-106000000D01*
X110000000Y-106000000D02*
X110000000Y-110500000D01*
X114000000Y-114500000D02*
X119000000Y-114500000D01*
%TO.N,/Driver/LO3*%
X122000000Y-113500000D02*
X123000000Y-114500000D01*
X114000000Y-113500000D02*
X122000000Y-113500000D01*
X123000000Y-114500000D02*
X142500000Y-114500000D01*
X111000000Y-110500000D02*
X114000000Y-113500000D01*
D27*
%TO.N,/Driver/12V*%
X101800000Y-97000000D02*
X101800000Y-85200000D01*
X110000000Y-83300000D02*
X110150000Y-83450000D01*
X115100000Y-88400000D02*
X110150000Y-83450000D01*
X94000000Y-109300000D02*
X94000000Y-115700000D01*
X97800000Y-107200000D02*
X96100000Y-107200000D01*
X94000000Y-115700000D02*
X92500000Y-117200000D01*
X96100000Y-107200000D02*
X94000000Y-109300000D01*
X101800000Y-97000000D02*
X100700000Y-98100000D01*
X100000000Y-84500000D02*
X101200000Y-83300000D01*
X113500000Y-99000000D02*
X115500000Y-99000000D01*
X92500000Y-117200000D02*
X92500000Y-122100000D01*
X115500000Y-99000000D02*
X117000000Y-100500000D01*
X100700000Y-98100000D02*
X100700000Y-104300000D01*
X101800000Y-85200000D02*
X101100000Y-84500000D01*
X100700000Y-104300000D02*
X97800000Y-107200000D01*
X101100000Y-84500000D02*
X100000000Y-84500000D01*
X117000000Y-100500000D02*
X118000000Y-100500000D01*
X101200000Y-83300000D02*
X110000000Y-83300000D01*
D28*
%TO.N,/Driver/5V*%
X108900000Y-128000000D02*
X108600000Y-127700000D01*
X132100000Y-134700000D02*
X131600000Y-134200000D01*
X156300000Y-134700000D02*
X154600000Y-134700000D01*
X131100000Y-127700000D02*
X131500000Y-128100000D01*
X108600000Y-127700000D02*
X131100000Y-127700000D01*
X99600000Y-127700000D02*
X98100000Y-126200000D01*
X95800000Y-126200000D02*
X95300000Y-125700000D01*
X153600000Y-127700000D02*
X153500000Y-127700000D01*
X154600000Y-134700000D02*
X154100000Y-134200000D01*
X154100000Y-128200000D02*
X153600000Y-127700000D01*
X131100000Y-127700000D02*
X153500000Y-127700000D01*
X154100000Y-134200000D02*
X154100000Y-128200000D01*
X108600000Y-127700000D02*
X99600000Y-127700000D01*
X133800000Y-134700000D02*
X132100000Y-134700000D01*
X108900000Y-133900000D02*
X108900000Y-128000000D01*
X109700000Y-134700000D02*
X108900000Y-133900000D01*
X111300000Y-134700000D02*
X109700000Y-134700000D01*
X98100000Y-126200000D02*
X95800000Y-126200000D01*
X131500000Y-128100000D02*
X131500000Y-134100000D01*
X131500000Y-134100000D02*
X131600000Y-134200000D01*
D26*
%TO.N,/MOTOR-TEMP*%
X120500000Y-88500000D02*
X119000000Y-88500000D01*
X115500000Y-85000000D02*
X115500000Y-83550000D01*
X119000000Y-88500000D02*
X115500000Y-85000000D01*
%TO.N,/HALL1*%
X117500000Y-85000000D02*
X119200000Y-86700000D01*
X125800000Y-86700000D02*
X128800000Y-89700000D01*
X117500000Y-83550000D02*
X117500000Y-85000000D01*
X119200000Y-86700000D02*
X125800000Y-86700000D01*
X130300000Y-89700000D02*
X131500000Y-88500000D01*
X128800000Y-89700000D02*
X130300000Y-89700000D01*
%TO.N,/HALL2*%
X119500000Y-85000000D02*
X120600000Y-86100000D01*
X126000000Y-86100000D02*
X129100480Y-89200480D01*
X119500000Y-83550000D02*
X119500000Y-85000000D01*
X129799520Y-89200480D02*
X130500000Y-88500000D01*
X120600000Y-86100000D02*
X126000000Y-86100000D01*
X129100480Y-89200480D02*
X129799520Y-89200480D01*
%TO.N,/HALL3*%
X121500000Y-83550000D02*
X121500000Y-85000000D01*
X121500000Y-85000000D02*
X122000000Y-85500000D01*
X122000000Y-85500000D02*
X126500000Y-85500000D01*
X126500000Y-85500000D02*
X129500000Y-88500000D01*
%TO.N,/UART_T*%
X119500000Y-92300000D02*
X120430000Y-93230000D01*
X140620000Y-93230000D02*
X141700000Y-92150000D01*
X120430000Y-93230000D02*
X140620000Y-93230000D01*
X141700000Y-92150000D02*
X141700000Y-91700000D01*
%TO.N,/UART_R*%
X140980000Y-93720000D02*
X142500000Y-92200000D01*
X116600000Y-93300000D02*
X117020000Y-93720000D01*
X117020000Y-93720000D02*
X140980000Y-93720000D01*
X142500000Y-92200000D02*
X142500000Y-91700000D01*
%TO.N,/LED1*%
X147000000Y-104100000D02*
X147000000Y-103200000D01*
X145400000Y-104900000D02*
X146200000Y-104900000D01*
X146200000Y-104900000D02*
X147000000Y-104100000D01*
%TO.N,/LED2*%
X147700000Y-104300000D02*
X147700000Y-102700000D01*
X145400000Y-106600000D02*
X147700000Y-104300000D01*
%TO.N,/CAN-R*%
X104900000Y-99700000D02*
X106924511Y-97675489D01*
X123900000Y-94700000D02*
X138700000Y-94700000D01*
X106924511Y-97675489D02*
X120924511Y-97675489D01*
X138700000Y-94700000D02*
X138900000Y-94900000D01*
X120924511Y-97675489D02*
X123900000Y-94700000D01*
X104900000Y-103000000D02*
X104900000Y-99700000D01*
%TO.N,/CAN-T*%
X139310000Y-94210000D02*
X139400000Y-94300000D01*
X123596786Y-94296786D02*
X123683572Y-94210000D01*
X120793572Y-97100000D02*
X105900000Y-97100000D01*
X123596786Y-94296786D02*
X120793572Y-97100000D01*
X123683572Y-94210000D02*
X139310000Y-94210000D01*
X105900000Y-97100000D02*
X104900000Y-98100000D01*
X140000000Y-94900000D02*
X139400000Y-94300000D01*
%TO.N,/SWIO*%
X135600000Y-100400000D02*
X133000000Y-100400000D01*
X136500000Y-101300000D02*
X135600000Y-100400000D01*
X141320000Y-101300000D02*
X142620000Y-102600000D01*
X136500000Y-101300000D02*
X141320000Y-101300000D01*
%TO.N,/BLE_RX*%
X87700000Y-102500000D02*
X88750480Y-101449520D01*
X96535718Y-96800000D02*
X98035718Y-96800000D01*
X87100000Y-102500000D02*
X87700000Y-102500000D01*
X88750480Y-101449520D02*
X91886198Y-101449520D01*
X91886198Y-101449520D02*
X96535718Y-96800000D01*
X98035718Y-96800000D02*
X99935718Y-94900000D01*
X99935718Y-94900000D02*
X101000000Y-94900000D01*
%TD*%
%TA.AperFunction,Conductor*%
%TO.N,/ADC_EXT*%
G36*
X124906546Y-91673751D02*
G01*
X124991801Y-91710762D01*
X125060950Y-91740765D01*
X125061492Y-91740970D01*
X125122546Y-91760586D01*
X125123469Y-91760802D01*
X125195905Y-91771608D01*
X125196562Y-91771668D01*
X125288677Y-91774635D01*
X125296835Y-91778327D01*
X125300000Y-91786329D01*
X125300000Y-92013671D01*
X125296573Y-92021944D01*
X125288677Y-92025365D01*
X125196562Y-92028331D01*
X125195905Y-92028391D01*
X125123469Y-92039197D01*
X125122546Y-92039413D01*
X125061492Y-92059028D01*
X125060950Y-92059233D01*
X124991801Y-92089237D01*
X124906546Y-92126249D01*
X124897593Y-92126400D01*
X124891094Y-92120034D01*
X124800891Y-91904517D01*
X124800891Y-91895483D01*
X124891094Y-91679966D01*
X124897450Y-91673657D01*
X124906546Y-91673751D01*
G37*
%TD.AperFunction*%
%TD*%
%TA.AperFunction,Conductor*%
%TO.N,/ADC_EXT*%
G36*
X124538506Y-92059028D02*
G01*
X124477453Y-92039413D01*
X124476530Y-92039197D01*
X124404094Y-92028391D01*
X124403437Y-92028331D01*
X124311323Y-92025365D01*
X124303165Y-92021674D01*
X124300000Y-92013671D01*
X124300000Y-91786329D01*
X124303427Y-91778056D01*
X124311323Y-91774635D01*
X124403437Y-91771668D01*
X124404094Y-91771608D01*
X124476530Y-91760802D01*
X124477453Y-91760586D01*
X124538506Y-91740970D01*
X124539048Y-91740765D01*
X124608197Y-91710762D01*
X124693454Y-91673751D01*
X124702407Y-91673600D01*
X124708906Y-91679966D01*
X124799109Y-91895483D01*
X124799109Y-91904517D01*
X124708906Y-92120034D01*
X124702550Y-92126343D01*
X124693454Y-92126249D01*
X124608197Y-92089237D01*
X124539048Y-92059233D01*
X124538506Y-92059028D01*
G37*
%TD.AperFunction*%
%TD*%
%TA.AperFunction,Conductor*%
%TO.N,/ADC_EXT*%
G36*
X143720034Y-88191094D02*
G01*
X143726343Y-88197450D01*
X143726249Y-88206546D01*
X143689237Y-88291801D01*
X143659233Y-88360950D01*
X143659028Y-88361492D01*
X143639413Y-88422546D01*
X143639197Y-88423469D01*
X143628391Y-88495905D01*
X143628331Y-88496562D01*
X143625365Y-88588677D01*
X143621674Y-88596835D01*
X143613671Y-88600000D01*
X143386329Y-88600000D01*
X143378056Y-88596573D01*
X143374635Y-88588677D01*
X143371668Y-88496562D01*
X143371608Y-88495905D01*
X143360802Y-88423469D01*
X143360586Y-88422546D01*
X143340970Y-88361492D01*
X143340765Y-88360950D01*
X143310762Y-88291801D01*
X143273751Y-88206546D01*
X143273600Y-88197593D01*
X143279966Y-88191094D01*
X143495483Y-88100891D01*
X143504517Y-88100891D01*
X143720034Y-88191094D01*
G37*
%TD.AperFunction*%
%TD*%
%TA.AperFunction,Conductor*%
%TO.N,/AIN_V12V*%
G36*
X99828955Y-81208858D02*
G01*
X99835321Y-81215357D01*
X99869435Y-81301812D01*
X99897116Y-81371929D01*
X99897353Y-81372451D01*
X99926655Y-81429495D01*
X99927154Y-81430298D01*
X99970726Y-81489150D01*
X99971163Y-81489674D01*
X100034193Y-81556900D01*
X100037352Y-81565280D01*
X100033931Y-81573176D01*
X99873176Y-81733931D01*
X99864903Y-81737358D01*
X99856900Y-81734193D01*
X99789674Y-81671163D01*
X99789150Y-81670726D01*
X99730298Y-81627154D01*
X99729495Y-81626655D01*
X99672451Y-81597353D01*
X99671929Y-81597116D01*
X99601812Y-81569435D01*
X99515357Y-81535321D01*
X99508919Y-81529097D01*
X99508825Y-81520000D01*
X99597436Y-81303824D01*
X99603824Y-81297436D01*
X99820000Y-81208825D01*
X99828955Y-81208858D01*
G37*
%TD.AperFunction*%
%TD*%
%TA.AperFunction,Conductor*%
%TO.N,/MOTOR-TEMP*%
G36*
X120606546Y-88273751D02*
G01*
X120691801Y-88310762D01*
X120760950Y-88340765D01*
X120761492Y-88340970D01*
X120822546Y-88360586D01*
X120823469Y-88360802D01*
X120895905Y-88371608D01*
X120896562Y-88371668D01*
X120988677Y-88374635D01*
X120996835Y-88378327D01*
X121000000Y-88386329D01*
X121000000Y-88613671D01*
X120996573Y-88621944D01*
X120988677Y-88625365D01*
X120896562Y-88628331D01*
X120895905Y-88628391D01*
X120823469Y-88639197D01*
X120822546Y-88639413D01*
X120761492Y-88659028D01*
X120760950Y-88659233D01*
X120691801Y-88689237D01*
X120606546Y-88726249D01*
X120597593Y-88726400D01*
X120591094Y-88720034D01*
X120500891Y-88504517D01*
X120500891Y-88495483D01*
X120591094Y-88279966D01*
X120597450Y-88273657D01*
X120606546Y-88273751D01*
G37*
%TD.AperFunction*%
%TD*%
%TA.AperFunction,Conductor*%
%TO.N,/MOTOR-TEMP*%
G36*
X139438506Y-90459028D02*
G01*
X139377453Y-90439413D01*
X139376530Y-90439197D01*
X139304094Y-90428391D01*
X139303437Y-90428331D01*
X139211323Y-90425365D01*
X139203165Y-90421674D01*
X139200000Y-90413671D01*
X139200000Y-90186329D01*
X139203427Y-90178056D01*
X139211323Y-90174635D01*
X139303437Y-90171668D01*
X139304094Y-90171608D01*
X139376530Y-90160802D01*
X139377453Y-90160586D01*
X139438506Y-90140970D01*
X139439048Y-90140765D01*
X139508197Y-90110762D01*
X139593454Y-90073751D01*
X139602407Y-90073600D01*
X139608906Y-90079966D01*
X139699109Y-90295483D01*
X139699109Y-90304517D01*
X139608906Y-90520034D01*
X139602550Y-90526343D01*
X139593454Y-90526249D01*
X139508197Y-90489237D01*
X139439048Y-90459233D01*
X139438506Y-90459028D01*
G37*
%TD.AperFunction*%
%TD*%
%TA.AperFunction,Conductor*%
%TO.N,/AIN_V12V*%
G36*
X144502645Y-88027548D02*
G01*
X144473344Y-87970504D01*
X144472845Y-87969701D01*
X144429276Y-87910854D01*
X144428826Y-87910315D01*
X144365807Y-87843099D01*
X144362648Y-87834720D01*
X144366069Y-87826824D01*
X144526824Y-87666069D01*
X144535097Y-87662642D01*
X144543099Y-87665807D01*
X144610315Y-87728826D01*
X144610854Y-87729276D01*
X144669701Y-87772845D01*
X144670504Y-87773344D01*
X144727548Y-87802645D01*
X144728070Y-87802882D01*
X144798186Y-87830563D01*
X144884644Y-87864679D01*
X144891081Y-87870903D01*
X144891175Y-87880000D01*
X144802564Y-88096176D01*
X144796176Y-88102564D01*
X144580000Y-88191175D01*
X144571045Y-88191142D01*
X144564679Y-88184644D01*
X144530563Y-88098186D01*
X144502882Y-88028070D01*
X144502645Y-88027548D01*
G37*
%TD.AperFunction*%
%TD*%
%TA.AperFunction,Conductor*%
%TO.N,Net-(D2-A)*%
G36*
X99413746Y-117535523D02*
G01*
X99597779Y-117687108D01*
X99598283Y-117687480D01*
X99790186Y-117813499D01*
X99790823Y-117813862D01*
X99982593Y-117907762D01*
X99983363Y-117908074D01*
X100175012Y-117969907D01*
X100175890Y-117970116D01*
X100348433Y-117996968D01*
X100356081Y-118001626D01*
X100358195Y-118010328D01*
X100355919Y-118015648D01*
X99609030Y-118989851D01*
X99601277Y-118994331D01*
X99592626Y-118992017D01*
X99591273Y-118990802D01*
X98662659Y-118015914D01*
X98659434Y-118007560D01*
X98663061Y-117999372D01*
X98669167Y-117996310D01*
X98763304Y-117980281D01*
X98764182Y-117980059D01*
X98879616Y-117940993D01*
X98880381Y-117940672D01*
X98995926Y-117882140D01*
X98996569Y-117881762D01*
X99112255Y-117803707D01*
X99112757Y-117803327D01*
X99228577Y-117705708D01*
X99228946Y-117705369D01*
X99398034Y-117536281D01*
X99406307Y-117532854D01*
X99413746Y-117535523D01*
G37*
%TD.AperFunction*%
%TD*%
%TA.AperFunction,Conductor*%
%TO.N,Net-(D2-A)*%
G36*
X97928955Y-115908858D02*
G01*
X97935321Y-115915357D01*
X97969435Y-116001812D01*
X97997116Y-116071929D01*
X97997353Y-116072451D01*
X98026655Y-116129495D01*
X98027154Y-116130298D01*
X98070726Y-116189150D01*
X98071163Y-116189674D01*
X98134193Y-116256900D01*
X98137352Y-116265280D01*
X98133931Y-116273176D01*
X97973176Y-116433931D01*
X97964903Y-116437358D01*
X97956900Y-116434193D01*
X97889674Y-116371163D01*
X97889150Y-116370726D01*
X97830298Y-116327154D01*
X97829495Y-116326655D01*
X97772451Y-116297353D01*
X97771929Y-116297116D01*
X97701812Y-116269435D01*
X97615357Y-116235321D01*
X97608919Y-116229097D01*
X97608825Y-116220000D01*
X97697436Y-116003824D01*
X97703824Y-115997436D01*
X97920000Y-115908825D01*
X97928955Y-115908858D01*
G37*
%TD.AperFunction*%
%TD*%
%TA.AperFunction,Conductor*%
%TO.N,Net-(D5-A)*%
G36*
X113728955Y-115908858D02*
G01*
X113735321Y-115915357D01*
X113769435Y-116001812D01*
X113797116Y-116071929D01*
X113797353Y-116072451D01*
X113826655Y-116129495D01*
X113827154Y-116130298D01*
X113870726Y-116189150D01*
X113871163Y-116189674D01*
X113934193Y-116256900D01*
X113937352Y-116265280D01*
X113933931Y-116273176D01*
X113773176Y-116433931D01*
X113764903Y-116437358D01*
X113756900Y-116434193D01*
X113689674Y-116371163D01*
X113689150Y-116370726D01*
X113630298Y-116327154D01*
X113629495Y-116326655D01*
X113572451Y-116297353D01*
X113571929Y-116297116D01*
X113501812Y-116269435D01*
X113415357Y-116235321D01*
X113408919Y-116229097D01*
X113408825Y-116220000D01*
X113497436Y-116003824D01*
X113503824Y-115997436D01*
X113720000Y-115908825D01*
X113728955Y-115908858D01*
G37*
%TD.AperFunction*%
%TD*%
%TA.AperFunction,Conductor*%
%TO.N,Net-(D5-A)*%
G36*
X120890066Y-117609900D02*
G01*
X121194953Y-117781084D01*
X121195613Y-117781403D01*
X121507835Y-117908408D01*
X121508619Y-117908665D01*
X121820733Y-117987344D01*
X121821592Y-117987493D01*
X122133646Y-118017886D01*
X122134551Y-118017904D01*
X122429600Y-118000999D01*
X122438055Y-118003947D01*
X122441950Y-118012011D01*
X122441326Y-118016507D01*
X122102429Y-118995732D01*
X122095840Y-119002718D01*
X121160528Y-119389156D01*
X121151573Y-119389148D01*
X121145247Y-119382811D01*
X121144609Y-119380743D01*
X121059133Y-118972900D01*
X121059086Y-118972693D01*
X120970755Y-118600844D01*
X120970691Y-118600589D01*
X120882370Y-118278395D01*
X120882289Y-118278125D01*
X120794008Y-118005666D01*
X120793877Y-118005300D01*
X120708390Y-117789481D01*
X120708530Y-117780527D01*
X120710995Y-117776899D01*
X120876065Y-117611829D01*
X120884338Y-117608402D01*
X120890066Y-117609900D01*
G37*
%TD.AperFunction*%
%TD*%
%TA.AperFunction,Conductor*%
%TO.N,/BOOT0*%
G36*
X145138506Y-96159028D02*
G01*
X145077453Y-96139413D01*
X145076530Y-96139197D01*
X145004094Y-96128391D01*
X145003437Y-96128331D01*
X144911323Y-96125365D01*
X144903165Y-96121674D01*
X144900000Y-96113671D01*
X144900000Y-95886329D01*
X144903427Y-95878056D01*
X144911323Y-95874635D01*
X145003437Y-95871668D01*
X145004094Y-95871608D01*
X145076530Y-95860802D01*
X145077453Y-95860586D01*
X145138506Y-95840970D01*
X145139048Y-95840765D01*
X145208197Y-95810762D01*
X145293454Y-95773751D01*
X145302407Y-95773600D01*
X145308906Y-95779966D01*
X145399109Y-95995483D01*
X145399109Y-96004517D01*
X145308906Y-96220034D01*
X145302550Y-96226343D01*
X145293454Y-96226249D01*
X145208197Y-96189237D01*
X145139048Y-96159233D01*
X145138506Y-96159028D01*
G37*
%TD.AperFunction*%
%TD*%
%TA.AperFunction,Conductor*%
%TO.N,/BOOT0*%
G36*
X130773175Y-97966068D02*
G01*
X130933931Y-98126824D01*
X130937358Y-98135097D01*
X130934193Y-98143100D01*
X130871163Y-98210325D01*
X130870726Y-98210849D01*
X130827154Y-98269701D01*
X130826655Y-98270504D01*
X130797353Y-98327548D01*
X130797116Y-98328070D01*
X130769435Y-98398186D01*
X130735321Y-98484643D01*
X130729097Y-98491081D01*
X130720000Y-98491175D01*
X130503824Y-98402564D01*
X130497436Y-98396176D01*
X130408825Y-98180000D01*
X130408858Y-98171045D01*
X130415356Y-98164679D01*
X130501812Y-98130563D01*
X130571929Y-98102882D01*
X130572451Y-98102645D01*
X130629495Y-98073344D01*
X130630298Y-98072845D01*
X130689145Y-98029276D01*
X130689684Y-98028827D01*
X130756900Y-97965806D01*
X130765279Y-97962647D01*
X130773175Y-97966068D01*
G37*
%TD.AperFunction*%
%TD*%
%TA.AperFunction,Conductor*%
%TO.N,Net-(D11-A)*%
G36*
X137328955Y-115908858D02*
G01*
X137335321Y-115915357D01*
X137369435Y-116001812D01*
X137397116Y-116071929D01*
X137397353Y-116072451D01*
X137426655Y-116129495D01*
X137427154Y-116130298D01*
X137470726Y-116189150D01*
X137471163Y-116189674D01*
X137534193Y-116256900D01*
X137537352Y-116265280D01*
X137533931Y-116273176D01*
X137373176Y-116433931D01*
X137364903Y-116437358D01*
X137356900Y-116434193D01*
X137289674Y-116371163D01*
X137289150Y-116370726D01*
X137230298Y-116327154D01*
X137229495Y-116326655D01*
X137172451Y-116297353D01*
X137171929Y-116297116D01*
X137101812Y-116269435D01*
X137015357Y-116235321D01*
X137008919Y-116229097D01*
X137008825Y-116220000D01*
X137097436Y-116003824D01*
X137103824Y-115997436D01*
X137320000Y-115908825D01*
X137328955Y-115908858D01*
G37*
%TD.AperFunction*%
%TD*%
%TA.AperFunction,Conductor*%
%TO.N,Net-(D11-A)*%
G36*
X143390066Y-117609900D02*
G01*
X143694953Y-117781084D01*
X143695613Y-117781403D01*
X144007835Y-117908408D01*
X144008619Y-117908665D01*
X144320733Y-117987344D01*
X144321592Y-117987493D01*
X144633646Y-118017886D01*
X144634551Y-118017904D01*
X144929600Y-118000999D01*
X144938055Y-118003947D01*
X144941950Y-118012011D01*
X144941326Y-118016507D01*
X144602429Y-118995732D01*
X144595840Y-119002718D01*
X143660528Y-119389156D01*
X143651573Y-119389148D01*
X143645247Y-119382811D01*
X143644609Y-119380743D01*
X143559133Y-118972900D01*
X143559086Y-118972693D01*
X143470755Y-118600844D01*
X143470691Y-118600589D01*
X143382370Y-118278395D01*
X143382289Y-118278125D01*
X143294008Y-118005666D01*
X143293877Y-118005300D01*
X143208390Y-117789481D01*
X143208530Y-117780527D01*
X143210995Y-117776899D01*
X143376065Y-117611829D01*
X143384338Y-117608402D01*
X143390066Y-117609900D01*
G37*
%TD.AperFunction*%
%TD*%
%TA.AperFunction,Conductor*%
%TO.N,/BLE_MODE*%
G36*
X87206546Y-103273751D02*
G01*
X87291801Y-103310762D01*
X87360950Y-103340765D01*
X87361492Y-103340970D01*
X87422546Y-103360586D01*
X87423469Y-103360802D01*
X87495905Y-103371608D01*
X87496562Y-103371668D01*
X87588677Y-103374635D01*
X87596835Y-103378327D01*
X87600000Y-103386329D01*
X87600000Y-103613671D01*
X87596573Y-103621944D01*
X87588677Y-103625365D01*
X87496562Y-103628331D01*
X87495905Y-103628391D01*
X87423469Y-103639197D01*
X87422546Y-103639413D01*
X87361492Y-103659028D01*
X87360950Y-103659233D01*
X87291801Y-103689237D01*
X87206546Y-103726249D01*
X87197593Y-103726400D01*
X87191094Y-103720034D01*
X87100891Y-103504517D01*
X87100891Y-103495483D01*
X87191094Y-103279966D01*
X87197450Y-103273657D01*
X87206546Y-103273751D01*
G37*
%TD.AperFunction*%
%TD*%
%TA.AperFunction,Conductor*%
%TO.N,/BLE_MODE*%
G36*
X100296176Y-96097436D02*
G01*
X100302564Y-96103824D01*
X100391175Y-96320000D01*
X100391142Y-96328955D01*
X100384643Y-96335321D01*
X100298186Y-96369435D01*
X100228070Y-96397116D01*
X100227548Y-96397353D01*
X100170504Y-96426655D01*
X100169701Y-96427154D01*
X100110849Y-96470726D01*
X100110325Y-96471163D01*
X100043100Y-96534193D01*
X100034720Y-96537352D01*
X100026824Y-96533931D01*
X99866068Y-96373175D01*
X99862641Y-96364902D01*
X99865806Y-96356900D01*
X99928827Y-96289684D01*
X99929276Y-96289145D01*
X99972845Y-96230298D01*
X99973344Y-96229495D01*
X100002645Y-96172451D01*
X100002882Y-96171929D01*
X100030563Y-96101812D01*
X100064679Y-96015356D01*
X100070903Y-96008919D01*
X100080000Y-96008825D01*
X100296176Y-96097436D01*
G37*
%TD.AperFunction*%
%TD*%
%TA.AperFunction,Conductor*%
%TO.N,/BLE_TX*%
G36*
X87206546Y-101273751D02*
G01*
X87291801Y-101310762D01*
X87360950Y-101340765D01*
X87361492Y-101340970D01*
X87422546Y-101360586D01*
X87423469Y-101360802D01*
X87495905Y-101371608D01*
X87496562Y-101371668D01*
X87588677Y-101374635D01*
X87596835Y-101378327D01*
X87600000Y-101386329D01*
X87600000Y-101613671D01*
X87596573Y-101621944D01*
X87588677Y-101625365D01*
X87496562Y-101628331D01*
X87495905Y-101628391D01*
X87423469Y-101639197D01*
X87422546Y-101639413D01*
X87361492Y-101659028D01*
X87360950Y-101659233D01*
X87291801Y-101689237D01*
X87206546Y-101726249D01*
X87197593Y-101726400D01*
X87191094Y-101720034D01*
X87100891Y-101504517D01*
X87100891Y-101495483D01*
X87191094Y-101279966D01*
X87197450Y-101273657D01*
X87206546Y-101273751D01*
G37*
%TD.AperFunction*%
%TD*%
%TA.AperFunction,Conductor*%
%TO.N,/BLE_TX*%
G36*
X100738506Y-94259028D02*
G01*
X100677453Y-94239413D01*
X100676530Y-94239197D01*
X100604094Y-94228391D01*
X100603437Y-94228331D01*
X100511323Y-94225365D01*
X100503165Y-94221674D01*
X100500000Y-94213671D01*
X100500000Y-93986329D01*
X100503427Y-93978056D01*
X100511323Y-93974635D01*
X100603437Y-93971668D01*
X100604094Y-93971608D01*
X100676530Y-93960802D01*
X100677453Y-93960586D01*
X100738506Y-93940970D01*
X100739048Y-93940765D01*
X100808197Y-93910762D01*
X100893454Y-93873751D01*
X100902407Y-93873600D01*
X100908906Y-93879966D01*
X100999109Y-94095483D01*
X100999109Y-94104517D01*
X100908906Y-94320034D01*
X100902550Y-94326343D01*
X100893454Y-94326249D01*
X100808197Y-94289237D01*
X100739048Y-94259233D01*
X100738506Y-94259028D01*
G37*
%TD.AperFunction*%
%TD*%
%TA.AperFunction,Conductor*%
%TO.N,/AIN_CS3*%
G36*
X146121944Y-85503427D02*
G01*
X146125365Y-85511323D01*
X146128331Y-85603437D01*
X146128391Y-85604094D01*
X146139197Y-85676530D01*
X146139413Y-85677453D01*
X146159028Y-85738506D01*
X146159233Y-85739048D01*
X146189237Y-85808197D01*
X146226249Y-85893454D01*
X146226400Y-85902407D01*
X146220034Y-85908906D01*
X146004517Y-85999109D01*
X145995483Y-85999109D01*
X145779966Y-85908906D01*
X145773657Y-85902550D01*
X145773751Y-85893454D01*
X145810762Y-85808197D01*
X145840765Y-85739048D01*
X145840970Y-85738506D01*
X145860586Y-85677453D01*
X145860802Y-85676530D01*
X145871608Y-85604094D01*
X145871668Y-85603437D01*
X145874635Y-85511323D01*
X145878327Y-85503165D01*
X145886329Y-85500000D01*
X146113671Y-85500000D01*
X146121944Y-85503427D01*
G37*
%TD.AperFunction*%
%TD*%
%TA.AperFunction,Conductor*%
%TO.N,/AIN_CS3*%
G36*
X158773175Y-132666068D02*
G01*
X158933931Y-132826824D01*
X158937358Y-132835097D01*
X158934193Y-132843100D01*
X158871163Y-132910325D01*
X158870726Y-132910849D01*
X158827154Y-132969701D01*
X158826655Y-132970504D01*
X158797353Y-133027548D01*
X158797116Y-133028070D01*
X158769435Y-133098186D01*
X158735321Y-133184643D01*
X158729097Y-133191081D01*
X158720000Y-133191175D01*
X158503824Y-133102564D01*
X158497436Y-133096176D01*
X158408825Y-132880000D01*
X158408858Y-132871045D01*
X158415356Y-132864679D01*
X158501812Y-132830563D01*
X158571929Y-132802882D01*
X158572451Y-132802645D01*
X158629495Y-132773344D01*
X158630298Y-132772845D01*
X158689145Y-132729276D01*
X158689684Y-132728827D01*
X158756900Y-132665806D01*
X158765279Y-132662647D01*
X158773175Y-132666068D01*
G37*
%TD.AperFunction*%
%TD*%
%TA.AperFunction,Conductor*%
%TO.N,/AIN_CS2*%
G36*
X146773175Y-82566068D02*
G01*
X146933931Y-82726824D01*
X146937358Y-82735097D01*
X146934193Y-82743100D01*
X146871163Y-82810325D01*
X146870726Y-82810849D01*
X146827154Y-82869701D01*
X146826655Y-82870504D01*
X146797353Y-82927548D01*
X146797116Y-82928070D01*
X146769435Y-82998186D01*
X146735321Y-83084643D01*
X146729097Y-83091081D01*
X146720000Y-83091175D01*
X146503824Y-83002564D01*
X146497436Y-82996176D01*
X146408825Y-82780000D01*
X146408858Y-82771045D01*
X146415356Y-82764679D01*
X146501812Y-82730563D01*
X146571929Y-82702882D01*
X146572451Y-82702645D01*
X146629495Y-82673344D01*
X146630298Y-82672845D01*
X146689145Y-82629276D01*
X146689684Y-82628827D01*
X146756900Y-82565806D01*
X146765279Y-82562647D01*
X146773175Y-82566068D01*
G37*
%TD.AperFunction*%
%TD*%
%TA.AperFunction,Conductor*%
%TO.N,/AIN_CS2*%
G36*
X142006546Y-126673751D02*
G01*
X142091801Y-126710762D01*
X142160950Y-126740765D01*
X142161492Y-126740970D01*
X142222546Y-126760586D01*
X142223469Y-126760802D01*
X142295905Y-126771608D01*
X142296562Y-126771668D01*
X142388677Y-126774635D01*
X142396835Y-126778327D01*
X142400000Y-126786329D01*
X142400000Y-127013671D01*
X142396573Y-127021944D01*
X142388677Y-127025365D01*
X142296562Y-127028331D01*
X142295905Y-127028391D01*
X142223469Y-127039197D01*
X142222546Y-127039413D01*
X142161492Y-127059028D01*
X142160950Y-127059233D01*
X142091801Y-127089237D01*
X142006546Y-127126249D01*
X141997593Y-127126400D01*
X141991094Y-127120034D01*
X141900891Y-126904517D01*
X141900891Y-126895483D01*
X141991094Y-126679966D01*
X141997450Y-126673657D01*
X142006546Y-126673751D01*
G37*
%TD.AperFunction*%
%TD*%
%TA.AperFunction,Conductor*%
%TO.N,/AIN_CS1*%
G36*
X119028955Y-126008858D02*
G01*
X119035321Y-126015357D01*
X119069435Y-126101812D01*
X119097116Y-126171929D01*
X119097353Y-126172451D01*
X119126655Y-126229495D01*
X119127154Y-126230298D01*
X119170726Y-126289150D01*
X119171163Y-126289674D01*
X119234193Y-126356900D01*
X119237352Y-126365280D01*
X119233931Y-126373176D01*
X119073176Y-126533931D01*
X119064903Y-126537358D01*
X119056900Y-126534193D01*
X118989674Y-126471163D01*
X118989150Y-126470726D01*
X118930298Y-126427154D01*
X118929495Y-126426655D01*
X118872451Y-126397353D01*
X118871929Y-126397116D01*
X118801812Y-126369435D01*
X118715357Y-126335321D01*
X118708919Y-126329097D01*
X118708825Y-126320000D01*
X118797436Y-126103824D01*
X118803824Y-126097436D01*
X119020000Y-126008825D01*
X119028955Y-126008858D01*
G37*
%TD.AperFunction*%
%TD*%
%TA.AperFunction,Conductor*%
%TO.N,/AIN_CS1*%
G36*
X147121944Y-85503427D02*
G01*
X147125365Y-85511323D01*
X147128331Y-85603437D01*
X147128391Y-85604094D01*
X147139197Y-85676530D01*
X147139413Y-85677453D01*
X147159028Y-85738506D01*
X147159233Y-85739048D01*
X147189237Y-85808197D01*
X147226249Y-85893454D01*
X147226400Y-85902407D01*
X147220034Y-85908906D01*
X147004517Y-85999109D01*
X146995483Y-85999109D01*
X146779966Y-85908906D01*
X146773657Y-85902550D01*
X146773751Y-85893454D01*
X146810762Y-85808197D01*
X146840765Y-85739048D01*
X146840970Y-85738506D01*
X146860586Y-85677453D01*
X146860802Y-85676530D01*
X146871608Y-85604094D01*
X146871668Y-85603437D01*
X146874635Y-85511323D01*
X146878327Y-85503165D01*
X146886329Y-85500000D01*
X147113671Y-85500000D01*
X147121944Y-85503427D01*
G37*
%TD.AperFunction*%
%TD*%
%TA.AperFunction,Conductor*%
%TO.N,/AIN_VS1*%
G36*
X120606546Y-99273751D02*
G01*
X120691801Y-99310762D01*
X120760950Y-99340765D01*
X120761492Y-99340970D01*
X120822546Y-99360586D01*
X120823469Y-99360802D01*
X120895905Y-99371608D01*
X120896562Y-99371668D01*
X120988677Y-99374635D01*
X120996835Y-99378327D01*
X121000000Y-99386329D01*
X121000000Y-99613671D01*
X120996573Y-99621944D01*
X120988677Y-99625365D01*
X120896562Y-99628331D01*
X120895905Y-99628391D01*
X120823469Y-99639197D01*
X120822546Y-99639413D01*
X120761492Y-99659028D01*
X120760950Y-99659233D01*
X120691801Y-99689237D01*
X120606546Y-99726249D01*
X120597593Y-99726400D01*
X120591094Y-99720034D01*
X120500891Y-99504517D01*
X120500891Y-99495483D01*
X120591094Y-99279966D01*
X120597450Y-99273657D01*
X120606546Y-99273751D01*
G37*
%TD.AperFunction*%
%TD*%
%TA.AperFunction,Conductor*%
%TO.N,/AIN_VS1*%
G36*
X151707682Y-85997678D02*
G01*
X151923822Y-86088145D01*
X151930131Y-86094501D01*
X151930545Y-86102187D01*
X151897668Y-86215914D01*
X151897454Y-86217103D01*
X151890128Y-86314324D01*
X151890115Y-86314531D01*
X151885696Y-86397598D01*
X151885147Y-86400571D01*
X151858932Y-86481778D01*
X151857042Y-86485357D01*
X151790631Y-86570942D01*
X151782851Y-86575377D01*
X151774214Y-86573013D01*
X151773114Y-86572042D01*
X151612203Y-86411131D01*
X151608776Y-86402858D01*
X151610465Y-86396803D01*
X151642920Y-86343142D01*
X151643517Y-86338719D01*
X151629526Y-86289260D01*
X151628249Y-86286955D01*
X151581542Y-86235463D01*
X151581423Y-86235335D01*
X151522843Y-86174339D01*
X151521343Y-86172409D01*
X151478763Y-86103862D01*
X151477309Y-86095026D01*
X151482528Y-86087749D01*
X151484208Y-86086885D01*
X151698671Y-85997668D01*
X151707682Y-85997678D01*
G37*
%TD.AperFunction*%
%TD*%
%TA.AperFunction,Conductor*%
%TO.N,/AIN_VS2*%
G36*
X124773175Y-99066068D02*
G01*
X124933931Y-99226824D01*
X124937358Y-99235097D01*
X124934193Y-99243100D01*
X124871163Y-99310325D01*
X124870726Y-99310849D01*
X124827154Y-99369701D01*
X124826655Y-99370504D01*
X124797353Y-99427548D01*
X124797116Y-99428070D01*
X124769435Y-99498186D01*
X124735321Y-99584643D01*
X124729097Y-99591081D01*
X124720000Y-99591175D01*
X124503824Y-99502564D01*
X124497436Y-99496176D01*
X124408825Y-99280000D01*
X124408858Y-99271045D01*
X124415356Y-99264679D01*
X124501812Y-99230563D01*
X124571929Y-99202882D01*
X124572451Y-99202645D01*
X124629495Y-99173344D01*
X124630298Y-99172845D01*
X124689145Y-99129276D01*
X124689684Y-99128827D01*
X124756900Y-99065806D01*
X124765279Y-99062647D01*
X124773175Y-99066068D01*
G37*
%TD.AperFunction*%
%TD*%
%TA.AperFunction,Conductor*%
%TO.N,/AIN_VS2*%
G36*
X150106546Y-84273751D02*
G01*
X150191801Y-84310762D01*
X150260950Y-84340765D01*
X150261492Y-84340970D01*
X150322546Y-84360586D01*
X150323469Y-84360802D01*
X150395905Y-84371608D01*
X150396562Y-84371668D01*
X150488677Y-84374635D01*
X150496835Y-84378327D01*
X150500000Y-84386329D01*
X150500000Y-84613671D01*
X150496573Y-84621944D01*
X150488677Y-84625365D01*
X150396562Y-84628331D01*
X150395905Y-84628391D01*
X150323469Y-84639197D01*
X150322546Y-84639413D01*
X150261492Y-84659028D01*
X150260950Y-84659233D01*
X150191801Y-84689237D01*
X150106546Y-84726249D01*
X150097593Y-84726400D01*
X150091094Y-84720034D01*
X150000891Y-84504517D01*
X150000891Y-84495483D01*
X150091094Y-84279966D01*
X150097450Y-84273657D01*
X150106546Y-84273751D01*
G37*
%TD.AperFunction*%
%TD*%
%TA.AperFunction,Conductor*%
%TO.N,/AIN_VS3*%
G36*
X148121944Y-85503427D02*
G01*
X148125365Y-85511323D01*
X148128331Y-85603437D01*
X148128391Y-85604094D01*
X148139197Y-85676530D01*
X148139413Y-85677453D01*
X148159028Y-85738506D01*
X148159233Y-85739048D01*
X148189237Y-85808197D01*
X148226249Y-85893454D01*
X148226400Y-85902407D01*
X148220034Y-85908906D01*
X148004517Y-85999109D01*
X147995483Y-85999109D01*
X147779966Y-85908906D01*
X147773657Y-85902550D01*
X147773751Y-85893454D01*
X147810762Y-85808197D01*
X147840765Y-85739048D01*
X147840970Y-85738506D01*
X147860586Y-85677453D01*
X147860802Y-85676530D01*
X147871608Y-85604094D01*
X147871668Y-85603437D01*
X147874635Y-85511323D01*
X147878327Y-85503165D01*
X147886329Y-85500000D01*
X148113671Y-85500000D01*
X148121944Y-85503427D01*
G37*
%TD.AperFunction*%
%TD*%
%TA.AperFunction,Conductor*%
%TO.N,/AIN_VS3*%
G36*
X128606693Y-99274137D02*
G01*
X128691291Y-99313339D01*
X128691870Y-99313627D01*
X128759458Y-99349606D01*
X128759803Y-99349775D01*
X128819139Y-99376506D01*
X128820199Y-99376866D01*
X128891034Y-99393542D01*
X128892048Y-99393688D01*
X128984084Y-99398887D01*
X128992151Y-99402775D01*
X128995124Y-99410568D01*
X128995124Y-99637924D01*
X128991697Y-99646197D01*
X128983537Y-99649623D01*
X128893589Y-99650492D01*
X128893194Y-99650508D01*
X128821085Y-99655690D01*
X128820313Y-99655798D01*
X128759297Y-99668520D01*
X128758571Y-99668721D01*
X128690085Y-99692499D01*
X128689836Y-99692593D01*
X128606405Y-99726596D01*
X128597450Y-99726545D01*
X128591196Y-99720278D01*
X128500891Y-99504517D01*
X128500891Y-99495483D01*
X128590981Y-99280236D01*
X128597337Y-99273927D01*
X128606693Y-99274137D01*
G37*
%TD.AperFunction*%
%TD*%
%TA.AperFunction,Conductor*%
%TO.N,/AIN_VIN*%
G36*
X110221944Y-102103427D02*
G01*
X110225365Y-102111323D01*
X110228331Y-102203437D01*
X110228391Y-102204094D01*
X110239197Y-102276530D01*
X110239413Y-102277453D01*
X110259028Y-102338506D01*
X110259233Y-102339048D01*
X110289237Y-102408197D01*
X110326249Y-102493454D01*
X110326400Y-102502407D01*
X110320034Y-102508906D01*
X110104517Y-102599109D01*
X110095483Y-102599109D01*
X109879966Y-102508906D01*
X109873657Y-102502550D01*
X109873751Y-102493454D01*
X109910762Y-102408197D01*
X109940765Y-102339048D01*
X109940970Y-102338506D01*
X109960586Y-102277453D01*
X109960802Y-102276530D01*
X109971608Y-102204094D01*
X109971668Y-102203437D01*
X109974635Y-102111323D01*
X109978327Y-102103165D01*
X109986329Y-102100000D01*
X110213671Y-102100000D01*
X110221944Y-102103427D01*
G37*
%TD.AperFunction*%
%TD*%
%TA.AperFunction,Conductor*%
%TO.N,/AIN_VIN*%
G36*
X144720034Y-86091094D02*
G01*
X144726343Y-86097450D01*
X144726249Y-86106546D01*
X144689237Y-86191801D01*
X144659233Y-86260950D01*
X144659028Y-86261492D01*
X144639413Y-86322546D01*
X144639197Y-86323469D01*
X144628391Y-86395905D01*
X144628331Y-86396562D01*
X144625365Y-86488677D01*
X144621674Y-86496835D01*
X144613671Y-86500000D01*
X144386329Y-86500000D01*
X144378056Y-86496573D01*
X144374635Y-86488677D01*
X144371668Y-86396562D01*
X144371608Y-86395905D01*
X144360802Y-86323469D01*
X144360586Y-86322546D01*
X144340970Y-86261492D01*
X144340765Y-86260950D01*
X144310762Y-86191801D01*
X144273751Y-86106546D01*
X144273600Y-86097593D01*
X144279966Y-86091094D01*
X144495483Y-86000891D01*
X144504517Y-86000891D01*
X144720034Y-86091094D01*
G37*
%TD.AperFunction*%
%TD*%
%TA.AperFunction,Conductor*%
%TO.N,/ADC_EXT*%
G36*
X115726126Y-93978427D02*
G01*
X115728263Y-93981360D01*
X115805277Y-94131493D01*
X115805442Y-94131791D01*
X115885600Y-94267102D01*
X115885833Y-94267463D01*
X115965898Y-94381695D01*
X115966254Y-94382154D01*
X116046177Y-94475294D01*
X116046699Y-94475829D01*
X116119344Y-94541503D01*
X116123183Y-94549593D01*
X116121280Y-94556601D01*
X115609782Y-95336093D01*
X115602378Y-95341130D01*
X115593581Y-95339456D01*
X115590218Y-95336093D01*
X115078720Y-94556601D01*
X115077046Y-94547804D01*
X115080656Y-94541503D01*
X115153300Y-94475829D01*
X115153822Y-94475294D01*
X115233744Y-94382154D01*
X115234100Y-94381695D01*
X115314165Y-94267463D01*
X115314398Y-94267102D01*
X115394557Y-94131791D01*
X115394722Y-94131493D01*
X115471737Y-93981360D01*
X115478562Y-93975563D01*
X115482147Y-93975000D01*
X115717853Y-93975000D01*
X115726126Y-93978427D01*
G37*
%TD.AperFunction*%
%TD*%
%TA.AperFunction,Conductor*%
%TO.N,/DEBUG_TX*%
G36*
X138721944Y-82103427D02*
G01*
X138725365Y-82111323D01*
X138728331Y-82203437D01*
X138728391Y-82204094D01*
X138739197Y-82276530D01*
X138739413Y-82277453D01*
X138759028Y-82338506D01*
X138759233Y-82339048D01*
X138789237Y-82408197D01*
X138826249Y-82493454D01*
X138826400Y-82502407D01*
X138820034Y-82508906D01*
X138604517Y-82599109D01*
X138595483Y-82599109D01*
X138379966Y-82508906D01*
X138373657Y-82502550D01*
X138373751Y-82493454D01*
X138410762Y-82408197D01*
X138440765Y-82339048D01*
X138440970Y-82338506D01*
X138460586Y-82277453D01*
X138460802Y-82276530D01*
X138471608Y-82204094D01*
X138471668Y-82203437D01*
X138474635Y-82111323D01*
X138478327Y-82103165D01*
X138486329Y-82100000D01*
X138713671Y-82100000D01*
X138721944Y-82103427D01*
G37*
%TD.AperFunction*%
%TD*%
%TA.AperFunction,Conductor*%
%TO.N,/DEBUG_TX*%
G36*
X157222625Y-83799363D02*
G01*
X157224651Y-83799695D01*
X157450843Y-83857588D01*
X157451874Y-83857904D01*
X157646031Y-83927189D01*
X157646540Y-83927345D01*
X157873491Y-83985433D01*
X157874501Y-83985598D01*
X158189188Y-84009189D01*
X158197181Y-84013224D01*
X158200013Y-84020842D01*
X158200991Y-84852169D01*
X158197574Y-84860446D01*
X158193764Y-84862994D01*
X157427248Y-85180091D01*
X157418293Y-85180087D01*
X157411964Y-85173753D01*
X157411422Y-85172106D01*
X157328833Y-84840352D01*
X157328505Y-84838190D01*
X157310625Y-84523525D01*
X157310601Y-84523220D01*
X157284167Y-84265788D01*
X157283287Y-84263267D01*
X157173208Y-84091260D01*
X157169754Y-84088816D01*
X156906673Y-84027117D01*
X156899400Y-84021892D01*
X156897644Y-84015726D01*
X156897644Y-83787610D01*
X156901071Y-83779337D01*
X156910219Y-83775943D01*
X157222625Y-83799363D01*
G37*
%TD.AperFunction*%
%TD*%
%TA.AperFunction,Conductor*%
%TO.N,/DEBUG_RX*%
G36*
X137921944Y-82103427D02*
G01*
X137925365Y-82111323D01*
X137928331Y-82203437D01*
X137928391Y-82204094D01*
X137939197Y-82276530D01*
X137939413Y-82277453D01*
X137959028Y-82338506D01*
X137959233Y-82339048D01*
X137989237Y-82408197D01*
X138026249Y-82493454D01*
X138026400Y-82502407D01*
X138020034Y-82508906D01*
X137804517Y-82599109D01*
X137795483Y-82599109D01*
X137579966Y-82508906D01*
X137573657Y-82502550D01*
X137573751Y-82493454D01*
X137610762Y-82408197D01*
X137640765Y-82339048D01*
X137640970Y-82338506D01*
X137660586Y-82277453D01*
X137660802Y-82276530D01*
X137671608Y-82204094D01*
X137671668Y-82203437D01*
X137674635Y-82111323D01*
X137678327Y-82103165D01*
X137686329Y-82100000D01*
X137913671Y-82100000D01*
X137921944Y-82103427D01*
G37*
%TD.AperFunction*%
%TD*%
%TA.AperFunction,Conductor*%
%TO.N,/DEBUG_RX*%
G36*
X157879137Y-81545705D02*
G01*
X157879939Y-81547288D01*
X158197707Y-82313473D01*
X158197711Y-82322428D01*
X158195163Y-82326238D01*
X157606594Y-82913424D01*
X157598317Y-82916841D01*
X157590747Y-82914050D01*
X157351253Y-82710160D01*
X157350349Y-82709526D01*
X157147046Y-82593878D01*
X157146558Y-82593631D01*
X156958011Y-82509645D01*
X156956987Y-82509127D01*
X156754424Y-82393900D01*
X156752625Y-82392639D01*
X156514991Y-82190333D01*
X156510913Y-82182361D01*
X156513666Y-82173840D01*
X156514302Y-82173151D01*
X156675576Y-82011877D01*
X156683849Y-82008450D01*
X156689987Y-82010190D01*
X156921377Y-82152789D01*
X156925612Y-82153476D01*
X157125831Y-82106461D01*
X157128215Y-82105269D01*
X157329495Y-81936993D01*
X157329712Y-81936804D01*
X157565943Y-81722125D01*
X157567747Y-81720779D01*
X157863067Y-81541765D01*
X157871918Y-81540407D01*
X157879137Y-81545705D01*
G37*
%TD.AperFunction*%
%TD*%
%TA.AperFunction,Conductor*%
%TO.N,/3.3V*%
G36*
X110237849Y-91899951D02*
G01*
X110246108Y-91903411D01*
X110249492Y-91912140D01*
X110244824Y-92023785D01*
X110244719Y-92024932D01*
X110232443Y-92111875D01*
X110232340Y-92112486D01*
X110217630Y-92187669D01*
X110217579Y-92187969D01*
X110205240Y-92275360D01*
X110205188Y-92275920D01*
X110200469Y-92388789D01*
X110196699Y-92396912D01*
X110188779Y-92400000D01*
X109811221Y-92400000D01*
X109802948Y-92396573D01*
X109799531Y-92388789D01*
X109794812Y-92275920D01*
X109794760Y-92275360D01*
X109782421Y-92187969D01*
X109782370Y-92187669D01*
X109767660Y-92112486D01*
X109767557Y-92111875D01*
X109755281Y-92024932D01*
X109755176Y-92023785D01*
X109750508Y-91912140D01*
X109753586Y-91903731D01*
X109762151Y-91899951D01*
X109999953Y-91899000D01*
X110000047Y-91899000D01*
X110237849Y-91899951D01*
G37*
%TD.AperFunction*%
%TD*%
%TA.AperFunction,Conductor*%
%TO.N,/3.3V*%
G36*
X100020034Y-102591094D02*
G01*
X100026343Y-102597450D01*
X100026249Y-102606546D01*
X99989237Y-102691801D01*
X99959233Y-102760950D01*
X99959028Y-102761492D01*
X99939413Y-102822546D01*
X99939197Y-102823469D01*
X99928391Y-102895905D01*
X99928331Y-102896562D01*
X99925365Y-102988677D01*
X99921674Y-102996835D01*
X99913671Y-103000000D01*
X99686329Y-103000000D01*
X99678056Y-102996573D01*
X99674635Y-102988677D01*
X99671668Y-102896562D01*
X99671608Y-102895905D01*
X99660802Y-102823469D01*
X99660586Y-102822546D01*
X99640970Y-102761492D01*
X99640765Y-102760950D01*
X99610762Y-102691801D01*
X99573751Y-102606546D01*
X99573600Y-102597593D01*
X99579966Y-102591094D01*
X99795483Y-102500891D01*
X99804517Y-102500891D01*
X100020034Y-102591094D01*
G37*
%TD.AperFunction*%
%TD*%
%TA.AperFunction,Conductor*%
%TO.N,/3.3V*%
G36*
X95106546Y-103573751D02*
G01*
X95191801Y-103610762D01*
X95260950Y-103640765D01*
X95261492Y-103640970D01*
X95322546Y-103660586D01*
X95323469Y-103660802D01*
X95395905Y-103671608D01*
X95396562Y-103671668D01*
X95488677Y-103674635D01*
X95496835Y-103678327D01*
X95500000Y-103686329D01*
X95500000Y-103913671D01*
X95496573Y-103921944D01*
X95488677Y-103925365D01*
X95396562Y-103928331D01*
X95395905Y-103928391D01*
X95323469Y-103939197D01*
X95322546Y-103939413D01*
X95261492Y-103959028D01*
X95260950Y-103959233D01*
X95191801Y-103989237D01*
X95106546Y-104026249D01*
X95097593Y-104026400D01*
X95091094Y-104020034D01*
X95000891Y-103804517D01*
X95000891Y-103795483D01*
X95091094Y-103579966D01*
X95097450Y-103573657D01*
X95106546Y-103573751D01*
G37*
%TD.AperFunction*%
%TD*%
%TA.AperFunction,Conductor*%
%TO.N,/3.3V*%
G36*
X133820034Y-84791094D02*
G01*
X133826343Y-84797450D01*
X133826249Y-84806546D01*
X133789237Y-84891801D01*
X133759233Y-84960950D01*
X133759028Y-84961492D01*
X133739413Y-85022546D01*
X133739197Y-85023469D01*
X133728391Y-85095905D01*
X133728331Y-85096562D01*
X133725365Y-85188677D01*
X133721674Y-85196835D01*
X133713671Y-85200000D01*
X133486329Y-85200000D01*
X133478056Y-85196573D01*
X133474635Y-85188677D01*
X133471668Y-85096562D01*
X133471608Y-85095905D01*
X133460802Y-85023469D01*
X133460586Y-85022546D01*
X133440970Y-84961492D01*
X133440765Y-84960950D01*
X133410762Y-84891801D01*
X133373751Y-84806546D01*
X133373600Y-84797593D01*
X133379966Y-84791094D01*
X133595483Y-84700891D01*
X133604517Y-84700891D01*
X133820034Y-84791094D01*
G37*
%TD.AperFunction*%
%TD*%
%TA.AperFunction,Conductor*%
%TO.N,/3.3V*%
G36*
X127628955Y-89308858D02*
G01*
X127635321Y-89315357D01*
X127669435Y-89401812D01*
X127697116Y-89471929D01*
X127697353Y-89472451D01*
X127726655Y-89529495D01*
X127727154Y-89530298D01*
X127770726Y-89589150D01*
X127771163Y-89589674D01*
X127834193Y-89656900D01*
X127837352Y-89665280D01*
X127833931Y-89673176D01*
X127673176Y-89833931D01*
X127664903Y-89837358D01*
X127656900Y-89834193D01*
X127589674Y-89771163D01*
X127589150Y-89770726D01*
X127530298Y-89727154D01*
X127529495Y-89726655D01*
X127472451Y-89697353D01*
X127471929Y-89697116D01*
X127401812Y-89669435D01*
X127315357Y-89635321D01*
X127308919Y-89629097D01*
X127308825Y-89620000D01*
X127397436Y-89403824D01*
X127403824Y-89397436D01*
X127620000Y-89308825D01*
X127628955Y-89308858D01*
G37*
%TD.AperFunction*%
%TD*%
%TA.AperFunction,Conductor*%
%TO.N,/3.3V*%
G36*
X101923785Y-100755176D02*
G01*
X101924932Y-100755281D01*
X102011875Y-100767557D01*
X102012486Y-100767660D01*
X102087669Y-100782370D01*
X102087969Y-100782421D01*
X102175360Y-100794760D01*
X102175920Y-100794812D01*
X102288789Y-100799531D01*
X102296912Y-100803301D01*
X102300000Y-100811221D01*
X102300000Y-101188779D01*
X102296573Y-101197052D01*
X102288789Y-101200469D01*
X102175920Y-101205188D01*
X102175360Y-101205240D01*
X102087969Y-101217579D01*
X102087669Y-101217630D01*
X102012486Y-101232340D01*
X102011875Y-101232443D01*
X101924932Y-101244719D01*
X101923785Y-101244824D01*
X101812140Y-101249492D01*
X101803731Y-101246414D01*
X101799951Y-101237849D01*
X101799000Y-101000094D01*
X101799000Y-101000000D01*
X101799951Y-100762151D01*
X101803411Y-100753892D01*
X101812140Y-100750508D01*
X101923785Y-100755176D01*
G37*
%TD.AperFunction*%
%TD*%
%TA.AperFunction,Conductor*%
%TO.N,/Driver/LO2*%
G36*
X110496176Y-105497436D02*
G01*
X110502564Y-105503824D01*
X110591175Y-105720000D01*
X110591142Y-105728955D01*
X110584643Y-105735321D01*
X110498186Y-105769435D01*
X110428070Y-105797116D01*
X110427548Y-105797353D01*
X110370504Y-105826655D01*
X110369701Y-105827154D01*
X110310849Y-105870726D01*
X110310325Y-105871163D01*
X110243100Y-105934193D01*
X110234720Y-105937352D01*
X110226824Y-105933931D01*
X110066068Y-105773175D01*
X110062641Y-105764902D01*
X110065806Y-105756900D01*
X110128827Y-105689684D01*
X110129276Y-105689145D01*
X110172845Y-105630298D01*
X110173344Y-105629495D01*
X110202645Y-105572451D01*
X110202882Y-105571929D01*
X110230563Y-105501812D01*
X110264679Y-105415356D01*
X110270903Y-105408919D01*
X110280000Y-105408825D01*
X110496176Y-105497436D01*
G37*
%TD.AperFunction*%
%TD*%
%TA.AperFunction,Conductor*%
%TO.N,/Driver/LO2*%
G36*
X118738506Y-114659028D02*
G01*
X118677453Y-114639413D01*
X118676530Y-114639197D01*
X118604094Y-114628391D01*
X118603437Y-114628331D01*
X118511323Y-114625365D01*
X118503165Y-114621674D01*
X118500000Y-114613671D01*
X118500000Y-114386329D01*
X118503427Y-114378056D01*
X118511323Y-114374635D01*
X118603437Y-114371668D01*
X118604094Y-114371608D01*
X118676530Y-114360802D01*
X118677453Y-114360586D01*
X118738506Y-114340970D01*
X118739048Y-114340765D01*
X118808197Y-114310762D01*
X118893454Y-114273751D01*
X118902407Y-114273600D01*
X118908906Y-114279966D01*
X118999109Y-114495483D01*
X118999109Y-114504517D01*
X118908906Y-114720034D01*
X118902550Y-114726343D01*
X118893454Y-114726249D01*
X118808197Y-114689237D01*
X118739048Y-114659233D01*
X118738506Y-114659028D01*
G37*
%TD.AperFunction*%
%TD*%
%TA.AperFunction,Conductor*%
%TO.N,/Driver/LO3*%
G36*
X142238506Y-114659028D02*
G01*
X142177453Y-114639413D01*
X142176530Y-114639197D01*
X142104094Y-114628391D01*
X142103437Y-114628331D01*
X142011323Y-114625365D01*
X142003165Y-114621674D01*
X142000000Y-114613671D01*
X142000000Y-114386329D01*
X142003427Y-114378056D01*
X142011323Y-114374635D01*
X142103437Y-114371668D01*
X142104094Y-114371608D01*
X142176530Y-114360802D01*
X142177453Y-114360586D01*
X142238506Y-114340970D01*
X142239048Y-114340765D01*
X142308197Y-114310762D01*
X142393454Y-114273751D01*
X142402407Y-114273600D01*
X142408906Y-114279966D01*
X142499109Y-114495483D01*
X142499109Y-114504517D01*
X142408906Y-114720034D01*
X142402550Y-114726343D01*
X142393454Y-114726249D01*
X142308197Y-114689237D01*
X142239048Y-114659233D01*
X142238506Y-114659028D01*
G37*
%TD.AperFunction*%
%TD*%
%TA.AperFunction,Conductor*%
%TO.N,/Driver/LO3*%
G36*
X111228955Y-110408858D02*
G01*
X111235321Y-110415357D01*
X111269435Y-110501812D01*
X111297116Y-110571929D01*
X111297353Y-110572451D01*
X111326655Y-110629495D01*
X111327154Y-110630298D01*
X111370726Y-110689150D01*
X111371163Y-110689674D01*
X111434193Y-110756900D01*
X111437352Y-110765280D01*
X111433931Y-110773176D01*
X111273176Y-110933931D01*
X111264903Y-110937358D01*
X111256900Y-110934193D01*
X111189674Y-110871163D01*
X111189150Y-110870726D01*
X111130298Y-110827154D01*
X111129495Y-110826655D01*
X111072451Y-110797353D01*
X111071929Y-110797116D01*
X111001812Y-110769435D01*
X110915357Y-110735321D01*
X110908919Y-110729097D01*
X110908825Y-110720000D01*
X110997436Y-110503824D01*
X111003824Y-110497436D01*
X111220000Y-110408825D01*
X111228955Y-110408858D01*
G37*
%TD.AperFunction*%
%TD*%
%TA.AperFunction,Conductor*%
%TO.N,/Driver/12V*%
G36*
X101996749Y-96303427D02*
G01*
X102000175Y-96311523D01*
X102002184Y-96444202D01*
X102002207Y-96444631D01*
X102011459Y-96546903D01*
X102011590Y-96547715D01*
X102031965Y-96634269D01*
X102032173Y-96634962D01*
X102067919Y-96732118D01*
X102068007Y-96732343D01*
X102118896Y-96855281D01*
X102118894Y-96864236D01*
X102112592Y-96870554D01*
X101804506Y-96999120D01*
X101795494Y-96999120D01*
X101487408Y-96870554D01*
X101481093Y-96864205D01*
X101481104Y-96855281D01*
X101531992Y-96732343D01*
X101532080Y-96732118D01*
X101567826Y-96634962D01*
X101568034Y-96634269D01*
X101588409Y-96547715D01*
X101588540Y-96546903D01*
X101597792Y-96444631D01*
X101597815Y-96444202D01*
X101599825Y-96311523D01*
X101603377Y-96303302D01*
X101611524Y-96300000D01*
X101988476Y-96300000D01*
X101996749Y-96303427D01*
G37*
%TD.AperFunction*%
%TD*%
%TA.AperFunction,Conductor*%
%TO.N,/Driver/12V*%
G36*
X114754718Y-87771629D02*
G01*
X114849955Y-87864024D01*
X114850284Y-87864319D01*
X114929139Y-87930091D01*
X114929803Y-87930570D01*
X115005420Y-87977370D01*
X115006037Y-87977702D01*
X115100051Y-88021143D01*
X115100231Y-88021221D01*
X115223162Y-88072175D01*
X115229492Y-88078508D01*
X115229503Y-88087432D01*
X115102563Y-88396191D01*
X115096191Y-88402563D01*
X114787432Y-88529503D01*
X114778477Y-88529480D01*
X114772175Y-88523162D01*
X114721221Y-88400231D01*
X114721143Y-88400051D01*
X114677702Y-88306037D01*
X114677370Y-88305420D01*
X114630570Y-88229803D01*
X114630091Y-88229139D01*
X114564319Y-88150284D01*
X114564024Y-88149955D01*
X114471629Y-88054718D01*
X114468328Y-88046394D01*
X114471754Y-88038298D01*
X114738298Y-87771754D01*
X114746571Y-87768327D01*
X114754718Y-87771629D01*
G37*
%TD.AperFunction*%
%TD*%
%TA.AperFunction,Conductor*%
%TO.N,/Driver/12V*%
G36*
X101796191Y-96997437D02*
G01*
X101802563Y-97003809D01*
X101929503Y-97312568D01*
X101929480Y-97321523D01*
X101923162Y-97327825D01*
X101800231Y-97378778D01*
X101800051Y-97378856D01*
X101706037Y-97422297D01*
X101705420Y-97422629D01*
X101629803Y-97469428D01*
X101629139Y-97469907D01*
X101550284Y-97535680D01*
X101549941Y-97535988D01*
X101454718Y-97628370D01*
X101446394Y-97631672D01*
X101438298Y-97628246D01*
X101171754Y-97361702D01*
X101168327Y-97353429D01*
X101171629Y-97345282D01*
X101264025Y-97250042D01*
X101264313Y-97249723D01*
X101330091Y-97170859D01*
X101330570Y-97170195D01*
X101377370Y-97094578D01*
X101377702Y-97093961D01*
X101421143Y-96999948D01*
X101421221Y-96999768D01*
X101472175Y-96876838D01*
X101478508Y-96870508D01*
X101487432Y-96870497D01*
X101796191Y-96997437D01*
G37*
%TD.AperFunction*%
%TD*%
%TA.AperFunction,Conductor*%
%TO.N,/Driver/12V*%
G36*
X101018769Y-83211663D02*
G01*
X101288994Y-83481888D01*
X101292421Y-83490161D01*
X101291172Y-83495421D01*
X101196065Y-83684395D01*
X101195904Y-83684742D01*
X101097041Y-83917133D01*
X101096938Y-83917392D01*
X100998026Y-84185869D01*
X100997948Y-84186095D01*
X100899036Y-84490542D01*
X100898960Y-84490786D01*
X100803641Y-84818841D01*
X100798042Y-84825829D01*
X100789141Y-84826811D01*
X100787940Y-84826390D01*
X100003786Y-84502562D01*
X99997438Y-84496214D01*
X99674631Y-83714535D01*
X99674640Y-83705580D01*
X99680979Y-83699255D01*
X99684275Y-83698428D01*
X99936947Y-83673042D01*
X99937701Y-83672917D01*
X100205684Y-83610091D01*
X100206359Y-83609889D01*
X100474432Y-83511125D01*
X100475017Y-83510871D01*
X100743164Y-83376154D01*
X100743680Y-83375862D01*
X101004214Y-83210065D01*
X101013034Y-83208515D01*
X101018769Y-83211663D01*
G37*
%TD.AperFunction*%
%TD*%
%TA.AperFunction,Conductor*%
%TO.N,/Driver/12V*%
G36*
X113644719Y-98681104D02*
G01*
X113767655Y-98731992D01*
X113767880Y-98732080D01*
X113865036Y-98767826D01*
X113865729Y-98768034D01*
X113952284Y-98788409D01*
X113953096Y-98788540D01*
X114055368Y-98797792D01*
X114055797Y-98797815D01*
X114188477Y-98799825D01*
X114196698Y-98803377D01*
X114200000Y-98811524D01*
X114200000Y-99188476D01*
X114196573Y-99196749D01*
X114188477Y-99200175D01*
X114055797Y-99202184D01*
X114055368Y-99202207D01*
X113953096Y-99211459D01*
X113952284Y-99211590D01*
X113865729Y-99231965D01*
X113865036Y-99232173D01*
X113767880Y-99267919D01*
X113767655Y-99268007D01*
X113644719Y-99318896D01*
X113635764Y-99318894D01*
X113629446Y-99312592D01*
X113500880Y-99004506D01*
X113500880Y-98995494D01*
X113629446Y-98687408D01*
X113635795Y-98681093D01*
X113644719Y-98681104D01*
G37*
%TD.AperFunction*%
%TD*%
%TA.AperFunction,Conductor*%
%TO.N,/Driver/12V*%
G36*
X92696749Y-121403427D02*
G01*
X92700175Y-121411523D01*
X92702184Y-121544202D01*
X92702207Y-121544631D01*
X92711459Y-121646903D01*
X92711590Y-121647715D01*
X92731965Y-121734269D01*
X92732173Y-121734962D01*
X92767919Y-121832118D01*
X92768007Y-121832343D01*
X92818896Y-121955281D01*
X92818894Y-121964236D01*
X92812592Y-121970554D01*
X92504506Y-122099120D01*
X92495494Y-122099120D01*
X92187408Y-121970554D01*
X92181093Y-121964205D01*
X92181104Y-121955281D01*
X92231992Y-121832343D01*
X92232080Y-121832118D01*
X92267826Y-121734962D01*
X92268034Y-121734269D01*
X92288409Y-121647715D01*
X92288540Y-121646903D01*
X92297792Y-121544631D01*
X92297815Y-121544202D01*
X92299825Y-121411523D01*
X92303377Y-121403302D01*
X92311524Y-121400000D01*
X92688476Y-121400000D01*
X92696749Y-121403427D01*
G37*
%TD.AperFunction*%
%TD*%
%TA.AperFunction,Conductor*%
%TO.N,/Driver/12V*%
G36*
X100805877Y-83796127D02*
G01*
X100807227Y-83797979D01*
X100916464Y-83983692D01*
X100916683Y-83984037D01*
X101033001Y-84154190D01*
X101033289Y-84154575D01*
X101149503Y-84297003D01*
X101149930Y-84297473D01*
X101265992Y-84412175D01*
X101266592Y-84412692D01*
X101372063Y-84491904D01*
X101376620Y-84499612D01*
X101374392Y-84508285D01*
X101373310Y-84509532D01*
X101100126Y-84782716D01*
X101099881Y-84782976D01*
X101040225Y-84850148D01*
X101039807Y-84850676D01*
X100980150Y-84935683D01*
X100979867Y-84936124D01*
X100920101Y-85039154D01*
X100919911Y-85039509D01*
X100860061Y-85160572D01*
X100859949Y-85160815D01*
X100806823Y-85284159D01*
X100800403Y-85290402D01*
X100791449Y-85290277D01*
X100787804Y-85287804D01*
X100008056Y-84508056D01*
X100004629Y-84499783D01*
X100008545Y-84491048D01*
X100789358Y-83795176D01*
X100797814Y-83792230D01*
X100805877Y-83796127D01*
G37*
%TD.AperFunction*%
%TD*%
%TA.AperFunction,Conductor*%
%TO.N,/Driver/12V*%
G36*
X117864236Y-100181106D02*
G01*
X117870554Y-100187408D01*
X117999120Y-100495494D01*
X117999120Y-100504506D01*
X117870554Y-100812592D01*
X117864205Y-100818907D01*
X117855281Y-100818896D01*
X117732343Y-100768007D01*
X117732118Y-100767919D01*
X117634962Y-100732173D01*
X117634269Y-100731965D01*
X117547715Y-100711590D01*
X117546903Y-100711459D01*
X117444631Y-100702207D01*
X117444202Y-100702184D01*
X117311523Y-100700175D01*
X117303303Y-100696623D01*
X117300000Y-100688476D01*
X117300000Y-100311524D01*
X117303427Y-100303251D01*
X117311523Y-100299825D01*
X117444202Y-100297815D01*
X117444631Y-100297792D01*
X117546903Y-100288540D01*
X117547715Y-100288409D01*
X117634269Y-100268034D01*
X117634962Y-100267826D01*
X117732118Y-100232080D01*
X117732343Y-100231992D01*
X117855281Y-100181104D01*
X117864236Y-100181106D01*
G37*
%TD.AperFunction*%
%TD*%
%TA.AperFunction,Conductor*%
%TO.N,/MOTOR-TEMP*%
G36*
X120238506Y-88659028D02*
G01*
X120177453Y-88639413D01*
X120176530Y-88639197D01*
X120104094Y-88628391D01*
X120103437Y-88628331D01*
X120011323Y-88625365D01*
X120003165Y-88621674D01*
X120000000Y-88613671D01*
X120000000Y-88386329D01*
X120003427Y-88378056D01*
X120011323Y-88374635D01*
X120103437Y-88371668D01*
X120104094Y-88371608D01*
X120176530Y-88360802D01*
X120177453Y-88360586D01*
X120238506Y-88340970D01*
X120239048Y-88340765D01*
X120308197Y-88310762D01*
X120393454Y-88273751D01*
X120402407Y-88273600D01*
X120408906Y-88279966D01*
X120499109Y-88495483D01*
X120499109Y-88504517D01*
X120408906Y-88720034D01*
X120402550Y-88726343D01*
X120393454Y-88726249D01*
X120308197Y-88689237D01*
X120239048Y-88659233D01*
X120238506Y-88659028D01*
G37*
%TD.AperFunction*%
%TD*%
%TA.AperFunction,Conductor*%
%TO.N,/MOTOR-TEMP*%
G36*
X115507885Y-83556192D02*
G01*
X116046560Y-84047525D01*
X116050363Y-84055632D01*
X116048110Y-84063088D01*
X115968628Y-84171461D01*
X115968320Y-84171929D01*
X115882698Y-84317093D01*
X115882506Y-84317448D01*
X115796802Y-84491199D01*
X115796664Y-84491500D01*
X115710927Y-84693776D01*
X115710808Y-84694075D01*
X115627833Y-84917375D01*
X115621739Y-84923937D01*
X115616866Y-84925000D01*
X115383134Y-84925000D01*
X115374861Y-84921573D01*
X115372167Y-84917375D01*
X115289191Y-84694075D01*
X115289072Y-84693776D01*
X115203334Y-84491500D01*
X115203196Y-84491199D01*
X115117492Y-84317448D01*
X115117300Y-84317093D01*
X115031679Y-84171929D01*
X115031371Y-84171461D01*
X114951890Y-84063088D01*
X114949761Y-84054390D01*
X114953440Y-84047525D01*
X115492115Y-83556192D01*
X115500537Y-83553148D01*
X115507885Y-83556192D01*
G37*
%TD.AperFunction*%
%TD*%
%TA.AperFunction,Conductor*%
%TO.N,/HALL1*%
G36*
X117507885Y-83556192D02*
G01*
X118046560Y-84047525D01*
X118050363Y-84055632D01*
X118048110Y-84063088D01*
X117968628Y-84171461D01*
X117968320Y-84171929D01*
X117882698Y-84317093D01*
X117882506Y-84317448D01*
X117796802Y-84491199D01*
X117796664Y-84491500D01*
X117710927Y-84693776D01*
X117710808Y-84694075D01*
X117627833Y-84917375D01*
X117621739Y-84923937D01*
X117616866Y-84925000D01*
X117383134Y-84925000D01*
X117374861Y-84921573D01*
X117372167Y-84917375D01*
X117289191Y-84694075D01*
X117289072Y-84693776D01*
X117203334Y-84491500D01*
X117203196Y-84491199D01*
X117117492Y-84317448D01*
X117117300Y-84317093D01*
X117031679Y-84171929D01*
X117031371Y-84171461D01*
X116951890Y-84063088D01*
X116949761Y-84054390D01*
X116953440Y-84047525D01*
X117492115Y-83556192D01*
X117500537Y-83553148D01*
X117507885Y-83556192D01*
G37*
%TD.AperFunction*%
%TD*%
%TA.AperFunction,Conductor*%
%TO.N,/HALL1*%
G36*
X131496176Y-88497436D02*
G01*
X131502564Y-88503824D01*
X131591175Y-88720000D01*
X131591142Y-88728955D01*
X131584643Y-88735321D01*
X131498186Y-88769435D01*
X131428070Y-88797116D01*
X131427548Y-88797353D01*
X131370504Y-88826655D01*
X131369701Y-88827154D01*
X131310849Y-88870726D01*
X131310325Y-88871163D01*
X131243100Y-88934193D01*
X131234720Y-88937352D01*
X131226824Y-88933931D01*
X131066068Y-88773175D01*
X131062641Y-88764902D01*
X131065806Y-88756900D01*
X131128827Y-88689684D01*
X131129276Y-88689145D01*
X131172845Y-88630298D01*
X131173344Y-88629495D01*
X131202645Y-88572451D01*
X131202882Y-88571929D01*
X131230563Y-88501812D01*
X131264679Y-88415356D01*
X131270903Y-88408919D01*
X131280000Y-88408825D01*
X131496176Y-88497436D01*
G37*
%TD.AperFunction*%
%TD*%
%TA.AperFunction,Conductor*%
%TO.N,/HALL2*%
G36*
X119507885Y-83556192D02*
G01*
X120046560Y-84047525D01*
X120050363Y-84055632D01*
X120048110Y-84063088D01*
X119968628Y-84171461D01*
X119968320Y-84171929D01*
X119882698Y-84317093D01*
X119882506Y-84317448D01*
X119796802Y-84491199D01*
X119796664Y-84491500D01*
X119710927Y-84693776D01*
X119710808Y-84694075D01*
X119627833Y-84917375D01*
X119621739Y-84923937D01*
X119616866Y-84925000D01*
X119383134Y-84925000D01*
X119374861Y-84921573D01*
X119372167Y-84917375D01*
X119289191Y-84694075D01*
X119289072Y-84693776D01*
X119203334Y-84491500D01*
X119203196Y-84491199D01*
X119117492Y-84317448D01*
X119117300Y-84317093D01*
X119031679Y-84171929D01*
X119031371Y-84171461D01*
X118951890Y-84063088D01*
X118949761Y-84054390D01*
X118953440Y-84047525D01*
X119492115Y-83556192D01*
X119500537Y-83553148D01*
X119507885Y-83556192D01*
G37*
%TD.AperFunction*%
%TD*%
%TA.AperFunction,Conductor*%
%TO.N,/HALL2*%
G36*
X130496176Y-88497436D02*
G01*
X130502564Y-88503824D01*
X130591175Y-88720000D01*
X130591142Y-88728955D01*
X130584643Y-88735321D01*
X130498186Y-88769435D01*
X130428070Y-88797116D01*
X130427548Y-88797353D01*
X130370504Y-88826655D01*
X130369701Y-88827154D01*
X130310849Y-88870726D01*
X130310325Y-88871163D01*
X130243100Y-88934193D01*
X130234720Y-88937352D01*
X130226824Y-88933931D01*
X130066068Y-88773175D01*
X130062641Y-88764902D01*
X130065806Y-88756900D01*
X130128827Y-88689684D01*
X130129276Y-88689145D01*
X130172845Y-88630298D01*
X130173344Y-88629495D01*
X130202645Y-88572451D01*
X130202882Y-88571929D01*
X130230563Y-88501812D01*
X130264679Y-88415356D01*
X130270903Y-88408919D01*
X130280000Y-88408825D01*
X130496176Y-88497436D01*
G37*
%TD.AperFunction*%
%TD*%
%TA.AperFunction,Conductor*%
%TO.N,/HALL3*%
G36*
X121507885Y-83556192D02*
G01*
X122046560Y-84047525D01*
X122050363Y-84055632D01*
X122048110Y-84063088D01*
X121968628Y-84171461D01*
X121968320Y-84171929D01*
X121882698Y-84317093D01*
X121882506Y-84317448D01*
X121796802Y-84491199D01*
X121796664Y-84491500D01*
X121710927Y-84693776D01*
X121710808Y-84694075D01*
X121627833Y-84917375D01*
X121621739Y-84923937D01*
X121616866Y-84925000D01*
X121383134Y-84925000D01*
X121374861Y-84921573D01*
X121372167Y-84917375D01*
X121289191Y-84694075D01*
X121289072Y-84693776D01*
X121203334Y-84491500D01*
X121203196Y-84491199D01*
X121117492Y-84317448D01*
X121117300Y-84317093D01*
X121031679Y-84171929D01*
X121031371Y-84171461D01*
X120951890Y-84063088D01*
X120949761Y-84054390D01*
X120953440Y-84047525D01*
X121492115Y-83556192D01*
X121500537Y-83553148D01*
X121507885Y-83556192D01*
G37*
%TD.AperFunction*%
%TD*%
%TA.AperFunction,Conductor*%
%TO.N,/HALL3*%
G36*
X129202645Y-88427548D02*
G01*
X129173344Y-88370504D01*
X129172845Y-88369701D01*
X129129276Y-88310854D01*
X129128826Y-88310315D01*
X129065807Y-88243099D01*
X129062648Y-88234720D01*
X129066069Y-88226824D01*
X129226824Y-88066069D01*
X129235097Y-88062642D01*
X129243099Y-88065807D01*
X129310315Y-88128826D01*
X129310854Y-88129276D01*
X129369701Y-88172845D01*
X129370504Y-88173344D01*
X129427548Y-88202645D01*
X129428070Y-88202882D01*
X129498186Y-88230563D01*
X129584644Y-88264679D01*
X129591081Y-88270903D01*
X129591175Y-88280000D01*
X129502564Y-88496176D01*
X129496176Y-88502564D01*
X129280000Y-88591175D01*
X129271045Y-88591142D01*
X129264679Y-88584644D01*
X129230563Y-88498186D01*
X129202882Y-88428070D01*
X129202645Y-88427548D01*
G37*
%TD.AperFunction*%
%TD*%
%TA.AperFunction,Conductor*%
%TO.N,/UART_T*%
G36*
X119728955Y-92208858D02*
G01*
X119735321Y-92215357D01*
X119769435Y-92301812D01*
X119797116Y-92371929D01*
X119797353Y-92372451D01*
X119826655Y-92429495D01*
X119827154Y-92430298D01*
X119870726Y-92489150D01*
X119871163Y-92489674D01*
X119934193Y-92556900D01*
X119937352Y-92565280D01*
X119933931Y-92573176D01*
X119773176Y-92733931D01*
X119764903Y-92737358D01*
X119756900Y-92734193D01*
X119689674Y-92671163D01*
X119689150Y-92670726D01*
X119630298Y-92627154D01*
X119629495Y-92626655D01*
X119572451Y-92597353D01*
X119571929Y-92597116D01*
X119501812Y-92569435D01*
X119415357Y-92535321D01*
X119408919Y-92529097D01*
X119408825Y-92520000D01*
X119497436Y-92303824D01*
X119503824Y-92297436D01*
X119720000Y-92208825D01*
X119728955Y-92208858D01*
G37*
%TD.AperFunction*%
%TD*%
%TA.AperFunction,Conductor*%
%TO.N,/UART_T*%
G36*
X141705211Y-91701178D02*
G01*
X141921122Y-91791549D01*
X141927431Y-91797905D01*
X141927765Y-91805854D01*
X141892435Y-91918122D01*
X141892229Y-91919017D01*
X141878121Y-92013740D01*
X141878111Y-92013807D01*
X141865683Y-92094021D01*
X141864926Y-92096717D01*
X141832078Y-92175812D01*
X141830349Y-92178709D01*
X141761215Y-92263687D01*
X141753336Y-92267942D01*
X141744755Y-92265379D01*
X141743866Y-92264576D01*
X141582861Y-92103571D01*
X141579434Y-92095298D01*
X141581233Y-92089064D01*
X141613228Y-92038252D01*
X141614004Y-92034236D01*
X141605228Y-91985970D01*
X141604146Y-91983512D01*
X141565868Y-91933110D01*
X141565666Y-91932859D01*
X141515194Y-91873655D01*
X141514018Y-91872006D01*
X141475855Y-91807252D01*
X141474607Y-91798384D01*
X141479994Y-91791231D01*
X141481441Y-91790508D01*
X141696200Y-91701168D01*
X141705211Y-91701178D01*
G37*
%TD.AperFunction*%
%TD*%
%TA.AperFunction,Conductor*%
%TO.N,/UART_R*%
G36*
X116828955Y-93208858D02*
G01*
X116835321Y-93215357D01*
X116869435Y-93301812D01*
X116897116Y-93371929D01*
X116897353Y-93372451D01*
X116926655Y-93429495D01*
X116927154Y-93430298D01*
X116970726Y-93489150D01*
X116971163Y-93489674D01*
X117034193Y-93556900D01*
X117037352Y-93565280D01*
X117033931Y-93573176D01*
X116873176Y-93733931D01*
X116864903Y-93737358D01*
X116856900Y-93734193D01*
X116789674Y-93671163D01*
X116789150Y-93670726D01*
X116730298Y-93627154D01*
X116729495Y-93626655D01*
X116672451Y-93597353D01*
X116671929Y-93597116D01*
X116601812Y-93569435D01*
X116515357Y-93535321D01*
X116508919Y-93529097D01*
X116508825Y-93520000D01*
X116597436Y-93303824D01*
X116603824Y-93297436D01*
X116820000Y-93208825D01*
X116828955Y-93208858D01*
G37*
%TD.AperFunction*%
%TD*%
%TA.AperFunction,Conductor*%
%TO.N,/UART_R*%
G36*
X142720034Y-91791094D02*
G01*
X142726343Y-91797450D01*
X142726249Y-91806546D01*
X142689237Y-91891801D01*
X142659233Y-91960950D01*
X142659028Y-91961492D01*
X142639413Y-92022546D01*
X142639197Y-92023469D01*
X142628391Y-92095905D01*
X142628331Y-92096562D01*
X142625365Y-92188677D01*
X142621674Y-92196835D01*
X142613671Y-92200000D01*
X142386329Y-92200000D01*
X142378056Y-92196573D01*
X142374635Y-92188677D01*
X142371668Y-92096562D01*
X142371608Y-92095905D01*
X142360802Y-92023469D01*
X142360586Y-92022546D01*
X142340970Y-91961492D01*
X142340765Y-91960950D01*
X142310762Y-91891801D01*
X142273751Y-91806546D01*
X142273600Y-91797593D01*
X142279966Y-91791094D01*
X142495483Y-91700891D01*
X142504517Y-91700891D01*
X142720034Y-91791094D01*
G37*
%TD.AperFunction*%
%TD*%
%TA.AperFunction,Conductor*%
%TO.N,/LED1*%
G36*
X147220034Y-103291094D02*
G01*
X147226343Y-103297450D01*
X147226249Y-103306546D01*
X147189237Y-103391801D01*
X147159233Y-103460950D01*
X147159028Y-103461492D01*
X147139413Y-103522546D01*
X147139197Y-103523469D01*
X147128391Y-103595905D01*
X147128331Y-103596562D01*
X147125365Y-103688677D01*
X147121674Y-103696835D01*
X147113671Y-103700000D01*
X146886329Y-103700000D01*
X146878056Y-103696573D01*
X146874635Y-103688677D01*
X146871668Y-103596562D01*
X146871608Y-103595905D01*
X146860802Y-103523469D01*
X146860586Y-103522546D01*
X146840970Y-103461492D01*
X146840765Y-103460950D01*
X146810762Y-103391801D01*
X146773751Y-103306546D01*
X146773600Y-103297593D01*
X146779966Y-103291094D01*
X146995483Y-103200891D01*
X147004517Y-103200891D01*
X147220034Y-103291094D01*
G37*
%TD.AperFunction*%
%TD*%
%TA.AperFunction,Conductor*%
%TO.N,/LED1*%
G36*
X145506546Y-104673751D02*
G01*
X145591801Y-104710762D01*
X145660950Y-104740765D01*
X145661492Y-104740970D01*
X145722546Y-104760586D01*
X145723469Y-104760802D01*
X145795905Y-104771608D01*
X145796562Y-104771668D01*
X145888677Y-104774635D01*
X145896835Y-104778327D01*
X145900000Y-104786329D01*
X145900000Y-105013671D01*
X145896573Y-105021944D01*
X145888677Y-105025365D01*
X145796562Y-105028331D01*
X145795905Y-105028391D01*
X145723469Y-105039197D01*
X145722546Y-105039413D01*
X145661492Y-105059028D01*
X145660950Y-105059233D01*
X145591801Y-105089237D01*
X145506546Y-105126249D01*
X145497593Y-105126400D01*
X145491094Y-105120034D01*
X145400891Y-104904517D01*
X145400891Y-104895483D01*
X145491094Y-104679966D01*
X145497450Y-104673657D01*
X145506546Y-104673751D01*
G37*
%TD.AperFunction*%
%TD*%
%TA.AperFunction,Conductor*%
%TO.N,/LED2*%
G36*
X147920034Y-102791094D02*
G01*
X147926343Y-102797450D01*
X147926249Y-102806546D01*
X147889237Y-102891801D01*
X147859233Y-102960950D01*
X147859028Y-102961492D01*
X147839413Y-103022546D01*
X147839197Y-103023469D01*
X147828391Y-103095905D01*
X147828331Y-103096562D01*
X147825365Y-103188677D01*
X147821674Y-103196835D01*
X147813671Y-103200000D01*
X147586329Y-103200000D01*
X147578056Y-103196573D01*
X147574635Y-103188677D01*
X147571668Y-103096562D01*
X147571608Y-103095905D01*
X147560802Y-103023469D01*
X147560586Y-103022546D01*
X147540970Y-102961492D01*
X147540765Y-102960950D01*
X147510762Y-102891801D01*
X147473751Y-102806546D01*
X147473600Y-102797593D01*
X147479966Y-102791094D01*
X147695483Y-102700891D01*
X147704517Y-102700891D01*
X147920034Y-102791094D01*
G37*
%TD.AperFunction*%
%TD*%
%TA.AperFunction,Conductor*%
%TO.N,/LED2*%
G36*
X145673175Y-106166068D02*
G01*
X145833931Y-106326824D01*
X145837358Y-106335097D01*
X145834193Y-106343100D01*
X145771163Y-106410325D01*
X145770726Y-106410849D01*
X145727154Y-106469701D01*
X145726655Y-106470504D01*
X145697353Y-106527548D01*
X145697116Y-106528070D01*
X145669435Y-106598186D01*
X145635321Y-106684643D01*
X145629097Y-106691081D01*
X145620000Y-106691175D01*
X145403824Y-106602564D01*
X145397436Y-106596176D01*
X145308825Y-106380000D01*
X145308858Y-106371045D01*
X145315356Y-106364679D01*
X145401812Y-106330563D01*
X145471929Y-106302882D01*
X145472451Y-106302645D01*
X145529495Y-106273344D01*
X145530298Y-106272845D01*
X145589145Y-106229276D01*
X145589684Y-106228827D01*
X145656900Y-106165806D01*
X145665279Y-106162647D01*
X145673175Y-106166068D01*
G37*
%TD.AperFunction*%
%TD*%
%TA.AperFunction,Conductor*%
%TO.N,/CAN-R*%
G36*
X138586235Y-94582723D02*
G01*
X138588254Y-94583053D01*
X138659676Y-94601267D01*
X138660704Y-94601580D01*
X138722380Y-94623507D01*
X138722914Y-94623669D01*
X138795080Y-94642072D01*
X138796098Y-94642239D01*
X138889215Y-94649194D01*
X138897209Y-94653227D01*
X138900043Y-94660814D01*
X138900980Y-94895107D01*
X138897530Y-94903450D01*
X138732723Y-95067331D01*
X138724440Y-95070735D01*
X138716177Y-95067285D01*
X138715142Y-95066093D01*
X138668411Y-95004309D01*
X138667152Y-95002225D01*
X138635597Y-94935046D01*
X138635512Y-94934872D01*
X138607711Y-94879202D01*
X138606341Y-94877428D01*
X138564061Y-94840419D01*
X138561292Y-94839087D01*
X138492474Y-94826730D01*
X138484937Y-94821895D01*
X138482842Y-94815214D01*
X138482842Y-94587606D01*
X138486269Y-94579333D01*
X138495414Y-94575939D01*
X138586235Y-94582723D01*
G37*
%TD.AperFunction*%
%TD*%
%TA.AperFunction,Conductor*%
%TO.N,/CAN-R*%
G36*
X105021944Y-102503427D02*
G01*
X105025365Y-102511323D01*
X105028331Y-102603437D01*
X105028391Y-102604094D01*
X105039197Y-102676530D01*
X105039413Y-102677453D01*
X105059028Y-102738506D01*
X105059233Y-102739048D01*
X105089237Y-102808197D01*
X105126249Y-102893454D01*
X105126400Y-102902407D01*
X105120034Y-102908906D01*
X104904517Y-102999109D01*
X104895483Y-102999109D01*
X104679966Y-102908906D01*
X104673657Y-102902550D01*
X104673751Y-102893454D01*
X104710762Y-102808197D01*
X104740765Y-102739048D01*
X104740970Y-102738506D01*
X104760586Y-102677453D01*
X104760802Y-102676530D01*
X104771608Y-102604094D01*
X104771668Y-102603437D01*
X104774635Y-102511323D01*
X104778327Y-102503165D01*
X104786329Y-102500000D01*
X105013671Y-102500000D01*
X105021944Y-102503427D01*
G37*
%TD.AperFunction*%
%TD*%
%TA.AperFunction,Conductor*%
%TO.N,/CAN-T*%
G36*
X105173175Y-97666068D02*
G01*
X105333931Y-97826824D01*
X105337358Y-97835097D01*
X105334193Y-97843100D01*
X105271163Y-97910325D01*
X105270726Y-97910849D01*
X105227154Y-97969701D01*
X105226655Y-97970504D01*
X105197353Y-98027548D01*
X105197116Y-98028070D01*
X105169435Y-98098186D01*
X105135321Y-98184643D01*
X105129097Y-98191081D01*
X105120000Y-98191175D01*
X104903824Y-98102564D01*
X104897436Y-98096176D01*
X104808825Y-97880000D01*
X104808858Y-97871045D01*
X104815356Y-97864679D01*
X104901812Y-97830563D01*
X104971929Y-97802882D01*
X104972451Y-97802645D01*
X105029495Y-97773344D01*
X105030298Y-97772845D01*
X105089145Y-97729276D01*
X105089684Y-97728827D01*
X105156900Y-97665806D01*
X105165279Y-97662647D01*
X105173175Y-97666068D01*
G37*
%TD.AperFunction*%
%TD*%
%TA.AperFunction,Conductor*%
%TO.N,/CAN-T*%
G36*
X139702645Y-94827548D02*
G01*
X139673344Y-94770504D01*
X139672845Y-94769701D01*
X139629276Y-94710854D01*
X139628826Y-94710315D01*
X139565807Y-94643099D01*
X139562648Y-94634720D01*
X139566069Y-94626824D01*
X139726824Y-94466069D01*
X139735097Y-94462642D01*
X139743099Y-94465807D01*
X139810315Y-94528826D01*
X139810854Y-94529276D01*
X139869701Y-94572845D01*
X139870504Y-94573344D01*
X139927548Y-94602645D01*
X139928070Y-94602882D01*
X139998186Y-94630563D01*
X140084644Y-94664679D01*
X140091081Y-94670903D01*
X140091175Y-94680000D01*
X140002564Y-94896176D01*
X139996176Y-94902564D01*
X139780000Y-94991175D01*
X139771045Y-94991142D01*
X139764679Y-94984644D01*
X139730563Y-94898186D01*
X139702882Y-94828070D01*
X139702645Y-94827548D01*
G37*
%TD.AperFunction*%
%TD*%
%TA.AperFunction,Conductor*%
%TO.N,/SWIO*%
G36*
X133106546Y-100173751D02*
G01*
X133191801Y-100210762D01*
X133260950Y-100240765D01*
X133261492Y-100240970D01*
X133322546Y-100260586D01*
X133323469Y-100260802D01*
X133395905Y-100271608D01*
X133396562Y-100271668D01*
X133488677Y-100274635D01*
X133496835Y-100278327D01*
X133500000Y-100286329D01*
X133500000Y-100513671D01*
X133496573Y-100521944D01*
X133488677Y-100525365D01*
X133396562Y-100528331D01*
X133395905Y-100528391D01*
X133323469Y-100539197D01*
X133322546Y-100539413D01*
X133261492Y-100559028D01*
X133260950Y-100559233D01*
X133191801Y-100589237D01*
X133106546Y-100626249D01*
X133097593Y-100626400D01*
X133091094Y-100620034D01*
X133000891Y-100404517D01*
X133000891Y-100395483D01*
X133091094Y-100179966D01*
X133097450Y-100173657D01*
X133106546Y-100173751D01*
G37*
%TD.AperFunction*%
%TD*%
%TA.AperFunction,Conductor*%
%TO.N,/SWIO*%
G36*
X141514485Y-101316082D02*
G01*
X141794671Y-101540537D01*
X141796224Y-101541429D01*
X142042187Y-101635981D01*
X142043583Y-101636328D01*
X142289668Y-101666102D01*
X142289709Y-101666107D01*
X142575856Y-101701745D01*
X142577836Y-101702168D01*
X142932984Y-101810936D01*
X142939891Y-101816635D01*
X142940745Y-101825549D01*
X142940372Y-101826589D01*
X142622562Y-102596214D01*
X142616214Y-102602562D01*
X141846589Y-102920372D01*
X141837634Y-102920363D01*
X141831309Y-102914024D01*
X141830936Y-102912984D01*
X141722168Y-102557836D01*
X141721745Y-102555856D01*
X141686107Y-102269709D01*
X141686102Y-102269668D01*
X141656328Y-102023583D01*
X141655981Y-102022187D01*
X141561429Y-101776224D01*
X141560537Y-101774671D01*
X141336082Y-101494485D01*
X141333584Y-101485886D01*
X141336940Y-101478897D01*
X141498897Y-101316940D01*
X141507170Y-101313513D01*
X141514485Y-101316082D01*
G37*
%TD.AperFunction*%
%TD*%
%TA.AperFunction,Conductor*%
%TO.N,/BLE_RX*%
G36*
X87206546Y-102273751D02*
G01*
X87291801Y-102310762D01*
X87360950Y-102340765D01*
X87361492Y-102340970D01*
X87422546Y-102360586D01*
X87423469Y-102360802D01*
X87495905Y-102371608D01*
X87496562Y-102371668D01*
X87588677Y-102374635D01*
X87596835Y-102378327D01*
X87600000Y-102386329D01*
X87600000Y-102613671D01*
X87596573Y-102621944D01*
X87588677Y-102625365D01*
X87496562Y-102628331D01*
X87495905Y-102628391D01*
X87423469Y-102639197D01*
X87422546Y-102639413D01*
X87361492Y-102659028D01*
X87360950Y-102659233D01*
X87291801Y-102689237D01*
X87206546Y-102726249D01*
X87197593Y-102726400D01*
X87191094Y-102720034D01*
X87100891Y-102504517D01*
X87100891Y-102495483D01*
X87191094Y-102279966D01*
X87197450Y-102273657D01*
X87206546Y-102273751D01*
G37*
%TD.AperFunction*%
%TD*%
%TA.AperFunction,Conductor*%
%TO.N,/BLE_RX*%
G36*
X100738506Y-95059028D02*
G01*
X100677453Y-95039413D01*
X100676530Y-95039197D01*
X100604094Y-95028391D01*
X100603437Y-95028331D01*
X100511323Y-95025365D01*
X100503165Y-95021674D01*
X100500000Y-95013671D01*
X100500000Y-94786329D01*
X100503427Y-94778056D01*
X100511323Y-94774635D01*
X100603437Y-94771668D01*
X100604094Y-94771608D01*
X100676530Y-94760802D01*
X100677453Y-94760586D01*
X100738506Y-94740970D01*
X100739048Y-94740765D01*
X100808197Y-94710762D01*
X100893454Y-94673751D01*
X100902407Y-94673600D01*
X100908906Y-94679966D01*
X100999109Y-94895483D01*
X100999109Y-94904517D01*
X100908906Y-95120034D01*
X100902550Y-95126343D01*
X100893454Y-95126249D01*
X100808197Y-95089237D01*
X100739048Y-95059233D01*
X100738506Y-95059028D01*
G37*
%TD.AperFunction*%
%TD*%
M02*
