M48
; DRILL file {KiCad (6.99.0-2501-g45393f228a)} date Tue Aug  9 23:28:34 2022
; FORMAT={-:-/ absolute / inch / decimal}
; #@! TF.CreationDate,2022-08-09T23:28:34+12:00
; #@! TF.GenerationSoftware,Kicad,Pcbnew,(6.99.0-2501-g45393f228a)
; #@! TF.FileFunction,Plated,1,4,PTH
FMAT,2
INCH
; #@! TA.AperFunction,Plated,PTH,ViaDrill
T1C0.0098
; #@! TA.AperFunction,Plated,PTH,ViaDrill
T2C0.0138
; #@! TA.AperFunction,Plated,PTH,ComponentDrill
T3C0.0197
; #@! TA.AperFunction,Plated,PTH,ComponentDrill
T4C0.0295
; #@! TA.AperFunction,Plated,PTH,ComponentDrill
T5C0.0315
; #@! TA.AperFunction,Plated,PTH,ComponentDrill
T6C0.0394
; #@! TA.AperFunction,Plated,PTH,ComponentDrill
T7C0.0472
; #@! TA.AperFunction,Plated,PTH,ComponentDrill
T8C0.0728
%
G90
G05
T1
X3.3425Y-4.0079
X3.3425Y-4.0669
X3.3425Y-4.1299
X3.4291Y-3.9961
X3.4291Y-4.0354
X3.4291Y-4.0748
X3.4291Y-4.1299
X3.5039Y-4.1299
X3.563Y-3.8465
X3.563Y-3.8976
X3.563Y-3.9449
X3.563Y-4.0472
X3.563Y-4.0984
X3.6142Y-3.8465
X3.6181Y-4.1299
X3.6378Y-4.9449
X3.6378Y-5.0236
X3.6457Y-4.1811
X3.6457Y-4.2047
X3.6614Y-3.8465
X3.7008Y-4.8937
X3.7165Y-4.1299
X3.7402Y-4.0866
X3.752Y-4.9488
X3.7953Y-4.185
X3.7992Y-4.1299
X3.815Y-5.0236
X3.8465Y-4.5669
X3.8504Y-3.8583
X3.8504Y-3.9094
X3.8504Y-4.0551
X3.8504Y-4.1299
X3.9213Y-3.2008
X3.9291Y-4.0354
X3.9488Y-3.7835
X3.9764Y-3.7047
X3.9764Y-3.7362
X4.0079Y-3.9173
X4.0079Y-3.9764
X4.1299Y-3.8622
X4.1299Y-4.0551
X4.2126Y-3.9528
X4.2362Y-4.1457
X4.3268Y-5.2047
X4.3268Y-5.2323
X4.3307Y-3.3543
X4.3307Y-3.6181
X4.3346Y-4.0394
X4.3504Y-4.1535
X4.3701Y-4.3504
X4.3819Y-5.3031
X4.4094Y-3.4449
X4.4094Y-3.4843
X4.4213Y-4.0354
X4.4291Y-4.126
X4.4685Y-4.5669
X4.5472Y-3.5433
X4.5906Y-3.6732
X4.6063Y-3.5039
X4.6063Y-3.5433
X4.6654Y-3.5433
X4.6772Y-4.9646
X4.685Y-4.5079
X4.7047Y-3.6339
X4.7047Y-3.937
X4.7244Y-3.5433
X4.7441Y-3.4843
X4.7441Y-3.9173
X4.7756Y-3.5433
X4.8622Y-3.1929
X4.8622Y-3.2323
X4.8622Y-3.9567
X4.9016Y-3.9173
X4.9134Y-3.6181
X4.9252Y-3.315
X4.9843Y-3.315
X5.0157Y-3.5197
X5.0197Y-3.9764
X5.0591Y-3.9173
X5.0945Y-3.6417
X5.0984Y-3.4843
X5.1181Y-3.189
X5.1378Y-3.4843
X5.1378Y-3.874
X5.1535Y-3.315
X5.1772Y-3.4843
X5.2126Y-5.2047
X5.2126Y-5.2323
X5.2362Y-3.9528
X5.2559Y-3.5472
X5.2598Y-3.3346
X5.2638Y-3.252
X5.2677Y-5.3031
X5.3031Y-3.878
X5.3189Y-3.9803
X5.3622Y-3.2874
X5.3898Y-3.252
X5.3976Y-4.5669
X5.4252Y-3.252
X5.4567Y-3.252
X5.4685Y-3.7362
X5.4921Y-4.1614
X5.5Y-3.5551
X5.5039Y-3.2402
X5.5118Y-3.7362
X5.5433Y-3.252
X5.5787Y-3.6102
X5.5866Y-4.9961
X5.6102Y-3.6102
X5.6102Y-4.5079
X5.6181Y-3.2559
X5.6496Y-3.4685
X5.689Y-3.3858
X5.7008Y-3.4685
X5.7244Y-3.7795
X5.7244Y-4.1299
X5.7244Y-4.1969
X5.748Y-3.3858
X5.7677Y-3.2677
X5.7874Y-3.3858
X5.7874Y-4.063
X5.815Y-3.2677
X5.815Y-4.0433
X5.8268Y-3.3858
X5.8465Y-4.0276
X5.8819Y-3.9606
X5.9055Y-3.3268
X5.9213Y-3.9134
X5.9725Y-3.3857
X5.9764Y-3.5039
X5.9843Y-3.6811
X5.9921Y-3.8031
X5.9961Y-3.7283
X5.9961Y-3.874
X6.0079Y-3.4606
X6.0472Y-3.1929
X6.0906Y-3.874
X6.0945Y-4.0945
X6.099Y-5.2101
X6.099Y-5.2377
X6.1024Y-3.9567
X6.1024Y-3.9961
X6.1142Y-3.8031
X6.1457Y-3.1929
X6.1457Y-3.2559
X6.1457Y-3.3465
X6.1457Y-3.5236
X6.1457Y-3.5945
X6.1457Y-3.8031
X6.1535Y-5.3031
X6.2402Y-5.2402
T2
X3.2717Y-3.5748
X3.2717Y-3.6457
X3.3071Y-3.5945
X3.5197Y-3.5039
X3.5591Y-3.5039
X3.5984Y-3.5039
X3.5984Y-3.5433
X3.6417Y-4.8071
X3.689Y-3.5039
X4.0079Y-3.8189
X4.063Y-3.189
X4.0984Y-3.3268
X4.122Y-3.189
X4.1496Y-3.3268
X4.1732Y-3.189
X4.2008Y-3.3268
X4.2244Y-3.189
X4.248Y-3.3268
X4.2874Y-3.4252
X4.3307Y-3.4252
X4.4685Y-3.8976
X4.5315Y-3.4803
X4.6457Y-3.9567
T4
X4.1575Y-3.7539
X4.2362Y-3.7539
X4.315Y-3.7539
X4.3937Y-3.7539
X4.4685Y-3.2894
X4.4724Y-3.7539
X4.5472Y-3.2894
X4.5512Y-3.7539
X4.626Y-3.2894
X4.7047Y-3.2894
X4.7835Y-3.2894
X4.8622Y-3.2894
T5
X3.7008Y-3.7402
X3.7992Y-3.7402
X3.937Y-3.3268
X3.937Y-3.4252
T6
X5.315Y-4.0394
X5.415Y-4.0394
X5.515Y-4.0394
X5.615Y-4.0394
X6.2283Y-3.2409
X6.2283Y-3.3409
X6.2283Y-3.4409
T7
X3.7213Y-4.685
X3.8213Y-4.685
X3.9213Y-4.685
X3.9764Y-4.3504
X4.1543Y-4.685
X4.1732Y-4.3504
X4.2543Y-4.685
X4.3543Y-4.685
X4.6071Y-4.685
X4.7071Y-4.685
X4.8071Y-4.685
X5.0394Y-4.3504
X5.0402Y-4.685
X5.1402Y-4.685
X5.2362Y-4.3504
X5.2402Y-4.685
X5.4929Y-4.685
X5.5929Y-4.685
X5.686Y-4.3504
X5.6929Y-4.685
X5.8828Y-4.3504
X5.926Y-4.685
X6.026Y-4.685
X6.126Y-4.685
T8
X3.315Y-4.2717
X3.315Y-4.5079
X3.315Y-4.752
X3.315Y-4.9882
X3.5118Y-4.2717
X3.5118Y-4.5079
X3.5118Y-4.752
X3.5118Y-4.9882
X3.7205Y-5.1575
X3.7205Y-5.3937
X3.9173Y-5.1575
X3.9173Y-5.3937
X4.6063Y-5.1575
X4.6063Y-5.3937
X4.8031Y-5.1575
X4.8031Y-5.3937
X5.4921Y-5.1575
X5.4921Y-5.3937
X5.689Y-5.1575
X5.689Y-5.3937
T3
G00X6.1491Y-3.872
M15
G01X6.1491Y-3.8996
M16
G05
G00X6.1491Y-4.0925
M15
G01X6.1491Y-4.1201
M16
G05
G00X6.2338Y-3.9744
M15
G01X6.2338Y-4.0177
M16
G05
T0
M30
