%TF.GenerationSoftware,KiCad,Pcbnew,(6.99.0-2501-g45393f228a)*%
%TF.CreationDate,2022-08-07T00:12:47+12:00*%
%TF.ProjectId,bldc_hardware_riscv,626c6463-5f68-4617-9264-776172655f72,rev?*%
%TF.SameCoordinates,Original*%
%TF.FileFunction,Copper,L4,Bot*%
%TF.FilePolarity,Positive*%
%FSLAX46Y46*%
G04 Gerber Fmt 4.6, Leading zero omitted, Abs format (unit mm)*
G04 Created by KiCad (PCBNEW (6.99.0-2501-g45393f228a)) date 2022-08-07 00:12:47*
%MOMM*%
%LPD*%
G01*
G04 APERTURE LIST*
G04 Aperture macros list*
%AMRoundRect*
0 Rectangle with rounded corners*
0 $1 Rounding radius*
0 $2 $3 $4 $5 $6 $7 $8 $9 X,Y pos of 4 corners*
0 Add a 4 corners polygon primitive as box body*
4,1,4,$2,$3,$4,$5,$6,$7,$8,$9,$2,$3,0*
0 Add four circle primitives for the rounded corners*
1,1,$1+$1,$2,$3*
1,1,$1+$1,$4,$5*
1,1,$1+$1,$6,$7*
1,1,$1+$1,$8,$9*
0 Add four rect primitives between the rounded corners*
20,1,$1+$1,$2,$3,$4,$5,0*
20,1,$1+$1,$4,$5,$6,$7,0*
20,1,$1+$1,$6,$7,$8,$9,0*
20,1,$1+$1,$8,$9,$2,$3,0*%
G04 Aperture macros list end*
%TA.AperFunction,ComponentPad*%
%ADD10R,1.905000X2.000000*%
%TD*%
%TA.AperFunction,ComponentPad*%
%ADD11O,1.905000X2.000000*%
%TD*%
%TA.AperFunction,ComponentPad*%
%ADD12R,1.600000X1.600000*%
%TD*%
%TA.AperFunction,ComponentPad*%
%ADD13C,1.600000*%
%TD*%
%TA.AperFunction,ComponentPad*%
%ADD14RoundRect,0.250000X0.350000X0.625000X-0.350000X0.625000X-0.350000X-0.625000X0.350000X-0.625000X0*%
%TD*%
%TA.AperFunction,ComponentPad*%
%ADD15O,1.200000X1.750000*%
%TD*%
%TA.AperFunction,ComponentPad*%
%ADD16RoundRect,0.250000X-0.350000X-0.625000X0.350000X-0.625000X0.350000X0.625000X-0.350000X0.625000X0*%
%TD*%
%TA.AperFunction,ComponentPad*%
%ADD17R,2.400000X2.400000*%
%TD*%
%TA.AperFunction,ComponentPad*%
%ADD18C,2.400000*%
%TD*%
%TA.AperFunction,ComponentPad*%
%ADD19C,3.200000*%
%TD*%
%TA.AperFunction,SMDPad,CuDef*%
%ADD20R,1.500000X0.450000*%
%TD*%
%TA.AperFunction,ComponentPad*%
%ADD21O,1.100000X1.800000*%
%TD*%
%TA.AperFunction,ComponentPad*%
%ADD22O,1.100000X2.200000*%
%TD*%
%TA.AperFunction,ComponentPad*%
%ADD23R,1.700000X1.700000*%
%TD*%
%TA.AperFunction,ComponentPad*%
%ADD24O,1.700000X1.700000*%
%TD*%
%TA.AperFunction,ViaPad*%
%ADD25C,0.500000*%
%TD*%
%TA.AperFunction,ViaPad*%
%ADD26C,0.700000*%
%TD*%
%TA.AperFunction,Conductor*%
%ADD27C,0.250000*%
%TD*%
%TA.AperFunction,Conductor*%
%ADD28C,1.000000*%
%TD*%
%TA.AperFunction,Conductor*%
%ADD29C,0.400000*%
%TD*%
%TA.AperFunction,Conductor*%
%ADD30C,0.700000*%
%TD*%
G04 APERTURE END LIST*
D10*
%TO.P,Q2,1,G*%
%TO.N,Net-(D2-A)*%
X99599999Y-118999999D03*
D11*
%TO.P,Q2,2,D*%
%TO.N,/Driver/VS1*%
X97059999Y-118999999D03*
%TO.P,Q2,3,S*%
%TO.N,GND*%
X94519999Y-118999999D03*
%TD*%
D10*
%TO.P,Q5,1,G*%
%TO.N,Net-(D10-A)*%
X155599999Y-118999999D03*
D11*
%TO.P,Q5,2,D*%
%TO.N,/Driver/99V*%
X153059999Y-118999999D03*
%TO.P,Q5,3,S*%
%TO.N,/Driver/VS3*%
X150519999Y-118999999D03*
%TD*%
D10*
%TO.P,Q6,1,G*%
%TO.N,Net-(D11-A)*%
X144599999Y-118999999D03*
D11*
%TO.P,Q6,2,D*%
%TO.N,/Driver/VS3*%
X142059999Y-118999999D03*
%TO.P,Q6,3,S*%
%TO.N,GND*%
X139519999Y-118999999D03*
%TD*%
D10*
%TO.P,Q1,1,G*%
%TO.N,Net-(D1-A)*%
X110599999Y-118999999D03*
D11*
%TO.P,Q1,2,D*%
%TO.N,/Driver/99V*%
X108059999Y-118999999D03*
%TO.P,Q1,3,S*%
%TO.N,/Driver/VS1*%
X105519999Y-118999999D03*
%TD*%
D10*
%TO.P,Q4,1,G*%
%TO.N,Net-(D5-A)*%
X122099999Y-118999999D03*
D11*
%TO.P,Q4,2,D*%
%TO.N,/Driver/VS2*%
X119559999Y-118999999D03*
%TO.P,Q4,3,S*%
%TO.N,GND*%
X117019999Y-118999999D03*
%TD*%
D10*
%TO.P,Q3,1,G*%
%TO.N,Net-(D4-A)*%
X133099999Y-118999999D03*
D11*
%TO.P,Q3,2,D*%
%TO.N,/Driver/99V*%
X130559999Y-118999999D03*
%TO.P,Q3,3,S*%
%TO.N,/Driver/VS2*%
X128019999Y-118999999D03*
%TD*%
D12*
%TO.P,C17,1*%
%TO.N,/Driver/12V*%
X99999999Y-84499999D03*
D13*
%TO.P,C17,2*%
%TO.N,GND*%
X100000000Y-87000000D03*
%TD*%
D14*
%TO.P,J3,1,Pin_1*%
%TO.N,/ADC_EXT*%
X115600000Y-95350000D03*
D15*
%TO.P,J3,2,Pin_2*%
%TO.N,Net-(J3-Pin_2)*%
X113599999Y-95349999D03*
%TO.P,J3,3,Pin_3*%
%TO.N,Net-(J3-Pin_3)*%
X111599999Y-95349999D03*
%TO.P,J3,4,Pin_4*%
%TO.N,/CANH*%
X109599999Y-95349999D03*
%TO.P,J3,5,Pin_5*%
%TO.N,/CANL*%
X107599999Y-95349999D03*
%TO.P,J3,6,Pin_6*%
%TO.N,GND*%
X105599999Y-95349999D03*
%TD*%
D16*
%TO.P,J2,1,Pin_1*%
%TO.N,/HALL-VCC*%
X113500000Y-83550000D03*
D15*
%TO.P,J2,2,Pin_2*%
%TO.N,/MOTOR-TEMP*%
X115499999Y-83549999D03*
%TO.P,J2,3,Pin_3*%
%TO.N,/HALL1*%
X117499999Y-83549999D03*
%TO.P,J2,4,Pin_4*%
%TO.N,/HALL2*%
X119499999Y-83549999D03*
%TO.P,J2,5,Pin_5*%
%TO.N,/HALL3*%
X121499999Y-83549999D03*
%TO.P,J2,6,Pin_6*%
%TO.N,GND*%
X123499999Y-83549999D03*
%TD*%
D17*
%TO.P,C101,1*%
%TO.N,/Driver/99V*%
X105999999Y-110499999D03*
D18*
%TO.P,C101,2*%
%TO.N,GND*%
X101000000Y-110500000D03*
%TD*%
D17*
%TO.P,C102,1*%
%TO.N,/Driver/99V*%
X132999999Y-110499999D03*
D18*
%TO.P,C102,2*%
%TO.N,GND*%
X128000000Y-110500000D03*
%TD*%
D19*
%TO.P,X3,1*%
%TO.N,/Driver/PhaseA*%
X99500000Y-137000000D03*
X99500000Y-131000000D03*
X94500000Y-137000000D03*
X94500000Y-131000000D03*
%TD*%
%TO.P,X4,1*%
%TO.N,/Driver/PhaseB*%
X122000000Y-137000000D03*
X122000000Y-131000000D03*
X117000000Y-137000000D03*
X117000000Y-131000000D03*
%TD*%
D20*
%TO.P,J1,1,VBUS*%
%TO.N,unconnected-(J1-VBUS)*%
X156437499Y-100199999D03*
%TO.P,J1,2,D-*%
%TO.N,Net-(J1-D-)*%
X156437499Y-100849999D03*
%TO.P,J1,3,D+*%
%TO.N,Net-(J1-D+)*%
X156437499Y-101499999D03*
%TO.P,J1,4,ID*%
%TO.N,unconnected-(J1-ID)*%
X156437499Y-102149999D03*
%TO.P,J1,5,GND*%
%TO.N,GND*%
X156437499Y-102799999D03*
D21*
%TO.P,J1,6,Shield*%
%TO.N,unconnected-(J1-Shield)*%
X156187499Y-98699999D03*
D22*
X158337499Y-101499999D03*
D21*
X156187499Y-104299999D03*
%TD*%
D19*
%TO.P,X1,1*%
%TO.N,/Driver/99V*%
X89200000Y-114500000D03*
X89200000Y-108500000D03*
X84200000Y-114500000D03*
X84200000Y-108500000D03*
%TD*%
D12*
%TO.P,C5,1*%
%TO.N,/Driver/75V*%
X93999999Y-94999999D03*
D13*
%TO.P,C5,2*%
%TO.N,GND*%
X96500000Y-95000000D03*
%TD*%
D17*
%TO.P,C103,1*%
%TO.N,/Driver/99V*%
X149423958Y-110499999D03*
D18*
%TO.P,C103,2*%
%TO.N,GND*%
X144423959Y-110500000D03*
%TD*%
D23*
%TO.P,J4,1,Pin_1*%
%TO.N,GND*%
X134999999Y-102599999D03*
D24*
%TO.P,J4,2,Pin_2*%
%TO.N,/3.3V*%
X137539999Y-102599999D03*
%TO.P,J4,3,Pin_3*%
%TO.N,/SWCK*%
X140079999Y-102599999D03*
%TO.P,J4,4,Pin_4*%
%TO.N,/SWIO*%
X142619999Y-102599999D03*
%TD*%
D19*
%TO.P,X5,1*%
%TO.N,/Driver/PhaseC*%
X144500000Y-137000000D03*
X144500000Y-131000000D03*
X139500000Y-137000000D03*
X139500000Y-131000000D03*
%TD*%
D23*
%TO.P,J5,1,Pin_1*%
%TO.N,GND*%
X158199999Y-87399999D03*
D24*
%TO.P,J5,2,Pin_2*%
%TO.N,/DEBUG_TX*%
X158199999Y-84859999D03*
%TO.P,J5,3,Pin_3*%
%TO.N,/DEBUG_RX*%
X158199999Y-82319999D03*
%TD*%
D19*
%TO.P,X2,1*%
%TO.N,GND*%
X89200000Y-126700000D03*
X89200000Y-120700000D03*
X84200000Y-126700000D03*
X84200000Y-120700000D03*
%TD*%
D25*
%TO.N,Net-(D2-A)*%
X97700000Y-116000000D03*
%TO.N,Net-(D5-A)*%
X113500000Y-116000000D03*
%TO.N,/BOOT0*%
X145400000Y-96000000D03*
X130500000Y-98400000D03*
%TO.N,Net-(D11-A)*%
X137100000Y-116000000D03*
%TO.N,Net-(J1-D-)*%
X155000000Y-100500000D03*
%TO.N,/BLE_MODE*%
X142700000Y-82700000D03*
X100300000Y-96100000D03*
X87100000Y-103500000D03*
%TO.N,/BLE_TX*%
X87100000Y-101500000D03*
X140800000Y-82600000D03*
X101000000Y-94100000D03*
%TO.N,Net-(J1-D+)*%
X155000000Y-101500000D03*
%TO.N,/AIN_CS3*%
X158500000Y-133100000D03*
X146000000Y-86000000D03*
%TO.N,/AIN_CS2*%
X146500000Y-83000000D03*
X141900000Y-126900000D03*
%TO.N,/AIN_CS1*%
X147000000Y-86000000D03*
X118800000Y-126100000D03*
%TO.N,/AIN_VS1*%
X120500000Y-99500000D03*
X151702471Y-85996500D03*
%TO.N,/AIN_VS2*%
X124500000Y-99500000D03*
X150000000Y-84500000D03*
%TO.N,/AIN_VS3*%
X128500000Y-99500000D03*
X148000000Y-86000000D03*
%TO.N,/AIN_VIN*%
X110100000Y-102600000D03*
X144500000Y-86000000D03*
%TO.N,/ADC_EXT*%
X143500000Y-88100000D03*
X125300000Y-91900000D03*
%TO.N,/DEBUG_TX*%
X138600000Y-82600000D03*
%TO.N,/DEBUG_RX*%
X137800000Y-82600000D03*
%TO.N,GND*%
X91800000Y-97700000D03*
X152300000Y-98400000D03*
X126600000Y-84200000D03*
X107600000Y-105300000D03*
X96500000Y-104900000D03*
D26*
X106700000Y-84500000D03*
D25*
X84900000Y-101800000D03*
X132400000Y-132200000D03*
X115500000Y-90000000D03*
X123500000Y-100500000D03*
X90500000Y-100200000D03*
D26*
X104100000Y-84500000D03*
D25*
X97800000Y-103000000D03*
X92400000Y-125600000D03*
D26*
X103200000Y-81000000D03*
X107900000Y-84500000D03*
D25*
X129400000Y-92400000D03*
X132400000Y-132900000D03*
X156100000Y-81100000D03*
X91900000Y-104900000D03*
X136900000Y-82600000D03*
D26*
X107300000Y-81000000D03*
D25*
X151800000Y-89000000D03*
X90500000Y-104100000D03*
X93000000Y-97700000D03*
X89000000Y-104900000D03*
X133700000Y-82600000D03*
X156100000Y-91300000D03*
X101800000Y-99500000D03*
X154914500Y-133037763D03*
X120000000Y-90000000D03*
X127500000Y-101000000D03*
D26*
X83100000Y-90800000D03*
D25*
X112000000Y-88500000D03*
X121300000Y-90000000D03*
X123500000Y-82100000D03*
X119500000Y-100000000D03*
X97800000Y-104900000D03*
X156100000Y-85000000D03*
X148500000Y-102300000D03*
X117000000Y-89000000D03*
X154700000Y-98400000D03*
X139500000Y-105700000D03*
D26*
X110000000Y-87000000D03*
D25*
X156100000Y-89500000D03*
D26*
X104700000Y-81000000D03*
D25*
X94400000Y-104900000D03*
X84900000Y-104900000D03*
X110000000Y-85200000D03*
X152000000Y-93500000D03*
X156100000Y-82700000D03*
X92400000Y-127600000D03*
X97800000Y-99300000D03*
X154914500Y-132337763D03*
X155300000Y-96600000D03*
X125100000Y-84200000D03*
D26*
X105400000Y-84500000D03*
D25*
X94000000Y-124300000D03*
X90500000Y-102800000D03*
X130000000Y-81000000D03*
X87100000Y-104900000D03*
D26*
X108900000Y-87000000D03*
D25*
X112300000Y-102500000D03*
X109900000Y-132200000D03*
X130900000Y-84200000D03*
X109900000Y-132900000D03*
X97800000Y-98000000D03*
X112000000Y-87500000D03*
X156100000Y-96600000D03*
X107000000Y-100400000D03*
X117000000Y-90000000D03*
X152300000Y-94700000D03*
X96900000Y-127600000D03*
X153600000Y-81100000D03*
D26*
X84000000Y-91300000D03*
X93700000Y-89000000D03*
D25*
X154800000Y-104000000D03*
X112500000Y-104800000D03*
X90500000Y-99000000D03*
D26*
X106000000Y-81000000D03*
D25*
X135100000Y-101100000D03*
X90500000Y-97700000D03*
D26*
X83100000Y-92600000D03*
D25*
X123500000Y-81100000D03*
X118500000Y-90000000D03*
X84900000Y-103300000D03*
%TO.N,/3.3V*%
X95000000Y-103800000D03*
X133600000Y-84700000D03*
X99800000Y-102500000D03*
X127400000Y-89400000D03*
X101800000Y-101000000D03*
X150400000Y-99400000D03*
X152200000Y-96600000D03*
X152600000Y-87900000D03*
X110000000Y-91900000D03*
X147700000Y-83000000D03*
X136200000Y-83500000D03*
X134700000Y-98500000D03*
X149400000Y-100600000D03*
%TO.N,/AIN_V12V*%
X99600000Y-81300000D03*
X144800000Y-88100000D03*
%TO.N,/Driver/LO2*%
X110500000Y-105500000D03*
X119000000Y-114500000D03*
%TO.N,/Driver/LO3*%
X142500000Y-114500000D03*
X111000000Y-110500000D03*
D26*
%TO.N,/Driver/12V*%
X115100000Y-88400000D03*
X118000000Y-100500000D03*
X101800000Y-97000000D03*
X113500000Y-99000000D03*
X92500000Y-122100000D03*
D25*
%TO.N,/Driver/5V*%
X133800000Y-134700000D03*
X156300000Y-134700000D03*
X111300000Y-134700000D03*
X95300000Y-125700000D03*
%TO.N,/MOTOR-TEMP*%
X139700000Y-90300000D03*
X120500000Y-88500000D03*
%TO.N,/HALL1*%
X131500000Y-88500000D03*
%TO.N,/HALL2*%
X130500000Y-88500000D03*
%TO.N,/HALL3*%
X129500000Y-88500000D03*
%TO.N,/UART_T*%
X119500000Y-92300000D03*
X141700000Y-91700000D03*
%TO.N,/UART_R*%
X142500000Y-91700000D03*
X116600000Y-93300000D03*
%TO.N,/LED1*%
X147000000Y-103200000D03*
X145400000Y-104900000D03*
%TO.N,/LED2*%
X145400000Y-106600000D03*
X147700000Y-102700000D03*
%TO.N,/CAN-R*%
X138900000Y-94900000D03*
X104900000Y-103000000D03*
%TO.N,/CAN-T*%
X140000000Y-94900000D03*
X104900000Y-98100000D03*
%TO.N,/SWIO*%
X133000000Y-100400000D03*
%TO.N,/BLE_RX*%
X139800000Y-82300000D03*
X101000000Y-94900000D03*
X87100000Y-102500000D03*
D26*
%TO.N,/Driver/75V*%
X91400000Y-90000000D03*
X91400000Y-89000000D03*
D25*
X92600000Y-106800000D03*
X92600000Y-106200000D03*
D26*
X89400000Y-89000000D03*
X90400000Y-89000000D03*
%TD*%
D27*
%TO.N,Net-(J1-D-)*%
X156437500Y-100850000D02*
X155350000Y-100850000D01*
X155350000Y-100850000D02*
X155000000Y-100500000D01*
%TO.N,/BLE_MODE*%
X131649040Y-80950960D02*
X131749040Y-80950960D01*
X122450960Y-90149040D02*
X131649040Y-80950960D01*
X101606428Y-93400000D02*
X100700000Y-93400000D01*
X122450960Y-90149040D02*
X122450960Y-92706894D01*
X100700000Y-93400000D02*
X100300000Y-93800000D01*
X140950960Y-80950960D02*
X131749040Y-80950960D01*
X104957388Y-96750960D02*
X101606428Y-93400000D01*
X142700000Y-82700000D02*
X140950960Y-80950960D01*
X122450960Y-92706894D02*
X118406894Y-96750960D01*
X100300000Y-93800000D02*
X100300000Y-96100000D01*
X118406894Y-96750960D02*
X104957388Y-96750960D01*
%TO.N,/BLE_TX*%
X104750480Y-97250480D02*
X101600000Y-94100000D01*
X101600000Y-94100000D02*
X101000000Y-94100000D01*
X140800000Y-82100000D02*
X140150480Y-81450480D01*
X140800000Y-82600000D02*
X140800000Y-82100000D01*
X131849520Y-81450480D02*
X132049520Y-81450480D01*
X140150480Y-81450480D02*
X132049520Y-81450480D01*
X118613802Y-97250480D02*
X104750480Y-97250480D01*
X122950480Y-90349520D02*
X131849520Y-81450480D01*
X122950480Y-90349520D02*
X122950480Y-92913802D01*
X122950480Y-92913802D02*
X118613802Y-97250480D01*
%TO.N,Net-(J1-D+)*%
X155000000Y-101500000D02*
X156437500Y-101500000D01*
D28*
%TO.N,unconnected-(J1-Shield)*%
X156187500Y-98700000D02*
X157600000Y-98700000D01*
X158337500Y-101500000D02*
X158337500Y-103562500D01*
X158337500Y-103562500D02*
X157600000Y-104300000D01*
X157600000Y-104300000D02*
X156187500Y-104300000D01*
X157600000Y-98700000D02*
X158337500Y-99437500D01*
X158337500Y-99437500D02*
X158337500Y-101500000D01*
D27*
%TO.N,GND*%
X154800000Y-103100000D02*
X155100000Y-102800000D01*
X154800000Y-104300000D02*
X154800000Y-103100000D01*
X155100000Y-102800000D02*
X156437500Y-102800000D01*
D29*
%TO.N,/Driver/12V*%
X101800000Y-97000000D02*
X103800000Y-99000000D01*
X103800000Y-99000000D02*
X113500000Y-99000000D01*
D27*
%TO.N,/BLE_RX*%
X132050000Y-81950000D02*
X123449999Y-90550001D01*
X103499897Y-99724511D02*
X116846198Y-99724511D01*
X101000000Y-97224614D02*
X103499897Y-99724511D01*
X139800000Y-82300000D02*
X139450000Y-81950000D01*
X123450000Y-93120709D02*
X123449999Y-90649999D01*
X132050000Y-81950000D02*
X137850000Y-81950000D01*
X139450000Y-81950000D02*
X137850000Y-81950000D01*
X101000000Y-94900000D02*
X101000000Y-97224614D01*
X123449999Y-90550001D02*
X123449999Y-90649999D01*
X116846198Y-99724511D02*
X123450000Y-93120709D01*
D30*
%TO.N,/Driver/75V*%
X92600000Y-105800000D02*
X92600000Y-106800000D01*
X94000000Y-99400000D02*
X93260000Y-100140000D01*
X93260000Y-100140000D02*
X93260000Y-105140000D01*
X93260000Y-105140000D02*
X92600000Y-105800000D01*
X94000000Y-95000000D02*
X94000000Y-99400000D01*
%TD*%
%TA.AperFunction,Conductor*%
%TO.N,Net-(J1-D+)*%
G36*
X155106546Y-101273751D02*
G01*
X155191801Y-101310762D01*
X155261216Y-101340881D01*
X155261486Y-101340968D01*
X155261492Y-101340970D01*
X155286889Y-101349130D01*
X155322999Y-101360732D01*
X155396232Y-101371657D01*
X155396556Y-101371667D01*
X155396562Y-101371668D01*
X155428382Y-101372693D01*
X155500000Y-101375000D01*
X155500000Y-101625000D01*
X155468254Y-101626022D01*
X155468252Y-101626022D01*
X155438739Y-101626973D01*
X155396562Y-101628331D01*
X155396556Y-101628332D01*
X155396232Y-101628342D01*
X155322999Y-101639267D01*
X155286854Y-101650880D01*
X155261492Y-101659028D01*
X155261486Y-101659030D01*
X155261216Y-101659117D01*
X155191801Y-101689237D01*
X155106546Y-101726249D01*
X155097593Y-101726400D01*
X155091094Y-101720034D01*
X155000891Y-101504517D01*
X155000891Y-101495483D01*
X155091094Y-101279966D01*
X155097450Y-101273657D01*
X155106546Y-101273751D01*
G37*
%TD.AperFunction*%
%TD*%
%TA.AperFunction,Conductor*%
%TO.N,/BLE_MODE*%
G36*
X142443099Y-82265807D02*
G01*
X142503144Y-82322103D01*
X142510573Y-82329068D01*
X142570082Y-82373127D01*
X142627805Y-82402777D01*
X142628064Y-82402879D01*
X142628070Y-82402882D01*
X142698186Y-82430563D01*
X142784644Y-82464679D01*
X142791081Y-82470903D01*
X142791175Y-82479999D01*
X142754406Y-82569701D01*
X142702564Y-82696176D01*
X142696176Y-82702564D01*
X142631547Y-82729056D01*
X142479999Y-82791175D01*
X142471045Y-82791142D01*
X142464679Y-82784644D01*
X142430563Y-82698186D01*
X142402882Y-82628070D01*
X142402879Y-82628064D01*
X142402777Y-82627805D01*
X142373127Y-82570082D01*
X142329068Y-82510573D01*
X142300404Y-82480000D01*
X142265807Y-82443099D01*
X142262648Y-82434720D01*
X142266069Y-82426824D01*
X142426824Y-82266069D01*
X142435097Y-82262642D01*
X142443099Y-82265807D01*
G37*
%TD.AperFunction*%
%TD*%
%TA.AperFunction,Conductor*%
%TO.N,/BLE_TX*%
G36*
X101106546Y-93873751D02*
G01*
X101191801Y-93910762D01*
X101261216Y-93940881D01*
X101261486Y-93940968D01*
X101261492Y-93940970D01*
X101286889Y-93949130D01*
X101322999Y-93960732D01*
X101396232Y-93971657D01*
X101396556Y-93971667D01*
X101396562Y-93971668D01*
X101454535Y-93973535D01*
X101488678Y-93974635D01*
X101496835Y-93978327D01*
X101500000Y-93986329D01*
X101500000Y-94213671D01*
X101496573Y-94221944D01*
X101488678Y-94225365D01*
X101445629Y-94226751D01*
X101396562Y-94228331D01*
X101396556Y-94228332D01*
X101396232Y-94228342D01*
X101322999Y-94239267D01*
X101286854Y-94250880D01*
X101261492Y-94259028D01*
X101261486Y-94259030D01*
X101261216Y-94259117D01*
X101191801Y-94289237D01*
X101106546Y-94326249D01*
X101097593Y-94326400D01*
X101091094Y-94320034D01*
X101000891Y-94104517D01*
X101000891Y-94095483D01*
X101091094Y-93879966D01*
X101097450Y-93873657D01*
X101106546Y-93873751D01*
G37*
%TD.AperFunction*%
%TD*%
%TA.AperFunction,Conductor*%
%TO.N,Net-(J1-D+)*%
G36*
X155692977Y-101276641D02*
G01*
X156401090Y-101488792D01*
X156408031Y-101494449D01*
X156408940Y-101503358D01*
X156403283Y-101510299D01*
X156401090Y-101511208D01*
X155692977Y-101723359D01*
X155684069Y-101722450D01*
X155682846Y-101721690D01*
X155642500Y-101692999D01*
X155631578Y-101686688D01*
X155597769Y-101667154D01*
X155597763Y-101667151D01*
X155597500Y-101666999D01*
X155552500Y-101646999D01*
X155552179Y-101646899D01*
X155507849Y-101633107D01*
X155507841Y-101633105D01*
X155507500Y-101632999D01*
X155507141Y-101632935D01*
X155507136Y-101632934D01*
X155487334Y-101629414D01*
X155468252Y-101626022D01*
X155468250Y-101626022D01*
X155462500Y-101625000D01*
X155462500Y-101375000D01*
X155494161Y-101369371D01*
X155507136Y-101367064D01*
X155507140Y-101367063D01*
X155507500Y-101366999D01*
X155507841Y-101366893D01*
X155507849Y-101366891D01*
X155552179Y-101353099D01*
X155552181Y-101353098D01*
X155552500Y-101352999D01*
X155597500Y-101332999D01*
X155597763Y-101332847D01*
X155597769Y-101332844D01*
X155642274Y-101307130D01*
X155642280Y-101307126D01*
X155642500Y-101306999D01*
X155682840Y-101278314D01*
X155691567Y-101276312D01*
X155692977Y-101276641D01*
G37*
%TD.AperFunction*%
%TD*%
%TA.AperFunction,Conductor*%
%TO.N,/BLE_MODE*%
G36*
X100421944Y-95603427D02*
G01*
X100425365Y-95611322D01*
X100428342Y-95703767D01*
X100439267Y-95777000D01*
X100459117Y-95838782D01*
X100489237Y-95908197D01*
X100526249Y-95993454D01*
X100526400Y-96002407D01*
X100520034Y-96008906D01*
X100304517Y-96099109D01*
X100295483Y-96099109D01*
X100079966Y-96008906D01*
X100073657Y-96002550D01*
X100073751Y-95993454D01*
X100110762Y-95908197D01*
X100140881Y-95838782D01*
X100160732Y-95777000D01*
X100171657Y-95703767D01*
X100174635Y-95611322D01*
X100178327Y-95603165D01*
X100186329Y-95600000D01*
X100413671Y-95600000D01*
X100421944Y-95603427D01*
G37*
%TD.AperFunction*%
%TD*%
%TA.AperFunction,Conductor*%
%TO.N,/Driver/99V*%
G36*
X91708691Y-105918907D02*
G01*
X91744655Y-105968407D01*
X91749500Y-105999000D01*
X91749500Y-106846113D01*
X91749789Y-106848767D01*
X91749789Y-106848774D01*
X91758884Y-106932398D01*
X91764486Y-106983910D01*
X91823556Y-107159221D01*
X91918930Y-107317736D01*
X91981757Y-107384061D01*
X92042457Y-107448142D01*
X92042460Y-107448145D01*
X92046151Y-107452041D01*
X92050595Y-107455054D01*
X92050596Y-107455055D01*
X92194824Y-107552844D01*
X92194827Y-107552846D01*
X92199270Y-107555858D01*
X92204253Y-107557843D01*
X92204256Y-107557845D01*
X92366140Y-107622345D01*
X92371125Y-107624331D01*
X92462404Y-107639296D01*
X92548386Y-107653392D01*
X92548390Y-107653392D01*
X92553683Y-107654260D01*
X92738407Y-107644245D01*
X92807005Y-107625199D01*
X92911492Y-107596189D01*
X92911495Y-107596188D01*
X92916659Y-107594754D01*
X93080104Y-107508100D01*
X93221100Y-107388337D01*
X93246727Y-107354626D01*
X93329805Y-107245338D01*
X93333054Y-107241064D01*
X93355090Y-107193436D01*
X93408479Y-107078037D01*
X93408479Y-107078036D01*
X93410732Y-107073167D01*
X93450500Y-106892497D01*
X93450500Y-106193296D01*
X93469407Y-106135105D01*
X93479496Y-106123293D01*
X93673792Y-105928997D01*
X93728308Y-105901219D01*
X93743795Y-105900000D01*
X100086405Y-105900000D01*
X100099326Y-105900847D01*
X100112453Y-105902575D01*
X100209380Y-105915336D01*
X100234343Y-105922025D01*
X100330852Y-105962000D01*
X100353234Y-105974922D01*
X100441294Y-106042493D01*
X100451031Y-106051031D01*
X100900000Y-106500000D01*
X100999140Y-106500000D01*
X100999825Y-106500001D01*
X101000000Y-106500001D01*
X101000988Y-106500004D01*
X101000988Y-106500018D01*
X101001076Y-106500004D01*
X141315451Y-106659350D01*
X144564804Y-106672193D01*
X144622920Y-106691330D01*
X144658688Y-106740972D01*
X144662790Y-106760106D01*
X144663063Y-106762530D01*
X144663065Y-106762539D01*
X144663687Y-106768059D01*
X144719544Y-106927690D01*
X144722501Y-106932396D01*
X144722502Y-106932398D01*
X144758061Y-106988989D01*
X144809523Y-107070890D01*
X144929110Y-107190477D01*
X145072310Y-107280456D01*
X145231941Y-107336313D01*
X145400000Y-107355249D01*
X145405529Y-107354626D01*
X145562530Y-107336936D01*
X145568059Y-107336313D01*
X145727690Y-107280456D01*
X145870890Y-107190477D01*
X145990477Y-107070890D01*
X146041939Y-106988989D01*
X146077498Y-106932398D01*
X146077499Y-106932396D01*
X146080456Y-106927690D01*
X146136313Y-106768059D01*
X146136935Y-106762538D01*
X146138173Y-106757114D01*
X146140575Y-106757662D01*
X146161769Y-106711001D01*
X146214985Y-106680806D01*
X146235228Y-106678796D01*
X151387613Y-106699161D01*
X151400453Y-106700049D01*
X151509915Y-106714826D01*
X151534729Y-106721544D01*
X151630679Y-106761508D01*
X151652928Y-106774392D01*
X151740504Y-106841679D01*
X151750188Y-106850176D01*
X152542890Y-107642810D01*
X157400000Y-112499505D01*
X157993499Y-112499505D01*
X158006422Y-112500352D01*
X158116479Y-112514842D01*
X158141442Y-112521531D01*
X158237952Y-112561507D01*
X158260334Y-112574430D01*
X158343205Y-112638021D01*
X158361480Y-112656296D01*
X158425070Y-112739171D01*
X158437992Y-112761553D01*
X158477967Y-112858066D01*
X158484655Y-112883029D01*
X158499142Y-112993079D01*
X158499989Y-113006000D01*
X158499981Y-113349973D01*
X158499808Y-120993065D01*
X158498961Y-121005986D01*
X158484471Y-121116037D01*
X158477782Y-121140997D01*
X158437812Y-121237498D01*
X158424891Y-121259879D01*
X158361305Y-121342748D01*
X158343032Y-121361022D01*
X158260165Y-121424613D01*
X158237787Y-121437534D01*
X158141286Y-121477511D01*
X158116326Y-121484201D01*
X158006279Y-121498696D01*
X157993359Y-121499544D01*
X155250578Y-121499753D01*
X152506520Y-121499962D01*
X152493613Y-121499117D01*
X152420814Y-121489537D01*
X152383543Y-121484633D01*
X152358579Y-121477945D01*
X152262066Y-121437975D01*
X152239683Y-121425054D01*
X152156801Y-121361463D01*
X152138525Y-121343189D01*
X152074928Y-121260312D01*
X152062006Y-121237930D01*
X152022028Y-121141420D01*
X152015338Y-121116456D01*
X152000847Y-121006395D01*
X152000000Y-120993472D01*
X152000000Y-117952127D01*
X154147000Y-117952127D01*
X154147001Y-120047872D01*
X154153409Y-120107483D01*
X154203704Y-120242331D01*
X154289954Y-120357546D01*
X154405169Y-120443796D01*
X154540017Y-120494091D01*
X154546170Y-120494753D01*
X154546172Y-120494753D01*
X154563966Y-120496666D01*
X154599627Y-120500500D01*
X155599811Y-120500500D01*
X156600372Y-120500499D01*
X156659983Y-120494091D01*
X156794831Y-120443796D01*
X156910046Y-120357546D01*
X156996296Y-120242331D01*
X157046591Y-120107483D01*
X157047254Y-120101322D01*
X157052717Y-120050501D01*
X157053000Y-120047873D01*
X157052999Y-117952128D01*
X157046591Y-117892517D01*
X156996296Y-117757669D01*
X156910046Y-117642454D01*
X156794831Y-117556204D01*
X156659983Y-117505909D01*
X156653830Y-117505247D01*
X156653828Y-117505247D01*
X156636034Y-117503334D01*
X156600373Y-117499500D01*
X155600190Y-117499500D01*
X154599628Y-117499501D01*
X154540017Y-117505909D01*
X154405169Y-117556204D01*
X154289954Y-117642454D01*
X154203704Y-117757669D01*
X154153409Y-117892517D01*
X154152747Y-117898670D01*
X154152747Y-117898672D01*
X154150834Y-117916466D01*
X154147000Y-117952127D01*
X152000000Y-117952127D01*
X152000000Y-116000000D01*
X137943663Y-115999536D01*
X137885476Y-115980628D01*
X137849513Y-115931127D01*
X137845292Y-115911622D01*
X137836937Y-115837470D01*
X137836935Y-115837461D01*
X137836313Y-115831941D01*
X137834478Y-115826695D01*
X137782292Y-115677558D01*
X137780456Y-115672310D01*
X137690477Y-115529110D01*
X137570890Y-115409523D01*
X137427690Y-115319544D01*
X137268059Y-115263687D01*
X137100000Y-115244751D01*
X136931941Y-115263687D01*
X136772310Y-115319544D01*
X136629110Y-115409523D01*
X136509523Y-115529110D01*
X136419544Y-115672310D01*
X136363687Y-115831941D01*
X136344751Y-116000000D01*
X136363687Y-116168059D01*
X136419544Y-116327690D01*
X136509523Y-116470890D01*
X136629110Y-116590477D01*
X136633818Y-116593435D01*
X136633819Y-116593436D01*
X136764122Y-116675311D01*
X136772310Y-116680456D01*
X136878262Y-116717530D01*
X136931941Y-116736313D01*
X136931174Y-116738505D01*
X136975561Y-116765031D01*
X136999602Y-116821296D01*
X137000000Y-116830159D01*
X137000000Y-120993050D01*
X136999153Y-121005972D01*
X136984665Y-121116020D01*
X136977977Y-121140982D01*
X136938005Y-121237487D01*
X136925084Y-121259868D01*
X136861499Y-121342739D01*
X136843226Y-121361013D01*
X136842635Y-121361467D01*
X136760357Y-121424606D01*
X136737979Y-121437527D01*
X136641475Y-121477505D01*
X136616515Y-121484195D01*
X136506467Y-121498690D01*
X136493545Y-121499538D01*
X131516271Y-121499862D01*
X129906517Y-121499967D01*
X129893608Y-121499122D01*
X129822592Y-121489777D01*
X129783538Y-121484637D01*
X129758575Y-121477949D01*
X129662061Y-121437978D01*
X129639680Y-121425059D01*
X129556800Y-121361467D01*
X129538525Y-121343193D01*
X129474928Y-121260317D01*
X129462005Y-121237934D01*
X129422027Y-121141424D01*
X129415337Y-121116460D01*
X129400847Y-121006402D01*
X129400000Y-120993479D01*
X129400000Y-119529231D01*
X129403029Y-119504928D01*
X129457091Y-119291441D01*
X129457091Y-119291440D01*
X129458095Y-119287476D01*
X129473000Y-119107600D01*
X129473000Y-118892400D01*
X129458095Y-118712524D01*
X129403029Y-118495072D01*
X129400000Y-118470769D01*
X129400000Y-117952127D01*
X131647000Y-117952127D01*
X131647001Y-120047872D01*
X131653409Y-120107483D01*
X131703704Y-120242331D01*
X131789954Y-120357546D01*
X131905169Y-120443796D01*
X132040017Y-120494091D01*
X132046170Y-120494753D01*
X132046172Y-120494753D01*
X132063966Y-120496666D01*
X132099627Y-120500500D01*
X133099811Y-120500500D01*
X134100372Y-120500499D01*
X134159983Y-120494091D01*
X134294831Y-120443796D01*
X134410046Y-120357546D01*
X134496296Y-120242331D01*
X134546591Y-120107483D01*
X134547254Y-120101322D01*
X134552717Y-120050501D01*
X134553000Y-120047873D01*
X134552999Y-117952128D01*
X134546591Y-117892517D01*
X134496296Y-117757669D01*
X134410046Y-117642454D01*
X134294831Y-117556204D01*
X134159983Y-117505909D01*
X134153830Y-117505247D01*
X134153828Y-117505247D01*
X134136034Y-117503334D01*
X134100373Y-117499500D01*
X133100190Y-117499500D01*
X132099628Y-117499501D01*
X132040017Y-117505909D01*
X131905169Y-117556204D01*
X131789954Y-117642454D01*
X131703704Y-117757669D01*
X131653409Y-117892517D01*
X131652747Y-117898670D01*
X131652747Y-117898672D01*
X131650834Y-117916466D01*
X131647000Y-117952127D01*
X129400000Y-117952127D01*
X129400000Y-116000000D01*
X121761495Y-115999754D01*
X115801729Y-115999563D01*
X114503264Y-115999521D01*
X114500021Y-115999521D01*
X114292728Y-115999514D01*
X114263004Y-115975443D01*
X114247656Y-115932610D01*
X114236936Y-115837470D01*
X114236313Y-115831941D01*
X114180456Y-115672310D01*
X114090477Y-115529110D01*
X113970890Y-115409523D01*
X113827690Y-115319544D01*
X113668059Y-115263687D01*
X113500000Y-115244751D01*
X113331941Y-115263687D01*
X113172310Y-115319544D01*
X113029110Y-115409523D01*
X112909523Y-115529110D01*
X112819544Y-115672310D01*
X112763687Y-115831941D01*
X112744751Y-116000000D01*
X112763687Y-116168059D01*
X112819544Y-116327690D01*
X112909523Y-116470890D01*
X113029110Y-116590477D01*
X113033818Y-116593435D01*
X113033819Y-116593436D01*
X113164122Y-116675311D01*
X113172310Y-116680456D01*
X113331941Y-116736313D01*
X113500000Y-116755249D01*
X113505529Y-116754626D01*
X113662530Y-116736936D01*
X113668059Y-116736313D01*
X113827690Y-116680456D01*
X113835879Y-116675311D01*
X113848338Y-116667482D01*
X113907669Y-116652532D01*
X113964456Y-116675311D01*
X113997008Y-116727118D01*
X114000009Y-116751307D01*
X114000060Y-120993048D01*
X113999213Y-121005968D01*
X113999156Y-121006402D01*
X113984727Y-121116017D01*
X113978039Y-121140980D01*
X113938069Y-121237484D01*
X113925150Y-121259863D01*
X113861562Y-121342739D01*
X113861561Y-121342740D01*
X113843288Y-121361014D01*
X113760421Y-121424606D01*
X113738042Y-121437528D01*
X113641538Y-121477507D01*
X113616576Y-121484197D01*
X113506529Y-121498692D01*
X113493608Y-121499540D01*
X109734476Y-121499802D01*
X107406517Y-121499965D01*
X107393609Y-121499119D01*
X107283540Y-121484636D01*
X107258579Y-121477950D01*
X107162061Y-121437976D01*
X107139682Y-121425057D01*
X107056797Y-121361463D01*
X107038523Y-121343189D01*
X106974929Y-121260316D01*
X106962005Y-121237934D01*
X106922025Y-121141418D01*
X106915337Y-121116456D01*
X106915280Y-121116017D01*
X106900847Y-121006395D01*
X106900000Y-120993475D01*
X106900000Y-119529231D01*
X106903029Y-119504928D01*
X106957091Y-119291441D01*
X106957091Y-119291440D01*
X106958095Y-119287476D01*
X106973000Y-119107600D01*
X106973000Y-118892400D01*
X106958095Y-118712524D01*
X106903029Y-118495072D01*
X106900000Y-118470769D01*
X106900000Y-117952127D01*
X109147000Y-117952127D01*
X109147001Y-120047872D01*
X109153409Y-120107483D01*
X109203704Y-120242331D01*
X109289954Y-120357546D01*
X109405169Y-120443796D01*
X109540017Y-120494091D01*
X109546170Y-120494753D01*
X109546172Y-120494753D01*
X109563966Y-120496666D01*
X109599627Y-120500500D01*
X110599811Y-120500500D01*
X111600372Y-120500499D01*
X111659983Y-120494091D01*
X111794831Y-120443796D01*
X111910046Y-120357546D01*
X111996296Y-120242331D01*
X112046591Y-120107483D01*
X112047254Y-120101322D01*
X112052717Y-120050501D01*
X112053000Y-120047873D01*
X112052999Y-117952128D01*
X112046591Y-117892517D01*
X111996296Y-117757669D01*
X111910046Y-117642454D01*
X111794831Y-117556204D01*
X111659983Y-117505909D01*
X111653830Y-117505247D01*
X111653828Y-117505247D01*
X111636034Y-117503334D01*
X111600373Y-117499500D01*
X110600190Y-117499500D01*
X109599628Y-117499501D01*
X109540017Y-117505909D01*
X109405169Y-117556204D01*
X109289954Y-117642454D01*
X109203704Y-117757669D01*
X109153409Y-117892517D01*
X109152747Y-117898670D01*
X109152747Y-117898672D01*
X109150834Y-117916466D01*
X109147000Y-117952127D01*
X106900000Y-117952127D01*
X106900000Y-116000000D01*
X106400020Y-115999980D01*
X100384670Y-115999740D01*
X98543677Y-115999666D01*
X98485489Y-115980757D01*
X98449527Y-115931256D01*
X98445306Y-115911752D01*
X98436936Y-115837470D01*
X98436313Y-115831941D01*
X98380456Y-115672310D01*
X98290477Y-115529110D01*
X98170890Y-115409523D01*
X98027690Y-115319544D01*
X97868059Y-115263687D01*
X97700000Y-115244751D01*
X97531941Y-115263687D01*
X97372310Y-115319544D01*
X97229110Y-115409523D01*
X97109523Y-115529110D01*
X97019544Y-115672310D01*
X96963687Y-115831941D01*
X96963065Y-115837465D01*
X96963063Y-115837472D01*
X96954701Y-115911684D01*
X96929398Y-115967391D01*
X96876182Y-115997587D01*
X96856320Y-115999599D01*
X95003333Y-115999525D01*
X95003331Y-115999525D01*
X94500004Y-115999505D01*
X94500072Y-116499592D01*
X94500072Y-116502832D01*
X94500085Y-116593047D01*
X94499240Y-116605971D01*
X94484764Y-116716036D01*
X94478078Y-116740999D01*
X94438111Y-116837520D01*
X94425193Y-116859900D01*
X94361608Y-116942783D01*
X94343335Y-116961060D01*
X94260461Y-117024663D01*
X94238081Y-117037587D01*
X94141570Y-117077571D01*
X94116607Y-117084262D01*
X94006550Y-117098759D01*
X93993627Y-117099607D01*
X87228894Y-117100007D01*
X82025302Y-117100315D01*
X82012406Y-117099471D01*
X81902453Y-117085019D01*
X81877520Y-117078347D01*
X81813518Y-117051872D01*
X81781095Y-117038460D01*
X81758731Y-117025567D01*
X81747457Y-117016930D01*
X81675896Y-116962107D01*
X81657629Y-116943874D01*
X81594013Y-116861147D01*
X81581082Y-116838811D01*
X81580544Y-116837515D01*
X81541021Y-116742456D01*
X81534303Y-116717530D01*
X81519652Y-116607620D01*
X81518784Y-116594713D01*
X81518706Y-116550486D01*
X81518618Y-116499984D01*
X81515105Y-114500000D01*
X118244751Y-114500000D01*
X118263687Y-114668059D01*
X118319544Y-114827690D01*
X118409523Y-114970890D01*
X118529110Y-115090477D01*
X118672310Y-115180456D01*
X118831941Y-115236313D01*
X119000000Y-115255249D01*
X119005529Y-115254626D01*
X119162530Y-115236936D01*
X119168059Y-115236313D01*
X119327690Y-115180456D01*
X119470890Y-115090477D01*
X119590477Y-114970890D01*
X119680456Y-114827690D01*
X119736313Y-114668059D01*
X119755249Y-114500000D01*
X141744751Y-114500000D01*
X141763687Y-114668059D01*
X141819544Y-114827690D01*
X141909523Y-114970890D01*
X142029110Y-115090477D01*
X142172310Y-115180456D01*
X142331941Y-115236313D01*
X142500000Y-115255249D01*
X142505529Y-115254626D01*
X142662530Y-115236936D01*
X142668059Y-115236313D01*
X142827690Y-115180456D01*
X142970890Y-115090477D01*
X143090477Y-114970890D01*
X143180456Y-114827690D01*
X143236313Y-114668059D01*
X143255249Y-114500000D01*
X143236313Y-114331941D01*
X143180456Y-114172310D01*
X143090477Y-114029110D01*
X142970890Y-113909523D01*
X142827690Y-113819544D01*
X142668059Y-113763687D01*
X142500000Y-113744751D01*
X142331941Y-113763687D01*
X142172310Y-113819544D01*
X142029110Y-113909523D01*
X141909523Y-114029110D01*
X141819544Y-114172310D01*
X141763687Y-114331941D01*
X141744751Y-114500000D01*
X119755249Y-114500000D01*
X119736313Y-114331941D01*
X119680456Y-114172310D01*
X119590477Y-114029110D01*
X119470890Y-113909523D01*
X119327690Y-113819544D01*
X119168059Y-113763687D01*
X119000000Y-113744751D01*
X118831941Y-113763687D01*
X118672310Y-113819544D01*
X118529110Y-113909523D01*
X118409523Y-114029110D01*
X118319544Y-114172310D01*
X118263687Y-114331941D01*
X118244751Y-114500000D01*
X81515105Y-114500000D01*
X81509955Y-111567765D01*
X84845788Y-111567765D01*
X84875414Y-111837018D01*
X84876328Y-111840513D01*
X84940450Y-112085783D01*
X84943928Y-112099088D01*
X84945344Y-112102420D01*
X84945345Y-112102423D01*
X84999089Y-112228892D01*
X85049870Y-112348390D01*
X85190982Y-112579610D01*
X85364255Y-112787820D01*
X85366949Y-112790234D01*
X85366953Y-112790238D01*
X85442654Y-112858066D01*
X85565998Y-112968582D01*
X85791910Y-113118044D01*
X85920328Y-113178244D01*
X86033901Y-113231485D01*
X86033904Y-113231486D01*
X86037176Y-113233020D01*
X86296569Y-113311060D01*
X86430565Y-113330780D01*
X86560979Y-113349973D01*
X86560981Y-113349973D01*
X86564561Y-113350500D01*
X86767631Y-113350500D01*
X86970156Y-113335677D01*
X86973673Y-113334894D01*
X86973677Y-113334893D01*
X87231030Y-113277565D01*
X87231033Y-113277564D01*
X87234553Y-113276780D01*
X87487558Y-113180014D01*
X87723777Y-113047441D01*
X87938177Y-112881888D01*
X87940689Y-112879283D01*
X88123675Y-112689486D01*
X88123678Y-112689482D01*
X88126186Y-112686881D01*
X88283799Y-112466579D01*
X88407656Y-112225675D01*
X88492011Y-111978413D01*
X88493949Y-111972733D01*
X88493951Y-111972727D01*
X88495118Y-111969305D01*
X88544319Y-111702933D01*
X88554212Y-111432235D01*
X88524586Y-111162982D01*
X88456072Y-110900912D01*
X88402279Y-110774325D01*
X88351547Y-110654944D01*
X88351546Y-110654942D01*
X88350130Y-110651610D01*
X88257603Y-110500000D01*
X99294732Y-110500000D01*
X99313778Y-110754157D01*
X99370492Y-111002637D01*
X99426087Y-111144290D01*
X99439121Y-111177498D01*
X99463607Y-111239888D01*
X99465455Y-111243089D01*
X99465457Y-111243093D01*
X99576745Y-111435851D01*
X99591041Y-111460612D01*
X99749950Y-111659877D01*
X99936783Y-111833232D01*
X100147366Y-111976805D01*
X100376996Y-112087389D01*
X100380531Y-112088479D01*
X100380530Y-112088479D01*
X100617001Y-112161421D01*
X100617004Y-112161422D01*
X100620542Y-112162513D01*
X100624211Y-112163066D01*
X100868900Y-112199948D01*
X100868906Y-112199948D01*
X100872565Y-112200500D01*
X101127435Y-112200500D01*
X101131094Y-112199948D01*
X101131100Y-112199948D01*
X101375789Y-112163066D01*
X101379458Y-112162513D01*
X101382996Y-112161422D01*
X101382999Y-112161421D01*
X101619470Y-112088479D01*
X101619469Y-112088479D01*
X101623004Y-112087389D01*
X101852634Y-111976805D01*
X102063217Y-111833232D01*
X102250050Y-111659877D01*
X102408959Y-111460612D01*
X102423255Y-111435851D01*
X102534543Y-111243093D01*
X102534545Y-111243089D01*
X102536393Y-111239888D01*
X102560880Y-111177498D01*
X102573913Y-111144290D01*
X102629508Y-111002637D01*
X102686222Y-110754157D01*
X102705268Y-110500000D01*
X110244751Y-110500000D01*
X110263687Y-110668059D01*
X110319544Y-110827690D01*
X110322501Y-110832396D01*
X110322502Y-110832398D01*
X110367754Y-110904415D01*
X110409523Y-110970890D01*
X110529110Y-111090477D01*
X110672310Y-111180456D01*
X110831941Y-111236313D01*
X110837470Y-111236936D01*
X110892114Y-111243093D01*
X111000000Y-111255249D01*
X111005529Y-111254626D01*
X111162530Y-111236936D01*
X111168059Y-111236313D01*
X111327690Y-111180456D01*
X111470890Y-111090477D01*
X111590477Y-110970890D01*
X111632246Y-110904415D01*
X111677498Y-110832398D01*
X111677499Y-110832396D01*
X111680456Y-110827690D01*
X111736313Y-110668059D01*
X111755249Y-110500000D01*
X126294732Y-110500000D01*
X126313778Y-110754157D01*
X126370492Y-111002637D01*
X126426087Y-111144290D01*
X126439121Y-111177498D01*
X126463607Y-111239888D01*
X126465455Y-111243089D01*
X126465457Y-111243093D01*
X126576745Y-111435851D01*
X126591041Y-111460612D01*
X126749950Y-111659877D01*
X126936783Y-111833232D01*
X127147366Y-111976805D01*
X127376996Y-112087389D01*
X127380531Y-112088479D01*
X127380530Y-112088479D01*
X127617001Y-112161421D01*
X127617004Y-112161422D01*
X127620542Y-112162513D01*
X127624211Y-112163066D01*
X127868900Y-112199948D01*
X127868906Y-112199948D01*
X127872565Y-112200500D01*
X128127435Y-112200500D01*
X128131094Y-112199948D01*
X128131100Y-112199948D01*
X128375789Y-112163066D01*
X128379458Y-112162513D01*
X128382996Y-112161422D01*
X128382999Y-112161421D01*
X128619470Y-112088479D01*
X128619469Y-112088479D01*
X128623004Y-112087389D01*
X128852634Y-111976805D01*
X129063217Y-111833232D01*
X129250050Y-111659877D01*
X129408959Y-111460612D01*
X129423255Y-111435851D01*
X129534543Y-111243093D01*
X129534545Y-111243089D01*
X129536393Y-111239888D01*
X129560880Y-111177498D01*
X129573913Y-111144290D01*
X129629508Y-111002637D01*
X129686222Y-110754157D01*
X129705268Y-110500000D01*
X142718691Y-110500000D01*
X142737737Y-110754157D01*
X142794451Y-111002637D01*
X142850046Y-111144290D01*
X142863080Y-111177498D01*
X142887566Y-111239888D01*
X142889414Y-111243089D01*
X142889416Y-111243093D01*
X143000704Y-111435851D01*
X143015000Y-111460612D01*
X143173909Y-111659877D01*
X143360742Y-111833232D01*
X143571325Y-111976805D01*
X143800955Y-112087389D01*
X143804490Y-112088479D01*
X143804489Y-112088479D01*
X144040960Y-112161421D01*
X144040963Y-112161422D01*
X144044501Y-112162513D01*
X144048170Y-112163066D01*
X144292859Y-112199948D01*
X144292865Y-112199948D01*
X144296524Y-112200500D01*
X144551394Y-112200500D01*
X144555053Y-112199948D01*
X144555059Y-112199948D01*
X144799748Y-112163066D01*
X144803417Y-112162513D01*
X144806955Y-112161422D01*
X144806958Y-112161421D01*
X145043429Y-112088479D01*
X145043428Y-112088479D01*
X145046963Y-112087389D01*
X145276593Y-111976805D01*
X145487176Y-111833232D01*
X145674009Y-111659877D01*
X145832918Y-111460612D01*
X145847214Y-111435851D01*
X145958502Y-111243093D01*
X145958504Y-111243089D01*
X145960352Y-111239888D01*
X145984839Y-111177498D01*
X145997872Y-111144290D01*
X146053467Y-111002637D01*
X146110181Y-110754157D01*
X146129227Y-110500000D01*
X146110181Y-110245843D01*
X146053467Y-109997363D01*
X145997872Y-109855710D01*
X145961706Y-109763561D01*
X145961704Y-109763557D01*
X145960352Y-109760112D01*
X145951484Y-109744751D01*
X145834768Y-109542592D01*
X145834767Y-109542590D01*
X145832918Y-109539388D01*
X145674009Y-109340123D01*
X145487176Y-109166768D01*
X145276593Y-109023195D01*
X145046963Y-108912611D01*
X144979177Y-108891702D01*
X144806958Y-108838579D01*
X144806955Y-108838578D01*
X144803417Y-108837487D01*
X144787465Y-108835083D01*
X144555059Y-108800052D01*
X144555053Y-108800052D01*
X144551394Y-108799500D01*
X144296524Y-108799500D01*
X144292865Y-108800052D01*
X144292859Y-108800052D01*
X144060453Y-108835083D01*
X144044501Y-108837487D01*
X144040963Y-108838578D01*
X144040960Y-108838579D01*
X143868741Y-108891702D01*
X143800955Y-108912611D01*
X143571325Y-109023195D01*
X143360742Y-109166768D01*
X143173909Y-109340123D01*
X143015000Y-109539388D01*
X143013151Y-109542590D01*
X143013150Y-109542592D01*
X142896435Y-109744751D01*
X142887566Y-109760112D01*
X142886214Y-109763557D01*
X142886212Y-109763561D01*
X142850046Y-109855710D01*
X142794451Y-109997363D01*
X142737737Y-110245843D01*
X142718691Y-110500000D01*
X129705268Y-110500000D01*
X129686222Y-110245843D01*
X129629508Y-109997363D01*
X129573913Y-109855710D01*
X129537747Y-109763561D01*
X129537745Y-109763557D01*
X129536393Y-109760112D01*
X129527525Y-109744751D01*
X129410809Y-109542592D01*
X129410808Y-109542590D01*
X129408959Y-109539388D01*
X129250050Y-109340123D01*
X129063217Y-109166768D01*
X128852634Y-109023195D01*
X128623004Y-108912611D01*
X128555218Y-108891702D01*
X128382999Y-108838579D01*
X128382996Y-108838578D01*
X128379458Y-108837487D01*
X128363506Y-108835083D01*
X128131100Y-108800052D01*
X128131094Y-108800052D01*
X128127435Y-108799500D01*
X127872565Y-108799500D01*
X127868906Y-108800052D01*
X127868900Y-108800052D01*
X127636494Y-108835083D01*
X127620542Y-108837487D01*
X127617004Y-108838578D01*
X127617001Y-108838579D01*
X127444782Y-108891702D01*
X127376996Y-108912611D01*
X127147366Y-109023195D01*
X126936783Y-109166768D01*
X126749950Y-109340123D01*
X126591041Y-109539388D01*
X126589192Y-109542590D01*
X126589191Y-109542592D01*
X126472476Y-109744751D01*
X126463607Y-109760112D01*
X126462255Y-109763557D01*
X126462253Y-109763561D01*
X126426087Y-109855710D01*
X126370492Y-109997363D01*
X126313778Y-110245843D01*
X126294732Y-110500000D01*
X111755249Y-110500000D01*
X111736313Y-110331941D01*
X111680456Y-110172310D01*
X111645011Y-110115899D01*
X111593436Y-110033819D01*
X111593435Y-110033818D01*
X111590477Y-110029110D01*
X111470890Y-109909523D01*
X111466181Y-109906564D01*
X111332398Y-109822502D01*
X111332396Y-109822501D01*
X111327690Y-109819544D01*
X111168059Y-109763687D01*
X111136331Y-109760112D01*
X111005529Y-109745374D01*
X111000000Y-109744751D01*
X110994471Y-109745374D01*
X110863670Y-109760112D01*
X110831941Y-109763687D01*
X110672310Y-109819544D01*
X110667604Y-109822501D01*
X110667602Y-109822502D01*
X110533819Y-109906564D01*
X110529110Y-109909523D01*
X110409523Y-110029110D01*
X110406565Y-110033818D01*
X110406564Y-110033819D01*
X110354990Y-110115899D01*
X110319544Y-110172310D01*
X110263687Y-110331941D01*
X110244751Y-110500000D01*
X102705268Y-110500000D01*
X102686222Y-110245843D01*
X102629508Y-109997363D01*
X102573913Y-109855710D01*
X102537747Y-109763561D01*
X102537745Y-109763557D01*
X102536393Y-109760112D01*
X102527525Y-109744751D01*
X102410809Y-109542592D01*
X102410808Y-109542590D01*
X102408959Y-109539388D01*
X102250050Y-109340123D01*
X102063217Y-109166768D01*
X101852634Y-109023195D01*
X101623004Y-108912611D01*
X101555218Y-108891702D01*
X101382999Y-108838579D01*
X101382996Y-108838578D01*
X101379458Y-108837487D01*
X101363506Y-108835083D01*
X101131100Y-108800052D01*
X101131094Y-108800052D01*
X101127435Y-108799500D01*
X100872565Y-108799500D01*
X100868906Y-108800052D01*
X100868900Y-108800052D01*
X100636494Y-108835083D01*
X100620542Y-108837487D01*
X100617004Y-108838578D01*
X100617001Y-108838579D01*
X100444782Y-108891702D01*
X100376996Y-108912611D01*
X100147366Y-109023195D01*
X99936783Y-109166768D01*
X99749950Y-109340123D01*
X99591041Y-109539388D01*
X99589192Y-109542590D01*
X99589191Y-109542592D01*
X99472476Y-109744751D01*
X99463607Y-109760112D01*
X99462255Y-109763557D01*
X99462253Y-109763561D01*
X99426087Y-109855710D01*
X99370492Y-109997363D01*
X99313778Y-110245843D01*
X99294732Y-110500000D01*
X88257603Y-110500000D01*
X88209018Y-110420390D01*
X88035745Y-110212180D01*
X88033051Y-110209766D01*
X88033047Y-110209762D01*
X87925355Y-110113271D01*
X87834002Y-110031418D01*
X87608090Y-109881956D01*
X87443246Y-109804680D01*
X87366099Y-109768515D01*
X87366096Y-109768514D01*
X87362824Y-109766980D01*
X87357985Y-109765524D01*
X87214763Y-109722435D01*
X87103431Y-109688940D01*
X86969435Y-109669220D01*
X86839021Y-109650027D01*
X86839019Y-109650027D01*
X86835439Y-109649500D01*
X86632369Y-109649500D01*
X86429844Y-109664323D01*
X86426327Y-109665106D01*
X86426323Y-109665107D01*
X86168970Y-109722435D01*
X86168967Y-109722436D01*
X86165447Y-109723220D01*
X85912442Y-109819986D01*
X85676223Y-109952559D01*
X85461823Y-110118112D01*
X85459315Y-110120714D01*
X85459311Y-110120717D01*
X85276325Y-110310514D01*
X85276322Y-110310518D01*
X85273814Y-110313119D01*
X85116201Y-110533421D01*
X84992344Y-110774325D01*
X84972532Y-110832398D01*
X84913279Y-111006083D01*
X84904882Y-111030695D01*
X84855681Y-111297067D01*
X84845788Y-111567765D01*
X81509955Y-111567765D01*
X81500891Y-106407369D01*
X81501717Y-106394437D01*
X81516045Y-106284237D01*
X81522705Y-106259236D01*
X81562596Y-106162570D01*
X81575506Y-106140148D01*
X81639083Y-106057117D01*
X81657362Y-106038806D01*
X81740280Y-105975084D01*
X81762679Y-105962135D01*
X81859274Y-105922074D01*
X81884264Y-105915370D01*
X81994437Y-105900849D01*
X82007373Y-105900000D01*
X91650500Y-105900000D01*
X91708691Y-105918907D01*
G37*
%TD.AperFunction*%
%TD*%
%TA.AperFunction,Conductor*%
%TO.N,Net-(J1-D-)*%
G36*
X155227153Y-100409610D02*
G01*
X155233475Y-100415952D01*
X155234062Y-100417795D01*
X155252347Y-100497438D01*
X155252643Y-100499933D01*
X155253546Y-100585819D01*
X155256037Y-100657866D01*
X155282424Y-100706897D01*
X155284822Y-100707495D01*
X155346157Y-100722789D01*
X155353355Y-100728115D01*
X155355026Y-100734141D01*
X155355026Y-100961677D01*
X155351599Y-100969950D01*
X155343326Y-100973377D01*
X155341815Y-100973279D01*
X155234575Y-100959308D01*
X155230604Y-100958042D01*
X155155225Y-100918068D01*
X155152734Y-100916295D01*
X155091496Y-100859278D01*
X155091448Y-100859233D01*
X155017513Y-100794006D01*
X154913400Y-100736022D01*
X154907840Y-100729002D01*
X154908267Y-100721363D01*
X154997148Y-100504518D01*
X155003513Y-100498139D01*
X155218198Y-100409597D01*
X155227153Y-100409610D01*
G37*
%TD.AperFunction*%
%TD*%
%TA.AperFunction,Conductor*%
%TO.N,/Driver/12V*%
G36*
X113364236Y-98681106D02*
G01*
X113370554Y-98687408D01*
X113412742Y-98788503D01*
X113499120Y-98995494D01*
X113499120Y-99004505D01*
X113370554Y-99312592D01*
X113364205Y-99318907D01*
X113355282Y-99318896D01*
X113307975Y-99299314D01*
X113232343Y-99268007D01*
X113232327Y-99268001D01*
X113232231Y-99267961D01*
X113232136Y-99267926D01*
X113232118Y-99267919D01*
X113134962Y-99232173D01*
X113134959Y-99232172D01*
X113134619Y-99232047D01*
X113047316Y-99211496D01*
X112944412Y-99202187D01*
X112811522Y-99200174D01*
X112803303Y-99196623D01*
X112800000Y-99188476D01*
X112800000Y-98811524D01*
X112803427Y-98803251D01*
X112811522Y-98799825D01*
X112944412Y-98797812D01*
X113047316Y-98788503D01*
X113134619Y-98767952D01*
X113134959Y-98767827D01*
X113134962Y-98767826D01*
X113232118Y-98732080D01*
X113232136Y-98732073D01*
X113232231Y-98732038D01*
X113232327Y-98731998D01*
X113232343Y-98731992D01*
X113319959Y-98695725D01*
X113355281Y-98681104D01*
X113364236Y-98681106D01*
G37*
%TD.AperFunction*%
%TD*%
%TA.AperFunction,Conductor*%
%TO.N,/BLE_RX*%
G36*
X101220034Y-94991094D02*
G01*
X101226343Y-94997450D01*
X101226249Y-95006546D01*
X101189237Y-95091801D01*
X101159117Y-95161216D01*
X101139267Y-95222999D01*
X101128342Y-95296232D01*
X101128332Y-95296556D01*
X101128331Y-95296562D01*
X101125365Y-95388677D01*
X101121674Y-95396835D01*
X101113671Y-95400000D01*
X100886329Y-95400000D01*
X100878056Y-95396573D01*
X100874635Y-95388677D01*
X100871668Y-95296562D01*
X100871667Y-95296556D01*
X100871657Y-95296232D01*
X100860732Y-95222999D01*
X100840881Y-95161216D01*
X100810762Y-95091801D01*
X100773751Y-95006546D01*
X100773600Y-94997593D01*
X100779966Y-94991094D01*
X100995483Y-94900891D01*
X101004517Y-94900891D01*
X101220034Y-94991094D01*
G37*
%TD.AperFunction*%
%TD*%
%TA.AperFunction,Conductor*%
%TO.N,/Driver/12V*%
G36*
X102121523Y-96870520D02*
G01*
X102127825Y-96876838D01*
X102178817Y-96999863D01*
X102222444Y-97094279D01*
X102269644Y-97170544D01*
X102269907Y-97170859D01*
X102335686Y-97249723D01*
X102335695Y-97249733D01*
X102335826Y-97249890D01*
X102405291Y-97321492D01*
X102428371Y-97345282D01*
X102431672Y-97353606D01*
X102428246Y-97361702D01*
X102161702Y-97628246D01*
X102153429Y-97631673D01*
X102145282Y-97628371D01*
X102145153Y-97628246D01*
X102049890Y-97535826D01*
X102049733Y-97535695D01*
X102049723Y-97535686D01*
X101970859Y-97469907D01*
X101970544Y-97469644D01*
X101894279Y-97422444D01*
X101893961Y-97422297D01*
X101799948Y-97378856D01*
X101799938Y-97378852D01*
X101799863Y-97378817D01*
X101676838Y-97327825D01*
X101670508Y-97321492D01*
X101670497Y-97312568D01*
X101797437Y-97003809D01*
X101803809Y-96997437D01*
X102112568Y-96870497D01*
X102121523Y-96870520D01*
G37*
%TD.AperFunction*%
%TD*%
%TA.AperFunction,Conductor*%
%TO.N,Net-(J1-D-)*%
G36*
X155692977Y-100626641D02*
G01*
X156401090Y-100838792D01*
X156408031Y-100844449D01*
X156408940Y-100853358D01*
X156403283Y-100860299D01*
X156401090Y-100861208D01*
X155784785Y-101045853D01*
X155778069Y-101045853D01*
X155763510Y-101041491D01*
X155763488Y-101041485D01*
X155763435Y-101041469D01*
X155748762Y-101037563D01*
X155748668Y-101037541D01*
X155748000Y-101037385D01*
X155747998Y-101037385D01*
X155747352Y-101037234D01*
X155692439Y-101037132D01*
X155637341Y-101037029D01*
X155637339Y-101037029D01*
X155636674Y-101037028D01*
X155636619Y-101037041D01*
X155629677Y-101035590D01*
X155597769Y-101017154D01*
X155597763Y-101017151D01*
X155597500Y-101016999D01*
X155552500Y-100996999D01*
X155552179Y-100996899D01*
X155507849Y-100983107D01*
X155507841Y-100983105D01*
X155507500Y-100982999D01*
X155507141Y-100982935D01*
X155507136Y-100982934D01*
X155489830Y-100979858D01*
X155472151Y-100976716D01*
X155464607Y-100971895D01*
X155462500Y-100965197D01*
X155462500Y-100734803D01*
X155465927Y-100726530D01*
X155472152Y-100723284D01*
X155507136Y-100717064D01*
X155507140Y-100717063D01*
X155507500Y-100716999D01*
X155507841Y-100716893D01*
X155507849Y-100716891D01*
X155552179Y-100703099D01*
X155552181Y-100703098D01*
X155552500Y-100702999D01*
X155597500Y-100682999D01*
X155597763Y-100682847D01*
X155597769Y-100682844D01*
X155642274Y-100657130D01*
X155642280Y-100657126D01*
X155642500Y-100656999D01*
X155682840Y-100628314D01*
X155691567Y-100626312D01*
X155692977Y-100626641D01*
G37*
%TD.AperFunction*%
%TD*%
%TA.AperFunction,Conductor*%
%TO.N,/Driver/75V*%
G36*
X94008278Y-95007288D02*
G01*
X94792384Y-95792374D01*
X94795806Y-95800649D01*
X94793025Y-95808215D01*
X94710000Y-95905999D01*
X94620000Y-96038999D01*
X94530000Y-96198999D01*
X94529927Y-96199151D01*
X94529920Y-96199164D01*
X94440057Y-96385880D01*
X94440000Y-96385999D01*
X94439949Y-96386121D01*
X94439946Y-96386127D01*
X94353013Y-96592836D01*
X94346647Y-96599133D01*
X94342228Y-96600000D01*
X93657772Y-96600000D01*
X93649499Y-96596573D01*
X93646987Y-96592836D01*
X93560054Y-96386127D01*
X93560051Y-96386121D01*
X93560000Y-96385999D01*
X93559943Y-96385880D01*
X93470080Y-96199164D01*
X93470073Y-96199151D01*
X93470000Y-96198999D01*
X93380000Y-96038999D01*
X93290000Y-95905999D01*
X93206975Y-95808215D01*
X93204233Y-95799690D01*
X93207616Y-95792374D01*
X93991722Y-95007288D01*
X93999993Y-95003856D01*
X94008278Y-95007288D01*
G37*
%TD.AperFunction*%
%TD*%
%TA.AperFunction,Conductor*%
%TO.N,/Driver/75V*%
G36*
X91799327Y-88500847D02*
G01*
X91909380Y-88515336D01*
X91934343Y-88522025D01*
X92030852Y-88562000D01*
X92053234Y-88574922D01*
X92141294Y-88642493D01*
X92151031Y-88651031D01*
X92248969Y-88748969D01*
X92257507Y-88758706D01*
X92325078Y-88846766D01*
X92338000Y-88869148D01*
X92377975Y-88965657D01*
X92384664Y-88990620D01*
X92399153Y-89100673D01*
X92400000Y-89113595D01*
X92400000Y-90200000D01*
X92539840Y-90345218D01*
X92542033Y-90347495D01*
X94855771Y-92750224D01*
X94863938Y-92759869D01*
X94928539Y-92846856D01*
X94940878Y-92868862D01*
X94979012Y-92963442D01*
X94985387Y-92987848D01*
X94999193Y-93095320D01*
X95000000Y-93107934D01*
X95000000Y-94819536D01*
X94998098Y-94838850D01*
X94990847Y-94875304D01*
X94976066Y-94910989D01*
X94960941Y-94933626D01*
X94933627Y-94960940D01*
X94910989Y-94976066D01*
X94875305Y-94990846D01*
X94850808Y-94995719D01*
X94838850Y-94998098D01*
X94819536Y-95000000D01*
X93180464Y-95000000D01*
X93161150Y-94998098D01*
X93149192Y-94995719D01*
X93124695Y-94990846D01*
X93089011Y-94976066D01*
X93066373Y-94960940D01*
X93039059Y-94933626D01*
X93023934Y-94910989D01*
X93009153Y-94875304D01*
X93001902Y-94838850D01*
X93000000Y-94819536D01*
X93000000Y-92800000D01*
X90400000Y-90200000D01*
X89306488Y-90200000D01*
X89293566Y-90199153D01*
X89183513Y-90184664D01*
X89158549Y-90177975D01*
X89062043Y-90138001D01*
X89039661Y-90125079D01*
X88956787Y-90061487D01*
X88938513Y-90043213D01*
X88874921Y-89960339D01*
X88861999Y-89937957D01*
X88822025Y-89841451D01*
X88815336Y-89816487D01*
X88800847Y-89706434D01*
X88800000Y-89693512D01*
X88800000Y-89006488D01*
X88800847Y-88993566D01*
X88815336Y-88883513D01*
X88822025Y-88858549D01*
X88861999Y-88762043D01*
X88874921Y-88739661D01*
X88938513Y-88656787D01*
X88956787Y-88638513D01*
X89039661Y-88574921D01*
X89062043Y-88561999D01*
X89158549Y-88522025D01*
X89183513Y-88515336D01*
X89293566Y-88500847D01*
X89306488Y-88500000D01*
X91786405Y-88500000D01*
X91799327Y-88500847D01*
G37*
%TD.AperFunction*%
%TD*%
%TA.AperFunction,Conductor*%
%TO.N,/3.3V*%
G36*
X140398278Y-82018907D02*
G01*
X140410091Y-82028996D01*
X140532297Y-82151202D01*
X140560074Y-82205719D01*
X140560208Y-82235820D01*
X140558847Y-82244939D01*
X140555188Y-82260603D01*
X140550730Y-82274479D01*
X140526480Y-82314198D01*
X140476045Y-82364633D01*
X140472510Y-82371570D01*
X140472509Y-82371572D01*
X140449849Y-82416045D01*
X140419168Y-82476260D01*
X140417950Y-82483953D01*
X140417949Y-82483955D01*
X140404429Y-82569320D01*
X140399570Y-82600000D01*
X140400789Y-82607697D01*
X140403679Y-82625941D01*
X140419168Y-82723740D01*
X140422704Y-82730679D01*
X140422704Y-82730680D01*
X140470121Y-82823740D01*
X140476045Y-82835367D01*
X140564633Y-82923955D01*
X140571570Y-82927490D01*
X140571572Y-82927491D01*
X140587030Y-82935367D01*
X140676260Y-82980832D01*
X140683953Y-82982050D01*
X140683955Y-82982051D01*
X140792303Y-82999211D01*
X140800000Y-83000430D01*
X140807697Y-82999211D01*
X140916045Y-82982051D01*
X140916047Y-82982050D01*
X140923740Y-82980832D01*
X141012970Y-82935367D01*
X141028428Y-82927491D01*
X141028430Y-82927490D01*
X141035367Y-82923955D01*
X141123955Y-82835367D01*
X141129880Y-82823740D01*
X141177296Y-82730680D01*
X141177296Y-82730679D01*
X141180832Y-82723740D01*
X141196322Y-82625941D01*
X141199211Y-82607697D01*
X141200430Y-82600000D01*
X141195571Y-82569320D01*
X141182051Y-82483955D01*
X141182050Y-82483953D01*
X141180832Y-82476260D01*
X141150151Y-82416045D01*
X141127491Y-82371572D01*
X141127490Y-82371570D01*
X141123955Y-82364633D01*
X141073518Y-82314196D01*
X141049267Y-82274473D01*
X141044811Y-82260603D01*
X141041150Y-82244931D01*
X141038856Y-82229555D01*
X141034437Y-82199931D01*
X141033405Y-82188520D01*
X141033334Y-82186290D01*
X141030810Y-82107926D01*
X141031497Y-82107904D01*
X141042244Y-82051364D01*
X141086818Y-82009450D01*
X141129030Y-82000000D01*
X141640087Y-82000000D01*
X141698278Y-82018907D01*
X141710091Y-82028996D01*
X142168423Y-82487328D01*
X142182463Y-82505010D01*
X142186272Y-82511128D01*
X142188843Y-82515257D01*
X142243995Y-82574082D01*
X142251330Y-82582875D01*
X142266019Y-82602715D01*
X142278410Y-82619451D01*
X142286903Y-82633121D01*
X142289900Y-82638955D01*
X142297171Y-82684513D01*
X142300789Y-82684513D01*
X142300789Y-82692303D01*
X142299570Y-82700000D01*
X142300789Y-82707697D01*
X142315868Y-82802902D01*
X142319168Y-82823740D01*
X142322704Y-82830679D01*
X142322704Y-82830680D01*
X142367425Y-82918449D01*
X142376045Y-82935367D01*
X142464633Y-83023955D01*
X142471570Y-83027490D01*
X142471572Y-83027491D01*
X142569320Y-83077296D01*
X142576260Y-83080832D01*
X142583953Y-83082050D01*
X142583955Y-83082051D01*
X142692303Y-83099211D01*
X142700000Y-83100430D01*
X142707697Y-83099211D01*
X142816045Y-83082051D01*
X142816047Y-83082050D01*
X142823740Y-83080832D01*
X142830680Y-83077296D01*
X142928428Y-83027491D01*
X142928430Y-83027490D01*
X142935367Y-83023955D01*
X142959322Y-83000000D01*
X146099570Y-83000000D01*
X146119168Y-83123740D01*
X146176045Y-83235367D01*
X146264633Y-83323955D01*
X146271570Y-83327490D01*
X146271572Y-83327491D01*
X146369320Y-83377296D01*
X146376260Y-83380832D01*
X146383953Y-83382050D01*
X146383955Y-83382051D01*
X146492303Y-83399211D01*
X146500000Y-83400430D01*
X146507697Y-83399211D01*
X146616045Y-83382051D01*
X146616047Y-83382050D01*
X146623740Y-83380832D01*
X146630680Y-83377296D01*
X146728428Y-83327491D01*
X146728430Y-83327490D01*
X146735367Y-83323955D01*
X146823955Y-83235367D01*
X146880832Y-83123740D01*
X146900430Y-83000000D01*
X146896834Y-82977296D01*
X146882051Y-82883955D01*
X146882050Y-82883953D01*
X146880832Y-82876260D01*
X146862802Y-82840874D01*
X146827491Y-82771572D01*
X146827490Y-82771570D01*
X146823955Y-82764633D01*
X146735367Y-82676045D01*
X146728430Y-82672510D01*
X146728428Y-82672509D01*
X146630680Y-82622704D01*
X146630679Y-82622704D01*
X146623740Y-82619168D01*
X146616047Y-82617950D01*
X146616045Y-82617949D01*
X146507697Y-82600789D01*
X146500000Y-82599570D01*
X146492303Y-82600789D01*
X146383955Y-82617949D01*
X146383953Y-82617950D01*
X146376260Y-82619168D01*
X146369321Y-82622704D01*
X146369320Y-82622704D01*
X146271572Y-82672509D01*
X146271570Y-82672510D01*
X146264633Y-82676045D01*
X146176045Y-82764633D01*
X146172510Y-82771570D01*
X146172509Y-82771572D01*
X146137198Y-82840874D01*
X146119168Y-82876260D01*
X146117950Y-82883953D01*
X146117949Y-82883955D01*
X146103166Y-82977296D01*
X146099570Y-83000000D01*
X142959322Y-83000000D01*
X143023955Y-82935367D01*
X143032576Y-82918449D01*
X143077296Y-82830680D01*
X143077296Y-82830679D01*
X143080832Y-82823740D01*
X143084133Y-82802902D01*
X143099211Y-82707697D01*
X143100430Y-82700000D01*
X143080832Y-82576260D01*
X143077296Y-82569320D01*
X143027491Y-82471572D01*
X143027490Y-82471570D01*
X143023955Y-82464633D01*
X142935367Y-82376045D01*
X142928430Y-82372510D01*
X142928428Y-82372509D01*
X142830680Y-82322704D01*
X142830679Y-82322704D01*
X142823740Y-82319168D01*
X142816047Y-82317950D01*
X142816045Y-82317949D01*
X142707697Y-82300789D01*
X142700000Y-82299570D01*
X142692304Y-82300789D01*
X142684513Y-82300789D01*
X142684513Y-82297171D01*
X142638955Y-82289900D01*
X142633121Y-82286903D01*
X142619451Y-82278410D01*
X142595406Y-82260608D01*
X142582875Y-82251330D01*
X142574082Y-82243995D01*
X142515257Y-82188843D01*
X142505434Y-82182617D01*
X142466408Y-82135495D01*
X142462533Y-82074433D01*
X142495289Y-82022754D01*
X142552165Y-82000199D01*
X142558436Y-82000000D01*
X154901000Y-82000000D01*
X154959191Y-82018907D01*
X154995155Y-82068407D01*
X155000000Y-82099000D01*
X155000000Y-96301568D01*
X154981177Y-96359501D01*
X154976045Y-96364633D01*
X154972508Y-96371574D01*
X154972507Y-96371576D01*
X154957805Y-96400430D01*
X154919168Y-96476260D01*
X154899570Y-96600000D01*
X154919168Y-96723740D01*
X154976045Y-96835367D01*
X154981177Y-96840499D01*
X155000000Y-96898432D01*
X155000000Y-97947423D01*
X154981093Y-98005614D01*
X154931593Y-98041578D01*
X154870407Y-98041578D01*
X154856056Y-98035633D01*
X154830683Y-98022705D01*
X154830679Y-98022704D01*
X154823740Y-98019168D01*
X154816047Y-98017950D01*
X154816045Y-98017949D01*
X154707697Y-98000789D01*
X154700000Y-97999570D01*
X154692303Y-98000789D01*
X154583955Y-98017949D01*
X154583953Y-98017950D01*
X154576260Y-98019168D01*
X154569321Y-98022704D01*
X154569320Y-98022704D01*
X154471572Y-98072509D01*
X154471570Y-98072510D01*
X154464633Y-98076045D01*
X154376045Y-98164633D01*
X154319168Y-98276260D01*
X154299570Y-98400000D01*
X154319168Y-98523740D01*
X154376045Y-98635367D01*
X154464633Y-98723955D01*
X154471570Y-98727490D01*
X154471572Y-98727491D01*
X154569318Y-98777295D01*
X154576260Y-98780832D01*
X154583953Y-98782050D01*
X154583955Y-98782051D01*
X154692303Y-98799211D01*
X154700000Y-98800430D01*
X154707697Y-98799211D01*
X154816045Y-98782051D01*
X154816047Y-98782050D01*
X154823740Y-98780832D01*
X154830679Y-98777296D01*
X154830683Y-98777295D01*
X154856056Y-98764367D01*
X154916488Y-98754796D01*
X154971004Y-98782574D01*
X154998781Y-98837091D01*
X155000000Y-98852577D01*
X155000000Y-100015016D01*
X154981093Y-100073207D01*
X154931593Y-100109171D01*
X154916486Y-100112797D01*
X154883955Y-100117949D01*
X154883953Y-100117950D01*
X154876260Y-100119168D01*
X154869321Y-100122704D01*
X154869320Y-100122704D01*
X154771572Y-100172509D01*
X154771570Y-100172510D01*
X154764633Y-100176045D01*
X154676045Y-100264633D01*
X154672510Y-100271570D01*
X154672509Y-100271572D01*
X154666200Y-100283955D01*
X154619168Y-100376260D01*
X154599570Y-100500000D01*
X154600789Y-100507697D01*
X154610717Y-100570378D01*
X154619168Y-100623740D01*
X154622704Y-100630679D01*
X154622704Y-100630680D01*
X154669593Y-100722704D01*
X154676045Y-100735367D01*
X154764633Y-100823955D01*
X154771570Y-100827490D01*
X154771572Y-100827491D01*
X154858086Y-100871572D01*
X154876260Y-100880832D01*
X154883954Y-100882051D01*
X154883955Y-100882051D01*
X154904438Y-100885295D01*
X154916486Y-100887203D01*
X154971003Y-100914980D01*
X154998781Y-100969496D01*
X155000000Y-100984984D01*
X155000000Y-101015016D01*
X154981093Y-101073207D01*
X154931593Y-101109171D01*
X154916486Y-101112797D01*
X154883955Y-101117949D01*
X154883953Y-101117950D01*
X154876260Y-101119168D01*
X154869321Y-101122704D01*
X154869320Y-101122704D01*
X154771572Y-101172509D01*
X154771570Y-101172510D01*
X154764633Y-101176045D01*
X154676045Y-101264633D01*
X154675191Y-101263779D01*
X154632003Y-101295155D01*
X154601412Y-101300000D01*
X135584667Y-101300000D01*
X135526476Y-101281093D01*
X135490512Y-101231593D01*
X135486886Y-101185513D01*
X135488460Y-101175579D01*
X135500430Y-101100000D01*
X135493866Y-101058557D01*
X135482051Y-100983955D01*
X135482050Y-100983953D01*
X135480832Y-100976260D01*
X135477296Y-100969320D01*
X135427491Y-100871572D01*
X135427490Y-100871570D01*
X135423955Y-100864633D01*
X135335367Y-100776045D01*
X135328430Y-100772510D01*
X135328428Y-100772509D01*
X135230680Y-100722704D01*
X135230679Y-100722704D01*
X135223740Y-100719168D01*
X135216047Y-100717950D01*
X135216045Y-100717949D01*
X135107697Y-100700789D01*
X135100000Y-100699570D01*
X135092303Y-100700789D01*
X134983955Y-100717949D01*
X134983953Y-100717950D01*
X134976260Y-100719168D01*
X134969321Y-100722704D01*
X134969320Y-100722704D01*
X134871572Y-100772509D01*
X134871570Y-100772510D01*
X134864633Y-100776045D01*
X134776045Y-100864633D01*
X134772510Y-100871570D01*
X134772509Y-100871572D01*
X134722704Y-100969320D01*
X134719168Y-100976260D01*
X134717950Y-100983953D01*
X134717949Y-100983955D01*
X134706134Y-101058557D01*
X134699570Y-101100000D01*
X134711541Y-101175579D01*
X134713114Y-101185513D01*
X134703543Y-101245945D01*
X134660278Y-101289210D01*
X134615333Y-101300000D01*
X133299000Y-101300000D01*
X133240809Y-101281093D01*
X133204845Y-101231593D01*
X133200000Y-101201000D01*
X133200000Y-100798588D01*
X133218907Y-100740397D01*
X133235330Y-100723974D01*
X133235367Y-100723955D01*
X133323955Y-100635367D01*
X133329880Y-100623740D01*
X133377296Y-100530680D01*
X133377296Y-100530679D01*
X133380832Y-100523740D01*
X133400430Y-100400000D01*
X133380832Y-100276260D01*
X133372102Y-100259127D01*
X133327491Y-100171572D01*
X133327490Y-100171570D01*
X133323955Y-100164633D01*
X133235367Y-100076045D01*
X133236221Y-100075191D01*
X133204845Y-100032003D01*
X133200000Y-100001412D01*
X133200000Y-98400000D01*
X151899570Y-98400000D01*
X151919168Y-98523740D01*
X151976045Y-98635367D01*
X152064633Y-98723955D01*
X152071570Y-98727490D01*
X152071572Y-98727491D01*
X152169318Y-98777295D01*
X152176260Y-98780832D01*
X152183953Y-98782050D01*
X152183955Y-98782051D01*
X152292303Y-98799211D01*
X152300000Y-98800430D01*
X152307697Y-98799211D01*
X152416045Y-98782051D01*
X152416047Y-98782050D01*
X152423740Y-98780832D01*
X152430682Y-98777295D01*
X152528428Y-98727491D01*
X152528430Y-98727490D01*
X152535367Y-98723955D01*
X152623955Y-98635367D01*
X152680832Y-98523740D01*
X152700430Y-98400000D01*
X152680832Y-98276260D01*
X152623955Y-98164633D01*
X152535367Y-98076045D01*
X152528430Y-98072510D01*
X152528428Y-98072509D01*
X152430680Y-98022704D01*
X152430679Y-98022704D01*
X152423740Y-98019168D01*
X152416047Y-98017950D01*
X152416045Y-98017949D01*
X152307697Y-98000789D01*
X152300000Y-97999570D01*
X152292303Y-98000789D01*
X152183955Y-98017949D01*
X152183953Y-98017950D01*
X152176260Y-98019168D01*
X152169321Y-98022704D01*
X152169320Y-98022704D01*
X152071572Y-98072509D01*
X152071570Y-98072510D01*
X152064633Y-98076045D01*
X151976045Y-98164633D01*
X151919168Y-98276260D01*
X151899570Y-98400000D01*
X133200000Y-98400000D01*
X133200000Y-96000000D01*
X144999570Y-96000000D01*
X145019168Y-96123740D01*
X145076045Y-96235367D01*
X145164633Y-96323955D01*
X145171570Y-96327490D01*
X145171572Y-96327491D01*
X145258094Y-96371576D01*
X145276260Y-96380832D01*
X145283953Y-96382050D01*
X145283955Y-96382051D01*
X145392303Y-96399211D01*
X145400000Y-96400430D01*
X145407697Y-96399211D01*
X145516045Y-96382051D01*
X145516047Y-96382050D01*
X145523740Y-96380832D01*
X145541906Y-96371576D01*
X145628428Y-96327491D01*
X145628430Y-96327490D01*
X145635367Y-96323955D01*
X145723955Y-96235367D01*
X145780832Y-96123740D01*
X145800430Y-96000000D01*
X145780832Y-95876260D01*
X145723955Y-95764633D01*
X145635367Y-95676045D01*
X145628430Y-95672510D01*
X145628428Y-95672509D01*
X145530680Y-95622704D01*
X145530679Y-95622704D01*
X145523740Y-95619168D01*
X145516047Y-95617950D01*
X145516045Y-95617949D01*
X145407697Y-95600789D01*
X145400000Y-95599570D01*
X145392303Y-95600789D01*
X145283955Y-95617949D01*
X145283953Y-95617950D01*
X145276260Y-95619168D01*
X145269321Y-95622704D01*
X145269320Y-95622704D01*
X145171572Y-95672509D01*
X145171570Y-95672510D01*
X145164633Y-95676045D01*
X145076045Y-95764633D01*
X145019168Y-95876260D01*
X144999570Y-96000000D01*
X133200000Y-96000000D01*
X133200000Y-94900000D01*
X138499570Y-94900000D01*
X138519168Y-95023740D01*
X138522704Y-95030679D01*
X138522704Y-95030680D01*
X138558244Y-95100430D01*
X138576045Y-95135367D01*
X138664633Y-95223955D01*
X138671570Y-95227490D01*
X138671572Y-95227491D01*
X138769320Y-95277296D01*
X138776260Y-95280832D01*
X138783953Y-95282050D01*
X138783955Y-95282051D01*
X138892303Y-95299211D01*
X138900000Y-95300430D01*
X138907697Y-95299211D01*
X139016045Y-95282051D01*
X139016047Y-95282050D01*
X139023740Y-95280832D01*
X139030680Y-95277296D01*
X139128428Y-95227491D01*
X139128430Y-95227490D01*
X139135367Y-95223955D01*
X139223955Y-95135367D01*
X139241757Y-95100430D01*
X139277296Y-95030680D01*
X139277296Y-95030679D01*
X139280832Y-95023740D01*
X139300430Y-94900000D01*
X139599570Y-94900000D01*
X139619168Y-95023740D01*
X139622704Y-95030679D01*
X139622704Y-95030680D01*
X139658244Y-95100430D01*
X139676045Y-95135367D01*
X139764633Y-95223955D01*
X139771570Y-95227490D01*
X139771572Y-95227491D01*
X139869320Y-95277296D01*
X139876260Y-95280832D01*
X139883953Y-95282050D01*
X139883955Y-95282051D01*
X139992303Y-95299211D01*
X140000000Y-95300430D01*
X140007697Y-95299211D01*
X140116045Y-95282051D01*
X140116047Y-95282050D01*
X140123740Y-95280832D01*
X140130680Y-95277296D01*
X140228428Y-95227491D01*
X140228430Y-95227490D01*
X140235367Y-95223955D01*
X140323955Y-95135367D01*
X140341757Y-95100430D01*
X140377296Y-95030680D01*
X140377296Y-95030679D01*
X140380832Y-95023740D01*
X140400430Y-94900000D01*
X140380832Y-94776260D01*
X140377296Y-94769320D01*
X140341976Y-94700000D01*
X151899570Y-94700000D01*
X151919168Y-94823740D01*
X151922704Y-94830679D01*
X151922704Y-94830680D01*
X151958025Y-94900000D01*
X151976045Y-94935367D01*
X152064633Y-95023955D01*
X152071570Y-95027490D01*
X152071572Y-95027491D01*
X152169320Y-95077296D01*
X152176260Y-95080832D01*
X152183953Y-95082050D01*
X152183955Y-95082051D01*
X152292303Y-95099211D01*
X152300000Y-95100430D01*
X152307697Y-95099211D01*
X152416045Y-95082051D01*
X152416047Y-95082050D01*
X152423740Y-95080832D01*
X152430680Y-95077296D01*
X152528428Y-95027491D01*
X152528430Y-95027490D01*
X152535367Y-95023955D01*
X152623955Y-94935367D01*
X152641976Y-94900000D01*
X152677296Y-94830680D01*
X152677296Y-94830679D01*
X152680832Y-94823740D01*
X152700430Y-94700000D01*
X152680832Y-94576260D01*
X152651121Y-94517949D01*
X152627491Y-94471572D01*
X152627490Y-94471570D01*
X152623955Y-94464633D01*
X152535367Y-94376045D01*
X152528430Y-94372510D01*
X152528428Y-94372509D01*
X152430680Y-94322704D01*
X152430679Y-94322704D01*
X152423740Y-94319168D01*
X152416047Y-94317950D01*
X152416045Y-94317949D01*
X152307697Y-94300789D01*
X152300000Y-94299570D01*
X152292303Y-94300789D01*
X152183955Y-94317949D01*
X152183953Y-94317950D01*
X152176260Y-94319168D01*
X152169321Y-94322704D01*
X152169320Y-94322704D01*
X152071572Y-94372509D01*
X152071570Y-94372510D01*
X152064633Y-94376045D01*
X151976045Y-94464633D01*
X151972510Y-94471570D01*
X151972509Y-94471572D01*
X151948879Y-94517949D01*
X151919168Y-94576260D01*
X151899570Y-94700000D01*
X140341976Y-94700000D01*
X140327491Y-94671572D01*
X140327490Y-94671570D01*
X140323955Y-94664633D01*
X140235367Y-94576045D01*
X140228430Y-94572510D01*
X140228428Y-94572509D01*
X140130680Y-94522704D01*
X140130679Y-94522704D01*
X140123740Y-94519168D01*
X140116047Y-94517950D01*
X140116045Y-94517949D01*
X140007697Y-94500789D01*
X140000000Y-94499570D01*
X139992303Y-94500789D01*
X139883955Y-94517949D01*
X139883953Y-94517950D01*
X139876260Y-94519168D01*
X139869321Y-94522704D01*
X139869320Y-94522704D01*
X139771572Y-94572509D01*
X139771570Y-94572510D01*
X139764633Y-94576045D01*
X139676045Y-94664633D01*
X139672510Y-94671570D01*
X139672509Y-94671572D01*
X139622704Y-94769320D01*
X139619168Y-94776260D01*
X139599570Y-94900000D01*
X139300430Y-94900000D01*
X139280832Y-94776260D01*
X139277296Y-94769320D01*
X139227491Y-94671572D01*
X139227490Y-94671570D01*
X139223955Y-94664633D01*
X139135367Y-94576045D01*
X139128430Y-94572510D01*
X139128428Y-94572509D01*
X139030680Y-94522704D01*
X139030679Y-94522704D01*
X139023740Y-94519168D01*
X139016047Y-94517950D01*
X139016045Y-94517949D01*
X138907697Y-94500789D01*
X138900000Y-94499570D01*
X138892303Y-94500789D01*
X138783955Y-94517949D01*
X138783953Y-94517950D01*
X138776260Y-94519168D01*
X138769321Y-94522704D01*
X138769320Y-94522704D01*
X138671572Y-94572509D01*
X138671570Y-94572510D01*
X138664633Y-94576045D01*
X138576045Y-94664633D01*
X138572510Y-94671570D01*
X138572509Y-94671572D01*
X138522704Y-94769320D01*
X138519168Y-94776260D01*
X138499570Y-94900000D01*
X133200000Y-94900000D01*
X133200000Y-93500000D01*
X151599570Y-93500000D01*
X151619168Y-93623740D01*
X151676045Y-93735367D01*
X151764633Y-93823955D01*
X151771570Y-93827490D01*
X151771572Y-93827491D01*
X151869320Y-93877296D01*
X151876260Y-93880832D01*
X151883953Y-93882050D01*
X151883955Y-93882051D01*
X151992303Y-93899211D01*
X152000000Y-93900430D01*
X152007697Y-93899211D01*
X152116045Y-93882051D01*
X152116047Y-93882050D01*
X152123740Y-93880832D01*
X152130680Y-93877296D01*
X152228428Y-93827491D01*
X152228430Y-93827490D01*
X152235367Y-93823955D01*
X152323955Y-93735367D01*
X152380832Y-93623740D01*
X152400430Y-93500000D01*
X152380832Y-93376260D01*
X152323955Y-93264633D01*
X152235367Y-93176045D01*
X152228430Y-93172510D01*
X152228428Y-93172509D01*
X152130680Y-93122704D01*
X152130679Y-93122704D01*
X152123740Y-93119168D01*
X152116047Y-93117950D01*
X152116045Y-93117949D01*
X152007697Y-93100789D01*
X152000000Y-93099570D01*
X151992303Y-93100789D01*
X151883955Y-93117949D01*
X151883953Y-93117950D01*
X151876260Y-93119168D01*
X151869321Y-93122704D01*
X151869320Y-93122704D01*
X151771572Y-93172509D01*
X151771570Y-93172510D01*
X151764633Y-93176045D01*
X151676045Y-93264633D01*
X151619168Y-93376260D01*
X151599570Y-93500000D01*
X133200000Y-93500000D01*
X133200000Y-91700000D01*
X141299570Y-91700000D01*
X141319168Y-91823740D01*
X141322704Y-91830679D01*
X141322704Y-91830680D01*
X141359503Y-91902901D01*
X141376045Y-91935367D01*
X141464633Y-92023955D01*
X141471570Y-92027490D01*
X141471572Y-92027491D01*
X141569320Y-92077296D01*
X141576260Y-92080832D01*
X141583953Y-92082050D01*
X141583955Y-92082051D01*
X141692303Y-92099211D01*
X141700000Y-92100430D01*
X141707697Y-92099211D01*
X141816045Y-92082051D01*
X141816047Y-92082050D01*
X141823740Y-92080832D01*
X141830680Y-92077296D01*
X141928428Y-92027491D01*
X141928430Y-92027490D01*
X141935367Y-92023955D01*
X142023955Y-91935367D01*
X142024278Y-91935690D01*
X142069406Y-91902902D01*
X142130591Y-91902901D01*
X142175722Y-91935690D01*
X142176045Y-91935367D01*
X142264633Y-92023955D01*
X142271570Y-92027490D01*
X142271572Y-92027491D01*
X142369320Y-92077296D01*
X142376260Y-92080832D01*
X142383953Y-92082050D01*
X142383955Y-92082051D01*
X142492303Y-92099211D01*
X142500000Y-92100430D01*
X142507697Y-92099211D01*
X142616045Y-92082051D01*
X142616047Y-92082050D01*
X142623740Y-92080832D01*
X142630680Y-92077296D01*
X142728428Y-92027491D01*
X142728430Y-92027490D01*
X142735367Y-92023955D01*
X142823955Y-91935367D01*
X142840498Y-91902901D01*
X142877296Y-91830680D01*
X142877296Y-91830679D01*
X142880832Y-91823740D01*
X142900430Y-91700000D01*
X142880832Y-91576260D01*
X142877296Y-91569320D01*
X142827491Y-91471572D01*
X142827490Y-91471570D01*
X142823955Y-91464633D01*
X142735367Y-91376045D01*
X142728430Y-91372510D01*
X142728428Y-91372509D01*
X142630680Y-91322704D01*
X142630679Y-91322704D01*
X142623740Y-91319168D01*
X142616047Y-91317950D01*
X142616045Y-91317949D01*
X142507697Y-91300789D01*
X142500000Y-91299570D01*
X142492303Y-91300789D01*
X142383955Y-91317949D01*
X142383953Y-91317950D01*
X142376260Y-91319168D01*
X142369321Y-91322704D01*
X142369320Y-91322704D01*
X142271572Y-91372509D01*
X142271570Y-91372510D01*
X142264633Y-91376045D01*
X142176045Y-91464633D01*
X142175722Y-91464310D01*
X142130594Y-91497098D01*
X142069409Y-91497099D01*
X142024278Y-91464310D01*
X142023955Y-91464633D01*
X141935367Y-91376045D01*
X141928430Y-91372510D01*
X141928428Y-91372509D01*
X141830680Y-91322704D01*
X141830679Y-91322704D01*
X141823740Y-91319168D01*
X141816047Y-91317950D01*
X141816045Y-91317949D01*
X141707697Y-91300789D01*
X141700000Y-91299570D01*
X141692303Y-91300789D01*
X141583955Y-91317949D01*
X141583953Y-91317950D01*
X141576260Y-91319168D01*
X141569321Y-91322704D01*
X141569320Y-91322704D01*
X141471572Y-91372509D01*
X141471570Y-91372510D01*
X141464633Y-91376045D01*
X141376045Y-91464633D01*
X141372510Y-91471570D01*
X141372509Y-91471572D01*
X141322704Y-91569320D01*
X141319168Y-91576260D01*
X141299570Y-91700000D01*
X133200000Y-91700000D01*
X133200000Y-90300000D01*
X139299570Y-90300000D01*
X139319168Y-90423740D01*
X139376045Y-90535367D01*
X139464633Y-90623955D01*
X139471570Y-90627490D01*
X139471572Y-90627491D01*
X139569320Y-90677296D01*
X139576260Y-90680832D01*
X139583953Y-90682050D01*
X139583955Y-90682051D01*
X139692303Y-90699211D01*
X139700000Y-90700430D01*
X139707697Y-90699211D01*
X139816045Y-90682051D01*
X139816047Y-90682050D01*
X139823740Y-90680832D01*
X139830680Y-90677296D01*
X139928428Y-90627491D01*
X139928430Y-90627490D01*
X139935367Y-90623955D01*
X140023955Y-90535367D01*
X140080832Y-90423740D01*
X140100430Y-90300000D01*
X140080832Y-90176260D01*
X140023955Y-90064633D01*
X139935367Y-89976045D01*
X139928430Y-89972510D01*
X139928428Y-89972509D01*
X139830680Y-89922704D01*
X139830679Y-89922704D01*
X139823740Y-89919168D01*
X139816047Y-89917950D01*
X139816045Y-89917949D01*
X139707697Y-89900789D01*
X139700000Y-89899570D01*
X139692303Y-89900789D01*
X139583955Y-89917949D01*
X139583953Y-89917950D01*
X139576260Y-89919168D01*
X139569321Y-89922704D01*
X139569320Y-89922704D01*
X139471572Y-89972509D01*
X139471570Y-89972510D01*
X139464633Y-89976045D01*
X139376045Y-90064633D01*
X139319168Y-90176260D01*
X139299570Y-90300000D01*
X133200000Y-90300000D01*
X133200000Y-89000000D01*
X151399570Y-89000000D01*
X151419168Y-89123740D01*
X151476045Y-89235367D01*
X151564633Y-89323955D01*
X151571570Y-89327490D01*
X151571572Y-89327491D01*
X151669320Y-89377296D01*
X151676260Y-89380832D01*
X151683953Y-89382050D01*
X151683955Y-89382051D01*
X151792303Y-89399211D01*
X151800000Y-89400430D01*
X151807697Y-89399211D01*
X151916045Y-89382051D01*
X151916047Y-89382050D01*
X151923740Y-89380832D01*
X151930680Y-89377296D01*
X152028428Y-89327491D01*
X152028430Y-89327490D01*
X152035367Y-89323955D01*
X152123955Y-89235367D01*
X152180832Y-89123740D01*
X152200430Y-89000000D01*
X152180832Y-88876260D01*
X152123955Y-88764633D01*
X152035367Y-88676045D01*
X152028430Y-88672510D01*
X152028428Y-88672509D01*
X151930680Y-88622704D01*
X151930679Y-88622704D01*
X151923740Y-88619168D01*
X151916047Y-88617950D01*
X151916045Y-88617949D01*
X151807697Y-88600789D01*
X151800000Y-88599570D01*
X151792303Y-88600789D01*
X151683955Y-88617949D01*
X151683953Y-88617950D01*
X151676260Y-88619168D01*
X151669321Y-88622704D01*
X151669320Y-88622704D01*
X151571572Y-88672509D01*
X151571570Y-88672510D01*
X151564633Y-88676045D01*
X151476045Y-88764633D01*
X151419168Y-88876260D01*
X151399570Y-89000000D01*
X133200000Y-89000000D01*
X133200000Y-88100000D01*
X143099570Y-88100000D01*
X143119168Y-88223740D01*
X143176045Y-88335367D01*
X143264633Y-88423955D01*
X143271570Y-88427490D01*
X143271572Y-88427491D01*
X143369320Y-88477296D01*
X143376260Y-88480832D01*
X143383953Y-88482050D01*
X143383955Y-88482051D01*
X143492303Y-88499211D01*
X143500000Y-88500430D01*
X143507697Y-88499211D01*
X143616045Y-88482051D01*
X143616047Y-88482050D01*
X143623740Y-88480832D01*
X143630680Y-88477296D01*
X143728428Y-88427491D01*
X143728430Y-88427490D01*
X143735367Y-88423955D01*
X143823955Y-88335367D01*
X143880832Y-88223740D01*
X143900430Y-88100000D01*
X144399570Y-88100000D01*
X144419168Y-88223740D01*
X144476045Y-88335367D01*
X144564633Y-88423955D01*
X144571570Y-88427490D01*
X144571572Y-88427491D01*
X144669320Y-88477296D01*
X144676260Y-88480832D01*
X144683953Y-88482050D01*
X144683955Y-88482051D01*
X144792303Y-88499211D01*
X144800000Y-88500430D01*
X144807697Y-88499211D01*
X144916045Y-88482051D01*
X144916047Y-88482050D01*
X144923740Y-88480832D01*
X144930680Y-88477296D01*
X145028428Y-88427491D01*
X145028430Y-88427490D01*
X145035367Y-88423955D01*
X145123955Y-88335367D01*
X145180832Y-88223740D01*
X145200430Y-88100000D01*
X145180832Y-87976260D01*
X145123955Y-87864633D01*
X145035367Y-87776045D01*
X145028430Y-87772510D01*
X145028428Y-87772509D01*
X144930680Y-87722704D01*
X144930679Y-87722704D01*
X144923740Y-87719168D01*
X144916047Y-87717950D01*
X144916045Y-87717949D01*
X144807697Y-87700789D01*
X144800000Y-87699570D01*
X144792303Y-87700789D01*
X144683955Y-87717949D01*
X144683953Y-87717950D01*
X144676260Y-87719168D01*
X144669321Y-87722704D01*
X144669320Y-87722704D01*
X144571572Y-87772509D01*
X144571570Y-87772510D01*
X144564633Y-87776045D01*
X144476045Y-87864633D01*
X144419168Y-87976260D01*
X144399570Y-88100000D01*
X143900430Y-88100000D01*
X143880832Y-87976260D01*
X143823955Y-87864633D01*
X143735367Y-87776045D01*
X143728430Y-87772510D01*
X143728428Y-87772509D01*
X143630680Y-87722704D01*
X143630679Y-87722704D01*
X143623740Y-87719168D01*
X143616047Y-87717950D01*
X143616045Y-87717949D01*
X143507697Y-87700789D01*
X143500000Y-87699570D01*
X143492303Y-87700789D01*
X143383955Y-87717949D01*
X143383953Y-87717950D01*
X143376260Y-87719168D01*
X143369321Y-87722704D01*
X143369320Y-87722704D01*
X143271572Y-87772509D01*
X143271570Y-87772510D01*
X143264633Y-87776045D01*
X143176045Y-87864633D01*
X143119168Y-87976260D01*
X143099570Y-88100000D01*
X133200000Y-88100000D01*
X133200000Y-86000000D01*
X144099570Y-86000000D01*
X144119168Y-86123740D01*
X144176045Y-86235367D01*
X144264633Y-86323955D01*
X144271570Y-86327490D01*
X144271572Y-86327491D01*
X144362451Y-86373796D01*
X144376260Y-86380832D01*
X144383953Y-86382050D01*
X144383955Y-86382051D01*
X144492303Y-86399211D01*
X144500000Y-86400430D01*
X144507697Y-86399211D01*
X144616045Y-86382051D01*
X144616047Y-86382050D01*
X144623740Y-86380832D01*
X144637549Y-86373796D01*
X144728428Y-86327491D01*
X144728430Y-86327490D01*
X144735367Y-86323955D01*
X144823955Y-86235367D01*
X144880832Y-86123740D01*
X144900430Y-86000000D01*
X145599570Y-86000000D01*
X145619168Y-86123740D01*
X145676045Y-86235367D01*
X145764633Y-86323955D01*
X145771570Y-86327490D01*
X145771572Y-86327491D01*
X145862451Y-86373796D01*
X145876260Y-86380832D01*
X145883953Y-86382050D01*
X145883955Y-86382051D01*
X145992303Y-86399211D01*
X146000000Y-86400430D01*
X146007697Y-86399211D01*
X146116045Y-86382051D01*
X146116047Y-86382050D01*
X146123740Y-86380832D01*
X146137549Y-86373796D01*
X146228428Y-86327491D01*
X146228430Y-86327490D01*
X146235367Y-86323955D01*
X146323955Y-86235367D01*
X146380832Y-86123740D01*
X146400430Y-86000000D01*
X146599570Y-86000000D01*
X146619168Y-86123740D01*
X146676045Y-86235367D01*
X146764633Y-86323955D01*
X146771570Y-86327490D01*
X146771572Y-86327491D01*
X146862451Y-86373796D01*
X146876260Y-86380832D01*
X146883953Y-86382050D01*
X146883955Y-86382051D01*
X146992303Y-86399211D01*
X147000000Y-86400430D01*
X147007697Y-86399211D01*
X147116045Y-86382051D01*
X147116047Y-86382050D01*
X147123740Y-86380832D01*
X147137549Y-86373796D01*
X147228428Y-86327491D01*
X147228430Y-86327490D01*
X147235367Y-86323955D01*
X147323955Y-86235367D01*
X147380832Y-86123740D01*
X147400430Y-86000000D01*
X147599570Y-86000000D01*
X147619168Y-86123740D01*
X147676045Y-86235367D01*
X147764633Y-86323955D01*
X147771570Y-86327490D01*
X147771572Y-86327491D01*
X147862451Y-86373796D01*
X147876260Y-86380832D01*
X147883953Y-86382050D01*
X147883955Y-86382051D01*
X147992303Y-86399211D01*
X148000000Y-86400430D01*
X148007697Y-86399211D01*
X148116045Y-86382051D01*
X148116047Y-86382050D01*
X148123740Y-86380832D01*
X148137549Y-86373796D01*
X148228428Y-86327491D01*
X148228430Y-86327490D01*
X148235367Y-86323955D01*
X148323955Y-86235367D01*
X148380832Y-86123740D01*
X148400430Y-86000000D01*
X148399876Y-85996500D01*
X151302041Y-85996500D01*
X151321639Y-86120240D01*
X151378516Y-86231867D01*
X151467104Y-86320455D01*
X151474041Y-86323990D01*
X151474043Y-86323991D01*
X151571791Y-86373796D01*
X151578731Y-86377332D01*
X151586424Y-86378550D01*
X151586426Y-86378551D01*
X151694774Y-86395711D01*
X151702471Y-86396930D01*
X151710168Y-86395711D01*
X151818516Y-86378551D01*
X151818518Y-86378550D01*
X151826211Y-86377332D01*
X151833151Y-86373796D01*
X151930899Y-86323991D01*
X151930901Y-86323990D01*
X151937838Y-86320455D01*
X152026426Y-86231867D01*
X152083303Y-86120240D01*
X152102901Y-85996500D01*
X152083303Y-85872760D01*
X152026426Y-85761133D01*
X151937838Y-85672545D01*
X151930901Y-85669010D01*
X151930899Y-85669009D01*
X151833151Y-85619204D01*
X151833150Y-85619204D01*
X151826211Y-85615668D01*
X151818518Y-85614450D01*
X151818516Y-85614449D01*
X151710168Y-85597289D01*
X151702471Y-85596070D01*
X151694774Y-85597289D01*
X151586426Y-85614449D01*
X151586424Y-85614450D01*
X151578731Y-85615668D01*
X151571792Y-85619204D01*
X151571791Y-85619204D01*
X151474043Y-85669009D01*
X151474041Y-85669010D01*
X151467104Y-85672545D01*
X151378516Y-85761133D01*
X151321639Y-85872760D01*
X151302041Y-85996500D01*
X148399876Y-85996500D01*
X148380832Y-85876260D01*
X148323955Y-85764633D01*
X148235367Y-85676045D01*
X148228430Y-85672510D01*
X148228428Y-85672509D01*
X148130680Y-85622704D01*
X148130679Y-85622704D01*
X148123740Y-85619168D01*
X148116047Y-85617950D01*
X148116045Y-85617949D01*
X148007697Y-85600789D01*
X148000000Y-85599570D01*
X147992303Y-85600789D01*
X147883955Y-85617949D01*
X147883953Y-85617950D01*
X147876260Y-85619168D01*
X147869321Y-85622704D01*
X147869320Y-85622704D01*
X147771572Y-85672509D01*
X147771570Y-85672510D01*
X147764633Y-85676045D01*
X147676045Y-85764633D01*
X147619168Y-85876260D01*
X147599570Y-86000000D01*
X147400430Y-86000000D01*
X147380832Y-85876260D01*
X147323955Y-85764633D01*
X147235367Y-85676045D01*
X147228430Y-85672510D01*
X147228428Y-85672509D01*
X147130680Y-85622704D01*
X147130679Y-85622704D01*
X147123740Y-85619168D01*
X147116047Y-85617950D01*
X147116045Y-85617949D01*
X147007697Y-85600789D01*
X147000000Y-85599570D01*
X146992303Y-85600789D01*
X146883955Y-85617949D01*
X146883953Y-85617950D01*
X146876260Y-85619168D01*
X146869321Y-85622704D01*
X146869320Y-85622704D01*
X146771572Y-85672509D01*
X146771570Y-85672510D01*
X146764633Y-85676045D01*
X146676045Y-85764633D01*
X146619168Y-85876260D01*
X146599570Y-86000000D01*
X146400430Y-86000000D01*
X146380832Y-85876260D01*
X146323955Y-85764633D01*
X146235367Y-85676045D01*
X146228430Y-85672510D01*
X146228428Y-85672509D01*
X146130680Y-85622704D01*
X146130679Y-85622704D01*
X146123740Y-85619168D01*
X146116047Y-85617950D01*
X146116045Y-85617949D01*
X146007697Y-85600789D01*
X146000000Y-85599570D01*
X145992303Y-85600789D01*
X145883955Y-85617949D01*
X145883953Y-85617950D01*
X145876260Y-85619168D01*
X145869321Y-85622704D01*
X145869320Y-85622704D01*
X145771572Y-85672509D01*
X145771570Y-85672510D01*
X145764633Y-85676045D01*
X145676045Y-85764633D01*
X145619168Y-85876260D01*
X145599570Y-86000000D01*
X144900430Y-86000000D01*
X144880832Y-85876260D01*
X144823955Y-85764633D01*
X144735367Y-85676045D01*
X144728430Y-85672510D01*
X144728428Y-85672509D01*
X144630680Y-85622704D01*
X144630679Y-85622704D01*
X144623740Y-85619168D01*
X144616047Y-85617950D01*
X144616045Y-85617949D01*
X144507697Y-85600789D01*
X144500000Y-85599570D01*
X144492303Y-85600789D01*
X144383955Y-85617949D01*
X144383953Y-85617950D01*
X144376260Y-85619168D01*
X144369321Y-85622704D01*
X144369320Y-85622704D01*
X144271572Y-85672509D01*
X144271570Y-85672510D01*
X144264633Y-85676045D01*
X144176045Y-85764633D01*
X144119168Y-85876260D01*
X144099570Y-86000000D01*
X133200000Y-86000000D01*
X133200000Y-84500000D01*
X149599570Y-84500000D01*
X149619168Y-84623740D01*
X149676045Y-84735367D01*
X149764633Y-84823955D01*
X149771570Y-84827490D01*
X149771572Y-84827491D01*
X149869320Y-84877296D01*
X149876260Y-84880832D01*
X149883953Y-84882050D01*
X149883955Y-84882051D01*
X149992303Y-84899211D01*
X150000000Y-84900430D01*
X150007697Y-84899211D01*
X150116045Y-84882051D01*
X150116047Y-84882050D01*
X150123740Y-84880832D01*
X150130680Y-84877296D01*
X150228428Y-84827491D01*
X150228430Y-84827490D01*
X150235367Y-84823955D01*
X150323955Y-84735367D01*
X150380832Y-84623740D01*
X150400430Y-84500000D01*
X150380832Y-84376260D01*
X150323955Y-84264633D01*
X150235367Y-84176045D01*
X150228430Y-84172510D01*
X150228428Y-84172509D01*
X150130680Y-84122704D01*
X150130679Y-84122704D01*
X150123740Y-84119168D01*
X150116047Y-84117950D01*
X150116045Y-84117949D01*
X150007697Y-84100789D01*
X150000000Y-84099570D01*
X149992303Y-84100789D01*
X149883955Y-84117949D01*
X149883953Y-84117950D01*
X149876260Y-84119168D01*
X149869321Y-84122704D01*
X149869320Y-84122704D01*
X149771572Y-84172509D01*
X149771570Y-84172510D01*
X149764633Y-84176045D01*
X149676045Y-84264633D01*
X149619168Y-84376260D01*
X149599570Y-84500000D01*
X133200000Y-84500000D01*
X133200000Y-82895680D01*
X133218907Y-82837489D01*
X133268407Y-82801525D01*
X133329593Y-82801525D01*
X133375971Y-82835221D01*
X133376045Y-82835367D01*
X133464633Y-82923955D01*
X133471570Y-82927490D01*
X133471572Y-82927491D01*
X133487030Y-82935367D01*
X133576260Y-82980832D01*
X133583953Y-82982050D01*
X133583955Y-82982051D01*
X133692303Y-82999211D01*
X133700000Y-83000430D01*
X133707697Y-82999211D01*
X133816045Y-82982051D01*
X133816047Y-82982050D01*
X133823740Y-82980832D01*
X133912970Y-82935367D01*
X133928428Y-82927491D01*
X133928430Y-82927490D01*
X133935367Y-82923955D01*
X134023955Y-82835367D01*
X134029880Y-82823740D01*
X134077296Y-82730680D01*
X134077296Y-82730679D01*
X134080832Y-82723740D01*
X134096322Y-82625941D01*
X134099211Y-82607697D01*
X134100430Y-82600000D01*
X134095571Y-82569320D01*
X134082051Y-82483955D01*
X134082050Y-82483953D01*
X134080832Y-82476260D01*
X134050151Y-82416045D01*
X134027491Y-82371572D01*
X134027490Y-82371570D01*
X134023955Y-82364633D01*
X134003826Y-82344504D01*
X133976049Y-82289987D01*
X133985620Y-82229555D01*
X134028885Y-82186290D01*
X134073830Y-82175500D01*
X136526170Y-82175500D01*
X136584361Y-82194407D01*
X136620325Y-82243907D01*
X136620325Y-82305093D01*
X136596174Y-82344504D01*
X136576045Y-82364633D01*
X136572510Y-82371570D01*
X136572509Y-82371572D01*
X136549849Y-82416045D01*
X136519168Y-82476260D01*
X136517950Y-82483953D01*
X136517949Y-82483955D01*
X136504429Y-82569320D01*
X136499570Y-82600000D01*
X136500789Y-82607697D01*
X136503679Y-82625941D01*
X136519168Y-82723740D01*
X136522704Y-82730679D01*
X136522704Y-82730680D01*
X136570121Y-82823740D01*
X136576045Y-82835367D01*
X136664633Y-82923955D01*
X136671570Y-82927490D01*
X136671572Y-82927491D01*
X136687030Y-82935367D01*
X136776260Y-82980832D01*
X136783953Y-82982050D01*
X136783955Y-82982051D01*
X136892303Y-82999211D01*
X136900000Y-83000430D01*
X136907697Y-82999211D01*
X137016045Y-82982051D01*
X137016047Y-82982050D01*
X137023740Y-82980832D01*
X137112970Y-82935367D01*
X137128428Y-82927491D01*
X137128430Y-82927490D01*
X137135367Y-82923955D01*
X137223955Y-82835367D01*
X137229880Y-82823740D01*
X137261790Y-82761112D01*
X137305055Y-82717847D01*
X137365487Y-82708276D01*
X137420004Y-82736054D01*
X137438210Y-82761112D01*
X137470121Y-82823740D01*
X137476045Y-82835367D01*
X137564633Y-82923955D01*
X137571570Y-82927490D01*
X137571572Y-82927491D01*
X137587030Y-82935367D01*
X137676260Y-82980832D01*
X137683953Y-82982050D01*
X137683955Y-82982051D01*
X137792303Y-82999211D01*
X137800000Y-83000430D01*
X137807697Y-82999211D01*
X137916045Y-82982051D01*
X137916047Y-82982050D01*
X137923740Y-82980832D01*
X138012970Y-82935367D01*
X138028428Y-82927491D01*
X138028430Y-82927490D01*
X138035367Y-82923955D01*
X138123955Y-82835367D01*
X138124278Y-82835690D01*
X138169406Y-82802902D01*
X138230591Y-82802901D01*
X138275722Y-82835690D01*
X138276045Y-82835367D01*
X138364633Y-82923955D01*
X138371570Y-82927490D01*
X138371572Y-82927491D01*
X138387030Y-82935367D01*
X138476260Y-82980832D01*
X138483953Y-82982050D01*
X138483955Y-82982051D01*
X138592303Y-82999211D01*
X138600000Y-83000430D01*
X138607697Y-82999211D01*
X138716045Y-82982051D01*
X138716047Y-82982050D01*
X138723740Y-82980832D01*
X138812970Y-82935367D01*
X138828428Y-82927491D01*
X138828430Y-82927490D01*
X138835367Y-82923955D01*
X138923955Y-82835367D01*
X138929880Y-82823740D01*
X138977296Y-82730680D01*
X138977296Y-82730679D01*
X138980832Y-82723740D01*
X138996322Y-82625941D01*
X138999211Y-82607697D01*
X139000430Y-82600000D01*
X138995571Y-82569320D01*
X138982051Y-82483955D01*
X138982050Y-82483953D01*
X138980832Y-82476260D01*
X138950151Y-82416045D01*
X138927491Y-82371572D01*
X138927490Y-82371570D01*
X138923955Y-82364633D01*
X138903826Y-82344504D01*
X138876049Y-82289987D01*
X138885620Y-82229555D01*
X138928885Y-82186290D01*
X138973830Y-82175500D01*
X139303375Y-82175500D01*
X139361566Y-82194407D01*
X139397530Y-82243907D01*
X139400725Y-82284514D01*
X139400789Y-82284514D01*
X139400789Y-82285322D01*
X139401156Y-82289986D01*
X139399570Y-82300000D01*
X139400789Y-82307697D01*
X139410906Y-82371572D01*
X139419168Y-82423740D01*
X139422704Y-82430679D01*
X139422704Y-82430680D01*
X139467605Y-82518802D01*
X139476045Y-82535367D01*
X139564633Y-82623955D01*
X139571570Y-82627490D01*
X139571572Y-82627491D01*
X139650548Y-82667731D01*
X139676260Y-82680832D01*
X139683953Y-82682050D01*
X139683955Y-82682051D01*
X139792303Y-82699211D01*
X139800000Y-82700430D01*
X139807697Y-82699211D01*
X139916045Y-82682051D01*
X139916047Y-82682050D01*
X139923740Y-82680832D01*
X139949452Y-82667731D01*
X140028428Y-82627491D01*
X140028430Y-82627490D01*
X140035367Y-82623955D01*
X140123955Y-82535367D01*
X140132396Y-82518802D01*
X140177296Y-82430680D01*
X140177296Y-82430679D01*
X140180832Y-82423740D01*
X140189095Y-82371572D01*
X140199211Y-82307697D01*
X140200430Y-82300000D01*
X140192181Y-82247917D01*
X140182051Y-82183955D01*
X140182050Y-82183953D01*
X140180832Y-82176260D01*
X140177296Y-82169321D01*
X140177295Y-82169317D01*
X140164367Y-82143944D01*
X140154796Y-82083512D01*
X140182574Y-82028996D01*
X140237091Y-82001219D01*
X140252577Y-82000000D01*
X140340087Y-82000000D01*
X140398278Y-82018907D01*
G37*
%TD.AperFunction*%
%TD*%
%TA.AperFunction,Conductor*%
%TO.N,/BLE_RX*%
G36*
X139458185Y-81826721D02*
G01*
X139565423Y-81840691D01*
X139569394Y-81841957D01*
X139644773Y-81881931D01*
X139647264Y-81883704D01*
X139687647Y-81921304D01*
X139708550Y-81940766D01*
X139782485Y-82005993D01*
X139783032Y-82006298D01*
X139783034Y-82006299D01*
X139886600Y-82063978D01*
X139892160Y-82070998D01*
X139891733Y-82078637D01*
X139802852Y-82295482D01*
X139796487Y-82301861D01*
X139581802Y-82390403D01*
X139572847Y-82390390D01*
X139566525Y-82384048D01*
X139565938Y-82382205D01*
X139547651Y-82302561D01*
X139547355Y-82300066D01*
X139546453Y-82214246D01*
X139546452Y-82214225D01*
X139546452Y-82214180D01*
X139543961Y-82142133D01*
X139517575Y-82093102D01*
X139496509Y-82087849D01*
X139453843Y-82077211D01*
X139446645Y-82071885D01*
X139444974Y-82065859D01*
X139444974Y-81838323D01*
X139448401Y-81830050D01*
X139456674Y-81826623D01*
X139458185Y-81826721D01*
G37*
%TD.AperFunction*%
%TD*%
%TA.AperFunction,Conductor*%
%TO.N,GND*%
G36*
X155692977Y-102576641D02*
G01*
X156401090Y-102788792D01*
X156408031Y-102794449D01*
X156408940Y-102803358D01*
X156403283Y-102810299D01*
X156401090Y-102811208D01*
X155692977Y-103023359D01*
X155684069Y-103022450D01*
X155682846Y-103021690D01*
X155642500Y-102992999D01*
X155631578Y-102986688D01*
X155597769Y-102967154D01*
X155597763Y-102967151D01*
X155597500Y-102966999D01*
X155552500Y-102946999D01*
X155552179Y-102946899D01*
X155507849Y-102933107D01*
X155507841Y-102933105D01*
X155507500Y-102932999D01*
X155507141Y-102932935D01*
X155507136Y-102932934D01*
X155489830Y-102929858D01*
X155472151Y-102926716D01*
X155464607Y-102921895D01*
X155462500Y-102915197D01*
X155462500Y-102684803D01*
X155465927Y-102676530D01*
X155472152Y-102673284D01*
X155507136Y-102667064D01*
X155507140Y-102667063D01*
X155507500Y-102666999D01*
X155507841Y-102666893D01*
X155507849Y-102666891D01*
X155552179Y-102653099D01*
X155552181Y-102653098D01*
X155552500Y-102652999D01*
X155597500Y-102632999D01*
X155597763Y-102632847D01*
X155597769Y-102632844D01*
X155642274Y-102607130D01*
X155642280Y-102607126D01*
X155642500Y-102606999D01*
X155682840Y-102578314D01*
X155691567Y-102576312D01*
X155692977Y-102576641D01*
G37*
%TD.AperFunction*%
%TD*%
%TA.AperFunction,Conductor*%
%TO.N,/BLE_TX*%
G36*
X140921944Y-82103427D02*
G01*
X140925365Y-82111322D01*
X140928342Y-82203767D01*
X140939267Y-82277000D01*
X140959117Y-82338782D01*
X140989237Y-82408197D01*
X141026249Y-82493454D01*
X141026400Y-82502407D01*
X141020034Y-82508906D01*
X140804517Y-82599109D01*
X140795483Y-82599109D01*
X140579966Y-82508906D01*
X140573657Y-82502550D01*
X140573751Y-82493454D01*
X140610762Y-82408197D01*
X140640881Y-82338782D01*
X140660732Y-82277000D01*
X140671657Y-82203767D01*
X140674635Y-82111322D01*
X140678327Y-82103165D01*
X140686329Y-82100000D01*
X140913671Y-82100000D01*
X140921944Y-82103427D01*
G37*
%TD.AperFunction*%
%TD*%
M02*
