%TF.GenerationSoftware,KiCad,Pcbnew,(6.99.0-2501-g45393f228a)*%
%TF.CreationDate,2022-07-20T10:28:40+12:00*%
%TF.ProjectId,bldc_hardware_riscv,626c6463-5f68-4617-9264-776172655f72,rev?*%
%TF.SameCoordinates,Original*%
%TF.FileFunction,Soldermask,Bot*%
%TF.FilePolarity,Negative*%
%FSLAX46Y46*%
G04 Gerber Fmt 4.6, Leading zero omitted, Abs format (unit mm)*
G04 Created by KiCad (PCBNEW (6.99.0-2501-g45393f228a)) date 2022-07-20 10:28:40*
%MOMM*%
%LPD*%
G01*
G04 APERTURE LIST*
G04 Aperture macros list*
%AMRoundRect*
0 Rectangle with rounded corners*
0 $1 Rounding radius*
0 $2 $3 $4 $5 $6 $7 $8 $9 X,Y pos of 4 corners*
0 Add a 4 corners polygon primitive as box body*
4,1,4,$2,$3,$4,$5,$6,$7,$8,$9,$2,$3,0*
0 Add four circle primitives for the rounded corners*
1,1,$1+$1,$2,$3*
1,1,$1+$1,$4,$5*
1,1,$1+$1,$6,$7*
1,1,$1+$1,$8,$9*
0 Add four rect primitives between the rounded corners*
20,1,$1+$1,$2,$3,$4,$5,0*
20,1,$1+$1,$4,$5,$6,$7,0*
20,1,$1+$1,$6,$7,$8,$9,0*
20,1,$1+$1,$8,$9,$2,$3,0*%
G04 Aperture macros list end*
%ADD10R,1.905000X2.000000*%
%ADD11O,1.905000X2.000000*%
%ADD12R,1.600000X1.600000*%
%ADD13C,1.600000*%
%ADD14RoundRect,0.250000X0.350000X0.625000X-0.350000X0.625000X-0.350000X-0.625000X0.350000X-0.625000X0*%
%ADD15O,1.200000X1.750000*%
%ADD16RoundRect,0.250000X-0.350000X-0.625000X0.350000X-0.625000X0.350000X0.625000X-0.350000X0.625000X0*%
%ADD17R,2.400000X2.400000*%
%ADD18C,2.400000*%
%ADD19C,3.200000*%
%ADD20RoundRect,0.250000X-0.362500X-1.425000X0.362500X-1.425000X0.362500X1.425000X-0.362500X1.425000X0*%
%ADD21R,0.900000X1.700000*%
%ADD22R,1.500000X0.450000*%
%ADD23O,1.100000X2.200000*%
%ADD24O,1.100000X1.800000*%
%ADD25R,1.700000X1.700000*%
%ADD26O,1.700000X1.700000*%
G04 APERTURE END LIST*
D10*
%TO.C,Q2*%
X99499999Y-118999999D03*
D11*
X96959999Y-118999999D03*
X94419999Y-118999999D03*
%TD*%
D10*
%TO.C,Q5*%
X155539999Y-118999999D03*
D11*
X152999999Y-118999999D03*
X150459999Y-118999999D03*
%TD*%
D10*
%TO.C,Q6*%
X144539999Y-118999999D03*
D11*
X141999999Y-118999999D03*
X139459999Y-118999999D03*
%TD*%
D10*
%TO.C,Q1*%
X110499999Y-118999999D03*
D11*
X107959999Y-118999999D03*
X105419999Y-118999999D03*
%TD*%
D10*
%TO.C,Q4*%
X121999999Y-118999999D03*
D11*
X119459999Y-118999999D03*
X116919999Y-118999999D03*
%TD*%
D10*
%TO.C,Q3*%
X132999999Y-118999999D03*
D11*
X130459999Y-118999999D03*
X127919999Y-118999999D03*
%TD*%
D12*
%TO.C,C17*%
X99999999Y-84499999D03*
D13*
X100000000Y-87000000D03*
%TD*%
D14*
%TO.C,J3*%
X115600000Y-95350000D03*
D15*
X113599999Y-95349999D03*
X111599999Y-95349999D03*
X109599999Y-95349999D03*
X107599999Y-95349999D03*
X105599999Y-95349999D03*
%TD*%
D16*
%TO.C,J2*%
X113500000Y-83550000D03*
D15*
X115499999Y-83549999D03*
X117499999Y-83549999D03*
X119499999Y-83549999D03*
X121499999Y-83549999D03*
X123499999Y-83549999D03*
%TD*%
D17*
%TO.C,C101*%
X101999999Y-110499999D03*
D18*
X97000000Y-110500000D03*
%TD*%
D17*
%TO.C,C102*%
X132999999Y-110499999D03*
D18*
X128000000Y-110500000D03*
%TD*%
D19*
%TO.C,X3*%
X107500000Y-133500000D03*
X104565000Y-130565000D03*
X110435000Y-130565000D03*
X110435000Y-136435000D03*
X104565000Y-136435000D03*
%TD*%
%TO.C,X4*%
X130500000Y-133500000D03*
X127565000Y-130565000D03*
X133435000Y-136435000D03*
X133435000Y-130565000D03*
X127565000Y-136435000D03*
%TD*%
D20*
%TO.C,R102*%
X129537500Y-125500000D03*
X135462500Y-125500000D03*
%TD*%
D21*
%TO.C,SW1*%
X128499999Y-96299999D03*
X131899999Y-96299999D03*
%TD*%
D22*
%TO.C,J1*%
X156437499Y-100199999D03*
X156437499Y-100849999D03*
X156437499Y-101499999D03*
X156437499Y-102149999D03*
X156437499Y-102799999D03*
D23*
X158337499Y-101499999D03*
D24*
X156187499Y-98699999D03*
X156187499Y-104299999D03*
%TD*%
D20*
%TO.C,R103*%
X152537500Y-125500000D03*
X158462500Y-125500000D03*
%TD*%
D19*
%TO.C,X1*%
X87000000Y-111500000D03*
X84065000Y-114435000D03*
X84065000Y-108565000D03*
X89935000Y-108565000D03*
X89935000Y-114435000D03*
%TD*%
D12*
%TO.C,C5*%
X93999999Y-94999999D03*
D13*
X96500000Y-95000000D03*
%TD*%
D17*
%TO.C,C103*%
X144376040Y-110999999D03*
D18*
X149376041Y-111000000D03*
%TD*%
D25*
%TO.C,J4*%
X143239999Y-102899999D03*
D26*
X140699999Y-102899999D03*
X138159999Y-102899999D03*
X135619999Y-102899999D03*
%TD*%
D19*
%TO.C,X5*%
X153500000Y-133500000D03*
X156435000Y-136435000D03*
X150565000Y-130565000D03*
X156435000Y-130565000D03*
X150565000Y-136435000D03*
%TD*%
D20*
%TO.C,R101*%
X106537500Y-125500000D03*
X112462500Y-125500000D03*
%TD*%
D19*
%TO.C,X2*%
X87000000Y-134000000D03*
X84065000Y-131065000D03*
X89935000Y-131065000D03*
X84065000Y-136935000D03*
X89935000Y-136935000D03*
%TD*%
M02*
