%TF.GenerationSoftware,KiCad,Pcbnew,(6.0.4)*%
%TF.CreationDate,2022-07-11T23:15:34+12:00*%
%TF.ProjectId,bldc_hardware_riscv,626c6463-5f68-4617-9264-776172655f72,rev?*%
%TF.SameCoordinates,Original*%
%TF.FileFunction,Legend,Bot*%
%TF.FilePolarity,Positive*%
%FSLAX46Y46*%
G04 Gerber Fmt 4.6, Leading zero omitted, Abs format (unit mm)*
G04 Created by KiCad (PCBNEW (6.0.4)) date 2022-07-11 23:15:34*
%MOMM*%
%LPD*%
G01*
G04 APERTURE LIST*
%ADD10C,0.005000*%
%ADD11C,0.120000*%
%ADD12C,0.150000*%
%ADD13C,0.250000*%
G04 APERTURE END LIST*
D10*
G36*
X145629896Y-93534271D02*
G01*
X145331559Y-93534271D01*
X145333455Y-93533969D01*
X145476678Y-93528461D01*
X145629896Y-93534271D01*
G37*
X145629896Y-93534271D02*
X145331559Y-93534271D01*
X145333455Y-93533969D01*
X145476678Y-93528461D01*
X145629896Y-93534271D01*
G36*
X145338854Y-93917917D02*
G01*
X145616666Y-93904687D01*
X145497604Y-93904687D01*
X145435460Y-93906189D01*
X145417613Y-93906096D01*
X145399603Y-93905366D01*
X145381809Y-93903774D01*
X145364613Y-93901094D01*
X145348394Y-93897102D01*
X145340770Y-93894543D01*
X145333533Y-93891572D01*
X145326730Y-93888161D01*
X145320410Y-93884281D01*
X145314619Y-93879904D01*
X145309405Y-93875002D01*
X145304816Y-93869547D01*
X145300900Y-93863510D01*
X145297703Y-93856865D01*
X145295273Y-93849581D01*
X145293658Y-93841633D01*
X145292906Y-93832990D01*
X145293064Y-93823626D01*
X145294179Y-93813512D01*
X145295726Y-93806279D01*
X145298026Y-93799647D01*
X145301038Y-93793589D01*
X145304721Y-93788084D01*
X145309032Y-93783105D01*
X145313930Y-93778629D01*
X145319374Y-93774631D01*
X145325321Y-93771088D01*
X145331730Y-93767974D01*
X145338559Y-93765266D01*
X145345768Y-93762940D01*
X145353313Y-93760970D01*
X145361153Y-93759333D01*
X145362171Y-93759166D01*
X145365312Y-93759166D01*
X145510833Y-93759166D01*
X145499263Y-93758893D01*
X145485876Y-93758203D01*
X145454978Y-93756347D01*
X145439504Y-93755634D01*
X145365312Y-93759166D01*
X145362171Y-93759166D01*
X145369248Y-93758005D01*
X145386031Y-93756177D01*
X145403329Y-93755291D01*
X145420808Y-93755154D01*
X145438136Y-93755571D01*
X145439504Y-93755634D01*
X145643125Y-93745937D01*
X146225208Y-93745937D01*
X146225208Y-93917917D01*
X145338854Y-93917917D01*
G37*
X145338854Y-93917917D02*
X145616666Y-93904687D01*
X145497604Y-93904687D01*
X145435460Y-93906189D01*
X145417613Y-93906096D01*
X145399603Y-93905366D01*
X145381809Y-93903774D01*
X145364613Y-93901094D01*
X145348394Y-93897102D01*
X145340770Y-93894543D01*
X145333533Y-93891572D01*
X145326730Y-93888161D01*
X145320410Y-93884281D01*
X145314619Y-93879904D01*
X145309405Y-93875002D01*
X145304816Y-93869547D01*
X145300900Y-93863510D01*
X145297703Y-93856865D01*
X145295273Y-93849581D01*
X145293658Y-93841633D01*
X145292906Y-93832990D01*
X145293064Y-93823626D01*
X145294179Y-93813512D01*
X145295726Y-93806279D01*
X145298026Y-93799647D01*
X145301038Y-93793589D01*
X145304721Y-93788084D01*
X145309032Y-93783105D01*
X145313930Y-93778629D01*
X145319374Y-93774631D01*
X145325321Y-93771088D01*
X145331730Y-93767974D01*
X145338559Y-93765266D01*
X145345768Y-93762940D01*
X145353313Y-93760970D01*
X145361153Y-93759333D01*
X145362171Y-93759166D01*
X145365312Y-93759166D01*
X145510833Y-93759166D01*
X145499263Y-93758893D01*
X145485876Y-93758203D01*
X145454978Y-93756347D01*
X145439504Y-93755634D01*
X145365312Y-93759166D01*
X145362171Y-93759166D01*
X145369248Y-93758005D01*
X145386031Y-93756177D01*
X145403329Y-93755291D01*
X145420808Y-93755154D01*
X145438136Y-93755571D01*
X145439504Y-93755634D01*
X145643125Y-93745937D01*
X146225208Y-93745937D01*
X146225208Y-93917917D01*
X145338854Y-93917917D01*
G36*
X145093667Y-94485876D02*
G01*
X145087500Y-94486770D01*
X145091334Y-94481210D01*
X145093667Y-94485876D01*
G37*
X145093667Y-94485876D02*
X145087500Y-94486770D01*
X145091334Y-94481210D01*
X145093667Y-94485876D01*
G36*
X146238437Y-94473542D02*
G01*
X146238437Y-94460312D01*
X146436875Y-94460312D01*
X146238437Y-94473542D01*
G37*
X146238437Y-94473542D02*
X146238437Y-94460312D01*
X146436875Y-94460312D01*
X146238437Y-94473542D01*
G36*
X144452500Y-89922708D02*
G01*
X144781783Y-89922708D01*
X145118059Y-89935588D01*
X145118552Y-89935938D01*
X144227604Y-89935938D01*
X144240185Y-89931244D01*
X144253238Y-89927450D01*
X144266704Y-89924474D01*
X144280523Y-89922234D01*
X144294638Y-89920647D01*
X144308989Y-89919630D01*
X144323516Y-89919102D01*
X144338162Y-89918979D01*
X144452500Y-89922708D01*
G37*
X144452500Y-89922708D02*
X144781783Y-89922708D01*
X145118059Y-89935588D01*
X145118552Y-89935938D01*
X144227604Y-89935938D01*
X144240185Y-89931244D01*
X144253238Y-89927450D01*
X144266704Y-89924474D01*
X144280523Y-89922234D01*
X144294638Y-89920647D01*
X144308989Y-89919630D01*
X144323516Y-89919102D01*
X144338162Y-89918979D01*
X144452500Y-89922708D01*
G36*
X144227604Y-89935938D02*
G01*
X144174687Y-89935938D01*
X144207615Y-89927706D01*
X144224895Y-89925047D01*
X144227604Y-89924780D01*
X144227604Y-89935938D01*
G37*
X144227604Y-89935938D02*
X144174687Y-89935938D01*
X144207615Y-89927706D01*
X144224895Y-89925047D01*
X144227604Y-89924780D01*
X144227604Y-89935938D01*
G36*
X143579375Y-90531250D02*
G01*
X143578092Y-90531250D01*
X143579375Y-90515648D01*
X143579375Y-90531250D01*
G37*
X143579375Y-90531250D02*
X143578092Y-90531250D01*
X143579375Y-90515648D01*
X143579375Y-90531250D01*
G36*
X144916169Y-91273987D02*
G01*
X144917655Y-91303916D01*
X144919293Y-91334828D01*
X144920396Y-91366141D01*
X144920531Y-91381766D01*
X144920275Y-91397273D01*
X144919541Y-91412588D01*
X144918244Y-91427640D01*
X144916298Y-91442355D01*
X144915521Y-91446501D01*
X144915521Y-91245625D01*
X144916169Y-91273987D01*
G37*
X144916169Y-91273987D02*
X144917655Y-91303916D01*
X144919293Y-91334828D01*
X144920396Y-91366141D01*
X144920531Y-91381766D01*
X144920275Y-91397273D01*
X144919541Y-91412588D01*
X144918244Y-91427640D01*
X144916298Y-91442355D01*
X144915521Y-91446501D01*
X144915521Y-91245625D01*
X144916169Y-91273987D01*
G36*
X144915521Y-91496979D02*
G01*
X144902291Y-91496979D01*
X144902579Y-91491506D01*
X144905704Y-91483750D01*
X144910114Y-91470483D01*
X144913616Y-91456660D01*
X144915521Y-91446501D01*
X144915521Y-91496979D01*
G37*
X144915521Y-91496979D02*
X144902291Y-91496979D01*
X144902579Y-91491506D01*
X144905704Y-91483750D01*
X144910114Y-91470483D01*
X144913616Y-91456660D01*
X144915521Y-91446501D01*
X144915521Y-91496979D01*
G36*
X144320208Y-93745937D02*
G01*
X144273999Y-93745937D01*
X144272543Y-93745561D01*
X144249688Y-93740825D01*
X144227654Y-93737213D01*
X144207263Y-93734683D01*
X144189334Y-93733195D01*
X144174687Y-93732708D01*
X144320208Y-93732708D01*
X144320208Y-93745937D01*
G37*
X144320208Y-93745937D02*
X144273999Y-93745937D01*
X144272543Y-93745561D01*
X144249688Y-93740825D01*
X144227654Y-93737213D01*
X144207263Y-93734683D01*
X144189334Y-93733195D01*
X144174687Y-93732708D01*
X144320208Y-93732708D01*
X144320208Y-93745937D01*
G36*
X143905063Y-93895100D02*
G01*
X144006104Y-93901643D01*
X144052487Y-93903845D01*
X144095312Y-93904687D01*
X143513229Y-93904687D01*
X143777813Y-93891458D01*
X143841193Y-93891458D01*
X143905063Y-93895100D01*
G37*
X143905063Y-93895100D02*
X144006104Y-93901643D01*
X144052487Y-93903845D01*
X144095312Y-93904687D01*
X143513229Y-93904687D01*
X143777813Y-93891458D01*
X143841193Y-93891458D01*
X143905063Y-93895100D01*
G36*
X144346666Y-93904687D02*
G01*
X144293838Y-93904687D01*
X144305292Y-93901939D01*
X144312435Y-93899701D01*
X144319306Y-93897150D01*
X144325885Y-93894270D01*
X144331342Y-93891458D01*
X144346666Y-93891458D01*
X144346666Y-93904687D01*
G37*
X144346666Y-93904687D02*
X144293838Y-93904687D01*
X144305292Y-93901939D01*
X144312435Y-93899701D01*
X144319306Y-93897150D01*
X144325885Y-93894270D01*
X144331342Y-93891458D01*
X144346666Y-93891458D01*
X144346666Y-93904687D01*
G36*
X144290279Y-93905541D02*
G01*
X144274442Y-93908090D01*
X144257953Y-93909719D01*
X144240986Y-93910560D01*
X144223713Y-93910748D01*
X144095312Y-93904687D01*
X144293838Y-93904687D01*
X144290279Y-93905541D01*
G37*
X144290279Y-93905541D02*
X144274442Y-93908090D01*
X144257953Y-93909719D01*
X144240986Y-93910560D01*
X144223713Y-93910748D01*
X144095312Y-93904687D01*
X144293838Y-93904687D01*
X144290279Y-93905541D01*
G36*
X143627893Y-94110905D02*
G01*
X143645098Y-94111545D01*
X143678731Y-94113501D01*
X143710193Y-94115462D01*
X143738125Y-94116354D01*
X143756958Y-94116735D01*
X143507781Y-94129194D01*
X143509566Y-94128229D01*
X143516073Y-94125233D01*
X143522869Y-94122573D01*
X143529934Y-94120231D01*
X143544782Y-94116438D01*
X143560449Y-94113719D01*
X143576763Y-94111940D01*
X143593555Y-94110968D01*
X143610655Y-94110667D01*
X143627893Y-94110905D01*
G37*
X143627893Y-94110905D02*
X143645098Y-94111545D01*
X143678731Y-94113501D01*
X143710193Y-94115462D01*
X143738125Y-94116354D01*
X143756958Y-94116735D01*
X143507781Y-94129194D01*
X143509566Y-94128229D01*
X143516073Y-94125233D01*
X143522869Y-94122573D01*
X143529934Y-94120231D01*
X143544782Y-94116438D01*
X143560449Y-94113719D01*
X143576763Y-94111940D01*
X143593555Y-94110968D01*
X143610655Y-94110667D01*
X143627893Y-94110905D01*
G36*
X143507061Y-94129583D02*
G01*
X143500000Y-94129583D01*
X143507781Y-94129194D01*
X143507061Y-94129583D01*
G37*
X143507061Y-94129583D02*
X143500000Y-94129583D01*
X143507781Y-94129194D01*
X143507061Y-94129583D01*
G36*
X143639208Y-94286744D02*
G01*
X143657410Y-94287949D01*
X143671979Y-94288333D01*
X143526458Y-94288333D01*
X143618403Y-94284655D01*
X143639208Y-94286744D01*
G37*
X143639208Y-94286744D02*
X143657410Y-94287949D01*
X143671979Y-94288333D01*
X143526458Y-94288333D01*
X143618403Y-94284655D01*
X143639208Y-94286744D01*
G36*
X143063437Y-90375909D02*
G01*
X143062009Y-90383398D01*
X143059853Y-90398958D01*
X143050208Y-90398958D01*
X143063437Y-90359271D01*
X143063437Y-90375909D01*
G37*
X143063437Y-90375909D02*
X143062009Y-90383398D01*
X143059853Y-90398958D01*
X143050208Y-90398958D01*
X143063437Y-90359271D01*
X143063437Y-90375909D01*
G36*
X143050208Y-90477769D02*
G01*
X143046274Y-90523068D01*
X143044600Y-90570937D01*
X143036979Y-90570937D01*
X143050208Y-90451875D01*
X143050208Y-90477769D01*
G37*
X143050208Y-90477769D02*
X143046274Y-90523068D01*
X143044600Y-90570937D01*
X143036979Y-90570937D01*
X143050208Y-90451875D01*
X143050208Y-90477769D01*
G36*
X141383333Y-91893854D02*
G01*
X141382827Y-91863856D01*
X141381456Y-91832006D01*
X141377016Y-91763891D01*
X141371798Y-91691792D01*
X141367589Y-91617993D01*
X141366421Y-91581169D01*
X141366175Y-91544777D01*
X141367074Y-91509101D01*
X141369342Y-91474427D01*
X141373201Y-91441040D01*
X141378876Y-91409226D01*
X141383333Y-91391913D01*
X141383333Y-91893854D01*
G37*
X141383333Y-91893854D02*
X141382827Y-91863856D01*
X141381456Y-91832006D01*
X141377016Y-91763891D01*
X141371798Y-91691792D01*
X141367589Y-91617993D01*
X141366421Y-91581169D01*
X141366175Y-91544777D01*
X141367074Y-91509101D01*
X141369342Y-91474427D01*
X141373201Y-91441040D01*
X141378876Y-91409226D01*
X141383333Y-91391913D01*
X141383333Y-91893854D01*
G36*
X142689462Y-93559633D02*
G01*
X142693021Y-93559838D01*
X142693021Y-93560729D01*
X142494583Y-93560729D01*
X142591541Y-93559117D01*
X142640537Y-93558607D01*
X142689462Y-93559633D01*
G37*
X142689462Y-93559633D02*
X142693021Y-93559838D01*
X142693021Y-93560729D01*
X142494583Y-93560729D01*
X142591541Y-93559117D01*
X142640537Y-93558607D01*
X142689462Y-93559633D01*
G36*
X142931146Y-94063437D02*
G01*
X142921098Y-94063437D01*
X142922598Y-94055166D01*
X142924463Y-94040059D01*
X142925454Y-94024879D01*
X142925548Y-94010015D01*
X142931146Y-93970833D01*
X142931146Y-94063437D01*
G37*
X142931146Y-94063437D02*
X142921098Y-94063437D01*
X142922598Y-94055166D01*
X142924463Y-94040059D01*
X142925454Y-94024879D01*
X142925548Y-94010015D01*
X142931146Y-93970833D01*
X142931146Y-94063437D01*
G36*
X142732708Y-94288333D02*
G01*
X142682319Y-94288333D01*
X142695289Y-94286404D01*
X142714235Y-94282639D01*
X142732708Y-94277895D01*
X142732708Y-94288333D01*
G37*
X142732708Y-94288333D02*
X142682319Y-94288333D01*
X142695289Y-94286404D01*
X142714235Y-94282639D01*
X142732708Y-94277895D01*
X142732708Y-94288333D01*
G36*
X142675934Y-94289283D02*
G01*
X142656230Y-94291369D01*
X142636240Y-94292756D01*
X142616026Y-94293535D01*
X142575174Y-94293642D01*
X142534170Y-94292433D01*
X142493510Y-94290650D01*
X142453691Y-94289036D01*
X142415208Y-94288333D01*
X142682319Y-94288333D01*
X142675934Y-94289283D01*
G37*
X142675934Y-94289283D02*
X142656230Y-94291369D01*
X142636240Y-94292756D01*
X142616026Y-94293535D01*
X142575174Y-94293642D01*
X142534170Y-94292433D01*
X142493510Y-94290650D01*
X142453691Y-94289036D01*
X142415208Y-94288333D01*
X142682319Y-94288333D01*
X142675934Y-94289283D01*
G36*
X142639289Y-94486774D02*
G01*
X142586748Y-94487521D01*
X142481354Y-94486770D01*
X142639369Y-94486770D01*
X142639289Y-94486774D01*
G37*
X142639289Y-94486774D02*
X142586748Y-94487521D01*
X142481354Y-94486770D01*
X142639369Y-94486770D01*
X142639289Y-94486774D01*
G36*
X139240209Y-95915520D02*
G01*
X139240209Y-93560729D01*
X139981042Y-93560729D01*
X140002311Y-93605039D01*
X140024487Y-93649057D01*
X140071172Y-93736316D01*
X140120321Y-93822706D01*
X140171160Y-93908428D01*
X140274812Y-94078669D01*
X140326075Y-94163590D01*
X140375932Y-94248646D01*
X140444641Y-94383312D01*
X140454998Y-94401322D01*
X140465768Y-94418640D01*
X140476959Y-94434981D01*
X140488577Y-94450059D01*
X140494548Y-94457035D01*
X140500628Y-94463588D01*
X140506818Y-94469682D01*
X140513119Y-94475282D01*
X140519531Y-94480351D01*
X140526056Y-94484855D01*
X140532693Y-94488758D01*
X140539445Y-94492022D01*
X140549892Y-94495829D01*
X140562297Y-94499156D01*
X140576367Y-94501974D01*
X140591808Y-94504254D01*
X140608329Y-94505966D01*
X140625637Y-94507080D01*
X140643438Y-94507566D01*
X140661441Y-94507395D01*
X140679352Y-94506537D01*
X140696879Y-94504962D01*
X140713729Y-94502640D01*
X140729610Y-94499542D01*
X140744228Y-94495638D01*
X140757292Y-94490899D01*
X140763149Y-94488206D01*
X140768507Y-94485294D01*
X140773331Y-94482158D01*
X140777583Y-94478794D01*
X140791152Y-94465833D01*
X140804165Y-94451451D01*
X140816661Y-94435818D01*
X140828675Y-94419103D01*
X140840245Y-94401475D01*
X140851408Y-94383104D01*
X140862201Y-94364158D01*
X140872659Y-94344807D01*
X140892725Y-94305567D01*
X140911899Y-94266738D01*
X140930477Y-94229674D01*
X140948755Y-94195729D01*
X140993998Y-94120306D01*
X141043109Y-94043453D01*
X141115610Y-93931146D01*
X141264271Y-93931146D01*
X141264271Y-94116354D01*
X141661146Y-94116354D01*
X141661146Y-93917917D01*
X141264271Y-93931146D01*
X141115610Y-93931146D01*
X141144717Y-93886057D01*
X141193106Y-93805816D01*
X141211859Y-93772396D01*
X142666562Y-93772396D01*
X142706250Y-93772396D01*
X142706250Y-93768373D01*
X142703973Y-93767898D01*
X142687472Y-93765426D01*
X142666562Y-93772396D01*
X141211859Y-93772396D01*
X141215798Y-93765376D01*
X141219061Y-93759166D01*
X141780208Y-93759166D01*
X142534271Y-93759166D01*
X142584265Y-93759241D01*
X142608915Y-93759622D01*
X142633263Y-93760486D01*
X142657257Y-93762026D01*
X142680844Y-93764433D01*
X142687472Y-93765426D01*
X142706250Y-93759166D01*
X142706250Y-93768373D01*
X142725551Y-93772396D01*
X142726590Y-93772612D01*
X142748643Y-93778768D01*
X142759442Y-93782446D01*
X142770081Y-93786556D01*
X142780552Y-93791122D01*
X142790850Y-93796167D01*
X142800967Y-93801717D01*
X142810898Y-93807794D01*
X142820635Y-93814423D01*
X142830172Y-93821628D01*
X142839503Y-93829432D01*
X142848621Y-93837859D01*
X142857520Y-93846934D01*
X142866192Y-93856680D01*
X142874632Y-93867122D01*
X142882833Y-93878282D01*
X142891695Y-93891891D01*
X142899482Y-93905845D01*
X142905180Y-93917917D01*
X142906212Y-93920102D01*
X142911907Y-93934620D01*
X142916586Y-93949358D01*
X142920270Y-93964273D01*
X142922978Y-93979325D01*
X142924732Y-93994471D01*
X142925550Y-94009670D01*
X142925548Y-94010015D01*
X142917916Y-94063437D01*
X142921098Y-94063437D01*
X142919879Y-94070158D01*
X142916325Y-94084995D01*
X142911957Y-94099635D01*
X142906796Y-94114036D01*
X142900861Y-94128155D01*
X142894172Y-94141952D01*
X142886750Y-94155385D01*
X142878615Y-94168412D01*
X142869787Y-94180992D01*
X142860287Y-94193082D01*
X142850133Y-94204641D01*
X142839347Y-94215627D01*
X142827949Y-94225999D01*
X142815958Y-94235715D01*
X142803396Y-94244732D01*
X142790281Y-94253011D01*
X142776635Y-94260508D01*
X142762478Y-94267182D01*
X142747829Y-94272992D01*
X142732708Y-94277895D01*
X142732708Y-94275104D01*
X142679792Y-94288333D01*
X142679792Y-94275104D01*
X142071250Y-94275104D01*
X141793438Y-94288333D01*
X141780208Y-94486770D01*
X142084479Y-94486770D01*
X141793438Y-94500000D01*
X142706250Y-94500000D01*
X142706250Y-94486770D01*
X142639369Y-94486770D01*
X142665422Y-94485629D01*
X142691427Y-94483782D01*
X142717274Y-94481094D01*
X142742937Y-94477423D01*
X142768387Y-94472629D01*
X142793595Y-94466573D01*
X142818535Y-94459113D01*
X142843177Y-94450109D01*
X142867494Y-94439421D01*
X142891458Y-94426909D01*
X142919730Y-94409492D01*
X142946291Y-94390326D01*
X142971129Y-94369530D01*
X142994228Y-94347226D01*
X143015575Y-94323532D01*
X143035155Y-94298571D01*
X143052956Y-94272462D01*
X143067003Y-94248646D01*
X143235416Y-94248646D01*
X143248646Y-94248646D01*
X143248646Y-94228018D01*
X143247771Y-94222347D01*
X143246104Y-94204378D01*
X143245547Y-94186343D01*
X143246123Y-94168299D01*
X143247854Y-94150302D01*
X143248646Y-94145428D01*
X143248646Y-94142812D01*
X143235416Y-94248646D01*
X143067003Y-94248646D01*
X143068961Y-94245327D01*
X143083159Y-94217284D01*
X143095534Y-94188455D01*
X143106072Y-94158961D01*
X143114760Y-94128921D01*
X143121582Y-94098457D01*
X143122958Y-94089896D01*
X143129583Y-94089896D01*
X143142812Y-94089896D01*
X143142812Y-93944375D01*
X143137236Y-94005720D01*
X143129583Y-94089896D01*
X143122958Y-94089896D01*
X143126527Y-94067688D01*
X143129578Y-94036736D01*
X143130722Y-94005720D01*
X143129946Y-93974761D01*
X143127235Y-93943980D01*
X143122574Y-93913497D01*
X143115951Y-93883432D01*
X143107350Y-93853906D01*
X143096758Y-93825040D01*
X143084161Y-93796953D01*
X143069544Y-93769767D01*
X143052894Y-93743602D01*
X143034197Y-93718578D01*
X143013438Y-93694816D01*
X142990603Y-93672435D01*
X142965679Y-93651558D01*
X142953458Y-93642852D01*
X143230287Y-93642852D01*
X143230722Y-93658480D01*
X143232106Y-93673612D01*
X143234541Y-93687961D01*
X143236185Y-93694752D01*
X143238131Y-93701241D01*
X143240390Y-93707391D01*
X143242977Y-93713167D01*
X143245903Y-93718533D01*
X143248646Y-93722648D01*
X143249182Y-93723453D01*
X143252827Y-93727892D01*
X143256850Y-93731813D01*
X143258023Y-93732708D01*
X143261264Y-93735181D01*
X143266082Y-93737960D01*
X143273178Y-93741164D01*
X143280670Y-93744008D01*
X143296745Y-93748683D01*
X143314107Y-93752122D01*
X143332556Y-93754460D01*
X143351893Y-93755831D01*
X143371918Y-93756373D01*
X143392433Y-93756220D01*
X143413236Y-93755507D01*
X143454914Y-93752947D01*
X143495355Y-93749775D01*
X143532964Y-93747078D01*
X143550208Y-93746245D01*
X143566146Y-93745937D01*
X144273999Y-93745937D01*
X144295400Y-93751462D01*
X144317439Y-93758567D01*
X144327895Y-93762585D01*
X144337839Y-93766919D01*
X144347169Y-93771574D01*
X144355781Y-93776557D01*
X144363574Y-93781871D01*
X144370445Y-93787523D01*
X144376291Y-93793516D01*
X144381010Y-93799857D01*
X144384499Y-93806550D01*
X144386656Y-93813600D01*
X144387378Y-93821013D01*
X144386563Y-93828793D01*
X144384108Y-93836946D01*
X144379911Y-93845477D01*
X144373869Y-93854391D01*
X144365880Y-93863693D01*
X144355841Y-93873388D01*
X144343650Y-93883481D01*
X144338079Y-93887451D01*
X144332150Y-93891042D01*
X144331342Y-93891458D01*
X143841193Y-93891458D01*
X143796990Y-93888938D01*
X143741817Y-93887214D01*
X143686685Y-93887041D01*
X143632195Y-93888905D01*
X143578947Y-93893291D01*
X143527542Y-93900684D01*
X143478578Y-93911569D01*
X143455199Y-93918473D01*
X143432656Y-93926432D01*
X143411024Y-93935506D01*
X143393161Y-93944375D01*
X143390377Y-93945757D01*
X143370790Y-93957246D01*
X143352339Y-93970031D01*
X143335099Y-93984176D01*
X143319144Y-93999739D01*
X143306000Y-94014777D01*
X143294214Y-94030370D01*
X143283764Y-94046461D01*
X143274627Y-94062992D01*
X143266781Y-94079910D01*
X143260204Y-94097155D01*
X143254872Y-94114673D01*
X143250762Y-94132408D01*
X143249071Y-94142812D01*
X143248646Y-94145428D01*
X143248646Y-94228018D01*
X143250525Y-94240194D01*
X143254344Y-94257863D01*
X143259206Y-94275297D01*
X143265087Y-94292440D01*
X143271965Y-94309236D01*
X143279818Y-94325627D01*
X143288623Y-94341559D01*
X143298357Y-94356974D01*
X143308998Y-94371816D01*
X143320524Y-94386029D01*
X143332910Y-94399556D01*
X143346136Y-94412341D01*
X143360178Y-94424329D01*
X143375015Y-94435461D01*
X143390622Y-94445683D01*
X143406978Y-94454937D01*
X143424060Y-94463168D01*
X143441846Y-94470318D01*
X143460312Y-94476333D01*
X143481684Y-94481787D01*
X143503677Y-94486079D01*
X143526208Y-94489322D01*
X143549195Y-94491626D01*
X143572556Y-94493104D01*
X143596209Y-94493867D01*
X143644062Y-94493696D01*
X143692098Y-94492007D01*
X143739659Y-94489694D01*
X143786088Y-94487650D01*
X143830729Y-94486770D01*
X143843958Y-94486770D01*
X143500000Y-94500000D01*
X144598021Y-94500000D01*
X144717083Y-94500000D01*
X144941979Y-94500000D01*
X145074271Y-94500000D01*
X145100729Y-94500000D01*
X145094114Y-94486770D01*
X145140416Y-94486770D01*
X145219791Y-94486770D01*
X145259479Y-94486770D01*
X145259479Y-94473542D01*
X145219791Y-94486770D01*
X145219791Y-94473542D01*
X145140416Y-94486770D01*
X145094114Y-94486770D01*
X145093667Y-94485876D01*
X145337663Y-94450496D01*
X145618968Y-94103496D01*
X145623955Y-94103125D01*
X146225208Y-94103125D01*
X146225208Y-94089896D01*
X145801875Y-94089896D01*
X145623955Y-94103125D01*
X145616666Y-94103125D01*
X145647639Y-94092054D01*
X145681106Y-94083527D01*
X145716735Y-94077292D01*
X145754192Y-94073097D01*
X145793146Y-94070688D01*
X145833263Y-94069813D01*
X145874211Y-94070220D01*
X145915656Y-94071656D01*
X145998710Y-94076606D01*
X146079761Y-94082642D01*
X146156148Y-94087746D01*
X146191760Y-94089316D01*
X146225208Y-94089896D01*
X146238437Y-94089896D01*
X146238437Y-94103125D01*
X146225208Y-94473542D01*
X146450104Y-94473542D01*
X146450104Y-93521042D01*
X146436875Y-93825312D01*
X146436875Y-93521042D01*
X145669583Y-93521042D01*
X145476678Y-93528461D01*
X145441889Y-93527142D01*
X145417520Y-93527178D01*
X145393359Y-93527897D01*
X145369526Y-93529441D01*
X145346140Y-93531954D01*
X145333455Y-93533969D01*
X145325625Y-93534271D01*
X145331559Y-93534271D01*
X145323322Y-93535579D01*
X145301193Y-93540458D01*
X145279872Y-93546734D01*
X145259479Y-93554551D01*
X145235360Y-93566309D01*
X145213179Y-93579710D01*
X145192917Y-93594625D01*
X145174555Y-93610924D01*
X145158072Y-93628477D01*
X145143449Y-93647156D01*
X145130668Y-93666830D01*
X145119707Y-93687370D01*
X145110547Y-93708646D01*
X145103170Y-93730528D01*
X145097555Y-93752888D01*
X145093682Y-93775595D01*
X145092742Y-93785625D01*
X145091533Y-93798520D01*
X145091087Y-93821533D01*
X145092326Y-93844504D01*
X145095229Y-93867305D01*
X145099777Y-93889805D01*
X145105950Y-93911875D01*
X145113729Y-93933386D01*
X145123095Y-93954207D01*
X145134027Y-93974209D01*
X145146506Y-93993263D01*
X145160513Y-94011239D01*
X145176027Y-94028007D01*
X145193030Y-94043438D01*
X145211502Y-94057401D01*
X145231423Y-94069769D01*
X145252774Y-94080411D01*
X145275535Y-94089196D01*
X145299687Y-94095997D01*
X145325209Y-94100683D01*
X145352083Y-94103125D01*
X145091334Y-94481210D01*
X145087500Y-94473542D01*
X145074271Y-94500000D01*
X144941979Y-94500000D01*
X144941979Y-93851771D01*
X145074271Y-93851771D01*
X145087500Y-93851771D01*
X145087500Y-93785625D01*
X145074271Y-93851771D01*
X144941979Y-93851771D01*
X144941979Y-93547500D01*
X144928750Y-93851771D01*
X144928750Y-93547500D01*
X144730312Y-93560729D01*
X144730312Y-93547500D01*
X144717083Y-93851771D01*
X144717083Y-94500000D01*
X144598021Y-94500000D01*
X144598021Y-94275104D01*
X143857187Y-94275104D01*
X143618403Y-94284655D01*
X143618247Y-94284640D01*
X143595400Y-94281556D01*
X143571541Y-94277415D01*
X143547541Y-94272136D01*
X143524276Y-94265641D01*
X143502618Y-94257850D01*
X143492664Y-94253444D01*
X143483440Y-94248685D01*
X143475054Y-94243562D01*
X143467615Y-94238066D01*
X143461233Y-94232187D01*
X143460312Y-94231079D01*
X143460312Y-94235417D01*
X143447083Y-94235417D01*
X143451516Y-94217685D01*
X143452077Y-94219240D01*
X143456018Y-94225915D01*
X143460312Y-94231079D01*
X143460312Y-94182500D01*
X143451516Y-94217685D01*
X143449520Y-94212152D01*
X143448457Y-94204641D01*
X143448996Y-94196698D01*
X143451247Y-94188312D01*
X143455318Y-94179474D01*
X143461320Y-94170173D01*
X143469361Y-94160401D01*
X143479550Y-94150146D01*
X143491996Y-94139399D01*
X143497507Y-94135295D01*
X143503370Y-94131578D01*
X143507061Y-94129583D01*
X143981072Y-94129583D01*
X144030443Y-94132626D01*
X144085168Y-94134742D01*
X144139933Y-94135459D01*
X144194108Y-94134317D01*
X144247065Y-94130855D01*
X144257481Y-94129583D01*
X144346666Y-94129583D01*
X144346666Y-94116354D01*
X144340541Y-94116354D01*
X144298176Y-94124614D01*
X144257481Y-94129583D01*
X143981072Y-94129583D01*
X143923626Y-94126042D01*
X143824510Y-94119390D01*
X143779412Y-94117190D01*
X143756958Y-94116735D01*
X143764583Y-94116354D01*
X144340541Y-94116354D01*
X144346811Y-94115132D01*
X144370005Y-94109032D01*
X144392343Y-94101949D01*
X144413748Y-94093826D01*
X144434142Y-94084605D01*
X144453445Y-94074228D01*
X144471580Y-94062638D01*
X144488467Y-94049778D01*
X144504028Y-94035590D01*
X144517834Y-94020847D01*
X144530375Y-94005543D01*
X144541665Y-93989731D01*
X144551717Y-93973465D01*
X144560545Y-93956800D01*
X144568162Y-93939790D01*
X144574583Y-93922489D01*
X144579821Y-93904951D01*
X144583890Y-93887231D01*
X144586803Y-93869381D01*
X144588575Y-93851457D01*
X144589219Y-93833512D01*
X144588748Y-93815602D01*
X144587177Y-93797779D01*
X144584519Y-93780098D01*
X144580788Y-93762613D01*
X144575998Y-93745378D01*
X144570162Y-93728447D01*
X144563294Y-93711876D01*
X144555408Y-93695716D01*
X144546517Y-93680024D01*
X144536636Y-93664852D01*
X144525778Y-93650255D01*
X144513956Y-93636288D01*
X144501185Y-93623003D01*
X144487478Y-93610456D01*
X144472849Y-93598701D01*
X144457312Y-93587791D01*
X144440880Y-93577781D01*
X144423567Y-93568725D01*
X144405387Y-93560677D01*
X144386354Y-93553691D01*
X144363197Y-93546826D01*
X144339496Y-93541276D01*
X144315321Y-93536921D01*
X144290741Y-93533640D01*
X144265825Y-93531313D01*
X144240644Y-93529821D01*
X144215267Y-93529041D01*
X144189762Y-93528855D01*
X143989479Y-93534271D01*
X143248646Y-93534271D01*
X143245185Y-93543576D01*
X143244007Y-93547500D01*
X143241853Y-93554673D01*
X143238750Y-93567274D01*
X143235981Y-93581095D01*
X143233648Y-93595849D01*
X143231852Y-93611251D01*
X143230698Y-93627014D01*
X143230287Y-93642852D01*
X142953458Y-93642852D01*
X142938652Y-93632304D01*
X142909506Y-93614793D01*
X142878229Y-93599146D01*
X142855648Y-93589792D01*
X142832700Y-93581950D01*
X142809422Y-93575494D01*
X142785855Y-93570300D01*
X142762036Y-93566243D01*
X142738005Y-93563196D01*
X142713801Y-93561034D01*
X142708500Y-93560729D01*
X142693021Y-93560729D01*
X142695919Y-93560004D01*
X142708500Y-93560729D01*
X142745937Y-93560729D01*
X142745937Y-93547500D01*
X142695919Y-93560004D01*
X142693021Y-93559838D01*
X142693021Y-93547500D01*
X142071250Y-93547500D01*
X141793438Y-93560729D01*
X141793438Y-93547500D01*
X141791784Y-93573958D01*
X141780208Y-93759166D01*
X141219061Y-93759166D01*
X141237145Y-93724748D01*
X141256892Y-93683950D01*
X141274781Y-93643002D01*
X141290555Y-93601922D01*
X141299654Y-93573958D01*
X141317187Y-93573958D01*
X141312696Y-93569369D01*
X141307590Y-93565145D01*
X141303441Y-93562320D01*
X141299654Y-93573958D01*
X141089422Y-93573958D01*
X141083415Y-93574329D01*
X140944786Y-93785625D01*
X140642500Y-94301562D01*
X140349474Y-93785625D01*
X140214007Y-93574329D01*
X140207652Y-93573958D01*
X141065833Y-93573958D01*
X141089422Y-93573958D01*
X141301236Y-93560897D01*
X141301910Y-93561278D01*
X141303441Y-93562320D01*
X141303958Y-93560729D01*
X141301236Y-93560897D01*
X141295695Y-93557763D01*
X141288984Y-93554591D01*
X141281818Y-93551757D01*
X141274236Y-93549253D01*
X141266279Y-93547072D01*
X141249395Y-93543655D01*
X141231483Y-93541449D01*
X141212863Y-93540399D01*
X141193852Y-93540452D01*
X141174767Y-93541552D01*
X141155928Y-93543644D01*
X141137651Y-93546673D01*
X141133973Y-93547500D01*
X141120254Y-93550585D01*
X141104056Y-93555324D01*
X141089375Y-93560836D01*
X141076528Y-93567066D01*
X141070892Y-93570433D01*
X141065833Y-93573958D01*
X140207652Y-93573958D01*
X139981042Y-93560729D01*
X140219167Y-93560729D01*
X140219167Y-93547500D01*
X139981042Y-93560729D01*
X139240209Y-93560729D01*
X139240209Y-91522974D01*
X141352364Y-91522974D01*
X141352642Y-91560280D01*
X141353864Y-91598030D01*
X141358220Y-91673684D01*
X141363601Y-91747575D01*
X141368173Y-91817342D01*
X141369583Y-91849942D01*
X141370104Y-91880625D01*
X141370104Y-93150625D01*
X141766979Y-93150625D01*
X141370104Y-93163854D01*
X142666562Y-93163854D01*
X142666562Y-93150625D01*
X143552917Y-93150625D01*
X144730312Y-93150625D01*
X144938739Y-93163512D01*
X144958180Y-93163854D01*
X144969729Y-93164057D01*
X144999794Y-93163656D01*
X145028329Y-93162094D01*
X145054726Y-93159158D01*
X145078380Y-93154636D01*
X145088989Y-93151714D01*
X145098684Y-93148314D01*
X145107390Y-93144412D01*
X145115032Y-93139980D01*
X145118399Y-93137396D01*
X145121533Y-93134991D01*
X145126817Y-93129419D01*
X145127187Y-93128896D01*
X145130656Y-93124000D01*
X145134088Y-93117993D01*
X145137130Y-93111434D01*
X145139802Y-93104360D01*
X145144111Y-93088815D01*
X145147164Y-93071650D01*
X145149111Y-93053160D01*
X145150101Y-93033639D01*
X145150286Y-93013381D01*
X145149814Y-92992679D01*
X145140416Y-92846354D01*
X145140416Y-90094688D01*
X145140565Y-90086569D01*
X145140957Y-90077772D01*
X145142150Y-90058576D01*
X145143348Y-90037964D01*
X145143747Y-90027397D01*
X145143906Y-90016801D01*
X145143743Y-90006282D01*
X145143177Y-89995950D01*
X145142129Y-89985912D01*
X145140517Y-89976276D01*
X145138260Y-89967150D01*
X145136865Y-89962813D01*
X145135279Y-89958643D01*
X145133491Y-89954655D01*
X145131491Y-89950862D01*
X145129270Y-89947277D01*
X145127187Y-89944422D01*
X145126817Y-89943915D01*
X145123293Y-89939991D01*
X145119263Y-89936441D01*
X145118552Y-89935938D01*
X145127187Y-89935938D01*
X145118059Y-89935588D01*
X145114757Y-89933248D01*
X145109807Y-89930397D01*
X145104442Y-89927871D01*
X145098694Y-89925653D01*
X145092594Y-89923728D01*
X145086173Y-89922078D01*
X145072487Y-89919540D01*
X145057884Y-89917910D01*
X145042609Y-89917055D01*
X145026909Y-89916846D01*
X145011029Y-89917152D01*
X144995216Y-89917841D01*
X144964775Y-89919847D01*
X144937553Y-89921819D01*
X144915521Y-89922708D01*
X144781783Y-89922708D01*
X144475841Y-89910991D01*
X144390949Y-89912458D01*
X144307117Y-89916944D01*
X144227604Y-89924780D01*
X144227604Y-89922708D01*
X144207615Y-89927706D01*
X144144834Y-89937366D01*
X144067483Y-89954502D01*
X143993392Y-89977055D01*
X143957740Y-89990549D01*
X143923110Y-90005622D01*
X143889569Y-90022349D01*
X143857187Y-90040805D01*
X143820144Y-90065359D01*
X143785822Y-90092157D01*
X143754198Y-90121042D01*
X143725250Y-90151858D01*
X143698957Y-90184452D01*
X143675294Y-90218666D01*
X143654240Y-90254345D01*
X143635773Y-90291334D01*
X143619869Y-90329477D01*
X143606507Y-90368619D01*
X143595664Y-90408604D01*
X143587318Y-90449277D01*
X143581445Y-90490482D01*
X143579375Y-90515648D01*
X143579375Y-90491563D01*
X143566146Y-90531250D01*
X143578092Y-90531250D01*
X143578025Y-90532062D01*
X143577683Y-90546480D01*
X143579375Y-90531250D01*
X143579375Y-90625916D01*
X143581594Y-90650313D01*
X143582248Y-90657508D01*
X143588410Y-90699040D01*
X143596911Y-90740169D01*
X143607729Y-90780742D01*
X143620842Y-90820603D01*
X143636227Y-90859595D01*
X143653861Y-90897564D01*
X143673723Y-90934354D01*
X143695790Y-90969810D01*
X143720038Y-91003775D01*
X143746447Y-91036094D01*
X143774993Y-91066612D01*
X143805655Y-91095173D01*
X143838408Y-91121622D01*
X143873232Y-91145803D01*
X143910104Y-91167560D01*
X143936749Y-91181108D01*
X143964154Y-91193394D01*
X144021066Y-91214396D01*
X144080476Y-91231002D01*
X144124977Y-91240147D01*
X144148229Y-91232396D01*
X144148229Y-91244544D01*
X144155734Y-91245625D01*
X144205346Y-91252774D01*
X144239684Y-91255978D01*
X144426042Y-91245625D01*
X144902291Y-91245625D01*
X144902291Y-91246083D01*
X144533272Y-91258854D01*
X144270855Y-91258854D01*
X144270082Y-91258814D01*
X144239684Y-91255978D01*
X144187917Y-91258854D01*
X144270855Y-91258854D01*
X144335869Y-91262206D01*
X144402345Y-91263385D01*
X144533272Y-91258854D01*
X144902291Y-91258854D01*
X144902291Y-91246083D01*
X144915521Y-91245625D01*
X144902579Y-91491506D01*
X144899526Y-91499085D01*
X144892582Y-91514426D01*
X144876564Y-91545101D01*
X144857979Y-91575724D01*
X144837158Y-91606246D01*
X144814430Y-91636619D01*
X144790126Y-91666793D01*
X144764574Y-91696719D01*
X144738106Y-91726348D01*
X144717557Y-91748333D01*
X144683738Y-91784517D01*
X144629660Y-91840906D01*
X144578512Y-91895122D01*
X144554862Y-91921292D01*
X144532933Y-91946771D01*
X143893607Y-92714062D01*
X143850083Y-92764986D01*
X143805046Y-92815985D01*
X143759387Y-92867305D01*
X143713995Y-92919195D01*
X143669761Y-92971902D01*
X143648357Y-92998639D01*
X143627577Y-93025673D01*
X143607531Y-93053035D01*
X143588332Y-93080755D01*
X143570090Y-93108865D01*
X143552917Y-93137396D01*
X143552917Y-93150625D01*
X142666562Y-93150625D01*
X142653333Y-93150625D01*
X142270018Y-92581771D01*
X141396563Y-91351459D01*
X141386588Y-91379271D01*
X141383333Y-91391913D01*
X141383333Y-91325000D01*
X141373141Y-91353442D01*
X141365266Y-91384098D01*
X141359481Y-91416675D01*
X141355554Y-91450877D01*
X141353259Y-91486408D01*
X141352364Y-91522974D01*
X139240209Y-91522974D01*
X139240209Y-90055000D01*
X141370104Y-90055000D01*
X141379391Y-90372500D01*
X141545787Y-90623854D01*
X141920120Y-91153021D01*
X143103125Y-92819896D01*
X143116354Y-92819896D01*
X144015937Y-91748333D01*
X143882824Y-91701370D01*
X143818348Y-91676692D01*
X143755408Y-91650785D01*
X143694117Y-91623327D01*
X143634589Y-91593995D01*
X143576934Y-91562466D01*
X143521266Y-91528417D01*
X143467697Y-91491525D01*
X143441735Y-91471912D01*
X143416339Y-91451467D01*
X143391525Y-91430150D01*
X143367306Y-91407921D01*
X143343696Y-91384739D01*
X143320709Y-91360564D01*
X143298360Y-91335355D01*
X143276661Y-91309072D01*
X143255628Y-91281675D01*
X143235275Y-91253123D01*
X143230320Y-91245625D01*
X144108541Y-91245625D01*
X144148229Y-91245625D01*
X144148229Y-91244544D01*
X144142024Y-91243649D01*
X144124977Y-91240147D01*
X144108541Y-91245625D01*
X143230320Y-91245625D01*
X143215615Y-91223376D01*
X143196662Y-91192394D01*
X143178432Y-91160136D01*
X143160936Y-91126562D01*
X143132538Y-91064697D01*
X143108172Y-91000979D01*
X143087787Y-90935648D01*
X143071334Y-90868940D01*
X143058761Y-90801093D01*
X143050019Y-90732345D01*
X143048883Y-90716458D01*
X143036979Y-90716458D01*
X143044885Y-90653208D01*
X143045057Y-90662933D01*
X143048883Y-90716458D01*
X143050208Y-90716458D01*
X143050208Y-90650313D01*
X143566146Y-90650313D01*
X143579375Y-90650313D01*
X143579375Y-90625916D01*
X143578449Y-90615731D01*
X143577033Y-90573864D01*
X143577683Y-90546480D01*
X143570555Y-90610625D01*
X143566146Y-90650313D01*
X143050208Y-90650313D01*
X143050208Y-90610625D01*
X143044885Y-90653208D01*
X143043825Y-90593095D01*
X143044600Y-90570937D01*
X143050208Y-90570937D01*
X143050208Y-90477769D01*
X143052352Y-90453090D01*
X143059853Y-90398958D01*
X143063437Y-90398958D01*
X143063437Y-90375909D01*
X143075196Y-90314231D01*
X143091862Y-90245825D01*
X143111957Y-90178418D01*
X143135430Y-90112248D01*
X143162231Y-90047552D01*
X143192311Y-89984568D01*
X143225618Y-89923533D01*
X143262103Y-89864686D01*
X143301715Y-89808263D01*
X143344404Y-89754502D01*
X143390120Y-89703640D01*
X143438813Y-89655916D01*
X143490432Y-89611567D01*
X143544928Y-89570830D01*
X143602249Y-89533942D01*
X143662346Y-89501143D01*
X143725169Y-89472668D01*
X143790666Y-89448756D01*
X143858789Y-89429644D01*
X143929486Y-89415570D01*
X144002708Y-89406771D01*
X144002708Y-89393542D01*
X141370104Y-89393542D01*
X141370104Y-90055000D01*
X139240209Y-90055000D01*
X139240209Y-87978021D01*
X147177708Y-87978021D01*
X147177708Y-95915520D01*
X139240209Y-95915520D01*
G37*
X139240209Y-95915520D02*
X139240209Y-93560729D01*
X139981042Y-93560729D01*
X140002311Y-93605039D01*
X140024487Y-93649057D01*
X140071172Y-93736316D01*
X140120321Y-93822706D01*
X140171160Y-93908428D01*
X140274812Y-94078669D01*
X140326075Y-94163590D01*
X140375932Y-94248646D01*
X140444641Y-94383312D01*
X140454998Y-94401322D01*
X140465768Y-94418640D01*
X140476959Y-94434981D01*
X140488577Y-94450059D01*
X140494548Y-94457035D01*
X140500628Y-94463588D01*
X140506818Y-94469682D01*
X140513119Y-94475282D01*
X140519531Y-94480351D01*
X140526056Y-94484855D01*
X140532693Y-94488758D01*
X140539445Y-94492022D01*
X140549892Y-94495829D01*
X140562297Y-94499156D01*
X140576367Y-94501974D01*
X140591808Y-94504254D01*
X140608329Y-94505966D01*
X140625637Y-94507080D01*
X140643438Y-94507566D01*
X140661441Y-94507395D01*
X140679352Y-94506537D01*
X140696879Y-94504962D01*
X140713729Y-94502640D01*
X140729610Y-94499542D01*
X140744228Y-94495638D01*
X140757292Y-94490899D01*
X140763149Y-94488206D01*
X140768507Y-94485294D01*
X140773331Y-94482158D01*
X140777583Y-94478794D01*
X140791152Y-94465833D01*
X140804165Y-94451451D01*
X140816661Y-94435818D01*
X140828675Y-94419103D01*
X140840245Y-94401475D01*
X140851408Y-94383104D01*
X140862201Y-94364158D01*
X140872659Y-94344807D01*
X140892725Y-94305567D01*
X140911899Y-94266738D01*
X140930477Y-94229674D01*
X140948755Y-94195729D01*
X140993998Y-94120306D01*
X141043109Y-94043453D01*
X141115610Y-93931146D01*
X141264271Y-93931146D01*
X141264271Y-94116354D01*
X141661146Y-94116354D01*
X141661146Y-93917917D01*
X141264271Y-93931146D01*
X141115610Y-93931146D01*
X141144717Y-93886057D01*
X141193106Y-93805816D01*
X141211859Y-93772396D01*
X142666562Y-93772396D01*
X142706250Y-93772396D01*
X142706250Y-93768373D01*
X142703973Y-93767898D01*
X142687472Y-93765426D01*
X142666562Y-93772396D01*
X141211859Y-93772396D01*
X141215798Y-93765376D01*
X141219061Y-93759166D01*
X141780208Y-93759166D01*
X142534271Y-93759166D01*
X142584265Y-93759241D01*
X142608915Y-93759622D01*
X142633263Y-93760486D01*
X142657257Y-93762026D01*
X142680844Y-93764433D01*
X142687472Y-93765426D01*
X142706250Y-93759166D01*
X142706250Y-93768373D01*
X142725551Y-93772396D01*
X142726590Y-93772612D01*
X142748643Y-93778768D01*
X142759442Y-93782446D01*
X142770081Y-93786556D01*
X142780552Y-93791122D01*
X142790850Y-93796167D01*
X142800967Y-93801717D01*
X142810898Y-93807794D01*
X142820635Y-93814423D01*
X142830172Y-93821628D01*
X142839503Y-93829432D01*
X142848621Y-93837859D01*
X142857520Y-93846934D01*
X142866192Y-93856680D01*
X142874632Y-93867122D01*
X142882833Y-93878282D01*
X142891695Y-93891891D01*
X142899482Y-93905845D01*
X142905180Y-93917917D01*
X142906212Y-93920102D01*
X142911907Y-93934620D01*
X142916586Y-93949358D01*
X142920270Y-93964273D01*
X142922978Y-93979325D01*
X142924732Y-93994471D01*
X142925550Y-94009670D01*
X142925548Y-94010015D01*
X142917916Y-94063437D01*
X142921098Y-94063437D01*
X142919879Y-94070158D01*
X142916325Y-94084995D01*
X142911957Y-94099635D01*
X142906796Y-94114036D01*
X142900861Y-94128155D01*
X142894172Y-94141952D01*
X142886750Y-94155385D01*
X142878615Y-94168412D01*
X142869787Y-94180992D01*
X142860287Y-94193082D01*
X142850133Y-94204641D01*
X142839347Y-94215627D01*
X142827949Y-94225999D01*
X142815958Y-94235715D01*
X142803396Y-94244732D01*
X142790281Y-94253011D01*
X142776635Y-94260508D01*
X142762478Y-94267182D01*
X142747829Y-94272992D01*
X142732708Y-94277895D01*
X142732708Y-94275104D01*
X142679792Y-94288333D01*
X142679792Y-94275104D01*
X142071250Y-94275104D01*
X141793438Y-94288333D01*
X141780208Y-94486770D01*
X142084479Y-94486770D01*
X141793438Y-94500000D01*
X142706250Y-94500000D01*
X142706250Y-94486770D01*
X142639369Y-94486770D01*
X142665422Y-94485629D01*
X142691427Y-94483782D01*
X142717274Y-94481094D01*
X142742937Y-94477423D01*
X142768387Y-94472629D01*
X142793595Y-94466573D01*
X142818535Y-94459113D01*
X142843177Y-94450109D01*
X142867494Y-94439421D01*
X142891458Y-94426909D01*
X142919730Y-94409492D01*
X142946291Y-94390326D01*
X142971129Y-94369530D01*
X142994228Y-94347226D01*
X143015575Y-94323532D01*
X143035155Y-94298571D01*
X143052956Y-94272462D01*
X143067003Y-94248646D01*
X143235416Y-94248646D01*
X143248646Y-94248646D01*
X143248646Y-94228018D01*
X143247771Y-94222347D01*
X143246104Y-94204378D01*
X143245547Y-94186343D01*
X143246123Y-94168299D01*
X143247854Y-94150302D01*
X143248646Y-94145428D01*
X143248646Y-94142812D01*
X143235416Y-94248646D01*
X143067003Y-94248646D01*
X143068961Y-94245327D01*
X143083159Y-94217284D01*
X143095534Y-94188455D01*
X143106072Y-94158961D01*
X143114760Y-94128921D01*
X143121582Y-94098457D01*
X143122958Y-94089896D01*
X143129583Y-94089896D01*
X143142812Y-94089896D01*
X143142812Y-93944375D01*
X143137236Y-94005720D01*
X143129583Y-94089896D01*
X143122958Y-94089896D01*
X143126527Y-94067688D01*
X143129578Y-94036736D01*
X143130722Y-94005720D01*
X143129946Y-93974761D01*
X143127235Y-93943980D01*
X143122574Y-93913497D01*
X143115951Y-93883432D01*
X143107350Y-93853906D01*
X143096758Y-93825040D01*
X143084161Y-93796953D01*
X143069544Y-93769767D01*
X143052894Y-93743602D01*
X143034197Y-93718578D01*
X143013438Y-93694816D01*
X142990603Y-93672435D01*
X142965679Y-93651558D01*
X142953458Y-93642852D01*
X143230287Y-93642852D01*
X143230722Y-93658480D01*
X143232106Y-93673612D01*
X143234541Y-93687961D01*
X143236185Y-93694752D01*
X143238131Y-93701241D01*
X143240390Y-93707391D01*
X143242977Y-93713167D01*
X143245903Y-93718533D01*
X143248646Y-93722648D01*
X143249182Y-93723453D01*
X143252827Y-93727892D01*
X143256850Y-93731813D01*
X143258023Y-93732708D01*
X143261264Y-93735181D01*
X143266082Y-93737960D01*
X143273178Y-93741164D01*
X143280670Y-93744008D01*
X143296745Y-93748683D01*
X143314107Y-93752122D01*
X143332556Y-93754460D01*
X143351893Y-93755831D01*
X143371918Y-93756373D01*
X143392433Y-93756220D01*
X143413236Y-93755507D01*
X143454914Y-93752947D01*
X143495355Y-93749775D01*
X143532964Y-93747078D01*
X143550208Y-93746245D01*
X143566146Y-93745937D01*
X144273999Y-93745937D01*
X144295400Y-93751462D01*
X144317439Y-93758567D01*
X144327895Y-93762585D01*
X144337839Y-93766919D01*
X144347169Y-93771574D01*
X144355781Y-93776557D01*
X144363574Y-93781871D01*
X144370445Y-93787523D01*
X144376291Y-93793516D01*
X144381010Y-93799857D01*
X144384499Y-93806550D01*
X144386656Y-93813600D01*
X144387378Y-93821013D01*
X144386563Y-93828793D01*
X144384108Y-93836946D01*
X144379911Y-93845477D01*
X144373869Y-93854391D01*
X144365880Y-93863693D01*
X144355841Y-93873388D01*
X144343650Y-93883481D01*
X144338079Y-93887451D01*
X144332150Y-93891042D01*
X144331342Y-93891458D01*
X143841193Y-93891458D01*
X143796990Y-93888938D01*
X143741817Y-93887214D01*
X143686685Y-93887041D01*
X143632195Y-93888905D01*
X143578947Y-93893291D01*
X143527542Y-93900684D01*
X143478578Y-93911569D01*
X143455199Y-93918473D01*
X143432656Y-93926432D01*
X143411024Y-93935506D01*
X143393161Y-93944375D01*
X143390377Y-93945757D01*
X143370790Y-93957246D01*
X143352339Y-93970031D01*
X143335099Y-93984176D01*
X143319144Y-93999739D01*
X143306000Y-94014777D01*
X143294214Y-94030370D01*
X143283764Y-94046461D01*
X143274627Y-94062992D01*
X143266781Y-94079910D01*
X143260204Y-94097155D01*
X143254872Y-94114673D01*
X143250762Y-94132408D01*
X143249071Y-94142812D01*
X143248646Y-94145428D01*
X143248646Y-94228018D01*
X143250525Y-94240194D01*
X143254344Y-94257863D01*
X143259206Y-94275297D01*
X143265087Y-94292440D01*
X143271965Y-94309236D01*
X143279818Y-94325627D01*
X143288623Y-94341559D01*
X143298357Y-94356974D01*
X143308998Y-94371816D01*
X143320524Y-94386029D01*
X143332910Y-94399556D01*
X143346136Y-94412341D01*
X143360178Y-94424329D01*
X143375015Y-94435461D01*
X143390622Y-94445683D01*
X143406978Y-94454937D01*
X143424060Y-94463168D01*
X143441846Y-94470318D01*
X143460312Y-94476333D01*
X143481684Y-94481787D01*
X143503677Y-94486079D01*
X143526208Y-94489322D01*
X143549195Y-94491626D01*
X143572556Y-94493104D01*
X143596209Y-94493867D01*
X143644062Y-94493696D01*
X143692098Y-94492007D01*
X143739659Y-94489694D01*
X143786088Y-94487650D01*
X143830729Y-94486770D01*
X143843958Y-94486770D01*
X143500000Y-94500000D01*
X144598021Y-94500000D01*
X144717083Y-94500000D01*
X144941979Y-94500000D01*
X145074271Y-94500000D01*
X145100729Y-94500000D01*
X145094114Y-94486770D01*
X145140416Y-94486770D01*
X145219791Y-94486770D01*
X145259479Y-94486770D01*
X145259479Y-94473542D01*
X145219791Y-94486770D01*
X145219791Y-94473542D01*
X145140416Y-94486770D01*
X145094114Y-94486770D01*
X145093667Y-94485876D01*
X145337663Y-94450496D01*
X145618968Y-94103496D01*
X145623955Y-94103125D01*
X146225208Y-94103125D01*
X146225208Y-94089896D01*
X145801875Y-94089896D01*
X145623955Y-94103125D01*
X145616666Y-94103125D01*
X145647639Y-94092054D01*
X145681106Y-94083527D01*
X145716735Y-94077292D01*
X145754192Y-94073097D01*
X145793146Y-94070688D01*
X145833263Y-94069813D01*
X145874211Y-94070220D01*
X145915656Y-94071656D01*
X145998710Y-94076606D01*
X146079761Y-94082642D01*
X146156148Y-94087746D01*
X146191760Y-94089316D01*
X146225208Y-94089896D01*
X146238437Y-94089896D01*
X146238437Y-94103125D01*
X146225208Y-94473542D01*
X146450104Y-94473542D01*
X146450104Y-93521042D01*
X146436875Y-93825312D01*
X146436875Y-93521042D01*
X145669583Y-93521042D01*
X145476678Y-93528461D01*
X145441889Y-93527142D01*
X145417520Y-93527178D01*
X145393359Y-93527897D01*
X145369526Y-93529441D01*
X145346140Y-93531954D01*
X145333455Y-93533969D01*
X145325625Y-93534271D01*
X145331559Y-93534271D01*
X145323322Y-93535579D01*
X145301193Y-93540458D01*
X145279872Y-93546734D01*
X145259479Y-93554551D01*
X145235360Y-93566309D01*
X145213179Y-93579710D01*
X145192917Y-93594625D01*
X145174555Y-93610924D01*
X145158072Y-93628477D01*
X145143449Y-93647156D01*
X145130668Y-93666830D01*
X145119707Y-93687370D01*
X145110547Y-93708646D01*
X145103170Y-93730528D01*
X145097555Y-93752888D01*
X145093682Y-93775595D01*
X145092742Y-93785625D01*
X145091533Y-93798520D01*
X145091087Y-93821533D01*
X145092326Y-93844504D01*
X145095229Y-93867305D01*
X145099777Y-93889805D01*
X145105950Y-93911875D01*
X145113729Y-93933386D01*
X145123095Y-93954207D01*
X145134027Y-93974209D01*
X145146506Y-93993263D01*
X145160513Y-94011239D01*
X145176027Y-94028007D01*
X145193030Y-94043438D01*
X145211502Y-94057401D01*
X145231423Y-94069769D01*
X145252774Y-94080411D01*
X145275535Y-94089196D01*
X145299687Y-94095997D01*
X145325209Y-94100683D01*
X145352083Y-94103125D01*
X145091334Y-94481210D01*
X145087500Y-94473542D01*
X145074271Y-94500000D01*
X144941979Y-94500000D01*
X144941979Y-93851771D01*
X145074271Y-93851771D01*
X145087500Y-93851771D01*
X145087500Y-93785625D01*
X145074271Y-93851771D01*
X144941979Y-93851771D01*
X144941979Y-93547500D01*
X144928750Y-93851771D01*
X144928750Y-93547500D01*
X144730312Y-93560729D01*
X144730312Y-93547500D01*
X144717083Y-93851771D01*
X144717083Y-94500000D01*
X144598021Y-94500000D01*
X144598021Y-94275104D01*
X143857187Y-94275104D01*
X143618403Y-94284655D01*
X143618247Y-94284640D01*
X143595400Y-94281556D01*
X143571541Y-94277415D01*
X143547541Y-94272136D01*
X143524276Y-94265641D01*
X143502618Y-94257850D01*
X143492664Y-94253444D01*
X143483440Y-94248685D01*
X143475054Y-94243562D01*
X143467615Y-94238066D01*
X143461233Y-94232187D01*
X143460312Y-94231079D01*
X143460312Y-94235417D01*
X143447083Y-94235417D01*
X143451516Y-94217685D01*
X143452077Y-94219240D01*
X143456018Y-94225915D01*
X143460312Y-94231079D01*
X143460312Y-94182500D01*
X143451516Y-94217685D01*
X143449520Y-94212152D01*
X143448457Y-94204641D01*
X143448996Y-94196698D01*
X143451247Y-94188312D01*
X143455318Y-94179474D01*
X143461320Y-94170173D01*
X143469361Y-94160401D01*
X143479550Y-94150146D01*
X143491996Y-94139399D01*
X143497507Y-94135295D01*
X143503370Y-94131578D01*
X143507061Y-94129583D01*
X143981072Y-94129583D01*
X144030443Y-94132626D01*
X144085168Y-94134742D01*
X144139933Y-94135459D01*
X144194108Y-94134317D01*
X144247065Y-94130855D01*
X144257481Y-94129583D01*
X144346666Y-94129583D01*
X144346666Y-94116354D01*
X144340541Y-94116354D01*
X144298176Y-94124614D01*
X144257481Y-94129583D01*
X143981072Y-94129583D01*
X143923626Y-94126042D01*
X143824510Y-94119390D01*
X143779412Y-94117190D01*
X143756958Y-94116735D01*
X143764583Y-94116354D01*
X144340541Y-94116354D01*
X144346811Y-94115132D01*
X144370005Y-94109032D01*
X144392343Y-94101949D01*
X144413748Y-94093826D01*
X144434142Y-94084605D01*
X144453445Y-94074228D01*
X144471580Y-94062638D01*
X144488467Y-94049778D01*
X144504028Y-94035590D01*
X144517834Y-94020847D01*
X144530375Y-94005543D01*
X144541665Y-93989731D01*
X144551717Y-93973465D01*
X144560545Y-93956800D01*
X144568162Y-93939790D01*
X144574583Y-93922489D01*
X144579821Y-93904951D01*
X144583890Y-93887231D01*
X144586803Y-93869381D01*
X144588575Y-93851457D01*
X144589219Y-93833512D01*
X144588748Y-93815602D01*
X144587177Y-93797779D01*
X144584519Y-93780098D01*
X144580788Y-93762613D01*
X144575998Y-93745378D01*
X144570162Y-93728447D01*
X144563294Y-93711876D01*
X144555408Y-93695716D01*
X144546517Y-93680024D01*
X144536636Y-93664852D01*
X144525778Y-93650255D01*
X144513956Y-93636288D01*
X144501185Y-93623003D01*
X144487478Y-93610456D01*
X144472849Y-93598701D01*
X144457312Y-93587791D01*
X144440880Y-93577781D01*
X144423567Y-93568725D01*
X144405387Y-93560677D01*
X144386354Y-93553691D01*
X144363197Y-93546826D01*
X144339496Y-93541276D01*
X144315321Y-93536921D01*
X144290741Y-93533640D01*
X144265825Y-93531313D01*
X144240644Y-93529821D01*
X144215267Y-93529041D01*
X144189762Y-93528855D01*
X143989479Y-93534271D01*
X143248646Y-93534271D01*
X143245185Y-93543576D01*
X143244007Y-93547500D01*
X143241853Y-93554673D01*
X143238750Y-93567274D01*
X143235981Y-93581095D01*
X143233648Y-93595849D01*
X143231852Y-93611251D01*
X143230698Y-93627014D01*
X143230287Y-93642852D01*
X142953458Y-93642852D01*
X142938652Y-93632304D01*
X142909506Y-93614793D01*
X142878229Y-93599146D01*
X142855648Y-93589792D01*
X142832700Y-93581950D01*
X142809422Y-93575494D01*
X142785855Y-93570300D01*
X142762036Y-93566243D01*
X142738005Y-93563196D01*
X142713801Y-93561034D01*
X142708500Y-93560729D01*
X142693021Y-93560729D01*
X142695919Y-93560004D01*
X142708500Y-93560729D01*
X142745937Y-93560729D01*
X142745937Y-93547500D01*
X142695919Y-93560004D01*
X142693021Y-93559838D01*
X142693021Y-93547500D01*
X142071250Y-93547500D01*
X141793438Y-93560729D01*
X141793438Y-93547500D01*
X141791784Y-93573958D01*
X141780208Y-93759166D01*
X141219061Y-93759166D01*
X141237145Y-93724748D01*
X141256892Y-93683950D01*
X141274781Y-93643002D01*
X141290555Y-93601922D01*
X141299654Y-93573958D01*
X141317187Y-93573958D01*
X141312696Y-93569369D01*
X141307590Y-93565145D01*
X141303441Y-93562320D01*
X141299654Y-93573958D01*
X141089422Y-93573958D01*
X141083415Y-93574329D01*
X140944786Y-93785625D01*
X140642500Y-94301562D01*
X140349474Y-93785625D01*
X140214007Y-93574329D01*
X140207652Y-93573958D01*
X141065833Y-93573958D01*
X141089422Y-93573958D01*
X141301236Y-93560897D01*
X141301910Y-93561278D01*
X141303441Y-93562320D01*
X141303958Y-93560729D01*
X141301236Y-93560897D01*
X141295695Y-93557763D01*
X141288984Y-93554591D01*
X141281818Y-93551757D01*
X141274236Y-93549253D01*
X141266279Y-93547072D01*
X141249395Y-93543655D01*
X141231483Y-93541449D01*
X141212863Y-93540399D01*
X141193852Y-93540452D01*
X141174767Y-93541552D01*
X141155928Y-93543644D01*
X141137651Y-93546673D01*
X141133973Y-93547500D01*
X141120254Y-93550585D01*
X141104056Y-93555324D01*
X141089375Y-93560836D01*
X141076528Y-93567066D01*
X141070892Y-93570433D01*
X141065833Y-93573958D01*
X140207652Y-93573958D01*
X139981042Y-93560729D01*
X140219167Y-93560729D01*
X140219167Y-93547500D01*
X139981042Y-93560729D01*
X139240209Y-93560729D01*
X139240209Y-91522974D01*
X141352364Y-91522974D01*
X141352642Y-91560280D01*
X141353864Y-91598030D01*
X141358220Y-91673684D01*
X141363601Y-91747575D01*
X141368173Y-91817342D01*
X141369583Y-91849942D01*
X141370104Y-91880625D01*
X141370104Y-93150625D01*
X141766979Y-93150625D01*
X141370104Y-93163854D01*
X142666562Y-93163854D01*
X142666562Y-93150625D01*
X143552917Y-93150625D01*
X144730312Y-93150625D01*
X144938739Y-93163512D01*
X144958180Y-93163854D01*
X144969729Y-93164057D01*
X144999794Y-93163656D01*
X145028329Y-93162094D01*
X145054726Y-93159158D01*
X145078380Y-93154636D01*
X145088989Y-93151714D01*
X145098684Y-93148314D01*
X145107390Y-93144412D01*
X145115032Y-93139980D01*
X145118399Y-93137396D01*
X145121533Y-93134991D01*
X145126817Y-93129419D01*
X145127187Y-93128896D01*
X145130656Y-93124000D01*
X145134088Y-93117993D01*
X145137130Y-93111434D01*
X145139802Y-93104360D01*
X145144111Y-93088815D01*
X145147164Y-93071650D01*
X145149111Y-93053160D01*
X145150101Y-93033639D01*
X145150286Y-93013381D01*
X145149814Y-92992679D01*
X145140416Y-92846354D01*
X145140416Y-90094688D01*
X145140565Y-90086569D01*
X145140957Y-90077772D01*
X145142150Y-90058576D01*
X145143348Y-90037964D01*
X145143747Y-90027397D01*
X145143906Y-90016801D01*
X145143743Y-90006282D01*
X145143177Y-89995950D01*
X145142129Y-89985912D01*
X145140517Y-89976276D01*
X145138260Y-89967150D01*
X145136865Y-89962813D01*
X145135279Y-89958643D01*
X145133491Y-89954655D01*
X145131491Y-89950862D01*
X145129270Y-89947277D01*
X145127187Y-89944422D01*
X145126817Y-89943915D01*
X145123293Y-89939991D01*
X145119263Y-89936441D01*
X145118552Y-89935938D01*
X145127187Y-89935938D01*
X145118059Y-89935588D01*
X145114757Y-89933248D01*
X145109807Y-89930397D01*
X145104442Y-89927871D01*
X145098694Y-89925653D01*
X145092594Y-89923728D01*
X145086173Y-89922078D01*
X145072487Y-89919540D01*
X145057884Y-89917910D01*
X145042609Y-89917055D01*
X145026909Y-89916846D01*
X145011029Y-89917152D01*
X144995216Y-89917841D01*
X144964775Y-89919847D01*
X144937553Y-89921819D01*
X144915521Y-89922708D01*
X144781783Y-89922708D01*
X144475841Y-89910991D01*
X144390949Y-89912458D01*
X144307117Y-89916944D01*
X144227604Y-89924780D01*
X144227604Y-89922708D01*
X144207615Y-89927706D01*
X144144834Y-89937366D01*
X144067483Y-89954502D01*
X143993392Y-89977055D01*
X143957740Y-89990549D01*
X143923110Y-90005622D01*
X143889569Y-90022349D01*
X143857187Y-90040805D01*
X143820144Y-90065359D01*
X143785822Y-90092157D01*
X143754198Y-90121042D01*
X143725250Y-90151858D01*
X143698957Y-90184452D01*
X143675294Y-90218666D01*
X143654240Y-90254345D01*
X143635773Y-90291334D01*
X143619869Y-90329477D01*
X143606507Y-90368619D01*
X143595664Y-90408604D01*
X143587318Y-90449277D01*
X143581445Y-90490482D01*
X143579375Y-90515648D01*
X143579375Y-90491563D01*
X143566146Y-90531250D01*
X143578092Y-90531250D01*
X143578025Y-90532062D01*
X143577683Y-90546480D01*
X143579375Y-90531250D01*
X143579375Y-90625916D01*
X143581594Y-90650313D01*
X143582248Y-90657508D01*
X143588410Y-90699040D01*
X143596911Y-90740169D01*
X143607729Y-90780742D01*
X143620842Y-90820603D01*
X143636227Y-90859595D01*
X143653861Y-90897564D01*
X143673723Y-90934354D01*
X143695790Y-90969810D01*
X143720038Y-91003775D01*
X143746447Y-91036094D01*
X143774993Y-91066612D01*
X143805655Y-91095173D01*
X143838408Y-91121622D01*
X143873232Y-91145803D01*
X143910104Y-91167560D01*
X143936749Y-91181108D01*
X143964154Y-91193394D01*
X144021066Y-91214396D01*
X144080476Y-91231002D01*
X144124977Y-91240147D01*
X144148229Y-91232396D01*
X144148229Y-91244544D01*
X144155734Y-91245625D01*
X144205346Y-91252774D01*
X144239684Y-91255978D01*
X144426042Y-91245625D01*
X144902291Y-91245625D01*
X144902291Y-91246083D01*
X144533272Y-91258854D01*
X144270855Y-91258854D01*
X144270082Y-91258814D01*
X144239684Y-91255978D01*
X144187917Y-91258854D01*
X144270855Y-91258854D01*
X144335869Y-91262206D01*
X144402345Y-91263385D01*
X144533272Y-91258854D01*
X144902291Y-91258854D01*
X144902291Y-91246083D01*
X144915521Y-91245625D01*
X144902579Y-91491506D01*
X144899526Y-91499085D01*
X144892582Y-91514426D01*
X144876564Y-91545101D01*
X144857979Y-91575724D01*
X144837158Y-91606246D01*
X144814430Y-91636619D01*
X144790126Y-91666793D01*
X144764574Y-91696719D01*
X144738106Y-91726348D01*
X144717557Y-91748333D01*
X144683738Y-91784517D01*
X144629660Y-91840906D01*
X144578512Y-91895122D01*
X144554862Y-91921292D01*
X144532933Y-91946771D01*
X143893607Y-92714062D01*
X143850083Y-92764986D01*
X143805046Y-92815985D01*
X143759387Y-92867305D01*
X143713995Y-92919195D01*
X143669761Y-92971902D01*
X143648357Y-92998639D01*
X143627577Y-93025673D01*
X143607531Y-93053035D01*
X143588332Y-93080755D01*
X143570090Y-93108865D01*
X143552917Y-93137396D01*
X143552917Y-93150625D01*
X142666562Y-93150625D01*
X142653333Y-93150625D01*
X142270018Y-92581771D01*
X141396563Y-91351459D01*
X141386588Y-91379271D01*
X141383333Y-91391913D01*
X141383333Y-91325000D01*
X141373141Y-91353442D01*
X141365266Y-91384098D01*
X141359481Y-91416675D01*
X141355554Y-91450877D01*
X141353259Y-91486408D01*
X141352364Y-91522974D01*
X139240209Y-91522974D01*
X139240209Y-90055000D01*
X141370104Y-90055000D01*
X141379391Y-90372500D01*
X141545787Y-90623854D01*
X141920120Y-91153021D01*
X143103125Y-92819896D01*
X143116354Y-92819896D01*
X144015937Y-91748333D01*
X143882824Y-91701370D01*
X143818348Y-91676692D01*
X143755408Y-91650785D01*
X143694117Y-91623327D01*
X143634589Y-91593995D01*
X143576934Y-91562466D01*
X143521266Y-91528417D01*
X143467697Y-91491525D01*
X143441735Y-91471912D01*
X143416339Y-91451467D01*
X143391525Y-91430150D01*
X143367306Y-91407921D01*
X143343696Y-91384739D01*
X143320709Y-91360564D01*
X143298360Y-91335355D01*
X143276661Y-91309072D01*
X143255628Y-91281675D01*
X143235275Y-91253123D01*
X143230320Y-91245625D01*
X144108541Y-91245625D01*
X144148229Y-91245625D01*
X144148229Y-91244544D01*
X144142024Y-91243649D01*
X144124977Y-91240147D01*
X144108541Y-91245625D01*
X143230320Y-91245625D01*
X143215615Y-91223376D01*
X143196662Y-91192394D01*
X143178432Y-91160136D01*
X143160936Y-91126562D01*
X143132538Y-91064697D01*
X143108172Y-91000979D01*
X143087787Y-90935648D01*
X143071334Y-90868940D01*
X143058761Y-90801093D01*
X143050019Y-90732345D01*
X143048883Y-90716458D01*
X143036979Y-90716458D01*
X143044885Y-90653208D01*
X143045057Y-90662933D01*
X143048883Y-90716458D01*
X143050208Y-90716458D01*
X143050208Y-90650313D01*
X143566146Y-90650313D01*
X143579375Y-90650313D01*
X143579375Y-90625916D01*
X143578449Y-90615731D01*
X143577033Y-90573864D01*
X143577683Y-90546480D01*
X143570555Y-90610625D01*
X143566146Y-90650313D01*
X143050208Y-90650313D01*
X143050208Y-90610625D01*
X143044885Y-90653208D01*
X143043825Y-90593095D01*
X143044600Y-90570937D01*
X143050208Y-90570937D01*
X143050208Y-90477769D01*
X143052352Y-90453090D01*
X143059853Y-90398958D01*
X143063437Y-90398958D01*
X143063437Y-90375909D01*
X143075196Y-90314231D01*
X143091862Y-90245825D01*
X143111957Y-90178418D01*
X143135430Y-90112248D01*
X143162231Y-90047552D01*
X143192311Y-89984568D01*
X143225618Y-89923533D01*
X143262103Y-89864686D01*
X143301715Y-89808263D01*
X143344404Y-89754502D01*
X143390120Y-89703640D01*
X143438813Y-89655916D01*
X143490432Y-89611567D01*
X143544928Y-89570830D01*
X143602249Y-89533942D01*
X143662346Y-89501143D01*
X143725169Y-89472668D01*
X143790666Y-89448756D01*
X143858789Y-89429644D01*
X143929486Y-89415570D01*
X144002708Y-89406771D01*
X144002708Y-89393542D01*
X141370104Y-89393542D01*
X141370104Y-90055000D01*
X139240209Y-90055000D01*
X139240209Y-87978021D01*
X147177708Y-87978021D01*
X147177708Y-95915520D01*
X139240209Y-95915520D01*
D11*
X81692857Y-121714285D02*
X80964285Y-121714285D01*
X80878571Y-121761904D01*
X80835714Y-121809523D01*
X80792857Y-121904761D01*
X80792857Y-122047619D01*
X80835714Y-122142857D01*
X81135714Y-121714285D02*
X81092857Y-121809523D01*
X81092857Y-122000000D01*
X81135714Y-122095238D01*
X81178571Y-122142857D01*
X81264285Y-122190476D01*
X81521428Y-122190476D01*
X81607142Y-122142857D01*
X81650000Y-122095238D01*
X81692857Y-122000000D01*
X81692857Y-121809523D01*
X81650000Y-121714285D01*
X81092857Y-121238095D02*
X81692857Y-121238095D01*
X81992857Y-121238095D02*
X81950000Y-121285714D01*
X81907142Y-121238095D01*
X81950000Y-121190476D01*
X81992857Y-121238095D01*
X81907142Y-121238095D01*
X81692857Y-120904761D02*
X81692857Y-120523809D01*
X81992857Y-120761904D02*
X81221428Y-120761904D01*
X81135714Y-120714285D01*
X81092857Y-120619047D01*
X81092857Y-120523809D01*
X81092857Y-120190476D02*
X81992857Y-120190476D01*
X81092857Y-119761904D02*
X81564285Y-119761904D01*
X81650000Y-119809523D01*
X81692857Y-119904761D01*
X81692857Y-120047619D01*
X81650000Y-120142857D01*
X81607142Y-120190476D01*
X81692857Y-118857142D02*
X81092857Y-118857142D01*
X81692857Y-119285714D02*
X81221428Y-119285714D01*
X81135714Y-119238095D01*
X81092857Y-119142857D01*
X81092857Y-119000000D01*
X81135714Y-118904761D01*
X81178571Y-118857142D01*
X81092857Y-118380952D02*
X81992857Y-118380952D01*
X81650000Y-118380952D02*
X81692857Y-118285714D01*
X81692857Y-118095238D01*
X81650000Y-118000000D01*
X81607142Y-117952380D01*
X81521428Y-117904761D01*
X81264285Y-117904761D01*
X81178571Y-117952380D01*
X81135714Y-118000000D01*
X81092857Y-118095238D01*
X81092857Y-118285714D01*
X81135714Y-118380952D01*
X81178571Y-117476190D02*
X81135714Y-117428571D01*
X81092857Y-117476190D01*
X81135714Y-117523809D01*
X81178571Y-117476190D01*
X81092857Y-117476190D01*
X81135714Y-116571428D02*
X81092857Y-116666666D01*
X81092857Y-116857142D01*
X81135714Y-116952380D01*
X81178571Y-117000000D01*
X81264285Y-117047619D01*
X81521428Y-117047619D01*
X81607142Y-117000000D01*
X81650000Y-116952380D01*
X81692857Y-116857142D01*
X81692857Y-116666666D01*
X81650000Y-116571428D01*
X81092857Y-116000000D02*
X81135714Y-116095238D01*
X81178571Y-116142857D01*
X81264285Y-116190476D01*
X81521428Y-116190476D01*
X81607142Y-116142857D01*
X81650000Y-116095238D01*
X81692857Y-116000000D01*
X81692857Y-115857142D01*
X81650000Y-115761904D01*
X81607142Y-115714285D01*
X81521428Y-115666666D01*
X81264285Y-115666666D01*
X81178571Y-115714285D01*
X81135714Y-115761904D01*
X81092857Y-115857142D01*
X81092857Y-116000000D01*
X81092857Y-115238095D02*
X81692857Y-115238095D01*
X81607142Y-115238095D02*
X81650000Y-115190476D01*
X81692857Y-115095238D01*
X81692857Y-114952380D01*
X81650000Y-114857142D01*
X81564285Y-114809523D01*
X81092857Y-114809523D01*
X81564285Y-114809523D02*
X81650000Y-114761904D01*
X81692857Y-114666666D01*
X81692857Y-114523809D01*
X81650000Y-114428571D01*
X81564285Y-114380952D01*
X81092857Y-114380952D01*
X82035714Y-113190476D02*
X80878571Y-114047619D01*
X81092857Y-112952380D02*
X81692857Y-112428571D01*
X81692857Y-112952380D02*
X81092857Y-112428571D01*
X81692857Y-111619047D02*
X81092857Y-111619047D01*
X81692857Y-112047619D02*
X81221428Y-112047619D01*
X81135714Y-112000000D01*
X81092857Y-111904761D01*
X81092857Y-111761904D01*
X81135714Y-111666666D01*
X81178571Y-111619047D01*
X81992857Y-111238095D02*
X81992857Y-110571428D01*
X81092857Y-111000000D01*
X81692857Y-110285714D02*
X81092857Y-110095238D01*
X81521428Y-109904761D01*
X81092857Y-109714285D01*
X81692857Y-109523809D01*
X81092857Y-109000000D02*
X81135714Y-109095238D01*
X81178571Y-109142857D01*
X81264285Y-109190476D01*
X81521428Y-109190476D01*
X81607142Y-109142857D01*
X81650000Y-109095238D01*
X81692857Y-109000000D01*
X81692857Y-108857142D01*
X81650000Y-108761904D01*
X81607142Y-108714285D01*
X81521428Y-108666666D01*
X81264285Y-108666666D01*
X81178571Y-108714285D01*
X81135714Y-108761904D01*
X81092857Y-108857142D01*
X81092857Y-109000000D01*
X81692857Y-108238095D02*
X81092857Y-108238095D01*
X81607142Y-108238095D02*
X81650000Y-108190476D01*
X81692857Y-108095238D01*
X81692857Y-107952380D01*
X81650000Y-107857142D01*
X81564285Y-107809523D01*
X81092857Y-107809523D01*
X81692857Y-106904761D02*
X80964285Y-106904761D01*
X80878571Y-106952380D01*
X80835714Y-107000000D01*
X80792857Y-107095238D01*
X80792857Y-107238095D01*
X80835714Y-107333333D01*
X81135714Y-106904761D02*
X81092857Y-107000000D01*
X81092857Y-107190476D01*
X81135714Y-107285714D01*
X81178571Y-107333333D01*
X81264285Y-107380952D01*
X81521428Y-107380952D01*
X81607142Y-107333333D01*
X81650000Y-107285714D01*
X81692857Y-107190476D01*
X81692857Y-107000000D01*
X81650000Y-106904761D01*
X82035714Y-105714285D02*
X80878571Y-106571428D01*
X81092857Y-105380952D02*
X81992857Y-105380952D01*
X81650000Y-105380952D02*
X81692857Y-105285714D01*
X81692857Y-105095238D01*
X81650000Y-105000000D01*
X81607142Y-104952380D01*
X81521428Y-104904761D01*
X81264285Y-104904761D01*
X81178571Y-104952380D01*
X81135714Y-105000000D01*
X81092857Y-105095238D01*
X81092857Y-105285714D01*
X81135714Y-105380952D01*
X81092857Y-104333333D02*
X81135714Y-104428571D01*
X81221428Y-104476190D01*
X81992857Y-104476190D01*
X81092857Y-103523809D02*
X81992857Y-103523809D01*
X81135714Y-103523809D02*
X81092857Y-103619047D01*
X81092857Y-103809523D01*
X81135714Y-103904761D01*
X81178571Y-103952380D01*
X81264285Y-104000000D01*
X81521428Y-104000000D01*
X81607142Y-103952380D01*
X81650000Y-103904761D01*
X81692857Y-103809523D01*
X81692857Y-103619047D01*
X81650000Y-103523809D01*
X81135714Y-102619047D02*
X81092857Y-102714285D01*
X81092857Y-102904761D01*
X81135714Y-103000000D01*
X81178571Y-103047619D01*
X81264285Y-103095238D01*
X81521428Y-103095238D01*
X81607142Y-103047619D01*
X81650000Y-103000000D01*
X81692857Y-102904761D01*
X81692857Y-102714285D01*
X81650000Y-102619047D01*
X81007142Y-102428571D02*
X81007142Y-101666666D01*
X81092857Y-101428571D02*
X81992857Y-101428571D01*
X81092857Y-101000000D02*
X81564285Y-101000000D01*
X81650000Y-101047619D01*
X81692857Y-101142857D01*
X81692857Y-101285714D01*
X81650000Y-101380952D01*
X81607142Y-101428571D01*
X81092857Y-100095238D02*
X81564285Y-100095238D01*
X81650000Y-100142857D01*
X81692857Y-100238095D01*
X81692857Y-100428571D01*
X81650000Y-100523809D01*
X81135714Y-100095238D02*
X81092857Y-100190476D01*
X81092857Y-100428571D01*
X81135714Y-100523809D01*
X81221428Y-100571428D01*
X81307142Y-100571428D01*
X81392857Y-100523809D01*
X81435714Y-100428571D01*
X81435714Y-100190476D01*
X81478571Y-100095238D01*
X81092857Y-99619047D02*
X81692857Y-99619047D01*
X81521428Y-99619047D02*
X81607142Y-99571428D01*
X81650000Y-99523809D01*
X81692857Y-99428571D01*
X81692857Y-99333333D01*
X81092857Y-98571428D02*
X81992857Y-98571428D01*
X81135714Y-98571428D02*
X81092857Y-98666666D01*
X81092857Y-98857142D01*
X81135714Y-98952380D01*
X81178571Y-99000000D01*
X81264285Y-99047619D01*
X81521428Y-99047619D01*
X81607142Y-99000000D01*
X81650000Y-98952380D01*
X81692857Y-98857142D01*
X81692857Y-98666666D01*
X81650000Y-98571428D01*
X81692857Y-98190476D02*
X81092857Y-98000000D01*
X81521428Y-97809523D01*
X81092857Y-97619047D01*
X81692857Y-97428571D01*
X81092857Y-96619047D02*
X81564285Y-96619047D01*
X81650000Y-96666666D01*
X81692857Y-96761904D01*
X81692857Y-96952380D01*
X81650000Y-97047619D01*
X81135714Y-96619047D02*
X81092857Y-96714285D01*
X81092857Y-96952380D01*
X81135714Y-97047619D01*
X81221428Y-97095238D01*
X81307142Y-97095238D01*
X81392857Y-97047619D01*
X81435714Y-96952380D01*
X81435714Y-96714285D01*
X81478571Y-96619047D01*
X81092857Y-96142857D02*
X81692857Y-96142857D01*
X81521428Y-96142857D02*
X81607142Y-96095238D01*
X81650000Y-96047619D01*
X81692857Y-95952380D01*
X81692857Y-95857142D01*
X81135714Y-95142857D02*
X81092857Y-95238095D01*
X81092857Y-95428571D01*
X81135714Y-95523809D01*
X81221428Y-95571428D01*
X81564285Y-95571428D01*
X81650000Y-95523809D01*
X81692857Y-95428571D01*
X81692857Y-95238095D01*
X81650000Y-95142857D01*
X81564285Y-95095238D01*
X81478571Y-95095238D01*
X81392857Y-95571428D01*
X81007142Y-94904761D02*
X81007142Y-94142857D01*
X81092857Y-93904761D02*
X81692857Y-93904761D01*
X81521428Y-93904761D02*
X81607142Y-93857142D01*
X81650000Y-93809523D01*
X81692857Y-93714285D01*
X81692857Y-93619047D01*
X81092857Y-93285714D02*
X81692857Y-93285714D01*
X81992857Y-93285714D02*
X81950000Y-93333333D01*
X81907142Y-93285714D01*
X81950000Y-93238095D01*
X81992857Y-93285714D01*
X81907142Y-93285714D01*
X81135714Y-92857142D02*
X81092857Y-92761904D01*
X81092857Y-92571428D01*
X81135714Y-92476190D01*
X81221428Y-92428571D01*
X81264285Y-92428571D01*
X81350000Y-92476190D01*
X81392857Y-92571428D01*
X81392857Y-92714285D01*
X81435714Y-92809523D01*
X81521428Y-92857142D01*
X81564285Y-92857142D01*
X81650000Y-92809523D01*
X81692857Y-92714285D01*
X81692857Y-92571428D01*
X81650000Y-92476190D01*
X81135714Y-91571428D02*
X81092857Y-91666666D01*
X81092857Y-91857142D01*
X81135714Y-91952380D01*
X81178571Y-92000000D01*
X81264285Y-92047619D01*
X81521428Y-92047619D01*
X81607142Y-92000000D01*
X81650000Y-91952380D01*
X81692857Y-91857142D01*
X81692857Y-91666666D01*
X81650000Y-91571428D01*
X81692857Y-91238095D02*
X81092857Y-91000000D01*
X81692857Y-90761904D01*
D12*
X135600000Y-99531071D02*
X135561904Y-99473928D01*
X135561904Y-99388214D01*
X135600000Y-99302500D01*
X135676190Y-99245357D01*
X135752380Y-99216785D01*
X135904761Y-99188214D01*
X136019047Y-99188214D01*
X136171428Y-99216785D01*
X136247619Y-99245357D01*
X136323809Y-99302500D01*
X136361904Y-99388214D01*
X136361904Y-99445357D01*
X136323809Y-99531071D01*
X136285714Y-99559642D01*
X136019047Y-99559642D01*
X136019047Y-99445357D01*
X136361904Y-99816785D02*
X135561904Y-99816785D01*
X136361904Y-100159642D01*
X135561904Y-100159642D01*
X136361904Y-100445357D02*
X135561904Y-100445357D01*
X135561904Y-100588214D01*
X135600000Y-100673928D01*
X135676190Y-100731071D01*
X135752380Y-100759642D01*
X135904761Y-100788214D01*
X136019047Y-100788214D01*
X136171428Y-100759642D01*
X136247619Y-100731071D01*
X136323809Y-100673928D01*
X136361904Y-100588214D01*
X136361904Y-100445357D01*
X138061904Y-99045357D02*
X138061904Y-99416785D01*
X138366666Y-99216785D01*
X138366666Y-99302500D01*
X138404761Y-99359642D01*
X138442857Y-99388214D01*
X138519047Y-99416785D01*
X138709523Y-99416785D01*
X138785714Y-99388214D01*
X138823809Y-99359642D01*
X138861904Y-99302500D01*
X138861904Y-99131071D01*
X138823809Y-99073928D01*
X138785714Y-99045357D01*
X138785714Y-99673928D02*
X138823809Y-99702500D01*
X138861904Y-99673928D01*
X138823809Y-99645357D01*
X138785714Y-99673928D01*
X138861904Y-99673928D01*
X138061904Y-99902500D02*
X138061904Y-100273928D01*
X138366666Y-100073928D01*
X138366666Y-100159642D01*
X138404761Y-100216785D01*
X138442857Y-100245357D01*
X138519047Y-100273928D01*
X138709523Y-100273928D01*
X138785714Y-100245357D01*
X138823809Y-100216785D01*
X138861904Y-100159642D01*
X138861904Y-99988214D01*
X138823809Y-99931071D01*
X138785714Y-99902500D01*
X138061904Y-100445357D02*
X138861904Y-100645357D01*
X138061904Y-100845357D01*
X141323809Y-98559642D02*
X141361904Y-98645357D01*
X141361904Y-98788214D01*
X141323809Y-98845357D01*
X141285714Y-98873928D01*
X141209523Y-98902500D01*
X141133333Y-98902500D01*
X141057142Y-98873928D01*
X141019047Y-98845357D01*
X140980952Y-98788214D01*
X140942857Y-98673928D01*
X140904761Y-98616785D01*
X140866666Y-98588214D01*
X140790476Y-98559642D01*
X140714285Y-98559642D01*
X140638095Y-98588214D01*
X140600000Y-98616785D01*
X140561904Y-98673928D01*
X140561904Y-98816785D01*
X140600000Y-98902500D01*
X140561904Y-99102500D02*
X141361904Y-99245357D01*
X140790476Y-99359642D01*
X141361904Y-99473928D01*
X140561904Y-99616785D01*
X141285714Y-100188214D02*
X141323809Y-100159642D01*
X141361904Y-100073928D01*
X141361904Y-100016785D01*
X141323809Y-99931071D01*
X141247619Y-99873928D01*
X141171428Y-99845357D01*
X141019047Y-99816785D01*
X140904761Y-99816785D01*
X140752380Y-99845357D01*
X140676190Y-99873928D01*
X140600000Y-99931071D01*
X140561904Y-100016785D01*
X140561904Y-100073928D01*
X140600000Y-100159642D01*
X140638095Y-100188214D01*
X141361904Y-100445357D02*
X140561904Y-100445357D01*
X141361904Y-100788214D02*
X140904761Y-100531071D01*
X140561904Y-100788214D02*
X141019047Y-100445357D01*
X143563809Y-98845357D02*
X143601904Y-98931071D01*
X143601904Y-99073928D01*
X143563809Y-99131071D01*
X143525714Y-99159642D01*
X143449523Y-99188214D01*
X143373333Y-99188214D01*
X143297142Y-99159642D01*
X143259047Y-99131071D01*
X143220952Y-99073928D01*
X143182857Y-98959642D01*
X143144761Y-98902500D01*
X143106666Y-98873928D01*
X143030476Y-98845357D01*
X142954285Y-98845357D01*
X142878095Y-98873928D01*
X142840000Y-98902500D01*
X142801904Y-98959642D01*
X142801904Y-99102500D01*
X142840000Y-99188214D01*
X142801904Y-99388214D02*
X143601904Y-99531071D01*
X143030476Y-99645357D01*
X143601904Y-99759642D01*
X142801904Y-99902500D01*
X143601904Y-100131071D02*
X142801904Y-100131071D01*
X142801904Y-100531071D02*
X142801904Y-100645357D01*
X142840000Y-100702500D01*
X142916190Y-100759642D01*
X143068571Y-100788214D01*
X143335238Y-100788214D01*
X143487619Y-100759642D01*
X143563809Y-100702500D01*
X143601904Y-100645357D01*
X143601904Y-100531071D01*
X143563809Y-100473928D01*
X143487619Y-100416785D01*
X143335238Y-100388214D01*
X143068571Y-100388214D01*
X142916190Y-100416785D01*
X142840000Y-100473928D01*
X142801904Y-100531071D01*
X105100000Y-99554642D02*
X105061904Y-99497500D01*
X105061904Y-99411785D01*
X105100000Y-99326071D01*
X105176190Y-99268928D01*
X105252380Y-99240357D01*
X105404761Y-99211785D01*
X105519047Y-99211785D01*
X105671428Y-99240357D01*
X105747619Y-99268928D01*
X105823809Y-99326071D01*
X105861904Y-99411785D01*
X105861904Y-99468928D01*
X105823809Y-99554642D01*
X105785714Y-99583214D01*
X105519047Y-99583214D01*
X105519047Y-99468928D01*
X105861904Y-99840357D02*
X105061904Y-99840357D01*
X105861904Y-100183214D01*
X105061904Y-100183214D01*
X105861904Y-100468928D02*
X105061904Y-100468928D01*
X105061904Y-100611785D01*
X105100000Y-100697500D01*
X105176190Y-100754642D01*
X105252380Y-100783214D01*
X105404761Y-100811785D01*
X105519047Y-100811785D01*
X105671428Y-100783214D01*
X105747619Y-100754642D01*
X105823809Y-100697500D01*
X105861904Y-100611785D01*
X105861904Y-100468928D01*
X107785714Y-99583214D02*
X107823809Y-99554642D01*
X107861904Y-99468928D01*
X107861904Y-99411785D01*
X107823809Y-99326071D01*
X107747619Y-99268928D01*
X107671428Y-99240357D01*
X107519047Y-99211785D01*
X107404761Y-99211785D01*
X107252380Y-99240357D01*
X107176190Y-99268928D01*
X107100000Y-99326071D01*
X107061904Y-99411785D01*
X107061904Y-99468928D01*
X107100000Y-99554642D01*
X107138095Y-99583214D01*
X107633333Y-99811785D02*
X107633333Y-100097500D01*
X107861904Y-99754642D02*
X107061904Y-99954642D01*
X107861904Y-100154642D01*
X107861904Y-100354642D02*
X107061904Y-100354642D01*
X107861904Y-100697500D01*
X107061904Y-100697500D01*
X107861904Y-101268928D02*
X107861904Y-100983214D01*
X107061904Y-100983214D01*
X109785714Y-99583214D02*
X109823809Y-99554642D01*
X109861904Y-99468928D01*
X109861904Y-99411785D01*
X109823809Y-99326071D01*
X109747619Y-99268928D01*
X109671428Y-99240357D01*
X109519047Y-99211785D01*
X109404761Y-99211785D01*
X109252380Y-99240357D01*
X109176190Y-99268928D01*
X109100000Y-99326071D01*
X109061904Y-99411785D01*
X109061904Y-99468928D01*
X109100000Y-99554642D01*
X109138095Y-99583214D01*
X109633333Y-99811785D02*
X109633333Y-100097500D01*
X109861904Y-99754642D02*
X109061904Y-99954642D01*
X109861904Y-100154642D01*
X109861904Y-100354642D02*
X109061904Y-100354642D01*
X109861904Y-100697500D01*
X109061904Y-100697500D01*
X109861904Y-100983214D02*
X109061904Y-100983214D01*
X109442857Y-100983214D02*
X109442857Y-101326071D01*
X109861904Y-101326071D02*
X109061904Y-101326071D01*
X111061904Y-99154642D02*
X111061904Y-99497500D01*
X111861904Y-99326071D02*
X111061904Y-99326071D01*
X111061904Y-99640357D02*
X111861904Y-100040357D01*
X111061904Y-100040357D02*
X111861904Y-99640357D01*
X113861904Y-99583214D02*
X113480952Y-99383214D01*
X113861904Y-99240357D02*
X113061904Y-99240357D01*
X113061904Y-99468928D01*
X113100000Y-99526071D01*
X113138095Y-99554642D01*
X113214285Y-99583214D01*
X113328571Y-99583214D01*
X113404761Y-99554642D01*
X113442857Y-99526071D01*
X113480952Y-99468928D01*
X113480952Y-99240357D01*
X113061904Y-99783214D02*
X113861904Y-100183214D01*
X113061904Y-100183214D02*
X113861904Y-99783214D01*
X115633333Y-99211785D02*
X115633333Y-99497500D01*
X115861904Y-99154642D02*
X115061904Y-99354642D01*
X115861904Y-99554642D01*
X115861904Y-99754642D02*
X115061904Y-99754642D01*
X115061904Y-99897500D01*
X115100000Y-99983214D01*
X115176190Y-100040357D01*
X115252380Y-100068928D01*
X115404761Y-100097500D01*
X115519047Y-100097500D01*
X115671428Y-100068928D01*
X115747619Y-100040357D01*
X115823809Y-99983214D01*
X115861904Y-99897500D01*
X115861904Y-99754642D01*
X115785714Y-100697500D02*
X115823809Y-100668928D01*
X115861904Y-100583214D01*
X115861904Y-100526071D01*
X115823809Y-100440357D01*
X115747619Y-100383214D01*
X115671428Y-100354642D01*
X115519047Y-100326071D01*
X115404761Y-100326071D01*
X115252380Y-100354642D01*
X115176190Y-100383214D01*
X115100000Y-100440357D01*
X115061904Y-100526071D01*
X115061904Y-100583214D01*
X115100000Y-100668928D01*
X115138095Y-100697500D01*
X113061904Y-86526071D02*
X113061904Y-86240357D01*
X113442857Y-86211785D01*
X113404761Y-86240357D01*
X113366666Y-86297500D01*
X113366666Y-86440357D01*
X113404761Y-86497500D01*
X113442857Y-86526071D01*
X113519047Y-86554642D01*
X113709523Y-86554642D01*
X113785714Y-86526071D01*
X113823809Y-86497500D01*
X113861904Y-86440357D01*
X113861904Y-86297500D01*
X113823809Y-86240357D01*
X113785714Y-86211785D01*
X113061904Y-86726071D02*
X113861904Y-86926071D01*
X113061904Y-87126071D01*
X115061904Y-86154642D02*
X115061904Y-86497500D01*
X115861904Y-86326071D02*
X115061904Y-86326071D01*
X115823809Y-86926071D02*
X115861904Y-86868928D01*
X115861904Y-86754642D01*
X115823809Y-86697500D01*
X115747619Y-86668928D01*
X115442857Y-86668928D01*
X115366666Y-86697500D01*
X115328571Y-86754642D01*
X115328571Y-86868928D01*
X115366666Y-86926071D01*
X115442857Y-86954642D01*
X115519047Y-86954642D01*
X115595238Y-86668928D01*
X115861904Y-87211785D02*
X115328571Y-87211785D01*
X115404761Y-87211785D02*
X115366666Y-87240357D01*
X115328571Y-87297500D01*
X115328571Y-87383214D01*
X115366666Y-87440357D01*
X115442857Y-87468928D01*
X115861904Y-87468928D01*
X115442857Y-87468928D02*
X115366666Y-87497500D01*
X115328571Y-87554642D01*
X115328571Y-87640357D01*
X115366666Y-87697500D01*
X115442857Y-87726071D01*
X115861904Y-87726071D01*
X115328571Y-88011785D02*
X116128571Y-88011785D01*
X115366666Y-88011785D02*
X115328571Y-88068928D01*
X115328571Y-88183214D01*
X115366666Y-88240357D01*
X115404761Y-88268928D01*
X115480952Y-88297500D01*
X115709523Y-88297500D01*
X115785714Y-88268928D01*
X115823809Y-88240357D01*
X115861904Y-88183214D01*
X115861904Y-88068928D01*
X115823809Y-88011785D01*
X117861904Y-86240357D02*
X117061904Y-86240357D01*
X117442857Y-86240357D02*
X117442857Y-86583214D01*
X117861904Y-86583214D02*
X117061904Y-86583214D01*
X117633333Y-86840357D02*
X117633333Y-87126071D01*
X117861904Y-86783214D02*
X117061904Y-86983214D01*
X117861904Y-87183214D01*
X117861904Y-87668928D02*
X117861904Y-87383214D01*
X117061904Y-87383214D01*
X117861904Y-88154642D02*
X117861904Y-87868928D01*
X117061904Y-87868928D01*
X117861904Y-88668928D02*
X117861904Y-88326071D01*
X117861904Y-88497500D02*
X117061904Y-88497500D01*
X117176190Y-88440357D01*
X117252380Y-88383214D01*
X117290476Y-88326071D01*
X119861904Y-86240357D02*
X119061904Y-86240357D01*
X119442857Y-86240357D02*
X119442857Y-86583214D01*
X119861904Y-86583214D02*
X119061904Y-86583214D01*
X119633333Y-86840357D02*
X119633333Y-87126071D01*
X119861904Y-86783214D02*
X119061904Y-86983214D01*
X119861904Y-87183214D01*
X119861904Y-87668928D02*
X119861904Y-87383214D01*
X119061904Y-87383214D01*
X119861904Y-88154642D02*
X119861904Y-87868928D01*
X119061904Y-87868928D01*
X119138095Y-88326071D02*
X119100000Y-88354642D01*
X119061904Y-88411785D01*
X119061904Y-88554642D01*
X119100000Y-88611785D01*
X119138095Y-88640357D01*
X119214285Y-88668928D01*
X119290476Y-88668928D01*
X119404761Y-88640357D01*
X119861904Y-88297500D01*
X119861904Y-88668928D01*
X121861904Y-86240357D02*
X121061904Y-86240357D01*
X121442857Y-86240357D02*
X121442857Y-86583214D01*
X121861904Y-86583214D02*
X121061904Y-86583214D01*
X121633333Y-86840357D02*
X121633333Y-87126071D01*
X121861904Y-86783214D02*
X121061904Y-86983214D01*
X121861904Y-87183214D01*
X121861904Y-87668928D02*
X121861904Y-87383214D01*
X121061904Y-87383214D01*
X121861904Y-88154642D02*
X121861904Y-87868928D01*
X121061904Y-87868928D01*
X121061904Y-88297500D02*
X121061904Y-88668928D01*
X121366666Y-88468928D01*
X121366666Y-88554642D01*
X121404761Y-88611785D01*
X121442857Y-88640357D01*
X121519047Y-88668928D01*
X121709523Y-88668928D01*
X121785714Y-88640357D01*
X121823809Y-88611785D01*
X121861904Y-88554642D01*
X121861904Y-88383214D01*
X121823809Y-88326071D01*
X121785714Y-88297500D01*
X123100000Y-86554642D02*
X123061904Y-86497500D01*
X123061904Y-86411785D01*
X123100000Y-86326071D01*
X123176190Y-86268928D01*
X123252380Y-86240357D01*
X123404761Y-86211785D01*
X123519047Y-86211785D01*
X123671428Y-86240357D01*
X123747619Y-86268928D01*
X123823809Y-86326071D01*
X123861904Y-86411785D01*
X123861904Y-86468928D01*
X123823809Y-86554642D01*
X123785714Y-86583214D01*
X123519047Y-86583214D01*
X123519047Y-86468928D01*
X123861904Y-86840357D02*
X123061904Y-86840357D01*
X123861904Y-87183214D01*
X123061904Y-87183214D01*
X123861904Y-87468928D02*
X123061904Y-87468928D01*
X123061904Y-87611785D01*
X123100000Y-87697500D01*
X123176190Y-87754642D01*
X123252380Y-87783214D01*
X123404761Y-87811785D01*
X123519047Y-87811785D01*
X123671428Y-87783214D01*
X123747619Y-87754642D01*
X123823809Y-87697500D01*
X123861904Y-87611785D01*
X123861904Y-87468928D01*
D13*
X147757142Y-133778571D02*
X147757142Y-132278571D01*
X147300000Y-132278571D01*
X147185714Y-132350000D01*
X147128571Y-132421428D01*
X147071428Y-132564285D01*
X147071428Y-132778571D01*
X147128571Y-132921428D01*
X147185714Y-132992857D01*
X147300000Y-133064285D01*
X147757142Y-133064285D01*
X146557142Y-133778571D02*
X146557142Y-132278571D01*
X146042857Y-133778571D02*
X146042857Y-132992857D01*
X146100000Y-132850000D01*
X146214285Y-132778571D01*
X146385714Y-132778571D01*
X146500000Y-132850000D01*
X146557142Y-132921428D01*
X144957142Y-133778571D02*
X144957142Y-132992857D01*
X145014285Y-132850000D01*
X145128571Y-132778571D01*
X145357142Y-132778571D01*
X145471428Y-132850000D01*
X144957142Y-133707142D02*
X145071428Y-133778571D01*
X145357142Y-133778571D01*
X145471428Y-133707142D01*
X145528571Y-133564285D01*
X145528571Y-133421428D01*
X145471428Y-133278571D01*
X145357142Y-133207142D01*
X145071428Y-133207142D01*
X144957142Y-133135714D01*
X144442857Y-133707142D02*
X144328571Y-133778571D01*
X144100000Y-133778571D01*
X143985714Y-133707142D01*
X143928571Y-133564285D01*
X143928571Y-133492857D01*
X143985714Y-133350000D01*
X144100000Y-133278571D01*
X144271428Y-133278571D01*
X144385714Y-133207142D01*
X144442857Y-133064285D01*
X144442857Y-132992857D01*
X144385714Y-132850000D01*
X144271428Y-132778571D01*
X144100000Y-132778571D01*
X143985714Y-132850000D01*
X142957142Y-133707142D02*
X143071428Y-133778571D01*
X143300000Y-133778571D01*
X143414285Y-133707142D01*
X143471428Y-133564285D01*
X143471428Y-132992857D01*
X143414285Y-132850000D01*
X143300000Y-132778571D01*
X143071428Y-132778571D01*
X142957142Y-132850000D01*
X142900000Y-132992857D01*
X142900000Y-133135714D01*
X143471428Y-133278571D01*
X140785714Y-133635714D02*
X140842857Y-133707142D01*
X141014285Y-133778571D01*
X141128571Y-133778571D01*
X141300000Y-133707142D01*
X141414285Y-133564285D01*
X141471428Y-133421428D01*
X141528571Y-133135714D01*
X141528571Y-132921428D01*
X141471428Y-132635714D01*
X141414285Y-132492857D01*
X141300000Y-132350000D01*
X141128571Y-132278571D01*
X141014285Y-132278571D01*
X140842857Y-132350000D01*
X140785714Y-132421428D01*
X124657142Y-133778571D02*
X124657142Y-132278571D01*
X124200000Y-132278571D01*
X124085714Y-132350000D01*
X124028571Y-132421428D01*
X123971428Y-132564285D01*
X123971428Y-132778571D01*
X124028571Y-132921428D01*
X124085714Y-132992857D01*
X124200000Y-133064285D01*
X124657142Y-133064285D01*
X123457142Y-133778571D02*
X123457142Y-132278571D01*
X122942857Y-133778571D02*
X122942857Y-132992857D01*
X123000000Y-132850000D01*
X123114285Y-132778571D01*
X123285714Y-132778571D01*
X123400000Y-132850000D01*
X123457142Y-132921428D01*
X121857142Y-133778571D02*
X121857142Y-132992857D01*
X121914285Y-132850000D01*
X122028571Y-132778571D01*
X122257142Y-132778571D01*
X122371428Y-132850000D01*
X121857142Y-133707142D02*
X121971428Y-133778571D01*
X122257142Y-133778571D01*
X122371428Y-133707142D01*
X122428571Y-133564285D01*
X122428571Y-133421428D01*
X122371428Y-133278571D01*
X122257142Y-133207142D01*
X121971428Y-133207142D01*
X121857142Y-133135714D01*
X121342857Y-133707142D02*
X121228571Y-133778571D01*
X121000000Y-133778571D01*
X120885714Y-133707142D01*
X120828571Y-133564285D01*
X120828571Y-133492857D01*
X120885714Y-133350000D01*
X121000000Y-133278571D01*
X121171428Y-133278571D01*
X121285714Y-133207142D01*
X121342857Y-133064285D01*
X121342857Y-132992857D01*
X121285714Y-132850000D01*
X121171428Y-132778571D01*
X121000000Y-132778571D01*
X120885714Y-132850000D01*
X119857142Y-133707142D02*
X119971428Y-133778571D01*
X120200000Y-133778571D01*
X120314285Y-133707142D01*
X120371428Y-133564285D01*
X120371428Y-132992857D01*
X120314285Y-132850000D01*
X120200000Y-132778571D01*
X119971428Y-132778571D01*
X119857142Y-132850000D01*
X119800000Y-132992857D01*
X119800000Y-133135714D01*
X120371428Y-133278571D01*
X117971428Y-132992857D02*
X117800000Y-133064285D01*
X117742857Y-133135714D01*
X117685714Y-133278571D01*
X117685714Y-133492857D01*
X117742857Y-133635714D01*
X117800000Y-133707142D01*
X117914285Y-133778571D01*
X118371428Y-133778571D01*
X118371428Y-132278571D01*
X117971428Y-132278571D01*
X117857142Y-132350000D01*
X117800000Y-132421428D01*
X117742857Y-132564285D01*
X117742857Y-132707142D01*
X117800000Y-132850000D01*
X117857142Y-132921428D01*
X117971428Y-132992857D01*
X118371428Y-132992857D01*
X101571428Y-133878571D02*
X101571428Y-132378571D01*
X101114285Y-132378571D01*
X101000000Y-132450000D01*
X100942857Y-132521428D01*
X100885714Y-132664285D01*
X100885714Y-132878571D01*
X100942857Y-133021428D01*
X101000000Y-133092857D01*
X101114285Y-133164285D01*
X101571428Y-133164285D01*
X100371428Y-133878571D02*
X100371428Y-132378571D01*
X99857142Y-133878571D02*
X99857142Y-133092857D01*
X99914285Y-132950000D01*
X100028571Y-132878571D01*
X100200000Y-132878571D01*
X100314285Y-132950000D01*
X100371428Y-133021428D01*
X98771428Y-133878571D02*
X98771428Y-133092857D01*
X98828571Y-132950000D01*
X98942857Y-132878571D01*
X99171428Y-132878571D01*
X99285714Y-132950000D01*
X98771428Y-133807142D02*
X98885714Y-133878571D01*
X99171428Y-133878571D01*
X99285714Y-133807142D01*
X99342857Y-133664285D01*
X99342857Y-133521428D01*
X99285714Y-133378571D01*
X99171428Y-133307142D01*
X98885714Y-133307142D01*
X98771428Y-133235714D01*
X98257142Y-133807142D02*
X98142857Y-133878571D01*
X97914285Y-133878571D01*
X97800000Y-133807142D01*
X97742857Y-133664285D01*
X97742857Y-133592857D01*
X97800000Y-133450000D01*
X97914285Y-133378571D01*
X98085714Y-133378571D01*
X98200000Y-133307142D01*
X98257142Y-133164285D01*
X98257142Y-133092857D01*
X98200000Y-132950000D01*
X98085714Y-132878571D01*
X97914285Y-132878571D01*
X97800000Y-132950000D01*
X96771428Y-133807142D02*
X96885714Y-133878571D01*
X97114285Y-133878571D01*
X97228571Y-133807142D01*
X97285714Y-133664285D01*
X97285714Y-133092857D01*
X97228571Y-132950000D01*
X97114285Y-132878571D01*
X96885714Y-132878571D01*
X96771428Y-132950000D01*
X96714285Y-133092857D01*
X96714285Y-133235714D01*
X97285714Y-133378571D01*
X95342857Y-133450000D02*
X94771428Y-133450000D01*
X95457142Y-133878571D02*
X95057142Y-132378571D01*
X94657142Y-133878571D01*
X89885714Y-126750000D02*
X90028571Y-126678571D01*
X90242857Y-126678571D01*
X90457142Y-126750000D01*
X90600000Y-126892857D01*
X90671428Y-127035714D01*
X90742857Y-127321428D01*
X90742857Y-127535714D01*
X90671428Y-127821428D01*
X90600000Y-127964285D01*
X90457142Y-128107142D01*
X90242857Y-128178571D01*
X90100000Y-128178571D01*
X89885714Y-128107142D01*
X89814285Y-128035714D01*
X89814285Y-127535714D01*
X90100000Y-127535714D01*
X89171428Y-128178571D02*
X89171428Y-127178571D01*
X89171428Y-127464285D02*
X89100000Y-127321428D01*
X89028571Y-127250000D01*
X88885714Y-127178571D01*
X88742857Y-127178571D01*
X88028571Y-128178571D02*
X88171428Y-128107142D01*
X88242857Y-128035714D01*
X88314285Y-127892857D01*
X88314285Y-127464285D01*
X88242857Y-127321428D01*
X88171428Y-127250000D01*
X88028571Y-127178571D01*
X87814285Y-127178571D01*
X87671428Y-127250000D01*
X87600000Y-127321428D01*
X87528571Y-127464285D01*
X87528571Y-127892857D01*
X87600000Y-128035714D01*
X87671428Y-128107142D01*
X87814285Y-128178571D01*
X88028571Y-128178571D01*
X86242857Y-127178571D02*
X86242857Y-128178571D01*
X86885714Y-127178571D02*
X86885714Y-127964285D01*
X86814285Y-128107142D01*
X86671428Y-128178571D01*
X86457142Y-128178571D01*
X86314285Y-128107142D01*
X86242857Y-128035714D01*
X85528571Y-127178571D02*
X85528571Y-128178571D01*
X85528571Y-127321428D02*
X85457142Y-127250000D01*
X85314285Y-127178571D01*
X85100000Y-127178571D01*
X84957142Y-127250000D01*
X84885714Y-127392857D01*
X84885714Y-128178571D01*
X83528571Y-128178571D02*
X83528571Y-126678571D01*
X83528571Y-128107142D02*
X83671428Y-128178571D01*
X83957142Y-128178571D01*
X84100000Y-128107142D01*
X84171428Y-128035714D01*
X84242857Y-127892857D01*
X84242857Y-127464285D01*
X84171428Y-127321428D01*
X84100000Y-127250000D01*
X83957142Y-127178571D01*
X83671428Y-127178571D01*
X83528571Y-127250000D01*
X91842857Y-117178571D02*
X90842857Y-117178571D01*
X91485714Y-118678571D01*
X89557142Y-117178571D02*
X90271428Y-117178571D01*
X90342857Y-117892857D01*
X90271428Y-117821428D01*
X90128571Y-117750000D01*
X89771428Y-117750000D01*
X89628571Y-117821428D01*
X89557142Y-117892857D01*
X89485714Y-118035714D01*
X89485714Y-118392857D01*
X89557142Y-118535714D01*
X89628571Y-118607142D01*
X89771428Y-118678571D01*
X90128571Y-118678571D01*
X90271428Y-118607142D01*
X90342857Y-118535714D01*
X89057142Y-117178571D02*
X88557142Y-118678571D01*
X88057142Y-117178571D01*
X86414285Y-118678571D02*
X86414285Y-117178571D01*
X85914285Y-118250000D01*
X85414285Y-117178571D01*
X85414285Y-118678571D01*
X84771428Y-118250000D02*
X84057142Y-118250000D01*
X84914285Y-118678571D02*
X84414285Y-117178571D01*
X83914285Y-118678571D01*
X83557142Y-117178571D02*
X82557142Y-118678571D01*
X82557142Y-117178571D02*
X83557142Y-118678571D01*
D12*
%TO.C,C17*%
X95957142Y-85107142D02*
X96004761Y-85059523D01*
X96052380Y-84916666D01*
X96052380Y-84821428D01*
X96004761Y-84678571D01*
X95909523Y-84583333D01*
X95814285Y-84535714D01*
X95623809Y-84488095D01*
X95480952Y-84488095D01*
X95290476Y-84535714D01*
X95195238Y-84583333D01*
X95100000Y-84678571D01*
X95052380Y-84821428D01*
X95052380Y-84916666D01*
X95100000Y-85059523D01*
X95147619Y-85107142D01*
X96052380Y-86059523D02*
X96052380Y-85488095D01*
X96052380Y-85773809D02*
X95052380Y-85773809D01*
X95195238Y-85678571D01*
X95290476Y-85583333D01*
X95338095Y-85488095D01*
X95052380Y-86392857D02*
X95052380Y-87059523D01*
X96052380Y-86630952D01*
%TO.C,J3*%
X110933333Y-91902380D02*
X110933333Y-92616666D01*
X110980952Y-92759523D01*
X111076190Y-92854761D01*
X111219047Y-92902380D01*
X111314285Y-92902380D01*
X110552380Y-91902380D02*
X109933333Y-91902380D01*
X110266666Y-92283333D01*
X110123809Y-92283333D01*
X110028571Y-92330952D01*
X109980952Y-92378571D01*
X109933333Y-92473809D01*
X109933333Y-92711904D01*
X109980952Y-92807142D01*
X110028571Y-92854761D01*
X110123809Y-92902380D01*
X110409523Y-92902380D01*
X110504761Y-92854761D01*
X110552380Y-92807142D01*
%TO.C,J2*%
X109833333Y-83002380D02*
X109833333Y-83716666D01*
X109880952Y-83859523D01*
X109976190Y-83954761D01*
X110119047Y-84002380D01*
X110214285Y-84002380D01*
X109404761Y-83097619D02*
X109357142Y-83050000D01*
X109261904Y-83002380D01*
X109023809Y-83002380D01*
X108928571Y-83050000D01*
X108880952Y-83097619D01*
X108833333Y-83192857D01*
X108833333Y-83288095D01*
X108880952Y-83430952D01*
X109452380Y-84002380D01*
X108833333Y-84002380D01*
%TO.C,C101*%
X100619047Y-103357142D02*
X100666666Y-103404761D01*
X100809523Y-103452380D01*
X100904761Y-103452380D01*
X101047619Y-103404761D01*
X101142857Y-103309523D01*
X101190476Y-103214285D01*
X101238095Y-103023809D01*
X101238095Y-102880952D01*
X101190476Y-102690476D01*
X101142857Y-102595238D01*
X101047619Y-102500000D01*
X100904761Y-102452380D01*
X100809523Y-102452380D01*
X100666666Y-102500000D01*
X100619047Y-102547619D01*
X99666666Y-103452380D02*
X100238095Y-103452380D01*
X99952380Y-103452380D02*
X99952380Y-102452380D01*
X100047619Y-102595238D01*
X100142857Y-102690476D01*
X100238095Y-102738095D01*
X99047619Y-102452380D02*
X98952380Y-102452380D01*
X98857142Y-102500000D01*
X98809523Y-102547619D01*
X98761904Y-102642857D01*
X98714285Y-102833333D01*
X98714285Y-103071428D01*
X98761904Y-103261904D01*
X98809523Y-103357142D01*
X98857142Y-103404761D01*
X98952380Y-103452380D01*
X99047619Y-103452380D01*
X99142857Y-103404761D01*
X99190476Y-103357142D01*
X99238095Y-103261904D01*
X99285714Y-103071428D01*
X99285714Y-102833333D01*
X99238095Y-102642857D01*
X99190476Y-102547619D01*
X99142857Y-102500000D01*
X99047619Y-102452380D01*
X97761904Y-103452380D02*
X98333333Y-103452380D01*
X98047619Y-103452380D02*
X98047619Y-102452380D01*
X98142857Y-102595238D01*
X98238095Y-102690476D01*
X98333333Y-102738095D01*
%TO.C,C102*%
X131619047Y-103357142D02*
X131666666Y-103404761D01*
X131809523Y-103452380D01*
X131904761Y-103452380D01*
X132047619Y-103404761D01*
X132142857Y-103309523D01*
X132190476Y-103214285D01*
X132238095Y-103023809D01*
X132238095Y-102880952D01*
X132190476Y-102690476D01*
X132142857Y-102595238D01*
X132047619Y-102500000D01*
X131904761Y-102452380D01*
X131809523Y-102452380D01*
X131666666Y-102500000D01*
X131619047Y-102547619D01*
X130666666Y-103452380D02*
X131238095Y-103452380D01*
X130952380Y-103452380D02*
X130952380Y-102452380D01*
X131047619Y-102595238D01*
X131142857Y-102690476D01*
X131238095Y-102738095D01*
X130047619Y-102452380D02*
X129952380Y-102452380D01*
X129857142Y-102500000D01*
X129809523Y-102547619D01*
X129761904Y-102642857D01*
X129714285Y-102833333D01*
X129714285Y-103071428D01*
X129761904Y-103261904D01*
X129809523Y-103357142D01*
X129857142Y-103404761D01*
X129952380Y-103452380D01*
X130047619Y-103452380D01*
X130142857Y-103404761D01*
X130190476Y-103357142D01*
X130238095Y-103261904D01*
X130285714Y-103071428D01*
X130285714Y-102833333D01*
X130238095Y-102642857D01*
X130190476Y-102547619D01*
X130142857Y-102500000D01*
X130047619Y-102452380D01*
X129333333Y-102547619D02*
X129285714Y-102500000D01*
X129190476Y-102452380D01*
X128952380Y-102452380D01*
X128857142Y-102500000D01*
X128809523Y-102547619D01*
X128761904Y-102642857D01*
X128761904Y-102738095D01*
X128809523Y-102880952D01*
X129380952Y-103452380D01*
X128761904Y-103452380D01*
%TO.C,X3*%
X101809523Y-137952380D02*
X101142857Y-138952380D01*
X101142857Y-137952380D02*
X101809523Y-138952380D01*
X100857142Y-137952380D02*
X100238095Y-137952380D01*
X100571428Y-138333333D01*
X100428571Y-138333333D01*
X100333333Y-138380952D01*
X100285714Y-138428571D01*
X100238095Y-138523809D01*
X100238095Y-138761904D01*
X100285714Y-138857142D01*
X100333333Y-138904761D01*
X100428571Y-138952380D01*
X100714285Y-138952380D01*
X100809523Y-138904761D01*
X100857142Y-138857142D01*
%TO.C,X4*%
X124809523Y-137952380D02*
X124142857Y-138952380D01*
X124142857Y-137952380D02*
X124809523Y-138952380D01*
X123333333Y-138285714D02*
X123333333Y-138952380D01*
X123571428Y-137904761D02*
X123809523Y-138619047D01*
X123190476Y-138619047D01*
%TO.C,R102*%
X133619047Y-123452380D02*
X133952380Y-122976190D01*
X134190476Y-123452380D02*
X134190476Y-122452380D01*
X133809523Y-122452380D01*
X133714285Y-122500000D01*
X133666666Y-122547619D01*
X133619047Y-122642857D01*
X133619047Y-122785714D01*
X133666666Y-122880952D01*
X133714285Y-122928571D01*
X133809523Y-122976190D01*
X134190476Y-122976190D01*
X132666666Y-123452380D02*
X133238095Y-123452380D01*
X132952380Y-123452380D02*
X132952380Y-122452380D01*
X133047619Y-122595238D01*
X133142857Y-122690476D01*
X133238095Y-122738095D01*
X132047619Y-122452380D02*
X131952380Y-122452380D01*
X131857142Y-122500000D01*
X131809523Y-122547619D01*
X131761904Y-122642857D01*
X131714285Y-122833333D01*
X131714285Y-123071428D01*
X131761904Y-123261904D01*
X131809523Y-123357142D01*
X131857142Y-123404761D01*
X131952380Y-123452380D01*
X132047619Y-123452380D01*
X132142857Y-123404761D01*
X132190476Y-123357142D01*
X132238095Y-123261904D01*
X132285714Y-123071428D01*
X132285714Y-122833333D01*
X132238095Y-122642857D01*
X132190476Y-122547619D01*
X132142857Y-122500000D01*
X132047619Y-122452380D01*
X131333333Y-122547619D02*
X131285714Y-122500000D01*
X131190476Y-122452380D01*
X130952380Y-122452380D01*
X130857142Y-122500000D01*
X130809523Y-122547619D01*
X130761904Y-122642857D01*
X130761904Y-122738095D01*
X130809523Y-122880952D01*
X131380952Y-123452380D01*
X130761904Y-123452380D01*
%TO.C,J1*%
X153864880Y-101166666D02*
X154579166Y-101166666D01*
X154722023Y-101119047D01*
X154817261Y-101023809D01*
X154864880Y-100880952D01*
X154864880Y-100785714D01*
X154864880Y-102166666D02*
X154864880Y-101595238D01*
X154864880Y-101880952D02*
X153864880Y-101880952D01*
X154007738Y-101785714D01*
X154102976Y-101690476D01*
X154150595Y-101595238D01*
%TO.C,R103*%
X156619047Y-123452380D02*
X156952380Y-122976190D01*
X157190476Y-123452380D02*
X157190476Y-122452380D01*
X156809523Y-122452380D01*
X156714285Y-122500000D01*
X156666666Y-122547619D01*
X156619047Y-122642857D01*
X156619047Y-122785714D01*
X156666666Y-122880952D01*
X156714285Y-122928571D01*
X156809523Y-122976190D01*
X157190476Y-122976190D01*
X155666666Y-123452380D02*
X156238095Y-123452380D01*
X155952380Y-123452380D02*
X155952380Y-122452380D01*
X156047619Y-122595238D01*
X156142857Y-122690476D01*
X156238095Y-122738095D01*
X155047619Y-122452380D02*
X154952380Y-122452380D01*
X154857142Y-122500000D01*
X154809523Y-122547619D01*
X154761904Y-122642857D01*
X154714285Y-122833333D01*
X154714285Y-123071428D01*
X154761904Y-123261904D01*
X154809523Y-123357142D01*
X154857142Y-123404761D01*
X154952380Y-123452380D01*
X155047619Y-123452380D01*
X155142857Y-123404761D01*
X155190476Y-123357142D01*
X155238095Y-123261904D01*
X155285714Y-123071428D01*
X155285714Y-122833333D01*
X155238095Y-122642857D01*
X155190476Y-122547619D01*
X155142857Y-122500000D01*
X155047619Y-122452380D01*
X154380952Y-122452380D02*
X153761904Y-122452380D01*
X154095238Y-122833333D01*
X153952380Y-122833333D01*
X153857142Y-122880952D01*
X153809523Y-122928571D01*
X153761904Y-123023809D01*
X153761904Y-123261904D01*
X153809523Y-123357142D01*
X153857142Y-123404761D01*
X153952380Y-123452380D01*
X154238095Y-123452380D01*
X154333333Y-123404761D01*
X154380952Y-123357142D01*
%TO.C,X1*%
X91809523Y-105452380D02*
X91142857Y-106452380D01*
X91142857Y-105452380D02*
X91809523Y-106452380D01*
X90238095Y-106452380D02*
X90809523Y-106452380D01*
X90523809Y-106452380D02*
X90523809Y-105452380D01*
X90619047Y-105595238D01*
X90714285Y-105690476D01*
X90809523Y-105738095D01*
%TO.C,C5*%
X95416666Y-99757142D02*
X95464285Y-99804761D01*
X95607142Y-99852380D01*
X95702380Y-99852380D01*
X95845238Y-99804761D01*
X95940476Y-99709523D01*
X95988095Y-99614285D01*
X96035714Y-99423809D01*
X96035714Y-99280952D01*
X95988095Y-99090476D01*
X95940476Y-98995238D01*
X95845238Y-98900000D01*
X95702380Y-98852380D01*
X95607142Y-98852380D01*
X95464285Y-98900000D01*
X95416666Y-98947619D01*
X94511904Y-98852380D02*
X94988095Y-98852380D01*
X95035714Y-99328571D01*
X94988095Y-99280952D01*
X94892857Y-99233333D01*
X94654761Y-99233333D01*
X94559523Y-99280952D01*
X94511904Y-99328571D01*
X94464285Y-99423809D01*
X94464285Y-99661904D01*
X94511904Y-99757142D01*
X94559523Y-99804761D01*
X94654761Y-99852380D01*
X94892857Y-99852380D01*
X94988095Y-99804761D01*
X95035714Y-99757142D01*
%TO.C,C103*%
X156495088Y-111757142D02*
X156542707Y-111804761D01*
X156685564Y-111852380D01*
X156780802Y-111852380D01*
X156923660Y-111804761D01*
X157018898Y-111709523D01*
X157066517Y-111614285D01*
X157114136Y-111423809D01*
X157114136Y-111280952D01*
X157066517Y-111090476D01*
X157018898Y-110995238D01*
X156923660Y-110900000D01*
X156780802Y-110852380D01*
X156685564Y-110852380D01*
X156542707Y-110900000D01*
X156495088Y-110947619D01*
X155542707Y-111852380D02*
X156114136Y-111852380D01*
X155828421Y-111852380D02*
X155828421Y-110852380D01*
X155923660Y-110995238D01*
X156018898Y-111090476D01*
X156114136Y-111138095D01*
X154923660Y-110852380D02*
X154828421Y-110852380D01*
X154733183Y-110900000D01*
X154685564Y-110947619D01*
X154637945Y-111042857D01*
X154590326Y-111233333D01*
X154590326Y-111471428D01*
X154637945Y-111661904D01*
X154685564Y-111757142D01*
X154733183Y-111804761D01*
X154828421Y-111852380D01*
X154923660Y-111852380D01*
X155018898Y-111804761D01*
X155066517Y-111757142D01*
X155114136Y-111661904D01*
X155161755Y-111471428D01*
X155161755Y-111233333D01*
X155114136Y-111042857D01*
X155066517Y-110947619D01*
X155018898Y-110900000D01*
X154923660Y-110852380D01*
X154256993Y-110852380D02*
X153637945Y-110852380D01*
X153971279Y-111233333D01*
X153828421Y-111233333D01*
X153733183Y-111280952D01*
X153685564Y-111328571D01*
X153637945Y-111423809D01*
X153637945Y-111661904D01*
X153685564Y-111757142D01*
X153733183Y-111804761D01*
X153828421Y-111852380D01*
X154114136Y-111852380D01*
X154209374Y-111804761D01*
X154256993Y-111757142D01*
%TO.C,J4*%
X145022380Y-102566666D02*
X145736666Y-102566666D01*
X145879523Y-102519047D01*
X145974761Y-102423809D01*
X146022380Y-102280952D01*
X146022380Y-102185714D01*
X145355714Y-103471428D02*
X146022380Y-103471428D01*
X144974761Y-103233333D02*
X145689047Y-102995238D01*
X145689047Y-103614285D01*
%TO.C,X5*%
X147809523Y-137852380D02*
X147142857Y-138852380D01*
X147142857Y-137852380D02*
X147809523Y-138852380D01*
X146285714Y-137852380D02*
X146761904Y-137852380D01*
X146809523Y-138328571D01*
X146761904Y-138280952D01*
X146666666Y-138233333D01*
X146428571Y-138233333D01*
X146333333Y-138280952D01*
X146285714Y-138328571D01*
X146238095Y-138423809D01*
X146238095Y-138661904D01*
X146285714Y-138757142D01*
X146333333Y-138804761D01*
X146428571Y-138852380D01*
X146666666Y-138852380D01*
X146761904Y-138804761D01*
X146809523Y-138757142D01*
%TO.C,R101*%
X110619047Y-123452380D02*
X110952380Y-122976190D01*
X111190476Y-123452380D02*
X111190476Y-122452380D01*
X110809523Y-122452380D01*
X110714285Y-122500000D01*
X110666666Y-122547619D01*
X110619047Y-122642857D01*
X110619047Y-122785714D01*
X110666666Y-122880952D01*
X110714285Y-122928571D01*
X110809523Y-122976190D01*
X111190476Y-122976190D01*
X109666666Y-123452380D02*
X110238095Y-123452380D01*
X109952380Y-123452380D02*
X109952380Y-122452380D01*
X110047619Y-122595238D01*
X110142857Y-122690476D01*
X110238095Y-122738095D01*
X109047619Y-122452380D02*
X108952380Y-122452380D01*
X108857142Y-122500000D01*
X108809523Y-122547619D01*
X108761904Y-122642857D01*
X108714285Y-122833333D01*
X108714285Y-123071428D01*
X108761904Y-123261904D01*
X108809523Y-123357142D01*
X108857142Y-123404761D01*
X108952380Y-123452380D01*
X109047619Y-123452380D01*
X109142857Y-123404761D01*
X109190476Y-123357142D01*
X109238095Y-123261904D01*
X109285714Y-123071428D01*
X109285714Y-122833333D01*
X109238095Y-122642857D01*
X109190476Y-122547619D01*
X109142857Y-122500000D01*
X109047619Y-122452380D01*
X107761904Y-123452380D02*
X108333333Y-123452380D01*
X108047619Y-123452380D02*
X108047619Y-122452380D01*
X108142857Y-122595238D01*
X108238095Y-122690476D01*
X108333333Y-122738095D01*
%TO.C,X2*%
X93309523Y-137952380D02*
X92642857Y-138952380D01*
X92642857Y-137952380D02*
X93309523Y-138952380D01*
X92309523Y-138047619D02*
X92261904Y-138000000D01*
X92166666Y-137952380D01*
X91928571Y-137952380D01*
X91833333Y-138000000D01*
X91785714Y-138047619D01*
X91738095Y-138142857D01*
X91738095Y-138238095D01*
X91785714Y-138380952D01*
X92357142Y-138952380D01*
X91738095Y-138952380D01*
D11*
%TO.C,C17*%
X99198000Y-88911000D02*
X100802000Y-88911000D01*
X101040000Y-87471000D02*
X102742000Y-87471000D01*
X98166000Y-88431000D02*
X101834000Y-88431000D01*
X101040000Y-86350000D02*
X103175000Y-86350000D01*
X98738000Y-88751000D02*
X101262000Y-88751000D01*
X101040000Y-86551000D02*
X103131000Y-86551000D01*
X101040000Y-87951000D02*
X102380000Y-87951000D01*
X96879000Y-86591000D02*
X98960000Y-86591000D01*
X101040000Y-86270000D02*
X103189000Y-86270000D01*
X101040000Y-86190000D02*
X103201000Y-86190000D01*
X97188000Y-87351000D02*
X98960000Y-87351000D01*
X98941000Y-88831000D02*
X101059000Y-88831000D01*
X97336000Y-87591000D02*
X98960000Y-87591000D01*
X97776000Y-88111000D02*
X102224000Y-88111000D01*
X96772000Y-85870000D02*
X103228000Y-85870000D01*
X96785000Y-86070000D02*
X98960000Y-86070000D01*
X97210000Y-87391000D02*
X98960000Y-87391000D01*
X101040000Y-86791000D02*
X103061000Y-86791000D01*
X101040000Y-86751000D02*
X103074000Y-86751000D01*
X96770000Y-85830000D02*
X103230000Y-85830000D01*
X97956000Y-88271000D02*
X102044000Y-88271000D01*
X96850000Y-86471000D02*
X98960000Y-86471000D01*
X101040000Y-87991000D02*
X102343000Y-87991000D01*
X96833000Y-86390000D02*
X98960000Y-86390000D01*
X101040000Y-86030000D02*
X103218000Y-86030000D01*
X96998000Y-86951000D02*
X98960000Y-86951000D01*
X97066000Y-87111000D02*
X98960000Y-87111000D01*
X96841000Y-86430000D02*
X98960000Y-86430000D01*
X101040000Y-87631000D02*
X102636000Y-87631000D01*
X97863000Y-88191000D02*
X102137000Y-88191000D01*
X97104000Y-87191000D02*
X98960000Y-87191000D01*
X97422000Y-87711000D02*
X98960000Y-87711000D01*
X101040000Y-87511000D02*
X102716000Y-87511000D01*
X101040000Y-86110000D02*
X103211000Y-86110000D01*
X101040000Y-86951000D02*
X103002000Y-86951000D01*
X96811000Y-86270000D02*
X98960000Y-86270000D01*
X101040000Y-86911000D02*
X103018000Y-86911000D01*
X101040000Y-87911000D02*
X102416000Y-87911000D01*
X97364000Y-87631000D02*
X98960000Y-87631000D01*
X97284000Y-87511000D02*
X98960000Y-87511000D01*
X101040000Y-85990000D02*
X103222000Y-85990000D01*
X101040000Y-87271000D02*
X102856000Y-87271000D01*
X96794000Y-86150000D02*
X98960000Y-86150000D01*
X101040000Y-86150000D02*
X103206000Y-86150000D01*
X101040000Y-87191000D02*
X102896000Y-87191000D01*
X97620000Y-87951000D02*
X98960000Y-87951000D01*
X99367000Y-88951000D02*
X100633000Y-88951000D01*
X98568000Y-88671000D02*
X101432000Y-88671000D01*
X97048000Y-87071000D02*
X98960000Y-87071000D01*
X101040000Y-87351000D02*
X102812000Y-87351000D01*
X97452000Y-87751000D02*
X98960000Y-87751000D01*
X99060000Y-88871000D02*
X100940000Y-88871000D01*
X97144000Y-87271000D02*
X98960000Y-87271000D01*
X98110000Y-88391000D02*
X101890000Y-88391000D01*
X96776000Y-85950000D02*
X103224000Y-85950000D01*
X97484000Y-87791000D02*
X98960000Y-87791000D01*
X101040000Y-87111000D02*
X102934000Y-87111000D01*
X101040000Y-86591000D02*
X103121000Y-86591000D01*
X96789000Y-86110000D02*
X98960000Y-86110000D01*
X101040000Y-87551000D02*
X102690000Y-87551000D01*
X101040000Y-87151000D02*
X102916000Y-87151000D01*
X98650000Y-88711000D02*
X101350000Y-88711000D01*
X97657000Y-87991000D02*
X98960000Y-87991000D01*
X96818000Y-86310000D02*
X98960000Y-86310000D01*
X96825000Y-86350000D02*
X98960000Y-86350000D01*
X97084000Y-87151000D02*
X98960000Y-87151000D01*
X101040000Y-86671000D02*
X103098000Y-86671000D01*
X97234000Y-87431000D02*
X98960000Y-87431000D01*
X97258000Y-87471000D02*
X98960000Y-87471000D01*
X101040000Y-86991000D02*
X102986000Y-86991000D01*
X96869000Y-86551000D02*
X98960000Y-86551000D01*
X101040000Y-87751000D02*
X102548000Y-87751000D01*
X101040000Y-86631000D02*
X103110000Y-86631000D01*
X101040000Y-86310000D02*
X103182000Y-86310000D01*
X101040000Y-86511000D02*
X103141000Y-86511000D01*
X101040000Y-87591000D02*
X102664000Y-87591000D01*
X101040000Y-87031000D02*
X102970000Y-87031000D01*
X98224000Y-88471000D02*
X101776000Y-88471000D01*
X101040000Y-86430000D02*
X103159000Y-86430000D01*
X101040000Y-86471000D02*
X103150000Y-86471000D01*
X97550000Y-87871000D02*
X98960000Y-87871000D01*
X98005000Y-88311000D02*
X101995000Y-88311000D01*
X96967000Y-86871000D02*
X98960000Y-86871000D01*
X101040000Y-87311000D02*
X102834000Y-87311000D01*
X96799000Y-86190000D02*
X98960000Y-86190000D01*
X101040000Y-87871000D02*
X102450000Y-87871000D01*
X96859000Y-86511000D02*
X98960000Y-86511000D01*
X101040000Y-86711000D02*
X103086000Y-86711000D01*
X101040000Y-86831000D02*
X103047000Y-86831000D01*
X96926000Y-86751000D02*
X98960000Y-86751000D01*
X101040000Y-86230000D02*
X103195000Y-86230000D01*
X96890000Y-86631000D02*
X98960000Y-86631000D01*
X96778000Y-85990000D02*
X98960000Y-85990000D01*
X101040000Y-87831000D02*
X102484000Y-87831000D01*
X101040000Y-87711000D02*
X102578000Y-87711000D01*
X96782000Y-86030000D02*
X98960000Y-86030000D01*
X97393000Y-87671000D02*
X98960000Y-87671000D01*
X97310000Y-87551000D02*
X98960000Y-87551000D01*
X96770000Y-85790000D02*
X103230000Y-85790000D01*
X97695000Y-88031000D02*
X98960000Y-88031000D01*
X96770000Y-85750000D02*
X103230000Y-85750000D01*
X98161000Y-82249759D02*
X98161000Y-82879759D01*
X101040000Y-87391000D02*
X102790000Y-87391000D01*
X101040000Y-87231000D02*
X102876000Y-87231000D01*
X98286000Y-88511000D02*
X101714000Y-88511000D01*
X96982000Y-86911000D02*
X98960000Y-86911000D01*
X96939000Y-86791000D02*
X98960000Y-86791000D01*
X101040000Y-87071000D02*
X102952000Y-87071000D01*
X97584000Y-87911000D02*
X98960000Y-87911000D01*
X96805000Y-86230000D02*
X98960000Y-86230000D01*
X101040000Y-86390000D02*
X103167000Y-86390000D01*
X101040000Y-88031000D02*
X102305000Y-88031000D01*
X101040000Y-87671000D02*
X102607000Y-87671000D01*
X101040000Y-86070000D02*
X103215000Y-86070000D01*
X98835000Y-88791000D02*
X101165000Y-88791000D01*
X98350000Y-88551000D02*
X101650000Y-88551000D01*
X101040000Y-87791000D02*
X102516000Y-87791000D01*
X96914000Y-86711000D02*
X98960000Y-86711000D01*
X97818000Y-88151000D02*
X102182000Y-88151000D01*
X96902000Y-86671000D02*
X98960000Y-86671000D01*
X97014000Y-86991000D02*
X98960000Y-86991000D01*
X97124000Y-87231000D02*
X98960000Y-87231000D01*
X96953000Y-86831000D02*
X98960000Y-86831000D01*
X98419000Y-88591000D02*
X101581000Y-88591000D01*
X97735000Y-88071000D02*
X102265000Y-88071000D01*
X98056000Y-88351000D02*
X101944000Y-88351000D01*
X96773000Y-85910000D02*
X103227000Y-85910000D01*
X97516000Y-87831000D02*
X98960000Y-87831000D01*
X97846000Y-82564759D02*
X98476000Y-82564759D01*
X98491000Y-88631000D02*
X101509000Y-88631000D01*
X101040000Y-87431000D02*
X102766000Y-87431000D01*
X99598000Y-88991000D02*
X100402000Y-88991000D01*
X97166000Y-87311000D02*
X98960000Y-87311000D01*
X97030000Y-87031000D02*
X98960000Y-87031000D01*
X101040000Y-86871000D02*
X103033000Y-86871000D01*
X97908000Y-88231000D02*
X102092000Y-88231000D01*
X103270000Y-85750000D02*
G75*
G03*
X103270000Y-85750000I-3270000J0D01*
G01*
%TO.C,J3*%
X112700000Y-97650000D02*
X112700000Y-97150000D01*
X106500000Y-97150000D02*
X106500000Y-97650000D01*
X114500000Y-97150000D02*
X114500000Y-97650000D01*
X117960000Y-93240000D02*
X117960000Y-94490000D01*
X108600000Y-97650000D02*
X108600000Y-97150000D01*
X110600000Y-97650000D02*
X110600000Y-97150000D01*
X106700000Y-97150000D02*
X106500000Y-97150000D01*
X106100000Y-94150000D02*
X106100000Y-93540000D01*
X115100000Y-94150000D02*
X117050000Y-94150000D01*
X104150000Y-94150000D02*
X106100000Y-94150000D01*
X117050000Y-97650000D02*
X104150000Y-97650000D01*
X103540000Y-98260000D02*
X103540000Y-93540000D01*
X103540000Y-96150000D02*
X104150000Y-96150000D01*
X115900000Y-93340000D02*
X116200000Y-93340000D01*
X114700000Y-97650000D02*
X114700000Y-97150000D01*
X112500000Y-97150000D02*
X112500000Y-97650000D01*
X114700000Y-97150000D02*
X114500000Y-97150000D01*
X117050000Y-94150000D02*
X117050000Y-97650000D01*
X110500000Y-97150000D02*
X110500000Y-97650000D01*
X104150000Y-97650000D02*
X104150000Y-94150000D01*
X103540000Y-93540000D02*
X117660000Y-93540000D01*
X115900000Y-93540000D02*
X115900000Y-93340000D01*
X115900000Y-93440000D02*
X116200000Y-93440000D01*
X106600000Y-97650000D02*
X106600000Y-97150000D01*
X110700000Y-97650000D02*
X110700000Y-97150000D01*
X117660000Y-98260000D02*
X103540000Y-98260000D01*
X116710000Y-93240000D02*
X117960000Y-93240000D01*
X116200000Y-93340000D02*
X116200000Y-93540000D01*
X112600000Y-97650000D02*
X112600000Y-97150000D01*
X112700000Y-97150000D02*
X112500000Y-97150000D01*
X106700000Y-97650000D02*
X106700000Y-97150000D01*
X114600000Y-97650000D02*
X114600000Y-97150000D01*
X117660000Y-94850000D02*
X117050000Y-94850000D01*
X108700000Y-97650000D02*
X108700000Y-97150000D01*
X103540000Y-94850000D02*
X104150000Y-94850000D01*
X115100000Y-93540000D02*
X115100000Y-94150000D01*
X117660000Y-96150000D02*
X117050000Y-96150000D01*
X110700000Y-97150000D02*
X110500000Y-97150000D01*
X117660000Y-93540000D02*
X117660000Y-98260000D01*
X108700000Y-97150000D02*
X108500000Y-97150000D01*
X108500000Y-97150000D02*
X108500000Y-97650000D01*
%TO.C,J2*%
X114600000Y-81750000D02*
X114600000Y-81250000D01*
X118500000Y-81250000D02*
X118500000Y-81750000D01*
X111440000Y-80640000D02*
X125560000Y-80640000D01*
X125560000Y-85360000D02*
X111440000Y-85360000D01*
X116500000Y-81250000D02*
X116500000Y-81750000D01*
X125560000Y-84050000D02*
X124950000Y-84050000D01*
X125560000Y-82750000D02*
X124950000Y-82750000D01*
X111440000Y-82750000D02*
X112050000Y-82750000D01*
X124950000Y-81250000D02*
X124950000Y-84750000D01*
X118600000Y-81750000D02*
X118600000Y-81250000D01*
X111440000Y-85360000D02*
X111440000Y-80640000D01*
X120600000Y-81750000D02*
X120600000Y-81250000D01*
X112900000Y-85560000D02*
X112900000Y-85360000D01*
X112050000Y-84750000D02*
X112050000Y-81250000D01*
X122600000Y-81750000D02*
X122600000Y-81250000D01*
X112050000Y-81250000D02*
X124950000Y-81250000D01*
X112390000Y-85660000D02*
X111140000Y-85660000D01*
X114000000Y-84750000D02*
X112050000Y-84750000D01*
X113200000Y-85360000D02*
X113200000Y-85560000D01*
X125560000Y-80640000D02*
X125560000Y-85360000D01*
X114400000Y-81250000D02*
X114400000Y-81750000D01*
X116400000Y-81250000D02*
X116400000Y-81750000D01*
X114400000Y-81750000D02*
X114600000Y-81750000D01*
X120500000Y-81250000D02*
X120500000Y-81750000D01*
X113200000Y-85460000D02*
X112900000Y-85460000D01*
X120400000Y-81750000D02*
X120600000Y-81750000D01*
X116400000Y-81750000D02*
X116600000Y-81750000D01*
X120400000Y-81250000D02*
X120400000Y-81750000D01*
X122400000Y-81250000D02*
X122400000Y-81750000D01*
X111440000Y-84050000D02*
X112050000Y-84050000D01*
X116600000Y-81750000D02*
X116600000Y-81250000D01*
X124950000Y-84750000D02*
X123000000Y-84750000D01*
X114500000Y-81250000D02*
X114500000Y-81750000D01*
X122500000Y-81250000D02*
X122500000Y-81750000D01*
X114000000Y-85360000D02*
X114000000Y-84750000D01*
X118400000Y-81750000D02*
X118600000Y-81750000D01*
X113200000Y-85560000D02*
X112900000Y-85560000D01*
X122400000Y-81750000D02*
X122600000Y-81750000D01*
X123000000Y-84750000D02*
X123000000Y-85360000D01*
X111140000Y-85660000D02*
X111140000Y-84410000D01*
X118400000Y-81250000D02*
X118400000Y-81750000D01*
%TO.C,C101*%
X93619000Y-108090000D02*
X93619000Y-112910000D01*
X97059000Y-111940000D02*
X97059000Y-116345000D01*
X96539000Y-104899000D02*
X96539000Y-109060000D01*
X98019000Y-111940000D02*
X98019000Y-116656000D01*
X98179000Y-104308000D02*
X98179000Y-109060000D01*
X98139000Y-104316000D02*
X98139000Y-109060000D01*
X95499000Y-105582000D02*
X95499000Y-115418000D01*
X97699000Y-104429000D02*
X97699000Y-109060000D01*
X96859000Y-111940000D02*
X96859000Y-116258000D01*
X96819000Y-104761000D02*
X96819000Y-109060000D01*
X95979000Y-111940000D02*
X95979000Y-115770000D01*
X98059000Y-111940000D02*
X98059000Y-116666000D01*
X96179000Y-105103000D02*
X96179000Y-109060000D01*
X94659000Y-106398000D02*
X94659000Y-114602000D01*
X96059000Y-105178000D02*
X96059000Y-109060000D01*
X95699000Y-111940000D02*
X95699000Y-115573000D01*
X95819000Y-105340000D02*
X95819000Y-109060000D01*
X98259000Y-104291000D02*
X98259000Y-109060000D01*
X99420000Y-104170000D02*
X99420000Y-116830000D01*
X95619000Y-105488000D02*
X95619000Y-109060000D01*
X98299000Y-111940000D02*
X98299000Y-116716000D01*
X97019000Y-104672000D02*
X97019000Y-109060000D01*
X97259000Y-104576000D02*
X97259000Y-109060000D01*
X96259000Y-105055000D02*
X96259000Y-109060000D01*
X97339000Y-111940000D02*
X97339000Y-116453000D01*
X94619000Y-106445000D02*
X94619000Y-114555000D01*
X93939000Y-107431000D02*
X93939000Y-113569000D01*
X94299000Y-106860000D02*
X94299000Y-114140000D01*
X95939000Y-111940000D02*
X95939000Y-115743000D01*
X96819000Y-111940000D02*
X96819000Y-116239000D01*
X98019000Y-104344000D02*
X98019000Y-109060000D01*
X99220000Y-104176000D02*
X99220000Y-116824000D01*
X99340000Y-104172000D02*
X99340000Y-116828000D01*
X97339000Y-104547000D02*
X97339000Y-109060000D01*
X98099000Y-111940000D02*
X98099000Y-116675000D01*
X95859000Y-105312000D02*
X95859000Y-109060000D01*
X97659000Y-104441000D02*
X97659000Y-109060000D01*
X98099000Y-104325000D02*
X98099000Y-109060000D01*
X96379000Y-104986000D02*
X96379000Y-109060000D01*
X97419000Y-104519000D02*
X97419000Y-109060000D01*
X95659000Y-105457000D02*
X95659000Y-109060000D01*
X98219000Y-111940000D02*
X98219000Y-116701000D01*
X94099000Y-107161000D02*
X94099000Y-113839000D01*
X93899000Y-107504000D02*
X93899000Y-113496000D01*
X98339000Y-111940000D02*
X98339000Y-116724000D01*
X96219000Y-105079000D02*
X96219000Y-109060000D01*
X96659000Y-111940000D02*
X96659000Y-116162000D01*
X96459000Y-104942000D02*
X96459000Y-109060000D01*
X105692082Y-106300000D02*
X105692082Y-107550000D01*
X96299000Y-111940000D02*
X96299000Y-115968000D01*
X96939000Y-111940000D02*
X96939000Y-116293000D01*
X93699000Y-107906000D02*
X93699000Y-113094000D01*
X99260000Y-104174000D02*
X99260000Y-116826000D01*
X98739000Y-104215000D02*
X98739000Y-116785000D01*
X97299000Y-111940000D02*
X97299000Y-116439000D01*
X93139000Y-110183000D02*
X93139000Y-110817000D01*
X96459000Y-111940000D02*
X96459000Y-116058000D01*
X95099000Y-105933000D02*
X95099000Y-115067000D01*
X96739000Y-104798000D02*
X96739000Y-109060000D01*
X93179000Y-109743000D02*
X93179000Y-111257000D01*
X95379000Y-105681000D02*
X95379000Y-115319000D01*
X97739000Y-111940000D02*
X97739000Y-116583000D01*
X96499000Y-111940000D02*
X96499000Y-116080000D01*
X93659000Y-107996000D02*
X93659000Y-113004000D01*
X95419000Y-105648000D02*
X95419000Y-115352000D01*
X96899000Y-111940000D02*
X96899000Y-116276000D01*
X95659000Y-111940000D02*
X95659000Y-115543000D01*
X94019000Y-107292000D02*
X94019000Y-113708000D01*
X97379000Y-111940000D02*
X97379000Y-116467000D01*
X93859000Y-107579000D02*
X93859000Y-113421000D01*
X95819000Y-111940000D02*
X95819000Y-115660000D01*
X95899000Y-105284000D02*
X95899000Y-109060000D01*
X97179000Y-104607000D02*
X97179000Y-109060000D01*
X94579000Y-106493000D02*
X94579000Y-114507000D01*
X97859000Y-111940000D02*
X97859000Y-116616000D01*
X94819000Y-106218000D02*
X94819000Y-114782000D01*
X97859000Y-104384000D02*
X97859000Y-109060000D01*
X99140000Y-104180000D02*
X99140000Y-116820000D01*
X95939000Y-105257000D02*
X95939000Y-109060000D01*
X95899000Y-111940000D02*
X95899000Y-115716000D01*
X99100000Y-104182000D02*
X99100000Y-116818000D01*
X97699000Y-111940000D02*
X97699000Y-116571000D01*
X96299000Y-105032000D02*
X96299000Y-109060000D01*
X97219000Y-104592000D02*
X97219000Y-109060000D01*
X106317082Y-106925000D02*
X105067082Y-106925000D01*
X98059000Y-104334000D02*
X98059000Y-109060000D01*
X95019000Y-106011000D02*
X95019000Y-114989000D01*
X97299000Y-104561000D02*
X97299000Y-109060000D01*
X98499000Y-104248000D02*
X98499000Y-116752000D01*
X93299000Y-109078000D02*
X93299000Y-111922000D01*
X93579000Y-108188000D02*
X93579000Y-112812000D01*
X98339000Y-104276000D02*
X98339000Y-109060000D01*
X94499000Y-106593000D02*
X94499000Y-114407000D01*
X98419000Y-104262000D02*
X98419000Y-109060000D01*
X96779000Y-111940000D02*
X96779000Y-116221000D01*
X97659000Y-111940000D02*
X97659000Y-116559000D01*
X93979000Y-107360000D02*
X93979000Y-113640000D01*
X96539000Y-111940000D02*
X96539000Y-116101000D01*
X94739000Y-106306000D02*
X94739000Y-114694000D01*
X97499000Y-104492000D02*
X97499000Y-109060000D01*
X95139000Y-105895000D02*
X95139000Y-115105000D01*
X98820000Y-104206000D02*
X98820000Y-116794000D01*
X97259000Y-111940000D02*
X97259000Y-116424000D01*
X93219000Y-109472000D02*
X93219000Y-111528000D01*
X96899000Y-104724000D02*
X96899000Y-109060000D01*
X96419000Y-104964000D02*
X96419000Y-109060000D01*
X96739000Y-111940000D02*
X96739000Y-116202000D01*
X98459000Y-104255000D02*
X98459000Y-116745000D01*
X93819000Y-107656000D02*
X93819000Y-113344000D01*
X94699000Y-106352000D02*
X94699000Y-114648000D01*
X97379000Y-104533000D02*
X97379000Y-109060000D01*
X98900000Y-104198000D02*
X98900000Y-116802000D01*
X97779000Y-111940000D02*
X97779000Y-116594000D01*
X97819000Y-104395000D02*
X97819000Y-109060000D01*
X94859000Y-106175000D02*
X94859000Y-114825000D01*
X97099000Y-104639000D02*
X97099000Y-109060000D01*
X96619000Y-111940000D02*
X96619000Y-116142000D01*
X94779000Y-106262000D02*
X94779000Y-114738000D01*
X96019000Y-105204000D02*
X96019000Y-109060000D01*
X97979000Y-104354000D02*
X97979000Y-109060000D01*
X94419000Y-106696000D02*
X94419000Y-114304000D01*
X97939000Y-111940000D02*
X97939000Y-116637000D01*
X97539000Y-104479000D02*
X97539000Y-109060000D01*
X98139000Y-111940000D02*
X98139000Y-116684000D01*
X93339000Y-108917000D02*
X93339000Y-112083000D01*
X97539000Y-111940000D02*
X97539000Y-116521000D01*
X95739000Y-105398000D02*
X95739000Y-109060000D01*
X97979000Y-111940000D02*
X97979000Y-116646000D01*
X98379000Y-111940000D02*
X98379000Y-116731000D01*
X94539000Y-106543000D02*
X94539000Y-114457000D01*
X97579000Y-111940000D02*
X97579000Y-116534000D01*
X96339000Y-105009000D02*
X96339000Y-109060000D01*
X93259000Y-109259000D02*
X93259000Y-111741000D01*
X99460000Y-104170000D02*
X99460000Y-116830000D01*
X97499000Y-111940000D02*
X97499000Y-116508000D01*
X93499000Y-108400000D02*
X93499000Y-112600000D01*
X96099000Y-105153000D02*
X96099000Y-109060000D01*
X99020000Y-104188000D02*
X99020000Y-116812000D01*
X94219000Y-106976000D02*
X94219000Y-114024000D01*
X99380000Y-104171000D02*
X99380000Y-116829000D01*
X96979000Y-104689000D02*
X96979000Y-109060000D01*
X97019000Y-111940000D02*
X97019000Y-116328000D01*
X96579000Y-104878000D02*
X96579000Y-109060000D01*
X95539000Y-105550000D02*
X95539000Y-115450000D01*
X95259000Y-105786000D02*
X95259000Y-115214000D01*
X94899000Y-106133000D02*
X94899000Y-114867000D01*
X95219000Y-105822000D02*
X95219000Y-115178000D01*
X94979000Y-106051000D02*
X94979000Y-114949000D01*
X98619000Y-104231000D02*
X98619000Y-116769000D01*
X96339000Y-111940000D02*
X96339000Y-115991000D01*
X94459000Y-106644000D02*
X94459000Y-114356000D01*
X96619000Y-104858000D02*
X96619000Y-109060000D01*
X98379000Y-104269000D02*
X98379000Y-109060000D01*
X99500000Y-104170000D02*
X99500000Y-116830000D01*
X98419000Y-111940000D02*
X98419000Y-116738000D01*
X96179000Y-111940000D02*
X96179000Y-115897000D01*
X97099000Y-111940000D02*
X97099000Y-116361000D01*
X93459000Y-108516000D02*
X93459000Y-112484000D01*
X96139000Y-111940000D02*
X96139000Y-115872000D01*
X96939000Y-104707000D02*
X96939000Y-109060000D01*
X97819000Y-111940000D02*
X97819000Y-116605000D01*
X93379000Y-108772000D02*
X93379000Y-112228000D01*
X96379000Y-111940000D02*
X96379000Y-116014000D01*
X93419000Y-108639000D02*
X93419000Y-112361000D01*
X97139000Y-104623000D02*
X97139000Y-109060000D01*
X98179000Y-111940000D02*
X98179000Y-116692000D01*
X98860000Y-104202000D02*
X98860000Y-116798000D01*
X96979000Y-111940000D02*
X96979000Y-116311000D01*
X95619000Y-111940000D02*
X95619000Y-115512000D01*
X97779000Y-104406000D02*
X97779000Y-109060000D01*
X98299000Y-104284000D02*
X98299000Y-109060000D01*
X95779000Y-111940000D02*
X95779000Y-115631000D01*
X93539000Y-108291000D02*
X93539000Y-112709000D01*
X98779000Y-104210000D02*
X98779000Y-116790000D01*
X97739000Y-104417000D02*
X97739000Y-109060000D01*
X96499000Y-104920000D02*
X96499000Y-109060000D01*
X95059000Y-105972000D02*
X95059000Y-115028000D01*
X94939000Y-106092000D02*
X94939000Y-114908000D01*
X95779000Y-105369000D02*
X95779000Y-109060000D01*
X96419000Y-111940000D02*
X96419000Y-116036000D01*
X96099000Y-111940000D02*
X96099000Y-115847000D01*
X97899000Y-111940000D02*
X97899000Y-116626000D01*
X93779000Y-107736000D02*
X93779000Y-113264000D01*
X96059000Y-111940000D02*
X96059000Y-115822000D01*
X96019000Y-111940000D02*
X96019000Y-115796000D01*
X97419000Y-111940000D02*
X97419000Y-116481000D01*
X94059000Y-107225000D02*
X94059000Y-113775000D01*
X98259000Y-111940000D02*
X98259000Y-116709000D01*
X98980000Y-104191000D02*
X98980000Y-116809000D01*
X99300000Y-104173000D02*
X99300000Y-116827000D01*
X97219000Y-111940000D02*
X97219000Y-116408000D01*
X97619000Y-111940000D02*
X97619000Y-116547000D01*
X94139000Y-107098000D02*
X94139000Y-113902000D01*
X96579000Y-111940000D02*
X96579000Y-116122000D01*
X96259000Y-111940000D02*
X96259000Y-115945000D01*
X97139000Y-111940000D02*
X97139000Y-116377000D01*
X97459000Y-111940000D02*
X97459000Y-116495000D01*
X98940000Y-104194000D02*
X98940000Y-116806000D01*
X95459000Y-105615000D02*
X95459000Y-115385000D01*
X95739000Y-111940000D02*
X95739000Y-115602000D01*
X95179000Y-105858000D02*
X95179000Y-115142000D01*
X97939000Y-104363000D02*
X97939000Y-109060000D01*
X95579000Y-111940000D02*
X95579000Y-115482000D01*
X95859000Y-111940000D02*
X95859000Y-115688000D01*
X94259000Y-106917000D02*
X94259000Y-114083000D01*
X98579000Y-104236000D02*
X98579000Y-116764000D01*
X96779000Y-104779000D02*
X96779000Y-109060000D01*
X97179000Y-111940000D02*
X97179000Y-116393000D01*
X99180000Y-104178000D02*
X99180000Y-116822000D01*
X93739000Y-107819000D02*
X93739000Y-113181000D01*
X97619000Y-104453000D02*
X97619000Y-109060000D01*
X97459000Y-104505000D02*
X97459000Y-109060000D01*
X95339000Y-105715000D02*
X95339000Y-115285000D01*
X95979000Y-105230000D02*
X95979000Y-109060000D01*
X97059000Y-104655000D02*
X97059000Y-109060000D01*
X94379000Y-106750000D02*
X94379000Y-114250000D01*
X95699000Y-105427000D02*
X95699000Y-109060000D01*
X94179000Y-107036000D02*
X94179000Y-113964000D01*
X99060000Y-104185000D02*
X99060000Y-116815000D01*
X96699000Y-111940000D02*
X96699000Y-116182000D01*
X95299000Y-105750000D02*
X95299000Y-115250000D01*
X98219000Y-104299000D02*
X98219000Y-109060000D01*
X96139000Y-105128000D02*
X96139000Y-109060000D01*
X94339000Y-106804000D02*
X94339000Y-114196000D01*
X98539000Y-104242000D02*
X98539000Y-116758000D01*
X96699000Y-104818000D02*
X96699000Y-109060000D01*
X96859000Y-104742000D02*
X96859000Y-109060000D01*
X98699000Y-104220000D02*
X98699000Y-116780000D01*
X96219000Y-111940000D02*
X96219000Y-115921000D01*
X98659000Y-104225000D02*
X98659000Y-116775000D01*
X96659000Y-104838000D02*
X96659000Y-109060000D01*
X95579000Y-105518000D02*
X95579000Y-109060000D01*
X97899000Y-104374000D02*
X97899000Y-109060000D01*
X97579000Y-104466000D02*
X97579000Y-109060000D01*
X105870000Y-110500000D02*
G75*
G03*
X105870000Y-110500000I-6370000J0D01*
G01*
%TO.C,C102*%
X130260000Y-104174000D02*
X130260000Y-116826000D01*
X126299000Y-105750000D02*
X126299000Y-115250000D01*
X128419000Y-111940000D02*
X128419000Y-116481000D01*
X128259000Y-104576000D02*
X128259000Y-109060000D01*
X127499000Y-111940000D02*
X127499000Y-116080000D01*
X128099000Y-104639000D02*
X128099000Y-109060000D01*
X126739000Y-105398000D02*
X126739000Y-109060000D01*
X124979000Y-107360000D02*
X124979000Y-113640000D01*
X129739000Y-104215000D02*
X129739000Y-116785000D01*
X127859000Y-104742000D02*
X127859000Y-109060000D01*
X125379000Y-106750000D02*
X125379000Y-114250000D01*
X125059000Y-107225000D02*
X125059000Y-113775000D01*
X128979000Y-111940000D02*
X128979000Y-116646000D01*
X128659000Y-104441000D02*
X128659000Y-109060000D01*
X125939000Y-106092000D02*
X125939000Y-114908000D01*
X130140000Y-104180000D02*
X130140000Y-116820000D01*
X129419000Y-111940000D02*
X129419000Y-116738000D01*
X129259000Y-111940000D02*
X129259000Y-116709000D01*
X128539000Y-111940000D02*
X128539000Y-116521000D01*
X129099000Y-111940000D02*
X129099000Y-116675000D01*
X128899000Y-104374000D02*
X128899000Y-109060000D01*
X127619000Y-111940000D02*
X127619000Y-116142000D01*
X128899000Y-111940000D02*
X128899000Y-116626000D01*
X129139000Y-104316000D02*
X129139000Y-109060000D01*
X127579000Y-111940000D02*
X127579000Y-116122000D01*
X127619000Y-104858000D02*
X127619000Y-109060000D01*
X126539000Y-105550000D02*
X126539000Y-115450000D01*
X126819000Y-111940000D02*
X126819000Y-115660000D01*
X128379000Y-111940000D02*
X128379000Y-116467000D01*
X127259000Y-105055000D02*
X127259000Y-109060000D01*
X128739000Y-111940000D02*
X128739000Y-116583000D01*
X129219000Y-104299000D02*
X129219000Y-109060000D01*
X125819000Y-106218000D02*
X125819000Y-114782000D01*
X129779000Y-104210000D02*
X129779000Y-116790000D01*
X127899000Y-104724000D02*
X127899000Y-109060000D01*
X128939000Y-111940000D02*
X128939000Y-116637000D01*
X126659000Y-105457000D02*
X126659000Y-109060000D01*
X127179000Y-111940000D02*
X127179000Y-115897000D01*
X129820000Y-104206000D02*
X129820000Y-116794000D01*
X127219000Y-111940000D02*
X127219000Y-115921000D01*
X129860000Y-104202000D02*
X129860000Y-116798000D01*
X127419000Y-104964000D02*
X127419000Y-109060000D01*
X125299000Y-106860000D02*
X125299000Y-114140000D01*
X128459000Y-104505000D02*
X128459000Y-109060000D01*
X125859000Y-106175000D02*
X125859000Y-114825000D01*
X127379000Y-104986000D02*
X127379000Y-109060000D01*
X126779000Y-111940000D02*
X126779000Y-115631000D01*
X130460000Y-104170000D02*
X130460000Y-116830000D01*
X125139000Y-107098000D02*
X125139000Y-113902000D01*
X126939000Y-111940000D02*
X126939000Y-115743000D01*
X130500000Y-104170000D02*
X130500000Y-116830000D01*
X129900000Y-104198000D02*
X129900000Y-116802000D01*
X129339000Y-104276000D02*
X129339000Y-109060000D01*
X126619000Y-105488000D02*
X126619000Y-109060000D01*
X124939000Y-107431000D02*
X124939000Y-113569000D01*
X129539000Y-104242000D02*
X129539000Y-116758000D01*
X127139000Y-105128000D02*
X127139000Y-109060000D01*
X128819000Y-111940000D02*
X128819000Y-116605000D01*
X125659000Y-106398000D02*
X125659000Y-114602000D01*
X129299000Y-111940000D02*
X129299000Y-116716000D01*
X128419000Y-104519000D02*
X128419000Y-109060000D01*
X128579000Y-104466000D02*
X128579000Y-109060000D01*
X128819000Y-104395000D02*
X128819000Y-109060000D01*
X129179000Y-111940000D02*
X129179000Y-116692000D01*
X126859000Y-111940000D02*
X126859000Y-115688000D01*
X125099000Y-107161000D02*
X125099000Y-113839000D01*
X125539000Y-106543000D02*
X125539000Y-114457000D01*
X127659000Y-104838000D02*
X127659000Y-109060000D01*
X128699000Y-104429000D02*
X128699000Y-109060000D01*
X127819000Y-111940000D02*
X127819000Y-116239000D01*
X124899000Y-107504000D02*
X124899000Y-113496000D01*
X130100000Y-104182000D02*
X130100000Y-116818000D01*
X127939000Y-111940000D02*
X127939000Y-116293000D01*
X129419000Y-104262000D02*
X129419000Y-109060000D01*
X126699000Y-111940000D02*
X126699000Y-115573000D01*
X130380000Y-104171000D02*
X130380000Y-116829000D01*
X127779000Y-111940000D02*
X127779000Y-116221000D01*
X128259000Y-111940000D02*
X128259000Y-116424000D01*
X126259000Y-105786000D02*
X126259000Y-115214000D01*
X129019000Y-104344000D02*
X129019000Y-109060000D01*
X126019000Y-106011000D02*
X126019000Y-114989000D01*
X130300000Y-104173000D02*
X130300000Y-116827000D01*
X130020000Y-104188000D02*
X130020000Y-116812000D01*
X128059000Y-104655000D02*
X128059000Y-109060000D01*
X130340000Y-104172000D02*
X130340000Y-116828000D01*
X126059000Y-105972000D02*
X126059000Y-115028000D01*
X126699000Y-105427000D02*
X126699000Y-109060000D01*
X129940000Y-104194000D02*
X129940000Y-116806000D01*
X128979000Y-104354000D02*
X128979000Y-109060000D01*
X127219000Y-105079000D02*
X127219000Y-109060000D01*
X126659000Y-111940000D02*
X126659000Y-115543000D01*
X128219000Y-104592000D02*
X128219000Y-109060000D01*
X128139000Y-104623000D02*
X128139000Y-109060000D01*
X129379000Y-104269000D02*
X129379000Y-109060000D01*
X127379000Y-111940000D02*
X127379000Y-116014000D01*
X124819000Y-107656000D02*
X124819000Y-113344000D01*
X127579000Y-104878000D02*
X127579000Y-109060000D01*
X125619000Y-106445000D02*
X125619000Y-114555000D01*
X129139000Y-111940000D02*
X129139000Y-116684000D01*
X129059000Y-104334000D02*
X129059000Y-109060000D01*
X125219000Y-106976000D02*
X125219000Y-114024000D01*
X129579000Y-104236000D02*
X129579000Y-116764000D01*
X129459000Y-104255000D02*
X129459000Y-116745000D01*
X125699000Y-106352000D02*
X125699000Y-114648000D01*
X124499000Y-108400000D02*
X124499000Y-112600000D01*
X127739000Y-111940000D02*
X127739000Y-116202000D01*
X128539000Y-104479000D02*
X128539000Y-109060000D01*
X126379000Y-105681000D02*
X126379000Y-115319000D01*
X127059000Y-105178000D02*
X127059000Y-109060000D01*
X127819000Y-104761000D02*
X127819000Y-109060000D01*
X127459000Y-111940000D02*
X127459000Y-116058000D01*
X127659000Y-111940000D02*
X127659000Y-116162000D01*
X129659000Y-104225000D02*
X129659000Y-116775000D01*
X126339000Y-105715000D02*
X126339000Y-115285000D01*
X124219000Y-109472000D02*
X124219000Y-111528000D01*
X126099000Y-105933000D02*
X126099000Y-115067000D01*
X127979000Y-104689000D02*
X127979000Y-109060000D01*
X127699000Y-104818000D02*
X127699000Y-109060000D01*
X129619000Y-104231000D02*
X129619000Y-116769000D01*
X124779000Y-107736000D02*
X124779000Y-113264000D01*
X128299000Y-104561000D02*
X128299000Y-109060000D01*
X136692082Y-106300000D02*
X136692082Y-107550000D01*
X126779000Y-105369000D02*
X126779000Y-109060000D01*
X126979000Y-105230000D02*
X126979000Y-109060000D01*
X129379000Y-111940000D02*
X129379000Y-116731000D01*
X128339000Y-111940000D02*
X128339000Y-116453000D01*
X128179000Y-111940000D02*
X128179000Y-116393000D01*
X128179000Y-104607000D02*
X128179000Y-109060000D01*
X128379000Y-104533000D02*
X128379000Y-109060000D01*
X128579000Y-111940000D02*
X128579000Y-116534000D01*
X129339000Y-111940000D02*
X129339000Y-116724000D01*
X127499000Y-104920000D02*
X127499000Y-109060000D01*
X127299000Y-105032000D02*
X127299000Y-109060000D01*
X129179000Y-104308000D02*
X129179000Y-109060000D01*
X127699000Y-111940000D02*
X127699000Y-116182000D01*
X128859000Y-111940000D02*
X128859000Y-116616000D01*
X124859000Y-107579000D02*
X124859000Y-113421000D01*
X124459000Y-108516000D02*
X124459000Y-112484000D01*
X125419000Y-106696000D02*
X125419000Y-114304000D01*
X128139000Y-111940000D02*
X128139000Y-116377000D01*
X128219000Y-111940000D02*
X128219000Y-116408000D01*
X129980000Y-104191000D02*
X129980000Y-116809000D01*
X125979000Y-106051000D02*
X125979000Y-114949000D01*
X126579000Y-111940000D02*
X126579000Y-115482000D01*
X126219000Y-105822000D02*
X126219000Y-115178000D01*
X127339000Y-105009000D02*
X127339000Y-109060000D01*
X129499000Y-104248000D02*
X129499000Y-116752000D01*
X126619000Y-111940000D02*
X126619000Y-115512000D01*
X126939000Y-105257000D02*
X126939000Y-109060000D01*
X124379000Y-108772000D02*
X124379000Y-112228000D01*
X128099000Y-111940000D02*
X128099000Y-116361000D01*
X127539000Y-111940000D02*
X127539000Y-116101000D01*
X125339000Y-106804000D02*
X125339000Y-114196000D01*
X124699000Y-107906000D02*
X124699000Y-113094000D01*
X124179000Y-109743000D02*
X124179000Y-111257000D01*
X130180000Y-104178000D02*
X130180000Y-116822000D01*
X128459000Y-111940000D02*
X128459000Y-116495000D01*
X128339000Y-104547000D02*
X128339000Y-109060000D01*
X128499000Y-104492000D02*
X128499000Y-109060000D01*
X126979000Y-111940000D02*
X126979000Y-115770000D01*
X128699000Y-111940000D02*
X128699000Y-116571000D01*
X127779000Y-104779000D02*
X127779000Y-109060000D01*
X124579000Y-108188000D02*
X124579000Y-112812000D01*
X127739000Y-104798000D02*
X127739000Y-109060000D01*
X126739000Y-111940000D02*
X126739000Y-115602000D01*
X125899000Y-106133000D02*
X125899000Y-114867000D01*
X126819000Y-105340000D02*
X126819000Y-109060000D01*
X128299000Y-111940000D02*
X128299000Y-116439000D01*
X127299000Y-111940000D02*
X127299000Y-115968000D01*
X127859000Y-111940000D02*
X127859000Y-116258000D01*
X124259000Y-109259000D02*
X124259000Y-111741000D01*
X126499000Y-105582000D02*
X126499000Y-115418000D01*
X129699000Y-104220000D02*
X129699000Y-116780000D01*
X128619000Y-111940000D02*
X128619000Y-116547000D01*
X128859000Y-104384000D02*
X128859000Y-109060000D01*
X125459000Y-106644000D02*
X125459000Y-114356000D01*
X127339000Y-111940000D02*
X127339000Y-115991000D01*
X124539000Y-108291000D02*
X124539000Y-112709000D01*
X127939000Y-104707000D02*
X127939000Y-109060000D01*
X128019000Y-111940000D02*
X128019000Y-116328000D01*
X127979000Y-111940000D02*
X127979000Y-116311000D01*
X124739000Y-107819000D02*
X124739000Y-113181000D01*
X124619000Y-108090000D02*
X124619000Y-112910000D01*
X124339000Y-108917000D02*
X124339000Y-112083000D01*
X124139000Y-110183000D02*
X124139000Y-110817000D01*
X127139000Y-111940000D02*
X127139000Y-115872000D01*
X126859000Y-105312000D02*
X126859000Y-109060000D01*
X127099000Y-111940000D02*
X127099000Y-115847000D01*
X128779000Y-104406000D02*
X128779000Y-109060000D01*
X125019000Y-107292000D02*
X125019000Y-113708000D01*
X129059000Y-111940000D02*
X129059000Y-116666000D01*
X127419000Y-111940000D02*
X127419000Y-116036000D01*
X124299000Y-109078000D02*
X124299000Y-111922000D01*
X127059000Y-111940000D02*
X127059000Y-115822000D01*
X125259000Y-106917000D02*
X125259000Y-114083000D01*
X127899000Y-111940000D02*
X127899000Y-116276000D01*
X128659000Y-111940000D02*
X128659000Y-116559000D01*
X130060000Y-104185000D02*
X130060000Y-116815000D01*
X128939000Y-104363000D02*
X128939000Y-109060000D01*
X130420000Y-104170000D02*
X130420000Y-116830000D01*
X128619000Y-104453000D02*
X128619000Y-109060000D01*
X127539000Y-104899000D02*
X127539000Y-109060000D01*
X127459000Y-104942000D02*
X127459000Y-109060000D01*
X126579000Y-105518000D02*
X126579000Y-109060000D01*
X124659000Y-107996000D02*
X124659000Y-113004000D01*
X129259000Y-104291000D02*
X129259000Y-109060000D01*
X128779000Y-111940000D02*
X128779000Y-116594000D01*
X127019000Y-105204000D02*
X127019000Y-109060000D01*
X127019000Y-111940000D02*
X127019000Y-115796000D01*
X126179000Y-105858000D02*
X126179000Y-115142000D01*
X124419000Y-108639000D02*
X124419000Y-112361000D01*
X126899000Y-111940000D02*
X126899000Y-115716000D01*
X125579000Y-106493000D02*
X125579000Y-114507000D01*
X128739000Y-104417000D02*
X128739000Y-109060000D01*
X128499000Y-111940000D02*
X128499000Y-116508000D01*
X126139000Y-105895000D02*
X126139000Y-115105000D01*
X137317082Y-106925000D02*
X136067082Y-106925000D01*
X129019000Y-111940000D02*
X129019000Y-116656000D01*
X125179000Y-107036000D02*
X125179000Y-113964000D01*
X128059000Y-111940000D02*
X128059000Y-116345000D01*
X125779000Y-106262000D02*
X125779000Y-114738000D01*
X130220000Y-104176000D02*
X130220000Y-116824000D01*
X126459000Y-105615000D02*
X126459000Y-115385000D01*
X125739000Y-106306000D02*
X125739000Y-114694000D01*
X129219000Y-111940000D02*
X129219000Y-116701000D01*
X126419000Y-105648000D02*
X126419000Y-115352000D01*
X129099000Y-104325000D02*
X129099000Y-109060000D01*
X127179000Y-105103000D02*
X127179000Y-109060000D01*
X127259000Y-111940000D02*
X127259000Y-115945000D01*
X129299000Y-104284000D02*
X129299000Y-109060000D01*
X126899000Y-105284000D02*
X126899000Y-109060000D01*
X125499000Y-106593000D02*
X125499000Y-114407000D01*
X128019000Y-104672000D02*
X128019000Y-109060000D01*
X127099000Y-105153000D02*
X127099000Y-109060000D01*
X136870000Y-110500000D02*
G75*
G03*
X136870000Y-110500000I-6370000J0D01*
G01*
%TO.C,X3*%
X103800000Y-132300000D02*
X103800000Y-134700000D01*
X108700000Y-129800000D02*
X106300000Y-129800000D01*
X111200000Y-134700000D02*
X111200000Y-132300000D01*
X106300000Y-137200000D02*
X108700000Y-137200000D01*
%TO.C,X4*%
X131700000Y-129800000D02*
X129300000Y-129800000D01*
X126800000Y-132300000D02*
X126800000Y-134700000D01*
X134200000Y-134700000D02*
X134200000Y-132300000D01*
X129300000Y-137200000D02*
X131700000Y-137200000D01*
%TO.C,R102*%
X130322936Y-127210000D02*
X134677064Y-127210000D01*
X130322936Y-123790000D02*
X134677064Y-123790000D01*
%TO.C,J1*%
X155437500Y-99800000D02*
X155437500Y-100400000D01*
X155437500Y-99500000D02*
X155437500Y-97350000D01*
X158987500Y-105650000D02*
X158987500Y-102750000D01*
X158987500Y-97350000D02*
X158987500Y-100250000D01*
X155437500Y-105650000D02*
X158987500Y-105650000D01*
X155437500Y-97350000D02*
X158987500Y-97350000D01*
X155437500Y-103500000D02*
X155437500Y-105650000D01*
X156187500Y-99800000D02*
X155437500Y-99800000D01*
%TO.C,R103*%
X153322936Y-127210000D02*
X157677064Y-127210000D01*
X153322936Y-123790000D02*
X157677064Y-123790000D01*
%TO.C,X1*%
X88200000Y-107800000D02*
X85800000Y-107800000D01*
X83300000Y-110300000D02*
X83300000Y-112700000D01*
X85800000Y-115200000D02*
X88200000Y-115200000D01*
X90700000Y-112700000D02*
X90700000Y-110300000D01*
%TO.C,C5*%
X95490000Y-93960000D02*
X95490000Y-91778000D01*
X91749759Y-96839000D02*
X92379759Y-96839000D01*
X95810000Y-93960000D02*
X95810000Y-91818000D01*
X95410000Y-98227000D02*
X95410000Y-91773000D01*
X95610000Y-98211000D02*
X95610000Y-96040000D01*
X95250000Y-98230000D02*
X95250000Y-91770000D01*
X97291000Y-93960000D02*
X97291000Y-92484000D01*
X97211000Y-93960000D02*
X97211000Y-92422000D01*
X97331000Y-93960000D02*
X97331000Y-92516000D01*
X98491000Y-95402000D02*
X98491000Y-94598000D01*
X96451000Y-93960000D02*
X96451000Y-91998000D01*
X96411000Y-93960000D02*
X96411000Y-91982000D01*
X96251000Y-93960000D02*
X96251000Y-91926000D01*
X96371000Y-98033000D02*
X96371000Y-96040000D01*
X96891000Y-97790000D02*
X96891000Y-96040000D01*
X97771000Y-97044000D02*
X97771000Y-92956000D01*
X95690000Y-93960000D02*
X95690000Y-91799000D01*
X97211000Y-97578000D02*
X97211000Y-96040000D01*
X97811000Y-96995000D02*
X97811000Y-93005000D01*
X95690000Y-98201000D02*
X95690000Y-96040000D01*
X96531000Y-97970000D02*
X96531000Y-96040000D01*
X95530000Y-98218000D02*
X95530000Y-96040000D01*
X98291000Y-96165000D02*
X98291000Y-93835000D01*
X96691000Y-93960000D02*
X96691000Y-92104000D01*
X96811000Y-97834000D02*
X96811000Y-96040000D01*
X96491000Y-97986000D02*
X96491000Y-96040000D01*
X96051000Y-93960000D02*
X96051000Y-91869000D01*
X95890000Y-93960000D02*
X95890000Y-91833000D01*
X96171000Y-93960000D02*
X96171000Y-91902000D01*
X97051000Y-93960000D02*
X97051000Y-92310000D01*
X95850000Y-93960000D02*
X95850000Y-91825000D01*
X96091000Y-93960000D02*
X96091000Y-91879000D01*
X97291000Y-97516000D02*
X97291000Y-96040000D01*
X96291000Y-93960000D02*
X96291000Y-91939000D01*
X95850000Y-98175000D02*
X95850000Y-96040000D01*
X95650000Y-98206000D02*
X95650000Y-96040000D01*
X96931000Y-93960000D02*
X96931000Y-92234000D01*
X96011000Y-98141000D02*
X96011000Y-96040000D01*
X96571000Y-93960000D02*
X96571000Y-92048000D01*
X97251000Y-97548000D02*
X97251000Y-96040000D01*
X96731000Y-97876000D02*
X96731000Y-96040000D01*
X97051000Y-97690000D02*
X97051000Y-96040000D01*
X95890000Y-98167000D02*
X95890000Y-96040000D01*
X98171000Y-96432000D02*
X98171000Y-93568000D01*
X95570000Y-98215000D02*
X95570000Y-96040000D01*
X95290000Y-98230000D02*
X95290000Y-91770000D01*
X96051000Y-98131000D02*
X96051000Y-96040000D01*
X96171000Y-98098000D02*
X96171000Y-96040000D01*
X98251000Y-96262000D02*
X98251000Y-93738000D01*
X96131000Y-93960000D02*
X96131000Y-91890000D01*
X98091000Y-96581000D02*
X98091000Y-93419000D01*
X97251000Y-93960000D02*
X97251000Y-92452000D01*
X95971000Y-98150000D02*
X95971000Y-96040000D01*
X96891000Y-93960000D02*
X96891000Y-92210000D01*
X97451000Y-93960000D02*
X97451000Y-92620000D01*
X95930000Y-98159000D02*
X95930000Y-96040000D01*
X95971000Y-93960000D02*
X95971000Y-91850000D01*
X97011000Y-97716000D02*
X97011000Y-96040000D01*
X97531000Y-93960000D02*
X97531000Y-92695000D01*
X95490000Y-98222000D02*
X95490000Y-96040000D01*
X98451000Y-95633000D02*
X98451000Y-94367000D01*
X97731000Y-97092000D02*
X97731000Y-92908000D01*
X97851000Y-96944000D02*
X97851000Y-93056000D01*
X96771000Y-93960000D02*
X96771000Y-92144000D01*
X97891000Y-96890000D02*
X97891000Y-93110000D01*
X96651000Y-97916000D02*
X96651000Y-96040000D01*
X97371000Y-97450000D02*
X97371000Y-96040000D01*
X97651000Y-97182000D02*
X97651000Y-92818000D01*
X96211000Y-93960000D02*
X96211000Y-91914000D01*
X96611000Y-97934000D02*
X96611000Y-96040000D01*
X95450000Y-98224000D02*
X95450000Y-91776000D01*
X98211000Y-96350000D02*
X98211000Y-93650000D01*
X96571000Y-97952000D02*
X96571000Y-96040000D01*
X96131000Y-98110000D02*
X96131000Y-96040000D01*
X97611000Y-97224000D02*
X97611000Y-92776000D01*
X97571000Y-97265000D02*
X97571000Y-92735000D01*
X92064759Y-97154000D02*
X92064759Y-96524000D01*
X97091000Y-93960000D02*
X97091000Y-92336000D01*
X97691000Y-97137000D02*
X97691000Y-92863000D01*
X97971000Y-96776000D02*
X97971000Y-93224000D01*
X96851000Y-97812000D02*
X96851000Y-96040000D01*
X97331000Y-97484000D02*
X97331000Y-96040000D01*
X95810000Y-98182000D02*
X95810000Y-96040000D01*
X96651000Y-93960000D02*
X96651000Y-92084000D01*
X95730000Y-98195000D02*
X95730000Y-96040000D01*
X97371000Y-93960000D02*
X97371000Y-92550000D01*
X95370000Y-98228000D02*
X95370000Y-91772000D01*
X96771000Y-97856000D02*
X96771000Y-96040000D01*
X98131000Y-96509000D02*
X98131000Y-93491000D01*
X96091000Y-98121000D02*
X96091000Y-96040000D01*
X96931000Y-97766000D02*
X96931000Y-96040000D01*
X97931000Y-96834000D02*
X97931000Y-93166000D01*
X95770000Y-93960000D02*
X95770000Y-91811000D01*
X95330000Y-98230000D02*
X95330000Y-91770000D01*
X97531000Y-97305000D02*
X97531000Y-96040000D01*
X96971000Y-97742000D02*
X96971000Y-96040000D01*
X97411000Y-97416000D02*
X97411000Y-96040000D01*
X96451000Y-98002000D02*
X96451000Y-96040000D01*
X98371000Y-95940000D02*
X98371000Y-94060000D01*
X97451000Y-97380000D02*
X97451000Y-96040000D01*
X98331000Y-96059000D02*
X98331000Y-93941000D01*
X96371000Y-93960000D02*
X96371000Y-91967000D01*
X95770000Y-98189000D02*
X95770000Y-96040000D01*
X98411000Y-95802000D02*
X98411000Y-94198000D01*
X95930000Y-93960000D02*
X95930000Y-91841000D01*
X98011000Y-96714000D02*
X98011000Y-93286000D01*
X97491000Y-93960000D02*
X97491000Y-92657000D01*
X95530000Y-93960000D02*
X95530000Y-91782000D01*
X95610000Y-93960000D02*
X95610000Y-91789000D01*
X96531000Y-93960000D02*
X96531000Y-92030000D01*
X97131000Y-97636000D02*
X97131000Y-96040000D01*
X96851000Y-93960000D02*
X96851000Y-92188000D01*
X97491000Y-97343000D02*
X97491000Y-96040000D01*
X97011000Y-93960000D02*
X97011000Y-92284000D01*
X95650000Y-93960000D02*
X95650000Y-91794000D01*
X96211000Y-98086000D02*
X96211000Y-96040000D01*
X97091000Y-97664000D02*
X97091000Y-96040000D01*
X96491000Y-93960000D02*
X96491000Y-92014000D01*
X96691000Y-97896000D02*
X96691000Y-96040000D01*
X97171000Y-97607000D02*
X97171000Y-96040000D01*
X96411000Y-98018000D02*
X96411000Y-96040000D01*
X96331000Y-98047000D02*
X96331000Y-96040000D01*
X96251000Y-98074000D02*
X96251000Y-96040000D01*
X95730000Y-93960000D02*
X95730000Y-91805000D01*
X98051000Y-96650000D02*
X98051000Y-93350000D01*
X96811000Y-93960000D02*
X96811000Y-92166000D01*
X96971000Y-93960000D02*
X96971000Y-92258000D01*
X95570000Y-93960000D02*
X95570000Y-91785000D01*
X96291000Y-98061000D02*
X96291000Y-96040000D01*
X97171000Y-93960000D02*
X97171000Y-92393000D01*
X97411000Y-93960000D02*
X97411000Y-92584000D01*
X97131000Y-93960000D02*
X97131000Y-92364000D01*
X96331000Y-93960000D02*
X96331000Y-91953000D01*
X96611000Y-93960000D02*
X96611000Y-92066000D01*
X96731000Y-93960000D02*
X96731000Y-92124000D01*
X96011000Y-93960000D02*
X96011000Y-91859000D01*
X98520000Y-95000000D02*
G75*
G03*
X98520000Y-95000000I-3270000J0D01*
G01*
%TO.C,C103*%
X150157041Y-109560000D02*
X150157041Y-105579000D01*
X148917041Y-116995000D02*
X148917041Y-112440000D01*
X149037041Y-109560000D02*
X149037041Y-105047000D01*
X147797041Y-117264000D02*
X147797041Y-104736000D01*
X150357041Y-116296000D02*
X150357041Y-112440000D01*
X148277041Y-117175000D02*
X148277041Y-112440000D01*
X149197041Y-116893000D02*
X149197041Y-112440000D01*
X148837041Y-109560000D02*
X148837041Y-104979000D01*
X151597041Y-115238000D02*
X151597041Y-106762000D01*
X147637041Y-117285000D02*
X147637041Y-104715000D01*
X148917041Y-109560000D02*
X148917041Y-105005000D01*
X148357041Y-109560000D02*
X148357041Y-104844000D01*
X150717041Y-109560000D02*
X150717041Y-105957000D01*
X150397041Y-116270000D02*
X150397041Y-112440000D01*
X146956041Y-117330000D02*
X146956041Y-104670000D01*
X148357041Y-117156000D02*
X148357041Y-112440000D01*
X152197041Y-114464000D02*
X152197041Y-107536000D01*
X148957041Y-109560000D02*
X148957041Y-105019000D01*
X152317041Y-114275000D02*
X152317041Y-107725000D01*
X151877041Y-114907000D02*
X151877041Y-107093000D01*
X149237041Y-109560000D02*
X149237041Y-105123000D01*
X149477041Y-116776000D02*
X149477041Y-112440000D01*
X147236041Y-117320000D02*
X147236041Y-104680000D01*
X150677041Y-109560000D02*
X150677041Y-105927000D01*
X150357041Y-109560000D02*
X150357041Y-105704000D01*
X148557041Y-117105000D02*
X148557041Y-112440000D01*
X149797041Y-109560000D02*
X149797041Y-105378000D01*
X150077041Y-116468000D02*
X150077041Y-112440000D01*
X148477041Y-109560000D02*
X148477041Y-104874000D01*
X152637041Y-113681000D02*
X152637041Y-108319000D01*
X152077041Y-114640000D02*
X152077041Y-107360000D01*
X148557041Y-109560000D02*
X148557041Y-104895000D01*
X151557041Y-115282000D02*
X151557041Y-106718000D01*
X152557041Y-113844000D02*
X152557041Y-108156000D01*
X147076041Y-117327000D02*
X147076041Y-104673000D01*
X150917041Y-115885000D02*
X150917041Y-106115000D01*
X148157041Y-117201000D02*
X148157041Y-112440000D01*
X140058959Y-114575000D02*
X141308959Y-114575000D01*
X152717041Y-113504000D02*
X152717041Y-108496000D01*
X153077041Y-112422000D02*
X153077041Y-109578000D01*
X153197041Y-111757000D02*
X153197041Y-110243000D01*
X149357041Y-116828000D02*
X149357041Y-112440000D01*
X149637041Y-109560000D02*
X149637041Y-105298000D01*
X149877041Y-116580000D02*
X149877041Y-112440000D01*
X147436041Y-117306000D02*
X147436041Y-104694000D01*
X151837041Y-114957000D02*
X151837041Y-107043000D01*
X149317041Y-109560000D02*
X149317041Y-105155000D01*
X148437041Y-117137000D02*
X148437041Y-112440000D01*
X149517041Y-116758000D02*
X149517041Y-112440000D01*
X149157041Y-116908000D02*
X149157041Y-112440000D01*
X147316041Y-117315000D02*
X147316041Y-104685000D01*
X149277041Y-116861000D02*
X149277041Y-112440000D01*
X147516041Y-117298000D02*
X147516041Y-104702000D01*
X148677041Y-109560000D02*
X148677041Y-104929000D01*
X148397041Y-117146000D02*
X148397041Y-112440000D01*
X140683959Y-115200000D02*
X140683959Y-113950000D01*
X150157041Y-116421000D02*
X150157041Y-112440000D01*
X150637041Y-116102000D02*
X150637041Y-112440000D01*
X148077041Y-117216000D02*
X148077041Y-112440000D01*
X147997041Y-117231000D02*
X147997041Y-112440000D01*
X148517041Y-109560000D02*
X148517041Y-104884000D01*
X148037041Y-117224000D02*
X148037041Y-112440000D01*
X150397041Y-109560000D02*
X150397041Y-105730000D01*
X152437041Y-114069000D02*
X152437041Y-107931000D01*
X149397041Y-116811000D02*
X149397041Y-112440000D01*
X149877041Y-109560000D02*
X149877041Y-105420000D01*
X149397041Y-109560000D02*
X149397041Y-105189000D01*
X148797041Y-117034000D02*
X148797041Y-112440000D01*
X149837041Y-109560000D02*
X149837041Y-105399000D01*
X147957041Y-109560000D02*
X147957041Y-104762000D01*
X148717041Y-109560000D02*
X148717041Y-104941000D01*
X149717041Y-116662000D02*
X149717041Y-112440000D01*
X149997041Y-109560000D02*
X149997041Y-105486000D01*
X149837041Y-116601000D02*
X149837041Y-112440000D01*
X150557041Y-116160000D02*
X150557041Y-112440000D01*
X151997041Y-114750000D02*
X151997041Y-107250000D01*
X148117041Y-109560000D02*
X148117041Y-104791000D01*
X150517041Y-116188000D02*
X150517041Y-112440000D01*
X152157041Y-114524000D02*
X152157041Y-107476000D01*
X151197041Y-115642000D02*
X151197041Y-106358000D01*
X151517041Y-115325000D02*
X151517041Y-106675000D01*
X148757041Y-109560000D02*
X148757041Y-104953000D01*
X152037041Y-114696000D02*
X152037041Y-107304000D01*
X148197041Y-109560000D02*
X148197041Y-104808000D01*
X152397041Y-114140000D02*
X152397041Y-107860000D01*
X147677041Y-117280000D02*
X147677041Y-104720000D01*
X147276041Y-117318000D02*
X147276041Y-104682000D01*
X149757041Y-109560000D02*
X149757041Y-105358000D01*
X147196041Y-117322000D02*
X147196041Y-104678000D01*
X149917041Y-116558000D02*
X149917041Y-112440000D01*
X148837041Y-117021000D02*
X148837041Y-112440000D01*
X148877041Y-117008000D02*
X148877041Y-112440000D01*
X152997041Y-112728000D02*
X152997041Y-109272000D01*
X152517041Y-113921000D02*
X152517041Y-108079000D01*
X152957041Y-112861000D02*
X152957041Y-109139000D01*
X149117041Y-116924000D02*
X149117041Y-112440000D01*
X151317041Y-115528000D02*
X151317041Y-106472000D01*
X150997041Y-115819000D02*
X150997041Y-106181000D01*
X149237041Y-116877000D02*
X149237041Y-112440000D01*
X149357041Y-109560000D02*
X149357041Y-105172000D01*
X148317041Y-109560000D02*
X148317041Y-104834000D01*
X148957041Y-116981000D02*
X148957041Y-112440000D01*
X147837041Y-117258000D02*
X147837041Y-104742000D01*
X150637041Y-109560000D02*
X150637041Y-105898000D01*
X148997041Y-109560000D02*
X148997041Y-105033000D01*
X152477041Y-113996000D02*
X152477041Y-108004000D01*
X152117041Y-114583000D02*
X152117041Y-107417000D01*
X149957041Y-116536000D02*
X149957041Y-112440000D01*
X148677041Y-117071000D02*
X148677041Y-112440000D01*
X150477041Y-109560000D02*
X150477041Y-105784000D01*
X150197041Y-109560000D02*
X150197041Y-105603000D01*
X150037041Y-109560000D02*
X150037041Y-105509000D01*
X152837041Y-113209000D02*
X152837041Y-108791000D01*
X150597041Y-109560000D02*
X150597041Y-105869000D01*
X150237041Y-109560000D02*
X150237041Y-105628000D01*
X149477041Y-109560000D02*
X149477041Y-105224000D01*
X151157041Y-115678000D02*
X151157041Y-106322000D01*
X149557041Y-116739000D02*
X149557041Y-112440000D01*
X150437041Y-116243000D02*
X150437041Y-112440000D01*
X147556041Y-117294000D02*
X147556041Y-104706000D01*
X147156041Y-117324000D02*
X147156041Y-104676000D01*
X152277041Y-114339000D02*
X152277041Y-107661000D01*
X148117041Y-117209000D02*
X148117041Y-112440000D01*
X151957041Y-114804000D02*
X151957041Y-107196000D01*
X151437041Y-115408000D02*
X151437041Y-106592000D01*
X150597041Y-116131000D02*
X150597041Y-112440000D01*
X149117041Y-109560000D02*
X149117041Y-105076000D01*
X148717041Y-117059000D02*
X148717041Y-112440000D01*
X147717041Y-117275000D02*
X147717041Y-104725000D01*
X147877041Y-117252000D02*
X147877041Y-104748000D01*
X150877041Y-115918000D02*
X150877041Y-106082000D01*
X149077041Y-116939000D02*
X149077041Y-112440000D01*
X150437041Y-109560000D02*
X150437041Y-105757000D01*
X146916041Y-117330000D02*
X146916041Y-104670000D01*
X151797041Y-115007000D02*
X151797041Y-106993000D01*
X146996041Y-117329000D02*
X146996041Y-104671000D01*
X148237041Y-117184000D02*
X148237041Y-112440000D01*
X149637041Y-116702000D02*
X149637041Y-112440000D01*
X148637041Y-117083000D02*
X148637041Y-112440000D01*
X147476041Y-117302000D02*
X147476041Y-104698000D01*
X148997041Y-116967000D02*
X148997041Y-112440000D01*
X151237041Y-115605000D02*
X151237041Y-106395000D01*
X149597041Y-109560000D02*
X149597041Y-105279000D01*
X147396041Y-117309000D02*
X147396041Y-104691000D01*
X151477041Y-115367000D02*
X151477041Y-106633000D01*
X153117041Y-112241000D02*
X153117041Y-109759000D01*
X150517041Y-109560000D02*
X150517041Y-105812000D01*
X147757041Y-117269000D02*
X147757041Y-104731000D01*
X148437041Y-109560000D02*
X148437041Y-104863000D01*
X149517041Y-109560000D02*
X149517041Y-105242000D01*
X149957041Y-109560000D02*
X149957041Y-105464000D01*
X149037041Y-116953000D02*
X149037041Y-112440000D01*
X147356041Y-117312000D02*
X147356041Y-104688000D01*
X147997041Y-109560000D02*
X147997041Y-104769000D01*
X151677041Y-115148000D02*
X151677041Y-106852000D01*
X150117041Y-109560000D02*
X150117041Y-105555000D01*
X151917041Y-114856000D02*
X151917041Y-107144000D01*
X148077041Y-109560000D02*
X148077041Y-104784000D01*
X148517041Y-117116000D02*
X148517041Y-112440000D01*
X147597041Y-117290000D02*
X147597041Y-104710000D01*
X151757041Y-115055000D02*
X151757041Y-106945000D01*
X149677041Y-109560000D02*
X149677041Y-105318000D01*
X152757041Y-113410000D02*
X152757041Y-108590000D01*
X153157041Y-112028000D02*
X153157041Y-109972000D01*
X153037041Y-112583000D02*
X153037041Y-109417000D01*
X149677041Y-116682000D02*
X149677041Y-112440000D01*
X150317041Y-109560000D02*
X150317041Y-105678000D01*
X149757041Y-116642000D02*
X149757041Y-112440000D01*
X149197041Y-109560000D02*
X149197041Y-105107000D01*
X152357041Y-114208000D02*
X152357041Y-107792000D01*
X151117041Y-115714000D02*
X151117041Y-106286000D01*
X148877041Y-109560000D02*
X148877041Y-104992000D01*
X147917041Y-117245000D02*
X147917041Y-104755000D01*
X149557041Y-109560000D02*
X149557041Y-105261000D01*
X149997041Y-116514000D02*
X149997041Y-112440000D01*
X148477041Y-117126000D02*
X148477041Y-112440000D01*
X148237041Y-109560000D02*
X148237041Y-104816000D01*
X148317041Y-117166000D02*
X148317041Y-112440000D01*
X150957041Y-115852000D02*
X150957041Y-106148000D01*
X150557041Y-109560000D02*
X150557041Y-105840000D01*
X150317041Y-116322000D02*
X150317041Y-112440000D01*
X149437041Y-109560000D02*
X149437041Y-105207000D01*
X150677041Y-116073000D02*
X150677041Y-112440000D01*
X151357041Y-115489000D02*
X151357041Y-106511000D01*
X152597041Y-113764000D02*
X152597041Y-108236000D01*
X150757041Y-109560000D02*
X150757041Y-105988000D01*
X151637041Y-115194000D02*
X151637041Y-106806000D01*
X150757041Y-116012000D02*
X150757041Y-112440000D01*
X149797041Y-116622000D02*
X149797041Y-112440000D01*
X151397041Y-115449000D02*
X151397041Y-106551000D01*
X150197041Y-116397000D02*
X150197041Y-112440000D01*
X153237041Y-111317000D02*
X153237041Y-110683000D01*
X150277041Y-116347000D02*
X150277041Y-112440000D01*
X148597041Y-109560000D02*
X148597041Y-104906000D01*
X152677041Y-113594000D02*
X152677041Y-108406000D01*
X148597041Y-117094000D02*
X148597041Y-112440000D01*
X147036041Y-117328000D02*
X147036041Y-104672000D01*
X151037041Y-115785000D02*
X151037041Y-106215000D01*
X150797041Y-115982000D02*
X150797041Y-112440000D01*
X150077041Y-109560000D02*
X150077041Y-105532000D01*
X150797041Y-109560000D02*
X150797041Y-106018000D01*
X149157041Y-109560000D02*
X149157041Y-105092000D01*
X147116041Y-117326000D02*
X147116041Y-104674000D01*
X150277041Y-109560000D02*
X150277041Y-105653000D01*
X152877041Y-113100000D02*
X152877041Y-108900000D01*
X148797041Y-109560000D02*
X148797041Y-104966000D01*
X148037041Y-109560000D02*
X148037041Y-104776000D01*
X150117041Y-116445000D02*
X150117041Y-112440000D01*
X148197041Y-117192000D02*
X148197041Y-112440000D01*
X149597041Y-116721000D02*
X149597041Y-112440000D01*
X151717041Y-115102000D02*
X151717041Y-106898000D01*
X149717041Y-109560000D02*
X149717041Y-105338000D01*
X146876041Y-117330000D02*
X146876041Y-104670000D01*
X150037041Y-116491000D02*
X150037041Y-112440000D01*
X149437041Y-116793000D02*
X149437041Y-112440000D01*
X149277041Y-109560000D02*
X149277041Y-105139000D01*
X150717041Y-116043000D02*
X150717041Y-112440000D01*
X151077041Y-115750000D02*
X151077041Y-106250000D01*
X148637041Y-109560000D02*
X148637041Y-104917000D01*
X148157041Y-109560000D02*
X148157041Y-104799000D01*
X149917041Y-109560000D02*
X149917041Y-105442000D01*
X152797041Y-113312000D02*
X152797041Y-108688000D01*
X152917041Y-112984000D02*
X152917041Y-109016000D01*
X148757041Y-117047000D02*
X148757041Y-112440000D01*
X152237041Y-114402000D02*
X152237041Y-107598000D01*
X149317041Y-116845000D02*
X149317041Y-112440000D01*
X151277041Y-115567000D02*
X151277041Y-106433000D01*
X149077041Y-109560000D02*
X149077041Y-105061000D01*
X148397041Y-109560000D02*
X148397041Y-104854000D01*
X147957041Y-117238000D02*
X147957041Y-112440000D01*
X150477041Y-116216000D02*
X150477041Y-112440000D01*
X148277041Y-109560000D02*
X148277041Y-104825000D01*
X150237041Y-116372000D02*
X150237041Y-112440000D01*
X150837041Y-115950000D02*
X150837041Y-106050000D01*
X153246041Y-111000000D02*
G75*
G03*
X153246041Y-111000000I-6370000J0D01*
G01*
%TO.C,J4*%
X134290000Y-104230000D02*
X134290000Y-101570000D01*
X141970000Y-104230000D02*
X141970000Y-101570000D01*
X144570000Y-104230000D02*
X144570000Y-102900000D01*
X141970000Y-101570000D02*
X134290000Y-101570000D01*
X143240000Y-104230000D02*
X144570000Y-104230000D01*
X141970000Y-104230000D02*
X134290000Y-104230000D01*
%TO.C,X5*%
X149800000Y-132300000D02*
X149800000Y-134700000D01*
X157200000Y-134700000D02*
X157200000Y-132300000D01*
X152300000Y-137200000D02*
X154700000Y-137200000D01*
X154700000Y-129800000D02*
X152300000Y-129800000D01*
%TO.C,R101*%
X107322936Y-123790000D02*
X111677064Y-123790000D01*
X107322936Y-127210000D02*
X111677064Y-127210000D01*
%TO.C,X2*%
X83300000Y-132800000D02*
X83300000Y-135200000D01*
X90700000Y-135200000D02*
X90700000Y-132800000D01*
X85800000Y-137700000D02*
X88200000Y-137700000D01*
X88200000Y-130300000D02*
X85800000Y-130300000D01*
%TD*%
M02*
