%TF.GenerationSoftware,KiCad,Pcbnew,(6.99.0-2501-g45393f228a)*%
%TF.CreationDate,2022-08-09T23:28:24+12:00*%
%TF.ProjectId,bldc_hardware_riscv,626c6463-5f68-4617-9264-776172655f72,rev?*%
%TF.SameCoordinates,Original*%
%TF.FileFunction,Copper,L4,Bot*%
%TF.FilePolarity,Positive*%
%FSLAX46Y46*%
G04 Gerber Fmt 4.6, Leading zero omitted, Abs format (unit mm)*
G04 Created by KiCad (PCBNEW (6.99.0-2501-g45393f228a)) date 2022-08-09 23:28:24*
%MOMM*%
%LPD*%
G01*
G04 APERTURE LIST*
G04 Aperture macros list*
%AMRoundRect*
0 Rectangle with rounded corners*
0 $1 Rounding radius*
0 $2 $3 $4 $5 $6 $7 $8 $9 X,Y pos of 4 corners*
0 Add a 4 corners polygon primitive as box body*
4,1,4,$2,$3,$4,$5,$6,$7,$8,$9,$2,$3,0*
0 Add four circle primitives for the rounded corners*
1,1,$1+$1,$2,$3*
1,1,$1+$1,$4,$5*
1,1,$1+$1,$6,$7*
1,1,$1+$1,$8,$9*
0 Add four rect primitives between the rounded corners*
20,1,$1+$1,$2,$3,$4,$5,0*
20,1,$1+$1,$4,$5,$6,$7,0*
20,1,$1+$1,$6,$7,$8,$9,0*
20,1,$1+$1,$8,$9,$2,$3,0*%
G04 Aperture macros list end*
%TA.AperFunction,ComponentPad*%
%ADD10R,1.905000X2.000000*%
%TD*%
%TA.AperFunction,ComponentPad*%
%ADD11O,1.905000X2.000000*%
%TD*%
%TA.AperFunction,ComponentPad*%
%ADD12R,1.600000X1.600000*%
%TD*%
%TA.AperFunction,ComponentPad*%
%ADD13C,1.600000*%
%TD*%
%TA.AperFunction,ComponentPad*%
%ADD14RoundRect,0.250000X0.350000X0.625000X-0.350000X0.625000X-0.350000X-0.625000X0.350000X-0.625000X0*%
%TD*%
%TA.AperFunction,ComponentPad*%
%ADD15O,1.200000X1.750000*%
%TD*%
%TA.AperFunction,ComponentPad*%
%ADD16RoundRect,0.250000X-0.350000X-0.625000X0.350000X-0.625000X0.350000X0.625000X-0.350000X0.625000X0*%
%TD*%
%TA.AperFunction,ComponentPad*%
%ADD17R,2.400000X2.400000*%
%TD*%
%TA.AperFunction,ComponentPad*%
%ADD18C,2.400000*%
%TD*%
%TA.AperFunction,ComponentPad*%
%ADD19C,3.200000*%
%TD*%
%TA.AperFunction,SMDPad,CuDef*%
%ADD20R,1.500000X0.450000*%
%TD*%
%TA.AperFunction,ComponentPad*%
%ADD21O,1.100000X1.800000*%
%TD*%
%TA.AperFunction,ComponentPad*%
%ADD22O,1.100000X2.200000*%
%TD*%
%TA.AperFunction,ComponentPad*%
%ADD23R,1.700000X1.700000*%
%TD*%
%TA.AperFunction,ComponentPad*%
%ADD24O,1.700000X1.700000*%
%TD*%
%TA.AperFunction,ViaPad*%
%ADD25C,0.500000*%
%TD*%
%TA.AperFunction,ViaPad*%
%ADD26C,0.700000*%
%TD*%
%TA.AperFunction,Conductor*%
%ADD27C,0.250000*%
%TD*%
%TA.AperFunction,Conductor*%
%ADD28C,1.000000*%
%TD*%
%TA.AperFunction,Conductor*%
%ADD29C,0.400000*%
%TD*%
%TA.AperFunction,Conductor*%
%ADD30C,0.700000*%
%TD*%
G04 APERTURE END LIST*
D10*
%TO.P,Q2,1,G*%
%TO.N,Net-(D2-A)*%
X99599999Y-118999999D03*
D11*
%TO.P,Q2,2,D*%
%TO.N,/Driver/VS1*%
X97059999Y-118999999D03*
%TO.P,Q2,3,S*%
%TO.N,GND*%
X94519999Y-118999999D03*
%TD*%
D10*
%TO.P,Q5,1,G*%
%TO.N,Net-(D10-A)*%
X155599999Y-118999999D03*
D11*
%TO.P,Q5,2,D*%
%TO.N,/Driver/99V*%
X153059999Y-118999999D03*
%TO.P,Q5,3,S*%
%TO.N,/Driver/VS3*%
X150519999Y-118999999D03*
%TD*%
D10*
%TO.P,Q6,1,G*%
%TO.N,Net-(D11-A)*%
X144599999Y-118999999D03*
D11*
%TO.P,Q6,2,D*%
%TO.N,/Driver/VS3*%
X142059999Y-118999999D03*
%TO.P,Q6,3,S*%
%TO.N,GND*%
X139519999Y-118999999D03*
%TD*%
D10*
%TO.P,Q1,1,G*%
%TO.N,Net-(D1-A)*%
X110599999Y-118999999D03*
D11*
%TO.P,Q1,2,D*%
%TO.N,/Driver/99V*%
X108059999Y-118999999D03*
%TO.P,Q1,3,S*%
%TO.N,/Driver/VS1*%
X105519999Y-118999999D03*
%TD*%
D10*
%TO.P,Q4,1,G*%
%TO.N,Net-(D5-A)*%
X122099999Y-118999999D03*
D11*
%TO.P,Q4,2,D*%
%TO.N,/Driver/VS2*%
X119559999Y-118999999D03*
%TO.P,Q4,3,S*%
%TO.N,GND*%
X117019999Y-118999999D03*
%TD*%
D10*
%TO.P,Q3,1,G*%
%TO.N,Net-(D4-A)*%
X133099999Y-118999999D03*
D11*
%TO.P,Q3,2,D*%
%TO.N,/Driver/99V*%
X130559999Y-118999999D03*
%TO.P,Q3,3,S*%
%TO.N,/Driver/VS2*%
X128019999Y-118999999D03*
%TD*%
D12*
%TO.P,C17,1*%
%TO.N,/Driver/12V*%
X99999999Y-84499999D03*
D13*
%TO.P,C17,2*%
%TO.N,GND*%
X100000000Y-87000000D03*
%TD*%
D14*
%TO.P,J3,1,Pin_1*%
%TO.N,/ADC_EXT*%
X115600000Y-95350000D03*
D15*
%TO.P,J3,2,Pin_2*%
%TO.N,Net-(J3-Pin_2)*%
X113599999Y-95349999D03*
%TO.P,J3,3,Pin_3*%
%TO.N,Net-(J3-Pin_3)*%
X111599999Y-95349999D03*
%TO.P,J3,4,Pin_4*%
%TO.N,/CANH*%
X109599999Y-95349999D03*
%TO.P,J3,5,Pin_5*%
%TO.N,/CANL*%
X107599999Y-95349999D03*
%TO.P,J3,6,Pin_6*%
%TO.N,GND*%
X105599999Y-95349999D03*
%TD*%
D16*
%TO.P,J2,1,Pin_1*%
%TO.N,/HALL-VCC*%
X113500000Y-83550000D03*
D15*
%TO.P,J2,2,Pin_2*%
%TO.N,/MOTOR-TEMP*%
X115499999Y-83549999D03*
%TO.P,J2,3,Pin_3*%
%TO.N,/HALL1*%
X117499999Y-83549999D03*
%TO.P,J2,4,Pin_4*%
%TO.N,/HALL2*%
X119499999Y-83549999D03*
%TO.P,J2,5,Pin_5*%
%TO.N,/HALL3*%
X121499999Y-83549999D03*
%TO.P,J2,6,Pin_6*%
%TO.N,GND*%
X123499999Y-83549999D03*
%TD*%
D17*
%TO.P,C101,1*%
%TO.N,/Driver/99V*%
X105999999Y-110499999D03*
D18*
%TO.P,C101,2*%
%TO.N,GND*%
X101000000Y-110500000D03*
%TD*%
D17*
%TO.P,C102,1*%
%TO.N,/Driver/99V*%
X132999999Y-110499999D03*
D18*
%TO.P,C102,2*%
%TO.N,GND*%
X128000000Y-110500000D03*
%TD*%
D19*
%TO.P,X3,1*%
%TO.N,/Driver/PhaseA*%
X99500000Y-137000000D03*
X99500000Y-131000000D03*
X94500000Y-137000000D03*
X94500000Y-131000000D03*
%TD*%
%TO.P,X4,1*%
%TO.N,/Driver/PhaseB*%
X122000000Y-137000000D03*
X122000000Y-131000000D03*
X117000000Y-137000000D03*
X117000000Y-131000000D03*
%TD*%
D20*
%TO.P,J1,1,VBUS*%
%TO.N,unconnected-(J1-VBUS)*%
X156437499Y-100199999D03*
%TO.P,J1,2,D-*%
%TO.N,Net-(J1-D-)*%
X156437499Y-100849999D03*
%TO.P,J1,3,D+*%
%TO.N,Net-(J1-D+)*%
X156437499Y-101499999D03*
%TO.P,J1,4,ID*%
%TO.N,unconnected-(J1-ID)*%
X156437499Y-102149999D03*
%TO.P,J1,5,GND*%
%TO.N,GND*%
X156437499Y-102799999D03*
D21*
%TO.P,J1,6,Shield*%
%TO.N,unconnected-(J1-Shield)*%
X156187499Y-98699999D03*
D22*
X158337499Y-101499999D03*
D21*
X156187499Y-104299999D03*
%TD*%
D19*
%TO.P,X1,1*%
%TO.N,/Driver/99V*%
X89200000Y-114500000D03*
X89200000Y-108500000D03*
X84200000Y-114500000D03*
X84200000Y-108500000D03*
%TD*%
D12*
%TO.P,C5,1*%
%TO.N,/Driver/75V*%
X93999999Y-94999999D03*
D13*
%TO.P,C5,2*%
%TO.N,GND*%
X96500000Y-95000000D03*
%TD*%
D17*
%TO.P,C103,1*%
%TO.N,/Driver/99V*%
X149423958Y-110499999D03*
D18*
%TO.P,C103,2*%
%TO.N,GND*%
X144423959Y-110500000D03*
%TD*%
D23*
%TO.P,J4,1,Pin_1*%
%TO.N,GND*%
X134999999Y-102599999D03*
D24*
%TO.P,J4,2,Pin_2*%
%TO.N,/3.3V*%
X137539999Y-102599999D03*
%TO.P,J4,3,Pin_3*%
%TO.N,/SWCK*%
X140079999Y-102599999D03*
%TO.P,J4,4,Pin_4*%
%TO.N,/SWIO*%
X142619999Y-102599999D03*
%TD*%
D19*
%TO.P,X5,1*%
%TO.N,/Driver/PhaseC*%
X144500000Y-137000000D03*
X144500000Y-131000000D03*
X139500000Y-137000000D03*
X139500000Y-131000000D03*
%TD*%
D23*
%TO.P,J5,1,Pin_1*%
%TO.N,GND*%
X158199999Y-87399999D03*
D24*
%TO.P,J5,2,Pin_2*%
%TO.N,/DEBUG_TX*%
X158199999Y-84859999D03*
%TO.P,J5,3,Pin_3*%
%TO.N,/DEBUG_RX*%
X158199999Y-82319999D03*
%TD*%
D19*
%TO.P,X2,1*%
%TO.N,GND*%
X89200000Y-126700000D03*
X89200000Y-120700000D03*
X84200000Y-126700000D03*
X84200000Y-120700000D03*
%TD*%
D25*
%TO.N,/3.3V*%
X133500000Y-90100000D03*
%TO.N,Net-(D2-A)*%
X97700000Y-116000000D03*
%TO.N,Net-(D5-A)*%
X113500000Y-116000000D03*
%TO.N,/BOOT0*%
X145400000Y-96000000D03*
X130500000Y-98400000D03*
%TO.N,Net-(D11-A)*%
X137100000Y-116000000D03*
%TO.N,Net-(J1-D-)*%
X155000000Y-100500000D03*
%TO.N,/BLE_MODE*%
X142700000Y-82700000D03*
X100300000Y-96100000D03*
X87100000Y-103500000D03*
%TO.N,/BLE_TX*%
X87100000Y-101500000D03*
X140800000Y-82600000D03*
X101000000Y-94100000D03*
%TO.N,Net-(J1-D+)*%
X155000000Y-101500000D03*
%TO.N,/AIN_CS3*%
X158500000Y-133100000D03*
X146000000Y-86000000D03*
%TO.N,/AIN_CS2*%
X146500000Y-83000000D03*
X141900000Y-126900000D03*
%TO.N,/AIN_CS1*%
X147000000Y-86000000D03*
X118800000Y-126100000D03*
%TO.N,/AIN_VS1*%
X120500000Y-99500000D03*
X151702471Y-85996500D03*
%TO.N,/AIN_VS2*%
X124500000Y-99500000D03*
X150000000Y-84500000D03*
%TO.N,/AIN_VS3*%
X128500000Y-99500000D03*
X148000000Y-86000000D03*
%TO.N,/AIN_VIN*%
X110100000Y-102600000D03*
X144500000Y-86000000D03*
%TO.N,/ADC_EXT*%
X143500000Y-88100000D03*
X124800000Y-91900000D03*
%TO.N,/DEBUG_TX*%
X138600000Y-82600000D03*
%TO.N,/DEBUG_RX*%
X137800000Y-82600000D03*
%TO.N,GND*%
X91800000Y-97700000D03*
X96400000Y-106300000D03*
X152300000Y-98400000D03*
X126600000Y-84200000D03*
X107600000Y-105300000D03*
X96500000Y-104900000D03*
D26*
X106700000Y-84500000D03*
D25*
X84900000Y-101800000D03*
X132400000Y-132200000D03*
X115500000Y-90000000D03*
X123500000Y-100500000D03*
X90500000Y-100200000D03*
D26*
X104100000Y-84500000D03*
D25*
X97800000Y-103000000D03*
X92400000Y-125600000D03*
D26*
X103200000Y-81000000D03*
X107900000Y-84500000D03*
D25*
X129400000Y-92500000D03*
X132400000Y-132900000D03*
X156100000Y-81100000D03*
X91900000Y-104900000D03*
X136900000Y-82600000D03*
D26*
X107300000Y-81000000D03*
D25*
X151800000Y-89000000D03*
X90500000Y-104100000D03*
X93000000Y-97700000D03*
X89000000Y-104900000D03*
X133700000Y-82600000D03*
X156100000Y-91300000D03*
X101800000Y-99500000D03*
X154914500Y-133037763D03*
X120000000Y-90000000D03*
X127500000Y-101000000D03*
D26*
X83100000Y-90800000D03*
D25*
X112000000Y-88500000D03*
X121300000Y-90000000D03*
X123500000Y-82100000D03*
X119500000Y-100000000D03*
X97800000Y-104900000D03*
X156100000Y-85000000D03*
X148500000Y-102300000D03*
X117000000Y-89000000D03*
X154700000Y-98400000D03*
X139500000Y-105700000D03*
D26*
X110000000Y-87000000D03*
D25*
X156100000Y-89500000D03*
D26*
X104700000Y-81000000D03*
D25*
X94400000Y-104900000D03*
X84900000Y-104900000D03*
X110000000Y-85200000D03*
X152000000Y-93500000D03*
X156100000Y-82700000D03*
X92400000Y-127600000D03*
X97800000Y-99300000D03*
X154914500Y-132337763D03*
X155300000Y-96600000D03*
X125100000Y-84200000D03*
D26*
X105400000Y-84500000D03*
D25*
X94000000Y-124300000D03*
X90500000Y-102800000D03*
X130000000Y-81000000D03*
X87100000Y-104900000D03*
D26*
X108900000Y-87000000D03*
D25*
X112300000Y-102500000D03*
X109900000Y-132200000D03*
X130900000Y-84200000D03*
X109900000Y-132900000D03*
X97800000Y-98000000D03*
X112000000Y-87500000D03*
X156100000Y-96600000D03*
X107000000Y-100400000D03*
X117000000Y-90000000D03*
X152300000Y-94700000D03*
X96900000Y-127600000D03*
X153600000Y-81100000D03*
D26*
X84000000Y-91300000D03*
X93700000Y-89000000D03*
D25*
X154800000Y-104000000D03*
X112500000Y-104800000D03*
X90500000Y-99000000D03*
D26*
X106000000Y-81000000D03*
D25*
X135100000Y-101100000D03*
X90500000Y-97700000D03*
D26*
X83100000Y-92600000D03*
D25*
X123500000Y-81100000D03*
X118500000Y-90000000D03*
X84900000Y-103300000D03*
%TO.N,/3.3V*%
X95000000Y-103800000D03*
X133600000Y-84700000D03*
X99800000Y-102500000D03*
X127400000Y-89400000D03*
X101800000Y-101000000D03*
X150400000Y-99400000D03*
X152200000Y-96600000D03*
X152600000Y-87900000D03*
X110000000Y-91900000D03*
X147700000Y-83000000D03*
X136200000Y-83500000D03*
X134700000Y-98500000D03*
X149400000Y-100600000D03*
%TO.N,/AIN_V12V*%
X99600000Y-81300000D03*
X144800000Y-88100000D03*
%TO.N,/Driver/LO2*%
X110500000Y-105500000D03*
X119000000Y-114500000D03*
%TO.N,/Driver/LO3*%
X142500000Y-114500000D03*
X111000000Y-110500000D03*
D26*
%TO.N,/Driver/12V*%
X115100000Y-88400000D03*
X118000000Y-100500000D03*
X101800000Y-97000000D03*
X113500000Y-99000000D03*
X92500000Y-122100000D03*
D25*
%TO.N,/Driver/5V*%
X133800000Y-134700000D03*
X156300000Y-134700000D03*
X111300000Y-134700000D03*
X95300000Y-125700000D03*
%TO.N,/MOTOR-TEMP*%
X139700000Y-90300000D03*
X120500000Y-88500000D03*
%TO.N,/HALL1*%
X131500000Y-88500000D03*
%TO.N,/HALL2*%
X130500000Y-88500000D03*
%TO.N,/HALL3*%
X129500000Y-88500000D03*
%TO.N,/UART_T*%
X119500000Y-92300000D03*
X141700000Y-91700000D03*
%TO.N,/UART_R*%
X142500000Y-91700000D03*
X116600000Y-93300000D03*
%TO.N,/LED1*%
X147000000Y-103200000D03*
X145400000Y-104900000D03*
%TO.N,/LED2*%
X145400000Y-106600000D03*
X147700000Y-102700000D03*
%TO.N,/CAN-R*%
X138900000Y-94900000D03*
X104900000Y-103000000D03*
%TO.N,/CAN-T*%
X140000000Y-94900000D03*
X104900000Y-98100000D03*
%TO.N,/SWIO*%
X133000000Y-100400000D03*
%TO.N,/BLE_RX*%
X139800000Y-82300000D03*
X101000000Y-94900000D03*
X87100000Y-102500000D03*
D26*
%TO.N,/Driver/75V*%
X91400000Y-90000000D03*
X91400000Y-89000000D03*
D25*
X92600000Y-106800000D03*
X92600000Y-106200000D03*
D26*
X89400000Y-89000000D03*
X90400000Y-89000000D03*
%TD*%
D27*
%TO.N,Net-(J1-D-)*%
X156437500Y-100850000D02*
X155350000Y-100850000D01*
X155350000Y-100850000D02*
X155000000Y-100500000D01*
%TO.N,/BLE_MODE*%
X131649040Y-80950960D02*
X131749040Y-80950960D01*
X122450960Y-90149040D02*
X131649040Y-80950960D01*
X101606428Y-93400000D02*
X100700000Y-93400000D01*
X122450960Y-90149040D02*
X122450960Y-92706894D01*
X100700000Y-93400000D02*
X100300000Y-93800000D01*
X140950960Y-80950960D02*
X131749040Y-80950960D01*
X104957388Y-96750960D02*
X101606428Y-93400000D01*
X142700000Y-82700000D02*
X140950960Y-80950960D01*
X122450960Y-92706894D02*
X118406894Y-96750960D01*
X100300000Y-93800000D02*
X100300000Y-96100000D01*
X118406894Y-96750960D02*
X104957388Y-96750960D01*
%TO.N,/BLE_TX*%
X104750480Y-97250480D02*
X101600000Y-94100000D01*
X101600000Y-94100000D02*
X101000000Y-94100000D01*
X140800000Y-82100000D02*
X140150480Y-81450480D01*
X140800000Y-82600000D02*
X140800000Y-82100000D01*
X131849520Y-81450480D02*
X132049520Y-81450480D01*
X140150480Y-81450480D02*
X132049520Y-81450480D01*
X118613802Y-97250480D02*
X104750480Y-97250480D01*
X122950480Y-90349520D02*
X131849520Y-81450480D01*
X122950480Y-90349520D02*
X122950480Y-92913802D01*
X122950480Y-92913802D02*
X118613802Y-97250480D01*
%TO.N,Net-(J1-D+)*%
X155000000Y-101500000D02*
X156437500Y-101500000D01*
D28*
%TO.N,unconnected-(J1-Shield)*%
X156187500Y-98700000D02*
X157600000Y-98700000D01*
X158337500Y-101500000D02*
X158337500Y-103562500D01*
X158337500Y-103562500D02*
X157600000Y-104300000D01*
X157600000Y-104300000D02*
X156187500Y-104300000D01*
X157600000Y-98700000D02*
X158337500Y-99437500D01*
X158337500Y-99437500D02*
X158337500Y-101500000D01*
D27*
%TO.N,GND*%
X154800000Y-103100000D02*
X155100000Y-102800000D01*
X154800000Y-104300000D02*
X154800000Y-103100000D01*
X155100000Y-102800000D02*
X156437500Y-102800000D01*
D29*
%TO.N,/Driver/12V*%
X101800000Y-97000000D02*
X103800000Y-99000000D01*
X103800000Y-99000000D02*
X113500000Y-99000000D01*
D27*
%TO.N,/BLE_RX*%
X132050000Y-81950000D02*
X123449999Y-90550001D01*
X103499897Y-99724511D02*
X116846198Y-99724511D01*
X101000000Y-97224614D02*
X103499897Y-99724511D01*
X139800000Y-82300000D02*
X139450000Y-81950000D01*
X123450000Y-93120709D02*
X123449999Y-90649999D01*
X132050000Y-81950000D02*
X137850000Y-81950000D01*
X139450000Y-81950000D02*
X137850000Y-81950000D01*
X101000000Y-94900000D02*
X101000000Y-97224614D01*
X123449999Y-90550001D02*
X123449999Y-90649999D01*
X116846198Y-99724511D02*
X123450000Y-93120709D01*
D30*
%TO.N,/Driver/75V*%
X92600000Y-105800000D02*
X92600000Y-106800000D01*
X94000000Y-99400000D02*
X93260000Y-100140000D01*
X93260000Y-100140000D02*
X93260000Y-105140000D01*
X93260000Y-105140000D02*
X92600000Y-105800000D01*
X94000000Y-95000000D02*
X94000000Y-99400000D01*
%TD*%
%TA.AperFunction,Conductor*%
%TO.N,/3.3V*%
G36*
X154959191Y-82018907D02*
G01*
X154995155Y-82068407D01*
X155000000Y-82099000D01*
X155000000Y-95847430D01*
X154981093Y-95905621D01*
X154953672Y-95931255D01*
X154829110Y-96009523D01*
X154709523Y-96129110D01*
X154706565Y-96133818D01*
X154706564Y-96133819D01*
X154685050Y-96168059D01*
X154619544Y-96272310D01*
X154563687Y-96431941D01*
X154563064Y-96437470D01*
X154554219Y-96515970D01*
X154544751Y-96600000D01*
X154563687Y-96768059D01*
X154619544Y-96927690D01*
X154709523Y-97070890D01*
X154829110Y-97190477D01*
X154833818Y-97193435D01*
X154833819Y-97193436D01*
X154953671Y-97268744D01*
X154992883Y-97315713D01*
X155000000Y-97352570D01*
X155000000Y-97570328D01*
X154981093Y-97628519D01*
X154931593Y-97664483D01*
X154879381Y-97663900D01*
X154878728Y-97666761D01*
X154873309Y-97665524D01*
X154868059Y-97663687D01*
X154862532Y-97663064D01*
X154862531Y-97663064D01*
X154705529Y-97645374D01*
X154700000Y-97644751D01*
X154531941Y-97663687D01*
X154372310Y-97719544D01*
X154229110Y-97809523D01*
X154109523Y-97929110D01*
X154019544Y-98072310D01*
X153963687Y-98231941D01*
X153944751Y-98400000D01*
X153963687Y-98568059D01*
X154019544Y-98727690D01*
X154109523Y-98870890D01*
X154229110Y-98990477D01*
X154372310Y-99080456D01*
X154531941Y-99136313D01*
X154700000Y-99155249D01*
X154705529Y-99154626D01*
X154862531Y-99136936D01*
X154862532Y-99136936D01*
X154868059Y-99136313D01*
X154873309Y-99134476D01*
X154878728Y-99133239D01*
X154879353Y-99135977D01*
X154929483Y-99134858D01*
X154979773Y-99169707D01*
X155000000Y-99229672D01*
X155000000Y-99656280D01*
X154981093Y-99714471D01*
X154931593Y-99750435D01*
X154912094Y-99754656D01*
X154831941Y-99763687D01*
X154672310Y-99819544D01*
X154529110Y-99909523D01*
X154409523Y-100029110D01*
X154319544Y-100172310D01*
X154263687Y-100331941D01*
X154244751Y-100500000D01*
X154245374Y-100505529D01*
X154258856Y-100625179D01*
X154263687Y-100668059D01*
X154319544Y-100827690D01*
X154322499Y-100832393D01*
X154322503Y-100832401D01*
X154394718Y-100947328D01*
X154409669Y-101006659D01*
X154394718Y-101052672D01*
X154322503Y-101167599D01*
X154322499Y-101167607D01*
X154319544Y-101172310D01*
X154317708Y-101177558D01*
X154298064Y-101233697D01*
X154260998Y-101282378D01*
X154204619Y-101300000D01*
X142999301Y-101300000D01*
X142973678Y-101296627D01*
X142855408Y-101264937D01*
X142620000Y-101244341D01*
X142384592Y-101264937D01*
X142266322Y-101296627D01*
X142240699Y-101300000D01*
X140459301Y-101300000D01*
X140433678Y-101296627D01*
X140315408Y-101264937D01*
X140080000Y-101244341D01*
X139844592Y-101264937D01*
X139726322Y-101296627D01*
X139700699Y-101300000D01*
X136093558Y-101300000D01*
X136058962Y-101293758D01*
X135957483Y-101255909D01*
X135951330Y-101255247D01*
X135951328Y-101255247D01*
X135942784Y-101254329D01*
X135938052Y-101253820D01*
X135882216Y-101228801D01*
X135851749Y-101175740D01*
X135850257Y-101144302D01*
X135850808Y-101139417D01*
X135855249Y-101100000D01*
X135836313Y-100931941D01*
X135780456Y-100772310D01*
X135755378Y-100732398D01*
X135693436Y-100633819D01*
X135693435Y-100633818D01*
X135690477Y-100629110D01*
X135570890Y-100509523D01*
X135564534Y-100505529D01*
X135432398Y-100422502D01*
X135432396Y-100422501D01*
X135427690Y-100419544D01*
X135268059Y-100363687D01*
X135100000Y-100344751D01*
X134931941Y-100363687D01*
X134772310Y-100419544D01*
X134767604Y-100422501D01*
X134767602Y-100422502D01*
X134635466Y-100505529D01*
X134629110Y-100509523D01*
X134509523Y-100629110D01*
X134506565Y-100633818D01*
X134506564Y-100633819D01*
X134444623Y-100732398D01*
X134419544Y-100772310D01*
X134363687Y-100931941D01*
X134344751Y-101100000D01*
X134349193Y-101139419D01*
X134336919Y-101199359D01*
X134291757Y-101240638D01*
X134250815Y-101249501D01*
X134102128Y-101249501D01*
X134042517Y-101255909D01*
X133941038Y-101293758D01*
X133906442Y-101300000D01*
X133299000Y-101300000D01*
X133240809Y-101281093D01*
X133204845Y-101231593D01*
X133200000Y-101201000D01*
X133200000Y-101195381D01*
X133218907Y-101137190D01*
X133266303Y-101101936D01*
X133287637Y-101094471D01*
X133327690Y-101080456D01*
X133409407Y-101029110D01*
X133466181Y-100993436D01*
X133466182Y-100993435D01*
X133470890Y-100990477D01*
X133590477Y-100870890D01*
X133593436Y-100866181D01*
X133677498Y-100732398D01*
X133677499Y-100732396D01*
X133680456Y-100727690D01*
X133736313Y-100568059D01*
X133755249Y-100400000D01*
X133736313Y-100231941D01*
X133680456Y-100072310D01*
X133656271Y-100033819D01*
X133593436Y-99933819D01*
X133593435Y-99933818D01*
X133590477Y-99929110D01*
X133470890Y-99809523D01*
X133466181Y-99806564D01*
X133332398Y-99722502D01*
X133332396Y-99722501D01*
X133327690Y-99719544D01*
X133266303Y-99698064D01*
X133217622Y-99660998D01*
X133200000Y-99604619D01*
X133200000Y-98400000D01*
X151544751Y-98400000D01*
X151563687Y-98568059D01*
X151619544Y-98727690D01*
X151709523Y-98870890D01*
X151829110Y-98990477D01*
X151972310Y-99080456D01*
X152131941Y-99136313D01*
X152300000Y-99155249D01*
X152305529Y-99154626D01*
X152462530Y-99136936D01*
X152468059Y-99136313D01*
X152627690Y-99080456D01*
X152770890Y-98990477D01*
X152890477Y-98870890D01*
X152980456Y-98727690D01*
X153036313Y-98568059D01*
X153055249Y-98400000D01*
X153036313Y-98231941D01*
X152980456Y-98072310D01*
X152890477Y-97929110D01*
X152770890Y-97809523D01*
X152627690Y-97719544D01*
X152468059Y-97663687D01*
X152300000Y-97644751D01*
X152131941Y-97663687D01*
X151972310Y-97719544D01*
X151829110Y-97809523D01*
X151709523Y-97929110D01*
X151619544Y-98072310D01*
X151563687Y-98231941D01*
X151544751Y-98400000D01*
X133200000Y-98400000D01*
X133200000Y-96000000D01*
X144644751Y-96000000D01*
X144645374Y-96005529D01*
X144658856Y-96125179D01*
X144663687Y-96168059D01*
X144719544Y-96327690D01*
X144722501Y-96332396D01*
X144722502Y-96332398D01*
X144788524Y-96437470D01*
X144809523Y-96470890D01*
X144929110Y-96590477D01*
X144933818Y-96593435D01*
X144933819Y-96593436D01*
X144944266Y-96600000D01*
X145072310Y-96680456D01*
X145231941Y-96736313D01*
X145400000Y-96755249D01*
X145405529Y-96754626D01*
X145562530Y-96736936D01*
X145568059Y-96736313D01*
X145727690Y-96680456D01*
X145855735Y-96600000D01*
X145866181Y-96593436D01*
X145866182Y-96593435D01*
X145870890Y-96590477D01*
X145990477Y-96470890D01*
X146011476Y-96437470D01*
X146077498Y-96332398D01*
X146077499Y-96332396D01*
X146080456Y-96327690D01*
X146136313Y-96168059D01*
X146141145Y-96125179D01*
X146154626Y-96005529D01*
X146155249Y-96000000D01*
X146136313Y-95831941D01*
X146080456Y-95672310D01*
X146069345Y-95654626D01*
X145993436Y-95533819D01*
X145993435Y-95533818D01*
X145990477Y-95529110D01*
X145870890Y-95409523D01*
X145866181Y-95406564D01*
X145732398Y-95322502D01*
X145732396Y-95322501D01*
X145727690Y-95319544D01*
X145568059Y-95263687D01*
X145400000Y-95244751D01*
X145231941Y-95263687D01*
X145072310Y-95319544D01*
X145067604Y-95322501D01*
X145067602Y-95322502D01*
X144933819Y-95406564D01*
X144929110Y-95409523D01*
X144809523Y-95529110D01*
X144806565Y-95533818D01*
X144806564Y-95533819D01*
X144730656Y-95654626D01*
X144719544Y-95672310D01*
X144663687Y-95831941D01*
X144644751Y-96000000D01*
X133200000Y-96000000D01*
X133200000Y-94900000D01*
X138144751Y-94900000D01*
X138163687Y-95068059D01*
X138219544Y-95227690D01*
X138222501Y-95232396D01*
X138222502Y-95232398D01*
X138306564Y-95366181D01*
X138309523Y-95370890D01*
X138429110Y-95490477D01*
X138433818Y-95493435D01*
X138433819Y-95493436D01*
X138490594Y-95529110D01*
X138572310Y-95580456D01*
X138731941Y-95636313D01*
X138900000Y-95655249D01*
X138905529Y-95654626D01*
X139062530Y-95636936D01*
X139068059Y-95636313D01*
X139227690Y-95580456D01*
X139309407Y-95529110D01*
X139366181Y-95493436D01*
X139366182Y-95493435D01*
X139370890Y-95490477D01*
X139379996Y-95481371D01*
X139434513Y-95453594D01*
X139494945Y-95463165D01*
X139520004Y-95481371D01*
X139529110Y-95490477D01*
X139533818Y-95493435D01*
X139533819Y-95493436D01*
X139590594Y-95529110D01*
X139672310Y-95580456D01*
X139831941Y-95636313D01*
X140000000Y-95655249D01*
X140005529Y-95654626D01*
X140162530Y-95636936D01*
X140168059Y-95636313D01*
X140327690Y-95580456D01*
X140409407Y-95529110D01*
X140466181Y-95493436D01*
X140466182Y-95493435D01*
X140470890Y-95490477D01*
X140590477Y-95370890D01*
X140593436Y-95366181D01*
X140677498Y-95232398D01*
X140677499Y-95232396D01*
X140680456Y-95227690D01*
X140736313Y-95068059D01*
X140755249Y-94900000D01*
X140736313Y-94731941D01*
X140680456Y-94572310D01*
X140658565Y-94537470D01*
X140593436Y-94433819D01*
X140593435Y-94433818D01*
X140590477Y-94429110D01*
X140470890Y-94309523D01*
X140402159Y-94266336D01*
X140332398Y-94222502D01*
X140332396Y-94222501D01*
X140327690Y-94219544D01*
X140168059Y-94163687D01*
X140000000Y-94144751D01*
X139831941Y-94163687D01*
X139672310Y-94219544D01*
X139667604Y-94222501D01*
X139667602Y-94222502D01*
X139597841Y-94266336D01*
X139529110Y-94309523D01*
X139520004Y-94318629D01*
X139465487Y-94346406D01*
X139405055Y-94336835D01*
X139379996Y-94318629D01*
X139370890Y-94309523D01*
X139302159Y-94266336D01*
X139232398Y-94222502D01*
X139232396Y-94222501D01*
X139227690Y-94219544D01*
X139068059Y-94163687D01*
X138900000Y-94144751D01*
X138731941Y-94163687D01*
X138572310Y-94219544D01*
X138567604Y-94222501D01*
X138567602Y-94222502D01*
X138497841Y-94266336D01*
X138429110Y-94309523D01*
X138309523Y-94429110D01*
X138306565Y-94433818D01*
X138306564Y-94433819D01*
X138241436Y-94537470D01*
X138219544Y-94572310D01*
X138163687Y-94731941D01*
X138144751Y-94900000D01*
X133200000Y-94900000D01*
X133200000Y-93500000D01*
X151244751Y-93500000D01*
X151263687Y-93668059D01*
X151319544Y-93827690D01*
X151409523Y-93970890D01*
X151529110Y-94090477D01*
X151533818Y-94093435D01*
X151533819Y-94093436D01*
X151637081Y-94158320D01*
X151676293Y-94205289D01*
X151680409Y-94266336D01*
X151668236Y-94294817D01*
X151622502Y-94367602D01*
X151619544Y-94372310D01*
X151563687Y-94531941D01*
X151544751Y-94700000D01*
X151563687Y-94868059D01*
X151619544Y-95027690D01*
X151622501Y-95032396D01*
X151622502Y-95032398D01*
X151648208Y-95073308D01*
X151709523Y-95170890D01*
X151829110Y-95290477D01*
X151833818Y-95293435D01*
X151833819Y-95293436D01*
X151957086Y-95370890D01*
X151972310Y-95380456D01*
X152131941Y-95436313D01*
X152300000Y-95455249D01*
X152305529Y-95454626D01*
X152462530Y-95436936D01*
X152468059Y-95436313D01*
X152627690Y-95380456D01*
X152642915Y-95370890D01*
X152766181Y-95293436D01*
X152766182Y-95293435D01*
X152770890Y-95290477D01*
X152890477Y-95170890D01*
X152951792Y-95073308D01*
X152977498Y-95032398D01*
X152977499Y-95032396D01*
X152980456Y-95027690D01*
X153036313Y-94868059D01*
X153055249Y-94700000D01*
X153036313Y-94531941D01*
X152980456Y-94372310D01*
X152964180Y-94346406D01*
X152893436Y-94233819D01*
X152893435Y-94233818D01*
X152890477Y-94229110D01*
X152770890Y-94109523D01*
X152662919Y-94041680D01*
X152623707Y-93994711D01*
X152619591Y-93933664D01*
X152631764Y-93905183D01*
X152677498Y-93832398D01*
X152677499Y-93832396D01*
X152680456Y-93827690D01*
X152736313Y-93668059D01*
X152755249Y-93500000D01*
X152736313Y-93331941D01*
X152680456Y-93172310D01*
X152590477Y-93029110D01*
X152470890Y-92909523D01*
X152327690Y-92819544D01*
X152168059Y-92763687D01*
X152000000Y-92744751D01*
X151831941Y-92763687D01*
X151672310Y-92819544D01*
X151529110Y-92909523D01*
X151409523Y-93029110D01*
X151319544Y-93172310D01*
X151263687Y-93331941D01*
X151244751Y-93500000D01*
X133200000Y-93500000D01*
X133200000Y-91700000D01*
X140944751Y-91700000D01*
X140963687Y-91868059D01*
X141019544Y-92027690D01*
X141109523Y-92170890D01*
X141229110Y-92290477D01*
X141233818Y-92293435D01*
X141233819Y-92293436D01*
X141367601Y-92377497D01*
X141372310Y-92380456D01*
X141531941Y-92436313D01*
X141700000Y-92455249D01*
X141705529Y-92454626D01*
X141862530Y-92436936D01*
X141868059Y-92436313D01*
X142027690Y-92380456D01*
X142047327Y-92368117D01*
X142106657Y-92353165D01*
X142152673Y-92368117D01*
X142172310Y-92380456D01*
X142331941Y-92436313D01*
X142500000Y-92455249D01*
X142505529Y-92454626D01*
X142662530Y-92436936D01*
X142668059Y-92436313D01*
X142827690Y-92380456D01*
X142832400Y-92377497D01*
X142966181Y-92293436D01*
X142966182Y-92293435D01*
X142970890Y-92290477D01*
X143090477Y-92170890D01*
X143180456Y-92027690D01*
X143236313Y-91868059D01*
X143255249Y-91700000D01*
X143236313Y-91531941D01*
X143180456Y-91372310D01*
X143090477Y-91229110D01*
X142970890Y-91109523D01*
X142884514Y-91055249D01*
X142832398Y-91022502D01*
X142832396Y-91022501D01*
X142827690Y-91019544D01*
X142668059Y-90963687D01*
X142500000Y-90944751D01*
X142331941Y-90963687D01*
X142172310Y-91019544D01*
X142167600Y-91022503D01*
X142167601Y-91022503D01*
X142152673Y-91031883D01*
X142093343Y-91046835D01*
X142047327Y-91031883D01*
X142032399Y-91022503D01*
X142032400Y-91022503D01*
X142027690Y-91019544D01*
X141868059Y-90963687D01*
X141700000Y-90944751D01*
X141531941Y-90963687D01*
X141372310Y-91019544D01*
X141367604Y-91022501D01*
X141367602Y-91022502D01*
X141315486Y-91055249D01*
X141229110Y-91109523D01*
X141109523Y-91229110D01*
X141019544Y-91372310D01*
X140963687Y-91531941D01*
X140944751Y-91700000D01*
X133200000Y-91700000D01*
X133200000Y-90300000D01*
X138944751Y-90300000D01*
X138963687Y-90468059D01*
X139019544Y-90627690D01*
X139109523Y-90770890D01*
X139229110Y-90890477D01*
X139233818Y-90893435D01*
X139233819Y-90893436D01*
X139316478Y-90945374D01*
X139372310Y-90980456D01*
X139531941Y-91036313D01*
X139700000Y-91055249D01*
X139705529Y-91054626D01*
X139862530Y-91036936D01*
X139868059Y-91036313D01*
X140027690Y-90980456D01*
X140083523Y-90945374D01*
X140166181Y-90893436D01*
X140166182Y-90893435D01*
X140170890Y-90890477D01*
X140290477Y-90770890D01*
X140380456Y-90627690D01*
X140436313Y-90468059D01*
X140455249Y-90300000D01*
X140436313Y-90131941D01*
X140380456Y-89972310D01*
X140290477Y-89829110D01*
X140170890Y-89709523D01*
X140166181Y-89706564D01*
X140032398Y-89622502D01*
X140032396Y-89622501D01*
X140027690Y-89619544D01*
X139868059Y-89563687D01*
X139700000Y-89544751D01*
X139531941Y-89563687D01*
X139372310Y-89619544D01*
X139367604Y-89622501D01*
X139367602Y-89622502D01*
X139233819Y-89706564D01*
X139229110Y-89709523D01*
X139109523Y-89829110D01*
X139019544Y-89972310D01*
X138963687Y-90131941D01*
X138944751Y-90300000D01*
X133200000Y-90300000D01*
X133200000Y-89000000D01*
X151044751Y-89000000D01*
X151063687Y-89168059D01*
X151119544Y-89327690D01*
X151209523Y-89470890D01*
X151329110Y-89590477D01*
X151333818Y-89593435D01*
X151333819Y-89593436D01*
X151375370Y-89619544D01*
X151472310Y-89680456D01*
X151631941Y-89736313D01*
X151800000Y-89755249D01*
X151805529Y-89754626D01*
X151962530Y-89736936D01*
X151968059Y-89736313D01*
X152127690Y-89680456D01*
X152224631Y-89619544D01*
X152266181Y-89593436D01*
X152266182Y-89593435D01*
X152270890Y-89590477D01*
X152390477Y-89470890D01*
X152480456Y-89327690D01*
X152536313Y-89168059D01*
X152555249Y-89000000D01*
X152536313Y-88831941D01*
X152480456Y-88672310D01*
X152413771Y-88566181D01*
X152393436Y-88533819D01*
X152393435Y-88533818D01*
X152390477Y-88529110D01*
X152270890Y-88409523D01*
X152127690Y-88319544D01*
X151968059Y-88263687D01*
X151800000Y-88244751D01*
X151631941Y-88263687D01*
X151472310Y-88319544D01*
X151329110Y-88409523D01*
X151209523Y-88529110D01*
X151206565Y-88533818D01*
X151206564Y-88533819D01*
X151186230Y-88566181D01*
X151119544Y-88672310D01*
X151063687Y-88831941D01*
X151044751Y-89000000D01*
X133200000Y-89000000D01*
X133200000Y-88100000D01*
X142744751Y-88100000D01*
X142763687Y-88268059D01*
X142819544Y-88427690D01*
X142822501Y-88432396D01*
X142822502Y-88432398D01*
X142898655Y-88553594D01*
X142909523Y-88570890D01*
X143029110Y-88690477D01*
X143172310Y-88780456D01*
X143331941Y-88836313D01*
X143500000Y-88855249D01*
X143505529Y-88854626D01*
X143662530Y-88836936D01*
X143668059Y-88836313D01*
X143827690Y-88780456D01*
X143970890Y-88690477D01*
X144079996Y-88581371D01*
X144134513Y-88553594D01*
X144194945Y-88563165D01*
X144220004Y-88581371D01*
X144329110Y-88690477D01*
X144472310Y-88780456D01*
X144631941Y-88836313D01*
X144800000Y-88855249D01*
X144805529Y-88854626D01*
X144962530Y-88836936D01*
X144968059Y-88836313D01*
X145127690Y-88780456D01*
X145270890Y-88690477D01*
X145390477Y-88570890D01*
X145401345Y-88553594D01*
X145477498Y-88432398D01*
X145477499Y-88432396D01*
X145480456Y-88427690D01*
X145536313Y-88268059D01*
X145555249Y-88100000D01*
X145536313Y-87931941D01*
X145480456Y-87772310D01*
X145390477Y-87629110D01*
X145270890Y-87509523D01*
X145127690Y-87419544D01*
X144968059Y-87363687D01*
X144800000Y-87344751D01*
X144631941Y-87363687D01*
X144472310Y-87419544D01*
X144329110Y-87509523D01*
X144220004Y-87618629D01*
X144165487Y-87646406D01*
X144105055Y-87636835D01*
X144079996Y-87618629D01*
X143970890Y-87509523D01*
X143827690Y-87419544D01*
X143668059Y-87363687D01*
X143500000Y-87344751D01*
X143331941Y-87363687D01*
X143172310Y-87419544D01*
X143029110Y-87509523D01*
X142909523Y-87629110D01*
X142819544Y-87772310D01*
X142763687Y-87931941D01*
X142744751Y-88100000D01*
X133200000Y-88100000D01*
X133200000Y-86000000D01*
X143744751Y-86000000D01*
X143763687Y-86168059D01*
X143819544Y-86327690D01*
X143822501Y-86332396D01*
X143822502Y-86332398D01*
X143904365Y-86462681D01*
X143909523Y-86470890D01*
X144029110Y-86590477D01*
X144033818Y-86593435D01*
X144033819Y-86593436D01*
X144167601Y-86677497D01*
X144172310Y-86680456D01*
X144331941Y-86736313D01*
X144500000Y-86755249D01*
X144505529Y-86754626D01*
X144662530Y-86736936D01*
X144668059Y-86736313D01*
X144827690Y-86680456D01*
X144832400Y-86677497D01*
X144966181Y-86593436D01*
X144966182Y-86593435D01*
X144970890Y-86590477D01*
X145090477Y-86470890D01*
X145105760Y-86446568D01*
X145166175Y-86350419D01*
X145213143Y-86311207D01*
X145274190Y-86307092D01*
X145325997Y-86339645D01*
X145333825Y-86350419D01*
X145394240Y-86446568D01*
X145409523Y-86470890D01*
X145529110Y-86590477D01*
X145533818Y-86593435D01*
X145533819Y-86593436D01*
X145667601Y-86677497D01*
X145672310Y-86680456D01*
X145831941Y-86736313D01*
X146000000Y-86755249D01*
X146005529Y-86754626D01*
X146162530Y-86736936D01*
X146168059Y-86736313D01*
X146327690Y-86680456D01*
X146332393Y-86677501D01*
X146332401Y-86677497D01*
X146447328Y-86605282D01*
X146506659Y-86590331D01*
X146552672Y-86605282D01*
X146667599Y-86677497D01*
X146667607Y-86677501D01*
X146672310Y-86680456D01*
X146831941Y-86736313D01*
X147000000Y-86755249D01*
X147005529Y-86754626D01*
X147162530Y-86736936D01*
X147168059Y-86736313D01*
X147327690Y-86680456D01*
X147332393Y-86677501D01*
X147332401Y-86677497D01*
X147447328Y-86605282D01*
X147506659Y-86590331D01*
X147552672Y-86605282D01*
X147667599Y-86677497D01*
X147667607Y-86677501D01*
X147672310Y-86680456D01*
X147831941Y-86736313D01*
X148000000Y-86755249D01*
X148005529Y-86754626D01*
X148162530Y-86736936D01*
X148168059Y-86736313D01*
X148327690Y-86680456D01*
X148332400Y-86677497D01*
X148466181Y-86593436D01*
X148466182Y-86593435D01*
X148470890Y-86590477D01*
X148590477Y-86470890D01*
X148595635Y-86462681D01*
X148677498Y-86332398D01*
X148677499Y-86332396D01*
X148680456Y-86327690D01*
X148736313Y-86168059D01*
X148755249Y-86000000D01*
X148754855Y-85996500D01*
X150947222Y-85996500D01*
X150966158Y-86164559D01*
X151022015Y-86324190D01*
X151111994Y-86467390D01*
X151231581Y-86586977D01*
X151374781Y-86676956D01*
X151534412Y-86732813D01*
X151702471Y-86751749D01*
X151708000Y-86751126D01*
X151865001Y-86733436D01*
X151870530Y-86732813D01*
X152030161Y-86676956D01*
X152173361Y-86586977D01*
X152292948Y-86467390D01*
X152382927Y-86324190D01*
X152438784Y-86164559D01*
X152457720Y-85996500D01*
X152438784Y-85828441D01*
X152382927Y-85668810D01*
X152377615Y-85660355D01*
X152295907Y-85530319D01*
X152295906Y-85530318D01*
X152292948Y-85525610D01*
X152173361Y-85406023D01*
X152168652Y-85403064D01*
X152034869Y-85319002D01*
X152034867Y-85319001D01*
X152030161Y-85316044D01*
X151870530Y-85260187D01*
X151702471Y-85241251D01*
X151534412Y-85260187D01*
X151374781Y-85316044D01*
X151370075Y-85319001D01*
X151370073Y-85319002D01*
X151236290Y-85403064D01*
X151231581Y-85406023D01*
X151111994Y-85525610D01*
X151109036Y-85530318D01*
X151109035Y-85530319D01*
X151027328Y-85660355D01*
X151022015Y-85668810D01*
X150966158Y-85828441D01*
X150947222Y-85996500D01*
X148754855Y-85996500D01*
X148736313Y-85831941D01*
X148680456Y-85672310D01*
X148666175Y-85649581D01*
X148593436Y-85533819D01*
X148593435Y-85533818D01*
X148590477Y-85529110D01*
X148470890Y-85409523D01*
X148447328Y-85394718D01*
X148332398Y-85322502D01*
X148332396Y-85322501D01*
X148327690Y-85319544D01*
X148168059Y-85263687D01*
X148000000Y-85244751D01*
X147831941Y-85263687D01*
X147672310Y-85319544D01*
X147667607Y-85322499D01*
X147667599Y-85322503D01*
X147552672Y-85394718D01*
X147493341Y-85409669D01*
X147447328Y-85394718D01*
X147332401Y-85322503D01*
X147332393Y-85322499D01*
X147327690Y-85319544D01*
X147168059Y-85263687D01*
X147000000Y-85244751D01*
X146831941Y-85263687D01*
X146672310Y-85319544D01*
X146667607Y-85322499D01*
X146667599Y-85322503D01*
X146552672Y-85394718D01*
X146493341Y-85409669D01*
X146447328Y-85394718D01*
X146332401Y-85322503D01*
X146332393Y-85322499D01*
X146327690Y-85319544D01*
X146168059Y-85263687D01*
X146000000Y-85244751D01*
X145831941Y-85263687D01*
X145672310Y-85319544D01*
X145667604Y-85322501D01*
X145667602Y-85322502D01*
X145552672Y-85394718D01*
X145529110Y-85409523D01*
X145409523Y-85529110D01*
X145406563Y-85533821D01*
X145333825Y-85649581D01*
X145286857Y-85688793D01*
X145225810Y-85692908D01*
X145174003Y-85660355D01*
X145166175Y-85649581D01*
X145093437Y-85533821D01*
X145090477Y-85529110D01*
X144970890Y-85409523D01*
X144947328Y-85394718D01*
X144832398Y-85322502D01*
X144832396Y-85322501D01*
X144827690Y-85319544D01*
X144668059Y-85263687D01*
X144500000Y-85244751D01*
X144331941Y-85263687D01*
X144172310Y-85319544D01*
X144167604Y-85322501D01*
X144167602Y-85322502D01*
X144052672Y-85394718D01*
X144029110Y-85409523D01*
X143909523Y-85529110D01*
X143906565Y-85533818D01*
X143906564Y-85533819D01*
X143833826Y-85649581D01*
X143819544Y-85672310D01*
X143763687Y-85831941D01*
X143744751Y-86000000D01*
X133200000Y-86000000D01*
X133200000Y-84500000D01*
X149244751Y-84500000D01*
X149263687Y-84668059D01*
X149319544Y-84827690D01*
X149409523Y-84970890D01*
X149529110Y-85090477D01*
X149672310Y-85180456D01*
X149831941Y-85236313D01*
X150000000Y-85255249D01*
X150005529Y-85254626D01*
X150162530Y-85236936D01*
X150168059Y-85236313D01*
X150327690Y-85180456D01*
X150470890Y-85090477D01*
X150590477Y-84970890D01*
X150680456Y-84827690D01*
X150736313Y-84668059D01*
X150755249Y-84500000D01*
X150736313Y-84331941D01*
X150680456Y-84172310D01*
X150590477Y-84029110D01*
X150470890Y-83909523D01*
X150327690Y-83819544D01*
X150168059Y-83763687D01*
X150000000Y-83744751D01*
X149831941Y-83763687D01*
X149672310Y-83819544D01*
X149529110Y-83909523D01*
X149409523Y-84029110D01*
X149319544Y-84172310D01*
X149263687Y-84331941D01*
X149244751Y-84500000D01*
X133200000Y-84500000D01*
X133200000Y-83351314D01*
X133218907Y-83293123D01*
X133268407Y-83257159D01*
X133329593Y-83257159D01*
X133351670Y-83267488D01*
X133367597Y-83277495D01*
X133367600Y-83277496D01*
X133372310Y-83280456D01*
X133531941Y-83336313D01*
X133700000Y-83355249D01*
X133705529Y-83354626D01*
X133734924Y-83351314D01*
X133868059Y-83336313D01*
X134027690Y-83280456D01*
X134032400Y-83277497D01*
X134166181Y-83193436D01*
X134166182Y-83193435D01*
X134170890Y-83190477D01*
X134290477Y-83070890D01*
X134300305Y-83055249D01*
X134377498Y-82932398D01*
X134377499Y-82932396D01*
X134380456Y-82927690D01*
X134436313Y-82768059D01*
X134446510Y-82677558D01*
X134448104Y-82663415D01*
X134473408Y-82607707D01*
X134526623Y-82577512D01*
X134546481Y-82575500D01*
X136053519Y-82575500D01*
X136111710Y-82594407D01*
X136147674Y-82643907D01*
X136151896Y-82663415D01*
X136153490Y-82677558D01*
X136163687Y-82768059D01*
X136219544Y-82927690D01*
X136222501Y-82932396D01*
X136222502Y-82932398D01*
X136299695Y-83055249D01*
X136309523Y-83070890D01*
X136429110Y-83190477D01*
X136433818Y-83193435D01*
X136433819Y-83193436D01*
X136567601Y-83277497D01*
X136572310Y-83280456D01*
X136731941Y-83336313D01*
X136900000Y-83355249D01*
X136905529Y-83354626D01*
X136934924Y-83351314D01*
X137068059Y-83336313D01*
X137227690Y-83280456D01*
X137232398Y-83277498D01*
X137297329Y-83236699D01*
X137356660Y-83221749D01*
X137402671Y-83236699D01*
X137467602Y-83277498D01*
X137472310Y-83280456D01*
X137631941Y-83336313D01*
X137800000Y-83355249D01*
X137805529Y-83354626D01*
X137834924Y-83351314D01*
X137968059Y-83336313D01*
X138127690Y-83280456D01*
X138147327Y-83268117D01*
X138206657Y-83253165D01*
X138252673Y-83268117D01*
X138272310Y-83280456D01*
X138431941Y-83336313D01*
X138600000Y-83355249D01*
X138605529Y-83354626D01*
X138634924Y-83351314D01*
X138768059Y-83336313D01*
X138927690Y-83280456D01*
X138932400Y-83277497D01*
X139066181Y-83193436D01*
X139066182Y-83193435D01*
X139070890Y-83190477D01*
X139190477Y-83070890D01*
X139200697Y-83054626D01*
X139258320Y-82962919D01*
X139305289Y-82923707D01*
X139366336Y-82919591D01*
X139394817Y-82931764D01*
X139444400Y-82962919D01*
X139472310Y-82980456D01*
X139631941Y-83036313D01*
X139800000Y-83055249D01*
X139805529Y-83054626D01*
X139962530Y-83036936D01*
X139968059Y-83036313D01*
X139973309Y-83034476D01*
X139973313Y-83034475D01*
X140073672Y-82999358D01*
X140134842Y-82997985D01*
X140185137Y-83032829D01*
X140190195Y-83040130D01*
X140209523Y-83070890D01*
X140329110Y-83190477D01*
X140333818Y-83193435D01*
X140333819Y-83193436D01*
X140467601Y-83277497D01*
X140472310Y-83280456D01*
X140631941Y-83336313D01*
X140800000Y-83355249D01*
X140805529Y-83354626D01*
X140834924Y-83351314D01*
X140968059Y-83336313D01*
X141127690Y-83280456D01*
X141132400Y-83277497D01*
X141266181Y-83193436D01*
X141266182Y-83193435D01*
X141270890Y-83190477D01*
X141390477Y-83070890D01*
X141400305Y-83055249D01*
X141477498Y-82932398D01*
X141477499Y-82932396D01*
X141480456Y-82927690D01*
X141536313Y-82768059D01*
X141548450Y-82660341D01*
X141573753Y-82604634D01*
X141626969Y-82574438D01*
X141687769Y-82581289D01*
X141716831Y-82601422D01*
X141938497Y-82823088D01*
X141963405Y-82868158D01*
X141963687Y-82868059D01*
X142019544Y-83027690D01*
X142022501Y-83032396D01*
X142022502Y-83032398D01*
X142104270Y-83162530D01*
X142109523Y-83170890D01*
X142229110Y-83290477D01*
X142233818Y-83293435D01*
X142233819Y-83293436D01*
X142332194Y-83355249D01*
X142372310Y-83380456D01*
X142531941Y-83436313D01*
X142700000Y-83455249D01*
X142705529Y-83454626D01*
X142862530Y-83436936D01*
X142868059Y-83436313D01*
X143027690Y-83380456D01*
X143067807Y-83355249D01*
X143166181Y-83293436D01*
X143166182Y-83293435D01*
X143170890Y-83290477D01*
X143290477Y-83170890D01*
X143295730Y-83162530D01*
X143377498Y-83032398D01*
X143377499Y-83032396D01*
X143380456Y-83027690D01*
X143390145Y-83000000D01*
X145744751Y-83000000D01*
X145763687Y-83168059D01*
X145819544Y-83327690D01*
X145822501Y-83332396D01*
X145822502Y-83332398D01*
X145899695Y-83455249D01*
X145909523Y-83470890D01*
X146029110Y-83590477D01*
X146172310Y-83680456D01*
X146331941Y-83736313D01*
X146500000Y-83755249D01*
X146505529Y-83754626D01*
X146662530Y-83736936D01*
X146668059Y-83736313D01*
X146827690Y-83680456D01*
X146970890Y-83590477D01*
X147090477Y-83470890D01*
X147100305Y-83455249D01*
X147177498Y-83332398D01*
X147177499Y-83332396D01*
X147180456Y-83327690D01*
X147236313Y-83168059D01*
X147255249Y-83000000D01*
X147236313Y-82831941D01*
X147180456Y-82672310D01*
X147172936Y-82660341D01*
X147093436Y-82533819D01*
X147093435Y-82533818D01*
X147090477Y-82529110D01*
X146970890Y-82409523D01*
X146966181Y-82406564D01*
X146832398Y-82322502D01*
X146832396Y-82322501D01*
X146827690Y-82319544D01*
X146668059Y-82263687D01*
X146500000Y-82244751D01*
X146331941Y-82263687D01*
X146172310Y-82319544D01*
X146167604Y-82322501D01*
X146167602Y-82322502D01*
X146033819Y-82406564D01*
X146029110Y-82409523D01*
X145909523Y-82529110D01*
X145906565Y-82533818D01*
X145906564Y-82533819D01*
X145827065Y-82660341D01*
X145819544Y-82672310D01*
X145763687Y-82831941D01*
X145744751Y-83000000D01*
X143390145Y-83000000D01*
X143436313Y-82868059D01*
X143455249Y-82700000D01*
X143436313Y-82531941D01*
X143380456Y-82372310D01*
X143349160Y-82322502D01*
X143293436Y-82233819D01*
X143293435Y-82233818D01*
X143290477Y-82229110D01*
X143230371Y-82169004D01*
X143202594Y-82114487D01*
X143212165Y-82054055D01*
X143255430Y-82010790D01*
X143300375Y-82000000D01*
X154901000Y-82000000D01*
X154959191Y-82018907D01*
G37*
%TD.AperFunction*%
%TD*%
%TA.AperFunction,Conductor*%
%TO.N,/Driver/75V*%
G36*
X91799327Y-88500847D02*
G01*
X91909380Y-88515336D01*
X91934343Y-88522025D01*
X92030852Y-88562000D01*
X92053234Y-88574922D01*
X92141294Y-88642493D01*
X92151031Y-88651031D01*
X92248969Y-88748969D01*
X92257507Y-88758706D01*
X92325078Y-88846766D01*
X92338000Y-88869148D01*
X92377975Y-88965657D01*
X92384664Y-88990620D01*
X92399153Y-89100673D01*
X92400000Y-89113595D01*
X92400000Y-90200000D01*
X92539840Y-90345218D01*
X92542033Y-90347495D01*
X94855771Y-92750224D01*
X94863938Y-92759869D01*
X94928539Y-92846856D01*
X94940878Y-92868862D01*
X94979012Y-92963442D01*
X94985387Y-92987848D01*
X94999193Y-93095320D01*
X95000000Y-93107934D01*
X95000000Y-94819536D01*
X94998098Y-94838850D01*
X94990847Y-94875304D01*
X94976066Y-94910989D01*
X94960941Y-94933626D01*
X94933627Y-94960940D01*
X94910989Y-94976066D01*
X94875305Y-94990846D01*
X94850808Y-94995719D01*
X94838850Y-94998098D01*
X94819536Y-95000000D01*
X93180464Y-95000000D01*
X93161150Y-94998098D01*
X93149192Y-94995719D01*
X93124695Y-94990846D01*
X93089011Y-94976066D01*
X93066373Y-94960940D01*
X93039059Y-94933626D01*
X93023934Y-94910989D01*
X93009153Y-94875304D01*
X93001902Y-94838850D01*
X93000000Y-94819536D01*
X93000000Y-92800000D01*
X90400000Y-90200000D01*
X89306488Y-90200000D01*
X89293566Y-90199153D01*
X89183513Y-90184664D01*
X89158549Y-90177975D01*
X89062043Y-90138001D01*
X89039661Y-90125079D01*
X88956787Y-90061487D01*
X88938513Y-90043213D01*
X88874921Y-89960339D01*
X88861999Y-89937957D01*
X88822025Y-89841451D01*
X88815336Y-89816487D01*
X88800847Y-89706434D01*
X88800000Y-89693512D01*
X88800000Y-89006488D01*
X88800847Y-88993566D01*
X88815336Y-88883513D01*
X88822025Y-88858549D01*
X88861999Y-88762043D01*
X88874921Y-88739661D01*
X88938513Y-88656787D01*
X88956787Y-88638513D01*
X89039661Y-88574921D01*
X89062043Y-88561999D01*
X89158549Y-88522025D01*
X89183513Y-88515336D01*
X89293566Y-88500847D01*
X89306488Y-88500000D01*
X91786405Y-88500000D01*
X91799327Y-88500847D01*
G37*
%TD.AperFunction*%
%TD*%
%TA.AperFunction,Conductor*%
%TO.N,/Driver/99V*%
G36*
X91708691Y-105918907D02*
G01*
X91744655Y-105968407D01*
X91749500Y-105999000D01*
X91749500Y-106846113D01*
X91749789Y-106848767D01*
X91749789Y-106848774D01*
X91763789Y-106977498D01*
X91764486Y-106983910D01*
X91823556Y-107159221D01*
X91918930Y-107317736D01*
X91981757Y-107384061D01*
X92042457Y-107448142D01*
X92042460Y-107448145D01*
X92046151Y-107452041D01*
X92050595Y-107455054D01*
X92050596Y-107455055D01*
X92194824Y-107552844D01*
X92194827Y-107552846D01*
X92199270Y-107555858D01*
X92204253Y-107557843D01*
X92204256Y-107557845D01*
X92366140Y-107622345D01*
X92371125Y-107624331D01*
X92462404Y-107639296D01*
X92548386Y-107653392D01*
X92548390Y-107653392D01*
X92553683Y-107654260D01*
X92738407Y-107644245D01*
X92807005Y-107625199D01*
X92911492Y-107596189D01*
X92911495Y-107596188D01*
X92916659Y-107594754D01*
X93080104Y-107508100D01*
X93221100Y-107388337D01*
X93246727Y-107354626D01*
X93329805Y-107245338D01*
X93333054Y-107241064D01*
X93355090Y-107193436D01*
X93408479Y-107078037D01*
X93408479Y-107078036D01*
X93410732Y-107073167D01*
X93450500Y-106892497D01*
X93450500Y-106193296D01*
X93469407Y-106135105D01*
X93479496Y-106123293D01*
X93673792Y-105928997D01*
X93728308Y-105901219D01*
X93743795Y-105900000D01*
X95605319Y-105900000D01*
X95663510Y-105918907D01*
X95699474Y-105968407D01*
X95698763Y-106031698D01*
X95678196Y-106090477D01*
X95663687Y-106131941D01*
X95644751Y-106300000D01*
X95663687Y-106468059D01*
X95719544Y-106627690D01*
X95809523Y-106770890D01*
X95929110Y-106890477D01*
X95933818Y-106893435D01*
X95933819Y-106893436D01*
X95995827Y-106932398D01*
X96072310Y-106980456D01*
X96231941Y-107036313D01*
X96400000Y-107055249D01*
X96405529Y-107054626D01*
X96562530Y-107036936D01*
X96568059Y-107036313D01*
X96727690Y-106980456D01*
X96804174Y-106932398D01*
X96866181Y-106893436D01*
X96866182Y-106893435D01*
X96870890Y-106890477D01*
X96990477Y-106770890D01*
X97080456Y-106627690D01*
X97136313Y-106468059D01*
X97155249Y-106300000D01*
X97136313Y-106131941D01*
X97121805Y-106090477D01*
X97101237Y-106031698D01*
X97099864Y-105970528D01*
X97134708Y-105920233D01*
X97194681Y-105900000D01*
X100086405Y-105900000D01*
X100099326Y-105900847D01*
X100112453Y-105902575D01*
X100209380Y-105915336D01*
X100234343Y-105922025D01*
X100330852Y-105962000D01*
X100353234Y-105974922D01*
X100441294Y-106042493D01*
X100451031Y-106051031D01*
X100900000Y-106500000D01*
X100999140Y-106500000D01*
X100999825Y-106500001D01*
X101000000Y-106500001D01*
X101000988Y-106500004D01*
X101000988Y-106500018D01*
X101001076Y-106500004D01*
X141315451Y-106659350D01*
X144564804Y-106672193D01*
X144622920Y-106691330D01*
X144658688Y-106740972D01*
X144662790Y-106760106D01*
X144663063Y-106762530D01*
X144663065Y-106762539D01*
X144663687Y-106768059D01*
X144719544Y-106927690D01*
X144722501Y-106932396D01*
X144722502Y-106932398D01*
X144799695Y-107055249D01*
X144809523Y-107070890D01*
X144929110Y-107190477D01*
X145072310Y-107280456D01*
X145231941Y-107336313D01*
X145400000Y-107355249D01*
X145405529Y-107354626D01*
X145562530Y-107336936D01*
X145568059Y-107336313D01*
X145727690Y-107280456D01*
X145870890Y-107190477D01*
X145990477Y-107070890D01*
X146000305Y-107055249D01*
X146077498Y-106932398D01*
X146077499Y-106932396D01*
X146080456Y-106927690D01*
X146136313Y-106768059D01*
X146136935Y-106762538D01*
X146138173Y-106757114D01*
X146140575Y-106757662D01*
X146161769Y-106711001D01*
X146214985Y-106680806D01*
X146235228Y-106678796D01*
X151387613Y-106699161D01*
X151400453Y-106700049D01*
X151509915Y-106714826D01*
X151534729Y-106721544D01*
X151630679Y-106761508D01*
X151652928Y-106774392D01*
X151740504Y-106841679D01*
X151750188Y-106850176D01*
X152542890Y-107642810D01*
X157400000Y-112499505D01*
X157993499Y-112499505D01*
X158006422Y-112500352D01*
X158116479Y-112514842D01*
X158141442Y-112521531D01*
X158237952Y-112561507D01*
X158260334Y-112574430D01*
X158343205Y-112638021D01*
X158361480Y-112656296D01*
X158425070Y-112739171D01*
X158437992Y-112761553D01*
X158477967Y-112858066D01*
X158484655Y-112883029D01*
X158499142Y-112993079D01*
X158499989Y-113006000D01*
X158499981Y-113349973D01*
X158499808Y-120993065D01*
X158498961Y-121005986D01*
X158484471Y-121116037D01*
X158477782Y-121140997D01*
X158437812Y-121237498D01*
X158424891Y-121259879D01*
X158361305Y-121342748D01*
X158343032Y-121361022D01*
X158260165Y-121424613D01*
X158237787Y-121437534D01*
X158141286Y-121477511D01*
X158116326Y-121484201D01*
X158006279Y-121498696D01*
X157993359Y-121499544D01*
X155250578Y-121499753D01*
X152506520Y-121499962D01*
X152493613Y-121499117D01*
X152420814Y-121489537D01*
X152383543Y-121484633D01*
X152358579Y-121477945D01*
X152262066Y-121437975D01*
X152239683Y-121425054D01*
X152156801Y-121361463D01*
X152138525Y-121343189D01*
X152074928Y-121260312D01*
X152062006Y-121237930D01*
X152022028Y-121141420D01*
X152015338Y-121116456D01*
X152000847Y-121006395D01*
X152000000Y-120993472D01*
X152000000Y-117952127D01*
X154147000Y-117952127D01*
X154147001Y-120047872D01*
X154153409Y-120107483D01*
X154203704Y-120242331D01*
X154289954Y-120357546D01*
X154405169Y-120443796D01*
X154540017Y-120494091D01*
X154546170Y-120494753D01*
X154546172Y-120494753D01*
X154563966Y-120496666D01*
X154599627Y-120500500D01*
X155599811Y-120500500D01*
X156600372Y-120500499D01*
X156659983Y-120494091D01*
X156794831Y-120443796D01*
X156910046Y-120357546D01*
X156996296Y-120242331D01*
X157046591Y-120107483D01*
X157047254Y-120101322D01*
X157052717Y-120050501D01*
X157053000Y-120047873D01*
X157052999Y-117952128D01*
X157046591Y-117892517D01*
X156996296Y-117757669D01*
X156910046Y-117642454D01*
X156794831Y-117556204D01*
X156659983Y-117505909D01*
X156653830Y-117505247D01*
X156653828Y-117505247D01*
X156636034Y-117503334D01*
X156600373Y-117499500D01*
X155600190Y-117499500D01*
X154599628Y-117499501D01*
X154540017Y-117505909D01*
X154405169Y-117556204D01*
X154289954Y-117642454D01*
X154203704Y-117757669D01*
X154153409Y-117892517D01*
X154152747Y-117898670D01*
X154152747Y-117898672D01*
X154150834Y-117916466D01*
X154147000Y-117952127D01*
X152000000Y-117952127D01*
X152000000Y-116000000D01*
X137943663Y-115999536D01*
X137885476Y-115980628D01*
X137849513Y-115931127D01*
X137845292Y-115911622D01*
X137836937Y-115837470D01*
X137836935Y-115837461D01*
X137836313Y-115831941D01*
X137834478Y-115826695D01*
X137782292Y-115677558D01*
X137780456Y-115672310D01*
X137690477Y-115529110D01*
X137570890Y-115409523D01*
X137427690Y-115319544D01*
X137268059Y-115263687D01*
X137100000Y-115244751D01*
X136931941Y-115263687D01*
X136772310Y-115319544D01*
X136629110Y-115409523D01*
X136509523Y-115529110D01*
X136419544Y-115672310D01*
X136363687Y-115831941D01*
X136344751Y-116000000D01*
X136363687Y-116168059D01*
X136419544Y-116327690D01*
X136509523Y-116470890D01*
X136629110Y-116590477D01*
X136633818Y-116593435D01*
X136633819Y-116593436D01*
X136764122Y-116675311D01*
X136772310Y-116680456D01*
X136878262Y-116717530D01*
X136931941Y-116736313D01*
X136931174Y-116738505D01*
X136975561Y-116765031D01*
X136999602Y-116821296D01*
X137000000Y-116830159D01*
X137000000Y-120993050D01*
X136999153Y-121005972D01*
X136984665Y-121116020D01*
X136977977Y-121140982D01*
X136938005Y-121237487D01*
X136925084Y-121259868D01*
X136861499Y-121342739D01*
X136843226Y-121361013D01*
X136842635Y-121361467D01*
X136760357Y-121424606D01*
X136737979Y-121437527D01*
X136641475Y-121477505D01*
X136616515Y-121484195D01*
X136506467Y-121498690D01*
X136493545Y-121499538D01*
X131516271Y-121499862D01*
X129906517Y-121499967D01*
X129893608Y-121499122D01*
X129822592Y-121489777D01*
X129783538Y-121484637D01*
X129758575Y-121477949D01*
X129662061Y-121437978D01*
X129639680Y-121425059D01*
X129556800Y-121361467D01*
X129538525Y-121343193D01*
X129474928Y-121260317D01*
X129462005Y-121237934D01*
X129422027Y-121141424D01*
X129415337Y-121116460D01*
X129400847Y-121006402D01*
X129400000Y-120993479D01*
X129400000Y-119529231D01*
X129403029Y-119504928D01*
X129457091Y-119291441D01*
X129457091Y-119291440D01*
X129458095Y-119287476D01*
X129473000Y-119107600D01*
X129473000Y-118892400D01*
X129458095Y-118712524D01*
X129403029Y-118495072D01*
X129400000Y-118470769D01*
X129400000Y-117952127D01*
X131647000Y-117952127D01*
X131647001Y-120047872D01*
X131653409Y-120107483D01*
X131703704Y-120242331D01*
X131789954Y-120357546D01*
X131905169Y-120443796D01*
X132040017Y-120494091D01*
X132046170Y-120494753D01*
X132046172Y-120494753D01*
X132063966Y-120496666D01*
X132099627Y-120500500D01*
X133099811Y-120500500D01*
X134100372Y-120500499D01*
X134159983Y-120494091D01*
X134294831Y-120443796D01*
X134410046Y-120357546D01*
X134496296Y-120242331D01*
X134546591Y-120107483D01*
X134547254Y-120101322D01*
X134552717Y-120050501D01*
X134553000Y-120047873D01*
X134552999Y-117952128D01*
X134546591Y-117892517D01*
X134496296Y-117757669D01*
X134410046Y-117642454D01*
X134294831Y-117556204D01*
X134159983Y-117505909D01*
X134153830Y-117505247D01*
X134153828Y-117505247D01*
X134136034Y-117503334D01*
X134100373Y-117499500D01*
X133100190Y-117499500D01*
X132099628Y-117499501D01*
X132040017Y-117505909D01*
X131905169Y-117556204D01*
X131789954Y-117642454D01*
X131703704Y-117757669D01*
X131653409Y-117892517D01*
X131652747Y-117898670D01*
X131652747Y-117898672D01*
X131650834Y-117916466D01*
X131647000Y-117952127D01*
X129400000Y-117952127D01*
X129400000Y-116000000D01*
X121761495Y-115999754D01*
X115801729Y-115999563D01*
X114503264Y-115999521D01*
X114500021Y-115999521D01*
X114292728Y-115999514D01*
X114263004Y-115975443D01*
X114247656Y-115932610D01*
X114236936Y-115837470D01*
X114236313Y-115831941D01*
X114180456Y-115672310D01*
X114090477Y-115529110D01*
X113970890Y-115409523D01*
X113827690Y-115319544D01*
X113668059Y-115263687D01*
X113500000Y-115244751D01*
X113331941Y-115263687D01*
X113172310Y-115319544D01*
X113029110Y-115409523D01*
X112909523Y-115529110D01*
X112819544Y-115672310D01*
X112763687Y-115831941D01*
X112744751Y-116000000D01*
X112763687Y-116168059D01*
X112819544Y-116327690D01*
X112909523Y-116470890D01*
X113029110Y-116590477D01*
X113033818Y-116593435D01*
X113033819Y-116593436D01*
X113164122Y-116675311D01*
X113172310Y-116680456D01*
X113331941Y-116736313D01*
X113500000Y-116755249D01*
X113505529Y-116754626D01*
X113662530Y-116736936D01*
X113668059Y-116736313D01*
X113827690Y-116680456D01*
X113835879Y-116675311D01*
X113848338Y-116667482D01*
X113907669Y-116652532D01*
X113964456Y-116675311D01*
X113997008Y-116727118D01*
X114000009Y-116751307D01*
X114000060Y-120993048D01*
X113999213Y-121005968D01*
X113999156Y-121006402D01*
X113984727Y-121116017D01*
X113978039Y-121140980D01*
X113938069Y-121237484D01*
X113925150Y-121259863D01*
X113861562Y-121342739D01*
X113861561Y-121342740D01*
X113843288Y-121361014D01*
X113760421Y-121424606D01*
X113738042Y-121437528D01*
X113641538Y-121477507D01*
X113616576Y-121484197D01*
X113506529Y-121498692D01*
X113493608Y-121499540D01*
X109734476Y-121499802D01*
X107406517Y-121499965D01*
X107393609Y-121499119D01*
X107283540Y-121484636D01*
X107258579Y-121477950D01*
X107162061Y-121437976D01*
X107139682Y-121425057D01*
X107056797Y-121361463D01*
X107038523Y-121343189D01*
X106974929Y-121260316D01*
X106962005Y-121237934D01*
X106922025Y-121141418D01*
X106915337Y-121116456D01*
X106915280Y-121116017D01*
X106900847Y-121006395D01*
X106900000Y-120993475D01*
X106900000Y-119529231D01*
X106903029Y-119504928D01*
X106957091Y-119291441D01*
X106957091Y-119291440D01*
X106958095Y-119287476D01*
X106973000Y-119107600D01*
X106973000Y-118892400D01*
X106958095Y-118712524D01*
X106903029Y-118495072D01*
X106900000Y-118470769D01*
X106900000Y-117952127D01*
X109147000Y-117952127D01*
X109147001Y-120047872D01*
X109153409Y-120107483D01*
X109203704Y-120242331D01*
X109289954Y-120357546D01*
X109405169Y-120443796D01*
X109540017Y-120494091D01*
X109546170Y-120494753D01*
X109546172Y-120494753D01*
X109563966Y-120496666D01*
X109599627Y-120500500D01*
X110599811Y-120500500D01*
X111600372Y-120500499D01*
X111659983Y-120494091D01*
X111794831Y-120443796D01*
X111910046Y-120357546D01*
X111996296Y-120242331D01*
X112046591Y-120107483D01*
X112047254Y-120101322D01*
X112052717Y-120050501D01*
X112053000Y-120047873D01*
X112052999Y-117952128D01*
X112046591Y-117892517D01*
X111996296Y-117757669D01*
X111910046Y-117642454D01*
X111794831Y-117556204D01*
X111659983Y-117505909D01*
X111653830Y-117505247D01*
X111653828Y-117505247D01*
X111636034Y-117503334D01*
X111600373Y-117499500D01*
X110600190Y-117499500D01*
X109599628Y-117499501D01*
X109540017Y-117505909D01*
X109405169Y-117556204D01*
X109289954Y-117642454D01*
X109203704Y-117757669D01*
X109153409Y-117892517D01*
X109152747Y-117898670D01*
X109152747Y-117898672D01*
X109150834Y-117916466D01*
X109147000Y-117952127D01*
X106900000Y-117952127D01*
X106900000Y-116000000D01*
X106400020Y-115999980D01*
X100384670Y-115999740D01*
X98543677Y-115999666D01*
X98485489Y-115980757D01*
X98449527Y-115931256D01*
X98445306Y-115911752D01*
X98436936Y-115837470D01*
X98436313Y-115831941D01*
X98380456Y-115672310D01*
X98290477Y-115529110D01*
X98170890Y-115409523D01*
X98027690Y-115319544D01*
X97868059Y-115263687D01*
X97700000Y-115244751D01*
X97531941Y-115263687D01*
X97372310Y-115319544D01*
X97229110Y-115409523D01*
X97109523Y-115529110D01*
X97019544Y-115672310D01*
X96963687Y-115831941D01*
X96963065Y-115837465D01*
X96963063Y-115837472D01*
X96954701Y-115911684D01*
X96929398Y-115967391D01*
X96876182Y-115997587D01*
X96856320Y-115999599D01*
X95003333Y-115999525D01*
X95003331Y-115999525D01*
X94500004Y-115999505D01*
X94500072Y-116499592D01*
X94500072Y-116502832D01*
X94500085Y-116593047D01*
X94499240Y-116605971D01*
X94484764Y-116716036D01*
X94478078Y-116740999D01*
X94438111Y-116837520D01*
X94425193Y-116859900D01*
X94361608Y-116942783D01*
X94343335Y-116961060D01*
X94260461Y-117024663D01*
X94238081Y-117037587D01*
X94141570Y-117077571D01*
X94116607Y-117084262D01*
X94006550Y-117098759D01*
X93993627Y-117099607D01*
X87228894Y-117100007D01*
X82025302Y-117100315D01*
X82012406Y-117099471D01*
X81902453Y-117085019D01*
X81877520Y-117078347D01*
X81813518Y-117051872D01*
X81781095Y-117038460D01*
X81758731Y-117025567D01*
X81747457Y-117016930D01*
X81675896Y-116962107D01*
X81657629Y-116943874D01*
X81594013Y-116861147D01*
X81581082Y-116838811D01*
X81580544Y-116837515D01*
X81541021Y-116742456D01*
X81534303Y-116717530D01*
X81519652Y-116607620D01*
X81518784Y-116594713D01*
X81518706Y-116550486D01*
X81518618Y-116499984D01*
X81515105Y-114500000D01*
X118244751Y-114500000D01*
X118263687Y-114668059D01*
X118319544Y-114827690D01*
X118409523Y-114970890D01*
X118529110Y-115090477D01*
X118672310Y-115180456D01*
X118831941Y-115236313D01*
X119000000Y-115255249D01*
X119005529Y-115254626D01*
X119162530Y-115236936D01*
X119168059Y-115236313D01*
X119327690Y-115180456D01*
X119470890Y-115090477D01*
X119590477Y-114970890D01*
X119680456Y-114827690D01*
X119736313Y-114668059D01*
X119755249Y-114500000D01*
X141744751Y-114500000D01*
X141763687Y-114668059D01*
X141819544Y-114827690D01*
X141909523Y-114970890D01*
X142029110Y-115090477D01*
X142172310Y-115180456D01*
X142331941Y-115236313D01*
X142500000Y-115255249D01*
X142505529Y-115254626D01*
X142662530Y-115236936D01*
X142668059Y-115236313D01*
X142827690Y-115180456D01*
X142970890Y-115090477D01*
X143090477Y-114970890D01*
X143180456Y-114827690D01*
X143236313Y-114668059D01*
X143255249Y-114500000D01*
X143236313Y-114331941D01*
X143180456Y-114172310D01*
X143090477Y-114029110D01*
X142970890Y-113909523D01*
X142827690Y-113819544D01*
X142668059Y-113763687D01*
X142500000Y-113744751D01*
X142331941Y-113763687D01*
X142172310Y-113819544D01*
X142029110Y-113909523D01*
X141909523Y-114029110D01*
X141819544Y-114172310D01*
X141763687Y-114331941D01*
X141744751Y-114500000D01*
X119755249Y-114500000D01*
X119736313Y-114331941D01*
X119680456Y-114172310D01*
X119590477Y-114029110D01*
X119470890Y-113909523D01*
X119327690Y-113819544D01*
X119168059Y-113763687D01*
X119000000Y-113744751D01*
X118831941Y-113763687D01*
X118672310Y-113819544D01*
X118529110Y-113909523D01*
X118409523Y-114029110D01*
X118319544Y-114172310D01*
X118263687Y-114331941D01*
X118244751Y-114500000D01*
X81515105Y-114500000D01*
X81509955Y-111567765D01*
X84845788Y-111567765D01*
X84875414Y-111837018D01*
X84876328Y-111840513D01*
X84940450Y-112085783D01*
X84943928Y-112099088D01*
X84945344Y-112102420D01*
X84945345Y-112102423D01*
X84999089Y-112228892D01*
X85049870Y-112348390D01*
X85190982Y-112579610D01*
X85364255Y-112787820D01*
X85366949Y-112790234D01*
X85366953Y-112790238D01*
X85442654Y-112858066D01*
X85565998Y-112968582D01*
X85791910Y-113118044D01*
X85920328Y-113178244D01*
X86033901Y-113231485D01*
X86033904Y-113231486D01*
X86037176Y-113233020D01*
X86296569Y-113311060D01*
X86430565Y-113330780D01*
X86560979Y-113349973D01*
X86560981Y-113349973D01*
X86564561Y-113350500D01*
X86767631Y-113350500D01*
X86970156Y-113335677D01*
X86973673Y-113334894D01*
X86973677Y-113334893D01*
X87231030Y-113277565D01*
X87231033Y-113277564D01*
X87234553Y-113276780D01*
X87487558Y-113180014D01*
X87723777Y-113047441D01*
X87938177Y-112881888D01*
X87940689Y-112879283D01*
X88123675Y-112689486D01*
X88123678Y-112689482D01*
X88126186Y-112686881D01*
X88283799Y-112466579D01*
X88407656Y-112225675D01*
X88492011Y-111978413D01*
X88493949Y-111972733D01*
X88493951Y-111972727D01*
X88495118Y-111969305D01*
X88544319Y-111702933D01*
X88554212Y-111432235D01*
X88524586Y-111162982D01*
X88456072Y-110900912D01*
X88402279Y-110774325D01*
X88351547Y-110654944D01*
X88351546Y-110654942D01*
X88350130Y-110651610D01*
X88257603Y-110500000D01*
X99294732Y-110500000D01*
X99313778Y-110754157D01*
X99370492Y-111002637D01*
X99426087Y-111144290D01*
X99439121Y-111177498D01*
X99463607Y-111239888D01*
X99465455Y-111243089D01*
X99465457Y-111243093D01*
X99576745Y-111435851D01*
X99591041Y-111460612D01*
X99749950Y-111659877D01*
X99936783Y-111833232D01*
X100147366Y-111976805D01*
X100376996Y-112087389D01*
X100380531Y-112088479D01*
X100380530Y-112088479D01*
X100617001Y-112161421D01*
X100617004Y-112161422D01*
X100620542Y-112162513D01*
X100624211Y-112163066D01*
X100868900Y-112199948D01*
X100868906Y-112199948D01*
X100872565Y-112200500D01*
X101127435Y-112200500D01*
X101131094Y-112199948D01*
X101131100Y-112199948D01*
X101375789Y-112163066D01*
X101379458Y-112162513D01*
X101382996Y-112161422D01*
X101382999Y-112161421D01*
X101619470Y-112088479D01*
X101619469Y-112088479D01*
X101623004Y-112087389D01*
X101852634Y-111976805D01*
X102063217Y-111833232D01*
X102250050Y-111659877D01*
X102408959Y-111460612D01*
X102423255Y-111435851D01*
X102534543Y-111243093D01*
X102534545Y-111243089D01*
X102536393Y-111239888D01*
X102560880Y-111177498D01*
X102573913Y-111144290D01*
X102629508Y-111002637D01*
X102686222Y-110754157D01*
X102705268Y-110500000D01*
X110244751Y-110500000D01*
X110263687Y-110668059D01*
X110319544Y-110827690D01*
X110322501Y-110832396D01*
X110322502Y-110832398D01*
X110367754Y-110904415D01*
X110409523Y-110970890D01*
X110529110Y-111090477D01*
X110672310Y-111180456D01*
X110831941Y-111236313D01*
X110837470Y-111236936D01*
X110892114Y-111243093D01*
X111000000Y-111255249D01*
X111005529Y-111254626D01*
X111162530Y-111236936D01*
X111168059Y-111236313D01*
X111327690Y-111180456D01*
X111470890Y-111090477D01*
X111590477Y-110970890D01*
X111632246Y-110904415D01*
X111677498Y-110832398D01*
X111677499Y-110832396D01*
X111680456Y-110827690D01*
X111736313Y-110668059D01*
X111755249Y-110500000D01*
X126294732Y-110500000D01*
X126313778Y-110754157D01*
X126370492Y-111002637D01*
X126426087Y-111144290D01*
X126439121Y-111177498D01*
X126463607Y-111239888D01*
X126465455Y-111243089D01*
X126465457Y-111243093D01*
X126576745Y-111435851D01*
X126591041Y-111460612D01*
X126749950Y-111659877D01*
X126936783Y-111833232D01*
X127147366Y-111976805D01*
X127376996Y-112087389D01*
X127380531Y-112088479D01*
X127380530Y-112088479D01*
X127617001Y-112161421D01*
X127617004Y-112161422D01*
X127620542Y-112162513D01*
X127624211Y-112163066D01*
X127868900Y-112199948D01*
X127868906Y-112199948D01*
X127872565Y-112200500D01*
X128127435Y-112200500D01*
X128131094Y-112199948D01*
X128131100Y-112199948D01*
X128375789Y-112163066D01*
X128379458Y-112162513D01*
X128382996Y-112161422D01*
X128382999Y-112161421D01*
X128619470Y-112088479D01*
X128619469Y-112088479D01*
X128623004Y-112087389D01*
X128852634Y-111976805D01*
X129063217Y-111833232D01*
X129250050Y-111659877D01*
X129408959Y-111460612D01*
X129423255Y-111435851D01*
X129534543Y-111243093D01*
X129534545Y-111243089D01*
X129536393Y-111239888D01*
X129560880Y-111177498D01*
X129573913Y-111144290D01*
X129629508Y-111002637D01*
X129686222Y-110754157D01*
X129705268Y-110500000D01*
X142718691Y-110500000D01*
X142737737Y-110754157D01*
X142794451Y-111002637D01*
X142850046Y-111144290D01*
X142863080Y-111177498D01*
X142887566Y-111239888D01*
X142889414Y-111243089D01*
X142889416Y-111243093D01*
X143000704Y-111435851D01*
X143015000Y-111460612D01*
X143173909Y-111659877D01*
X143360742Y-111833232D01*
X143571325Y-111976805D01*
X143800955Y-112087389D01*
X143804490Y-112088479D01*
X143804489Y-112088479D01*
X144040960Y-112161421D01*
X144040963Y-112161422D01*
X144044501Y-112162513D01*
X144048170Y-112163066D01*
X144292859Y-112199948D01*
X144292865Y-112199948D01*
X144296524Y-112200500D01*
X144551394Y-112200500D01*
X144555053Y-112199948D01*
X144555059Y-112199948D01*
X144799748Y-112163066D01*
X144803417Y-112162513D01*
X144806955Y-112161422D01*
X144806958Y-112161421D01*
X145043429Y-112088479D01*
X145043428Y-112088479D01*
X145046963Y-112087389D01*
X145276593Y-111976805D01*
X145487176Y-111833232D01*
X145674009Y-111659877D01*
X145832918Y-111460612D01*
X145847214Y-111435851D01*
X145958502Y-111243093D01*
X145958504Y-111243089D01*
X145960352Y-111239888D01*
X145984839Y-111177498D01*
X145997872Y-111144290D01*
X146053467Y-111002637D01*
X146110181Y-110754157D01*
X146129227Y-110500000D01*
X146110181Y-110245843D01*
X146053467Y-109997363D01*
X145997872Y-109855710D01*
X145961706Y-109763561D01*
X145961704Y-109763557D01*
X145960352Y-109760112D01*
X145951484Y-109744751D01*
X145834768Y-109542592D01*
X145834767Y-109542590D01*
X145832918Y-109539388D01*
X145674009Y-109340123D01*
X145487176Y-109166768D01*
X145276593Y-109023195D01*
X145046963Y-108912611D01*
X144979177Y-108891702D01*
X144806958Y-108838579D01*
X144806955Y-108838578D01*
X144803417Y-108837487D01*
X144787465Y-108835083D01*
X144555059Y-108800052D01*
X144555053Y-108800052D01*
X144551394Y-108799500D01*
X144296524Y-108799500D01*
X144292865Y-108800052D01*
X144292859Y-108800052D01*
X144060453Y-108835083D01*
X144044501Y-108837487D01*
X144040963Y-108838578D01*
X144040960Y-108838579D01*
X143868741Y-108891702D01*
X143800955Y-108912611D01*
X143571325Y-109023195D01*
X143360742Y-109166768D01*
X143173909Y-109340123D01*
X143015000Y-109539388D01*
X143013151Y-109542590D01*
X143013150Y-109542592D01*
X142896435Y-109744751D01*
X142887566Y-109760112D01*
X142886214Y-109763557D01*
X142886212Y-109763561D01*
X142850046Y-109855710D01*
X142794451Y-109997363D01*
X142737737Y-110245843D01*
X142718691Y-110500000D01*
X129705268Y-110500000D01*
X129686222Y-110245843D01*
X129629508Y-109997363D01*
X129573913Y-109855710D01*
X129537747Y-109763561D01*
X129537745Y-109763557D01*
X129536393Y-109760112D01*
X129527525Y-109744751D01*
X129410809Y-109542592D01*
X129410808Y-109542590D01*
X129408959Y-109539388D01*
X129250050Y-109340123D01*
X129063217Y-109166768D01*
X128852634Y-109023195D01*
X128623004Y-108912611D01*
X128555218Y-108891702D01*
X128382999Y-108838579D01*
X128382996Y-108838578D01*
X128379458Y-108837487D01*
X128363506Y-108835083D01*
X128131100Y-108800052D01*
X128131094Y-108800052D01*
X128127435Y-108799500D01*
X127872565Y-108799500D01*
X127868906Y-108800052D01*
X127868900Y-108800052D01*
X127636494Y-108835083D01*
X127620542Y-108837487D01*
X127617004Y-108838578D01*
X127617001Y-108838579D01*
X127444782Y-108891702D01*
X127376996Y-108912611D01*
X127147366Y-109023195D01*
X126936783Y-109166768D01*
X126749950Y-109340123D01*
X126591041Y-109539388D01*
X126589192Y-109542590D01*
X126589191Y-109542592D01*
X126472476Y-109744751D01*
X126463607Y-109760112D01*
X126462255Y-109763557D01*
X126462253Y-109763561D01*
X126426087Y-109855710D01*
X126370492Y-109997363D01*
X126313778Y-110245843D01*
X126294732Y-110500000D01*
X111755249Y-110500000D01*
X111736313Y-110331941D01*
X111680456Y-110172310D01*
X111645011Y-110115899D01*
X111593436Y-110033819D01*
X111593435Y-110033818D01*
X111590477Y-110029110D01*
X111470890Y-109909523D01*
X111466181Y-109906564D01*
X111332398Y-109822502D01*
X111332396Y-109822501D01*
X111327690Y-109819544D01*
X111168059Y-109763687D01*
X111136331Y-109760112D01*
X111005529Y-109745374D01*
X111000000Y-109744751D01*
X110994471Y-109745374D01*
X110863670Y-109760112D01*
X110831941Y-109763687D01*
X110672310Y-109819544D01*
X110667604Y-109822501D01*
X110667602Y-109822502D01*
X110533819Y-109906564D01*
X110529110Y-109909523D01*
X110409523Y-110029110D01*
X110406565Y-110033818D01*
X110406564Y-110033819D01*
X110354990Y-110115899D01*
X110319544Y-110172310D01*
X110263687Y-110331941D01*
X110244751Y-110500000D01*
X102705268Y-110500000D01*
X102686222Y-110245843D01*
X102629508Y-109997363D01*
X102573913Y-109855710D01*
X102537747Y-109763561D01*
X102537745Y-109763557D01*
X102536393Y-109760112D01*
X102527525Y-109744751D01*
X102410809Y-109542592D01*
X102410808Y-109542590D01*
X102408959Y-109539388D01*
X102250050Y-109340123D01*
X102063217Y-109166768D01*
X101852634Y-109023195D01*
X101623004Y-108912611D01*
X101555218Y-108891702D01*
X101382999Y-108838579D01*
X101382996Y-108838578D01*
X101379458Y-108837487D01*
X101363506Y-108835083D01*
X101131100Y-108800052D01*
X101131094Y-108800052D01*
X101127435Y-108799500D01*
X100872565Y-108799500D01*
X100868906Y-108800052D01*
X100868900Y-108800052D01*
X100636494Y-108835083D01*
X100620542Y-108837487D01*
X100617004Y-108838578D01*
X100617001Y-108838579D01*
X100444782Y-108891702D01*
X100376996Y-108912611D01*
X100147366Y-109023195D01*
X99936783Y-109166768D01*
X99749950Y-109340123D01*
X99591041Y-109539388D01*
X99589192Y-109542590D01*
X99589191Y-109542592D01*
X99472476Y-109744751D01*
X99463607Y-109760112D01*
X99462255Y-109763557D01*
X99462253Y-109763561D01*
X99426087Y-109855710D01*
X99370492Y-109997363D01*
X99313778Y-110245843D01*
X99294732Y-110500000D01*
X88257603Y-110500000D01*
X88209018Y-110420390D01*
X88035745Y-110212180D01*
X88033051Y-110209766D01*
X88033047Y-110209762D01*
X87925355Y-110113271D01*
X87834002Y-110031418D01*
X87608090Y-109881956D01*
X87443246Y-109804680D01*
X87366099Y-109768515D01*
X87366096Y-109768514D01*
X87362824Y-109766980D01*
X87357985Y-109765524D01*
X87214763Y-109722435D01*
X87103431Y-109688940D01*
X86969435Y-109669220D01*
X86839021Y-109650027D01*
X86839019Y-109650027D01*
X86835439Y-109649500D01*
X86632369Y-109649500D01*
X86429844Y-109664323D01*
X86426327Y-109665106D01*
X86426323Y-109665107D01*
X86168970Y-109722435D01*
X86168967Y-109722436D01*
X86165447Y-109723220D01*
X85912442Y-109819986D01*
X85676223Y-109952559D01*
X85461823Y-110118112D01*
X85459315Y-110120714D01*
X85459311Y-110120717D01*
X85276325Y-110310514D01*
X85276322Y-110310518D01*
X85273814Y-110313119D01*
X85116201Y-110533421D01*
X84992344Y-110774325D01*
X84972532Y-110832398D01*
X84913279Y-111006083D01*
X84904882Y-111030695D01*
X84855681Y-111297067D01*
X84845788Y-111567765D01*
X81509955Y-111567765D01*
X81500891Y-106407369D01*
X81501717Y-106394437D01*
X81516045Y-106284237D01*
X81522705Y-106259236D01*
X81562596Y-106162570D01*
X81575506Y-106140148D01*
X81639083Y-106057117D01*
X81657362Y-106038806D01*
X81740280Y-105975084D01*
X81762679Y-105962135D01*
X81859274Y-105922074D01*
X81884264Y-105915370D01*
X81994437Y-105900849D01*
X82007373Y-105900000D01*
X91650500Y-105900000D01*
X91708691Y-105918907D01*
G37*
%TD.AperFunction*%
%TD*%
%TA.AperFunction,Conductor*%
%TO.N,Net-(J1-D-)*%
G36*
X155692977Y-100626641D02*
G01*
X156401090Y-100838792D01*
X156408031Y-100844449D01*
X156408940Y-100853358D01*
X156403283Y-100860299D01*
X156401090Y-100861208D01*
X155692978Y-101073359D01*
X155684069Y-101072450D01*
X155682839Y-101071686D01*
X155642730Y-101043163D01*
X155642254Y-101042857D01*
X155597769Y-101017154D01*
X155597218Y-101016874D01*
X155552806Y-100997135D01*
X155552179Y-100996899D01*
X155507849Y-100983107D01*
X155507136Y-100982934D01*
X155472152Y-100976716D01*
X155464607Y-100971895D01*
X155462500Y-100965197D01*
X155462500Y-100734803D01*
X155465927Y-100726530D01*
X155472152Y-100723284D01*
X155507136Y-100717064D01*
X155507849Y-100716891D01*
X155552179Y-100703099D01*
X155552806Y-100702863D01*
X155597218Y-100683124D01*
X155597769Y-100682844D01*
X155642274Y-100657130D01*
X155642716Y-100656845D01*
X155682839Y-100628314D01*
X155691567Y-100626312D01*
X155692977Y-100626641D01*
G37*
%TD.AperFunction*%
%TD*%
%TA.AperFunction,Conductor*%
%TO.N,Net-(J1-D-)*%
G36*
X155227153Y-100409610D02*
G01*
X155233475Y-100415952D01*
X155234062Y-100417795D01*
X155252347Y-100497438D01*
X155252643Y-100499933D01*
X155253545Y-100585753D01*
X155253548Y-100585873D01*
X155255990Y-100656520D01*
X155256675Y-100659052D01*
X155281253Y-100704721D01*
X155284822Y-100707495D01*
X155346157Y-100722789D01*
X155353355Y-100728115D01*
X155355026Y-100734141D01*
X155355026Y-100961677D01*
X155351599Y-100969950D01*
X155343326Y-100973377D01*
X155341815Y-100973279D01*
X155234575Y-100959308D01*
X155230604Y-100958042D01*
X155155225Y-100918068D01*
X155152734Y-100916295D01*
X155091496Y-100859278D01*
X155091395Y-100859186D01*
X155017986Y-100794423D01*
X155016964Y-100793700D01*
X154913400Y-100736022D01*
X154907840Y-100729002D01*
X154908267Y-100721363D01*
X154997148Y-100504518D01*
X155003513Y-100498139D01*
X155218198Y-100409597D01*
X155227153Y-100409610D01*
G37*
%TD.AperFunction*%
%TD*%
%TA.AperFunction,Conductor*%
%TO.N,/BLE_MODE*%
G36*
X142402645Y-82627548D02*
G01*
X142373344Y-82570504D01*
X142372845Y-82569701D01*
X142329276Y-82510854D01*
X142328826Y-82510315D01*
X142265807Y-82443099D01*
X142262648Y-82434720D01*
X142266069Y-82426824D01*
X142426824Y-82266069D01*
X142435097Y-82262642D01*
X142443099Y-82265807D01*
X142510315Y-82328826D01*
X142510854Y-82329276D01*
X142569701Y-82372845D01*
X142570504Y-82373344D01*
X142627548Y-82402645D01*
X142628070Y-82402882D01*
X142698186Y-82430563D01*
X142784644Y-82464679D01*
X142791081Y-82470903D01*
X142791175Y-82480000D01*
X142702564Y-82696176D01*
X142696176Y-82702564D01*
X142480000Y-82791175D01*
X142471045Y-82791142D01*
X142464679Y-82784644D01*
X142430563Y-82698186D01*
X142402882Y-82628070D01*
X142402645Y-82627548D01*
G37*
%TD.AperFunction*%
%TD*%
%TA.AperFunction,Conductor*%
%TO.N,/BLE_MODE*%
G36*
X100421944Y-95603427D02*
G01*
X100425365Y-95611323D01*
X100428331Y-95703437D01*
X100428391Y-95704094D01*
X100439197Y-95776530D01*
X100439413Y-95777453D01*
X100459028Y-95838506D01*
X100459233Y-95839048D01*
X100489237Y-95908197D01*
X100526249Y-95993454D01*
X100526400Y-96002407D01*
X100520034Y-96008906D01*
X100304517Y-96099109D01*
X100295483Y-96099109D01*
X100079966Y-96008906D01*
X100073657Y-96002550D01*
X100073751Y-95993454D01*
X100110762Y-95908197D01*
X100140765Y-95839048D01*
X100140970Y-95838506D01*
X100160586Y-95777453D01*
X100160802Y-95776530D01*
X100171608Y-95704094D01*
X100171668Y-95703437D01*
X100174635Y-95611323D01*
X100178327Y-95603165D01*
X100186329Y-95600000D01*
X100413671Y-95600000D01*
X100421944Y-95603427D01*
G37*
%TD.AperFunction*%
%TD*%
%TA.AperFunction,Conductor*%
%TO.N,/BLE_TX*%
G36*
X101106546Y-93873751D02*
G01*
X101191801Y-93910762D01*
X101260950Y-93940765D01*
X101261492Y-93940970D01*
X101322546Y-93960586D01*
X101323469Y-93960802D01*
X101395905Y-93971608D01*
X101396562Y-93971668D01*
X101488677Y-93974635D01*
X101496835Y-93978327D01*
X101500000Y-93986329D01*
X101500000Y-94213671D01*
X101496573Y-94221944D01*
X101488677Y-94225365D01*
X101396562Y-94228331D01*
X101395905Y-94228391D01*
X101323469Y-94239197D01*
X101322546Y-94239413D01*
X101261492Y-94259028D01*
X101260950Y-94259233D01*
X101191801Y-94289237D01*
X101106546Y-94326249D01*
X101097593Y-94326400D01*
X101091094Y-94320034D01*
X101000891Y-94104517D01*
X101000891Y-94095483D01*
X101091094Y-93879966D01*
X101097450Y-93873657D01*
X101106546Y-93873751D01*
G37*
%TD.AperFunction*%
%TD*%
%TA.AperFunction,Conductor*%
%TO.N,/BLE_TX*%
G36*
X140921944Y-82103427D02*
G01*
X140925365Y-82111323D01*
X140928331Y-82203437D01*
X140928391Y-82204094D01*
X140939197Y-82276530D01*
X140939413Y-82277453D01*
X140959028Y-82338506D01*
X140959233Y-82339048D01*
X140989237Y-82408197D01*
X141026249Y-82493454D01*
X141026400Y-82502407D01*
X141020034Y-82508906D01*
X140804517Y-82599109D01*
X140795483Y-82599109D01*
X140579966Y-82508906D01*
X140573657Y-82502550D01*
X140573751Y-82493454D01*
X140610762Y-82408197D01*
X140640765Y-82339048D01*
X140640970Y-82338506D01*
X140660586Y-82277453D01*
X140660802Y-82276530D01*
X140671608Y-82204094D01*
X140671668Y-82203437D01*
X140674635Y-82111323D01*
X140678327Y-82103165D01*
X140686329Y-82100000D01*
X140913671Y-82100000D01*
X140921944Y-82103427D01*
G37*
%TD.AperFunction*%
%TD*%
%TA.AperFunction,Conductor*%
%TO.N,Net-(J1-D+)*%
G36*
X155106546Y-101273751D02*
G01*
X155191801Y-101310762D01*
X155260950Y-101340765D01*
X155261492Y-101340970D01*
X155322546Y-101360586D01*
X155323469Y-101360802D01*
X155395905Y-101371608D01*
X155396562Y-101371668D01*
X155488677Y-101374635D01*
X155496835Y-101378327D01*
X155500000Y-101386329D01*
X155500000Y-101613671D01*
X155496573Y-101621944D01*
X155488677Y-101625365D01*
X155396562Y-101628331D01*
X155395905Y-101628391D01*
X155323469Y-101639197D01*
X155322546Y-101639413D01*
X155261492Y-101659028D01*
X155260950Y-101659233D01*
X155191801Y-101689237D01*
X155106546Y-101726249D01*
X155097593Y-101726400D01*
X155091094Y-101720034D01*
X155000891Y-101504517D01*
X155000891Y-101495483D01*
X155091094Y-101279966D01*
X155097450Y-101273657D01*
X155106546Y-101273751D01*
G37*
%TD.AperFunction*%
%TD*%
%TA.AperFunction,Conductor*%
%TO.N,Net-(J1-D+)*%
G36*
X155692977Y-101276641D02*
G01*
X156401090Y-101488792D01*
X156408031Y-101494449D01*
X156408940Y-101503358D01*
X156403283Y-101510299D01*
X156401090Y-101511208D01*
X155692978Y-101723359D01*
X155684069Y-101722450D01*
X155682839Y-101721686D01*
X155642730Y-101693163D01*
X155642254Y-101692857D01*
X155597769Y-101667154D01*
X155597218Y-101666874D01*
X155552806Y-101647135D01*
X155552179Y-101646899D01*
X155507849Y-101633107D01*
X155507136Y-101632934D01*
X155472152Y-101626716D01*
X155464607Y-101621895D01*
X155462500Y-101615197D01*
X155462500Y-101384803D01*
X155465927Y-101376530D01*
X155472152Y-101373284D01*
X155507136Y-101367064D01*
X155507849Y-101366891D01*
X155552179Y-101353099D01*
X155552806Y-101352863D01*
X155597218Y-101333124D01*
X155597769Y-101332844D01*
X155642274Y-101307130D01*
X155642716Y-101306845D01*
X155682839Y-101278314D01*
X155691567Y-101276312D01*
X155692977Y-101276641D01*
G37*
%TD.AperFunction*%
%TD*%
%TA.AperFunction,Conductor*%
%TO.N,GND*%
G36*
X155692977Y-102576641D02*
G01*
X156401090Y-102788792D01*
X156408031Y-102794449D01*
X156408940Y-102803358D01*
X156403283Y-102810299D01*
X156401090Y-102811208D01*
X155692978Y-103023359D01*
X155684069Y-103022450D01*
X155682839Y-103021686D01*
X155642730Y-102993163D01*
X155642254Y-102992857D01*
X155597769Y-102967154D01*
X155597218Y-102966874D01*
X155552806Y-102947135D01*
X155552179Y-102946899D01*
X155507849Y-102933107D01*
X155507136Y-102932934D01*
X155472152Y-102926716D01*
X155464607Y-102921895D01*
X155462500Y-102915197D01*
X155462500Y-102684803D01*
X155465927Y-102676530D01*
X155472152Y-102673284D01*
X155507136Y-102667064D01*
X155507849Y-102666891D01*
X155552179Y-102653099D01*
X155552806Y-102652863D01*
X155597218Y-102633124D01*
X155597769Y-102632844D01*
X155642274Y-102607130D01*
X155642716Y-102606845D01*
X155682839Y-102578314D01*
X155691567Y-102576312D01*
X155692977Y-102576641D01*
G37*
%TD.AperFunction*%
%TD*%
%TA.AperFunction,Conductor*%
%TO.N,/Driver/12V*%
G36*
X102121523Y-96870520D02*
G01*
X102127825Y-96876838D01*
X102178778Y-96999768D01*
X102178856Y-96999948D01*
X102222297Y-97093961D01*
X102222629Y-97094578D01*
X102269428Y-97170195D01*
X102269907Y-97170859D01*
X102335686Y-97249723D01*
X102335974Y-97250042D01*
X102428371Y-97345282D01*
X102431672Y-97353606D01*
X102428246Y-97361702D01*
X102161702Y-97628246D01*
X102153429Y-97631673D01*
X102145282Y-97628371D01*
X102050042Y-97535974D01*
X102049723Y-97535686D01*
X101970859Y-97469907D01*
X101970195Y-97469428D01*
X101894578Y-97422629D01*
X101893961Y-97422297D01*
X101799948Y-97378856D01*
X101799768Y-97378778D01*
X101676838Y-97327825D01*
X101670508Y-97321492D01*
X101670497Y-97312568D01*
X101797437Y-97003809D01*
X101803809Y-96997437D01*
X102112568Y-96870497D01*
X102121523Y-96870520D01*
G37*
%TD.AperFunction*%
%TD*%
%TA.AperFunction,Conductor*%
%TO.N,/Driver/12V*%
G36*
X113364236Y-98681106D02*
G01*
X113370554Y-98687408D01*
X113499120Y-98995494D01*
X113499120Y-99004506D01*
X113370554Y-99312592D01*
X113364205Y-99318907D01*
X113355281Y-99318896D01*
X113232343Y-99268007D01*
X113232118Y-99267919D01*
X113134962Y-99232173D01*
X113134269Y-99231965D01*
X113047715Y-99211590D01*
X113046903Y-99211459D01*
X112944631Y-99202207D01*
X112944202Y-99202184D01*
X112811523Y-99200175D01*
X112803303Y-99196623D01*
X112800000Y-99188476D01*
X112800000Y-98811524D01*
X112803427Y-98803251D01*
X112811523Y-98799825D01*
X112944202Y-98797815D01*
X112944631Y-98797792D01*
X113046903Y-98788540D01*
X113047715Y-98788409D01*
X113134269Y-98768034D01*
X113134962Y-98767826D01*
X113232118Y-98732080D01*
X113232343Y-98731992D01*
X113355281Y-98681104D01*
X113364236Y-98681106D01*
G37*
%TD.AperFunction*%
%TD*%
%TA.AperFunction,Conductor*%
%TO.N,/BLE_RX*%
G36*
X139458185Y-81826721D02*
G01*
X139565423Y-81840691D01*
X139569394Y-81841957D01*
X139644773Y-81881931D01*
X139647264Y-81883704D01*
X139708502Y-81940721D01*
X139708603Y-81940813D01*
X139782012Y-82005576D01*
X139783034Y-82006299D01*
X139886600Y-82063978D01*
X139892160Y-82070998D01*
X139891733Y-82078637D01*
X139802852Y-82295482D01*
X139796487Y-82301861D01*
X139581802Y-82390403D01*
X139572847Y-82390390D01*
X139566525Y-82384048D01*
X139565938Y-82382205D01*
X139547651Y-82302561D01*
X139547355Y-82300066D01*
X139546453Y-82214246D01*
X139546450Y-82214126D01*
X139544008Y-82143480D01*
X139543323Y-82140947D01*
X139518747Y-82095279D01*
X139515176Y-82092504D01*
X139453843Y-82077211D01*
X139446645Y-82071885D01*
X139444974Y-82065859D01*
X139444974Y-81838323D01*
X139448401Y-81830050D01*
X139456674Y-81826623D01*
X139458185Y-81826721D01*
G37*
%TD.AperFunction*%
%TD*%
%TA.AperFunction,Conductor*%
%TO.N,/BLE_RX*%
G36*
X101220034Y-94991094D02*
G01*
X101226343Y-94997450D01*
X101226249Y-95006546D01*
X101189237Y-95091801D01*
X101159233Y-95160950D01*
X101159028Y-95161492D01*
X101139413Y-95222546D01*
X101139197Y-95223469D01*
X101128391Y-95295905D01*
X101128331Y-95296562D01*
X101125365Y-95388677D01*
X101121674Y-95396835D01*
X101113671Y-95400000D01*
X100886329Y-95400000D01*
X100878056Y-95396573D01*
X100874635Y-95388677D01*
X100871668Y-95296562D01*
X100871608Y-95295905D01*
X100860802Y-95223469D01*
X100860586Y-95222546D01*
X100840970Y-95161492D01*
X100840765Y-95160950D01*
X100810762Y-95091801D01*
X100773751Y-95006546D01*
X100773600Y-94997593D01*
X100779966Y-94991094D01*
X100995483Y-94900891D01*
X101004517Y-94900891D01*
X101220034Y-94991094D01*
G37*
%TD.AperFunction*%
%TD*%
%TA.AperFunction,Conductor*%
%TO.N,/Driver/75V*%
G36*
X94008278Y-95007288D02*
G01*
X94789892Y-95789880D01*
X94793314Y-95798155D01*
X94789882Y-95806426D01*
X94788077Y-95807901D01*
X94710349Y-95859407D01*
X94709684Y-95859918D01*
X94620248Y-95939238D01*
X94619783Y-95939699D01*
X94530166Y-96039274D01*
X94529847Y-96039662D01*
X94440136Y-96159457D01*
X94439876Y-96159832D01*
X94353453Y-96294615D01*
X94346103Y-96299730D01*
X94343604Y-96300000D01*
X93656396Y-96300000D01*
X93648123Y-96296573D01*
X93646547Y-96294615D01*
X93560124Y-96159832D01*
X93559864Y-96159457D01*
X93470153Y-96039662D01*
X93469834Y-96039274D01*
X93380217Y-95939699D01*
X93379752Y-95939238D01*
X93290316Y-95859918D01*
X93289651Y-95859407D01*
X93211923Y-95807901D01*
X93206920Y-95800475D01*
X93208633Y-95791685D01*
X93210108Y-95789880D01*
X93991722Y-95007288D01*
X93999993Y-95003856D01*
X94008278Y-95007288D01*
G37*
%TD.AperFunction*%
%TD*%
M02*
