M48
; DRILL file {KiCad (6.99.0-2501-g45393f228a)} date Wed Jul 20 10:28:43 2022
; FORMAT={-:-/ absolute / inch / decimal}
; #@! TF.CreationDate,2022-07-20T10:28:43+12:00
; #@! TF.GenerationSoftware,Kicad,Pcbnew,(6.99.0-2501-g45393f228a)
; #@! TF.FileFunction,Plated,1,4,PTH
FMAT,2
INCH
; #@! TA.AperFunction,Plated,PTH,ViaDrill
T1C0.0098
; #@! TA.AperFunction,Plated,PTH,ViaDrill
T2C0.0138
; #@! TA.AperFunction,Plated,PTH,ComponentDrill
T3C0.0197
; #@! TA.AperFunction,Plated,PTH,ComponentDrill
T4C0.0295
; #@! TA.AperFunction,Plated,PTH,ComponentDrill
T5C0.0315
; #@! TA.AperFunction,Plated,PTH,ComponentDrill
T6C0.0394
; #@! TA.AperFunction,Plated,PTH,ComponentDrill
T7C0.0472
; #@! TA.AperFunction,Plated,PTH,ComponentDrill
T8C0.0728
%
G90
G05
T1
X3.3425Y-4.0079
X3.3425Y-4.0669
X3.3425Y-4.1299
X3.3976Y-4.7638
X3.4016Y-4.9606
X3.4291Y-4.0
X3.4291Y-4.0472
X3.4291Y-4.0984
X3.4331Y-4.7953
X3.563Y-3.8976
X3.563Y-3.9449
X3.563Y-4.0472
X3.563Y-4.0984
X3.6181Y-3.8465
X3.6811Y-3.8465
X3.6811Y-4.9016
X3.7402Y-4.0866
X3.7992Y-4.1299
X3.8504Y-3.8583
X3.8504Y-3.9094
X3.8504Y-4.0551
X3.8504Y-4.1299
X3.9291Y-4.0039
X3.9409Y-4.874
X3.9409Y-4.9646
X3.9488Y-3.7835
X3.9764Y-3.7047
X3.9764Y-3.7362
X3.9764Y-4.874
X3.9764Y-4.9646
X4.0197Y-3.9094
X4.0197Y-3.9606
X4.1142Y-4.9803
X4.1299Y-3.8701
X4.1299Y-4.0197
X4.1614Y-4.8661
X4.2362Y-4.1457
X4.3228Y-3.8701
X4.3307Y-3.3543
X4.3307Y-3.6181
X4.3346Y-4.0394
X4.3504Y-4.1535
X4.3701Y-4.3504
X4.3858Y-5.0
X4.4094Y-3.4449
X4.4094Y-3.4843
X4.4213Y-4.0354
X4.4291Y-4.126
X4.5472Y-3.5433
X4.5906Y-3.6732
X4.5906Y-4.8937
X4.6063Y-3.5039
X4.6063Y-3.5433
X4.6654Y-3.5433
X4.685Y-4.5079
X4.7047Y-3.6339
X4.7047Y-3.937
X4.7244Y-3.5433
X4.7441Y-3.4843
X4.7441Y-3.9173
X4.7756Y-3.5433
X4.8425Y-4.874
X4.8425Y-4.9646
X4.8622Y-3.1929
X4.8622Y-3.2323
X4.8622Y-3.9567
X4.8819Y-4.874
X4.8819Y-4.9646
X4.9016Y-3.9173
X4.9331Y-3.6181
X5.0079Y-3.1929
X5.0079Y-3.2323
X5.0079Y-3.2717
X5.0157Y-3.5197
X5.0197Y-3.9764
X5.0197Y-4.9803
X5.0591Y-3.9173
X5.0669Y-4.8661
X5.0984Y-3.4843
X5.0984Y-3.6181
X5.1378Y-3.4843
X5.1378Y-3.874
X5.1772Y-3.2717
X5.1772Y-3.4843
X5.2362Y-3.9606
X5.2598Y-3.3346
X5.2638Y-3.252
X5.2874Y-5.0
X5.2953Y-3.8937
X5.3268Y-3.9882
X5.3622Y-3.2874
X5.4134Y-3.2717
X5.4567Y-3.2559
X5.4685Y-3.7362
X5.4921Y-3.248
X5.4921Y-4.1614
X5.4921Y-4.9016
X5.5118Y-3.7362
X5.5787Y-3.6102
X5.6102Y-3.5551
X5.6102Y-3.6102
X5.6102Y-4.5079
X5.6181Y-3.2559
X5.6496Y-3.4685
X5.689Y-3.3858
X5.7126Y-3.1929
X5.7244Y-3.7795
X5.7244Y-4.1299
X5.7244Y-4.1969
X5.748Y-3.3858
X5.752Y-4.874
X5.752Y-4.9646
X5.7677Y-3.2677
X5.7874Y-3.3858
X5.7874Y-4.063
X5.7913Y-4.874
X5.7913Y-4.9646
X5.815Y-4.0433
X5.8268Y-3.2638
X5.8268Y-3.3858
X5.8465Y-4.0276
X5.8819Y-3.9606
X5.9055Y-3.3268
X5.9213Y-3.9134
X5.9252Y-3.1929
X5.9252Y-4.9803
X5.9724Y-4.8661
X5.9725Y-3.3857
X5.9764Y-3.5039
X5.9843Y-3.6811
X5.9921Y-3.8031
X5.9961Y-3.7283
X5.9961Y-3.874
X6.0079Y-3.4606
X6.0472Y-3.1929
X6.0866Y-4.0945
X6.0906Y-3.874
X6.1024Y-3.9567
X6.1024Y-3.9961
X6.1142Y-3.8031
X6.1457Y-3.1929
X6.1457Y-3.2559
X6.1457Y-3.3465
X6.1457Y-3.5236
X6.1457Y-3.5945
X6.1457Y-3.8031
X6.1929Y-5.0
X6.2008Y-4.3898
X6.2205Y-4.2913
X6.2205Y-4.3504
T2
X3.2717Y-3.5748
X3.2717Y-3.6181
X3.3071Y-3.5945
X3.5197Y-3.5039
X3.5315Y-4.7047
X3.5591Y-3.5039
X3.5984Y-3.5039
X3.5984Y-3.5433
X3.689Y-3.5039
X4.0079Y-3.8189
X4.0984Y-3.3268
X4.1496Y-3.3268
X4.2008Y-3.3268
X4.248Y-3.3268
X4.2874Y-3.4252
X4.3307Y-3.4252
X4.4685Y-3.8976
X4.5315Y-3.4803
X4.6457Y-3.9567
T4
X4.1575Y-3.7539
X4.2362Y-3.7539
X4.315Y-3.7539
X4.3937Y-3.7539
X4.4685Y-3.2894
X4.4724Y-3.7539
X4.5472Y-3.2894
X4.5512Y-3.7539
X4.626Y-3.2894
X4.7047Y-3.2894
X4.7835Y-3.2894
X4.8622Y-3.2894
T5
X3.7008Y-3.7402
X3.7992Y-3.7402
X3.937Y-3.3268
X3.937Y-3.4252
T6
X5.3394Y-4.0512
X5.4394Y-4.0512
X5.5394Y-4.0512
X5.6394Y-4.0512
T7
X3.7173Y-4.685
X3.8173Y-4.685
X3.8189Y-4.3504
X3.9173Y-4.685
X4.0157Y-4.3504
X4.1504Y-4.685
X4.2504Y-4.685
X4.3504Y-4.685
X4.6031Y-4.685
X4.7031Y-4.685
X4.8031Y-4.685
X5.0362Y-4.685
X5.0394Y-4.3504
X5.1362Y-4.685
X5.2362Y-4.3504
X5.2362Y-4.685
X5.4906Y-4.685
X5.5906Y-4.685
X5.6841Y-4.3701
X5.6906Y-4.685
X5.8809Y-4.3701
X5.9236Y-4.685
X6.0236Y-4.685
X6.1236Y-4.685
T8
X3.3096Y-4.2742
X3.3096Y-4.5053
X3.3096Y-5.16
X3.3096Y-5.3911
X3.5407Y-4.2742
X3.5407Y-4.5053
X3.5407Y-5.16
X3.5407Y-5.3911
X4.1167Y-5.1404
X4.1167Y-5.3715
X4.3478Y-5.1404
X4.3478Y-5.3715
X5.0222Y-5.1404
X5.0222Y-5.3715
X5.2533Y-5.1404
X5.2533Y-5.3715
X5.9278Y-5.1404
X5.9278Y-5.3715
X6.1589Y-5.1404
X6.1589Y-5.3715
T3
G00X6.1491Y-3.872
M15
G01X6.1491Y-3.8996
M16
G05
G00X6.1491Y-4.0925
M15
G01X6.1491Y-4.1201
M16
G05
G00X6.2338Y-3.9744
M15
G01X6.2338Y-4.0177
M16
G05
T0
M30
