%TF.GenerationSoftware,KiCad,Pcbnew,(6.99.0-2501-g45393f228a)*%
%TF.CreationDate,2022-08-07T00:12:47+12:00*%
%TF.ProjectId,bldc_hardware_riscv,626c6463-5f68-4617-9264-776172655f72,rev?*%
%TF.SameCoordinates,Original*%
%TF.FileFunction,Copper,L2,Inr*%
%TF.FilePolarity,Positive*%
%FSLAX46Y46*%
G04 Gerber Fmt 4.6, Leading zero omitted, Abs format (unit mm)*
G04 Created by KiCad (PCBNEW (6.99.0-2501-g45393f228a)) date 2022-08-07 00:12:47*
%MOMM*%
%LPD*%
G01*
G04 APERTURE LIST*
G04 Aperture macros list*
%AMRoundRect*
0 Rectangle with rounded corners*
0 $1 Rounding radius*
0 $2 $3 $4 $5 $6 $7 $8 $9 X,Y pos of 4 corners*
0 Add a 4 corners polygon primitive as box body*
4,1,4,$2,$3,$4,$5,$6,$7,$8,$9,$2,$3,0*
0 Add four circle primitives for the rounded corners*
1,1,$1+$1,$2,$3*
1,1,$1+$1,$4,$5*
1,1,$1+$1,$6,$7*
1,1,$1+$1,$8,$9*
0 Add four rect primitives between the rounded corners*
20,1,$1+$1,$2,$3,$4,$5,0*
20,1,$1+$1,$4,$5,$6,$7,0*
20,1,$1+$1,$6,$7,$8,$9,0*
20,1,$1+$1,$8,$9,$2,$3,0*%
G04 Aperture macros list end*
%TA.AperFunction,ComponentPad*%
%ADD10R,1.905000X2.000000*%
%TD*%
%TA.AperFunction,ComponentPad*%
%ADD11O,1.905000X2.000000*%
%TD*%
%TA.AperFunction,ComponentPad*%
%ADD12R,1.600000X1.600000*%
%TD*%
%TA.AperFunction,ComponentPad*%
%ADD13C,1.600000*%
%TD*%
%TA.AperFunction,ComponentPad*%
%ADD14RoundRect,0.250000X0.350000X0.625000X-0.350000X0.625000X-0.350000X-0.625000X0.350000X-0.625000X0*%
%TD*%
%TA.AperFunction,ComponentPad*%
%ADD15O,1.200000X1.750000*%
%TD*%
%TA.AperFunction,ComponentPad*%
%ADD16RoundRect,0.250000X-0.350000X-0.625000X0.350000X-0.625000X0.350000X0.625000X-0.350000X0.625000X0*%
%TD*%
%TA.AperFunction,ComponentPad*%
%ADD17R,2.400000X2.400000*%
%TD*%
%TA.AperFunction,ComponentPad*%
%ADD18C,2.400000*%
%TD*%
%TA.AperFunction,ComponentPad*%
%ADD19C,3.200000*%
%TD*%
%TA.AperFunction,ComponentPad*%
%ADD20O,1.100000X1.800000*%
%TD*%
%TA.AperFunction,ComponentPad*%
%ADD21O,1.100000X2.200000*%
%TD*%
%TA.AperFunction,ComponentPad*%
%ADD22R,1.700000X1.700000*%
%TD*%
%TA.AperFunction,ComponentPad*%
%ADD23O,1.700000X1.700000*%
%TD*%
%TA.AperFunction,ViaPad*%
%ADD24C,0.500000*%
%TD*%
%TA.AperFunction,ViaPad*%
%ADD25C,0.700000*%
%TD*%
%TA.AperFunction,Conductor*%
%ADD26C,0.250000*%
%TD*%
%TA.AperFunction,Conductor*%
%ADD27C,0.400000*%
%TD*%
%TA.AperFunction,Conductor*%
%ADD28C,0.450000*%
%TD*%
G04 APERTURE END LIST*
D10*
%TO.N,Net-(D2-A)*%
%TO.C,Q2*%
X99599999Y-118999999D03*
D11*
%TO.N,/Driver/VS1*%
X97059999Y-118999999D03*
%TO.N,GND*%
X94519999Y-118999999D03*
%TD*%
D10*
%TO.N,Net-(D10-A)*%
%TO.C,Q5*%
X155599999Y-118999999D03*
D11*
%TO.N,/Driver/99V*%
X153059999Y-118999999D03*
%TO.N,/Driver/VS3*%
X150519999Y-118999999D03*
%TD*%
D10*
%TO.N,Net-(D11-A)*%
%TO.C,Q6*%
X144599999Y-118999999D03*
D11*
%TO.N,/Driver/VS3*%
X142059999Y-118999999D03*
%TO.N,GND*%
X139519999Y-118999999D03*
%TD*%
D10*
%TO.N,Net-(D1-A)*%
%TO.C,Q1*%
X110599999Y-118999999D03*
D11*
%TO.N,/Driver/99V*%
X108059999Y-118999999D03*
%TO.N,/Driver/VS1*%
X105519999Y-118999999D03*
%TD*%
D10*
%TO.N,Net-(D5-A)*%
%TO.C,Q4*%
X122099999Y-118999999D03*
D11*
%TO.N,/Driver/VS2*%
X119559999Y-118999999D03*
%TO.N,GND*%
X117019999Y-118999999D03*
%TD*%
D10*
%TO.N,Net-(D4-A)*%
%TO.C,Q3*%
X133099999Y-118999999D03*
D11*
%TO.N,/Driver/99V*%
X130559999Y-118999999D03*
%TO.N,/Driver/VS2*%
X128019999Y-118999999D03*
%TD*%
D12*
%TO.N,/Driver/12V*%
%TO.C,C17*%
X99999999Y-84499999D03*
D13*
%TO.N,GND*%
X100000000Y-87000000D03*
%TD*%
D14*
%TO.N,/ADC_EXT*%
%TO.C,J3*%
X115600000Y-95350000D03*
D15*
%TO.N,Net-(J3-Pin_2)*%
X113599999Y-95349999D03*
%TO.N,Net-(J3-Pin_3)*%
X111599999Y-95349999D03*
%TO.N,/CANH*%
X109599999Y-95349999D03*
%TO.N,/CANL*%
X107599999Y-95349999D03*
%TO.N,GND*%
X105599999Y-95349999D03*
%TD*%
D16*
%TO.N,/HALL-VCC*%
%TO.C,J2*%
X113500000Y-83550000D03*
D15*
%TO.N,/MOTOR-TEMP*%
X115499999Y-83549999D03*
%TO.N,/HALL1*%
X117499999Y-83549999D03*
%TO.N,/HALL2*%
X119499999Y-83549999D03*
%TO.N,/HALL3*%
X121499999Y-83549999D03*
%TO.N,GND*%
X123499999Y-83549999D03*
%TD*%
D17*
%TO.N,/Driver/99V*%
%TO.C,C101*%
X105999999Y-110499999D03*
D18*
%TO.N,GND*%
X101000000Y-110500000D03*
%TD*%
D17*
%TO.N,/Driver/99V*%
%TO.C,C102*%
X132999999Y-110499999D03*
D18*
%TO.N,GND*%
X128000000Y-110500000D03*
%TD*%
D19*
%TO.N,/Driver/PhaseA*%
%TO.C,X3*%
X99500000Y-137000000D03*
X99500000Y-131000000D03*
X94500000Y-137000000D03*
X94500000Y-131000000D03*
%TD*%
%TO.N,/Driver/PhaseB*%
%TO.C,X4*%
X122000000Y-137000000D03*
X122000000Y-131000000D03*
X117000000Y-137000000D03*
X117000000Y-131000000D03*
%TD*%
D20*
%TO.N,unconnected-(J1-Shield)*%
%TO.C,J1*%
X156187499Y-98699999D03*
D21*
X158337499Y-101499999D03*
D20*
X156187499Y-104299999D03*
%TD*%
D19*
%TO.N,/Driver/99V*%
%TO.C,X1*%
X89200000Y-114500000D03*
X89200000Y-108500000D03*
X84200000Y-114500000D03*
X84200000Y-108500000D03*
%TD*%
D12*
%TO.N,/Driver/75V*%
%TO.C,C5*%
X93999999Y-94999999D03*
D13*
%TO.N,GND*%
X96500000Y-95000000D03*
%TD*%
D17*
%TO.N,/Driver/99V*%
%TO.C,C103*%
X149423958Y-110499999D03*
D18*
%TO.N,GND*%
X144423959Y-110500000D03*
%TD*%
D22*
%TO.N,GND*%
%TO.C,J4*%
X134999999Y-102599999D03*
D23*
%TO.N,/3.3V*%
X137539999Y-102599999D03*
%TO.N,/SWCK*%
X140079999Y-102599999D03*
%TO.N,/SWIO*%
X142619999Y-102599999D03*
%TD*%
D19*
%TO.N,/Driver/PhaseC*%
%TO.C,X5*%
X144500000Y-137000000D03*
X144500000Y-131000000D03*
X139500000Y-137000000D03*
X139500000Y-131000000D03*
%TD*%
D22*
%TO.N,GND*%
%TO.C,J5*%
X158199999Y-87399999D03*
D23*
%TO.N,/DEBUG_TX*%
X158199999Y-84859999D03*
%TO.N,/DEBUG_RX*%
X158199999Y-82319999D03*
%TD*%
D19*
%TO.N,GND*%
%TO.C,X2*%
X89200000Y-126700000D03*
X89200000Y-120700000D03*
X84200000Y-126700000D03*
X84200000Y-120700000D03*
%TD*%
D24*
%TO.N,Net-(D2-A)*%
X97700000Y-116000000D03*
%TO.N,Net-(D5-A)*%
X113500000Y-116000000D03*
%TO.N,/BOOT0*%
X145400000Y-96000000D03*
X130500000Y-98400000D03*
%TO.N,Net-(D11-A)*%
X137100000Y-116000000D03*
%TO.N,Net-(J1-D-)*%
X155000000Y-100500000D03*
%TO.N,/BLE_MODE*%
X142700000Y-82700000D03*
X100300000Y-96100000D03*
X87100000Y-103500000D03*
%TO.N,/BLE_TX*%
X87100000Y-101500000D03*
X140800000Y-82600000D03*
X101000000Y-94100000D03*
%TO.N,Net-(J1-D+)*%
X155000000Y-101500000D03*
%TO.N,/AIN_CS3*%
X158500000Y-133100000D03*
X146000000Y-86000000D03*
%TO.N,/AIN_CS2*%
X146500000Y-83000000D03*
X141900000Y-126900000D03*
%TO.N,/AIN_CS1*%
X147000000Y-86000000D03*
X118800000Y-126100000D03*
%TO.N,/AIN_VS1*%
X120500000Y-99500000D03*
X151702471Y-85996500D03*
%TO.N,/AIN_VS2*%
X124500000Y-99500000D03*
X150000000Y-84500000D03*
%TO.N,/AIN_VS3*%
X128500000Y-99500000D03*
X148000000Y-86000000D03*
%TO.N,/AIN_VIN*%
X110100000Y-102600000D03*
X144500000Y-86000000D03*
%TO.N,/ADC_EXT*%
X143500000Y-88100000D03*
X125300000Y-91900000D03*
%TO.N,/DEBUG_TX*%
X138600000Y-82600000D03*
%TO.N,/DEBUG_RX*%
X137800000Y-82600000D03*
%TO.N,GND*%
X91800000Y-97700000D03*
X152300000Y-98400000D03*
X126600000Y-84200000D03*
X107600000Y-105300000D03*
X96500000Y-104900000D03*
D25*
X106700000Y-84500000D03*
D24*
X84900000Y-101800000D03*
X132400000Y-132200000D03*
X115500000Y-90000000D03*
X123500000Y-100500000D03*
X90500000Y-100200000D03*
D25*
X104100000Y-84500000D03*
D24*
X97800000Y-103000000D03*
X92400000Y-125600000D03*
D25*
X103200000Y-81000000D03*
X107900000Y-84500000D03*
D24*
X129400000Y-92400000D03*
X132400000Y-132900000D03*
X156100000Y-81100000D03*
X91900000Y-104900000D03*
X136900000Y-82600000D03*
D25*
X107300000Y-81000000D03*
D24*
X151800000Y-89000000D03*
X90500000Y-104100000D03*
X93000000Y-97700000D03*
X89000000Y-104900000D03*
X133700000Y-82600000D03*
X156100000Y-91300000D03*
X101800000Y-99500000D03*
X154914500Y-133037763D03*
X120000000Y-90000000D03*
X127500000Y-101000000D03*
D25*
X83100000Y-90800000D03*
D24*
X112000000Y-88500000D03*
X121300000Y-90000000D03*
X123500000Y-82100000D03*
X119500000Y-100000000D03*
X97800000Y-104900000D03*
X156100000Y-85000000D03*
X148500000Y-102300000D03*
X117000000Y-89000000D03*
X154700000Y-98400000D03*
X139500000Y-105700000D03*
D25*
X110000000Y-87000000D03*
D24*
X156100000Y-89500000D03*
D25*
X104700000Y-81000000D03*
D24*
X94400000Y-104900000D03*
X84900000Y-104900000D03*
X110000000Y-85200000D03*
X152000000Y-93500000D03*
X156100000Y-82700000D03*
X92400000Y-127600000D03*
X97800000Y-99300000D03*
X154914500Y-132337763D03*
X155300000Y-96600000D03*
X125100000Y-84200000D03*
D25*
X105400000Y-84500000D03*
D24*
X94000000Y-124300000D03*
X90500000Y-102800000D03*
X130000000Y-81000000D03*
X87100000Y-104900000D03*
D25*
X108900000Y-87000000D03*
D24*
X112300000Y-102500000D03*
X109900000Y-132200000D03*
X130900000Y-84200000D03*
X109900000Y-132900000D03*
X97800000Y-98000000D03*
X112000000Y-87500000D03*
X156100000Y-96600000D03*
X107000000Y-100400000D03*
X117000000Y-90000000D03*
X152300000Y-94700000D03*
X96900000Y-127600000D03*
X153600000Y-81100000D03*
D25*
X84000000Y-91300000D03*
X93700000Y-89000000D03*
D24*
X154800000Y-104000000D03*
X112500000Y-104800000D03*
X90500000Y-99000000D03*
D25*
X106000000Y-81000000D03*
D24*
X135100000Y-101100000D03*
X90500000Y-97700000D03*
D25*
X83100000Y-92600000D03*
D24*
X123500000Y-81100000D03*
X118500000Y-90000000D03*
X84900000Y-103300000D03*
%TO.N,/3.3V*%
X95000000Y-103800000D03*
X133600000Y-84700000D03*
X99800000Y-102500000D03*
X127400000Y-89400000D03*
X101800000Y-101000000D03*
X150400000Y-99400000D03*
X152200000Y-96600000D03*
X152600000Y-87900000D03*
X110000000Y-91900000D03*
X147700000Y-83000000D03*
X136200000Y-83500000D03*
X134700000Y-98500000D03*
X149400000Y-100600000D03*
%TO.N,/AIN_V12V*%
X99600000Y-81300000D03*
X144800000Y-88100000D03*
%TO.N,/Driver/LO2*%
X110500000Y-105500000D03*
X119000000Y-114500000D03*
%TO.N,/Driver/LO3*%
X142500000Y-114500000D03*
X111000000Y-110500000D03*
D25*
%TO.N,/Driver/12V*%
X115100000Y-88400000D03*
X118000000Y-100500000D03*
X101800000Y-97000000D03*
X113500000Y-99000000D03*
X92500000Y-122100000D03*
D24*
%TO.N,/Driver/5V*%
X133800000Y-134700000D03*
X156300000Y-134700000D03*
X111300000Y-134700000D03*
X95300000Y-125700000D03*
%TO.N,/MOTOR-TEMP*%
X139700000Y-90300000D03*
X120500000Y-88500000D03*
%TO.N,/HALL1*%
X131500000Y-88500000D03*
%TO.N,/HALL2*%
X130500000Y-88500000D03*
%TO.N,/HALL3*%
X129500000Y-88500000D03*
%TO.N,/UART_T*%
X119500000Y-92300000D03*
X141700000Y-91700000D03*
%TO.N,/UART_R*%
X142500000Y-91700000D03*
X116600000Y-93300000D03*
%TO.N,/LED1*%
X147000000Y-103200000D03*
X145400000Y-104900000D03*
%TO.N,/LED2*%
X145400000Y-106600000D03*
X147700000Y-102700000D03*
%TO.N,/CAN-R*%
X138900000Y-94900000D03*
X104900000Y-103000000D03*
%TO.N,/CAN-T*%
X140000000Y-94900000D03*
X104900000Y-98100000D03*
%TO.N,/SWIO*%
X133000000Y-100400000D03*
%TO.N,/BLE_RX*%
X139800000Y-82300000D03*
X101000000Y-94900000D03*
X87100000Y-102500000D03*
D25*
%TO.N,/Driver/75V*%
X91400000Y-90000000D03*
X91400000Y-89000000D03*
D24*
X92600000Y-106800000D03*
X92600000Y-106200000D03*
D25*
X89400000Y-89000000D03*
X90400000Y-89000000D03*
%TD*%
D26*
%TO.N,Net-(D2-A)*%
X99600000Y-117900000D02*
X99600000Y-119000000D01*
X97700000Y-116000000D02*
X99600000Y-117900000D01*
%TO.N,Net-(D5-A)*%
X114700000Y-117200000D02*
X113500000Y-116000000D01*
X122100000Y-119000000D02*
X120300000Y-117200000D01*
X120300000Y-117200000D02*
X114700000Y-117200000D01*
%TO.N,/BOOT0*%
X145400000Y-96000000D02*
X143700000Y-96000000D01*
X142200000Y-97500000D02*
X131400000Y-97500000D01*
X131400000Y-97500000D02*
X130500000Y-98400000D01*
X143700000Y-96000000D02*
X142200000Y-97500000D01*
%TO.N,Net-(D11-A)*%
X138100000Y-117000000D02*
X142600000Y-117000000D01*
X137100000Y-116000000D02*
X138100000Y-117000000D01*
X142600000Y-117000000D02*
X144600000Y-119000000D01*
%TO.N,/BLE_MODE*%
X96785536Y-97300000D02*
X99100000Y-97300000D01*
X87100000Y-103500000D02*
X87700000Y-103500000D01*
X87700000Y-103500000D02*
X89250960Y-101949040D01*
X92136496Y-101949040D02*
X96785536Y-97300000D01*
X89250960Y-101949040D02*
X92136496Y-101949040D01*
X99100000Y-97300000D02*
X100300000Y-96100000D01*
%TO.N,/BLE_TX*%
X88150000Y-100950000D02*
X91679290Y-100950000D01*
X97829290Y-96300000D02*
X100029290Y-94100000D01*
X87100000Y-101500000D02*
X87600000Y-101500000D01*
X100029290Y-94100000D02*
X101000000Y-94100000D01*
X87600000Y-101500000D02*
X88150000Y-100950000D01*
X96329290Y-96300000D02*
X97829290Y-96300000D01*
X91679290Y-100950000D02*
X96329290Y-96300000D01*
%TO.N,/AIN_CS3*%
X155000000Y-88400000D02*
X155000000Y-85200000D01*
X145500000Y-83500000D02*
X146000000Y-84000000D01*
X145500000Y-82500000D02*
X145500000Y-83500000D01*
X146000000Y-84000000D02*
X146000000Y-86000000D01*
X155000000Y-85200000D02*
X151600000Y-81800000D01*
X160000000Y-110300000D02*
X154000000Y-104300000D01*
X154000000Y-89400000D02*
X155000000Y-88400000D01*
X146200000Y-81800000D02*
X145500000Y-82500000D01*
X151600000Y-81800000D02*
X146200000Y-81800000D01*
X158500000Y-133100000D02*
X160000000Y-131600000D01*
X160000000Y-131600000D02*
X160000000Y-110300000D01*
X154000000Y-104300000D02*
X154000000Y-89400000D01*
%TO.N,/AIN_CS2*%
X154500480Y-85406908D02*
X154500480Y-88193092D01*
X153500000Y-89193572D02*
X153500000Y-104400000D01*
X151196786Y-82303214D02*
X151396786Y-82303214D01*
X147200000Y-82300000D02*
X151193572Y-82300000D01*
X151396786Y-82303214D02*
X154500480Y-85406908D01*
X146500000Y-83000000D02*
X147200000Y-82300000D01*
X159510499Y-110510499D02*
X153500000Y-104500000D01*
X159510499Y-123789501D02*
X159510499Y-110510499D01*
X141900000Y-126900000D02*
X156400000Y-126900000D01*
X151193572Y-82300000D02*
X151196786Y-82303214D01*
X153500000Y-104500000D02*
X153500000Y-104400000D01*
X154500480Y-88193092D02*
X153500000Y-89193572D01*
X156400000Y-126900000D02*
X159510499Y-123789501D01*
%TO.N,/AIN_CS1*%
X154000960Y-85613816D02*
X154000960Y-87986184D01*
X151687144Y-83300000D02*
X154000960Y-85613816D01*
X154000960Y-87986184D02*
X153000000Y-88987144D01*
X156400000Y-126200000D02*
X159020998Y-123579002D01*
X118800000Y-126100000D02*
X119700000Y-127000000D01*
X153000000Y-88987144D02*
X153000000Y-104700000D01*
X119700000Y-127000000D02*
X140400000Y-127000000D01*
X140400000Y-127000000D02*
X141200000Y-126200000D01*
X159020998Y-123579002D02*
X159020999Y-110720999D01*
X141200000Y-126200000D02*
X156400000Y-126200000D01*
X147000000Y-86000000D02*
X147000000Y-85100000D01*
X148800000Y-83300000D02*
X151687144Y-83300000D01*
X159020999Y-110720999D02*
X153000000Y-104700000D01*
X147000000Y-85100000D02*
X148800000Y-83300000D01*
%TO.N,/AIN_VS1*%
X130293091Y-96500481D02*
X129193092Y-97600480D01*
X141686663Y-96500481D02*
X130293091Y-96500481D01*
X129193092Y-97600480D02*
X123199520Y-97600480D01*
X121300000Y-99500000D02*
X120500000Y-99500000D01*
X123199520Y-97600480D02*
X121300000Y-99500000D01*
X151702471Y-85996500D02*
X151702471Y-86484673D01*
X151702471Y-86484673D02*
X141686663Y-96500481D01*
%TO.N,/AIN_VS2*%
X125900000Y-98100000D02*
X124500000Y-99500000D01*
X152400000Y-85600000D02*
X152400000Y-86493572D01*
X129400000Y-98100000D02*
X125900000Y-98100000D01*
X130500000Y-97000000D02*
X129400000Y-98100000D01*
X152400000Y-86493572D02*
X141893572Y-97000000D01*
X151300000Y-84500000D02*
X152400000Y-85600000D01*
X141893572Y-97000000D02*
X130500000Y-97000000D01*
X150000000Y-84500000D02*
X151300000Y-84500000D01*
%TO.N,/AIN_VS3*%
X148000000Y-85500000D02*
X148000000Y-86000000D01*
X151306428Y-83800000D02*
X149700000Y-83800000D01*
X153200000Y-85693572D02*
X151306428Y-83800000D01*
X146200000Y-93393759D02*
X153200000Y-86393759D01*
X128500000Y-99500000D02*
X128524511Y-99524511D01*
X145800000Y-96800000D02*
X146200000Y-96400000D01*
X146200000Y-96400000D02*
X146200000Y-93393759D01*
X144000000Y-96800000D02*
X145800000Y-96800000D01*
X141275489Y-99524511D02*
X144000000Y-96800000D01*
X153200000Y-86393759D02*
X153200000Y-85693572D01*
X128524511Y-99524511D02*
X141275489Y-99524511D01*
X149700000Y-83800000D02*
X148000000Y-85500000D01*
%TO.N,/AIN_VIN*%
X128986184Y-97100960D02*
X122263322Y-97100960D01*
X145500000Y-91980716D02*
X141479755Y-96000961D01*
X144500000Y-86800000D02*
X145500000Y-87800000D01*
X130086184Y-96000961D02*
X128986184Y-97100960D01*
X145500000Y-87800000D02*
X145500000Y-91980716D01*
X110100000Y-100200000D02*
X110100000Y-102600000D01*
X112100000Y-98200000D02*
X110100000Y-100200000D01*
X141479755Y-96000961D02*
X130086184Y-96000961D01*
X121164282Y-98200000D02*
X112100000Y-98200000D01*
X144500000Y-86000000D02*
X144500000Y-86800000D01*
X122263322Y-97100960D02*
X121164282Y-98200000D01*
%TO.N,/ADC_EXT*%
X123200000Y-91600000D02*
X123500000Y-91900000D01*
X143500000Y-88200000D02*
X143500000Y-88800000D01*
X127620000Y-91680000D02*
X140620000Y-91680000D01*
X115600000Y-92700000D02*
X116700000Y-91600000D01*
X115600000Y-95350000D02*
X115600000Y-92700000D01*
X125300000Y-91900000D02*
X127400000Y-91900000D01*
X127400000Y-91900000D02*
X127620000Y-91680000D01*
X140620000Y-91680000D02*
X143500000Y-88800000D01*
X116700000Y-91600000D02*
X123200000Y-91600000D01*
X123500000Y-91900000D02*
X125300000Y-91900000D01*
%TO.N,/DEBUG_TX*%
X138600000Y-82090000D02*
X138600000Y-82600000D01*
X157240000Y-83900000D02*
X158200000Y-84860000D01*
X151890000Y-81190000D02*
X139500000Y-81190000D01*
X139500000Y-81190000D02*
X138600000Y-82090000D01*
X154600000Y-83900000D02*
X154200000Y-83500000D01*
X154200000Y-83500000D02*
X151890000Y-81190000D01*
X157240000Y-83900000D02*
X154600000Y-83900000D01*
%TO.N,/DEBUG_RX*%
X153400000Y-82000000D02*
X152100000Y-80700000D01*
X156500000Y-82000000D02*
X153400000Y-82000000D01*
X152100000Y-80700000D02*
X139200000Y-80700000D01*
X156820000Y-82320000D02*
X156500000Y-82000000D01*
X139200000Y-80700000D02*
X137800000Y-82100000D01*
X137800000Y-82100000D02*
X137800000Y-82600000D01*
X158200000Y-82320000D02*
X156820000Y-82320000D01*
D27*
%TO.N,/3.3V*%
X110000000Y-91900000D02*
X110000000Y-92700000D01*
D26*
X99800000Y-103100000D02*
X99800000Y-102500000D01*
D27*
X104100000Y-94500000D02*
X104100000Y-95267532D01*
D26*
X99100000Y-103800000D02*
X95000000Y-103800000D01*
D27*
X103200000Y-96167532D02*
X103200000Y-100200000D01*
D26*
X131099520Y-90200480D02*
X133600000Y-87700000D01*
X133600000Y-87700000D02*
X133600000Y-84700000D01*
X128200480Y-90200480D02*
X131099520Y-90200480D01*
D27*
X103200000Y-100200000D02*
X102400000Y-101000000D01*
X104900000Y-93700000D02*
X104100000Y-94500000D01*
D26*
X99800000Y-103100000D02*
X99100000Y-103800000D01*
D27*
X104100000Y-95267532D02*
X103200000Y-96167532D01*
D26*
X127400000Y-89400000D02*
X128200480Y-90200480D01*
D27*
X110000000Y-92700000D02*
X109000000Y-93700000D01*
X102400000Y-101000000D02*
X101800000Y-101000000D01*
X109000000Y-93700000D02*
X104900000Y-93700000D01*
D26*
%TO.N,/AIN_V12V*%
X142100000Y-88900000D02*
X142100000Y-88100000D01*
X124497036Y-91190000D02*
X139810000Y-91190000D01*
X139810000Y-91190000D02*
X142100000Y-88900000D01*
X142100000Y-88100000D02*
X142850000Y-87350000D01*
X99600000Y-81300000D02*
X100200000Y-81900000D01*
X118900000Y-89200000D02*
X122507036Y-89200000D01*
X122507036Y-89200000D02*
X124497036Y-91190000D01*
X144800000Y-88100000D02*
X144050000Y-87350000D01*
X115200000Y-87500000D02*
X117200000Y-87500000D01*
X109600000Y-81900000D02*
X115200000Y-87500000D01*
X117200000Y-87500000D02*
X118900000Y-89200000D01*
X144050000Y-87350000D02*
X142850000Y-87350000D01*
X100200000Y-81900000D02*
X109600000Y-81900000D01*
%TO.N,/Driver/LO2*%
X110000000Y-110500000D02*
X114000000Y-114500000D01*
X110500000Y-105500000D02*
X110000000Y-106000000D01*
X110000000Y-106000000D02*
X110000000Y-110500000D01*
X114000000Y-114500000D02*
X119000000Y-114500000D01*
%TO.N,/Driver/LO3*%
X122000000Y-113500000D02*
X123000000Y-114500000D01*
X114000000Y-113500000D02*
X122000000Y-113500000D01*
X123000000Y-114500000D02*
X142500000Y-114500000D01*
X111000000Y-110500000D02*
X114000000Y-113500000D01*
D27*
%TO.N,/Driver/12V*%
X101800000Y-97000000D02*
X101800000Y-85200000D01*
X110000000Y-83300000D02*
X110150000Y-83450000D01*
X115100000Y-88400000D02*
X110150000Y-83450000D01*
X94000000Y-109300000D02*
X94000000Y-115700000D01*
X97800000Y-107200000D02*
X96100000Y-107200000D01*
X94000000Y-115700000D02*
X92500000Y-117200000D01*
X96100000Y-107200000D02*
X94000000Y-109300000D01*
X101800000Y-97000000D02*
X100700000Y-98100000D01*
X100000000Y-84500000D02*
X101200000Y-83300000D01*
X113500000Y-99000000D02*
X115500000Y-99000000D01*
X92500000Y-117200000D02*
X92500000Y-122100000D01*
X115500000Y-99000000D02*
X117000000Y-100500000D01*
X100700000Y-98100000D02*
X100700000Y-104300000D01*
X101800000Y-85200000D02*
X101100000Y-84500000D01*
X100700000Y-104300000D02*
X97800000Y-107200000D01*
X101100000Y-84500000D02*
X100000000Y-84500000D01*
X117000000Y-100500000D02*
X118000000Y-100500000D01*
X101200000Y-83300000D02*
X110000000Y-83300000D01*
D28*
%TO.N,/Driver/5V*%
X108900000Y-128000000D02*
X108600000Y-127700000D01*
X132100000Y-134700000D02*
X131600000Y-134200000D01*
X156300000Y-134700000D02*
X154600000Y-134700000D01*
X131100000Y-127700000D02*
X131500000Y-128100000D01*
X108600000Y-127700000D02*
X131100000Y-127700000D01*
X99600000Y-127700000D02*
X98100000Y-126200000D01*
X95800000Y-126200000D02*
X95300000Y-125700000D01*
X153600000Y-127700000D02*
X153500000Y-127700000D01*
X154600000Y-134700000D02*
X154100000Y-134200000D01*
X154100000Y-128200000D02*
X153600000Y-127700000D01*
X131100000Y-127700000D02*
X153500000Y-127700000D01*
X154100000Y-134200000D02*
X154100000Y-128200000D01*
X108600000Y-127700000D02*
X99600000Y-127700000D01*
X133800000Y-134700000D02*
X132100000Y-134700000D01*
X108900000Y-133900000D02*
X108900000Y-128000000D01*
X109700000Y-134700000D02*
X108900000Y-133900000D01*
X111300000Y-134700000D02*
X109700000Y-134700000D01*
X98100000Y-126200000D02*
X95800000Y-126200000D01*
X131500000Y-128100000D02*
X131500000Y-134100000D01*
X131500000Y-134100000D02*
X131600000Y-134200000D01*
D26*
%TO.N,/MOTOR-TEMP*%
X120500000Y-88500000D02*
X119000000Y-88500000D01*
X138000000Y-90700000D02*
X124700000Y-90700000D01*
X124700000Y-90700000D02*
X122500000Y-88500000D01*
X122500000Y-88500000D02*
X120500000Y-88500000D01*
X115500000Y-85000000D02*
X115500000Y-83550000D01*
X119000000Y-88500000D02*
X115500000Y-85000000D01*
X138400000Y-90300000D02*
X138000000Y-90700000D01*
X138400000Y-90300000D02*
X139700000Y-90300000D01*
%TO.N,/HALL1*%
X117500000Y-85000000D02*
X119200000Y-86700000D01*
X125800000Y-86700000D02*
X128800000Y-89700000D01*
X117500000Y-83550000D02*
X117500000Y-85000000D01*
X119200000Y-86700000D02*
X125800000Y-86700000D01*
X130300000Y-89700000D02*
X131500000Y-88500000D01*
X128800000Y-89700000D02*
X130300000Y-89700000D01*
%TO.N,/HALL2*%
X119500000Y-85000000D02*
X120600000Y-86100000D01*
X126000000Y-86100000D02*
X129100480Y-89200480D01*
X119500000Y-83550000D02*
X119500000Y-85000000D01*
X129799520Y-89200480D02*
X130500000Y-88500000D01*
X120600000Y-86100000D02*
X126000000Y-86100000D01*
X129100480Y-89200480D02*
X129799520Y-89200480D01*
%TO.N,/HALL3*%
X121500000Y-83550000D02*
X121500000Y-85000000D01*
X121500000Y-85000000D02*
X122000000Y-85500000D01*
X122000000Y-85500000D02*
X126500000Y-85500000D01*
X126500000Y-85500000D02*
X129500000Y-88500000D01*
%TO.N,/UART_T*%
X119500000Y-92300000D02*
X120430000Y-93230000D01*
X140620000Y-93230000D02*
X141700000Y-92150000D01*
X120430000Y-93230000D02*
X140620000Y-93230000D01*
X141700000Y-92150000D02*
X141700000Y-91700000D01*
%TO.N,/UART_R*%
X140980000Y-93720000D02*
X142500000Y-92200000D01*
X116600000Y-93300000D02*
X117020000Y-93720000D01*
X117020000Y-93720000D02*
X140980000Y-93720000D01*
X142500000Y-92200000D02*
X142500000Y-91700000D01*
%TO.N,/LED1*%
X147000000Y-104100000D02*
X147000000Y-103200000D01*
X145400000Y-104900000D02*
X146200000Y-104900000D01*
X146200000Y-104900000D02*
X147000000Y-104100000D01*
%TO.N,/LED2*%
X147700000Y-104300000D02*
X147700000Y-102700000D01*
X145400000Y-106600000D02*
X147700000Y-104300000D01*
%TO.N,/CAN-R*%
X104900000Y-99700000D02*
X106924511Y-97675489D01*
X123900000Y-94700000D02*
X138700000Y-94700000D01*
X106924511Y-97675489D02*
X120924511Y-97675489D01*
X138700000Y-94700000D02*
X138900000Y-94900000D01*
X120924511Y-97675489D02*
X123900000Y-94700000D01*
X104900000Y-103000000D02*
X104900000Y-99700000D01*
%TO.N,/CAN-T*%
X139310000Y-94210000D02*
X139400000Y-94300000D01*
X123596786Y-94296786D02*
X123683572Y-94210000D01*
X120793572Y-97100000D02*
X105900000Y-97100000D01*
X123596786Y-94296786D02*
X120793572Y-97100000D01*
X123683572Y-94210000D02*
X139310000Y-94210000D01*
X105900000Y-97100000D02*
X104900000Y-98100000D01*
X140000000Y-94900000D02*
X139400000Y-94300000D01*
%TO.N,/SWIO*%
X135600000Y-100400000D02*
X133000000Y-100400000D01*
X136500000Y-101300000D02*
X135600000Y-100400000D01*
X141320000Y-101300000D02*
X142620000Y-102600000D01*
X136500000Y-101300000D02*
X141320000Y-101300000D01*
%TO.N,/BLE_RX*%
X87700000Y-102500000D02*
X88750480Y-101449520D01*
X96535718Y-96800000D02*
X98035718Y-96800000D01*
X87100000Y-102500000D02*
X87700000Y-102500000D01*
X88750480Y-101449520D02*
X91886198Y-101449520D01*
X91886198Y-101449520D02*
X96535718Y-96800000D01*
X98035718Y-96800000D02*
X99935718Y-94900000D01*
X99935718Y-94900000D02*
X101000000Y-94900000D01*
%TD*%
%TA.AperFunction,Conductor*%
%TO.N,/DEBUG_TX*%
G36*
X138721944Y-82103427D02*
G01*
X138725365Y-82111322D01*
X138728342Y-82203767D01*
X138739267Y-82277000D01*
X138759117Y-82338782D01*
X138789237Y-82408197D01*
X138826249Y-82493454D01*
X138826400Y-82502407D01*
X138820034Y-82508906D01*
X138604517Y-82599109D01*
X138595483Y-82599109D01*
X138379966Y-82508906D01*
X138373657Y-82502550D01*
X138373751Y-82493454D01*
X138410762Y-82408197D01*
X138440881Y-82338782D01*
X138460732Y-82277000D01*
X138471657Y-82203767D01*
X138474635Y-82111322D01*
X138478327Y-82103165D01*
X138486329Y-82100000D01*
X138713671Y-82100000D01*
X138721944Y-82103427D01*
G37*
%TD.AperFunction*%
%TD*%
%TA.AperFunction,Conductor*%
%TO.N,/LED2*%
G36*
X147920034Y-102791094D02*
G01*
X147926343Y-102797450D01*
X147926249Y-102806546D01*
X147889237Y-102891801D01*
X147859117Y-102961216D01*
X147839267Y-103022999D01*
X147828342Y-103096232D01*
X147828332Y-103096556D01*
X147828331Y-103096562D01*
X147825365Y-103188677D01*
X147821674Y-103196835D01*
X147813671Y-103200000D01*
X147586329Y-103200000D01*
X147578056Y-103196573D01*
X147574635Y-103188677D01*
X147571668Y-103096562D01*
X147571667Y-103096556D01*
X147571657Y-103096232D01*
X147560732Y-103022999D01*
X147540881Y-102961216D01*
X147510762Y-102891801D01*
X147473751Y-102806546D01*
X147473600Y-102797593D01*
X147479966Y-102791094D01*
X147695483Y-102700891D01*
X147704517Y-102700891D01*
X147920034Y-102791094D01*
G37*
%TD.AperFunction*%
%TD*%
%TA.AperFunction,Conductor*%
%TO.N,/MOTOR-TEMP*%
G36*
X115507180Y-83556474D02*
G01*
X116046411Y-84047402D01*
X116050221Y-84055506D01*
X116047848Y-84063134D01*
X115964675Y-84172546D01*
X115875022Y-84318982D01*
X115785370Y-84493918D01*
X115695718Y-84697354D01*
X115695671Y-84697476D01*
X115695670Y-84697478D01*
X115606958Y-84926983D01*
X115604318Y-84931038D01*
X115442303Y-85093053D01*
X115434030Y-85096480D01*
X115425757Y-85093053D01*
X115423028Y-85088761D01*
X115332596Y-84838856D01*
X115332590Y-84838841D01*
X115332566Y-84838774D01*
X115235842Y-84599983D01*
X115235787Y-84599863D01*
X115139186Y-84389837D01*
X115139182Y-84389829D01*
X115139119Y-84389692D01*
X115042395Y-84207901D01*
X115042276Y-84207713D01*
X115042270Y-84207702D01*
X114950898Y-84062893D01*
X114949381Y-84054068D01*
X114952905Y-84048008D01*
X115491415Y-83556484D01*
X115499836Y-83553438D01*
X115507180Y-83556474D01*
G37*
%TD.AperFunction*%
%TD*%
%TA.AperFunction,Conductor*%
%TO.N,/AIN_VIN*%
G36*
X110221944Y-102103427D02*
G01*
X110225365Y-102111322D01*
X110228342Y-102203767D01*
X110239267Y-102277000D01*
X110259117Y-102338782D01*
X110289237Y-102408197D01*
X110326249Y-102493454D01*
X110326400Y-102502407D01*
X110320034Y-102508906D01*
X110104517Y-102599109D01*
X110095483Y-102599109D01*
X109879966Y-102508906D01*
X109873657Y-102502550D01*
X109873751Y-102493454D01*
X109910762Y-102408197D01*
X109940881Y-102338782D01*
X109960732Y-102277000D01*
X109971657Y-102203767D01*
X109974635Y-102111322D01*
X109978327Y-102103165D01*
X109986329Y-102100000D01*
X110213671Y-102100000D01*
X110221944Y-102103427D01*
G37*
%TD.AperFunction*%
%TD*%
%TA.AperFunction,Conductor*%
%TO.N,/AIN_VS2*%
G36*
X124773175Y-99066068D02*
G01*
X124933931Y-99226824D01*
X124937358Y-99235097D01*
X124934193Y-99243100D01*
X124870930Y-99310573D01*
X124826872Y-99370082D01*
X124797221Y-99427805D01*
X124797119Y-99428064D01*
X124797116Y-99428070D01*
X124769435Y-99498186D01*
X124735321Y-99584643D01*
X124729097Y-99591081D01*
X124720001Y-99591175D01*
X124568453Y-99529056D01*
X124503824Y-99502564D01*
X124497436Y-99496176D01*
X124445594Y-99369701D01*
X124408825Y-99279999D01*
X124408858Y-99271045D01*
X124415356Y-99264679D01*
X124501812Y-99230563D01*
X124571929Y-99202882D01*
X124571935Y-99202879D01*
X124572194Y-99202777D01*
X124629917Y-99173127D01*
X124689426Y-99129068D01*
X124689675Y-99128834D01*
X124689684Y-99128827D01*
X124722232Y-99098311D01*
X124756902Y-99065805D01*
X124765279Y-99062647D01*
X124773175Y-99066068D01*
G37*
%TD.AperFunction*%
%TD*%
%TA.AperFunction,Conductor*%
%TO.N,/Driver/12V*%
G36*
X100958994Y-84108631D02*
G01*
X101050045Y-84224858D01*
X101117989Y-84311588D01*
X101276984Y-84479824D01*
X101277245Y-84480043D01*
X101277248Y-84480046D01*
X101435658Y-84613071D01*
X101435664Y-84613076D01*
X101435978Y-84613339D01*
X101436332Y-84613559D01*
X101582448Y-84704349D01*
X101587666Y-84711626D01*
X101586211Y-84720462D01*
X101584546Y-84722560D01*
X101314438Y-84992668D01*
X101308965Y-84995754D01*
X101209705Y-85020214D01*
X101107278Y-85063336D01*
X101004852Y-85124342D01*
X100902426Y-85203229D01*
X100902219Y-85203425D01*
X100902215Y-85203428D01*
X100808266Y-85292190D01*
X100799899Y-85295380D01*
X100791958Y-85291958D01*
X100000872Y-84500872D01*
X100001051Y-84500693D01*
X99999721Y-84498957D01*
X100800000Y-83870952D01*
X100958994Y-84108631D01*
G37*
%TD.AperFunction*%
%TD*%
%TA.AperFunction,Conductor*%
%TO.N,/CAN-R*%
G36*
X105021944Y-102503427D02*
G01*
X105025365Y-102511322D01*
X105028342Y-102603767D01*
X105039267Y-102677000D01*
X105059117Y-102738782D01*
X105089237Y-102808197D01*
X105126249Y-102893454D01*
X105126400Y-102902407D01*
X105120034Y-102908906D01*
X104904517Y-102999109D01*
X104895483Y-102999109D01*
X104679966Y-102908906D01*
X104673657Y-102902550D01*
X104673751Y-102893454D01*
X104710762Y-102808197D01*
X104740881Y-102738782D01*
X104760732Y-102677000D01*
X104771657Y-102603767D01*
X104774635Y-102511322D01*
X104778327Y-102503165D01*
X104786329Y-102500000D01*
X105013671Y-102500000D01*
X105021944Y-102503427D01*
G37*
%TD.AperFunction*%
%TD*%
%TA.AperFunction,Conductor*%
%TO.N,/HALL1*%
G36*
X131431547Y-88470944D02*
G01*
X131496176Y-88497436D01*
X131502564Y-88503824D01*
X131591175Y-88720001D01*
X131591142Y-88728955D01*
X131584643Y-88735321D01*
X131498186Y-88769435D01*
X131428070Y-88797116D01*
X131428064Y-88797119D01*
X131427805Y-88797221D01*
X131370082Y-88826872D01*
X131310573Y-88870930D01*
X131243379Y-88933931D01*
X131243100Y-88934193D01*
X131234720Y-88937352D01*
X131226824Y-88933931D01*
X131066068Y-88773175D01*
X131062641Y-88764902D01*
X131065805Y-88756902D01*
X131100403Y-88720000D01*
X131128827Y-88689684D01*
X131128834Y-88689675D01*
X131129068Y-88689426D01*
X131173127Y-88629917D01*
X131202777Y-88572194D01*
X131230563Y-88501812D01*
X131264679Y-88415356D01*
X131270903Y-88408919D01*
X131279999Y-88408825D01*
X131431547Y-88470944D01*
G37*
%TD.AperFunction*%
%TD*%
%TA.AperFunction,Conductor*%
%TO.N,/AIN_CS2*%
G36*
X146773175Y-82566068D02*
G01*
X146933931Y-82726824D01*
X146937358Y-82735097D01*
X146934193Y-82743100D01*
X146870930Y-82810573D01*
X146826872Y-82870082D01*
X146797221Y-82927805D01*
X146797119Y-82928064D01*
X146797116Y-82928070D01*
X146769435Y-82998186D01*
X146735321Y-83084643D01*
X146729097Y-83091081D01*
X146720001Y-83091175D01*
X146568453Y-83029056D01*
X146503824Y-83002564D01*
X146497436Y-82996176D01*
X146445594Y-82869701D01*
X146408825Y-82779999D01*
X146408858Y-82771045D01*
X146415356Y-82764679D01*
X146501812Y-82730563D01*
X146571929Y-82702882D01*
X146571935Y-82702879D01*
X146572194Y-82702777D01*
X146629917Y-82673127D01*
X146689426Y-82629068D01*
X146689675Y-82628834D01*
X146689684Y-82628827D01*
X146722232Y-82598311D01*
X146756902Y-82565805D01*
X146765279Y-82562647D01*
X146773175Y-82566068D01*
G37*
%TD.AperFunction*%
%TD*%
%TA.AperFunction,Conductor*%
%TO.N,/Driver/12V*%
G36*
X117864236Y-100181106D02*
G01*
X117870554Y-100187408D01*
X117912742Y-100288503D01*
X117999120Y-100495494D01*
X117999120Y-100504505D01*
X117870554Y-100812592D01*
X117864205Y-100818907D01*
X117855282Y-100818896D01*
X117807975Y-100799314D01*
X117732343Y-100768007D01*
X117732327Y-100768001D01*
X117732231Y-100767961D01*
X117732136Y-100767926D01*
X117732118Y-100767919D01*
X117634962Y-100732173D01*
X117634959Y-100732172D01*
X117634619Y-100732047D01*
X117547316Y-100711496D01*
X117444412Y-100702187D01*
X117311522Y-100700174D01*
X117303303Y-100696623D01*
X117300000Y-100688476D01*
X117300000Y-100311524D01*
X117303427Y-100303251D01*
X117311522Y-100299825D01*
X117444412Y-100297812D01*
X117547316Y-100288503D01*
X117634619Y-100267952D01*
X117634959Y-100267827D01*
X117634962Y-100267826D01*
X117732118Y-100232080D01*
X117732136Y-100232073D01*
X117732231Y-100232038D01*
X117732327Y-100231998D01*
X117732343Y-100231992D01*
X117819959Y-100195725D01*
X117855281Y-100181104D01*
X117864236Y-100181106D01*
G37*
%TD.AperFunction*%
%TD*%
%TA.AperFunction,Conductor*%
%TO.N,/Driver/12V*%
G36*
X114754718Y-87771629D02*
G01*
X114850108Y-87864173D01*
X114929454Y-87930354D01*
X115005719Y-87977555D01*
X115006036Y-87977702D01*
X115006037Y-87977702D01*
X115100051Y-88021143D01*
X115100061Y-88021147D01*
X115100136Y-88021182D01*
X115181045Y-88054718D01*
X115223162Y-88072175D01*
X115229492Y-88078508D01*
X115229503Y-88087432D01*
X115102563Y-88396191D01*
X115096191Y-88402563D01*
X114787432Y-88529503D01*
X114778477Y-88529480D01*
X114772175Y-88523162D01*
X114722188Y-88402563D01*
X114721182Y-88400136D01*
X114677555Y-88305719D01*
X114630354Y-88229454D01*
X114564173Y-88150108D01*
X114471629Y-88054718D01*
X114468328Y-88046394D01*
X114471754Y-88038298D01*
X114738298Y-87771754D01*
X114746571Y-87768327D01*
X114754718Y-87771629D01*
G37*
%TD.AperFunction*%
%TD*%
%TA.AperFunction,Conductor*%
%TO.N,/Driver/LO2*%
G36*
X110431547Y-105470944D02*
G01*
X110496176Y-105497436D01*
X110502564Y-105503824D01*
X110591175Y-105720001D01*
X110591142Y-105728955D01*
X110584643Y-105735321D01*
X110498186Y-105769435D01*
X110428070Y-105797116D01*
X110428064Y-105797119D01*
X110427805Y-105797221D01*
X110370082Y-105826872D01*
X110310573Y-105870930D01*
X110243379Y-105933931D01*
X110243100Y-105934193D01*
X110234720Y-105937352D01*
X110226824Y-105933931D01*
X110066068Y-105773175D01*
X110062641Y-105764902D01*
X110065805Y-105756902D01*
X110100403Y-105720000D01*
X110128827Y-105689684D01*
X110128834Y-105689675D01*
X110129068Y-105689426D01*
X110173127Y-105629917D01*
X110202777Y-105572194D01*
X110230563Y-105501812D01*
X110264679Y-105415356D01*
X110270903Y-105408919D01*
X110279999Y-105408825D01*
X110431547Y-105470944D01*
G37*
%TD.AperFunction*%
%TD*%
%TA.AperFunction,Conductor*%
%TO.N,/UART_T*%
G36*
X119728955Y-92208858D02*
G01*
X119735321Y-92215357D01*
X119769435Y-92301812D01*
X119797221Y-92372194D01*
X119826872Y-92429917D01*
X119870930Y-92489426D01*
X119871163Y-92489674D01*
X119934193Y-92556900D01*
X119937352Y-92565280D01*
X119933931Y-92573176D01*
X119773176Y-92733931D01*
X119764903Y-92737358D01*
X119756900Y-92734193D01*
X119756621Y-92733931D01*
X119689426Y-92670930D01*
X119629917Y-92626872D01*
X119572194Y-92597221D01*
X119571935Y-92597119D01*
X119571929Y-92597116D01*
X119501812Y-92569435D01*
X119415357Y-92535321D01*
X119408919Y-92529097D01*
X119408825Y-92520001D01*
X119497436Y-92303824D01*
X119503824Y-92297436D01*
X119568453Y-92270944D01*
X119720001Y-92208825D01*
X119728955Y-92208858D01*
G37*
%TD.AperFunction*%
%TD*%
%TA.AperFunction,Conductor*%
%TO.N,/Driver/12V*%
G36*
X101800707Y-96999293D02*
G01*
X101801202Y-97000498D01*
X101802081Y-97002636D01*
X101929503Y-97312568D01*
X101929480Y-97321523D01*
X101923162Y-97327825D01*
X101800136Y-97378817D01*
X101800061Y-97378852D01*
X101800051Y-97378856D01*
X101706037Y-97422297D01*
X101705719Y-97422444D01*
X101629454Y-97469644D01*
X101550108Y-97535826D01*
X101549941Y-97535988D01*
X101454718Y-97628370D01*
X101446394Y-97631672D01*
X101438298Y-97628246D01*
X101171754Y-97361702D01*
X101168327Y-97353429D01*
X101171629Y-97345282D01*
X101203366Y-97312568D01*
X101264173Y-97249890D01*
X101264304Y-97249733D01*
X101264313Y-97249723D01*
X101330091Y-97170859D01*
X101330354Y-97170544D01*
X101377555Y-97094279D01*
X101419901Y-97002636D01*
X101421143Y-96999948D01*
X101421147Y-96999938D01*
X101421182Y-96999863D01*
X101476642Y-96866061D01*
X101800707Y-96999293D01*
G37*
%TD.AperFunction*%
%TD*%
%TA.AperFunction,Conductor*%
%TO.N,/AIN_VS1*%
G36*
X120606546Y-99273751D02*
G01*
X120691801Y-99310762D01*
X120761216Y-99340881D01*
X120761486Y-99340968D01*
X120761492Y-99340970D01*
X120786889Y-99349130D01*
X120822999Y-99360732D01*
X120896232Y-99371657D01*
X120896556Y-99371667D01*
X120896562Y-99371668D01*
X120954535Y-99373535D01*
X120988678Y-99374635D01*
X120996835Y-99378327D01*
X121000000Y-99386329D01*
X121000000Y-99613671D01*
X120996573Y-99621944D01*
X120988678Y-99625365D01*
X120945629Y-99626751D01*
X120896562Y-99628331D01*
X120896556Y-99628332D01*
X120896232Y-99628342D01*
X120822999Y-99639267D01*
X120786854Y-99650880D01*
X120761492Y-99659028D01*
X120761486Y-99659030D01*
X120761216Y-99659117D01*
X120691801Y-99689237D01*
X120606546Y-99726249D01*
X120597593Y-99726400D01*
X120591094Y-99720034D01*
X120500891Y-99504517D01*
X120500891Y-99495483D01*
X120591094Y-99279966D01*
X120597450Y-99273657D01*
X120606546Y-99273751D01*
G37*
%TD.AperFunction*%
%TD*%
%TA.AperFunction,Conductor*%
%TO.N,/UART_R*%
G36*
X142720034Y-91791094D02*
G01*
X142726343Y-91797450D01*
X142726249Y-91806546D01*
X142689237Y-91891801D01*
X142659117Y-91961216D01*
X142639267Y-92022999D01*
X142628342Y-92096232D01*
X142628332Y-92096556D01*
X142628331Y-92096562D01*
X142625365Y-92188677D01*
X142621674Y-92196835D01*
X142613671Y-92200000D01*
X142386329Y-92200000D01*
X142378056Y-92196573D01*
X142374635Y-92188677D01*
X142371668Y-92096562D01*
X142371667Y-92096556D01*
X142371657Y-92096232D01*
X142360732Y-92022999D01*
X142340881Y-91961216D01*
X142310762Y-91891801D01*
X142273751Y-91806546D01*
X142273600Y-91797593D01*
X142279966Y-91791094D01*
X142495483Y-91700891D01*
X142504517Y-91700891D01*
X142720034Y-91791094D01*
G37*
%TD.AperFunction*%
%TD*%
%TA.AperFunction,Conductor*%
%TO.N,/Driver/LO2*%
G36*
X118908906Y-114279966D02*
G01*
X118999109Y-114495483D01*
X118999109Y-114504517D01*
X118908906Y-114720034D01*
X118902550Y-114726343D01*
X118893454Y-114726249D01*
X118808197Y-114689237D01*
X118738782Y-114659117D01*
X118738512Y-114659030D01*
X118738506Y-114659028D01*
X118713133Y-114650876D01*
X118677000Y-114639267D01*
X118603767Y-114628342D01*
X118603443Y-114628332D01*
X118603437Y-114628331D01*
X118554128Y-114626743D01*
X118511322Y-114625365D01*
X118503165Y-114621674D01*
X118500000Y-114613671D01*
X118500000Y-114386329D01*
X118503427Y-114378056D01*
X118511322Y-114374635D01*
X118545120Y-114373546D01*
X118603437Y-114371668D01*
X118603443Y-114371667D01*
X118603767Y-114371657D01*
X118677000Y-114360732D01*
X118713098Y-114349133D01*
X118738506Y-114340970D01*
X118738512Y-114340968D01*
X118738782Y-114340881D01*
X118808197Y-114310762D01*
X118893454Y-114273751D01*
X118902407Y-114273600D01*
X118908906Y-114279966D01*
G37*
%TD.AperFunction*%
%TD*%
%TA.AperFunction,Conductor*%
%TO.N,/Driver/12V*%
G36*
X101432839Y-83114209D02*
G01*
X101434315Y-83119897D01*
X101434315Y-83496639D01*
X101432532Y-83502847D01*
X101307451Y-83702616D01*
X101180588Y-83941232D01*
X101053725Y-84215849D01*
X101050045Y-84224858D01*
X100926862Y-84526465D01*
X100800000Y-84873082D01*
X100000872Y-84500872D01*
X100001051Y-84500693D01*
X99997632Y-84496230D01*
X99713567Y-83713589D01*
X99713966Y-83704643D01*
X99720573Y-83698599D01*
X99722953Y-83698009D01*
X99877150Y-83676564D01*
X100053770Y-83652000D01*
X100398906Y-83568000D01*
X100744042Y-83448000D01*
X101089178Y-83292000D01*
X101416927Y-83109673D01*
X101425823Y-83108645D01*
X101432839Y-83114209D01*
G37*
%TD.AperFunction*%
%TD*%
%TA.AperFunction,Conductor*%
%TO.N,/SWIO*%
G36*
X133106546Y-100173751D02*
G01*
X133191801Y-100210762D01*
X133261216Y-100240881D01*
X133261486Y-100240968D01*
X133261492Y-100240970D01*
X133286889Y-100249130D01*
X133322999Y-100260732D01*
X133396232Y-100271657D01*
X133396556Y-100271667D01*
X133396562Y-100271668D01*
X133454535Y-100273535D01*
X133488678Y-100274635D01*
X133496835Y-100278327D01*
X133500000Y-100286329D01*
X133500000Y-100513671D01*
X133496573Y-100521944D01*
X133488678Y-100525365D01*
X133445629Y-100526751D01*
X133396562Y-100528331D01*
X133396556Y-100528332D01*
X133396232Y-100528342D01*
X133322999Y-100539267D01*
X133286854Y-100550880D01*
X133261492Y-100559028D01*
X133261486Y-100559030D01*
X133261216Y-100559117D01*
X133191801Y-100589237D01*
X133106546Y-100626249D01*
X133097593Y-100626400D01*
X133091094Y-100620034D01*
X133000891Y-100404517D01*
X133000891Y-100395483D01*
X133091094Y-100179966D01*
X133097450Y-100173657D01*
X133106546Y-100173751D01*
G37*
%TD.AperFunction*%
%TD*%
%TA.AperFunction,Conductor*%
%TO.N,/HALL3*%
G36*
X129243099Y-88065807D02*
G01*
X129303144Y-88122103D01*
X129310573Y-88129068D01*
X129370082Y-88173127D01*
X129427805Y-88202777D01*
X129428064Y-88202879D01*
X129428070Y-88202882D01*
X129498186Y-88230563D01*
X129584644Y-88264679D01*
X129591081Y-88270903D01*
X129591175Y-88279999D01*
X129554406Y-88369701D01*
X129502564Y-88496176D01*
X129496176Y-88502564D01*
X129431547Y-88529056D01*
X129279999Y-88591175D01*
X129271045Y-88591142D01*
X129264679Y-88584644D01*
X129230563Y-88498186D01*
X129202882Y-88428070D01*
X129202879Y-88428064D01*
X129202777Y-88427805D01*
X129173127Y-88370082D01*
X129129068Y-88310573D01*
X129100404Y-88280000D01*
X129065807Y-88243099D01*
X129062648Y-88234720D01*
X129066069Y-88226824D01*
X129226824Y-88066069D01*
X129235097Y-88062642D01*
X129243099Y-88065807D01*
G37*
%TD.AperFunction*%
%TD*%
%TA.AperFunction,Conductor*%
%TO.N,/HALL2*%
G36*
X130431547Y-88470944D02*
G01*
X130496176Y-88497436D01*
X130502564Y-88503824D01*
X130591175Y-88720001D01*
X130591142Y-88728955D01*
X130584643Y-88735321D01*
X130498186Y-88769435D01*
X130428070Y-88797116D01*
X130428064Y-88797119D01*
X130427805Y-88797221D01*
X130370082Y-88826872D01*
X130310573Y-88870930D01*
X130243379Y-88933931D01*
X130243100Y-88934193D01*
X130234720Y-88937352D01*
X130226824Y-88933931D01*
X130066068Y-88773175D01*
X130062641Y-88764902D01*
X130065805Y-88756902D01*
X130100403Y-88720000D01*
X130128827Y-88689684D01*
X130128834Y-88689675D01*
X130129068Y-88689426D01*
X130173127Y-88629917D01*
X130202777Y-88572194D01*
X130230563Y-88501812D01*
X130264679Y-88415356D01*
X130270903Y-88408919D01*
X130279999Y-88408825D01*
X130431547Y-88470944D01*
G37*
%TD.AperFunction*%
%TD*%
%TA.AperFunction,Conductor*%
%TO.N,/3.3V*%
G36*
X101912826Y-100754718D02*
G01*
X101923786Y-100755176D01*
X101924931Y-100755281D01*
X102011878Y-100767557D01*
X102012483Y-100767660D01*
X102087820Y-100782400D01*
X102175640Y-100794800D01*
X102175914Y-100794811D01*
X102175920Y-100794812D01*
X102240013Y-100797492D01*
X102288790Y-100799531D01*
X102296912Y-100803301D01*
X102300000Y-100811221D01*
X102300000Y-101188779D01*
X102296573Y-101197052D01*
X102288790Y-101200469D01*
X102240013Y-101202508D01*
X102175920Y-101205188D01*
X102175914Y-101205189D01*
X102175640Y-101205200D01*
X102087820Y-101217600D01*
X102012486Y-101232340D01*
X102011878Y-101232443D01*
X101924932Y-101244719D01*
X101923786Y-101244824D01*
X101912826Y-101245282D01*
X101812140Y-101249492D01*
X101803731Y-101246414D01*
X101799951Y-101237849D01*
X101799930Y-101232443D01*
X101799000Y-101000000D01*
X101799951Y-100762150D01*
X101803411Y-100753892D01*
X101812140Y-100750508D01*
X101912826Y-100754718D01*
G37*
%TD.AperFunction*%
%TD*%
%TA.AperFunction,Conductor*%
%TO.N,/AIN_VS3*%
G36*
X128606692Y-99274137D02*
G01*
X128691291Y-99313339D01*
X128691870Y-99313627D01*
X128759458Y-99349606D01*
X128759467Y-99349610D01*
X128759624Y-99349694D01*
X128759794Y-99349771D01*
X128759803Y-99349775D01*
X128786579Y-99361838D01*
X128819653Y-99376738D01*
X128857888Y-99385739D01*
X128891034Y-99393542D01*
X128891039Y-99393543D01*
X128891533Y-99393659D01*
X128984085Y-99398887D01*
X128992151Y-99402775D01*
X128995124Y-99410568D01*
X128995124Y-99637924D01*
X128991697Y-99646197D01*
X128983537Y-99649623D01*
X128934844Y-99650093D01*
X128893589Y-99650492D01*
X128893588Y-99650492D01*
X128893386Y-99650494D01*
X128820695Y-99655718D01*
X128758927Y-99668597D01*
X128731417Y-99678149D01*
X128690085Y-99692499D01*
X128690065Y-99692506D01*
X128689960Y-99692543D01*
X128689854Y-99692586D01*
X128689836Y-99692593D01*
X128650026Y-99708818D01*
X128606404Y-99726596D01*
X128597450Y-99726545D01*
X128591196Y-99720278D01*
X128500891Y-99504517D01*
X128500891Y-99495483D01*
X128590981Y-99280236D01*
X128597337Y-99273927D01*
X128606692Y-99274137D01*
G37*
%TD.AperFunction*%
%TD*%
%TA.AperFunction,Conductor*%
%TO.N,/SWIO*%
G36*
X141514485Y-101316082D02*
G01*
X141726976Y-101486307D01*
X141795379Y-101541104D01*
X142042863Y-101636241D01*
X142289709Y-101666107D01*
X142575860Y-101701746D01*
X142577832Y-101702167D01*
X142819643Y-101776224D01*
X142932984Y-101810936D01*
X142939891Y-101816635D01*
X142940745Y-101825549D01*
X142940372Y-101826589D01*
X142622562Y-102596214D01*
X142616214Y-102602562D01*
X141846589Y-102920372D01*
X141837634Y-102920363D01*
X141831309Y-102914024D01*
X141830936Y-102912984D01*
X141722168Y-102557836D01*
X141721745Y-102555856D01*
X141686107Y-102269709D01*
X141686102Y-102269668D01*
X141656328Y-102023583D01*
X141656241Y-102022863D01*
X141580390Y-101825549D01*
X141561429Y-101776224D01*
X141561428Y-101776223D01*
X141561104Y-101775379D01*
X141502217Y-101701871D01*
X141336082Y-101494485D01*
X141333584Y-101485886D01*
X141336940Y-101478897D01*
X141498897Y-101316940D01*
X141507170Y-101313513D01*
X141514485Y-101316082D01*
G37*
%TD.AperFunction*%
%TD*%
%TA.AperFunction,Conductor*%
%TO.N,/AIN_V12V*%
G36*
X144543099Y-87665807D02*
G01*
X144603144Y-87722103D01*
X144610573Y-87729068D01*
X144670082Y-87773127D01*
X144727805Y-87802777D01*
X144728064Y-87802879D01*
X144728070Y-87802882D01*
X144798186Y-87830563D01*
X144884644Y-87864679D01*
X144891081Y-87870903D01*
X144891175Y-87879999D01*
X144854406Y-87969701D01*
X144802564Y-88096176D01*
X144796176Y-88102564D01*
X144731547Y-88129056D01*
X144579999Y-88191175D01*
X144571045Y-88191142D01*
X144564679Y-88184644D01*
X144530563Y-88098186D01*
X144502882Y-88028070D01*
X144502879Y-88028064D01*
X144502777Y-88027805D01*
X144473127Y-87970082D01*
X144429068Y-87910573D01*
X144400404Y-87880000D01*
X144365807Y-87843099D01*
X144362648Y-87834720D01*
X144366069Y-87826824D01*
X144526824Y-87666069D01*
X144535097Y-87662642D01*
X144543099Y-87665807D01*
G37*
%TD.AperFunction*%
%TD*%
%TA.AperFunction,Conductor*%
%TO.N,/Driver/12V*%
G36*
X113644718Y-98681104D02*
G01*
X113659948Y-98687408D01*
X113767655Y-98731992D01*
X113767671Y-98731998D01*
X113767767Y-98732038D01*
X113767862Y-98732073D01*
X113767880Y-98732080D01*
X113865036Y-98767826D01*
X113865039Y-98767827D01*
X113865379Y-98767952D01*
X113952683Y-98788503D01*
X114055587Y-98797812D01*
X114188478Y-98799825D01*
X114196698Y-98803377D01*
X114200000Y-98811524D01*
X114200000Y-99188476D01*
X114196573Y-99196749D01*
X114188478Y-99200174D01*
X114055587Y-99202187D01*
X113952683Y-99211496D01*
X113865379Y-99232047D01*
X113865039Y-99232172D01*
X113865036Y-99232173D01*
X113767880Y-99267919D01*
X113767862Y-99267926D01*
X113767767Y-99267961D01*
X113767671Y-99268001D01*
X113767655Y-99268007D01*
X113699688Y-99296142D01*
X113644718Y-99318896D01*
X113635764Y-99318894D01*
X113629446Y-99312592D01*
X113500880Y-99004505D01*
X113500880Y-98995494D01*
X113581052Y-98803377D01*
X113629446Y-98687408D01*
X113635795Y-98681093D01*
X113644718Y-98681104D01*
G37*
%TD.AperFunction*%
%TD*%
%TA.AperFunction,Conductor*%
%TO.N,/BLE_RX*%
G36*
X87206546Y-102273751D02*
G01*
X87291801Y-102310762D01*
X87361216Y-102340881D01*
X87361486Y-102340968D01*
X87361492Y-102340970D01*
X87386889Y-102349130D01*
X87422999Y-102360732D01*
X87496232Y-102371657D01*
X87496556Y-102371667D01*
X87496562Y-102371668D01*
X87554535Y-102373535D01*
X87588678Y-102374635D01*
X87596835Y-102378327D01*
X87600000Y-102386329D01*
X87600000Y-102613671D01*
X87596573Y-102621944D01*
X87588678Y-102625365D01*
X87545629Y-102626751D01*
X87496562Y-102628331D01*
X87496556Y-102628332D01*
X87496232Y-102628342D01*
X87422999Y-102639267D01*
X87386854Y-102650880D01*
X87361492Y-102659028D01*
X87361486Y-102659030D01*
X87361216Y-102659117D01*
X87291801Y-102689237D01*
X87206546Y-102726249D01*
X87197593Y-102726400D01*
X87191094Y-102720034D01*
X87100891Y-102504517D01*
X87100891Y-102495483D01*
X87191094Y-102279966D01*
X87197450Y-102273657D01*
X87206546Y-102273751D01*
G37*
%TD.AperFunction*%
%TD*%
%TA.AperFunction,Conductor*%
%TO.N,/HALL1*%
G36*
X117507180Y-83556474D02*
G01*
X118046411Y-84047402D01*
X118050221Y-84055506D01*
X118047848Y-84063134D01*
X117964675Y-84172546D01*
X117875022Y-84318982D01*
X117785370Y-84493918D01*
X117695718Y-84697354D01*
X117695671Y-84697476D01*
X117695670Y-84697478D01*
X117606958Y-84926983D01*
X117604318Y-84931038D01*
X117442303Y-85093053D01*
X117434030Y-85096480D01*
X117425757Y-85093053D01*
X117423028Y-85088761D01*
X117332596Y-84838856D01*
X117332590Y-84838841D01*
X117332566Y-84838774D01*
X117235842Y-84599983D01*
X117235787Y-84599863D01*
X117139186Y-84389837D01*
X117139182Y-84389829D01*
X117139119Y-84389692D01*
X117042395Y-84207901D01*
X117042276Y-84207713D01*
X117042270Y-84207702D01*
X116950898Y-84062893D01*
X116949381Y-84054068D01*
X116952905Y-84048008D01*
X117491415Y-83556484D01*
X117499836Y-83553438D01*
X117507180Y-83556474D01*
G37*
%TD.AperFunction*%
%TD*%
%TA.AperFunction,Conductor*%
%TO.N,/UART_R*%
G36*
X116828955Y-93208858D02*
G01*
X116835321Y-93215357D01*
X116869435Y-93301812D01*
X116897221Y-93372194D01*
X116926872Y-93429917D01*
X116970930Y-93489426D01*
X116971163Y-93489674D01*
X117034193Y-93556900D01*
X117037352Y-93565280D01*
X117033931Y-93573176D01*
X116873176Y-93733931D01*
X116864903Y-93737358D01*
X116856900Y-93734193D01*
X116856621Y-93733931D01*
X116789426Y-93670930D01*
X116729917Y-93626872D01*
X116672194Y-93597221D01*
X116671935Y-93597119D01*
X116671929Y-93597116D01*
X116601812Y-93569435D01*
X116515357Y-93535321D01*
X116508919Y-93529097D01*
X116508825Y-93520001D01*
X116597436Y-93303824D01*
X116603824Y-93297436D01*
X116668453Y-93270944D01*
X116820001Y-93208825D01*
X116828955Y-93208858D01*
G37*
%TD.AperFunction*%
%TD*%
%TA.AperFunction,Conductor*%
%TO.N,/BLE_RX*%
G36*
X100908906Y-94679966D02*
G01*
X100999109Y-94895483D01*
X100999109Y-94904517D01*
X100908906Y-95120034D01*
X100902550Y-95126343D01*
X100893454Y-95126249D01*
X100808197Y-95089237D01*
X100738782Y-95059117D01*
X100738512Y-95059030D01*
X100738506Y-95059028D01*
X100713133Y-95050876D01*
X100677000Y-95039267D01*
X100603767Y-95028342D01*
X100603443Y-95028332D01*
X100603437Y-95028331D01*
X100554128Y-95026743D01*
X100511322Y-95025365D01*
X100503165Y-95021674D01*
X100500000Y-95013671D01*
X100500000Y-94786329D01*
X100503427Y-94778056D01*
X100511322Y-94774635D01*
X100545120Y-94773546D01*
X100603437Y-94771668D01*
X100603443Y-94771667D01*
X100603767Y-94771657D01*
X100677000Y-94760732D01*
X100713098Y-94749133D01*
X100738506Y-94740970D01*
X100738512Y-94740968D01*
X100738782Y-94740881D01*
X100808197Y-94710762D01*
X100893454Y-94673751D01*
X100902407Y-94673600D01*
X100908906Y-94679966D01*
G37*
%TD.AperFunction*%
%TD*%
%TA.AperFunction,Conductor*%
%TO.N,Net-(D5-A)*%
G36*
X113728955Y-115908858D02*
G01*
X113735321Y-115915357D01*
X113769435Y-116001812D01*
X113797221Y-116072194D01*
X113826872Y-116129917D01*
X113870930Y-116189426D01*
X113871163Y-116189674D01*
X113934193Y-116256900D01*
X113937352Y-116265280D01*
X113933931Y-116273176D01*
X113773176Y-116433931D01*
X113764903Y-116437358D01*
X113756900Y-116434193D01*
X113756621Y-116433931D01*
X113689426Y-116370930D01*
X113629917Y-116326872D01*
X113572194Y-116297221D01*
X113571935Y-116297119D01*
X113571929Y-116297116D01*
X113501812Y-116269435D01*
X113415357Y-116235321D01*
X113408919Y-116229097D01*
X113408825Y-116220001D01*
X113497436Y-116003824D01*
X113503824Y-115997436D01*
X113568453Y-115970944D01*
X113720001Y-115908825D01*
X113728955Y-115908858D01*
G37*
%TD.AperFunction*%
%TD*%
%TA.AperFunction,Conductor*%
%TO.N,/UART_T*%
G36*
X141705211Y-91701178D02*
G01*
X141921122Y-91791549D01*
X141927431Y-91797905D01*
X141927765Y-91805854D01*
X141892435Y-91918122D01*
X141892297Y-91918562D01*
X141892230Y-91919014D01*
X141892229Y-91919017D01*
X141878121Y-92013740D01*
X141878111Y-92013807D01*
X141865683Y-92094021D01*
X141864926Y-92096716D01*
X141832078Y-92175812D01*
X141830349Y-92178709D01*
X141761214Y-92263688D01*
X141753336Y-92267942D01*
X141744755Y-92265379D01*
X141743866Y-92264576D01*
X141582861Y-92103571D01*
X141579434Y-92095298D01*
X141581233Y-92089064D01*
X141613228Y-92038252D01*
X141613228Y-92038251D01*
X141614397Y-92036395D01*
X141604981Y-91984611D01*
X141565772Y-91932983D01*
X141515191Y-91873651D01*
X141514018Y-91872006D01*
X141475855Y-91807252D01*
X141474607Y-91798384D01*
X141479994Y-91791231D01*
X141481441Y-91790508D01*
X141696200Y-91701168D01*
X141705211Y-91701178D01*
G37*
%TD.AperFunction*%
%TD*%
%TA.AperFunction,Conductor*%
%TO.N,/LED1*%
G36*
X145506546Y-104673751D02*
G01*
X145591801Y-104710762D01*
X145661216Y-104740881D01*
X145661486Y-104740968D01*
X145661492Y-104740970D01*
X145686889Y-104749130D01*
X145722999Y-104760732D01*
X145796232Y-104771657D01*
X145796556Y-104771667D01*
X145796562Y-104771668D01*
X145854535Y-104773535D01*
X145888678Y-104774635D01*
X145896835Y-104778327D01*
X145900000Y-104786329D01*
X145900000Y-105013671D01*
X145896573Y-105021944D01*
X145888678Y-105025365D01*
X145845629Y-105026751D01*
X145796562Y-105028331D01*
X145796556Y-105028332D01*
X145796232Y-105028342D01*
X145722999Y-105039267D01*
X145686854Y-105050880D01*
X145661492Y-105059028D01*
X145661486Y-105059030D01*
X145661216Y-105059117D01*
X145591801Y-105089237D01*
X145506546Y-105126249D01*
X145497593Y-105126400D01*
X145491094Y-105120034D01*
X145400891Y-104904517D01*
X145400891Y-104895483D01*
X145491094Y-104679966D01*
X145497450Y-104673657D01*
X145506546Y-104673751D01*
G37*
%TD.AperFunction*%
%TD*%
%TA.AperFunction,Conductor*%
%TO.N,/AIN_VS1*%
G36*
X151707682Y-85997678D02*
G01*
X151923822Y-86088145D01*
X151930131Y-86094501D01*
X151930545Y-86102187D01*
X151897668Y-86215914D01*
X151897667Y-86215919D01*
X151897500Y-86216497D01*
X151897455Y-86217100D01*
X151897454Y-86217103D01*
X151892535Y-86282378D01*
X151890120Y-86314428D01*
X151888593Y-86343142D01*
X151885696Y-86397598D01*
X151885147Y-86400571D01*
X151858932Y-86481778D01*
X151857043Y-86485355D01*
X151790629Y-86570943D01*
X151782851Y-86575377D01*
X151774214Y-86573013D01*
X151773114Y-86572042D01*
X151612203Y-86411131D01*
X151608776Y-86402858D01*
X151610465Y-86396803D01*
X151642920Y-86343142D01*
X151644179Y-86341060D01*
X151629158Y-86287957D01*
X151581485Y-86235400D01*
X151522843Y-86174339D01*
X151521343Y-86172409D01*
X151478763Y-86103862D01*
X151477309Y-86095026D01*
X151482528Y-86087749D01*
X151484208Y-86086885D01*
X151698671Y-85997668D01*
X151707682Y-85997678D01*
G37*
%TD.AperFunction*%
%TD*%
%TA.AperFunction,Conductor*%
%TO.N,/AIN_CS1*%
G36*
X119028955Y-126008858D02*
G01*
X119035321Y-126015357D01*
X119069435Y-126101812D01*
X119097221Y-126172194D01*
X119126872Y-126229917D01*
X119170930Y-126289426D01*
X119171163Y-126289674D01*
X119234193Y-126356900D01*
X119237352Y-126365280D01*
X119233931Y-126373176D01*
X119073176Y-126533931D01*
X119064903Y-126537358D01*
X119056900Y-126534193D01*
X119056621Y-126533931D01*
X118989426Y-126470930D01*
X118929917Y-126426872D01*
X118872194Y-126397221D01*
X118871935Y-126397119D01*
X118871929Y-126397116D01*
X118801812Y-126369435D01*
X118715357Y-126335321D01*
X118708919Y-126329097D01*
X118708825Y-126320001D01*
X118797436Y-126103824D01*
X118803824Y-126097436D01*
X118868453Y-126070944D01*
X119020001Y-126008825D01*
X119028955Y-126008858D01*
G37*
%TD.AperFunction*%
%TD*%
%TA.AperFunction,Conductor*%
%TO.N,/AIN_VS3*%
G36*
X148121944Y-85503427D02*
G01*
X148125365Y-85511322D01*
X148128342Y-85603767D01*
X148139267Y-85677000D01*
X148159117Y-85738782D01*
X148189237Y-85808197D01*
X148226249Y-85893454D01*
X148226400Y-85902407D01*
X148220034Y-85908906D01*
X148004517Y-85999109D01*
X147995483Y-85999109D01*
X147779966Y-85908906D01*
X147773657Y-85902550D01*
X147773751Y-85893454D01*
X147810762Y-85808197D01*
X147840881Y-85738782D01*
X147860732Y-85677000D01*
X147871657Y-85603767D01*
X147874635Y-85511322D01*
X147878327Y-85503165D01*
X147886329Y-85500000D01*
X148113671Y-85500000D01*
X148121944Y-85503427D01*
G37*
%TD.AperFunction*%
%TD*%
%TA.AperFunction,Conductor*%
%TO.N,/BLE_MODE*%
G36*
X100231547Y-96070944D02*
G01*
X100296176Y-96097436D01*
X100302564Y-96103824D01*
X100391175Y-96320001D01*
X100391142Y-96328955D01*
X100384643Y-96335321D01*
X100298186Y-96369435D01*
X100228070Y-96397116D01*
X100228064Y-96397119D01*
X100227805Y-96397221D01*
X100170082Y-96426872D01*
X100110573Y-96470930D01*
X100043379Y-96533931D01*
X100043100Y-96534193D01*
X100034720Y-96537352D01*
X100026824Y-96533931D01*
X99866068Y-96373175D01*
X99862641Y-96364902D01*
X99865805Y-96356902D01*
X99900403Y-96320000D01*
X99928827Y-96289684D01*
X99928834Y-96289675D01*
X99929068Y-96289426D01*
X99973127Y-96229917D01*
X100002777Y-96172194D01*
X100030563Y-96101812D01*
X100064679Y-96015356D01*
X100070903Y-96008919D01*
X100079999Y-96008825D01*
X100231547Y-96070944D01*
G37*
%TD.AperFunction*%
%TD*%
%TA.AperFunction,Conductor*%
%TO.N,/ADC_EXT*%
G36*
X143720034Y-88191094D02*
G01*
X143726343Y-88197450D01*
X143726249Y-88206546D01*
X143689237Y-88291801D01*
X143659117Y-88361216D01*
X143639267Y-88422999D01*
X143628342Y-88496232D01*
X143628332Y-88496556D01*
X143628331Y-88496562D01*
X143625365Y-88588677D01*
X143621674Y-88596835D01*
X143613671Y-88600000D01*
X143386329Y-88600000D01*
X143378056Y-88596573D01*
X143374635Y-88588677D01*
X143371668Y-88496562D01*
X143371667Y-88496556D01*
X143371657Y-88496232D01*
X143360732Y-88422999D01*
X143340881Y-88361216D01*
X143310762Y-88291801D01*
X143273751Y-88206546D01*
X143273600Y-88197593D01*
X143279966Y-88191094D01*
X143495483Y-88100891D01*
X143504517Y-88100891D01*
X143720034Y-88191094D01*
G37*
%TD.AperFunction*%
%TD*%
%TA.AperFunction,Conductor*%
%TO.N,/BOOT0*%
G36*
X130773175Y-97966068D02*
G01*
X130933931Y-98126824D01*
X130937358Y-98135097D01*
X130934193Y-98143100D01*
X130870930Y-98210573D01*
X130826872Y-98270082D01*
X130797221Y-98327805D01*
X130797119Y-98328064D01*
X130797116Y-98328070D01*
X130769435Y-98398186D01*
X130735321Y-98484643D01*
X130729097Y-98491081D01*
X130720001Y-98491175D01*
X130568453Y-98429056D01*
X130503824Y-98402564D01*
X130497436Y-98396176D01*
X130445594Y-98269701D01*
X130408825Y-98179999D01*
X130408858Y-98171045D01*
X130415356Y-98164679D01*
X130501812Y-98130563D01*
X130571929Y-98102882D01*
X130571935Y-98102879D01*
X130572194Y-98102777D01*
X130629917Y-98073127D01*
X130689426Y-98029068D01*
X130689675Y-98028834D01*
X130689684Y-98028827D01*
X130722232Y-97998311D01*
X130756902Y-97965805D01*
X130765279Y-97962647D01*
X130773175Y-97966068D01*
G37*
%TD.AperFunction*%
%TD*%
%TA.AperFunction,Conductor*%
%TO.N,/LED1*%
G36*
X147220034Y-103291094D02*
G01*
X147226343Y-103297450D01*
X147226249Y-103306546D01*
X147189237Y-103391801D01*
X147159117Y-103461216D01*
X147139267Y-103522999D01*
X147128342Y-103596232D01*
X147128332Y-103596556D01*
X147128331Y-103596562D01*
X147125365Y-103688677D01*
X147121674Y-103696835D01*
X147113671Y-103700000D01*
X146886329Y-103700000D01*
X146878056Y-103696573D01*
X146874635Y-103688677D01*
X146871668Y-103596562D01*
X146871667Y-103596556D01*
X146871657Y-103596232D01*
X146860732Y-103522999D01*
X146840881Y-103461216D01*
X146810762Y-103391801D01*
X146773751Y-103306546D01*
X146773600Y-103297593D01*
X146779966Y-103291094D01*
X146995483Y-103200891D01*
X147004517Y-103200891D01*
X147220034Y-103291094D01*
G37*
%TD.AperFunction*%
%TD*%
%TA.AperFunction,Conductor*%
%TO.N,/DEBUG_RX*%
G36*
X157879137Y-81545705D02*
G01*
X157879939Y-81547287D01*
X158143330Y-82182361D01*
X158197707Y-82313473D01*
X158197711Y-82322428D01*
X158195163Y-82326238D01*
X157606594Y-82913424D01*
X157598317Y-82916841D01*
X157590747Y-82914050D01*
X157351253Y-82710160D01*
X157351252Y-82710159D01*
X157350830Y-82709800D01*
X157350352Y-82709528D01*
X157350349Y-82709526D01*
X157147046Y-82593878D01*
X157147047Y-82593878D01*
X157146807Y-82593742D01*
X156958010Y-82509645D01*
X156956987Y-82509127D01*
X156754424Y-82393900D01*
X156752625Y-82392639D01*
X156514991Y-82190333D01*
X156510913Y-82182361D01*
X156513666Y-82173840D01*
X156514302Y-82173151D01*
X156675576Y-82011877D01*
X156683849Y-82008450D01*
X156689987Y-82010190D01*
X156846202Y-82106461D01*
X156923353Y-82154007D01*
X157127164Y-82106148D01*
X157247745Y-82005338D01*
X157329495Y-81936993D01*
X157329514Y-81936976D01*
X157329615Y-81936892D01*
X157565942Y-81722125D01*
X157567747Y-81720779D01*
X157863067Y-81541765D01*
X157871918Y-81540407D01*
X157879137Y-81545705D01*
G37*
%TD.AperFunction*%
%TD*%
%TA.AperFunction,Conductor*%
%TO.N,/Driver/LO3*%
G36*
X111228955Y-110408858D02*
G01*
X111235321Y-110415357D01*
X111269435Y-110501812D01*
X111297221Y-110572194D01*
X111326872Y-110629917D01*
X111370930Y-110689426D01*
X111371163Y-110689674D01*
X111434193Y-110756900D01*
X111437352Y-110765280D01*
X111433931Y-110773176D01*
X111273176Y-110933931D01*
X111264903Y-110937358D01*
X111256900Y-110934193D01*
X111256621Y-110933931D01*
X111189426Y-110870930D01*
X111129917Y-110826872D01*
X111072194Y-110797221D01*
X111071935Y-110797119D01*
X111071929Y-110797116D01*
X111001812Y-110769435D01*
X110915357Y-110735321D01*
X110908919Y-110729097D01*
X110908825Y-110720001D01*
X110997436Y-110503824D01*
X111003824Y-110497436D01*
X111068453Y-110470944D01*
X111220001Y-110408825D01*
X111228955Y-110408858D01*
G37*
%TD.AperFunction*%
%TD*%
%TA.AperFunction,Conductor*%
%TO.N,/AIN_CS2*%
G36*
X142006546Y-126673751D02*
G01*
X142091801Y-126710762D01*
X142161216Y-126740881D01*
X142161486Y-126740968D01*
X142161492Y-126740970D01*
X142186889Y-126749130D01*
X142222999Y-126760732D01*
X142296232Y-126771657D01*
X142296556Y-126771667D01*
X142296562Y-126771668D01*
X142354535Y-126773535D01*
X142388678Y-126774635D01*
X142396835Y-126778327D01*
X142400000Y-126786329D01*
X142400000Y-127013671D01*
X142396573Y-127021944D01*
X142388678Y-127025365D01*
X142345629Y-127026751D01*
X142296562Y-127028331D01*
X142296556Y-127028332D01*
X142296232Y-127028342D01*
X142222999Y-127039267D01*
X142186854Y-127050880D01*
X142161492Y-127059028D01*
X142161486Y-127059030D01*
X142161216Y-127059117D01*
X142091801Y-127089237D01*
X142006546Y-127126249D01*
X141997593Y-127126400D01*
X141991094Y-127120034D01*
X141900891Y-126904517D01*
X141900891Y-126895483D01*
X141991094Y-126679966D01*
X141997450Y-126673657D01*
X142006546Y-126673751D01*
G37*
%TD.AperFunction*%
%TD*%
%TA.AperFunction,Conductor*%
%TO.N,/Driver/12V*%
G36*
X101996749Y-96303427D02*
G01*
X102000174Y-96311522D01*
X102002187Y-96444412D01*
X102011496Y-96547316D01*
X102032047Y-96634619D01*
X102067961Y-96732231D01*
X102068001Y-96732327D01*
X102068007Y-96732343D01*
X102118896Y-96855281D01*
X102118894Y-96864236D01*
X102112593Y-96870553D01*
X101801202Y-97000498D01*
X101800000Y-97001000D01*
X101476642Y-96866061D01*
X101532038Y-96732231D01*
X101567952Y-96634619D01*
X101588503Y-96547316D01*
X101597812Y-96444412D01*
X101599825Y-96311522D01*
X101603377Y-96303302D01*
X101611524Y-96300000D01*
X101988476Y-96300000D01*
X101996749Y-96303427D01*
G37*
%TD.AperFunction*%
%TD*%
%TA.AperFunction,Conductor*%
%TO.N,/AIN_CS3*%
G36*
X146121944Y-85503427D02*
G01*
X146125365Y-85511322D01*
X146128342Y-85603767D01*
X146139267Y-85677000D01*
X146159117Y-85738782D01*
X146189237Y-85808197D01*
X146226249Y-85893454D01*
X146226400Y-85902407D01*
X146220034Y-85908906D01*
X146004517Y-85999109D01*
X145995483Y-85999109D01*
X145779966Y-85908906D01*
X145773657Y-85902550D01*
X145773751Y-85893454D01*
X145810762Y-85808197D01*
X145840881Y-85738782D01*
X145860732Y-85677000D01*
X145871657Y-85603767D01*
X145874635Y-85511322D01*
X145878327Y-85503165D01*
X145886329Y-85500000D01*
X146113671Y-85500000D01*
X146121944Y-85503427D01*
G37*
%TD.AperFunction*%
%TD*%
%TA.AperFunction,Conductor*%
%TO.N,Net-(D11-A)*%
G36*
X137328955Y-115908858D02*
G01*
X137335321Y-115915357D01*
X137369435Y-116001812D01*
X137397221Y-116072194D01*
X137426872Y-116129917D01*
X137470930Y-116189426D01*
X137471163Y-116189674D01*
X137534193Y-116256900D01*
X137537352Y-116265280D01*
X137533931Y-116273176D01*
X137373176Y-116433931D01*
X137364903Y-116437358D01*
X137356900Y-116434193D01*
X137356621Y-116433931D01*
X137289426Y-116370930D01*
X137229917Y-116326872D01*
X137172194Y-116297221D01*
X137171935Y-116297119D01*
X137171929Y-116297116D01*
X137101812Y-116269435D01*
X137015357Y-116235321D01*
X137008919Y-116229097D01*
X137008825Y-116220001D01*
X137097436Y-116003824D01*
X137103824Y-115997436D01*
X137168453Y-115970944D01*
X137320001Y-115908825D01*
X137328955Y-115908858D01*
G37*
%TD.AperFunction*%
%TD*%
%TA.AperFunction,Conductor*%
%TO.N,/ADC_EXT*%
G36*
X125208906Y-91679966D02*
G01*
X125299109Y-91895483D01*
X125299109Y-91904517D01*
X125208906Y-92120034D01*
X125202550Y-92126343D01*
X125193454Y-92126249D01*
X125108197Y-92089237D01*
X125038782Y-92059117D01*
X125038512Y-92059030D01*
X125038506Y-92059028D01*
X125013133Y-92050876D01*
X124977000Y-92039267D01*
X124903767Y-92028342D01*
X124903443Y-92028332D01*
X124903437Y-92028331D01*
X124854128Y-92026743D01*
X124811322Y-92025365D01*
X124803165Y-92021674D01*
X124800000Y-92013671D01*
X124800000Y-91786329D01*
X124803427Y-91778056D01*
X124811322Y-91774635D01*
X124845120Y-91773546D01*
X124903437Y-91771668D01*
X124903443Y-91771667D01*
X124903767Y-91771657D01*
X124977000Y-91760732D01*
X125013098Y-91749133D01*
X125038506Y-91740970D01*
X125038512Y-91740968D01*
X125038782Y-91740881D01*
X125108197Y-91710762D01*
X125193454Y-91673751D01*
X125202407Y-91673600D01*
X125208906Y-91679966D01*
G37*
%TD.AperFunction*%
%TD*%
%TA.AperFunction,Conductor*%
%TO.N,/Driver/LO3*%
G36*
X142408906Y-114279966D02*
G01*
X142499109Y-114495483D01*
X142499109Y-114504517D01*
X142408906Y-114720034D01*
X142402550Y-114726343D01*
X142393454Y-114726249D01*
X142308197Y-114689237D01*
X142238782Y-114659117D01*
X142238512Y-114659030D01*
X142238506Y-114659028D01*
X142213133Y-114650876D01*
X142177000Y-114639267D01*
X142103767Y-114628342D01*
X142103443Y-114628332D01*
X142103437Y-114628331D01*
X142054128Y-114626743D01*
X142011322Y-114625365D01*
X142003165Y-114621674D01*
X142000000Y-114613671D01*
X142000000Y-114386329D01*
X142003427Y-114378056D01*
X142011322Y-114374635D01*
X142045120Y-114373546D01*
X142103437Y-114371668D01*
X142103443Y-114371667D01*
X142103767Y-114371657D01*
X142177000Y-114360732D01*
X142213098Y-114349133D01*
X142238506Y-114340970D01*
X142238512Y-114340968D01*
X142238782Y-114340881D01*
X142308197Y-114310762D01*
X142393454Y-114273751D01*
X142402407Y-114273600D01*
X142408906Y-114279966D01*
G37*
%TD.AperFunction*%
%TD*%
%TA.AperFunction,Conductor*%
%TO.N,/CAN-T*%
G36*
X139743099Y-94465807D02*
G01*
X139803144Y-94522103D01*
X139810573Y-94529068D01*
X139870082Y-94573127D01*
X139927805Y-94602777D01*
X139928064Y-94602879D01*
X139928070Y-94602882D01*
X139998186Y-94630563D01*
X140084644Y-94664679D01*
X140091081Y-94670903D01*
X140091175Y-94679999D01*
X140054406Y-94769701D01*
X140002564Y-94896176D01*
X139996176Y-94902564D01*
X139931547Y-94929056D01*
X139779999Y-94991175D01*
X139771045Y-94991142D01*
X139764679Y-94984644D01*
X139730563Y-94898186D01*
X139702882Y-94828070D01*
X139702879Y-94828064D01*
X139702777Y-94827805D01*
X139673127Y-94770082D01*
X139629068Y-94710573D01*
X139600404Y-94680000D01*
X139565807Y-94643099D01*
X139562648Y-94634720D01*
X139566069Y-94626824D01*
X139726824Y-94466069D01*
X139735097Y-94462642D01*
X139743099Y-94465807D01*
G37*
%TD.AperFunction*%
%TD*%
%TA.AperFunction,Conductor*%
%TO.N,/ADC_EXT*%
G36*
X115725691Y-93878427D02*
G01*
X115728097Y-93881920D01*
X115816194Y-94078751D01*
X115907388Y-94256059D01*
X115998582Y-94406925D01*
X116089776Y-94531348D01*
X116090012Y-94531601D01*
X116090014Y-94531604D01*
X116174067Y-94621912D01*
X116177195Y-94630302D01*
X116174617Y-94637220D01*
X115609114Y-95339679D01*
X115601256Y-95343974D01*
X115592663Y-95341456D01*
X115590886Y-95339679D01*
X115025383Y-94637220D01*
X115022865Y-94628627D01*
X115025933Y-94621912D01*
X115109987Y-94531603D01*
X115109990Y-94531600D01*
X115110224Y-94531348D01*
X115201417Y-94406925D01*
X115292507Y-94256233D01*
X115292517Y-94256217D01*
X115292523Y-94256207D01*
X115292612Y-94256059D01*
X115383806Y-94078751D01*
X115471903Y-93881920D01*
X115478410Y-93875769D01*
X115482582Y-93875000D01*
X115717418Y-93875000D01*
X115725691Y-93878427D01*
G37*
%TD.AperFunction*%
%TD*%
%TA.AperFunction,Conductor*%
%TO.N,/3.3V*%
G36*
X127628955Y-89308858D02*
G01*
X127635321Y-89315357D01*
X127669435Y-89401812D01*
X127697221Y-89472194D01*
X127726872Y-89529917D01*
X127770930Y-89589426D01*
X127771163Y-89589674D01*
X127834193Y-89656900D01*
X127837352Y-89665280D01*
X127833931Y-89673176D01*
X127673176Y-89833931D01*
X127664903Y-89837358D01*
X127656900Y-89834193D01*
X127656621Y-89833931D01*
X127589426Y-89770930D01*
X127529917Y-89726872D01*
X127472194Y-89697221D01*
X127471935Y-89697119D01*
X127471929Y-89697116D01*
X127401812Y-89669435D01*
X127315357Y-89635321D01*
X127308919Y-89629097D01*
X127308825Y-89620001D01*
X127397436Y-89403824D01*
X127403824Y-89397436D01*
X127468453Y-89370944D01*
X127620001Y-89308825D01*
X127628955Y-89308858D01*
G37*
%TD.AperFunction*%
%TD*%
%TA.AperFunction,Conductor*%
%TO.N,/BOOT0*%
G36*
X145308906Y-95779966D02*
G01*
X145399109Y-95995483D01*
X145399109Y-96004517D01*
X145308906Y-96220034D01*
X145302550Y-96226343D01*
X145293454Y-96226249D01*
X145208197Y-96189237D01*
X145138782Y-96159117D01*
X145138512Y-96159030D01*
X145138506Y-96159028D01*
X145113133Y-96150876D01*
X145077000Y-96139267D01*
X145003767Y-96128342D01*
X145003443Y-96128332D01*
X145003437Y-96128331D01*
X144954128Y-96126743D01*
X144911322Y-96125365D01*
X144903165Y-96121674D01*
X144900000Y-96113671D01*
X144900000Y-95886329D01*
X144903427Y-95878056D01*
X144911322Y-95874635D01*
X144945120Y-95873546D01*
X145003437Y-95871668D01*
X145003443Y-95871667D01*
X145003767Y-95871657D01*
X145077000Y-95860732D01*
X145113098Y-95849133D01*
X145138506Y-95840970D01*
X145138512Y-95840968D01*
X145138782Y-95840881D01*
X145208197Y-95810762D01*
X145293454Y-95773751D01*
X145302407Y-95773600D01*
X145308906Y-95779966D01*
G37*
%TD.AperFunction*%
%TD*%
%TA.AperFunction,Conductor*%
%TO.N,/HALL2*%
G36*
X119507180Y-83556474D02*
G01*
X120046411Y-84047402D01*
X120050221Y-84055506D01*
X120047848Y-84063134D01*
X119964675Y-84172546D01*
X119875022Y-84318982D01*
X119785370Y-84493918D01*
X119695718Y-84697354D01*
X119695671Y-84697476D01*
X119695670Y-84697478D01*
X119606958Y-84926983D01*
X119604318Y-84931038D01*
X119442303Y-85093053D01*
X119434030Y-85096480D01*
X119425757Y-85093053D01*
X119423028Y-85088761D01*
X119332596Y-84838856D01*
X119332590Y-84838841D01*
X119332566Y-84838774D01*
X119235842Y-84599983D01*
X119235787Y-84599863D01*
X119139186Y-84389837D01*
X119139182Y-84389829D01*
X119139119Y-84389692D01*
X119042395Y-84207901D01*
X119042276Y-84207713D01*
X119042270Y-84207702D01*
X118950898Y-84062893D01*
X118949381Y-84054068D01*
X118952905Y-84048008D01*
X119491415Y-83556484D01*
X119499836Y-83553438D01*
X119507180Y-83556474D01*
G37*
%TD.AperFunction*%
%TD*%
%TA.AperFunction,Conductor*%
%TO.N,Net-(D11-A)*%
G36*
X143070302Y-117290689D02*
G01*
X143439303Y-117527774D01*
X143816237Y-117720305D01*
X144193171Y-117863186D01*
X144570105Y-117956418D01*
X144570468Y-117956460D01*
X144932558Y-117998326D01*
X144940383Y-118002681D01*
X144942837Y-118011293D01*
X144942271Y-118013776D01*
X144632514Y-118908804D01*
X144602429Y-118995732D01*
X144595840Y-119002718D01*
X143659308Y-119389660D01*
X143650353Y-119389652D01*
X143644027Y-119383315D01*
X143643676Y-119382349D01*
X143495149Y-118908902D01*
X143495144Y-118908888D01*
X143495118Y-118908804D01*
X143342737Y-118472721D01*
X143190355Y-118086287D01*
X143037974Y-117749503D01*
X142889648Y-117470011D01*
X142888797Y-117461096D01*
X142891710Y-117456253D01*
X143055704Y-117292259D01*
X143063977Y-117288832D01*
X143070302Y-117290689D01*
G37*
%TD.AperFunction*%
%TD*%
%TA.AperFunction,Conductor*%
%TO.N,/MOTOR-TEMP*%
G36*
X120606546Y-88273751D02*
G01*
X120691801Y-88310762D01*
X120761216Y-88340881D01*
X120761486Y-88340968D01*
X120761492Y-88340970D01*
X120786889Y-88349130D01*
X120822999Y-88360732D01*
X120896232Y-88371657D01*
X120896556Y-88371667D01*
X120896562Y-88371668D01*
X120954535Y-88373535D01*
X120988678Y-88374635D01*
X120996835Y-88378327D01*
X121000000Y-88386329D01*
X121000000Y-88613671D01*
X120996573Y-88621944D01*
X120988678Y-88625365D01*
X120945629Y-88626751D01*
X120896562Y-88628331D01*
X120896556Y-88628332D01*
X120896232Y-88628342D01*
X120822999Y-88639267D01*
X120786854Y-88650880D01*
X120761492Y-88659028D01*
X120761486Y-88659030D01*
X120761216Y-88659117D01*
X120691801Y-88689237D01*
X120606546Y-88726249D01*
X120597593Y-88726400D01*
X120591094Y-88720034D01*
X120500891Y-88504517D01*
X120500891Y-88495483D01*
X120591094Y-88279966D01*
X120597450Y-88273657D01*
X120606546Y-88273751D01*
G37*
%TD.AperFunction*%
%TD*%
%TA.AperFunction,Conductor*%
%TO.N,/DEBUG_RX*%
G36*
X137921944Y-82103427D02*
G01*
X137925365Y-82111322D01*
X137928342Y-82203767D01*
X137939267Y-82277000D01*
X137959117Y-82338782D01*
X137989237Y-82408197D01*
X138026249Y-82493454D01*
X138026400Y-82502407D01*
X138020034Y-82508906D01*
X137804517Y-82599109D01*
X137795483Y-82599109D01*
X137579966Y-82508906D01*
X137573657Y-82502550D01*
X137573751Y-82493454D01*
X137610762Y-82408197D01*
X137640881Y-82338782D01*
X137660732Y-82277000D01*
X137671657Y-82203767D01*
X137674635Y-82111322D01*
X137678327Y-82103165D01*
X137686329Y-82100000D01*
X137913671Y-82100000D01*
X137921944Y-82103427D01*
G37*
%TD.AperFunction*%
%TD*%
%TA.AperFunction,Conductor*%
%TO.N,Net-(D2-A)*%
G36*
X97928955Y-115908858D02*
G01*
X97935321Y-115915357D01*
X97969435Y-116001812D01*
X97997221Y-116072194D01*
X98026872Y-116129917D01*
X98070930Y-116189426D01*
X98071163Y-116189674D01*
X98134193Y-116256900D01*
X98137352Y-116265280D01*
X98133931Y-116273176D01*
X97973176Y-116433931D01*
X97964903Y-116437358D01*
X97956900Y-116434193D01*
X97956621Y-116433931D01*
X97889426Y-116370930D01*
X97829917Y-116326872D01*
X97772194Y-116297221D01*
X97771935Y-116297119D01*
X97771929Y-116297116D01*
X97701812Y-116269435D01*
X97615357Y-116235321D01*
X97608919Y-116229097D01*
X97608825Y-116220001D01*
X97697436Y-116003824D01*
X97703824Y-115997436D01*
X97768453Y-115970944D01*
X97920001Y-115908825D01*
X97928955Y-115908858D01*
G37*
%TD.AperFunction*%
%TD*%
%TA.AperFunction,Conductor*%
%TO.N,/AIN_CS1*%
G36*
X147121944Y-85503427D02*
G01*
X147125365Y-85511322D01*
X147128342Y-85603767D01*
X147139267Y-85677000D01*
X147159117Y-85738782D01*
X147189237Y-85808197D01*
X147226249Y-85893454D01*
X147226400Y-85902407D01*
X147220034Y-85908906D01*
X147004517Y-85999109D01*
X146995483Y-85999109D01*
X146779966Y-85908906D01*
X146773657Y-85902550D01*
X146773751Y-85893454D01*
X146810762Y-85808197D01*
X146840881Y-85738782D01*
X146860732Y-85677000D01*
X146871657Y-85603767D01*
X146874635Y-85511322D01*
X146878327Y-85503165D01*
X146886329Y-85500000D01*
X147113671Y-85500000D01*
X147121944Y-85503427D01*
G37*
%TD.AperFunction*%
%TD*%
%TA.AperFunction,Conductor*%
%TO.N,/AIN_VS2*%
G36*
X150106546Y-84273751D02*
G01*
X150191801Y-84310762D01*
X150261216Y-84340881D01*
X150261486Y-84340968D01*
X150261492Y-84340970D01*
X150286889Y-84349130D01*
X150322999Y-84360732D01*
X150396232Y-84371657D01*
X150396556Y-84371667D01*
X150396562Y-84371668D01*
X150454535Y-84373535D01*
X150488678Y-84374635D01*
X150496835Y-84378327D01*
X150500000Y-84386329D01*
X150500000Y-84613671D01*
X150496573Y-84621944D01*
X150488678Y-84625365D01*
X150445629Y-84626751D01*
X150396562Y-84628331D01*
X150396556Y-84628332D01*
X150396232Y-84628342D01*
X150322999Y-84639267D01*
X150286854Y-84650880D01*
X150261492Y-84659028D01*
X150261486Y-84659030D01*
X150261216Y-84659117D01*
X150191801Y-84689237D01*
X150106546Y-84726249D01*
X150097593Y-84726400D01*
X150091094Y-84720034D01*
X150000891Y-84504517D01*
X150000891Y-84495483D01*
X150091094Y-84279966D01*
X150097450Y-84273657D01*
X150106546Y-84273751D01*
G37*
%TD.AperFunction*%
%TD*%
%TA.AperFunction,Conductor*%
%TO.N,/BLE_TX*%
G36*
X100908906Y-93879966D02*
G01*
X100999109Y-94095483D01*
X100999109Y-94104517D01*
X100908906Y-94320034D01*
X100902550Y-94326343D01*
X100893454Y-94326249D01*
X100808197Y-94289237D01*
X100738782Y-94259117D01*
X100738512Y-94259030D01*
X100738506Y-94259028D01*
X100713133Y-94250876D01*
X100677000Y-94239267D01*
X100603767Y-94228342D01*
X100603443Y-94228332D01*
X100603437Y-94228331D01*
X100554128Y-94226743D01*
X100511322Y-94225365D01*
X100503165Y-94221674D01*
X100500000Y-94213671D01*
X100500000Y-93986329D01*
X100503427Y-93978056D01*
X100511322Y-93974635D01*
X100545120Y-93973546D01*
X100603437Y-93971668D01*
X100603443Y-93971667D01*
X100603767Y-93971657D01*
X100677000Y-93960732D01*
X100713098Y-93949133D01*
X100738506Y-93940970D01*
X100738512Y-93940968D01*
X100738782Y-93940881D01*
X100808197Y-93910762D01*
X100893454Y-93873751D01*
X100902407Y-93873600D01*
X100908906Y-93879966D01*
G37*
%TD.AperFunction*%
%TD*%
%TA.AperFunction,Conductor*%
%TO.N,/3.3V*%
G36*
X95106546Y-103573751D02*
G01*
X95191801Y-103610762D01*
X95261216Y-103640881D01*
X95261486Y-103640968D01*
X95261492Y-103640970D01*
X95286889Y-103649130D01*
X95322999Y-103660732D01*
X95396232Y-103671657D01*
X95396556Y-103671667D01*
X95396562Y-103671668D01*
X95454535Y-103673535D01*
X95488678Y-103674635D01*
X95496835Y-103678327D01*
X95500000Y-103686329D01*
X95500000Y-103913671D01*
X95496573Y-103921944D01*
X95488678Y-103925365D01*
X95445629Y-103926751D01*
X95396562Y-103928331D01*
X95396556Y-103928332D01*
X95396232Y-103928342D01*
X95322999Y-103939267D01*
X95286854Y-103950880D01*
X95261492Y-103959028D01*
X95261486Y-103959030D01*
X95261216Y-103959117D01*
X95191801Y-103989237D01*
X95106546Y-104026249D01*
X95097593Y-104026400D01*
X95091094Y-104020034D01*
X95000891Y-103804517D01*
X95000891Y-103795483D01*
X95091094Y-103579966D01*
X95097450Y-103573657D01*
X95106546Y-103573751D01*
G37*
%TD.AperFunction*%
%TD*%
%TA.AperFunction,Conductor*%
%TO.N,/MOTOR-TEMP*%
G36*
X120408906Y-88279966D02*
G01*
X120499109Y-88495483D01*
X120499109Y-88504517D01*
X120408906Y-88720034D01*
X120402550Y-88726343D01*
X120393454Y-88726249D01*
X120308197Y-88689237D01*
X120238782Y-88659117D01*
X120238512Y-88659030D01*
X120238506Y-88659028D01*
X120213133Y-88650876D01*
X120177000Y-88639267D01*
X120103767Y-88628342D01*
X120103443Y-88628332D01*
X120103437Y-88628331D01*
X120054128Y-88626743D01*
X120011322Y-88625365D01*
X120003165Y-88621674D01*
X120000000Y-88613671D01*
X120000000Y-88386329D01*
X120003427Y-88378056D01*
X120011322Y-88374635D01*
X120045120Y-88373546D01*
X120103437Y-88371668D01*
X120103443Y-88371667D01*
X120103767Y-88371657D01*
X120177000Y-88360732D01*
X120213098Y-88349133D01*
X120238506Y-88340970D01*
X120238512Y-88340968D01*
X120238782Y-88340881D01*
X120308197Y-88310762D01*
X120393454Y-88273751D01*
X120402407Y-88273600D01*
X120408906Y-88279966D01*
G37*
%TD.AperFunction*%
%TD*%
%TA.AperFunction,Conductor*%
%TO.N,/ADC_EXT*%
G36*
X125406546Y-91673751D02*
G01*
X125491801Y-91710762D01*
X125561216Y-91740881D01*
X125561486Y-91740968D01*
X125561492Y-91740970D01*
X125586889Y-91749130D01*
X125622999Y-91760732D01*
X125696232Y-91771657D01*
X125696556Y-91771667D01*
X125696562Y-91771668D01*
X125754535Y-91773535D01*
X125788678Y-91774635D01*
X125796835Y-91778327D01*
X125800000Y-91786329D01*
X125800000Y-92013671D01*
X125796573Y-92021944D01*
X125788678Y-92025365D01*
X125745629Y-92026751D01*
X125696562Y-92028331D01*
X125696556Y-92028332D01*
X125696232Y-92028342D01*
X125622999Y-92039267D01*
X125586854Y-92050880D01*
X125561492Y-92059028D01*
X125561486Y-92059030D01*
X125561216Y-92059117D01*
X125491801Y-92089237D01*
X125406546Y-92126249D01*
X125397593Y-92126400D01*
X125391094Y-92120034D01*
X125300891Y-91904517D01*
X125300891Y-91895483D01*
X125391094Y-91679966D01*
X125397450Y-91673657D01*
X125406546Y-91673751D01*
G37*
%TD.AperFunction*%
%TD*%
%TA.AperFunction,Conductor*%
%TO.N,/LED2*%
G36*
X145673175Y-106166068D02*
G01*
X145833931Y-106326824D01*
X145837358Y-106335097D01*
X145834193Y-106343100D01*
X145770930Y-106410573D01*
X145726872Y-106470082D01*
X145697221Y-106527805D01*
X145697119Y-106528064D01*
X145697116Y-106528070D01*
X145669435Y-106598186D01*
X145635321Y-106684643D01*
X145629097Y-106691081D01*
X145620001Y-106691175D01*
X145468453Y-106629056D01*
X145403824Y-106602564D01*
X145397436Y-106596176D01*
X145345594Y-106469701D01*
X145308825Y-106379999D01*
X145308858Y-106371045D01*
X145315356Y-106364679D01*
X145401812Y-106330563D01*
X145471929Y-106302882D01*
X145471935Y-106302879D01*
X145472194Y-106302777D01*
X145529917Y-106273127D01*
X145589426Y-106229068D01*
X145589675Y-106228834D01*
X145589684Y-106228827D01*
X145622232Y-106198311D01*
X145656902Y-106165805D01*
X145665279Y-106162647D01*
X145673175Y-106166068D01*
G37*
%TD.AperFunction*%
%TD*%
%TA.AperFunction,Conductor*%
%TO.N,/AIN_VIN*%
G36*
X144720034Y-86091094D02*
G01*
X144726343Y-86097450D01*
X144726249Y-86106546D01*
X144689237Y-86191801D01*
X144659117Y-86261216D01*
X144639267Y-86322999D01*
X144628342Y-86396232D01*
X144628332Y-86396556D01*
X144628331Y-86396562D01*
X144625365Y-86488677D01*
X144621674Y-86496835D01*
X144613671Y-86500000D01*
X144386329Y-86500000D01*
X144378056Y-86496573D01*
X144374635Y-86488677D01*
X144371668Y-86396562D01*
X144371667Y-86396556D01*
X144371657Y-86396232D01*
X144360732Y-86322999D01*
X144340881Y-86261216D01*
X144310762Y-86191801D01*
X144273751Y-86106546D01*
X144273600Y-86097593D01*
X144279966Y-86091094D01*
X144495483Y-86000891D01*
X144504517Y-86000891D01*
X144720034Y-86091094D01*
G37*
%TD.AperFunction*%
%TD*%
%TA.AperFunction,Conductor*%
%TO.N,/CAN-T*%
G36*
X105173175Y-97666068D02*
G01*
X105333931Y-97826824D01*
X105337358Y-97835097D01*
X105334193Y-97843100D01*
X105270930Y-97910573D01*
X105226872Y-97970082D01*
X105197221Y-98027805D01*
X105197119Y-98028064D01*
X105197116Y-98028070D01*
X105169435Y-98098186D01*
X105135321Y-98184643D01*
X105129097Y-98191081D01*
X105120001Y-98191175D01*
X104968453Y-98129056D01*
X104903824Y-98102564D01*
X104897436Y-98096176D01*
X104845594Y-97969701D01*
X104808825Y-97879999D01*
X104808858Y-97871045D01*
X104815356Y-97864679D01*
X104901812Y-97830563D01*
X104971929Y-97802882D01*
X104971935Y-97802879D01*
X104972194Y-97802777D01*
X105029917Y-97773127D01*
X105089426Y-97729068D01*
X105089675Y-97728834D01*
X105089684Y-97728827D01*
X105122232Y-97698311D01*
X105156902Y-97665805D01*
X105165279Y-97662647D01*
X105173175Y-97666068D01*
G37*
%TD.AperFunction*%
%TD*%
%TA.AperFunction,Conductor*%
%TO.N,/3.3V*%
G36*
X110237850Y-91899951D02*
G01*
X110246108Y-91903411D01*
X110249492Y-91912140D01*
X110244824Y-92023785D01*
X110244719Y-92024932D01*
X110232443Y-92111875D01*
X110232340Y-92112483D01*
X110217600Y-92187820D01*
X110205200Y-92275640D01*
X110205189Y-92275914D01*
X110205188Y-92275920D01*
X110200469Y-92388789D01*
X110196699Y-92396912D01*
X110188779Y-92400000D01*
X109811221Y-92400000D01*
X109802948Y-92396573D01*
X109799531Y-92388789D01*
X109794812Y-92275920D01*
X109794811Y-92275914D01*
X109794800Y-92275640D01*
X109782400Y-92187820D01*
X109767660Y-92112483D01*
X109767557Y-92111875D01*
X109755281Y-92024932D01*
X109755176Y-92023785D01*
X109750508Y-91912140D01*
X109753586Y-91903731D01*
X109762150Y-91899951D01*
X110000000Y-91899000D01*
X110237850Y-91899951D01*
G37*
%TD.AperFunction*%
%TD*%
%TA.AperFunction,Conductor*%
%TO.N,/DEBUG_TX*%
G36*
X157222625Y-83799363D02*
G01*
X157224651Y-83799695D01*
X157321367Y-83824449D01*
X157450852Y-83857591D01*
X157451864Y-83857901D01*
X157646286Y-83927280D01*
X157873987Y-83985560D01*
X158189189Y-84009190D01*
X158197181Y-84013224D01*
X158200013Y-84020841D01*
X158200976Y-84839284D01*
X158200991Y-84852169D01*
X158197574Y-84860446D01*
X158193766Y-84862993D01*
X157427248Y-85180091D01*
X157418293Y-85180087D01*
X157411964Y-85173753D01*
X157411422Y-85172106D01*
X157328833Y-84840352D01*
X157328505Y-84838190D01*
X157310625Y-84523525D01*
X157310625Y-84523521D01*
X157310616Y-84523368D01*
X157284027Y-84264423D01*
X157171977Y-84089337D01*
X157062378Y-84063634D01*
X156906673Y-84027117D01*
X156899400Y-84021892D01*
X156897644Y-84015726D01*
X156897644Y-83787610D01*
X156901071Y-83779337D01*
X156910219Y-83775943D01*
X157222625Y-83799363D01*
G37*
%TD.AperFunction*%
%TD*%
%TA.AperFunction,Conductor*%
%TO.N,/AIN_CS3*%
G36*
X158773175Y-132666068D02*
G01*
X158933931Y-132826824D01*
X158937358Y-132835097D01*
X158934193Y-132843100D01*
X158870930Y-132910573D01*
X158826872Y-132970082D01*
X158797221Y-133027805D01*
X158797119Y-133028064D01*
X158797116Y-133028070D01*
X158769435Y-133098186D01*
X158735321Y-133184643D01*
X158729097Y-133191081D01*
X158720001Y-133191175D01*
X158568453Y-133129056D01*
X158503824Y-133102564D01*
X158497436Y-133096176D01*
X158445594Y-132969701D01*
X158408825Y-132879999D01*
X158408858Y-132871045D01*
X158415356Y-132864679D01*
X158501812Y-132830563D01*
X158571929Y-132802882D01*
X158571935Y-132802879D01*
X158572194Y-132802777D01*
X158629917Y-132773127D01*
X158689426Y-132729068D01*
X158689675Y-132728834D01*
X158689684Y-132728827D01*
X158722232Y-132698311D01*
X158756902Y-132665805D01*
X158765279Y-132662647D01*
X158773175Y-132666068D01*
G37*
%TD.AperFunction*%
%TD*%
%TA.AperFunction,Conductor*%
%TO.N,Net-(D5-A)*%
G36*
X120570302Y-117290689D02*
G01*
X120939303Y-117527774D01*
X121316237Y-117720305D01*
X121693171Y-117863186D01*
X122070105Y-117956418D01*
X122070468Y-117956460D01*
X122432558Y-117998326D01*
X122440383Y-118002681D01*
X122442837Y-118011293D01*
X122442271Y-118013776D01*
X122132514Y-118908804D01*
X122102429Y-118995732D01*
X122095840Y-119002718D01*
X121159308Y-119389660D01*
X121150353Y-119389652D01*
X121144027Y-119383315D01*
X121143676Y-119382349D01*
X120995149Y-118908902D01*
X120995144Y-118908888D01*
X120995118Y-118908804D01*
X120842737Y-118472721D01*
X120690355Y-118086287D01*
X120537974Y-117749503D01*
X120389648Y-117470011D01*
X120388797Y-117461096D01*
X120391710Y-117456253D01*
X120555704Y-117292259D01*
X120563977Y-117288832D01*
X120570302Y-117290689D01*
G37*
%TD.AperFunction*%
%TD*%
%TA.AperFunction,Conductor*%
%TO.N,/BLE_MODE*%
G36*
X87206546Y-103273751D02*
G01*
X87291801Y-103310762D01*
X87361216Y-103340881D01*
X87361486Y-103340968D01*
X87361492Y-103340970D01*
X87386889Y-103349130D01*
X87422999Y-103360732D01*
X87496232Y-103371657D01*
X87496556Y-103371667D01*
X87496562Y-103371668D01*
X87554535Y-103373535D01*
X87588678Y-103374635D01*
X87596835Y-103378327D01*
X87600000Y-103386329D01*
X87600000Y-103613671D01*
X87596573Y-103621944D01*
X87588678Y-103625365D01*
X87545629Y-103626751D01*
X87496562Y-103628331D01*
X87496556Y-103628332D01*
X87496232Y-103628342D01*
X87422999Y-103639267D01*
X87386854Y-103650880D01*
X87361492Y-103659028D01*
X87361486Y-103659030D01*
X87361216Y-103659117D01*
X87291801Y-103689237D01*
X87206546Y-103726249D01*
X87197593Y-103726400D01*
X87191094Y-103720034D01*
X87100891Y-103504517D01*
X87100891Y-103495483D01*
X87191094Y-103279966D01*
X87197450Y-103273657D01*
X87206546Y-103273751D01*
G37*
%TD.AperFunction*%
%TD*%
%TA.AperFunction,Conductor*%
%TO.N,/MOTOR-TEMP*%
G36*
X139608906Y-90079966D02*
G01*
X139699109Y-90295483D01*
X139699109Y-90304517D01*
X139608906Y-90520034D01*
X139602550Y-90526343D01*
X139593454Y-90526249D01*
X139508197Y-90489237D01*
X139438782Y-90459117D01*
X139438512Y-90459030D01*
X139438506Y-90459028D01*
X139413133Y-90450876D01*
X139377000Y-90439267D01*
X139303767Y-90428342D01*
X139303443Y-90428332D01*
X139303437Y-90428331D01*
X139254128Y-90426743D01*
X139211322Y-90425365D01*
X139203165Y-90421674D01*
X139200000Y-90413671D01*
X139200000Y-90186329D01*
X139203427Y-90178056D01*
X139211322Y-90174635D01*
X139245120Y-90173546D01*
X139303437Y-90171668D01*
X139303443Y-90171667D01*
X139303767Y-90171657D01*
X139377000Y-90160732D01*
X139413098Y-90149133D01*
X139438506Y-90140970D01*
X139438512Y-90140968D01*
X139438782Y-90140881D01*
X139508197Y-90110762D01*
X139593454Y-90073751D01*
X139602407Y-90073600D01*
X139608906Y-90079966D01*
G37*
%TD.AperFunction*%
%TD*%
%TA.AperFunction,Conductor*%
%TO.N,/BLE_TX*%
G36*
X87206546Y-101273751D02*
G01*
X87291801Y-101310762D01*
X87361216Y-101340881D01*
X87361486Y-101340968D01*
X87361492Y-101340970D01*
X87386889Y-101349130D01*
X87422999Y-101360732D01*
X87496232Y-101371657D01*
X87496556Y-101371667D01*
X87496562Y-101371668D01*
X87554535Y-101373535D01*
X87588678Y-101374635D01*
X87596835Y-101378327D01*
X87600000Y-101386329D01*
X87600000Y-101613671D01*
X87596573Y-101621944D01*
X87588678Y-101625365D01*
X87545629Y-101626751D01*
X87496562Y-101628331D01*
X87496556Y-101628332D01*
X87496232Y-101628342D01*
X87422999Y-101639267D01*
X87386854Y-101650880D01*
X87361492Y-101659028D01*
X87361486Y-101659030D01*
X87361216Y-101659117D01*
X87291801Y-101689237D01*
X87206546Y-101726249D01*
X87197593Y-101726400D01*
X87191094Y-101720034D01*
X87100891Y-101504517D01*
X87100891Y-101495483D01*
X87191094Y-101279966D01*
X87197450Y-101273657D01*
X87206546Y-101273751D01*
G37*
%TD.AperFunction*%
%TD*%
%TA.AperFunction,Conductor*%
%TO.N,Net-(D2-A)*%
G36*
X99093850Y-117217386D02*
G01*
X99255943Y-117385580D01*
X99319801Y-117451842D01*
X99554022Y-117652481D01*
X99788244Y-117810720D01*
X99788592Y-117810892D01*
X99788597Y-117810895D01*
X100022059Y-117926359D01*
X100022062Y-117926360D01*
X100022466Y-117926560D01*
X100241916Y-117995368D01*
X100248785Y-118001113D01*
X100249580Y-118010032D01*
X100248201Y-118012946D01*
X99608792Y-118988373D01*
X99601391Y-118993414D01*
X99592593Y-118991744D01*
X99590539Y-118990032D01*
X98940505Y-118307606D01*
X98653789Y-118006602D01*
X98650564Y-117998248D01*
X98652366Y-117992289D01*
X98699609Y-117917415D01*
X98699760Y-117917176D01*
X98752021Y-117814322D01*
X98753479Y-117810895D01*
X98804223Y-117691577D01*
X98804224Y-117691573D01*
X98804282Y-117691438D01*
X98856542Y-117548524D01*
X98887552Y-117451842D01*
X98907939Y-117388277D01*
X98910807Y-117383577D01*
X99077152Y-117217232D01*
X99085425Y-117213805D01*
X99093850Y-117217386D01*
G37*
%TD.AperFunction*%
%TD*%
%TA.AperFunction,Conductor*%
%TO.N,/CAN-R*%
G36*
X138586240Y-94582724D02*
G01*
X138588249Y-94583052D01*
X138645819Y-94597733D01*
X138659676Y-94601267D01*
X138660704Y-94601580D01*
X138722380Y-94623507D01*
X138722390Y-94623510D01*
X138722643Y-94623600D01*
X138795581Y-94642200D01*
X138796094Y-94642238D01*
X138796098Y-94642239D01*
X138843266Y-94645762D01*
X138889216Y-94649194D01*
X138897209Y-94653227D01*
X138900043Y-94660814D01*
X138900980Y-94895107D01*
X138897530Y-94903450D01*
X138821531Y-94979022D01*
X138732722Y-95067331D01*
X138724440Y-95070735D01*
X138716177Y-95067285D01*
X138715142Y-95066093D01*
X138668411Y-95004309D01*
X138667152Y-95002225D01*
X138635597Y-94935046D01*
X138635586Y-94935024D01*
X138635567Y-94934983D01*
X138618097Y-94900000D01*
X138607711Y-94879202D01*
X138607709Y-94879200D01*
X138607200Y-94878180D01*
X138562861Y-94839369D01*
X138561293Y-94839087D01*
X138561292Y-94839087D01*
X138533801Y-94834151D01*
X138492473Y-94826729D01*
X138484937Y-94821895D01*
X138482842Y-94815214D01*
X138482842Y-94587606D01*
X138486269Y-94579333D01*
X138495414Y-94575939D01*
X138586240Y-94582724D01*
G37*
%TD.AperFunction*%
%TD*%
%TA.AperFunction,Conductor*%
%TO.N,/Driver/12V*%
G36*
X92696749Y-121403427D02*
G01*
X92700174Y-121411522D01*
X92702187Y-121544412D01*
X92711496Y-121647316D01*
X92732047Y-121734619D01*
X92767961Y-121832231D01*
X92768001Y-121832327D01*
X92768007Y-121832343D01*
X92818896Y-121955281D01*
X92818894Y-121964236D01*
X92812592Y-121970554D01*
X92504505Y-122099120D01*
X92495495Y-122099120D01*
X92187408Y-121970554D01*
X92181093Y-121964205D01*
X92181104Y-121955281D01*
X92231992Y-121832343D01*
X92231998Y-121832327D01*
X92232038Y-121832231D01*
X92267952Y-121734619D01*
X92288503Y-121647316D01*
X92297812Y-121544412D01*
X92299825Y-121411522D01*
X92303377Y-121403302D01*
X92311524Y-121400000D01*
X92688476Y-121400000D01*
X92696749Y-121403427D01*
G37*
%TD.AperFunction*%
%TD*%
%TA.AperFunction,Conductor*%
%TO.N,/HALL3*%
G36*
X121507180Y-83556474D02*
G01*
X122046411Y-84047402D01*
X122050221Y-84055506D01*
X122047848Y-84063134D01*
X121964675Y-84172546D01*
X121875022Y-84318982D01*
X121785370Y-84493918D01*
X121695718Y-84697354D01*
X121695671Y-84697476D01*
X121695670Y-84697478D01*
X121606958Y-84926983D01*
X121604318Y-84931038D01*
X121442303Y-85093053D01*
X121434030Y-85096480D01*
X121425757Y-85093053D01*
X121423028Y-85088761D01*
X121332596Y-84838856D01*
X121332590Y-84838841D01*
X121332566Y-84838774D01*
X121235842Y-84599983D01*
X121235787Y-84599863D01*
X121139186Y-84389837D01*
X121139182Y-84389829D01*
X121139119Y-84389692D01*
X121042395Y-84207901D01*
X121042276Y-84207713D01*
X121042270Y-84207702D01*
X120950898Y-84062893D01*
X120949381Y-84054068D01*
X120952905Y-84048008D01*
X121491415Y-83556484D01*
X121499836Y-83553438D01*
X121507180Y-83556474D01*
G37*
%TD.AperFunction*%
%TD*%
%TA.AperFunction,Conductor*%
%TO.N,/AIN_V12V*%
G36*
X99828955Y-81208858D02*
G01*
X99835321Y-81215357D01*
X99869435Y-81301812D01*
X99897221Y-81372194D01*
X99926872Y-81429917D01*
X99970930Y-81489426D01*
X99971163Y-81489674D01*
X100034193Y-81556900D01*
X100037352Y-81565280D01*
X100033931Y-81573176D01*
X99873176Y-81733931D01*
X99864903Y-81737358D01*
X99856900Y-81734193D01*
X99856621Y-81733931D01*
X99789426Y-81670930D01*
X99729917Y-81626872D01*
X99672194Y-81597221D01*
X99671935Y-81597119D01*
X99671929Y-81597116D01*
X99601812Y-81569435D01*
X99515357Y-81535321D01*
X99508919Y-81529097D01*
X99508825Y-81520001D01*
X99597436Y-81303824D01*
X99603824Y-81297436D01*
X99668453Y-81270944D01*
X99820001Y-81208825D01*
X99828955Y-81208858D01*
G37*
%TD.AperFunction*%
%TD*%
%TA.AperFunction,Conductor*%
%TO.N,/3.3V*%
G36*
X133820034Y-84791094D02*
G01*
X133826343Y-84797450D01*
X133826249Y-84806546D01*
X133789237Y-84891801D01*
X133759117Y-84961216D01*
X133739267Y-85022999D01*
X133728342Y-85096232D01*
X133728332Y-85096556D01*
X133728331Y-85096562D01*
X133725365Y-85188677D01*
X133721674Y-85196835D01*
X133713671Y-85200000D01*
X133486329Y-85200000D01*
X133478056Y-85196573D01*
X133474635Y-85188677D01*
X133471668Y-85096562D01*
X133471667Y-85096556D01*
X133471657Y-85096232D01*
X133460732Y-85022999D01*
X133440881Y-84961216D01*
X133410762Y-84891801D01*
X133373751Y-84806546D01*
X133373600Y-84797593D01*
X133379966Y-84791094D01*
X133595483Y-84700891D01*
X133604517Y-84700891D01*
X133820034Y-84791094D01*
G37*
%TD.AperFunction*%
%TD*%
%TA.AperFunction,Conductor*%
%TO.N,/3.3V*%
G36*
X100020034Y-102591094D02*
G01*
X100026343Y-102597450D01*
X100026249Y-102606546D01*
X99989237Y-102691801D01*
X99959117Y-102761216D01*
X99939267Y-102822999D01*
X99928342Y-102896232D01*
X99928332Y-102896556D01*
X99928331Y-102896562D01*
X99925365Y-102988677D01*
X99921674Y-102996835D01*
X99913671Y-103000000D01*
X99686329Y-103000000D01*
X99678056Y-102996573D01*
X99674635Y-102988677D01*
X99671668Y-102896562D01*
X99671667Y-102896556D01*
X99671657Y-102896232D01*
X99660732Y-102822999D01*
X99640881Y-102761216D01*
X99610762Y-102691801D01*
X99573751Y-102606546D01*
X99573600Y-102597593D01*
X99579966Y-102591094D01*
X99795483Y-102500891D01*
X99804517Y-102500891D01*
X100020034Y-102591094D01*
G37*
%TD.AperFunction*%
%TD*%
M02*
