%TF.GenerationSoftware,KiCad,Pcbnew,(6.99.0-2501-g45393f228a)*%
%TF.CreationDate,2022-08-09T23:28:24+12:00*%
%TF.ProjectId,bldc_hardware_riscv,626c6463-5f68-4617-9264-776172655f72,rev?*%
%TF.SameCoordinates,Original*%
%TF.FileFunction,Soldermask,Top*%
%TF.FilePolarity,Negative*%
%FSLAX46Y46*%
G04 Gerber Fmt 4.6, Leading zero omitted, Abs format (unit mm)*
G04 Created by KiCad (PCBNEW (6.99.0-2501-g45393f228a)) date 2022-08-09 23:28:24*
%MOMM*%
%LPD*%
G01*
G04 APERTURE LIST*
G04 Aperture macros list*
%AMRoundRect*
0 Rectangle with rounded corners*
0 $1 Rounding radius*
0 $2 $3 $4 $5 $6 $7 $8 $9 X,Y pos of 4 corners*
0 Add a 4 corners polygon primitive as box body*
4,1,4,$2,$3,$4,$5,$6,$7,$8,$9,$2,$3,0*
0 Add four circle primitives for the rounded corners*
1,1,$1+$1,$2,$3*
1,1,$1+$1,$4,$5*
1,1,$1+$1,$6,$7*
1,1,$1+$1,$8,$9*
0 Add four rect primitives between the rounded corners*
20,1,$1+$1,$2,$3,$4,$5,0*
20,1,$1+$1,$4,$5,$6,$7,0*
20,1,$1+$1,$6,$7,$8,$9,0*
20,1,$1+$1,$8,$9,$2,$3,0*%
%AMFreePoly0*
4,1,9,3.862500,-0.866500,0.737500,-0.866500,0.737500,-0.450000,-0.737500,-0.450000,-0.737500,0.450000,0.737500,0.450000,0.737500,0.866500,3.862500,0.866500,3.862500,-0.866500,3.862500,-0.866500,$1*%
G04 Aperture macros list end*
%ADD10C,0.050000*%
%ADD11RoundRect,0.200000X-0.275000X0.200000X-0.275000X-0.200000X0.275000X-0.200000X0.275000X0.200000X0*%
%ADD12RoundRect,0.200000X0.200000X0.275000X-0.200000X0.275000X-0.200000X-0.275000X0.200000X-0.275000X0*%
%ADD13RoundRect,0.200000X0.275000X-0.200000X0.275000X0.200000X-0.275000X0.200000X-0.275000X-0.200000X0*%
%ADD14R,1.905000X2.000000*%
%ADD15O,1.905000X2.000000*%
%ADD16RoundRect,0.250000X0.250000X0.475000X-0.250000X0.475000X-0.250000X-0.475000X0.250000X-0.475000X0*%
%ADD17R,1.200000X0.900000*%
%ADD18RoundRect,0.225000X0.225000X0.250000X-0.225000X0.250000X-0.225000X-0.250000X0.225000X-0.250000X0*%
%ADD19RoundRect,0.250000X-0.262500X-0.450000X0.262500X-0.450000X0.262500X0.450000X-0.262500X0.450000X0*%
%ADD20RoundRect,0.225000X0.250000X-0.225000X0.250000X0.225000X-0.250000X0.225000X-0.250000X-0.225000X0*%
%ADD21RoundRect,0.225000X-0.225000X-0.250000X0.225000X-0.250000X0.225000X0.250000X-0.225000X0.250000X0*%
%ADD22RoundRect,0.200000X-0.200000X-0.275000X0.200000X-0.275000X0.200000X0.275000X-0.200000X0.275000X0*%
%ADD23RoundRect,0.218750X0.218750X0.256250X-0.218750X0.256250X-0.218750X-0.256250X0.218750X-0.256250X0*%
%ADD24RoundRect,0.150000X-0.587500X-0.150000X0.587500X-0.150000X0.587500X0.150000X-0.587500X0.150000X0*%
%ADD25RoundRect,0.225000X-0.250000X0.225000X-0.250000X-0.225000X0.250000X-0.225000X0.250000X0.225000X0*%
%ADD26RoundRect,0.375000X-0.375000X-0.725000X0.375000X-0.725000X0.375000X0.725000X-0.375000X0.725000X0*%
%ADD27RoundRect,0.150000X-0.825000X-0.150000X0.825000X-0.150000X0.825000X0.150000X-0.825000X0.150000X0*%
%ADD28RoundRect,0.250000X-0.312500X-0.625000X0.312500X-0.625000X0.312500X0.625000X-0.312500X0.625000X0*%
%ADD29R,0.600000X0.450000*%
%ADD30RoundRect,0.150000X0.825000X0.150000X-0.825000X0.150000X-0.825000X-0.150000X0.825000X-0.150000X0*%
%ADD31R,2.300000X2.300000*%
%ADD32RoundRect,0.218750X-0.218750X-0.256250X0.218750X-0.256250X0.218750X0.256250X-0.218750X0.256250X0*%
%ADD33R,1.100000X1.300000*%
%ADD34RoundRect,0.150000X0.587500X0.150000X-0.587500X0.150000X-0.587500X-0.150000X0.587500X-0.150000X0*%
%ADD35R,1.200000X1.200000*%
%ADD36R,1.800000X2.500000*%
%ADD37RoundRect,0.250000X-0.250000X-0.475000X0.250000X-0.475000X0.250000X0.475000X-0.250000X0.475000X0*%
%ADD38RoundRect,0.150000X0.150000X-0.825000X0.150000X0.825000X-0.150000X0.825000X-0.150000X-0.825000X0*%
%ADD39R,1.500000X3.600000*%
%ADD40RoundRect,0.100000X-0.100000X0.637500X-0.100000X-0.637500X0.100000X-0.637500X0.100000X0.637500X0*%
%ADD41RoundRect,0.150000X-0.875000X-0.150000X0.875000X-0.150000X0.875000X0.150000X-0.875000X0.150000X0*%
%ADD42R,0.900000X1.700000*%
%ADD43R,0.900000X1.300000*%
%ADD44FreePoly0,270.000000*%
%ADD45R,1.700000X0.900000*%
%ADD46RoundRect,0.250000X0.425000X-0.450000X0.425000X0.450000X-0.425000X0.450000X-0.425000X-0.450000X0*%
%ADD47R,1.100000X1.100000*%
%ADD48R,1.100000X0.510000*%
%ADD49R,2.000000X2.600000*%
%ADD50RoundRect,0.075000X0.725000X0.075000X-0.725000X0.075000X-0.725000X-0.075000X0.725000X-0.075000X0*%
%ADD51RoundRect,0.075000X0.075000X0.725000X-0.075000X0.725000X-0.075000X-0.725000X0.075000X-0.725000X0*%
%ADD52R,1.600000X1.600000*%
%ADD53C,1.600000*%
%ADD54RoundRect,0.250000X0.350000X0.625000X-0.350000X0.625000X-0.350000X-0.625000X0.350000X-0.625000X0*%
%ADD55O,1.200000X1.750000*%
%ADD56RoundRect,0.250000X-0.350000X-0.625000X0.350000X-0.625000X0.350000X0.625000X-0.350000X0.625000X0*%
%ADD57R,2.400000X2.400000*%
%ADD58C,2.400000*%
%ADD59C,3.200000*%
%ADD60O,1.100000X1.800000*%
%ADD61O,1.100000X2.200000*%
%ADD62R,1.700000X1.700000*%
%ADD63O,1.700000X1.700000*%
G04 APERTURE END LIST*
D10*
G36*
X84400000Y-98100000D02*
G01*
X81200000Y-98100000D01*
X81200000Y-98600000D01*
X84400000Y-98600000D01*
X84400000Y-99400000D01*
X81200000Y-99400000D01*
X81200000Y-99800000D01*
X83300000Y-99800000D01*
X83300000Y-101700000D01*
X81200000Y-101700000D01*
X81200000Y-102200000D01*
X83300000Y-102200000D01*
X83300000Y-104100000D01*
X81200000Y-104100000D01*
X81200000Y-104700000D01*
X83600000Y-104700000D01*
X83600000Y-102800000D01*
X84200000Y-102800000D01*
X84200000Y-105500000D01*
X80400000Y-105500000D01*
X80400000Y-103400000D01*
X82500000Y-103400000D01*
X82500000Y-102900000D01*
X80400000Y-102900000D01*
X80400000Y-101000000D01*
X82500000Y-101000000D01*
X82500000Y-100500000D01*
X80400000Y-100500000D01*
X80400000Y-97000000D01*
X84400000Y-97000000D01*
X84400000Y-98100000D01*
G37*
X84400000Y-98100000D02*
X81200000Y-98100000D01*
X81200000Y-98600000D01*
X84400000Y-98600000D01*
X84400000Y-99400000D01*
X81200000Y-99400000D01*
X81200000Y-99800000D01*
X83300000Y-99800000D01*
X83300000Y-101700000D01*
X81200000Y-101700000D01*
X81200000Y-102200000D01*
X83300000Y-102200000D01*
X83300000Y-104100000D01*
X81200000Y-104100000D01*
X81200000Y-104700000D01*
X83600000Y-104700000D01*
X83600000Y-102800000D01*
X84200000Y-102800000D01*
X84200000Y-105500000D01*
X80400000Y-105500000D01*
X80400000Y-103400000D01*
X82500000Y-103400000D01*
X82500000Y-102900000D01*
X80400000Y-102900000D01*
X80400000Y-101000000D01*
X82500000Y-101000000D01*
X82500000Y-100500000D01*
X80400000Y-100500000D01*
X80400000Y-97000000D01*
X84400000Y-97000000D01*
X84400000Y-98100000D01*
D11*
%TO.C,R20*%
X133100000Y-90125000D03*
X133100000Y-88475000D03*
%TD*%
%TO.C,R19*%
X131600000Y-91225000D03*
X131600000Y-89575000D03*
%TD*%
D12*
%TO.C,R18*%
X127875000Y-88500000D03*
X129525000Y-88500000D03*
%TD*%
D13*
%TO.C,R33*%
X127500000Y-106325000D03*
X127500000Y-104675000D03*
%TD*%
D12*
%TO.C,R24*%
X154325000Y-103000000D03*
X152675000Y-103000000D03*
%TD*%
D14*
%TO.C,Q2*%
X99599999Y-118999999D03*
D15*
X97059999Y-118999999D03*
X94519999Y-118999999D03*
%TD*%
D16*
%TO.C,C4*%
X112450000Y-99500000D03*
X110550000Y-99500000D03*
%TD*%
D17*
%TO.C,D18*%
X97799999Y-108149999D03*
X97799999Y-111449999D03*
%TD*%
D18*
%TO.C,C7*%
X112275000Y-101300000D03*
X110725000Y-101300000D03*
%TD*%
D19*
%TO.C,R42*%
X107587500Y-97500000D03*
X109412500Y-97500000D03*
%TD*%
D20*
%TO.C,C49*%
X114900000Y-126075000D03*
X114900000Y-124525000D03*
%TD*%
D21*
%TO.C,C29*%
X152925000Y-96600000D03*
X154475000Y-96600000D03*
%TD*%
D22*
%TO.C,R48*%
X116375000Y-127500000D03*
X118025000Y-127500000D03*
%TD*%
D21*
%TO.C,C34*%
X153725000Y-89500000D03*
X155275000Y-89500000D03*
%TD*%
D11*
%TO.C,R13*%
X97500000Y-87675000D03*
X97500000Y-89325000D03*
%TD*%
D23*
%TO.C,D16*%
X141087500Y-108300000D03*
X139512500Y-108300000D03*
%TD*%
D21*
%TO.C,C6*%
X92000000Y-88000000D03*
X93550000Y-88000000D03*
%TD*%
D24*
%TO.C,U5*%
X94162500Y-123550000D03*
X94162500Y-125450000D03*
X96037500Y-124500000D03*
%TD*%
D12*
%TO.C,R11*%
X153825000Y-116000000D03*
X152175000Y-116000000D03*
%TD*%
%TO.C,R5*%
X102500000Y-114500000D03*
X100850000Y-114500000D03*
%TD*%
%TO.C,R14*%
X153825000Y-114500000D03*
X152175000Y-114500000D03*
%TD*%
D25*
%TO.C,C18*%
X98000000Y-84725000D03*
X98000000Y-86275000D03*
%TD*%
D22*
%TO.C,R34*%
X102175000Y-106600000D03*
X103825000Y-106600000D03*
%TD*%
%TO.C,R41*%
X143975000Y-82100000D03*
X145625000Y-82100000D03*
%TD*%
D26*
%TO.C,L1*%
X84350000Y-85400000D03*
X90650000Y-85400000D03*
%TD*%
D13*
%TO.C,R16*%
X99000000Y-90325000D03*
X99000000Y-88675000D03*
%TD*%
D27*
%TO.C,U7*%
X103625000Y-99295000D03*
X103625000Y-100565000D03*
X103625000Y-101835000D03*
X103625000Y-103105000D03*
X108575000Y-103105000D03*
X108575000Y-101835000D03*
X108575000Y-100565000D03*
X108575000Y-99295000D03*
%TD*%
D28*
%TO.C,R10*%
X93037500Y-85500000D03*
X95962500Y-85500000D03*
%TD*%
D21*
%TO.C,C42*%
X154725000Y-133900000D03*
X156275000Y-133900000D03*
%TD*%
D25*
%TO.C,C2*%
X114000000Y-88425000D03*
X114000000Y-89975000D03*
%TD*%
%TO.C,C20*%
X149400000Y-101525000D03*
X149400000Y-103075000D03*
%TD*%
D29*
%TO.C,D4*%
X126549999Y-115999999D03*
X124449999Y-115999999D03*
%TD*%
D18*
%TO.C,C46*%
X140475000Y-126000000D03*
X138925000Y-126000000D03*
%TD*%
D13*
%TO.C,R30*%
X123500000Y-105825000D03*
X123500000Y-104175000D03*
%TD*%
D12*
%TO.C,R7*%
X118275000Y-116000000D03*
X116625000Y-116000000D03*
%TD*%
%TO.C,R37*%
X115725000Y-93100000D03*
X114075000Y-93100000D03*
%TD*%
D22*
%TO.C,R43*%
X100275000Y-81300000D03*
X101925000Y-81300000D03*
%TD*%
D21*
%TO.C,C27*%
X151325000Y-99400000D03*
X152875000Y-99400000D03*
%TD*%
D18*
%TO.C,C11*%
X125275000Y-109000000D03*
X123725000Y-109000000D03*
%TD*%
D12*
%TO.C,R4*%
X110825000Y-114500000D03*
X109175000Y-114500000D03*
%TD*%
D13*
%TO.C,R35*%
X127500000Y-103325000D03*
X127500000Y-101675000D03*
%TD*%
D30*
%TO.C,U4*%
X89975000Y-93830000D03*
X89975000Y-92560000D03*
X89975000Y-91290000D03*
X89975000Y-90020000D03*
X85025000Y-90020000D03*
X85025000Y-91290000D03*
X85025000Y-92560000D03*
X85025000Y-93830000D03*
D31*
X87499999Y-91924999D03*
%TD*%
D14*
%TO.C,Q5*%
X155599999Y-118999999D03*
D15*
X153059999Y-118999999D03*
X150519999Y-118999999D03*
%TD*%
D29*
%TO.C,D5*%
X114999999Y-115999999D03*
X112899999Y-115999999D03*
%TD*%
D22*
%TO.C,R46*%
X138875000Y-127500000D03*
X140525000Y-127500000D03*
%TD*%
D32*
%TO.C,D15*%
X139512500Y-106600000D03*
X141087500Y-106600000D03*
%TD*%
D29*
%TO.C,D10*%
X150549999Y-115999999D03*
X148449999Y-115999999D03*
%TD*%
D16*
%TO.C,C23*%
X95650000Y-106300000D03*
X93750000Y-106300000D03*
%TD*%
D20*
%TO.C,C10*%
X112000000Y-90775000D03*
X112000000Y-89225000D03*
%TD*%
D13*
%TO.C,R29*%
X119500000Y-105325000D03*
X119500000Y-103675000D03*
%TD*%
D22*
%TO.C,R36*%
X105175000Y-105600000D03*
X106825000Y-105600000D03*
%TD*%
D33*
%TO.C,Y1*%
X153174999Y-91249999D03*
X153174999Y-93349999D03*
X154824999Y-93349999D03*
X154824999Y-91249999D03*
%TD*%
D34*
%TO.C,D12*%
X122437500Y-88450000D03*
X122437500Y-86550000D03*
X120562500Y-87500000D03*
%TD*%
D12*
%TO.C,R3*%
X102500000Y-116000000D03*
X100850000Y-116000000D03*
%TD*%
D22*
%TO.C,R40*%
X131575000Y-98700000D03*
X133225000Y-98700000D03*
%TD*%
D35*
%TO.C,D3*%
X101999999Y-90899999D03*
X101999999Y-88099999D03*
%TD*%
D36*
%TO.C,D7*%
X81999999Y-88399999D03*
X81999999Y-92399999D03*
%TD*%
D20*
%TO.C,C38*%
X101300000Y-101475000D03*
X101300000Y-99925000D03*
%TD*%
D37*
%TO.C,C22*%
X95750000Y-113500000D03*
X97650000Y-113500000D03*
%TD*%
D18*
%TO.C,C50*%
X117975000Y-126000000D03*
X116425000Y-126000000D03*
%TD*%
D25*
%TO.C,C32*%
X134700000Y-99225000D03*
X134700000Y-100775000D03*
%TD*%
D21*
%TO.C,C48*%
X109725000Y-133900000D03*
X111275000Y-133900000D03*
%TD*%
D38*
%TO.C,U2*%
X104095000Y-87475000D03*
X105365000Y-87475000D03*
X106635000Y-87475000D03*
X107905000Y-87475000D03*
X107905000Y-82525000D03*
X106635000Y-82525000D03*
X105365000Y-82525000D03*
X104095000Y-82525000D03*
%TD*%
D21*
%TO.C,C21*%
X157925000Y-135400000D03*
X159475000Y-135400000D03*
%TD*%
D39*
%TO.C,L2*%
X104474999Y-91499999D03*
X107524999Y-91499999D03*
%TD*%
D12*
%TO.C,R12*%
X141825000Y-116000000D03*
X140175000Y-116000000D03*
%TD*%
%TO.C,R6*%
X129825000Y-116000000D03*
X128175000Y-116000000D03*
%TD*%
D22*
%TO.C,R102*%
X157875000Y-136900000D03*
X159525000Y-136900000D03*
%TD*%
D40*
%TO.C,U3*%
X116925000Y-103637500D03*
X116275000Y-103637500D03*
X115625000Y-103637500D03*
X114975000Y-103637500D03*
X114325000Y-103637500D03*
X113675000Y-103637500D03*
X113025000Y-103637500D03*
X112375000Y-103637500D03*
X111725000Y-103637500D03*
X111075000Y-103637500D03*
X111075000Y-109362500D03*
X111725000Y-109362500D03*
X112375000Y-109362500D03*
X113025000Y-109362500D03*
X113675000Y-109362500D03*
X114325000Y-109362500D03*
X114975000Y-109362500D03*
X115625000Y-109362500D03*
X116275000Y-109362500D03*
X116925000Y-109362500D03*
%TD*%
D41*
%TO.C,U101*%
X103450000Y-123255000D03*
X103450000Y-124525000D03*
X103450000Y-125795000D03*
X103450000Y-127065000D03*
X103450000Y-128335000D03*
X103450000Y-129605000D03*
X103450000Y-130875000D03*
X103450000Y-132145000D03*
X112750000Y-132145000D03*
X112750000Y-130875000D03*
X112750000Y-129605000D03*
X112750000Y-128335000D03*
X112750000Y-127065000D03*
X112750000Y-125795000D03*
X112750000Y-124525000D03*
X112750000Y-123255000D03*
%TD*%
D42*
%TO.C,SW1*%
X131899999Y-96299999D03*
X128499999Y-96299999D03*
%TD*%
D43*
%TO.C,Q9*%
X95599999Y-108249999D03*
D44*
X94100000Y-108337500D03*
D43*
X92599999Y-108249999D03*
%TD*%
D22*
%TO.C,R39*%
X142875000Y-106600000D03*
X144525000Y-106600000D03*
%TD*%
D12*
%TO.C,R49*%
X118025000Y-124500000D03*
X116375000Y-124500000D03*
%TD*%
%TO.C,R1*%
X155325000Y-85800000D03*
X153675000Y-85800000D03*
%TD*%
D14*
%TO.C,Q6*%
X144599999Y-118999999D03*
D15*
X142059999Y-118999999D03*
X139519999Y-118999999D03*
%TD*%
D12*
%TO.C,R23*%
X154325000Y-101500000D03*
X152675000Y-101500000D03*
%TD*%
%TO.C,R9*%
X118275000Y-114500000D03*
X116625000Y-114500000D03*
%TD*%
%TO.C,R25*%
X118725000Y-92300000D03*
X117075000Y-92300000D03*
%TD*%
D33*
%TO.C,Y2*%
X96824999Y-101049999D03*
X96824999Y-98949999D03*
X95174999Y-98949999D03*
X95174999Y-101049999D03*
%TD*%
D13*
%TO.C,R45*%
X138000000Y-108725000D03*
X138000000Y-107075000D03*
%TD*%
D45*
%TO.C,SW2*%
X157799999Y-90499999D03*
X157799999Y-93899999D03*
%TD*%
D21*
%TO.C,C47*%
X109725000Y-135500000D03*
X111275000Y-135500000D03*
%TD*%
D18*
%TO.C,C19*%
X155275000Y-87300000D03*
X153725000Y-87300000D03*
%TD*%
D14*
%TO.C,Q1*%
X110599999Y-118999999D03*
D15*
X108059999Y-118999999D03*
X105519999Y-118999999D03*
%TD*%
D22*
%TO.C,R17*%
X97375000Y-106600000D03*
X99025000Y-106600000D03*
%TD*%
D20*
%TO.C,C45*%
X137400000Y-126075000D03*
X137400000Y-124525000D03*
%TD*%
D29*
%TO.C,D1*%
X107549999Y-115999999D03*
X105449999Y-115999999D03*
%TD*%
D21*
%TO.C,C41*%
X154725000Y-135500000D03*
X156275000Y-135500000D03*
%TD*%
D46*
%TO.C,C9*%
X110000000Y-90850000D03*
X110000000Y-88150000D03*
%TD*%
D47*
%TO.C,D9*%
X121499999Y-104899999D03*
X121499999Y-102099999D03*
%TD*%
D13*
%TO.C,R31*%
X119500000Y-102325000D03*
X119500000Y-100675000D03*
%TD*%
D20*
%TO.C,C36*%
X132200000Y-84675000D03*
X132200000Y-83125000D03*
%TD*%
D21*
%TO.C,C39*%
X94950000Y-103000000D03*
X96500000Y-103000000D03*
%TD*%
D48*
%TO.C,U8*%
X93049999Y-103499999D03*
X93049999Y-102499999D03*
X93049999Y-101499999D03*
X93049999Y-100499999D03*
X93049999Y-99499999D03*
X87949999Y-99499999D03*
X87949999Y-100499999D03*
X87949999Y-101499999D03*
X87949999Y-102499999D03*
X87949999Y-103499999D03*
D49*
X90499999Y-101499999D03*
%TD*%
D12*
%TO.C,R47*%
X140525000Y-124500000D03*
X138875000Y-124500000D03*
%TD*%
D20*
%TO.C,C37*%
X99800000Y-101475000D03*
X99800000Y-99925000D03*
%TD*%
D25*
%TO.C,C16*%
X96000000Y-87725000D03*
X96000000Y-89275000D03*
%TD*%
D18*
%TO.C,C3*%
X114550000Y-86900000D03*
X113000000Y-86900000D03*
%TD*%
D50*
%TO.C,U1*%
X150675000Y-98000000D03*
X150675000Y-97500000D03*
X150675000Y-97000000D03*
X150675000Y-96500000D03*
X150675000Y-96000000D03*
X150675000Y-95500000D03*
X150675000Y-95000000D03*
X150675000Y-94500000D03*
X150675000Y-94000000D03*
X150675000Y-93500000D03*
X150675000Y-93000000D03*
X150675000Y-92500000D03*
X150675000Y-92000000D03*
X150675000Y-91500000D03*
X150675000Y-91000000D03*
X150675000Y-90500000D03*
X150675000Y-90000000D03*
X150675000Y-89500000D03*
X150675000Y-89000000D03*
X150675000Y-88500000D03*
X150675000Y-88000000D03*
X150675000Y-87500000D03*
X150675000Y-87000000D03*
X150675000Y-86500000D03*
X150675000Y-86000000D03*
D51*
X149000000Y-84325000D03*
X148500000Y-84325000D03*
X148000000Y-84325000D03*
X147500000Y-84325000D03*
X147000000Y-84325000D03*
X146500000Y-84325000D03*
X146000000Y-84325000D03*
X145500000Y-84325000D03*
X145000000Y-84325000D03*
X144500000Y-84325000D03*
X144000000Y-84325000D03*
X143500000Y-84325000D03*
X143000000Y-84325000D03*
X142500000Y-84325000D03*
X142000000Y-84325000D03*
X141500000Y-84325000D03*
X141000000Y-84325000D03*
X140500000Y-84325000D03*
X140000000Y-84325000D03*
X139500000Y-84325000D03*
X139000000Y-84325000D03*
X138500000Y-84325000D03*
X138000000Y-84325000D03*
X137500000Y-84325000D03*
X137000000Y-84325000D03*
D50*
X135325000Y-86000000D03*
X135325000Y-86500000D03*
X135325000Y-87000000D03*
X135325000Y-87500000D03*
X135325000Y-88000000D03*
X135325000Y-88500000D03*
X135325000Y-89000000D03*
X135325000Y-89500000D03*
X135325000Y-90000000D03*
X135325000Y-90500000D03*
X135325000Y-91000000D03*
X135325000Y-91500000D03*
X135325000Y-92000000D03*
X135325000Y-92500000D03*
X135325000Y-93000000D03*
X135325000Y-93500000D03*
X135325000Y-94000000D03*
X135325000Y-94500000D03*
X135325000Y-95000000D03*
X135325000Y-95500000D03*
X135325000Y-96000000D03*
X135325000Y-96500000D03*
X135325000Y-97000000D03*
X135325000Y-97500000D03*
X135325000Y-98000000D03*
D51*
X137000000Y-99675000D03*
X137500000Y-99675000D03*
X138000000Y-99675000D03*
X138500000Y-99675000D03*
X139000000Y-99675000D03*
X139500000Y-99675000D03*
X140000000Y-99675000D03*
X140500000Y-99675000D03*
X141000000Y-99675000D03*
X141500000Y-99675000D03*
X142000000Y-99675000D03*
X142500000Y-99675000D03*
X143000000Y-99675000D03*
X143500000Y-99675000D03*
X144000000Y-99675000D03*
X144500000Y-99675000D03*
X145000000Y-99675000D03*
X145500000Y-99675000D03*
X146000000Y-99675000D03*
X146500000Y-99675000D03*
X147000000Y-99675000D03*
X147500000Y-99675000D03*
X148000000Y-99675000D03*
X148500000Y-99675000D03*
X149000000Y-99675000D03*
%TD*%
D29*
%TO.C,D11*%
X138549999Y-115999999D03*
X136449999Y-115999999D03*
%TD*%
D47*
%TO.C,D6*%
X129499999Y-106399999D03*
X129499999Y-103599999D03*
%TD*%
D18*
%TO.C,C31*%
X135275000Y-83500000D03*
X133725000Y-83500000D03*
%TD*%
D32*
%TO.C,D14*%
X139512500Y-104900000D03*
X141087500Y-104900000D03*
%TD*%
D18*
%TO.C,C35*%
X155175000Y-95100000D03*
X153625000Y-95100000D03*
%TD*%
D25*
%TO.C,C1*%
X97800000Y-125325000D03*
X97800000Y-126875000D03*
%TD*%
D22*
%TO.C,R44*%
X97275000Y-81300000D03*
X98925000Y-81300000D03*
%TD*%
D14*
%TO.C,Q4*%
X122099999Y-118999999D03*
D15*
X119559999Y-118999999D03*
X117019999Y-118999999D03*
%TD*%
D21*
%TO.C,C30*%
X148725000Y-82300000D03*
X150275000Y-82300000D03*
%TD*%
D34*
%TO.C,D13*%
X128337500Y-91950000D03*
X128337500Y-90050000D03*
X126462500Y-91000000D03*
%TD*%
D47*
%TO.C,D8*%
X125499999Y-104899999D03*
X125499999Y-102099999D03*
%TD*%
D41*
%TO.C,U102*%
X125950000Y-123255000D03*
X125950000Y-124525000D03*
X125950000Y-125795000D03*
X125950000Y-127065000D03*
X125950000Y-128335000D03*
X125950000Y-129605000D03*
X125950000Y-130875000D03*
X125950000Y-132145000D03*
X135250000Y-132145000D03*
X135250000Y-130875000D03*
X135250000Y-129605000D03*
X135250000Y-128335000D03*
X135250000Y-127065000D03*
X135250000Y-125795000D03*
X135250000Y-124525000D03*
X135250000Y-123255000D03*
%TD*%
D12*
%TO.C,R8*%
X129825000Y-114500000D03*
X128175000Y-114500000D03*
%TD*%
D20*
%TO.C,C24*%
X159900000Y-126075000D03*
X159900000Y-124525000D03*
%TD*%
D21*
%TO.C,C43*%
X132225000Y-135500000D03*
X133775000Y-135500000D03*
%TD*%
D29*
%TO.C,D2*%
X99224999Y-115999999D03*
X97124999Y-115999999D03*
%TD*%
D25*
%TO.C,C40*%
X85800000Y-100225000D03*
X85800000Y-101775000D03*
%TD*%
D21*
%TO.C,C15*%
X94425000Y-127000000D03*
X95975000Y-127000000D03*
%TD*%
D41*
%TO.C,U103*%
X148450000Y-123255000D03*
X148450000Y-124525000D03*
X148450000Y-125795000D03*
X148450000Y-127065000D03*
X148450000Y-128335000D03*
X148450000Y-129605000D03*
X148450000Y-130875000D03*
X148450000Y-132145000D03*
X157750000Y-132145000D03*
X157750000Y-130875000D03*
X157750000Y-129605000D03*
X157750000Y-128335000D03*
X157750000Y-127065000D03*
X157750000Y-125795000D03*
X157750000Y-124525000D03*
X157750000Y-123255000D03*
%TD*%
D21*
%TO.C,C44*%
X132225000Y-133900000D03*
X133775000Y-133900000D03*
%TD*%
D14*
%TO.C,Q3*%
X133099999Y-118999999D03*
D15*
X130559999Y-118999999D03*
X128019999Y-118999999D03*
%TD*%
D25*
%TO.C,C12*%
X92400000Y-123225000D03*
X92400000Y-124775000D03*
%TD*%
D12*
%TO.C,R15*%
X141825000Y-114500000D03*
X140175000Y-114500000D03*
%TD*%
D25*
%TO.C,C33*%
X110000000Y-82725000D03*
X110000000Y-84275000D03*
%TD*%
D34*
%TO.C,U6*%
X118437500Y-88450000D03*
X118437500Y-86550000D03*
X116562500Y-87500000D03*
%TD*%
D12*
%TO.C,R101*%
X159525000Y-133900000D03*
X157875000Y-133900000D03*
%TD*%
D21*
%TO.C,C28*%
X153725000Y-84300000D03*
X155275000Y-84300000D03*
%TD*%
D22*
%TO.C,R38*%
X142875000Y-104900000D03*
X144525000Y-104900000D03*
%TD*%
D18*
%TO.C,C13*%
X122275000Y-109000000D03*
X120725000Y-109000000D03*
%TD*%
D13*
%TO.C,R32*%
X123500000Y-102825000D03*
X123500000Y-101175000D03*
%TD*%
D12*
%TO.C,R2*%
X110825000Y-116000000D03*
X109175000Y-116000000D03*
%TD*%
D25*
%TO.C,C8*%
X92600000Y-89450000D03*
X92600000Y-91000000D03*
%TD*%
D18*
%TO.C,C14*%
X121775000Y-107000000D03*
X120225000Y-107000000D03*
%TD*%
D52*
%TO.C,C17*%
X99999999Y-84499999D03*
D53*
X100000000Y-87000000D03*
%TD*%
D54*
%TO.C,J3*%
X115600000Y-95350000D03*
D55*
X113599999Y-95349999D03*
X111599999Y-95349999D03*
X109599999Y-95349999D03*
X107599999Y-95349999D03*
X105599999Y-95349999D03*
%TD*%
D56*
%TO.C,J2*%
X113500000Y-83550000D03*
D55*
X115499999Y-83549999D03*
X117499999Y-83549999D03*
X119499999Y-83549999D03*
X121499999Y-83549999D03*
X123499999Y-83549999D03*
%TD*%
D57*
%TO.C,C101*%
X105999999Y-110499999D03*
D58*
X101000000Y-110500000D03*
%TD*%
D57*
%TO.C,C102*%
X132999999Y-110499999D03*
D58*
X128000000Y-110500000D03*
%TD*%
D59*
%TO.C,X3*%
X97000000Y-134000000D03*
X99500000Y-137000000D03*
X99500000Y-131000000D03*
X94500000Y-137000000D03*
X94500000Y-131000000D03*
%TD*%
%TO.C,X4*%
X119500000Y-134000000D03*
X122000000Y-137000000D03*
X122000000Y-131000000D03*
X117000000Y-137000000D03*
X117000000Y-131000000D03*
%TD*%
D60*
%TO.C,J1*%
X156187499Y-98699999D03*
D61*
X158337499Y-101499999D03*
D60*
X156187499Y-104299999D03*
%TD*%
D59*
%TO.C,X1*%
X86700000Y-111500000D03*
X89200000Y-114500000D03*
X89200000Y-108500000D03*
X84200000Y-114500000D03*
X84200000Y-108500000D03*
%TD*%
D52*
%TO.C,C5*%
X93999999Y-94999999D03*
D53*
X96500000Y-95000000D03*
%TD*%
D57*
%TO.C,C103*%
X149423958Y-110499999D03*
D58*
X144423959Y-110500000D03*
%TD*%
D62*
%TO.C,J4*%
X134999999Y-102599999D03*
D63*
X137539999Y-102599999D03*
X140079999Y-102599999D03*
X142619999Y-102599999D03*
%TD*%
D59*
%TO.C,X5*%
X142000000Y-134000000D03*
X144500000Y-137000000D03*
X144500000Y-131000000D03*
X139500000Y-137000000D03*
X139500000Y-131000000D03*
%TD*%
D62*
%TO.C,J5*%
X158199999Y-87399999D03*
D63*
X158199999Y-84859999D03*
X158199999Y-82319999D03*
%TD*%
D59*
%TO.C,X2*%
X86700000Y-123700000D03*
X89200000Y-126700000D03*
X89200000Y-120700000D03*
X84200000Y-126700000D03*
X84200000Y-120700000D03*
%TD*%
M02*
